<svg id="Layer_1" data-name="Layer 1" xmlns="http://www.w3.org/2000/svg" viewBox="0 0 126.64 96"><defs><style>.cls-1{fill:none;stroke:#000;stroke-linecap:round;stroke-miterlimit:10;stroke-width:6px;}</style></defs><title>black-sound-on</title><path d="M65.73,89.67a3.38,3.38,0,0,1-2-.68L29,62.86a6.4,6.4,0,0,0-3.82-1.27H11.44A3.35,3.35,0,0,1,8.1,58.24V36.82a3.35,3.35,0,0,1,3.34-3.35H25.17A6.41,6.41,0,0,0,29,32.19L63.73,6.07a3.31,3.31,0,0,1,2-.68A3.37,3.37,0,0,1,69.1,8.75V86.31a3.23,3.23,0,0,1-1,2.42,3.42,3.42,0,0,1-2.34.94Z"/><path d="M65.73,6.89A1.85,1.85,0,0,1,67.6,8.75V86.31a1.86,1.86,0,0,1-1.87,1.86,1.78,1.78,0,0,1-1.09-.38L29.89,61.66a7.94,7.94,0,0,0-4.72-1.57H11.44A1.84,1.84,0,0,1,9.6,58.24V36.82A1.84,1.84,0,0,1,11.44,35H25.17a7.88,7.88,0,0,0,4.72-1.58L64.64,7.27a1.78,1.78,0,0,1,1.09-.38m0-3a4.76,4.76,0,0,0-2.9,1L28.09,31a4.82,4.82,0,0,1-2.92,1H11.44A4.85,4.85,0,0,0,6.6,36.82V47.15l-.5.38.5.37V58.24a4.85,4.85,0,0,0,4.84,4.85H25.17a4.88,4.88,0,0,1,2.92,1L62.83,90.19a4.85,4.85,0,0,0,7.77-3.88V8.75a4.85,4.85,0,0,0-4.87-4.86Z"/><path class="cls-1" d="M78.6,71.4A34.88,34.88,0,0,0,88.94,46.1,34.86,34.86,0,0,0,78.6,20.81"/><path class="cls-1" d="M91.42,77.1c6.32-7.21,10.35-18.1,10.35-30.28s-4-23.08-10.35-30.29"/><path class="cls-1" d="M104.25,84.23c6.32-8.74,10.35-21.93,10.35-36.7s-4-28-10.35-36.7"/></svg>