<svg id="Layer_1" data-name="Layer 1" xmlns="http://www.w3.org/2000/svg" viewBox="0 0 126.64 96"><defs><style>.cls-1{fill:none;stroke:#000;stroke-linecap:round;stroke-miterlimit:10;stroke-width:6px;}</style></defs><title>black-sound-off</title><path d="M65.73,90.24a3.31,3.31,0,0,1-2-.68L29,63.44a6.41,6.41,0,0,0-3.82-1.28H11.44A3.35,3.35,0,0,1,8.1,58.81V37.39A3.35,3.35,0,0,1,11.44,34H25.17A6.4,6.4,0,0,0,29,32.77L63.73,6.64A3.35,3.35,0,0,1,69.1,9.32V86.89a3.23,3.23,0,0,1-1,2.41,3.42,3.42,0,0,1-2.34.94Z"/><path d="M65.73,7.46A1.86,1.86,0,0,1,67.6,9.32V86.89a1.85,1.85,0,0,1-1.87,1.85,1.78,1.78,0,0,1-1.09-.38L29.89,62.24a7.88,7.88,0,0,0-4.72-1.58H11.44A1.84,1.84,0,0,1,9.6,58.81V37.39a1.84,1.84,0,0,1,1.84-1.85H25.17A7.94,7.94,0,0,0,29.89,34L64.64,7.84a1.78,1.78,0,0,1,1.09-.38m0-3a4.83,4.83,0,0,0-2.9,1L28.09,31.57a4.88,4.88,0,0,1-2.92,1H11.44A4.85,4.85,0,0,0,6.6,37.39V47.73l-.5.37.5.38V58.81a4.85,4.85,0,0,0,4.84,4.85H25.17a4.82,4.82,0,0,1,2.92,1L62.83,90.76a4.76,4.76,0,0,0,2.9,1,4.85,4.85,0,0,0,4.87-4.85V9.32a4.86,4.86,0,0,0-4.87-4.86Z"/><line class="cls-1" x1="78.1" y1="28.85" x2="116.6" y2="67.35"/><line class="cls-1" x1="78.1" y1="67.35" x2="116.6" y2="28.85"/></svg>