<svg id="Layer_1" data-name="Layer 1" xmlns="http://www.w3.org/2000/svg" viewBox="0 0 404 79"><defs><style>.cls-1{fill:#f0f;stroke:#000;stroke-miterlimit:10;stroke-width:2px;}</style></defs><title>click2</title><path class="cls-1" d="M54,10.35a27.47,27.47,0,0,1,10.63,8.78,31.93,31.93,0,0,1,5.44,13.23H49a11.44,11.44,0,0,0-4.09-4.9,10.73,10.73,0,0,0-6.08-1.76,9.51,9.51,0,0,0-8,3.78Q27.94,33.26,28,39.65t2.93,10.17a9.51,9.51,0,0,0,8,3.78,10.81,10.81,0,0,0,6.08-1.76A11.44,11.44,0,0,0,49,46.94H70.07a31.93,31.93,0,0,1-5.44,13.23A27.36,27.36,0,0,1,54,68.94a34,34,0,0,1-14.8,3.11A33,33,0,0,1,22.46,68,27.63,27.63,0,0,1,11.53,56.48,35.92,35.92,0,0,1,7.7,39.65a35.92,35.92,0,0,1,3.83-16.83A27.63,27.63,0,0,1,22.46,11.34,33.06,33.06,0,0,1,39.2,7.25,34,34,0,0,1,54,10.35Z"/><path class="cls-1" d="M97.25,56.48h19.26V71.6H77.27V7.88h20Z"/><path class="cls-1" d="M142.79,7.88V71.6h-20V7.88Z"/><path class="cls-1" d="M196.29,10.35a27.37,27.37,0,0,1,10.62,8.78,31.81,31.81,0,0,1,5.45,13.23H191.3a11.39,11.39,0,0,0-4.1-4.9,10.68,10.68,0,0,0-6.07-1.76,9.54,9.54,0,0,0-8,3.78q-2.92,3.78-2.92,10.17t2.92,10.17a9.54,9.54,0,0,0,8,3.78,10.75,10.75,0,0,0,6.07-1.76,11.39,11.39,0,0,0,4.1-4.9h21.06a31.81,31.81,0,0,1-5.45,13.23,27.26,27.26,0,0,1-10.62,8.77,34,34,0,0,1-14.8,3.11A33,33,0,0,1,164.75,68a27.71,27.71,0,0,1-10.94-11.48A36,36,0,0,1,150,39.65a36,36,0,0,1,3.82-16.83,27.71,27.71,0,0,1,10.94-11.48,33.06,33.06,0,0,1,16.74-4.09A34,34,0,0,1,196.29,10.35Z"/><path class="cls-1" d="M258.53,38.84,282.11,71.6h-24L239.54,44V71.6h-20V7.88h20V34.79L258.26,7.88h23.85Z"/><path class="cls-1" d="M314.51,3.65l-2.34,42.66h-17.1L292.73,3.65Zm-1,48.87V71.6h-19.8V52.52Z"/><path class="cls-1" d="M353.66,3.65l-2.34,42.66h-17.1L331.88,3.65Zm-1,48.87V71.6h-19.8V52.52Z"/><path class="cls-1" d="M392.81,3.65l-2.34,42.66h-17.1L371,3.65Zm-1,48.87V71.6H372V52.52Z"/></svg>