<?xml version="1.0" encoding="utf-8"?>
<!-- Generator: Adobe Illustrator 23.0.2, SVG Export Plug-In . SVG Version: 6.00 Build 0)  -->
<svg version="1.1" id="Layer_1" xmlns="http://www.w3.org/2000/svg" xmlns:xlink="http://www.w3.org/1999/xlink" x="0px" y="0px"
	 viewBox="0 0 404 79" style="enable-background:new 0 0 404 79;" xml:space="preserve">
<style type="text/css">
	.st0{fill:#FF00FF;stroke:#000000;stroke-width:0.5;stroke-miterlimit:10;}
</style>
<title>click2</title>
<path class="st0" d="M54,10.4c4.2,2,7.9,5,10.6,8.8c2.8,3.9,4.7,8.5,5.4,13.2H49c-0.9-2-2.3-3.7-4.1-4.9c-1.8-1.2-3.9-1.8-6.1-1.8
	c-3.1-0.1-6.1,1.3-8,3.8C28.9,32,28,35.4,28,39.7s1,7.7,2.9,10.2s4.9,3.9,8,3.8c2.2,0,4.3-0.6,6.1-1.8s3.1-2.9,4-4.9h21.1
	c-0.8,4.8-2.6,9.3-5.4,13.2C61.9,64,58.2,67,54,68.9c-4.6,2.1-9.7,3.2-14.8,3.1c-5.8,0.2-11.6-1.2-16.7-4.1
	c-4.7-2.7-8.5-6.7-10.9-11.5c-2.6-5.2-3.9-11-3.8-16.8C7.6,33.8,8.9,28,11.5,22.8c2.5-4.8,6.3-8.8,11-11.5
	c5.1-2.8,10.9-4.2,16.7-4.1C44.3,7.2,49.4,8.2,54,10.4z"/>
<path class="st0" d="M97.3,56.5h19.3v15.1H77.3V7.9h20V56.5z"/>
<path class="st0" d="M142.8,7.9v63.7h-20V7.9H142.8z"/>
<path class="st0" d="M196.3,10.4c4.2,2,7.9,5,10.6,8.8c2.8,3.9,4.7,8.5,5.4,13.2h-21.1c-0.9-2-2.3-3.7-4.1-4.9
	c-1.8-1.2-3.9-1.8-6.1-1.8c-3.1-0.1-6.1,1.3-8,3.8s-2.9,5.9-2.9,10.2s1,7.6,2.9,10.2c1.9,2.5,4.9,3.9,8,3.8c2.2,0,4.3-0.6,6.1-1.8
	s3.2-2.9,4.1-4.9h21.1c-0.8,4.8-2.7,9.3-5.4,13.2c-2.7,3.8-6.4,6.8-10.6,8.8c-4.6,2.1-9.7,3.2-14.8,3.1c-5.8,0.2-11.6-1.2-16.7-4.1
	c-4.7-2.7-8.5-6.7-10.9-11.5c-2.6-5.2-3.9-11-3.8-16.9c-0.1-5.8,1.2-11.6,3.8-16.8c2.5-4.8,6.3-8.8,10.9-11.5
	c5.1-2.8,10.9-4.2,16.7-4.1C186.6,7.2,191.7,8.2,196.3,10.4z"/>
<path class="st0" d="M258.5,38.8l23.6,32.8h-24L239.5,44v27.6h-20V7.9h20v26.9l18.7-26.9h23.9L258.5,38.8z"/>
<path class="st0" d="M314.5,3.7l-2.3,42.7h-17.1l-2.3-42.7C292.8,3.7,314.5,3.7,314.5,3.7z M313.5,52.5v19.1h-19.8V52.5H313.5z"/>
<path class="st0" d="M353.7,3.7l-2.3,42.7h-17.1L332,3.7C332,3.7,353.7,3.7,353.7,3.7z M352.7,52.5v19.1h-19.8V52.5H352.7z"/>
<path class="st0" d="M392.8,3.7l-2.3,42.7h-17.1L371,3.7H392.8z M391.8,52.5v19.1H372V52.5H391.8z"/>
</svg>
