<?xml version="1.0" encoding="utf-8"?>
<!-- Generator: Adobe Illustrator 23.0.2, SVG Export Plug-In . SVG Version: 6.00 Build 0)  -->
<svg version="1.1" id="Layer_1" xmlns="http://www.w3.org/2000/svg" xmlns:xlink="http://www.w3.org/1999/xlink" x="0px" y="0px"
	 viewBox="0 0 361 91" style="enable-background:new 0 0 361 91;" xml:space="preserve">
<style type="text/css">
	.st0{fill:#00FF66;stroke:#000000;stroke-width:0.5;stroke-miterlimit:10;}
</style>
<title>click1</title>
<path class="st0" d="M54,18.4c4.2,2,7.9,5,10.6,8.8c2.8,3.9,4.7,8.5,5.4,13.2H49c-0.9-2-2.3-3.7-4.1-4.9c-1.8-1.2-3.9-1.8-6.1-1.8
	c-3.1-0.1-6.1,1.3-8,3.8C28.9,40,28,43.4,28,47.7s1,7.7,2.9,10.2c1.9,2.5,4.9,3.9,8,3.8c2.2,0,4.3-0.6,6.1-1.8
	c1.8-1.2,3.1-2.9,4-4.9h21.1c-0.8,4.8-2.6,9.3-5.4,13.2C61.9,72,58.2,75,54,76.9c-4.6,2.1-9.7,3.2-14.8,3.1
	c-5.8,0.2-11.6-1.2-16.7-4.1c-4.7-2.7-8.5-6.7-10.9-11.5c-2.6-5.2-3.9-11-3.8-16.8C7.6,41.8,8.9,36,11.5,30.8
	C14,26,17.8,22,22.5,19.3c5.1-2.8,10.9-4.2,16.7-4.1C44.3,15.2,49.4,16.2,54,18.4z"/>
<path class="st0" d="M97.3,64.5h19.3v15.1H77.3V15.9h20L97.3,64.5z"/>
<path class="st0" d="M142.8,15.9v63.7h-20V15.9H142.8z"/>
<path class="st0" d="M196.3,18.4c4.2,2,7.9,5,10.6,8.8c2.8,3.9,4.7,8.5,5.4,13.2h-21.1c-0.9-2-2.3-3.7-4.1-4.9
	c-1.8-1.2-3.9-1.8-6.1-1.8c-3.1-0.1-6.1,1.3-8,3.8c-1.9,2.5-2.9,5.9-2.9,10.2s1,7.7,2.9,10.2c1.9,2.5,4.9,3.9,8,3.8
	c2.2,0,4.3-0.6,6.1-1.8c1.8-1.2,3.2-2.9,4.1-4.9h21.1c-0.8,4.8-2.7,9.3-5.4,13.2c-2.7,3.8-6.4,6.8-10.6,8.8
	c-4.6,2.1-9.7,3.2-14.8,3.1c-5.8,0.2-11.6-1.2-16.7-4.1c-4.7-2.7-8.5-6.7-10.9-11.5c-2.6-5.2-3.9-11-3.8-16.9
	c-0.1-5.8,1.2-11.6,3.8-16.8c2.5-4.8,6.3-8.8,10.9-11.5c5.1-2.8,10.9-4.2,16.7-4.1C186.6,15.2,191.7,16.2,196.3,18.4z"/>
<path class="st0" d="M258.5,46.8l23.6,32.8h-24L239.5,52v27.6h-20V15.9h20v26.9l18.7-26.9h23.9L258.5,46.8z"/>
<path class="st0" d="M314.5,11.6l-2.3,42.7h-17.1l-2.3-42.7L314.5,11.6z M313.5,60.5v19.1h-19.8V60.5L313.5,60.5z"/>
<path class="st0" d="M353.7,11.6l-2.3,42.7h-17.1l-2.3-42.7L353.7,11.6z M352.7,60.5v19.1h-19.8V60.5L352.7,60.5z"/>
</svg>
