<?xml version="1.0" encoding="utf-8"?>
<!-- Generator: Adobe Illustrator 23.0.2, SVG Export Plug-In . SVG Version: 6.00 Build 0)  -->
<svg version="1.1" id="Layer_1" xmlns="http://www.w3.org/2000/svg" xmlns:xlink="http://www.w3.org/1999/xlink" x="0px" y="0px"
	 viewBox="0 0 441 77" style="enable-background:new 0 0 441 77;" xml:space="preserve">
<style type="text/css">
	.st0{fill:#FF90FF;stroke:#000000;stroke-width:0.5;stroke-miterlimit:10;}
</style>
<title>click3</title>
<path class="st0" d="M55,11.4c4.2,2,7.9,5,10.6,8.8c2.8,3.9,4.7,8.5,5.4,13.2H50c-0.9-2-2.3-3.7-4.1-4.9c-1.8-1.2-3.9-1.8-6.1-1.8
	c-3.1-0.1-6.1,1.3-8,3.8C29.9,33,29,36.4,29,40.7s1,7.7,2.9,10.2c1.9,2.5,4.9,3.9,8,3.8c2.2,0,4.3-0.6,6.1-1.8
	c1.8-1.2,3.1-2.9,4-4.9h21.1c-0.8,4.8-2.6,9.3-5.4,13.2C62.9,65,59.2,68,55,69.9c-4.6,2.1-9.7,3.2-14.8,3.1
	c-5.8,0.2-11.6-1.2-16.7-4.1c-4.7-2.7-8.5-6.7-10.9-11.5c-2.6-5.2-3.9-11-3.8-16.8C8.6,34.8,9.9,29,12.5,23.8
	C15,19,18.8,15,23.5,12.3c5.1-2.8,10.9-4.2,16.7-4.1C45.3,8.2,50.4,9.2,55,11.4z"/>
<path class="st0" d="M98.3,57.5h19.3v15.1H78.3V8.9h20L98.3,57.5z"/>
<path class="st0" d="M143.8,8.9v63.7h-20V8.9H143.8z"/>
<path class="st0" d="M197.3,11.4c4.2,2,7.9,5,10.6,8.8c2.8,3.9,4.7,8.5,5.4,13.2h-21.1c-0.9-2-2.3-3.7-4.1-4.9
	c-1.8-1.2-3.9-1.8-6.1-1.8c-3.1-0.1-6.1,1.3-8,3.8c-1.9,2.5-2.9,5.9-2.9,10.2c0,4.3,1,7.6,2.9,10.2c1.9,2.5,4.9,3.9,8,3.8
	c2.2,0,4.3-0.6,6.1-1.8c1.8-1.2,3.2-2.9,4.1-4.9h21.1c-0.8,4.8-2.7,9.3-5.4,13.2c-2.7,3.8-6.4,6.8-10.6,8.8
	c-4.6,2.1-9.7,3.2-14.8,3.1c-5.8,0.2-11.6-1.2-16.7-4.1c-4.7-2.7-8.5-6.7-10.9-11.5c-2.6-5.2-3.9-11-3.8-16.9
	c-0.1-5.8,1.2-11.6,3.8-16.8c2.5-4.8,6.3-8.8,10.9-11.5c5.1-2.8,10.9-4.2,16.7-4.1C187.6,8.2,192.7,9.2,197.3,11.4z"/>
<path class="st0" d="M259.5,39.8l23.6,32.8h-24L240.5,45v27.6h-20V8.9h20v26.9l18.7-26.9h23.9L259.5,39.8z"/>
<path class="st0" d="M315.5,4.7l-2.3,42.7h-17.1l-2.3-42.7H315.5z M314.5,53.5v19.1h-19.8V53.5H314.5z"/>
<path class="st0" d="M354.7,4.7l-2.3,42.7h-17.1l-2.3-42.7H354.7z M353.7,53.5v19.1h-19.8V53.5H353.7z"/>
<path class="st0" d="M393.8,4.7l-2.3,42.7h-17.1L372,4.7H393.8z M392.8,53.5v19.1H373V53.5H392.8z"/>
<path class="st0" d="M433,4.7l-2.3,42.7h-17.1l-2.4-42.7H433z M432,53.5v19.1h-19.8V53.5H432z"/>
</svg>
