<svg id="Layer_1" data-name="Layer 1" xmlns="http://www.w3.org/2000/svg" viewBox="0 0 441 77"><defs><style>.cls-1{fill:#fff;stroke:#000;stroke-miterlimit:10;stroke-width:2px;}</style></defs><title>click3</title><path class="cls-1" d="M55,11.35a27.47,27.47,0,0,1,10.63,8.78,31.93,31.93,0,0,1,5.44,13.23H50a11.44,11.44,0,0,0-4.09-4.9,10.73,10.73,0,0,0-6.08-1.76,9.51,9.51,0,0,0-8,3.78Q28.94,34.26,29,40.65t2.93,10.17a9.51,9.51,0,0,0,8,3.78,10.81,10.81,0,0,0,6.08-1.76A11.44,11.44,0,0,0,50,47.94H71.07a31.93,31.93,0,0,1-5.44,13.23A27.36,27.36,0,0,1,55,69.94a34,34,0,0,1-14.8,3.11A33,33,0,0,1,23.46,69,27.63,27.63,0,0,1,12.53,57.48,35.92,35.92,0,0,1,8.7,40.65a35.92,35.92,0,0,1,3.83-16.83A27.63,27.63,0,0,1,23.46,12.34,33.06,33.06,0,0,1,40.2,8.25,34,34,0,0,1,55,11.35Z"/><path class="cls-1" d="M98.25,57.48h19.26V72.6H78.27V8.88h20Z"/><path class="cls-1" d="M143.79,8.88V72.6h-20V8.88Z"/><path class="cls-1" d="M197.29,11.35a27.37,27.37,0,0,1,10.62,8.78,31.81,31.81,0,0,1,5.45,13.23H192.3a11.39,11.39,0,0,0-4.1-4.9,10.68,10.68,0,0,0-6.07-1.76,9.54,9.54,0,0,0-8,3.78q-2.92,3.78-2.92,10.17t2.92,10.17a9.54,9.54,0,0,0,8,3.78,10.75,10.75,0,0,0,6.07-1.76,11.39,11.39,0,0,0,4.1-4.9h21.06a31.81,31.81,0,0,1-5.45,13.23,27.26,27.26,0,0,1-10.62,8.77,34,34,0,0,1-14.8,3.11A33,33,0,0,1,165.75,69a27.71,27.71,0,0,1-10.94-11.48A36,36,0,0,1,151,40.65a36,36,0,0,1,3.82-16.83,27.71,27.71,0,0,1,10.94-11.48,33.06,33.06,0,0,1,16.74-4.09A34,34,0,0,1,197.29,11.35Z"/><path class="cls-1" d="M259.53,39.84,283.11,72.6h-24L240.54,45V72.6h-20V8.88h20V35.79L259.26,8.88h23.85Z"/><path class="cls-1" d="M315.51,4.65l-2.34,42.66h-17.1L293.73,4.65Zm-1,48.87V72.6h-19.8V53.52Z"/><path class="cls-1" d="M354.66,4.65l-2.34,42.66h-17.1L332.88,4.65Zm-1,48.87V72.6h-19.8V53.52Z"/><path class="cls-1" d="M393.81,4.65l-2.34,42.66h-17.1L372,4.65Zm-1,48.87V72.6H373V53.52Z"/><path class="cls-1" d="M433,4.65l-2.34,42.66h-17.1L411.18,4.65Zm-1,48.87V72.6H412.17V53.52Z"/></svg>