<svg id="Layer_1" data-name="Layer 1" xmlns="http://www.w3.org/2000/svg" xmlns:xlink="http://www.w3.org/1999/xlink" viewBox="0 0 1414 3812"><defs><style>.cls-1{fill:none;}.cls-2{fill:#0f6;}.cls-3{fill:#00cf78;}.cls-4{fill:#b2ff8a;}.cls-5{fill:#f0f;}.cls-6{fill:#ff90ff;}.cls-7{fill:#fff;}.cls-8{fill:url(#New_Pattern_2);}</style><pattern id="New_Pattern_2" data-name="New Pattern 2" width="520" height="368" patternTransform="translate(1299.5 1570.5)" patternUnits="userSpaceOnUse" viewBox="0 0 520 368"><rect class="cls-1" width="520" height="368"/><circle class="cls-2" cx="260" cy="368" r="30.76"/><circle class="cls-3" cx="364.51" cy="368" r="30.76"/><circle class="cls-4" cx="469.02" cy="368" r="30.76"/><circle class="cls-5" cx="50.98" cy="368" r="30.76"/><circle class="cls-6" cx="155.49" cy="368" r="30.76"/><circle class="cls-2" cx="520" cy="276" r="30.76"/><circle class="cls-5" cx="310.98" cy="276" r="30.76"/><circle class="cls-6" cx="415.49" cy="276" r="30.76"/><circle class="cls-2" cy="276" r="30.76"/><circle class="cls-3" cx="104.51" cy="276" r="30.76"/><circle class="cls-4" cx="209.02" cy="276" r="30.76"/><circle class="cls-2" cx="260" cy="184" r="30.76"/><circle class="cls-3" cx="364.51" cy="184" r="30.76"/><circle class="cls-4" cx="469.02" cy="184" r="30.76"/><circle class="cls-5" cx="50.98" cy="184" r="30.76"/><circle class="cls-6" cx="155.49" cy="184" r="30.76"/><circle class="cls-2" cx="520" cy="92" r="30.76"/><circle class="cls-5" cx="310.98" cy="92" r="30.76"/><circle class="cls-6" cx="415.49" cy="92" r="30.76"/><circle class="cls-2" cy="92" r="30.76"/><circle class="cls-3" cx="104.51" cy="92" r="30.76"/><circle class="cls-4" cx="209.02" cy="92" r="30.76"/><circle class="cls-2" cx="260" r="30.76"/><circle class="cls-3" cx="364.51" r="30.76"/><circle class="cls-4" cx="469.02" r="30.76"/><circle class="cls-5" cx="50.98" r="30.76"/><circle class="cls-6" cx="155.49" r="30.76"/></pattern></defs><title>dots1</title><rect class="cls-7" width="1414" height="3812"/><rect class="cls-8" width="1414" height="3812"/></svg>