<svg id="Layer_1" data-name="Layer 1" xmlns="http://www.w3.org/2000/svg" xmlns:xlink="http://www.w3.org/1999/xlink" viewBox="0 0 1366 683"><defs><style>.cls-1{fill:none;}.cls-2{fill:#0f6;}.cls-3{fill:#f0f;}.cls-4{fill:#ff90ff;}.cls-5{fill:#00cf78;}.cls-6{fill:#b2ff8a;}.cls-7{fill:url(#New_Pattern_5);}</style><pattern id="New_Pattern_5" data-name="New Pattern 5" width="451" height="450" patternUnits="userSpaceOnUse" viewBox="0 0 451 450"><rect class="cls-1" width="451" height="450"/><circle class="cls-2" cx="451" cy="450" r="21.26"/><circle class="cls-3" cx="270.97" cy="450" r="21.26"/><circle class="cls-4" cx="360.99" cy="450" r="21.26"/><circle class="cls-2" cy="450" r="21.26"/><circle class="cls-5" cx="90.01" cy="450" r="21.26"/><circle class="cls-6" cx="180.03" cy="450" r="21.26"/><circle class="cls-2" cx="225.5" cy="375" r="21.26"/><circle class="cls-5" cx="315.51" cy="375" r="21.26"/><circle class="cls-6" cx="405.53" cy="375" r="21.26"/><circle class="cls-3" cx="45.47" cy="375" r="21.26"/><circle class="cls-4" cx="135.49" cy="375" r="21.26"/><circle class="cls-2" cx="451" cy="300" r="21.26"/><circle class="cls-3" cx="270.97" cy="300" r="21.26"/><circle class="cls-4" cx="360.99" cy="300" r="21.26"/><circle class="cls-2" cy="300" r="21.26"/><circle class="cls-5" cx="90.01" cy="300" r="21.26"/><circle class="cls-6" cx="180.03" cy="300" r="21.26"/><circle class="cls-2" cx="225.5" cy="225" r="21.26"/><circle class="cls-5" cx="315.51" cy="225" r="21.26"/><circle class="cls-6" cx="405.53" cy="225" r="21.26"/><circle class="cls-3" cx="45.47" cy="225" r="21.26"/><circle class="cls-4" cx="135.49" cy="225" r="21.26"/><circle class="cls-2" cx="451" cy="150" r="21.26"/><circle class="cls-3" cx="270.97" cy="150" r="21.26"/><circle class="cls-4" cx="360.99" cy="150" r="21.26"/><circle class="cls-2" cy="150" r="21.26"/><circle class="cls-5" cx="90.01" cy="150" r="21.26"/><circle class="cls-6" cx="180.03" cy="150" r="21.26"/><circle class="cls-2" cx="225.5" cy="75" r="21.26"/><circle class="cls-5" cx="315.51" cy="75" r="21.26"/><circle class="cls-6" cx="405.53" cy="75" r="21.26"/><circle class="cls-3" cx="45.47" cy="75" r="21.26"/><circle class="cls-4" cx="135.49" cy="75" r="21.26"/><circle class="cls-2" cx="451" r="21.26"/><circle class="cls-3" cx="270.97" r="21.26"/><circle class="cls-4" cx="360.99" r="21.26"/><circle class="cls-2" r="21.26"/><circle class="cls-5" cx="90.01" r="21.26"/><circle class="cls-6" cx="180.03" r="21.26"/></pattern></defs><title>dots</title><rect class="cls-7" x="4" width="1355" height="683"/></svg>