<svg id="Layer_1" data-name="Layer 1" xmlns="http://www.w3.org/2000/svg" viewBox="0 0 90.75 90.76"><title>email</title><path d="M53.06,59.86c-.24-.1-.34,0-.42.21a19.34,19.34,0,0,1-2.78,5.23,12.45,12.45,0,0,1-8.84,5,16.53,16.53,0,0,1-7.73-.89,14.58,14.58,0,0,1-6.16-4.53,19.34,19.34,0,0,1-3.86-8.34,35,35,0,0,1-.66-8.79A39.35,39.35,0,0,1,23.89,39a28,28,0,0,1,4.55-9.47,22.32,22.32,0,0,1,6.67-6.13,16.91,16.91,0,0,1,6.51-2.22,16.29,16.29,0,0,1,6.22.3A8.41,8.41,0,0,1,54,27.11c.05.13,0,.38.34.32L54.84,22H66.93c-.05.49-.09,1-.14,1.44q-.32,3.15-.62,6.3-.28,2.93-.56,5.87c-.15,1.66-.28,3.32-.42,5s-.27,3.32-.37,5a72.59,72.59,0,0,0-.25,9,10,10,0,0,0,.92,4,3.42,3.42,0,0,0,3.78,2,6.86,6.86,0,0,0,4.56-2.79,18.39,18.39,0,0,0,3-5.94,32.65,32.65,0,0,0,1.33-6.4,49.06,49.06,0,0,0,.28-8.22A30,30,0,0,0,75.38,25,26.11,26.11,0,0,0,62.94,12.78a30,30,0,0,0-7.69-2.36,42.15,42.15,0,0,0-9.52-.51A32.66,32.66,0,0,0,26.78,17a37.88,37.88,0,0,0-10.9,13.87A37.47,37.47,0,0,0,13,40.53a46,46,0,0,0-.52,9.81,37.51,37.51,0,0,0,2,10.75A28.29,28.29,0,0,0,22,72.61a29.38,29.38,0,0,0,11.47,6.53,38.83,38.83,0,0,0,7,1.44,54.7,54.7,0,0,0,9.14.24,50.55,50.55,0,0,0,13.89-2.67c1.58-.55,3.11-1.24,4.66-1.87l.28-.11v.34q0,5,0,9.9a.41.41,0,0,1-.3.44,45.22,45.22,0,0,1-9.18,2.71,70.41,70.41,0,0,1-10,1.1c-2.64.11-5.28.14-7.91,0a49.34,49.34,0,0,1-16.17-3.57,40.66,40.66,0,0,1-11.2-7,38.21,38.21,0,0,1-7.77-9.23A39.16,39.16,0,0,1,1.56,60.56a45.44,45.44,0,0,1-1.26-7,58.6,58.6,0,0,1-.19-9.46A50.55,50.55,0,0,1,2.22,32.18a44.79,44.79,0,0,1,6.51-13A46.59,46.59,0,0,1,21.35,7.1,43.64,43.64,0,0,1,35.79,1.2,53.44,53.44,0,0,1,43.55.13a61.66,61.66,0,0,1,7.69,0,56.09,56.09,0,0,1,7.86,1A43.94,43.94,0,0,1,70.41,4.94a39.25,39.25,0,0,1,9.46,6.71A34.87,34.87,0,0,1,86,19.43a34.43,34.43,0,0,1,3.75,9.69,44.49,44.49,0,0,1,1,11.51,42.27,42.27,0,0,1-1.43,9.82A29.56,29.56,0,0,1,84.35,60.6a25.06,25.06,0,0,1-8.95,7.56,21.45,21.45,0,0,1-6.6,2,22.28,22.28,0,0,1-5.16.17,11.64,11.64,0,0,1-8.31-4.26,10.32,10.32,0,0,1-2.17-5.3C53.12,60.46,53.09,60.15,53.06,59.86Zm.21-18.65c0-.48,0-1,0-1.44a12.49,12.49,0,0,0-1.09-5.14,6.94,6.94,0,0,0-9.83-3.13,9.43,9.43,0,0,0-3.28,3.09,22.61,22.61,0,0,0-3.3,7.78A29.58,29.58,0,0,0,35.14,52a12.49,12.49,0,0,0,1.42,4.88,7.29,7.29,0,0,0,3,3.09,6.73,6.73,0,0,0,5.17.38,8.3,8.3,0,0,0,4.57-3.44,20.5,20.5,0,0,0,3.1-7.46A42.15,42.15,0,0,0,53.27,41.21Z"/></svg>