<svg id="Layer_1" data-name="Layer 1" xmlns="http://www.w3.org/2000/svg" xmlns:xlink="http://www.w3.org/1999/xlink" viewBox="0 0 1414 790"><defs><style>.cls-1,.cls-5,.cls-8{fill:none;}.cls-2{fill:#22d73c;}.cls-10,.cls-11,.cls-2,.cls-3,.cls-5,.cls-6,.cls-8,.cls-9{stroke:#000;stroke-miterlimit:10;}.cls-11,.cls-2,.cls-3,.cls-5,.cls-6{stroke-width:0.15px;}.cls-3{fill:#15b825;}.cls-4{fill:#0f6;}.cls-6{fill:#42d14e;}.cls-7{fill:#f0f;}.cls-8,.cls-9{stroke-width:2px;}.cls-10{fill:#fff;stroke-width:0.25px;}.cls-11{fill:#267024;}.cls-12{fill:url(#eye2);}</style><pattern id="eye2" data-name="eye2" width="260" height="198" patternTransform="translate(4043.5 1.5)" patternUnits="userSpaceOnUse" viewBox="0 0 260 198"><rect class="cls-1" width="260" height="198"/><path class="cls-2" d="M202.28,209.68l5.88,2.71a.66.66,0,0,0,.74.66c-.05,1.16,1.48.32,1.67,1.29a3.8,3.8,0,0,1-4-1c-1.42-1.68-3.08-1-4.59-1.19-.53-.07-1.4-.58-1.89.11-1.82,2.6-4.23,2.17-6.72,1.4-.61-.19-1.09-.31-1.21.53h-1.1l0,0a3.76,3.76,0,0,0-.15-.9c-.83-2-2.63-3.28-3.9-5-.69-.92-.63.3-.77.7a2.6,2.6,0,0,1-1.2-1.31,2.07,2.07,0,0,0-2.16-1.31c-2.33-1.82-2.56-4.4-2.56-7.06.18-.17.44-.3.53-.5a3.89,3.89,0,0,0-1.5-4.46c-1.4-.92-1.37-1.31.15-2.18.2-.11.5-.46.47-.51-1.16-1.75-.12-3.61-.27-5.4a9.58,9.58,0,0,0-.53-1.76l1.1.11c.32.93,1.65,1,1.84,1.93s.85.87,1.52.88l0,0c.26,1.05,1,.71,1.66.55v0a3.78,3.78,0,0,0,1.22,3.93,4.2,4.2,0,0,1,1.42,2.74,6.11,6.11,0,0,0,1.38,3.32c1.65,2.22,2,5.32,4.66,6.83,1.63.93,2.49,3.25,4.92,2.71.19,1.41,1.31.95,2.14,1.07l.07.06c0,.49.3.71.79.65h0Z"/><path class="cls-3" d="M194,200.07c0,1.5,1.58,1.52,2.33,2.32a9.48,9.48,0,0,0,2.52,1.8A2,2,0,0,1,200,206.4c-.31.44-1,.52-1.13,1.12-2.43.54-3.29-1.78-4.92-2.71-2.64-1.51-3-4.61-4.66-6.83a6.11,6.11,0,0,1-1.38-3.32,4.2,4.2,0,0,0-1.42-2.74A3.78,3.78,0,0,1,185.3,188a16.38,16.38,0,0,1,3.2,3.5c-.12.34-.36.63-.22,1,.93,2.81,2.29,5.31,5,6.81a.71.71,0,0,0,.75.71Z"/><path class="cls-2" d="M193.28,199.35c-2.71-1.5-4.07-4-5-6.81-.14-.42.1-.71.22-1,2.43,2.31,4.66,4.85,7.51,6.68l3.37,2.19-3.11-.3-.14-.09.15.08c-.75.65-1.5-.27-2.25,0h0A.66.66,0,0,0,193.28,199.35Z"/><path class="cls-3" d="M181.86,183.49c-.26-.88-1.4-1.34-1.21-2.45a36,36,0,0,1,.4-5.87c-1.72,1.52-3.23.17-4.81-.32l0,1.05c1.16,1.73.85,3.79,1.19,5.7.06.36-1,.91-1.55,1.38,0,.26,0,.52-.07.78.46,1.32,1.5.51,2.29.62l1.05.12,1.1.11c.32.93,1.65,1,1.84,1.93s.85.87,1.52.88l.09-.15s0,.11-.07.17c.26,1.05,1,.71,1.66.55C184.52,186.22,182.75,185.2,181.86,183.49Z"/><path class="cls-4" d="M176.27,175.9c1.16,1.73.85,3.79,1.19,5.7.06.36-1,.91-1.55,1.38,0-.13,0-.26-.07-.39C176,180.36,176.13,178.13,176.27,175.9Z"/><path class="cls-5" d="M176.27,175.9c1.16,1.73.85,3.79,1.19,5.7.06.36-1,.91-1.55,1.38,0-.13,0-.26-.07-.39C176,180.36,176.13,178.13,176.27,175.9Z"/><path class="cls-4" d="M178.13,184.38l1.05.12a9.58,9.58,0,0,1,.53,1.76c.15,1.79-.89,3.65.27,5.4,0,.05-.27.4-.47.51-1.52.87-1.55,1.26-.15,2.18a3.89,3.89,0,0,1,1.5,4.46c-.09.2-.35.33-.53.5-1.38,1-2.23.54-2.77-1.57-.11-.43.17-1-.6-1-.45-.35-.24-.89-.38-1.33-.34-1.09-.18-2.42-1.43-3.08a15.18,15.18,0,0,1,.69-8.54C176.3,185.08,177.34,184.27,178.13,184.38Z"/><path class="cls-5" d="M178.13,184.38l1.05.12a9.58,9.58,0,0,1,.53,1.76c.15,1.79-.89,3.65.27,5.4,0,.05-.27.4-.47.51-1.52.87-1.55,1.26-.15,2.18a3.89,3.89,0,0,1,1.5,4.46c-.09.2-.35.33-.53.5-1.38,1-2.23.54-2.77-1.57-.11-.43.17-1-.6-1-.45-.35-.24-.89-.38-1.33-.34-1.09-.18-2.42-1.43-3.08a15.18,15.18,0,0,1,.69-8.54C176.3,185.08,177.34,184.27,178.13,184.38Z"/><path class="cls-6" d="M185.77,210.3c-.65-.61-1.14-1.47-2.1-1.73.14-.88-.73-1.39-.78-2.2-2.33-1.82-2.56-4.4-2.56-7.06-1.38,1-2.23.54-2.77-1.57-.11-.43.17-1-.6-1a1,1,0,0,1-.08.21,1,1,0,0,0,.08-.21c-.45-.35-.24-.89-.38-1.33-.34-1.09-.18-2.42-1.43-3.08a15.18,15.18,0,0,1,.69-8.54c0-.26,0-.52.07-.78l-.07-.39c-2.4,4.2-3.18,8.61-1.57,13.27a35.14,35.14,0,0,0,4.36,8.65,6.4,6.4,0,0,1,1.34,3.72c.55.52.28,1.21.37,1.83.6.1.58.4.49.75.09-.35.11-.65-.49-.75-.7.79-.41,2.18-1.63,2.69-1,.44-.91,1.28-.65,2.14h0c-.38-.14-1-.48-1.09-.38-1,1.2-2.68.85-3.7,1.87-.84.89-2.16-.12-3,.76a6.34,6.34,0,0,0,6-.73h0c1.92-.07,3.22-1.47,4.79-2.27a39.79,39.79,0,0,0,4.11-2C185.66,211.85,186.7,211.16,185.77,210.3Z"/><path class="cls-7" d="M181.46,172.86c-1.24-2.25-2-2.58-4.64-1.47-2.14.91-2.29,1.48-.86,3.22a2.09,2.09,0,0,0,.28.24c1.58.49,3.09,1.84,4.81.32C181.33,174.43,182,173.88,181.46,172.86Z"/><path class="cls-5" d="M181.46,172.86c-1.24-2.25-2-2.58-4.64-1.47-2.14.91-2.29,1.48-.86,3.22a2.09,2.09,0,0,0,.28.24c1.58.49,3.09,1.84,4.81.32C181.33,174.43,182,173.88,181.46,172.86Z"/><path class="cls-2" d="M183.64,187.42l.09-.15-.07.17Z"/><ellipse class="cls-8" cx="56.98" cy="205.23" rx="32.73" ry="14.91"/><circle class="cls-8" cx="56.16" cy="205.32" r="14"/><polygon points="25.04 201 11.52 182.5 28.73 197.63 25.04 201"/><polygon points="53.66 190.4 56.25 158.5 58.66 190.42 53.66 190.4"/><polygon points="78.52 192.88 101.43 176.41 81.79 196.66 78.52 192.88"/><polygon points="38.11 193.55 29.34 170.86 42.57 191.27 38.11 193.55"/><polygon points="67.02 190.38 80.52 169.14 71.48 192.63 67.02 190.38"/><ellipse class="cls-8" cx="186.98" cy="106.23" rx="32.73" ry="14.91"/><circle class="cls-8" cx="186.16" cy="106.32" r="14"/><polygon points="155.04 102 141.52 83.5 158.73 98.63 155.04 102"/><polygon points="183.66 91.4 186.25 59.5 188.66 91.42 183.66 91.4"/><polygon points="219.59 103.83 246.52 104.14 220 108.81 219.59 103.83"/><polygon points="208.52 93.88 231.43 77.41 211.79 97.67 208.52 93.88"/><polygon points="168.11 94.55 159.34 71.86 172.57 92.27 168.11 94.55"/><polygon points="197.02 91.38 210.52 70.14 201.48 93.63 197.02 91.38"/><polygon points="164.81 117.66 155.79 127.23 160.59 114.98 164.81 117.66"/><polygon points="187.93 120.94 186.16 138.5 182.93 121.15 187.93 120.94"/><polygon points="213.7 113.78 227.43 130.32 210.25 117.4 213.7 113.78"/><circle class="cls-9" cx="186.88" cy="110.23" r="6.73"/><circle class="cls-10" cx="184.7" cy="107.68" r="2.18"/><circle class="cls-10" cx="189.25" cy="112.59" r="1.27"/><path class="cls-2" d="M72.28,110.68l5.88,2.71a.66.66,0,0,0,.74.66c-.05,1.16,1.48.32,1.67,1.29a3.8,3.8,0,0,1-4-1c-1.42-1.68-3.08-1-4.59-1.19-.53-.07-1.4-.58-1.89.11-1.82,2.6-4.23,2.17-6.72,1.4-.61-.19-1.09-.31-1.21.53h-1.1l0,0a3.76,3.76,0,0,0-.15-.9c-.83-2-2.63-3.28-3.9-5-.69-.92-.63.3-.77.7a2.6,2.6,0,0,1-1.2-1.31,2.07,2.07,0,0,0-2.16-1.31c-2.33-1.82-2.56-4.4-2.56-7.06.18-.17.44-.3.53-.5a3.89,3.89,0,0,0-1.5-4.46C48,94.43,48,94,49.51,93.17c.2-.11.5-.46.47-.51-1.16-1.75-.12-3.61-.27-5.4a9.58,9.58,0,0,0-.53-1.76l1.1.11c.32.93,1.65,1,1.84,1.93s.85.87,1.52.88l0,0c.26,1,1,.71,1.66.55v0a3.78,3.78,0,0,0,1.22,3.93,4.2,4.2,0,0,1,1.42,2.74A6.11,6.11,0,0,0,59.32,99c1.65,2.22,2,5.32,4.66,6.83,1.63.93,2.49,3.25,4.92,2.71.19,1.41,1.31,1,2.14,1.07l.07.06c0,.49.3.71.79.65h0Z"/><path class="cls-4" d="M21.31,109c4.23-1,8.54-.88,12.84-.83,5.29.06,10.54.74,15.82,1.07.55.52.28,1.21.37,1.83-.7.79-.41,2.18-1.63,2.69-1,.44-.91,1.28-.65,2.14-.38-.14-1-.48-1.09-.38-1,1.2-2.68.85-3.7,1.87-.84.89-2.16-.12-3,.76a54.4,54.4,0,0,0-8.93-.39,48.64,48.64,0,0,0-5.09-.7c-3-.12-5.65-1.36-8.34-2.47-.45-.19-1.1-.3-1.2-.88.62-1.17,2.29-.13,2.76-1.48C21.38,111.87,21.6,110.58,21.31,109Z"/><path class="cls-5" d="M21.31,109c4.23-1,8.54-.88,12.84-.83,5.29.06,10.54.74,15.82,1.07.55.52.28,1.21.37,1.83-.7.79-.41,2.18-1.63,2.69-1,.44-.91,1.28-.65,2.14-.38-.14-1-.48-1.09-.38-1,1.2-2.68.85-3.7,1.87-.84.89-2.16-.12-3,.76a54.4,54.4,0,0,0-8.93-.39,48.64,48.64,0,0,0-5.09-.7c-3-.12-5.65-1.36-8.34-2.47-.45-.19-1.1-.3-1.2-.88.62-1.17,2.29-.13,2.76-1.48C21.38,111.87,21.6,110.58,21.31,109Z"/><path class="cls-4" d="M62.19,115.18c.12-.84.6-.72,1.21-.53,2.49.77,4.9,1.2,6.72-1.4.49-.69,1.36-.18,1.89-.11,1.51.2,3.17-.49,4.59,1.19a3.8,3.8,0,0,0,4,1c-.19-1-1.72-.13-1.67-1.29h0l.83-.08v0c0,.28.09.4.31.11,3.28,1,6.56,1.94,9.86,2.83a1.26,1.26,0,0,1,1,1.61c-.94.25-2.48.24-2.71.79-.91,2.16-2.92,3.32-4.13,5.15L80.78,124c-2.39-.84-4.8-1.63-7.16-2.53-2.8-1.07-5.75-1.73-8.16-3.79C64.45,116.81,63.56,115.63,62.19,115.18Z"/><path class="cls-5" d="M62.19,115.18c.12-.84.6-.72,1.21-.53,2.49.77,4.9,1.2,6.72-1.4.49-.69,1.36-.18,1.89-.11,1.51.2,3.17-.49,4.59,1.19a3.8,3.8,0,0,0,4,1c-.19-1-1.72-.13-1.67-1.29h0l.83-.08v0c0,.28.09.4.31.11,3.28,1,6.56,1.94,9.86,2.83a1.26,1.26,0,0,1,1,1.61c-.94.25-2.48.24-2.71.79-.91,2.16-2.92,3.32-4.13,5.15L80.78,124c-2.39-.84-4.8-1.63-7.16-2.53-2.8-1.07-5.75-1.73-8.16-3.79C64.45,116.81,63.56,115.63,62.19,115.18Z"/><path class="cls-6" d="M62.19,115.18c1.37.45,2.26,1.63,3.27,2.49,2.41,2.06,5.36,2.72,8.16,3.79,2.36.9,4.77,1.69,7.16,2.53v.38c-5.63-1.28-11.39-2.13-16.36-5.43-1-.68-2.28-.15-3.44-.07-6.89.45-13.78.9-20.68.28,2.71-.32,5.44-.3,8.16-.87,3.78-.79,7.44-2.44,11.44-2,.73.08,1.15-.37,1.2-1.12Z"/><path class="cls-2" d="M84.09,124.41c1.21-1.83,3.22-3,4.13-5.15.23-.55,1.77-.54,2.71-.79a3.37,3.37,0,0,1,2.84.16,40,40,0,0,1,4.44,2.82c-.22.66,1.08,1.58.33,1.67-1.32.17-1.93,1.4-3,1.57C91.75,125.34,87.89,125.7,84.09,124.41Z"/><path class="cls-3" d="M64,101.07c0,1.5,1.58,1.52,2.33,2.32a9.48,9.48,0,0,0,2.52,1.8A2,2,0,0,1,70,107.4c-.31.44-1,.52-1.13,1.12-2.43.54-3.29-1.78-4.92-2.71-2.64-1.51-3-4.61-4.66-6.83a6.11,6.11,0,0,1-1.38-3.32,4.2,4.2,0,0,0-1.42-2.74A3.78,3.78,0,0,1,55.3,89a16.38,16.38,0,0,1,3.2,3.5c-.12.34-.36.63-.22,1.05.93,2.81,2.29,5.31,5,6.81a.71.71,0,0,0,.75.71Z"/><path class="cls-6" d="M72.93,109.76c.38-.73,1.07-.5,1.64-.48a105,105,0,0,0,15.27-.52c3.09-.33,5.92.82,8.93.58,1-.08,2,.65,3,1a.66.66,0,0,1-.2.14c-1.43.59-2.92.33-4.37.29-7.81-.24-15.62-.55-23.43-.84A5.62,5.62,0,0,1,72.93,109.76Z"/><path class="cls-2" d="M63.28,100.35c-2.71-1.5-4.07-4-5-6.81-.14-.42.1-.71.22-1.05,2.43,2.31,4.66,4.85,7.51,6.68l3.37,2.19-3.11-.3-.14-.09.15.08c-.75.65-1.5-.27-2.25,0h0A.66.66,0,0,0,63.28,100.35Z"/><path class="cls-7" d="M101.62,110.49a.66.66,0,0,0,.2-.14c.75-.15,1.64-.09,1.9-1,.14-.49-.19-.78-.7-.82.11-.25.23-.51.35-.76.32-.14.39-.44.46-.73a13,13,0,0,0,6,1c.34,0,.91-.16.91.25a1,1,0,0,1-.65,1.11,8.11,8.11,0,0,1-1.66.7A26.88,26.88,0,0,1,101.62,110.49Z"/><path class="cls-5" d="M101.62,110.49a.66.66,0,0,0,.2-.14c.75-.15,1.64-.09,1.9-1,.14-.49-.19-.78-.7-.82.11-.25.23-.51.35-.76.32-.14.39-.44.46-.73a13,13,0,0,0,6,1c.34,0,.91-.16.91.25a1,1,0,0,1-.65,1.11,8.11,8.11,0,0,1-1.66.7A26.88,26.88,0,0,1,101.62,110.49Z"/><path class="cls-3" d="M51.86,84.49c-.26-.88-1.4-1.34-1.21-2.45a36,36,0,0,1,.4-5.87c-1.72,1.52-3.23.17-4.81-.32l0,1.05c1.16,1.73.85,3.79,1.19,5.7.06.36-1,.91-1.55,1.38,0,.26,0,.52-.07.78.46,1.32,1.5.51,2.29.62l1,.12,1.1.11c.32.93,1.65,1,1.84,1.93s.85.87,1.52.88l.09-.15s0,.11-.07.17c.26,1,1,.71,1.66.55C54.52,87.22,52.75,86.2,51.86,84.49Z"/><path class="cls-4" d="M46.27,76.9c1.16,1.73.85,3.79,1.19,5.7.06.36-1,.91-1.55,1.38,0-.13,0-.26-.07-.39C46,81.36,46.13,79.13,46.27,76.9Z"/><path class="cls-5" d="M46.27,76.9c1.16,1.73.85,3.79,1.19,5.7.06.36-1,.91-1.55,1.38,0-.13,0-.26-.07-.39C46,81.36,46.13,79.13,46.27,76.9Z"/><path class="cls-7" d="M31.35,117.75a48.64,48.64,0,0,0-5.09-.7c-3-.12-5.65-1.36-8.34-2.47-.45-.19-1.1-.3-1.2-.88.62-1.17,2.29-.13,2.76-1.48,1.9-.35,2.12-1.64,1.83-3.23-2,.2-4.58-1-5.5,2.1-1.22-.23-1.79.55-2.26,1.47,0,.22,0,.44,0,.67a.19.19,0,0,0,.23.17,1.68,1.68,0,0,0,2.08,1l.54.42.82.27a5.18,5.18,0,0,0,.91.58,45.45,45.45,0,0,0,13.26,2.62Z"/><path class="cls-5" d="M31.35,117.75a48.64,48.64,0,0,0-5.09-.7c-3-.12-5.65-1.36-8.34-2.47-.45-.19-1.1-.3-1.2-.88.62-1.17,2.29-.13,2.76-1.48,1.9-.35,2.12-1.64,1.83-3.23-2,.2-4.58-1-5.5,2.1-1.22-.23-1.79.55-2.26,1.47,0,.22,0,.44,0,.67a.19.19,0,0,0,.23.17,1.68,1.68,0,0,0,2.08,1l.54.42.82.27a5.18,5.18,0,0,0,.91.58,45.45,45.45,0,0,0,13.26,2.62Z"/><path class="cls-3" d="M61.07,115.15c-1.71-1.63-3.68-3-4.82-5.16a2.6,2.6,0,0,1-1.2-1.31,2.07,2.07,0,0,0-2.16-1.31c0,.81.92,1.32.78,2.2,1,.26,1.45,1.12,2.1,1.73.93.86-.11,1.55-.64,1.87a39.79,39.79,0,0,1-4.11,2c-1.57.8-2.87,2.2-4.79,2.27h0a6.34,6.34,0,0,1-6,.73,54.4,54.4,0,0,0-8.93-.39l.06.55,1.1.14a2.68,2.68,0,0,0,1.87.18l1.84.17a4.62,4.62,0,0,0,2.55.19l1.52.17c2.71-.32,5.44-.3,8.16-.87,3.78-.79,7.44-2.44,11.44-2,.73.08,1.15-.37,1.2-1.12Z"/><path class="cls-7" d="M102.05,124.25a1.83,1.83,0,0,1-1.63,1.71c-3,.32-6,.91-9,.2a55.5,55.5,0,0,1-10.7-1.79c0-.13,0-.25,0-.38l3.31.42c3.8,1.29,7.66.93,11.49.28,1-.17,1.64-1.4,3-1.57.75-.09-.55-1-.33-1.67.45.35,1.14.21,1.49.76a1.42,1.42,0,0,0,.08.18,1.42,1.42,0,0,1-.08-.18,1,1,0,0,1,1.12.76C101.33,123.29,102.27,123.09,102.05,124.25Zm-2-1.58,0,0Zm-.12-.13a.25.25,0,0,1,0-.07A.25.25,0,0,0,99.88,122.54Zm.39.31Zm-.16-.09h0Z"/><path class="cls-5" d="M102.05,124.25a1.83,1.83,0,0,1-1.63,1.71c-3,.32-6,.91-9,.2a55.5,55.5,0,0,1-10.7-1.79c0-.13,0-.25,0-.38l3.31.42c3.8,1.29,7.66.93,11.49.28,1-.17,1.64-1.4,3-1.57.75-.09-.55-1-.33-1.67.45.35,1.14.21,1.49.76a1.42,1.42,0,0,0,.08.18,1.42,1.42,0,0,1-.08-.18,1,1,0,0,1,1.12.76C101.33,123.29,102.27,123.09,102.05,124.25Zm-2-1.58,0,0Zm-.12-.13a.25.25,0,0,1,0-.07A.25.25,0,0,0,99.88,122.54Zm.39.31Zm-.16-.09h0Z"/><path class="cls-2" d="M71.11,109.65c.32,0,.61,0,.75.37a.24.24,0,0,1,0,.28C71.41,110.36,71.16,110.14,71.11,109.65Z"/><path class="cls-2" d="M78.9,114.05a.66.66,0,0,1-.74-.66c.3-.06.58-.07.74.27v.39Z"/><path class="cls-2" d="M78.9,114.05v-.39c.3,0,.63,0,.83.31Z"/><path class="cls-11" d="M16.42,114.83l.82.27Z"/><path class="cls-6" d="M97.47,105.88l-.82,0Z"/><path class="cls-6" d="M72.28,110.68l-.41-.39Z"/><path class="cls-2" d="M80,114c-.22.29-.29.17-.31-.11A.29.29,0,0,1,80,114Z"/><path class="cls-4" d="M48.13,85.38l1,.12a9.58,9.58,0,0,1,.53,1.76c.15,1.79-.89,3.65.27,5.4,0,0-.27.4-.47.51C48,94,48,94.43,49.36,95.35a3.89,3.89,0,0,1,1.5,4.46c-.09.2-.35.33-.53.5-1.38,1-2.23.54-2.77-1.57-.11-.43.17-1-.6-1-.45-.35-.24-.89-.38-1.33-.34-1.09-.18-2.42-1.43-3.08a15.18,15.18,0,0,1,.69-8.54C46.3,86.08,47.34,85.27,48.13,85.38Z"/><path class="cls-5" d="M48.13,85.38l1,.12a9.58,9.58,0,0,1,.53,1.76c.15,1.79-.89,3.65.27,5.4,0,0-.27.4-.47.51C48,94,48,94.43,49.36,95.35a3.89,3.89,0,0,1,1.5,4.46c-.09.2-.35.33-.53.5-1.38,1-2.23.54-2.77-1.57-.11-.43.17-1-.6-1-.45-.35-.24-.89-.38-1.33-.34-1.09-.18-2.42-1.43-3.08a15.18,15.18,0,0,1,.69-8.54C46.3,86.08,47.34,85.27,48.13,85.38Z"/><path class="cls-6" d="M61.07,115.15c-1.71-1.63-3.68-3-4.82-5.16.14-.4.08-1.62.77-.7,1.27,1.68,3.07,2.95,3.9,5A3.76,3.76,0,0,1,61.07,115.15Z"/><path class="cls-3" d="M103,108.49a6.64,6.64,0,0,1-2.5-.63,6.64,6.64,0,0,0,2.5.63c.11-.25.23-.51.35-.76.32-.14.39-.44.46-.73a4,4,0,0,0-1.89-.53l-2.28.91-.68.31c-2.86,0-5.73.08-8.6,0-1,0-2,.8-3,0H81.91l-1.91,0H78.92l-1.91.34-1.08,0,0,0c-.11.19-.22.17-.33,0l-2.63,0c-.13,1.15-1.69.46-1.9,1.5l.07.06c.32,0,.61,0,.75.37l1.07-.26c.38-.73,1.07-.5,1.64-.48a105,105,0,0,0,15.27-.52c3.09-.33,5.92.82,8.93.58,1-.08,2,.65,3.06,1,.74-.15,1.63-.09,1.89-1C103.86,108.82,103.53,108.53,103,108.49Z"/><path class="cls-2" d="M75.9,108.11c-.11.19-.22.17-.33,0C75.68,108.11,75.79,108.12,75.9,108.11Z"/><path class="cls-6" d="M55.77,111.3c-.65-.61-1.14-1.47-2.1-1.73.14-.88-.73-1.39-.78-2.2-2.33-1.82-2.56-4.4-2.56-7.06-1.38,1-2.23.54-2.77-1.57-.11-.43.17-1-.6-1a1,1,0,0,1-.08.21,1,1,0,0,0,.08-.21c-.45-.35-.24-.89-.38-1.33-.34-1.09-.18-2.42-1.43-3.08a15.18,15.18,0,0,1,.69-8.54c0-.26,0-.52.07-.78l-.07-.39c-2.4,4.2-3.18,8.61-1.57,13.27a35.14,35.14,0,0,0,4.36,8.65A6.4,6.4,0,0,1,50,109.23c.55.52.28,1.21.37,1.83.6.1.58.4.49.75.09-.35.11-.65-.49-.75-.7.79-.41,2.18-1.63,2.69-1,.44-.91,1.28-.65,2.14h0c-.38-.14-1-.48-1.09-.38-1,1.2-2.68.85-3.7,1.87-.84.89-2.16-.12-3,.76a6.34,6.34,0,0,0,6-.73h0c1.92-.07,3.22-1.47,4.79-2.27a39.79,39.79,0,0,0,4.11-2C55.66,112.85,56.7,112.16,55.77,111.3Z"/><path class="cls-2" d="M63.28,100.35a.66.66,0,0,1,.75.71A.71.71,0,0,1,63.28,100.35Z"/><path class="cls-2" d="M97.47,105.88l-.82,0c-6.31-.25-12.63-.37-18.88-1.43A5.37,5.37,0,0,0,75.6,104a4.88,4.88,0,0,0-2.07-.81,6.05,6.05,0,0,0-2.43-1h0a2.35,2.35,0,0,0-1.47-.75.22.22,0,0,0-.24-.06l-3.11-.3h0c-.75.65-1.5-.27-2.25,0,0,1.5,1.58,1.52,2.33,2.32a9.48,9.48,0,0,0,2.52,1.8A2.06,2.06,0,0,1,70,107.4h0c-.31.44-1,.52-1.13,1.11.19,1.42,1.31,1,2.14,1.08.21-1,1.77-.35,1.9-1.5l2.63,0c.11,0,.22,0,.33,0l0,0h0l1.08,0,1.91-.34H80l1.91,0H87.4c1,.83,2,0,3,0,2.87.07,5.74,0,8.6,0l.68-.31,2.28-.91C100.54,105.62,98.89,106.6,97.47,105.88Z"/><path class="cls-2" d="M66.28,101.05l-.15-.08.14.09Z"/><path class="cls-7" d="M51.46,73.86c-1.24-2.25-2-2.58-4.64-1.47-2.14.91-2.29,1.48-.86,3.22a2.09,2.09,0,0,0,.28.24c1.58.49,3.09,1.84,4.81.32C51.33,75.43,52,74.88,51.46,73.86Z"/><path class="cls-5" d="M51.46,73.86c-1.24-2.25-2-2.58-4.64-1.47-2.14.91-2.29,1.48-.86,3.22a2.09,2.09,0,0,0,.28.24c1.58.49,3.09,1.84,4.81.32C51.33,75.43,52,74.88,51.46,73.86Z"/><path class="cls-2" d="M53.64,88.42l.09-.15-.07.17Z"/><path class="cls-2" d="M202.28,11.68l5.88,2.71a.66.66,0,0,0,.74.66c-.05,1.16,1.48.32,1.67,1.29a3.8,3.8,0,0,1-4-1c-1.42-1.68-3.08-1-4.59-1.19-.53-.07-1.4-.58-1.89.11-1.82,2.6-4.23,2.17-6.72,1.4-.61-.19-1.09-.31-1.21.53h-1.1l0,0a3.76,3.76,0,0,0-.15-.9c-.83-2-2.63-3.28-3.9-5-.69-.92-.63.3-.77.7a2.6,2.6,0,0,1-1.2-1.31,2.07,2.07,0,0,0-2.16-1.31c-2.33-1.82-2.56-4.4-2.56-7.06.18-.17.44-.3.53-.5a3.89,3.89,0,0,0-1.5-4.46C178-4.57,178-5,179.51-5.83c.2-.11.5-.46.47-.51-1.16-1.75-.12-3.61-.27-5.4a9.58,9.58,0,0,0-.53-1.76l1.1.11c.32.93,1.65,1,1.84,1.93s.85.87,1.52.88l0,0c.26,1.05,1,.71,1.66.55v0a3.78,3.78,0,0,0,1.22,3.93,4.2,4.2,0,0,1,1.42,2.74A6.11,6.11,0,0,0,189.32,0c1.65,2.22,2,5.32,4.66,6.83,1.63.93,2.49,3.25,4.92,2.71.19,1.41,1.31,1,2.14,1.07l.07.06c0,.49.3.71.79.65h0Z"/><path class="cls-4" d="M151.31,10c4.23-1,8.54-.88,12.84-.83,5.29.06,10.54.74,15.82,1.07.55.52.28,1.21.37,1.83-.7.79-.41,2.18-1.63,2.69-1,.44-.91,1.28-.65,2.14-.38-.14-1-.48-1.09-.38-1,1.2-2.68.85-3.7,1.87-.84.89-2.16-.12-3,.76a54.4,54.4,0,0,0-8.93-.39,48.64,48.64,0,0,0-5.09-.7c-3-.12-5.65-1.36-8.34-2.47-.45-.19-1.1-.3-1.2-.88.62-1.17,2.29-.13,2.76-1.48C151.38,12.87,151.6,11.58,151.31,10Z"/><path class="cls-5" d="M151.31,10c4.23-1,8.54-.88,12.84-.83,5.29.06,10.54.74,15.82,1.07.55.52.28,1.21.37,1.83-.7.79-.41,2.18-1.63,2.69-1,.44-.91,1.28-.65,2.14-.38-.14-1-.48-1.09-.38-1,1.2-2.68.85-3.7,1.87-.84.89-2.16-.12-3,.76a54.4,54.4,0,0,0-8.93-.39,48.64,48.64,0,0,0-5.09-.7c-3-.12-5.65-1.36-8.34-2.47-.45-.19-1.1-.3-1.2-.88.62-1.17,2.29-.13,2.76-1.48C151.38,12.87,151.6,11.58,151.31,10Z"/><path class="cls-4" d="M192.19,16.18c.12-.84.6-.72,1.21-.53,2.49.77,4.9,1.2,6.72-1.4.49-.69,1.36-.18,1.89-.11,1.51.2,3.17-.49,4.59,1.19a3.8,3.8,0,0,0,4,1c-.19-1-1.72-.13-1.67-1.29h0l.83-.08v-.05c0,.28.09.4.31.11,3.28,1,6.56,1.94,9.86,2.83a1.26,1.26,0,0,1,1,1.61c-.94.25-2.48.24-2.71.79-.91,2.16-2.92,3.32-4.13,5.15L210.78,25c-2.39-.84-4.8-1.63-7.16-2.53-2.8-1.07-5.75-1.73-8.16-3.79C194.45,17.81,193.56,16.63,192.19,16.18Z"/><path class="cls-5" d="M192.19,16.18c.12-.84.6-.72,1.21-.53,2.49.77,4.9,1.2,6.72-1.4.49-.69,1.36-.18,1.89-.11,1.51.2,3.17-.49,4.59,1.19a3.8,3.8,0,0,0,4,1c-.19-1-1.72-.13-1.67-1.29h0l.83-.08v-.05c0,.28.09.4.31.11,3.28,1,6.56,1.94,9.86,2.83a1.26,1.26,0,0,1,1,1.61c-.94.25-2.48.24-2.71.79-.91,2.16-2.92,3.32-4.13,5.15L210.78,25c-2.39-.84-4.8-1.63-7.16-2.53-2.8-1.07-5.75-1.73-8.16-3.79C194.45,17.81,193.56,16.63,192.19,16.18Z"/><path class="cls-6" d="M192.19,16.18c1.37.45,2.26,1.63,3.27,2.49,2.41,2.06,5.36,2.72,8.16,3.79,2.36.9,4.77,1.69,7.16,2.53v.38c-5.63-1.28-11.39-2.13-16.36-5.43-1-.68-2.28-.15-3.44-.07-6.89.45-13.78.9-20.68.28,2.71-.32,5.44-.3,8.16-.87,3.78-.79,7.44-2.44,11.44-2,.73.08,1.15-.37,1.2-1.12Z"/><path class="cls-2" d="M214.09,25.41c1.21-1.83,3.22-3,4.13-5.15.23-.55,1.77-.54,2.71-.79a3.37,3.37,0,0,1,2.84.16,40,40,0,0,1,4.44,2.82c-.22.66,1.08,1.58.33,1.67-1.32.17-1.93,1.4-3,1.57C221.75,26.34,217.89,26.7,214.09,25.41Z"/><path class="cls-3" d="M194,2.07c0,1.5,1.58,1.52,2.33,2.32a9.48,9.48,0,0,0,2.52,1.8A2,2,0,0,1,200,8.4c-.31.44-1,.52-1.13,1.12-2.43.54-3.29-1.78-4.92-2.71C191.34,5.3,191,2.2,189.32,0a6.11,6.11,0,0,1-1.38-3.32,4.2,4.2,0,0,0-1.42-2.74A3.78,3.78,0,0,1,185.3-10a16.38,16.38,0,0,1,3.2,3.5c-.12.34-.36.63-.22,1,.93,2.81,2.29,5.31,5,6.81a.71.71,0,0,0,.75.71Z"/><path class="cls-6" d="M202.93,10.76c.38-.73,1.07-.5,1.64-.48a105,105,0,0,0,15.27-.52c3.09-.33,5.92.82,8.93.58,1-.08,2,.65,3,1a.66.66,0,0,1-.2.14c-1.43.59-2.92.33-4.37.29-7.81-.24-15.62-.55-23.43-.84A5.62,5.62,0,0,1,202.93,10.76Z"/><path class="cls-2" d="M193.28,1.35c-2.71-1.5-4.07-4-5-6.81-.14-.42.1-.71.22-1,2.43,2.31,4.66,4.85,7.51,6.68l3.37,2.19-3.11-.3L196.13,2l.15.08c-.75.65-1.5-.27-2.25,0h0A.66.66,0,0,0,193.28,1.35Z"/><path class="cls-7" d="M231.62,11.49a.66.66,0,0,0,.2-.14c.75-.15,1.64-.09,1.9-1,.14-.49-.19-.78-.7-.82.11-.25.23-.51.35-.76.32-.14.39-.44.46-.73a13,13,0,0,0,5.95,1c.34,0,.91-.16.91.25a1,1,0,0,1-.65,1.11,8.11,8.11,0,0,1-1.66.7A26.88,26.88,0,0,1,231.62,11.49Z"/><path class="cls-5" d="M231.62,11.49a.66.66,0,0,0,.2-.14c.75-.15,1.64-.09,1.9-1,.14-.49-.19-.78-.7-.82.11-.25.23-.51.35-.76.32-.14.39-.44.46-.73a13,13,0,0,0,5.95,1c.34,0,.91-.16.91.25a1,1,0,0,1-.65,1.11,8.11,8.11,0,0,1-1.66.7A26.88,26.88,0,0,1,231.62,11.49Z"/><path class="cls-7" d="M161.35,18.75a48.64,48.64,0,0,0-5.09-.7c-3-.12-5.65-1.36-8.34-2.47-.45-.19-1.1-.3-1.2-.88.62-1.17,2.29-.13,2.76-1.48,1.9-.35,2.12-1.64,1.83-3.23-2,.2-4.58-1-5.5,2.1-1.22-.23-1.79.55-2.26,1.47,0,.22,0,.44,0,.67a.19.19,0,0,0,.23.17,1.68,1.68,0,0,0,2.08,1l.54.42.82.27a5.18,5.18,0,0,0,.91.58,45.45,45.45,0,0,0,13.26,2.62Z"/><path class="cls-5" d="M161.35,18.75a48.64,48.64,0,0,0-5.09-.7c-3-.12-5.65-1.36-8.34-2.47-.45-.19-1.1-.3-1.2-.88.62-1.17,2.29-.13,2.76-1.48,1.9-.35,2.12-1.64,1.83-3.23-2,.2-4.58-1-5.5,2.1-1.22-.23-1.79.55-2.26,1.47,0,.22,0,.44,0,.67a.19.19,0,0,0,.23.17,1.68,1.68,0,0,0,2.08,1l.54.42.82.27a5.18,5.18,0,0,0,.91.58,45.45,45.45,0,0,0,13.26,2.62Z"/><path class="cls-3" d="M191.07,16.15c-1.71-1.63-3.68-3-4.82-5.16a2.6,2.6,0,0,1-1.2-1.31,2.07,2.07,0,0,0-2.16-1.31c.05.81.92,1.32.78,2.2,1,.26,1.45,1.12,2.1,1.73.93.86-.11,1.55-.64,1.87a39.79,39.79,0,0,1-4.11,2c-1.57.8-2.87,2.2-4.79,2.27h0a6.34,6.34,0,0,1-6,.73,54.4,54.4,0,0,0-8.93-.39l.06.55,1.1.14a2.68,2.68,0,0,0,1.87.18l1.84.17a4.62,4.62,0,0,0,2.55.19l1.52.17c2.71-.32,5.44-.3,8.16-.87,3.78-.79,7.44-2.44,11.44-2,.73.08,1.15-.37,1.2-1.12Z"/><path class="cls-7" d="M232.05,25.25A1.83,1.83,0,0,1,230.42,27c-3,.32-5.95.91-8.95.2a55.5,55.5,0,0,1-10.7-1.79c0-.13,0-.25,0-.38l3.31.42c3.8,1.29,7.66.93,11.49.28,1-.17,1.64-1.4,3-1.57.75-.09-.55-1-.33-1.67.45.35,1.14.21,1.49.76a1.42,1.42,0,0,0,.08.18,1.42,1.42,0,0,1-.08-.18,1,1,0,0,1,1.12.76C231.33,24.29,232.27,24.09,232.05,25.25ZM230,23.67l0,0Zm-.12-.13a.25.25,0,0,1,0-.07A.25.25,0,0,0,229.88,23.54Zm.39.31Zm-.16-.09h0Z"/><path class="cls-5" d="M232.05,25.25A1.83,1.83,0,0,1,230.42,27c-3,.32-5.95.91-8.95.2a55.5,55.5,0,0,1-10.7-1.79c0-.13,0-.25,0-.38l3.31.42c3.8,1.29,7.66.93,11.49.28,1-.17,1.64-1.4,3-1.57.75-.09-.55-1-.33-1.67.45.35,1.14.21,1.49.76a1.42,1.42,0,0,0,.08.18,1.42,1.42,0,0,1-.08-.18,1,1,0,0,1,1.12.76C231.33,24.29,232.27,24.09,232.05,25.25ZM230,23.67l0,0Zm-.12-.13a.25.25,0,0,1,0-.07A.25.25,0,0,0,229.88,23.54Zm.39.31Zm-.16-.09h0Z"/><path class="cls-2" d="M201.11,10.65c.32,0,.61,0,.75.37a.24.24,0,0,1,0,.28C201.41,11.36,201.16,11.14,201.11,10.65Z"/><path class="cls-2" d="M208.9,15.05a.66.66,0,0,1-.74-.66c.3-.06.58-.07.74.27v.39Z"/><path class="cls-2" d="M208.9,15.05v-.39c.3,0,.63,0,.83.31Z"/><path class="cls-11" d="M146.42,15.83l.82.27Z"/><path class="cls-6" d="M227.47,6.88l-.82,0Z"/><path class="cls-6" d="M202.28,11.68l-.41-.39Z"/><path class="cls-2" d="M210,15c-.22.29-.29.17-.31-.11A.29.29,0,0,1,210,15Z"/><path class="cls-4" d="M178.13-13.62l1.05.12a9.58,9.58,0,0,1,.53,1.76c.15,1.79-.89,3.65.27,5.4,0,0-.27.4-.47.51C178-5,178-4.57,179.36-3.65a3.89,3.89,0,0,1,1.5,4.46c-.09.2-.35.33-.53.5-1.38,1-2.23.54-2.77-1.57-.11-.43.17-1-.6-1-.45-.35-.24-.89-.38-1.33-.34-1.09-.18-2.42-1.43-3.08a15.18,15.18,0,0,1,.69-8.54C176.3-12.92,177.34-13.73,178.13-13.62Z"/><path class="cls-5" d="M178.13-13.62l1.05.12a9.58,9.58,0,0,1,.53,1.76c.15,1.79-.89,3.65.27,5.4,0,0-.27.4-.47.51C178-5,178-4.57,179.36-3.65a3.89,3.89,0,0,1,1.5,4.46c-.09.2-.35.33-.53.5-1.38,1-2.23.54-2.77-1.57-.11-.43.17-1-.6-1-.45-.35-.24-.89-.38-1.33-.34-1.09-.18-2.42-1.43-3.08a15.18,15.18,0,0,1,.69-8.54C176.3-12.92,177.34-13.73,178.13-13.62Z"/><path class="cls-6" d="M191.07,16.15c-1.71-1.63-3.68-3-4.82-5.16.14-.4.08-1.62.77-.7,1.27,1.68,3.07,3,3.9,5A3.76,3.76,0,0,1,191.07,16.15Z"/><path class="cls-3" d="M233,9.49a6.64,6.64,0,0,1-2.5-.63,6.64,6.64,0,0,0,2.5.63c.11-.25.23-.51.35-.76.32-.14.39-.44.46-.73a4,4,0,0,0-1.89-.53l-2.28.91-.68.31c-2.86,0-5.73.08-8.6,0-1,0-2,.8-3,0h-5.49l-1.91,0h-1.08L207,9.06l-1.08,0,0,0c-.11.19-.22.17-.33,0l-2.63,0c-.13,1.15-1.69.46-1.9,1.5l.07.06c.32,0,.61,0,.75.37l1.07-.26c.38-.73,1.07-.5,1.64-.48a105,105,0,0,0,15.27-.52c3.09-.33,5.92.82,8.93.58,1-.08,2,.65,3.06,1,.74-.15,1.63-.09,1.89-1C233.86,9.82,233.53,9.53,233,9.49Z"/><path class="cls-2" d="M205.9,9.11c-.11.19-.22.17-.33,0Z"/><path class="cls-6" d="M185.77,12.3c-.65-.61-1.14-1.47-2.1-1.73.14-.88-.73-1.39-.78-2.2-2.33-1.82-2.56-4.4-2.56-7.06-1.38,1-2.23.54-2.77-1.57-.11-.43.17-1-.6-1a1,1,0,0,1-.08.21,1,1,0,0,0,.08-.21c-.45-.35-.24-.89-.38-1.33-.34-1.09-.18-2.42-1.43-3.08a15.18,15.18,0,0,1,.69-8.54c0-.26,0-.52.07-.78l-.07-.39c-2.4,4.2-3.18,8.61-1.57,13.27a35.14,35.14,0,0,0,4.36,8.65A6.4,6.4,0,0,1,180,10.23c.55.52.28,1.21.37,1.83.6.1.58.4.49.75.09-.35.11-.65-.49-.75-.7.79-.41,2.18-1.63,2.69-1,.44-.91,1.28-.65,2.14h0c-.38-.14-1-.48-1.09-.38-1,1.2-2.68.85-3.7,1.87-.84.89-2.16-.12-3,.76a6.34,6.34,0,0,0,6-.73h0c1.92-.07,3.22-1.47,4.79-2.27a39.79,39.79,0,0,0,4.11-2C185.66,13.85,186.7,13.16,185.77,12.3Z"/><path class="cls-2" d="M193.28,1.35a.66.66,0,0,1,.75.71A.71.71,0,0,1,193.28,1.35Z"/><path class="cls-2" d="M227.47,6.88l-.82,0c-6.31-.25-12.63-.37-18.88-1.43A5.37,5.37,0,0,0,205.6,5a4.88,4.88,0,0,0-2.07-.81,6.05,6.05,0,0,0-2.43-1h0a2.35,2.35,0,0,0-1.47-.75.22.22,0,0,0-.24-.06l-3.11-.3h0c-.75.65-1.5-.27-2.25,0,0,1.5,1.58,1.52,2.33,2.32a9.48,9.48,0,0,0,2.52,1.8A2.06,2.06,0,0,1,200,8.4h0c-.31.44-1,.52-1.13,1.11.19,1.42,1.31,1,2.14,1.08.21-1,1.77-.35,1.9-1.5l2.63,0h.33l0,0h0l1.08,0,1.91-.34H210l1.91,0h5.49c1,.83,2,0,3,0,2.87.07,5.74,0,8.6,0l.68-.31,2.28-.91C230.54,6.62,228.89,7.6,227.47,6.88Z"/><path class="cls-2" d="M196.28,2.05,196.13,2l.14.09Z"/><ellipse class="cls-8" cx="56.98" cy="7.23" rx="32.73" ry="14.91"/><circle class="cls-8" cx="56.16" cy="7.32" r="14"/><polygon points="25.04 3 11.52 -15.5 28.73 -0.37 25.04 3"/><polygon points="89.59 4.83 116.52 5.14 90 9.81 89.59 4.83"/><polygon points="34.81 18.66 25.79 28.23 30.59 15.98 34.81 18.66"/><polygon points="57.93 21.94 56.16 39.5 52.93 22.15 57.93 21.94"/><polygon points="83.7 14.78 97.43 31.32 80.25 18.4 83.7 14.78"/><circle class="cls-9" cx="56.88" cy="11.23" r="6.73"/><circle class="cls-10" cx="54.7" cy="8.68" r="2.18"/><circle class="cls-10" cx="59.25" cy="13.59" r="1.27"/></pattern></defs><title>eye2</title><rect class="cls-12" width="1414" height="790"/></svg>