<svg id="Layer_1" data-name="Layer 1" xmlns="http://www.w3.org/2000/svg" xmlns:xlink="http://www.w3.org/1999/xlink" viewBox="0 0 1367.75 655.75"><defs><style>.cls-1,.cls-5,.cls-8{fill:none;}.cls-2{fill:#22d73c;}.cls-10,.cls-11,.cls-12,.cls-2,.cls-3,.cls-5,.cls-6,.cls-8,.cls-9{stroke:#000;stroke-miterlimit:10;}.cls-11,.cls-2,.cls-3,.cls-5,.cls-6{stroke-width:0.15px;}.cls-3{fill:#15b825;}.cls-4{fill:#0f6;}.cls-6{fill:#42d14e;}.cls-7{fill:#f0f;}.cls-8,.cls-9{stroke-width:2px;}.cls-10{fill:#fff;stroke-width:0.25px;}.cls-11{fill:#267024;}.cls-12{stroke-width:0.75px;fill:url(#eye2);}</style><pattern id="eye2" data-name="eye2" width="255" height="200" patternTransform="translate(0 1289)" patternUnits="userSpaceOnUse" viewBox="0 0 255 200"><rect class="cls-1" width="255" height="200"/><path class="cls-2" d="M197.28,211.68l5.88,2.71a.66.66,0,0,0,.74.66c-.05,1.16,1.48.32,1.67,1.29a3.8,3.8,0,0,1-4-1c-1.42-1.68-3.08-1-4.59-1.19-.53-.07-1.4-.58-1.89.11-1.82,2.6-4.23,2.17-6.72,1.4-.61-.19-1.09-.31-1.21.53h-1.1l0,0a4.34,4.34,0,0,0-.15-.9c-.83-2-2.63-3.28-3.9-5-.69-.92-.63.3-.77.7a2.6,2.6,0,0,1-1.2-1.31,2.07,2.07,0,0,0-2.16-1.31c-2.33-1.82-2.56-4.4-2.56-7.06.18-.17.44-.3.53-.5a3.89,3.89,0,0,0-1.5-4.46c-1.4-.92-1.37-1.31.15-2.18.2-.11.5-.46.47-.51-1.16-1.75-.12-3.61-.27-5.4a9.58,9.58,0,0,0-.53-1.76l1.1.11c.32.93,1.65,1,1.84,1.93s.85.87,1.52.88l0,0c.26,1.05,1,.71,1.66.55v0a3.78,3.78,0,0,0,1.22,3.93,4.2,4.2,0,0,1,1.42,2.74,6.11,6.11,0,0,0,1.38,3.32c1.65,2.22,2,5.32,4.66,6.83,1.63.93,2.49,3.25,4.92,2.7.19,1.42,1.31,1,2.14,1.08l.07.06c0,.49.3.71.79.65h0Z"/><path class="cls-3" d="M189,202.07c0,1.5,1.58,1.52,2.33,2.32a9.48,9.48,0,0,0,2.52,1.8A2,2,0,0,1,195,208.4c-.31.44-1,.52-1.13,1.12-2.43.54-3.29-1.78-4.92-2.71-2.64-1.51-3-4.61-4.66-6.83a6.11,6.11,0,0,1-1.38-3.32,4.2,4.2,0,0,0-1.42-2.74A3.78,3.78,0,0,1,180.3,190a16.38,16.38,0,0,1,3.2,3.5c-.12.34-.36.63-.22,1,.93,2.81,2.29,5.31,5,6.81a.71.71,0,0,0,.75.71Z"/><path class="cls-2" d="M188.28,201.35c-2.71-1.5-4.07-4-5-6.81-.14-.42.1-.71.22-1,2.43,2.31,4.66,4.85,7.51,6.68l3.36,2.19-3.1-.3-.14-.09.15.08c-.75.65-1.5-.27-2.25,0h0A.66.66,0,0,0,188.28,201.35Z"/><path class="cls-3" d="M176.86,185.49c-.26-.88-1.4-1.34-1.21-2.45a36,36,0,0,1,.4-5.87c-1.72,1.52-3.23.17-4.81-.32l0,1.05c1.16,1.73.85,3.79,1.19,5.7.06.36-1,.91-1.55,1.38,0,.26,0,.52-.07.78.46,1.32,1.5.51,2.29.62l1.05.12,1.1.11c.32.93,1.65,1,1.84,1.93s.85.87,1.52.88l.09-.15s0,.11-.07.17c.26,1.05,1,.71,1.66.55C179.52,188.22,177.75,187.2,176.86,185.49Z"/><path class="cls-4" d="M171.27,177.9c1.16,1.73.85,3.79,1.19,5.7.06.36-1,.91-1.55,1.38,0-.13,0-.26-.07-.39C171,182.36,171.13,180.13,171.27,177.9Z"/><path class="cls-5" d="M171.27,177.9c1.16,1.73.85,3.79,1.19,5.7.06.36-1,.91-1.55,1.38,0-.13,0-.26-.07-.39C171,182.36,171.13,180.13,171.27,177.9Z"/><path class="cls-4" d="M173.13,186.38l1.05.12a9.58,9.58,0,0,1,.53,1.76c.15,1.79-.89,3.65.27,5.4,0,.05-.27.4-.47.51-1.52.87-1.55,1.26-.15,2.18a3.89,3.89,0,0,1,1.5,4.46c-.09.2-.35.33-.53.5-1.38,1-2.24.54-2.77-1.57-.11-.43.17-1-.6-1-.45-.35-.24-.89-.38-1.33-.34-1.09-.18-2.42-1.43-3.08a15.18,15.18,0,0,1,.69-8.54C171.3,187.08,172.34,186.27,173.13,186.38Z"/><path class="cls-5" d="M173.13,186.38l1.05.12a9.58,9.58,0,0,1,.53,1.76c.15,1.79-.89,3.65.27,5.4,0,.05-.27.4-.47.51-1.52.87-1.55,1.26-.15,2.18a3.89,3.89,0,0,1,1.5,4.46c-.09.2-.35.33-.53.5-1.38,1-2.24.54-2.77-1.57-.11-.43.17-1-.6-1-.45-.35-.24-.89-.38-1.33-.34-1.09-.18-2.42-1.43-3.08a15.18,15.18,0,0,1,.69-8.54C171.3,187.08,172.34,186.27,173.13,186.38Z"/><path class="cls-6" d="M180.77,212.3c-.65-.61-1.14-1.47-2.1-1.73.14-.88-.73-1.39-.78-2.2-2.33-1.82-2.56-4.4-2.56-7.06-1.38,1-2.24.54-2.77-1.57-.11-.43.17-1-.6-1a1,1,0,0,1-.08.21,1,1,0,0,0,.08-.21c-.45-.35-.24-.89-.38-1.33-.34-1.09-.18-2.42-1.43-3.08a15.18,15.18,0,0,1,.69-8.54c0-.26,0-.52.07-.78l-.07-.39c-2.4,4.2-3.18,8.61-1.57,13.27a35.14,35.14,0,0,0,4.36,8.65,6.4,6.4,0,0,1,1.34,3.72c.55.52.28,1.21.37,1.83.6.1.58.4.49.75.09-.35.11-.65-.49-.75-.7.79-.41,2.18-1.63,2.69-1,.44-.91,1.28-.65,2.14h0c-.38-.14-1-.48-1.09-.38-1,1.2-2.68.85-3.7,1.87-.84.89-2.16-.12-3,.76a6.34,6.34,0,0,0,6-.73h0c1.92-.07,3.22-1.47,4.79-2.27a39.79,39.79,0,0,0,4.11-2C180.66,213.85,181.7,213.16,180.77,212.3Z"/><path class="cls-7" d="M176.46,174.86c-1.24-2.25-2-2.58-4.64-1.47-2.14.91-2.29,1.48-.86,3.22a2.09,2.09,0,0,0,.28.24c1.58.49,3.09,1.84,4.81.32C176.33,176.43,177,175.88,176.46,174.86Z"/><path class="cls-5" d="M176.46,174.86c-1.24-2.25-2-2.58-4.64-1.47-2.14.91-2.29,1.48-.86,3.22a2.09,2.09,0,0,0,.28.24c1.58.49,3.09,1.84,4.81.32C176.33,176.43,177,175.88,176.46,174.86Z"/><path class="cls-2" d="M178.64,189.42l.09-.15-.07.17Z"/><ellipse class="cls-8" cx="56.98" cy="207.23" rx="32.73" ry="14.91"/><circle class="cls-8" cx="50.16" cy="207.32" r="14"/><polygon points="25.04 203 11.52 184.5 28.73 199.63 25.04 203"/><polygon points="53.66 192.4 56.25 160.5 58.66 192.42 53.66 192.4"/><polygon points="78.52 194.88 101.43 178.41 81.79 198.66 78.52 194.88"/><polygon points="38.11 195.55 29.34 172.86 42.57 193.27 38.11 195.55"/><polygon points="67.02 192.38 80.52 171.14 71.48 194.63 67.02 192.38"/><ellipse class="cls-8" cx="184.48" cy="107.23" rx="32.73" ry="14.91"/><circle class="cls-8" cx="177.66" cy="107.32" r="14"/><polygon points="152.54 103 139.02 84.5 156.23 99.63 152.54 103"/><polygon points="181.16 92.4 183.75 60.5 186.16 92.42 181.16 92.4"/><polygon points="217.09 104.83 244.02 105.14 217.5 109.81 217.09 104.83"/><polygon points="206.02 94.88 228.93 78.41 209.29 98.67 206.02 94.88"/><polygon points="165.61 95.55 156.84 72.86 170.07 93.27 165.61 95.55"/><polygon points="194.52 92.38 208.02 71.14 198.98 94.63 194.52 92.38"/><polygon points="162.31 118.66 153.29 128.23 158.09 115.98 162.31 118.66"/><polygon points="185.43 121.94 183.66 139.5 180.43 122.15 185.43 121.94"/><polygon points="211.2 114.78 224.93 131.32 207.75 118.4 211.2 114.78"/><circle class="cls-9" cx="175.38" cy="108.23" r="6.73"/><circle class="cls-10" cx="173.2" cy="105.68" r="2.18"/><circle class="cls-10" cx="177.75" cy="110.59" r="1.27"/><path class="cls-2" d="M69.78,111.68l5.88,2.71a.66.66,0,0,0,.74.66c-.05,1.16,1.48.32,1.67,1.29a3.8,3.8,0,0,1-4-1c-1.42-1.68-3.08-1-4.59-1.19-.53-.07-1.4-.58-1.89.11-1.82,2.6-4.23,2.17-6.72,1.4-.61-.19-1.09-.31-1.21.53h-1.1l0,0a4.34,4.34,0,0,0-.15-.9c-.83-2-2.63-3.28-3.9-5-.69-.92-.63.3-.77.7a2.6,2.6,0,0,1-1.2-1.31,2.07,2.07,0,0,0-2.16-1.31c-2.33-1.82-2.56-4.4-2.56-7.06.18-.17.44-.3.53-.5a3.89,3.89,0,0,0-1.5-4.46c-1.4-.92-1.37-1.31.15-2.18.2-.11.5-.46.47-.51-1.16-1.75-.12-3.61-.27-5.4a9.58,9.58,0,0,0-.53-1.76l1.1.11c.32.93,1.65,1,1.84,1.93s.85.87,1.52.88l0,0c.26,1,1,.71,1.66.55v0A3.78,3.78,0,0,0,54,93.92a4.2,4.2,0,0,1,1.42,2.74A6.11,6.11,0,0,0,56.82,100c1.65,2.22,2,5.32,4.66,6.83,1.63.93,2.49,3.25,4.92,2.7.19,1.42,1.31,1,2.14,1.08l.07.06c0,.49.3.71.79.65h0Z"/><path class="cls-4" d="M18.81,110c4.23-1,8.54-.88,12.84-.83,5.29.06,10.54.74,15.82,1.07.55.52.28,1.21.37,1.83-.7.79-.41,2.18-1.63,2.69-1,.44-.91,1.28-.65,2.14-.38-.14-1-.48-1.09-.38-1,1.2-2.68.85-3.7,1.87-.84.89-2.16-.12-3,.76a54.4,54.4,0,0,0-8.93-.39,49,49,0,0,0-5.09-.7c-3-.12-5.65-1.36-8.34-2.47-.45-.19-1.1-.3-1.2-.88.62-1.17,2.29-.13,2.76-1.48C18.88,112.87,19.1,111.58,18.81,110Z"/><path class="cls-5" d="M18.81,110c4.23-1,8.54-.88,12.84-.83,5.29.06,10.54.74,15.82,1.07.55.52.28,1.21.37,1.83-.7.79-.41,2.18-1.63,2.69-1,.44-.91,1.28-.65,2.14-.38-.14-1-.48-1.09-.38-1,1.2-2.68.85-3.7,1.87-.84.89-2.16-.12-3,.76a54.4,54.4,0,0,0-8.93-.39,49,49,0,0,0-5.09-.7c-3-.12-5.65-1.36-8.34-2.47-.45-.19-1.1-.3-1.2-.88.62-1.17,2.29-.13,2.76-1.48C18.88,112.87,19.1,111.58,18.81,110Z"/><path class="cls-4" d="M59.69,116.18c.12-.84.6-.72,1.21-.53,2.49.77,4.9,1.2,6.72-1.4.49-.69,1.36-.18,1.89-.11,1.51.2,3.17-.49,4.59,1.19a3.8,3.8,0,0,0,4,1c-.19-1-1.72-.13-1.67-1.29h0l.83-.08v0c0,.28.09.4.31.11,3.28,1,6.56,1.94,9.86,2.83a1.26,1.26,0,0,1,1,1.61c-.94.25-2.48.24-2.71.79-.91,2.16-2.92,3.32-4.13,5.15L78.28,125c-2.39-.84-4.8-1.63-7.16-2.53-2.8-1.07-5.75-1.73-8.16-3.79C62,117.81,61.06,116.63,59.69,116.18Z"/><path class="cls-5" d="M59.69,116.18c.12-.84.6-.72,1.21-.53,2.49.77,4.9,1.2,6.72-1.4.49-.69,1.36-.18,1.89-.11,1.51.2,3.17-.49,4.59,1.19a3.8,3.8,0,0,0,4,1c-.19-1-1.72-.13-1.67-1.29h0l.83-.08v0c0,.28.09.4.31.11,3.28,1,6.56,1.94,9.86,2.83a1.26,1.26,0,0,1,1,1.61c-.94.25-2.48.24-2.71.79-.91,2.16-2.92,3.32-4.13,5.15L78.28,125c-2.39-.84-4.8-1.63-7.16-2.53-2.8-1.07-5.75-1.73-8.16-3.79C62,117.81,61.06,116.63,59.69,116.18Z"/><path class="cls-6" d="M59.69,116.18c1.37.45,2.26,1.63,3.27,2.49,2.41,2.06,5.36,2.72,8.16,3.79,2.36.9,4.77,1.69,7.16,2.53v.38c-5.63-1.28-11.39-2.13-16.36-5.43-1-.68-2.28-.15-3.44-.07-6.89.45-13.78.9-20.68.28,2.71-.32,5.44-.3,8.16-.87,3.78-.79,7.44-2.44,11.44-2,.73.08,1.15-.37,1.2-1.12Z"/><path class="cls-2" d="M81.59,125.41c1.21-1.83,3.22-3,4.13-5.15.23-.55,1.77-.54,2.71-.79a3.37,3.37,0,0,1,2.84.16,40,40,0,0,1,4.44,2.82c-.22.66,1.08,1.58.33,1.67-1.32.17-1.93,1.4-3,1.57C89.25,126.34,85.39,126.7,81.59,125.41Z"/><path class="cls-3" d="M61.53,102.07c0,1.5,1.58,1.52,2.33,2.32a9.48,9.48,0,0,0,2.52,1.8,2,2,0,0,1,1.15,2.21c-.31.44-1,.52-1.13,1.12-2.43.54-3.29-1.78-4.92-2.71-2.64-1.51-3-4.61-4.66-6.83a6.11,6.11,0,0,1-1.38-3.32A4.2,4.2,0,0,0,54,93.92,3.78,3.78,0,0,1,52.8,90a16.38,16.38,0,0,1,3.2,3.5c-.12.34-.36.63-.22,1.05.93,2.81,2.29,5.31,5,6.81a.71.71,0,0,0,.75.71Z"/><path class="cls-6" d="M70.43,110.76c.38-.73,1.07-.5,1.64-.48a105,105,0,0,0,15.27-.52c3.09-.33,5.92.82,8.93.58,1-.08,2,.65,3,1a.66.66,0,0,1-.2.14c-1.43.59-2.92.33-4.37.29-7.81-.24-15.62-.55-23.43-.84A5.62,5.62,0,0,1,70.43,110.76Z"/><path class="cls-2" d="M60.78,101.35c-2.71-1.5-4.07-4-5-6.81-.14-.42.1-.71.22-1.05,2.43,2.31,4.66,4.85,7.51,6.68l3.36,2.19-3.1-.3-.14-.09.15.08c-.75.65-1.5-.27-2.25,0h0A.66.66,0,0,0,60.78,101.35Z"/><path class="cls-7" d="M99.12,111.49a.66.66,0,0,0,.2-.14c.75-.15,1.64-.09,1.9-1,.14-.49-.19-.78-.7-.82.11-.25.23-.51.35-.76.32-.14.39-.44.46-.73a13,13,0,0,0,6,1c.34,0,.91-.16.91.25a1,1,0,0,1-.65,1.11,8.11,8.11,0,0,1-1.66.7A26.88,26.88,0,0,1,99.12,111.49Z"/><path class="cls-5" d="M99.12,111.49a.66.66,0,0,0,.2-.14c.75-.15,1.64-.09,1.9-1,.14-.49-.19-.78-.7-.82.11-.25.23-.51.35-.76.32-.14.39-.44.46-.73a13,13,0,0,0,6,1c.34,0,.91-.16.91.25a1,1,0,0,1-.65,1.11,8.11,8.11,0,0,1-1.66.7A26.88,26.88,0,0,1,99.12,111.49Z"/><path class="cls-3" d="M49.36,85.49c-.26-.88-1.4-1.34-1.21-2.45a36,36,0,0,1,.4-5.87c-1.72,1.52-3.23.17-4.81-.32l0,1.05c1.16,1.73.85,3.79,1.19,5.7.06.36-1,.91-1.55,1.38,0,.26,0,.52-.07.78.46,1.32,1.5.51,2.29.62l1,.12,1.1.11c.32.93,1.65,1,1.84,1.93s.85.87,1.52.88l.09-.15s0,.11-.07.17c.26,1,1,.71,1.66.55C52,88.22,50.25,87.2,49.36,85.49Z"/><path class="cls-4" d="M43.77,77.9c1.16,1.73.85,3.79,1.19,5.7.06.36-1,.91-1.55,1.38,0-.13,0-.26-.07-.39C43.48,82.36,43.63,80.13,43.77,77.9Z"/><path class="cls-5" d="M43.77,77.9c1.16,1.73.85,3.79,1.19,5.7.06.36-1,.91-1.55,1.38,0-.13,0-.26-.07-.39C43.48,82.36,43.63,80.13,43.77,77.9Z"/><path class="cls-7" d="M28.85,118.75a49,49,0,0,0-5.09-.7c-3-.12-5.65-1.36-8.34-2.47-.45-.19-1.1-.3-1.2-.88.62-1.17,2.29-.13,2.76-1.48,1.9-.35,2.12-1.64,1.83-3.23-2,.2-4.58-1-5.5,2.1-1.22-.23-1.79.55-2.26,1.47,0,.22,0,.44,0,.67a.19.19,0,0,0,.23.17,1.68,1.68,0,0,0,2.08,1l.54.42.82.27a5.18,5.18,0,0,0,.91.58,45.45,45.45,0,0,0,13.26,2.62Z"/><path class="cls-5" d="M28.85,118.75a49,49,0,0,0-5.09-.7c-3-.12-5.65-1.36-8.34-2.47-.45-.19-1.1-.3-1.2-.88.62-1.17,2.29-.13,2.76-1.48,1.9-.35,2.12-1.64,1.83-3.23-2,.2-4.58-1-5.5,2.1-1.22-.23-1.79.55-2.26,1.47,0,.22,0,.44,0,.67a.19.19,0,0,0,.23.17,1.68,1.68,0,0,0,2.08,1l.54.42.82.27a5.18,5.18,0,0,0,.91.58,45.45,45.45,0,0,0,13.26,2.62Z"/><path class="cls-3" d="M58.57,116.15c-1.71-1.63-3.68-3-4.82-5.16a2.6,2.6,0,0,1-1.2-1.31,2.07,2.07,0,0,0-2.16-1.31c0,.81.92,1.32.78,2.2,1,.26,1.45,1.12,2.1,1.73.93.86-.11,1.55-.64,1.87a39.79,39.79,0,0,1-4.11,2c-1.57.8-2.87,2.2-4.79,2.27h0a6.34,6.34,0,0,1-6,.73,54.4,54.4,0,0,0-8.93-.39l.06.55,1.1.14a2.68,2.68,0,0,0,1.87.18l1.84.17a4.62,4.62,0,0,0,2.55.19l1.52.17c2.71-.32,5.44-.3,8.16-.87,3.78-.79,7.44-2.44,11.44-2,.73.08,1.15-.37,1.2-1.12Z"/><path class="cls-7" d="M99.55,125.25A1.83,1.83,0,0,1,97.92,127c-3,.32-6,.91-9,.2a55.5,55.5,0,0,1-10.7-1.79c0-.13,0-.25,0-.38l3.31.42c3.8,1.29,7.66.93,11.49.28,1-.17,1.64-1.4,3-1.57.75-.09-.55-1-.33-1.67.45.35,1.14.21,1.49.76a1.42,1.42,0,0,0,.08.18,1.42,1.42,0,0,1-.08-.18,1,1,0,0,1,1.12.76C98.83,124.29,99.77,124.09,99.55,125.25Zm-2.06-1.58s0,0,0,0S97.49,123.66,97.49,123.67Zm-.11-.13a.25.25,0,0,1,0-.07A.25.25,0,0,0,97.38,123.54Zm.39.31Zm-.16-.09h0Z"/><path class="cls-5" d="M99.55,125.25A1.83,1.83,0,0,1,97.92,127c-3,.32-6,.91-9,.2a55.5,55.5,0,0,1-10.7-1.79c0-.13,0-.25,0-.38l3.31.42c3.8,1.29,7.66.93,11.49.28,1-.17,1.64-1.4,3-1.57.75-.09-.55-1-.33-1.67.45.35,1.14.21,1.49.76a1.42,1.42,0,0,0,.08.18,1.42,1.42,0,0,1-.08-.18,1,1,0,0,1,1.12.76C98.83,124.29,99.77,124.09,99.55,125.25Zm-2.06-1.58s0,0,0,0S97.49,123.66,97.49,123.67Zm-.11-.13a.25.25,0,0,1,0-.07A.25.25,0,0,0,97.38,123.54Zm.39.31Zm-.16-.09h0Z"/><path class="cls-2" d="M68.61,110.65c.32,0,.61,0,.75.37a.24.24,0,0,1,0,.28C68.91,111.36,68.66,111.14,68.61,110.65Z"/><path class="cls-2" d="M76.4,115.05a.66.66,0,0,1-.74-.66c.3-.06.58-.07.74.27v.39Z"/><path class="cls-2" d="M76.4,115.05v-.39c.3,0,.63,0,.83.31Z"/><path class="cls-11" d="M13.92,115.83l.82.27Z"/><path class="cls-6" d="M95,106.88l-.82,0Z"/><path class="cls-6" d="M69.78,111.68l-.41-.39Z"/><path class="cls-2" d="M77.53,115c-.22.29-.3.17-.31-.11A.29.29,0,0,1,77.53,115Z"/><path class="cls-4" d="M45.63,86.38l1,.12a9.58,9.58,0,0,1,.53,1.76c.15,1.79-.89,3.65.27,5.4,0,0-.27.4-.47.51-1.52.87-1.55,1.26-.15,2.18a3.89,3.89,0,0,1,1.5,4.46c-.09.2-.35.33-.53.5-1.38,1-2.24.54-2.77-1.57-.11-.43.17-1-.6-1-.45-.35-.24-.89-.38-1.33-.34-1.09-.18-2.42-1.43-3.08a15.18,15.18,0,0,1,.69-8.54C43.8,87.08,44.84,86.27,45.63,86.38Z"/><path class="cls-5" d="M45.63,86.38l1,.12a9.58,9.58,0,0,1,.53,1.76c.15,1.79-.89,3.65.27,5.4,0,0-.27.4-.47.51-1.52.87-1.55,1.26-.15,2.18a3.89,3.89,0,0,1,1.5,4.46c-.09.2-.35.33-.53.5-1.38,1-2.24.54-2.77-1.57-.11-.43.17-1-.6-1-.45-.35-.24-.89-.38-1.33-.34-1.09-.18-2.42-1.43-3.08a15.18,15.18,0,0,1,.69-8.54C43.8,87.08,44.84,86.27,45.63,86.38Z"/><path class="cls-6" d="M58.57,116.15c-1.71-1.63-3.68-3-4.82-5.16.14-.4.08-1.62.77-.7,1.27,1.68,3.07,2.95,3.9,5A4.34,4.34,0,0,1,58.57,116.15Z"/><path class="cls-3" d="M100.52,109.49a6.64,6.64,0,0,1-2.5-.63,6.64,6.64,0,0,0,2.5.63c.11-.25.23-.51.35-.76.32-.14.39-.44.46-.73a4,4,0,0,0-1.89-.53l-2.28.91-.68.31c-2.86,0-5.73.08-8.6,0-1,0-2,.8-3,0H79.41l-1.91,0H76.42l-1.91.34-1.08,0,0,0c-.11.19-.22.17-.33,0l-2.63,0c-.13,1.15-1.69.46-1.9,1.5l.07.06c.32,0,.61,0,.75.37l1.07-.26c.38-.73,1.07-.5,1.64-.48a105,105,0,0,0,15.27-.52c3.09-.33,5.92.82,8.93.58,1-.08,2,.65,3.06,1,.74-.15,1.63-.09,1.89-1C101.36,109.82,101,109.53,100.52,109.49Z"/><path class="cls-2" d="M73.4,109.11c-.11.19-.22.17-.33,0C73.18,109.11,73.29,109.12,73.4,109.11Z"/><path class="cls-6" d="M53.27,112.3c-.65-.61-1.14-1.47-2.1-1.73.14-.88-.73-1.39-.78-2.2-2.33-1.82-2.56-4.4-2.56-7.06-1.38,1-2.24.54-2.77-1.57-.11-.43.17-1-.6-1a1,1,0,0,1-.08.21,1,1,0,0,0,.08-.21c-.45-.35-.24-.89-.38-1.33-.34-1.09-.18-2.42-1.43-3.08a15.18,15.18,0,0,1,.69-8.54c0-.26,0-.52.07-.78l-.07-.39c-2.4,4.2-3.18,8.61-1.57,13.27a35.14,35.14,0,0,0,4.36,8.65,6.4,6.4,0,0,1,1.34,3.72c.55.52.28,1.21.37,1.83.6.1.58.4.49.75.09-.35.11-.65-.49-.75-.7.79-.41,2.18-1.63,2.69-1,.44-.91,1.28-.65,2.14h0c-.38-.14-1-.48-1.09-.38-1,1.2-2.68.85-3.7,1.87-.84.89-2.16-.12-3,.76a6.34,6.34,0,0,0,6-.73h0c1.92-.07,3.22-1.47,4.79-2.27a39.79,39.79,0,0,0,4.11-2C53.16,113.85,54.2,113.16,53.27,112.3Z"/><path class="cls-2" d="M60.78,101.35a.66.66,0,0,1,.75.71A.71.71,0,0,1,60.78,101.35Z"/><path class="cls-2" d="M95,106.88l-.82,0c-6.31-.25-12.63-.37-18.88-1.43A5.37,5.37,0,0,0,73.1,105a4.88,4.88,0,0,0-2.07-.81,6.05,6.05,0,0,0-2.43-1h0a2.35,2.35,0,0,0-1.47-.75.22.22,0,0,0-.24-.06l-3.11-.3h0c-.75.65-1.5-.27-2.25,0,0,1.5,1.58,1.52,2.33,2.32a9.48,9.48,0,0,0,2.52,1.8,2.06,2.06,0,0,1,1.16,2.21h0c-.31.44-1,.52-1.13,1.11.19,1.42,1.31,1,2.14,1.08.21-1,1.77-.35,1.9-1.5l2.63,0c.11,0,.22,0,.33,0l0,0h0l1.08,0,1.91-.34H77.5l1.91,0H84.9c1,.83,2,0,3,0,2.87.07,5.74,0,8.6,0l.68-.31,2.28-.91C98,106.62,96.39,107.6,95,106.88Z"/><path class="cls-2" d="M63.78,102.05l-.15-.08.14.09Z"/><path class="cls-7" d="M49,74.86c-1.24-2.25-2-2.58-4.64-1.47-2.14.91-2.29,1.48-.86,3.22a2.09,2.09,0,0,0,.28.24c1.58.49,3.09,1.84,4.81.32C48.83,76.43,49.52,75.88,49,74.86Z"/><path class="cls-5" d="M49,74.86c-1.24-2.25-2-2.58-4.64-1.47-2.14.91-2.29,1.48-.86,3.22a2.09,2.09,0,0,0,.28.24c1.58.49,3.09,1.84,4.81.32C48.83,76.43,49.52,75.88,49,74.86Z"/><path class="cls-2" d="M51.14,89.42l.09-.15-.07.17Z"/><path class="cls-2" d="M197.28,11.68l5.88,2.71a.66.66,0,0,0,.74.66c-.05,1.16,1.48.32,1.67,1.29a3.8,3.8,0,0,1-4-1c-1.42-1.68-3.08-1-4.59-1.19-.53-.07-1.4-.58-1.89.11-1.82,2.6-4.23,2.17-6.72,1.4-.61-.19-1.09-.31-1.21.53h-1.1l0,0a4.34,4.34,0,0,0-.15-.9c-.83-2-2.63-3.28-3.9-5-.69-.92-.63.3-.77.7a2.6,2.6,0,0,1-1.2-1.31,2.07,2.07,0,0,0-2.16-1.31c-2.33-1.82-2.56-4.4-2.56-7.06.18-.17.44-.3.53-.5a3.89,3.89,0,0,0-1.5-4.46C173-4.57,173-5,174.51-5.83c.2-.11.5-.46.47-.51-1.16-1.75-.12-3.61-.27-5.4a9.58,9.58,0,0,0-.53-1.76l1.1.11c.32.93,1.65,1,1.84,1.93s.85.87,1.52.88l0,0c.26,1.05,1,.71,1.66.55v0a3.78,3.78,0,0,0,1.22,3.93,4.2,4.2,0,0,1,1.42,2.74A6.11,6.11,0,0,0,184.32,0c1.65,2.22,2,5.32,4.66,6.83,1.63.93,2.49,3.25,4.92,2.7.19,1.42,1.31,1,2.14,1.08l.07.06c0,.49.3.71.79.65h0Z"/><path class="cls-4" d="M146.31,10c4.23-1,8.54-.88,12.84-.83,5.29.06,10.54.74,15.82,1.07.55.52.28,1.21.37,1.83-.7.79-.41,2.18-1.63,2.69-1,.44-.91,1.28-.65,2.14-.38-.14-1-.48-1.09-.38-1,1.2-2.68.85-3.7,1.87-.84.89-2.16-.12-3,.76a54.4,54.4,0,0,0-8.93-.39,49,49,0,0,0-5.09-.7c-3-.12-5.65-1.36-8.34-2.47-.45-.19-1.1-.3-1.2-.88.62-1.17,2.29-.13,2.76-1.48C146.38,12.87,146.6,11.58,146.31,10Z"/><path class="cls-5" d="M146.31,10c4.23-1,8.54-.88,12.84-.83,5.29.06,10.54.74,15.82,1.07.55.52.28,1.21.37,1.83-.7.79-.41,2.18-1.63,2.69-1,.44-.91,1.28-.65,2.14-.38-.14-1-.48-1.09-.38-1,1.2-2.68.85-3.7,1.87-.84.89-2.16-.12-3,.76a54.4,54.4,0,0,0-8.93-.39,49,49,0,0,0-5.09-.7c-3-.12-5.65-1.36-8.34-2.47-.45-.19-1.1-.3-1.2-.88.62-1.17,2.29-.13,2.76-1.48C146.38,12.87,146.6,11.58,146.31,10Z"/><path class="cls-4" d="M187.19,16.18c.12-.84.6-.72,1.21-.53,2.49.77,4.9,1.2,6.72-1.4.49-.69,1.36-.18,1.89-.11,1.51.2,3.17-.49,4.59,1.19a3.8,3.8,0,0,0,4,1c-.19-1-1.72-.13-1.67-1.29h0l.83-.08v-.05c0,.28.09.4.31.11,3.28,1,6.56,1.94,9.86,2.83a1.26,1.26,0,0,1,1,1.61c-.94.25-2.48.24-2.71.79-.91,2.16-2.92,3.32-4.13,5.15L205.78,25c-2.39-.84-4.8-1.63-7.16-2.53-2.8-1.07-5.75-1.73-8.16-3.79C189.45,17.81,188.56,16.63,187.19,16.18Z"/><path class="cls-5" d="M187.19,16.18c.12-.84.6-.72,1.21-.53,2.49.77,4.9,1.2,6.72-1.4.49-.69,1.36-.18,1.89-.11,1.51.2,3.17-.49,4.59,1.19a3.8,3.8,0,0,0,4,1c-.19-1-1.72-.13-1.67-1.29h0l.83-.08v-.05c0,.28.09.4.31.11,3.28,1,6.56,1.94,9.86,2.83a1.26,1.26,0,0,1,1,1.61c-.94.25-2.48.24-2.71.79-.91,2.16-2.92,3.32-4.13,5.15L205.78,25c-2.39-.84-4.8-1.63-7.16-2.53-2.8-1.07-5.75-1.73-8.16-3.79C189.45,17.81,188.56,16.63,187.19,16.18Z"/><path class="cls-6" d="M187.19,16.18c1.37.45,2.26,1.63,3.27,2.49,2.41,2.06,5.36,2.72,8.16,3.79,2.36.9,4.77,1.69,7.16,2.53v.38c-5.63-1.28-11.39-2.13-16.36-5.43-1-.68-2.28-.15-3.44-.07-6.89.45-13.78.9-20.68.28,2.71-.32,5.44-.3,8.16-.87,3.78-.79,7.44-2.44,11.44-2,.73.08,1.15-.37,1.2-1.12Z"/><path class="cls-2" d="M209.09,25.41c1.21-1.83,3.22-3,4.13-5.15.23-.55,1.77-.54,2.71-.79a3.37,3.37,0,0,1,2.84.16,40,40,0,0,1,4.44,2.82c-.22.66,1.08,1.58.33,1.67-1.32.17-1.93,1.4-3,1.57C216.75,26.34,212.89,26.7,209.09,25.41Z"/><path class="cls-3" d="M189,2.07c0,1.5,1.58,1.52,2.33,2.32a9.48,9.48,0,0,0,2.52,1.8A2,2,0,0,1,195,8.4c-.31.44-1,.52-1.13,1.12-2.43.54-3.29-1.78-4.92-2.71C186.34,5.3,186,2.2,184.32,0a6.11,6.11,0,0,1-1.38-3.32,4.2,4.2,0,0,0-1.42-2.74A3.78,3.78,0,0,1,180.3-10a16.38,16.38,0,0,1,3.2,3.5c-.12.34-.36.63-.22,1,.93,2.81,2.29,5.31,5,6.81a.71.71,0,0,0,.75.71Z"/><path class="cls-6" d="M197.93,10.76c.38-.73,1.07-.5,1.64-.48a105,105,0,0,0,15.27-.52c3.09-.33,5.92.82,8.93.58,1-.08,2,.65,3,1a.66.66,0,0,1-.2.14c-1.43.59-2.92.33-4.37.29-7.81-.24-15.62-.55-23.43-.84A5.62,5.62,0,0,1,197.93,10.76Z"/><path class="cls-2" d="M188.28,1.35c-2.71-1.5-4.07-4-5-6.81-.14-.42.1-.71.22-1,2.43,2.31,4.66,4.85,7.51,6.68l3.36,2.19-3.1-.3L191.13,2l.15.08c-.75.65-1.5-.27-2.25,0h0A.66.66,0,0,0,188.28,1.35Z"/><path class="cls-7" d="M226.62,11.49a.66.66,0,0,0,.2-.14c.75-.15,1.64-.09,1.9-1,.14-.49-.19-.78-.7-.82.11-.25.23-.51.35-.76.32-.14.39-.44.46-.73a13,13,0,0,0,5.95,1c.34,0,.91-.16.91.25a1,1,0,0,1-.65,1.11,8.11,8.11,0,0,1-1.66.7A26.88,26.88,0,0,1,226.62,11.49Z"/><path class="cls-5" d="M226.62,11.49a.66.66,0,0,0,.2-.14c.75-.15,1.64-.09,1.9-1,.14-.49-.19-.78-.7-.82.11-.25.23-.51.35-.76.32-.14.39-.44.46-.73a13,13,0,0,0,5.95,1c.34,0,.91-.16.91.25a1,1,0,0,1-.65,1.11,8.11,8.11,0,0,1-1.66.7A26.88,26.88,0,0,1,226.62,11.49Z"/><path class="cls-7" d="M156.35,18.75a49,49,0,0,0-5.09-.7c-3-.12-5.65-1.36-8.34-2.47-.45-.19-1.1-.3-1.2-.88.62-1.17,2.29-.13,2.76-1.48,1.9-.35,2.12-1.64,1.83-3.23-2,.2-4.58-1-5.5,2.1-1.22-.23-1.79.55-2.26,1.47,0,.22,0,.44,0,.67a.19.19,0,0,0,.23.17,1.68,1.68,0,0,0,2.08,1l.54.42.82.27a5.18,5.18,0,0,0,.91.58,45.45,45.45,0,0,0,13.26,2.62Z"/><path class="cls-5" d="M156.35,18.75a49,49,0,0,0-5.09-.7c-3-.12-5.65-1.36-8.34-2.47-.45-.19-1.1-.3-1.2-.88.62-1.17,2.29-.13,2.76-1.48,1.9-.35,2.12-1.64,1.83-3.23-2,.2-4.58-1-5.5,2.1-1.22-.23-1.79.55-2.26,1.47,0,.22,0,.44,0,.67a.19.19,0,0,0,.23.17,1.68,1.68,0,0,0,2.08,1l.54.42.82.27a5.18,5.18,0,0,0,.91.58,45.45,45.45,0,0,0,13.26,2.62Z"/><path class="cls-3" d="M186.07,16.15c-1.71-1.63-3.68-3-4.82-5.16a2.6,2.6,0,0,1-1.2-1.31,2.07,2.07,0,0,0-2.16-1.31c.05.81.92,1.32.78,2.2,1,.26,1.45,1.12,2.1,1.73.93.86-.11,1.55-.64,1.87a39.79,39.79,0,0,1-4.11,2c-1.57.8-2.87,2.2-4.79,2.27h0a6.34,6.34,0,0,1-6,.73,54.4,54.4,0,0,0-8.93-.39l.06.55,1.1.14a2.68,2.68,0,0,0,1.87.18l1.84.17a4.62,4.62,0,0,0,2.55.19l1.52.17c2.71-.32,5.44-.3,8.16-.87,3.78-.79,7.44-2.44,11.44-2,.73.08,1.15-.37,1.2-1.12Z"/><path class="cls-7" d="M227.05,25.25A1.83,1.83,0,0,1,225.42,27c-3,.32-5.95.91-8.95.2a55.5,55.5,0,0,1-10.7-1.79c0-.13,0-.25,0-.38l3.31.42c3.8,1.29,7.66.93,11.49.28,1-.17,1.64-1.4,3-1.57.75-.09-.55-1-.33-1.67.45.35,1.14.21,1.49.76a1.42,1.42,0,0,0,.08.18,1.42,1.42,0,0,1-.08-.18,1,1,0,0,1,1.12.76C226.33,24.29,227.27,24.09,227.05,25.25ZM225,23.67s0,0,0,0S225,23.66,225,23.67Zm-.11-.13a.25.25,0,0,1,0-.07A.25.25,0,0,0,224.88,23.54Zm.39.31Zm-.16-.09h0Z"/><path class="cls-5" d="M227.05,25.25A1.83,1.83,0,0,1,225.42,27c-3,.32-5.95.91-8.95.2a55.5,55.5,0,0,1-10.7-1.79c0-.13,0-.25,0-.38l3.31.42c3.8,1.29,7.66.93,11.49.28,1-.17,1.64-1.4,3-1.57.75-.09-.55-1-.33-1.67.45.35,1.14.21,1.49.76a1.42,1.42,0,0,0,.08.18,1.42,1.42,0,0,1-.08-.18,1,1,0,0,1,1.12.76C226.33,24.29,227.27,24.09,227.05,25.25ZM225,23.67s0,0,0,0S225,23.66,225,23.67Zm-.11-.13a.25.25,0,0,1,0-.07A.25.25,0,0,0,224.88,23.54Zm.39.31Zm-.16-.09h0Z"/><path class="cls-2" d="M196.11,10.65c.32,0,.61,0,.75.37a.24.24,0,0,1,0,.28C196.41,11.36,196.16,11.14,196.11,10.65Z"/><path class="cls-2" d="M203.9,15.05a.66.66,0,0,1-.74-.66c.3-.06.58-.07.74.27v.39Z"/><path class="cls-2" d="M203.9,15.05v-.39c.3,0,.63,0,.83.31Z"/><path class="cls-11" d="M141.42,15.83l.82.27Z"/><path class="cls-6" d="M222.47,6.88l-.82,0Z"/><path class="cls-6" d="M197.28,11.68l-.41-.39Z"/><path class="cls-2" d="M205,15c-.22.29-.3.17-.31-.11A.29.29,0,0,1,205,15Z"/><path class="cls-4" d="M173.13-13.62l1.05.12a9.58,9.58,0,0,1,.53,1.76c.15,1.79-.89,3.65.27,5.4,0,0-.27.4-.47.51C173-5,173-4.57,174.36-3.65a3.89,3.89,0,0,1,1.5,4.46c-.09.2-.35.33-.53.5-1.38,1-2.24.54-2.77-1.57-.11-.43.17-1-.6-1-.45-.35-.24-.89-.38-1.33-.34-1.09-.18-2.42-1.43-3.08a15.18,15.18,0,0,1,.69-8.54C171.3-12.92,172.34-13.73,173.13-13.62Z"/><path class="cls-5" d="M173.13-13.62l1.05.12a9.58,9.58,0,0,1,.53,1.76c.15,1.79-.89,3.65.27,5.4,0,0-.27.4-.47.51C173-5,173-4.57,174.36-3.65a3.89,3.89,0,0,1,1.5,4.46c-.09.2-.35.33-.53.5-1.38,1-2.24.54-2.77-1.57-.11-.43.17-1-.6-1-.45-.35-.24-.89-.38-1.33-.34-1.09-.18-2.42-1.43-3.08a15.18,15.18,0,0,1,.69-8.54C171.3-12.92,172.34-13.73,173.13-13.62Z"/><path class="cls-6" d="M186.07,16.15c-1.71-1.63-3.68-3-4.82-5.16.14-.4.08-1.62.77-.7,1.27,1.68,3.07,3,3.9,5A4.34,4.34,0,0,1,186.07,16.15Z"/><path class="cls-3" d="M228,9.49a6.64,6.64,0,0,1-2.5-.63,6.64,6.64,0,0,0,2.5.63c.11-.25.23-.51.35-.76.32-.14.39-.44.46-.73a4,4,0,0,0-1.89-.53l-2.28.91-.68.31c-2.86,0-5.73.08-8.6,0-1,0-2,.8-3,0h-5.49l-1.91,0h-1.08L202,9.06l-1.08,0,0,0c-.11.19-.22.17-.33,0l-2.63,0c-.13,1.15-1.69.46-1.9,1.5l.07.06c.32,0,.61,0,.75.37l1.07-.26c.38-.73,1.07-.5,1.64-.48a105,105,0,0,0,15.27-.52c3.09-.33,5.92.82,8.93.58,1-.08,2,.65,3.06,1,.74-.15,1.63-.09,1.89-1C228.86,9.82,228.53,9.53,228,9.49Z"/><path class="cls-2" d="M200.9,9.11c-.11.19-.22.17-.33,0Z"/><path class="cls-6" d="M180.77,12.3c-.65-.61-1.14-1.47-2.1-1.73.14-.88-.73-1.39-.78-2.2-2.33-1.82-2.56-4.4-2.56-7.06-1.38,1-2.24.54-2.77-1.57-.11-.43.17-1-.6-1a1,1,0,0,1-.08.21,1,1,0,0,0,.08-.21c-.45-.35-.24-.89-.38-1.33-.34-1.09-.18-2.42-1.43-3.08a15.18,15.18,0,0,1,.69-8.54c0-.26,0-.52.07-.78l-.07-.39c-2.4,4.2-3.18,8.61-1.57,13.27a35.14,35.14,0,0,0,4.36,8.65A6.4,6.4,0,0,1,175,10.23c.55.52.28,1.21.37,1.83.6.1.58.4.49.75.09-.35.11-.65-.49-.75-.7.79-.41,2.18-1.63,2.69-1,.44-.91,1.28-.65,2.14h0c-.38-.14-1-.48-1.09-.38-1,1.2-2.68.85-3.7,1.87-.84.89-2.16-.12-3,.76a6.34,6.34,0,0,0,6-.73h0c1.92-.07,3.22-1.47,4.79-2.27a39.79,39.79,0,0,0,4.11-2C180.66,13.85,181.7,13.16,180.77,12.3Z"/><path class="cls-2" d="M188.28,1.35a.66.66,0,0,1,.75.71A.71.71,0,0,1,188.28,1.35Z"/><path class="cls-2" d="M222.47,6.88l-.82,0c-6.31-.25-12.63-.37-18.88-1.43A5.37,5.37,0,0,0,200.6,5a4.88,4.88,0,0,0-2.07-.81,6.05,6.05,0,0,0-2.43-1h0a2.35,2.35,0,0,0-1.47-.75.22.22,0,0,0-.24-.06l-3.11-.3h0c-.75.65-1.5-.27-2.25,0,0,1.5,1.58,1.52,2.33,2.32a9.48,9.48,0,0,0,2.52,1.8A2.06,2.06,0,0,1,195,8.4h0c-.31.44-1,.52-1.13,1.11.19,1.42,1.31,1,2.14,1.08.21-1,1.77-.35,1.9-1.5l2.63,0h.33l0,0h0l1.08,0,1.91-.34H205l1.91,0h5.49c1,.83,2,0,3,0,2.87.07,5.74,0,8.6,0l.68-.31,2.28-.91C225.54,6.62,223.89,7.6,222.47,6.88Z"/><path class="cls-2" d="M191.28,2.05,191.13,2l.14.09Z"/><ellipse class="cls-8" cx="56.98" cy="7.23" rx="32.73" ry="14.91"/><circle class="cls-8" cx="50.16" cy="7.32" r="14"/><polygon points="25.04 3 11.52 -15.5 28.73 -0.37 25.04 3"/><polygon points="89.59 4.83 116.52 5.14 90 9.81 89.59 4.83"/><polygon points="34.81 18.66 25.79 28.23 30.59 15.98 34.81 18.66"/><polygon points="57.93 21.94 56.16 39.5 52.93 22.15 57.93 21.94"/><polygon points="83.7 14.78 97.43 31.32 80.25 18.4 83.7 14.78"/><circle class="cls-9" cx="47.88" cy="8.23" r="6.73"/><circle class="cls-10" cx="45.7" cy="5.68" r="2.18"/><circle class="cls-10" cx="50.25" cy="10.59" r="1.27"/></pattern></defs><title>eye4_1</title><rect class="cls-12" x="0.38" y="0.38" width="1367" height="655"/></svg>