<svg id="Layer_1" data-name="Layer 1" xmlns="http://www.w3.org/2000/svg" viewBox="0 0 94.2 94.2"><title>linkedin</title><path d="M0,81.56V12.64c.09-.33.18-.67.26-1A14,14,0,0,1,10.69.48c.64-.18,1.3-.32,2-.48H81.56c.33.08.67.18,1,.25A14,14,0,0,1,93.71,10.69c.19.64.33,1.3.49,2V81.56c-.08.31-.17.62-.24.93-1.27,5.84-4.75,9.62-10.52,11.24-.62.18-1.25.32-1.88.47H12.64L11.71,94A14,14,0,0,1,.48,83.51C.3,82.87.16,82.21,0,81.56ZM54.7,38.11c0-1.85,0-3.5,0-5.15,0-.49-.09-.73-.65-.72q-6.44,0-12.86,0c-.56,0-.68.21-.67.71,0,1.33.06,2.66.06,4q0,18.51-.07,37c0,.78.22,1,1,1q6.17,0,12.33,0c.68,0,.91-.16.9-.87,0-2.33,0-4.66,0-7,0-5.64.06-11.29,0-16.93a7.85,7.85,0,0,1,7.1-7.62c2.48-.16,5.08.67,6.39,3.18a12.12,12.12,0,0,1,1.31,5.65q0,11.32,0,22.64c0,.71.17,1,.91.94q6.21,0,12.41,0c.67,0,.91-.15.91-.87,0-7.82,0-15.64,0-23.47a25.13,25.13,0,0,0-1.91-10.34,14.36,14.36,0,0,0-7.11-7.43,17.52,17.52,0,0,0-8.65-1.46,13.25,13.25,0,0,0-9.2,4.21C56.18,36.31,55.52,37.15,54.7,38.11Zm-22,15.52q0-10.26,0-20.54c0-.64-.16-.86-.84-.86-4.16,0-8.33,0-12.49,0-.74,0-.91.23-.9.94q0,20.38,0,40.78c0,.7.15,1,.9.94,4.12,0,8.23,0,12.34,0,1,0,1,0,1-1ZM26,11.72c-3.51,0-7,1.59-8.12,5.56a7.51,7.51,0,0,0,3.62,8.23,9.55,9.55,0,0,0,5.34.84,7.24,7.24,0,0,0,6-10.56C31.44,12.91,28.88,11.84,26,11.72Z"/></svg>