<svg id="Layer_1" data-name="Layer 1" xmlns="http://www.w3.org/2000/svg" viewBox="0 0 106.89 89.53"><title>note-sound-on</title><path d="M71.51,57.7a10.47,10.47,0,0,1,.21-2c2.59-8.34.83-15.9-4.31-22.69a26.26,26.26,0,0,0-12.72-8.75,1.54,1.54,0,0,0-.56-.07c-.12,0-.23.09-.57.24.24,2.11.45,4.3.74,6.49q2.43,18.45,4.89,36.9a9,9,0,0,1-1.94,6.8c-4.19,5.51-9.68,8.78-16.68,9.12a10.41,10.41,0,0,1-8.15-3.56,12.75,12.75,0,0,1-1.55-16.31c3.44-5.4,8.34-7.35,15-5.9,1.49.33,2.93.86,4.4,1.29.47.14.94.26,1.78.48C50,41.57,48,23.66,46,5.54c1.6-.2,3.09-.46,4.59-.53a1.71,1.71,0,0,1,1.33.82c1.39,3.22,4,5.39,6.54,7.6,4,3.45,8.3,6.57,12.07,10.25,6.7,6.57,9.86,14.41,7.15,23.92a31.23,31.23,0,0,1-4,9C73.23,57.26,72.92,58,71.51,57.7Z"/></svg>