<svg id="Layer_1" data-name="Layer 1" xmlns="http://www.w3.org/2000/svg" viewBox="0 0 106.89 89.19"><defs><style>.cls-1{fill:none;stroke:#000;stroke-linecap:round;stroke-miterlimit:10;stroke-width:8px;}</style></defs><title>note-sound-off</title><path d="M72.4,57.3a9.73,9.73,0,0,1,.2-2c2.6-8.33.84-15.89-4.31-22.68a26.28,26.28,0,0,0-12.72-8.76A1.49,1.49,0,0,0,55,23.8c-.11,0-.23.09-.56.24.24,2.12.45,4.31.73,6.49Q57.61,49,60.08,67.44a9,9,0,0,1-1.95,6.8c-4.19,5.51-9.67,8.77-16.67,9.12a10.37,10.37,0,0,1-8.15-3.57,12.72,12.72,0,0,1-1.56-16.3c3.44-5.41,8.34-7.36,15-5.9,1.48.32,2.93.85,4.39,1.28.47.14,1,.26,1.78.49-2-18.18-4.06-36.09-6.09-54.22,1.6-.2,3.09-.46,4.58-.52a1.7,1.7,0,0,1,1.33.81c1.4,3.23,4,5.4,6.55,7.6,4,3.46,8.3,6.57,12.06,10.26,6.71,6.57,9.86,14.4,7.16,23.91a31,31,0,0,1-4,9C74.12,56.87,73.8,57.63,72.4,57.3Z"/><line class="cls-1" x1="18.09" y1="11.58" x2="88.91" y2="82.4"/></svg>