<svg id="Layer_1" data-name="Layer 1" xmlns="http://www.w3.org/2000/svg" viewBox="0 0 299 285"><defs><style>.cls-1{fill:#0f6;}.cls-1,.cls-2{stroke:#000;stroke-miterlimit:10;stroke-width:2px;}.cls-2{fill:#fff;}</style></defs><title>pan</title><path class="cls-1" d="M285.69,142.17c-13.81,16.9-17.23,33-11,52.89-18.6,9.41-27.57,22.6-29.61,42.71-20.11,2-33.3,11-43.25,28.31-19.34-4.92-35.44-1.49-52.35,10.3-16.9-11.79-33-15.22-52.34-10.3-10-17.31-23.14-26.27-43.25-28.31-2-20.11-11-33.3-29.61-42.71,6.21-19.88,2.79-36-11-52.89,13.81-16.9,17.23-33,11-52.89,18.6-9.41,27.56-22.6,29.61-42.71,20.11-2,33.3-11,43.25-28.31,19.34,4.92,35.44,1.49,52.34-10.3,16.91,11.79,33,15.22,52.35,10.3,9.95,17.31,23.14,26.27,43.25,28.31,2,20.11,11,33.3,29.61,42.71C268.46,109.17,271.88,125.27,285.69,142.17Z"/><path class="cls-2" d="M92.3,151.07V166.6H77V117.75H98.37q9,0,13.77,4.55t4.79,12.21a16.65,16.65,0,0,1-2.14,8.39,15.23,15.23,0,0,1-6.31,6,21.32,21.32,0,0,1-10.11,2.21Zm9.11-16.56q0-4.48-4.76-4.48H92.3v9h4.35Q101.4,139,101.41,134.51Z"/><path class="cls-2" d="M153.09,159.21H136.8l-2.41,7.39H118.31l17.87-48.85h17.67l17.8,48.85H155.5Zm-3.73-11.52-4.42-13.59-4.41,13.59Z"/><path class="cls-2" d="M222,166.6H206.63L190.41,142V166.6H175.1V117.75h15.31l16.22,25v-25H222Z"/></svg>