<?xml version="1.0" encoding="utf-8"?>
<!-- Generator: Adobe Illustrator 23.0.2, SVG Export Plug-In . SVG Version: 6.00 Build 0)  -->
<svg version="1.1" id="Layer_1" xmlns="http://www.w3.org/2000/svg" xmlns:xlink="http://www.w3.org/1999/xlink" x="0px" y="0px"
	 viewBox="0 0 299 285" style="enable-background:new 0 0 299 285;" xml:space="preserve">
<style type="text/css">
	.st0{fill:#00FF66;}
	.st1{fill:#FFFFFF;}
</style>
<title>pan</title>
<path class="st0" d="M285.7,142.2c-13.8,16.9-17.2,33-11,52.9c-18.6,9.4-27.6,22.6-29.6,42.7c-20.1,2-33.3,11-43.3,28.3
	c-19.3-4.9-35.4-1.5-52.3,10.3c-16.9-11.8-33-15.2-52.3-10.3c-10-17.3-23.1-26.3-43.3-28.3c-2-20.1-11-33.3-29.6-42.7
	c6.2-19.9,2.8-36-11-52.9c13.8-16.9,17.2-33,11-52.9c18.6-9.4,27.6-22.6,29.6-42.7c20.1-2,33.3-11,43.3-28.3
	c19.3,4.9,35.4,1.5,52.3-10.3c16.9,11.8,33,15.2,52.4,10.3c9.9,17.3,23.1,26.3,43.3,28.3c2,20.1,11,33.3,29.6,42.7
	C268.5,109.2,271.9,125.3,285.7,142.2z"/>
<path class="st1" d="M92.3,151.1v15.5H77v-48.9h21.4c6,0,10.6,1.5,13.8,4.6c3.2,3,4.8,7.1,4.8,12.2c0,2.9-0.7,5.8-2.1,8.4
	c-1.5,2.6-3.7,4.7-6.3,6c-3.1,1.6-6.6,2.3-10.1,2.2L92.3,151.1z M101.4,134.5c0-3-1.6-4.5-4.8-4.5h-4.3v9h4.3
	C99.8,139,101.4,137.5,101.4,134.5L101.4,134.5z"/>
<path class="st1" d="M153.1,159.2h-16.3l-2.4,7.4h-16.1l17.9-48.8h17.7l17.8,48.8h-16.1L153.1,159.2z M149.4,147.7l-4.4-13.6
	l-4.4,13.6H149.4z"/>
<path class="st1" d="M222,166.6h-15.4L190.4,142v24.6h-15.3v-48.9h15.3l16.2,25v-25H222V166.6z"/>
</svg>
