<svg id="Layer_1" data-name="Layer 1" xmlns="http://www.w3.org/2000/svg" viewBox="0 0 88.73 88.63"><title>pinterest</title><path d="M31.27,86.61c4.61-6.55,6.28-14,8.1-21.58,6.37,5.69,14,6.09,21.44,1.47C73.05,58.87,78.26,36,64.88,23.76A27.59,27.59,0,0,0,47,16.44c-7.47-.34-14.48,1.15-20.64,5.63C15.65,29.85,12.65,45.6,20,56a24.45,24.45,0,0,0,4.64,4.31c.92.75,1.72.45,2-.82s.77-2.78,1-4.2a2.92,2.92,0,0,0-.38-1.93c-7-9.92-1.85-26,12.67-28.73a20.72,20.72,0,0,1,11.91,1.05c6,2.51,9.65,7.06,10.49,13.54.87,6.63-.24,12.92-4.32,18.4a11,11,0,0,1-10,4.8,6.1,6.1,0,0,1-5.77-7.58c.93-4,2.2-8,3.24-12a13.06,13.06,0,0,0,.35-3.25c0-2.41-.77-4.52-3.11-5.55a6.19,6.19,0,0,0-6.67,1,10.1,10.1,0,0,0-3.77,7.7,52.13,52.13,0,0,0,.6,6.68A11.21,11.21,0,0,1,33,52.73c-1.46,6.47-3.23,12.87-4.48,19.38-.66,3.47-.5,7.1-.66,10.67a24.9,24.9,0,0,0,.21,2.76,42.79,42.79,0,0,1-17.94-13,43.13,43.13,0,0,1-9.71-34A44.28,44.28,0,0,1,53.56,1C78.8,6.42,94.21,32.13,86.91,56.73A44.26,44.26,0,0,1,31.27,86.61Z"/></svg>