<svg id="Layer_1" data-name="Layer 1" xmlns="http://www.w3.org/2000/svg" viewBox="0 0 129.19 96"><defs><style>.cls-1{fill:none;stroke:#000;stroke-linecap:round;stroke-miterlimit:10;stroke-width:3px;}</style></defs><title>sound-on</title><path class="cls-1" d="M69.65,11.79l-32,20.9a12.45,12.45,0,0,1-2.45.73H21.58a3.16,3.16,0,0,0-2.93,3.32V60.13a3.15,3.15,0,0,0,2.93,3.31H35.19a10,10,0,0,1,2.45.74l32,20.89c2.35,1.53,5.28-.38,5.28-3.44V15.24C74.93,12.18,72,10.27,69.65,11.79Z"/><path class="cls-1" d="M86.63,67.4a27.71,27.71,0,0,0,8.22-20.1,27.73,27.73,0,0,0-8.22-20.1"/><path class="cls-1" d="M96.82,71.93c5-5.73,8.23-14.38,8.23-24.06s-3.2-18.34-8.23-24.06"/><path class="cls-1" d="M107,77.59c5-6.94,8.23-17.42,8.23-29.16S112,26.22,107,19.28"/></svg>