<?xml version="1.0" encoding="utf-8"?>
<!-- Generator: Adobe Illustrator 23.0.1, SVG Export Plug-In . SVG Version: 6.00 Build 0)  -->
<svg version="1.1" xmlns="http://www.w3.org/2000/svg" xmlns:xlink="http://www.w3.org/1999/xlink" x="0px" y="0px"
	 viewBox="0 0 1366 768" style="enable-background:new 0 0 1366 768;" xml:space="preserve">
<style type="text/css">
	.st0{fill:#FFFFFF;stroke:#68FF35;stroke-width:2;stroke-miterlimit:10;}
	.st1{fill:none;stroke:#FF15E1;stroke-width:2;stroke-miterlimit:10;}
	.st2{fill:#FF0AF4;stroke:#000000;stroke-width:2;stroke-miterlimit:10;}
	.st3{fill:none;stroke:#68FF35;stroke-width:3;stroke-miterlimit:10;}
</style>
<g id="background1">
	
		<rect x="52.2" y="283.6" transform="matrix(0.9941 -0.108 0.108 0.9941 -36.6735 76.5899)" class="st0" width="1273" height="186.4"/>
</g>
<g id="frame">
	
		<rect x="32.1" y="274.7" transform="matrix(0.9941 -0.108 0.108 0.9941 -35.8289 74.3669)" class="st1" width="1273" height="186.4"/>
</g>
<g id="maintext">
	<g>
		<path class="st2" d="M158.4,376.5l2,17.8l-25.2,2.9l8.5,74.9l-22.6,2.6l-8.5-74.9l-24.9,2.8l-2-17.8L158.4,376.5z"/>
		<path class="st2" d="M224.2,392.4c6.1,2.4,11.1,6.2,15,11.5c3.9,5.3,6.3,11.8,7.2,19.4c0.9,7.6,0,14.4-2.6,20.5
			c-2.6,6.1-6.6,10.9-12,14.6c-5.4,3.7-11.7,5.9-19,6.7c-7.3,0.8-13.9,0.1-20.1-2.3s-11.1-6.2-15.1-11.5c-3.9-5.3-6.3-11.8-7.2-19.4
			s0-14.4,2.6-20.5c2.6-6.1,6.7-10.9,12.1-14.6c5.4-3.7,11.8-5.9,19-6.8C211.5,389.3,218.1,390.1,224.2,392.4z M196.1,415.4
			c-2.6,3.4-3.5,8.1-2.9,13.9c0.7,5.9,2.6,10.2,5.9,12.9c3.3,2.7,7.1,3.8,11.3,3.4c4.3-0.5,7.7-2.4,10.2-5.8c2.5-3.4,3.5-8,2.8-13.9
			c-0.7-5.9-2.6-10.2-5.9-12.9c-3.2-2.8-7-3.9-11.3-3.4C202.1,410,198.7,412,196.1,415.4z"/>
		<path class="st2" d="M342.4,379c5.1,2.5,9.4,6.4,12.8,11.7c3.4,5.3,5.5,11.8,6.4,19.5c0.9,7.6,0.2,14.4-1.9,20.4
			c-2.1,6-5.4,10.8-9.8,14.3c-4.4,3.6-9.6,5.7-15.7,6.4c-5.6,0.6-10.6-0.1-14.9-2.2c-4.3-2.1-7.6-5.2-10-9.4l1.5,13.2l-22.4,2.6
			l-11.1-97.1l22.4-2.6l4.2,37.1c1.3-4.6,3.9-8.4,7.6-11.4c3.7-3,8.4-4.8,14-5.4C331.7,375.6,337.3,376.5,342.4,379z M309.6,402.9
			c-2.7,3.5-3.7,8.1-3,13.6c0.6,5.4,2.6,9.6,6,12.5c3.4,2.9,7.4,4.1,12.2,3.5c4.8-0.5,8.5-2.6,11.1-6c2.6-3.5,3.5-8,2.9-13.6
			c-0.6-5.6-2.6-9.8-5.9-12.6c-3.3-2.8-7.3-3.9-12.1-3.4C316,397.3,312.3,399.4,309.6,402.9z"/>
		<path class="st2" d="M442.5,405.1l-50.8,5.8c0.9,5.5,2.7,9.3,5.6,11.4c2.8,2.1,6.2,2.9,10.1,2.5c3.3-0.4,6-1.5,8-3.4
			c2-1.9,3.2-4.2,3.6-6.9l23.7-2.7c-0.4,5.3-1.9,10.1-4.7,14.6c-2.8,4.4-6.5,8.1-11.2,11c-4.7,2.9-10.1,4.7-16.3,5.4
			c-7.2,0.8-13.7,0-19.6-2.3c-5.9-2.4-10.7-6.2-14.5-11.6c-3.8-5.3-6.1-11.8-7-19.4c-0.9-7.7-0.1-14.5,2.4-20.5
			c2.5-6,6.3-10.8,11.6-14.5c5.3-3.7,11.5-5.9,18.6-6.7c7.3-0.8,13.8-0.1,19.7,2.3c5.8,2.3,10.6,6,14.2,11.1c3.6,5,5.8,11,6.6,18
			C442.7,400.8,442.7,402.9,442.5,405.1z M414.3,387.8c-2.9-2.1-6.4-2.9-10.3-2.5c-4.1,0.5-7.4,2.1-9.8,4.8
			c-2.4,2.8-3.6,6.5-3.4,11.3l28.6-3.3C419,393.3,417.3,389.9,414.3,387.8z"/>
		<path class="st2" d="M519,358.1c4.3,2.1,7.7,5.2,10.1,9.3l-1.5-13.2l22.3-2.5l8.3,73.2l-22.3,2.5l-1.5-13.2
			c-1.4,4.6-4,8.4-7.7,11.4c-3.7,3-8.4,4.8-14,5.4c-6,0.7-11.6-0.2-16.7-2.7c-5.1-2.5-9.4-6.4-12.8-11.8c-3.4-5.4-5.5-11.9-6.4-19.5
			c-0.9-7.7-0.3-14.5,1.9-20.5s5.4-10.7,9.8-14.3c4.4-3.6,9.6-5.7,15.7-6.4C509.7,355.3,514.7,356,519,358.1z M502.5,380.8
			c-2.6,3.5-3.5,8-2.9,13.6c0.6,5.6,2.6,9.8,5.9,12.6c3.3,2.8,7.3,3.9,12.1,3.4c4.7-0.5,8.4-2.6,11.1-6.2c2.6-3.6,3.7-8.1,3-13.5
			c-0.6-5.5-2.6-9.7-6-12.5c-3.4-2.8-7.4-4-12.2-3.5C508.8,375.3,505.1,377.4,502.5,380.8z"/>
		<path class="st2" d="M632.7,349.9c5.6,5,8.9,12.4,10,22.2l4.8,42.5l-22.4,2.6l-4.5-39.9c-0.6-4.9-2.3-8.6-5.2-11
			c-2.9-2.5-6.5-3.4-10.8-3c-4.5,0.5-8,2.4-10.3,5.6c-2.3,3.2-3.2,7.5-2.6,12.8l4.4,38.8l-22.4,2.6l-8.3-73.2l22.4-2.6l1.5,13.4
			c1.6-4.6,4.3-8.4,8.2-11.4c3.9-3,8.6-4.8,14.2-5.5C620.1,342.9,627.1,344.9,632.7,349.9z"/>
		<path class="st2" d="M721.3,339.8c5.6,5,8.9,12.4,10,22.2l4.8,42.5l-22.4,2.6l-4.5-39.9c-0.6-4.9-2.3-8.6-5.2-11
			c-2.9-2.5-6.5-3.4-10.8-3c-4.5,0.5-8,2.4-10.3,5.6c-2.3,3.2-3.2,7.5-2.6,12.8l4.4,38.8l-22.4,2.6l-8.3-73.2l22.4-2.6l1.5,13.4
			c1.6-4.6,4.3-8.4,8.2-11.4c3.9-3,8.6-4.8,14.2-5.5C708.8,332.8,715.7,334.8,721.3,339.8z"/>
		<path class="st2" d="M796.8,327.2c6.1,2.4,11.1,6.2,15,11.5c3.9,5.3,6.3,11.8,7.2,19.4s0,14.4-2.6,20.5c-2.6,6.1-6.6,10.9-12,14.6
			c-5.4,3.7-11.7,5.9-19,6.7c-7.3,0.8-13.9,0.1-20.1-2.3s-11.1-6.2-15.1-11.5c-3.9-5.3-6.3-11.8-7.2-19.4s0-14.4,2.6-20.5
			c2.6-6.1,6.7-10.9,12.1-14.6c5.4-3.7,11.8-5.9,19-6.8C784.1,324,790.7,324.8,796.8,327.2z M768.7,350.2c-2.6,3.4-3.5,8.1-2.9,13.9
			c0.7,5.9,2.6,10.2,5.9,12.9c3.3,2.7,7.1,3.8,11.3,3.4c4.3-0.5,7.7-2.4,10.2-5.8c2.5-3.4,3.5-8,2.8-13.9
			c-0.7-5.9-2.6-10.2-5.9-12.9c-3.2-2.8-7-3.9-11.3-3.4C774.7,344.8,771.3,346.7,768.7,350.2z"/>
		<path class="st2" d="M899.3,311.8l8.3,73.2l-22.6,2.6l-1.5-13.2c-1.6,4.5-4.3,8.3-8.2,11.3c-3.9,3-8.6,4.8-14.1,5.5
			c-8.4,1-15.4-1.1-21-6.1c-5.6-5-8.9-12.4-10-22.2l-4.8-42.5l22.3-2.5l4.5,39.7c0.6,5,2.3,8.7,5.2,11.2c2.9,2.5,6.5,3.4,10.9,2.9
			c4.5-0.5,8-2.4,10.3-5.6c2.3-3.2,3.1-7.4,2.5-12.8l-4.4-38.8L899.3,311.8z"/>
		<path class="st2" d="M982,310.1c5.6,5,8.9,12.4,10,22.2l4.8,42.5l-22.4,2.6l-4.5-39.9c-0.6-4.9-2.3-8.6-5.2-11
			c-2.9-2.5-6.5-3.4-10.8-3c-4.5,0.5-8,2.4-10.3,5.6c-2.3,3.2-3.2,7.5-2.6,12.8l4.4,38.8l-22.4,2.6l-8.3-73.2l22.4-2.6l1.5,13.4
			c1.6-4.6,4.3-8.4,8.2-11.4c3.9-3,8.6-4.8,14.2-5.5C969.5,303,976.5,305.1,982,310.1z"/>
		<path class="st2" d="M1061,300.4c7,4.5,11.8,11.2,14.5,20.1l-23.7,2.7c-1.1-3.1-2.8-5.3-5.2-6.9c-2.4-1.5-5.2-2.1-8.6-1.7
			c-3.9,0.4-7,2.4-9.2,5.8c-2.2,3.4-2.9,8.1-2.3,14c0.7,5.9,2.5,10.3,5.4,13.1c2.9,2.8,6.3,4,10.2,3.5c3.3-0.4,6-1.6,8-3.6
			c2-2,3.1-4.6,3.5-7.8l23.7-2.7c-0.6,9.3-3.8,16.9-9.6,22.8c-5.8,5.9-13.4,9.4-22.8,10.5c-7.2,0.8-13.7,0-19.6-2.3
			c-5.9-2.4-10.7-6.2-14.5-11.6c-3.8-5.3-6.1-11.8-7-19.4c-0.9-7.7-0.1-14.5,2.4-20.5c2.5-6,6.3-10.8,11.6-14.5
			c5.3-3.7,11.5-5.9,18.6-6.7C1045.8,294.2,1054,295.9,1061,300.4z"/>
		<path class="st2" d="M1157.4,323.6l-50.8,5.8c0.9,5.5,2.7,9.3,5.5,11.4c2.8,2.1,6.2,2.9,10.1,2.5c3.3-0.4,6-1.5,8-3.4
			c2-1.9,3.2-4.2,3.6-6.9l23.7-2.7c-0.4,5.3-1.9,10.1-4.7,14.6c-2.8,4.4-6.5,8.1-11.2,11c-4.7,2.9-10.1,4.7-16.3,5.4
			c-7.2,0.8-13.7,0-19.6-2.3c-5.9-2.4-10.7-6.2-14.5-11.6c-3.8-5.3-6.1-11.8-7-19.4c-0.9-7.7-0.1-14.5,2.4-20.5
			c2.5-6,6.3-10.8,11.6-14.5c5.3-3.7,11.5-5.9,18.6-6.7c7.3-0.8,13.8-0.1,19.7,2.3c5.8,2.3,10.6,6,14.2,11.1c3.6,5,5.8,11,6.6,18
			C1157.6,319.3,1157.6,321.3,1157.4,323.6z M1129.2,306.3c-2.9-2.1-6.4-2.9-10.3-2.5c-4.1,0.5-7.4,2.1-9.8,4.8
			c-2.4,2.8-3.6,6.5-3.4,11.3l28.6-3.3C1133.8,311.8,1132.1,308.4,1129.2,306.3z"/>
		<path class="st2" d="M1207.7,279.6c4.3,2.1,7.6,5.2,10,9.4l-4.2-37.1l22.4-2.6l11.1,97.1l-22.4,2.6l-1.5-13.2
			c-1.3,4.6-3.9,8.4-7.6,11.4c-3.7,3-8.4,4.8-14,5.4c-6,0.7-11.6-0.2-16.7-2.7c-5.1-2.5-9.4-6.4-12.8-11.8
			c-3.4-5.4-5.5-11.9-6.4-19.5c-0.9-7.7-0.3-14.5,1.9-20.5s5.4-10.7,9.8-14.3c4.4-3.6,9.6-5.7,15.7-6.4
			C1198.4,276.8,1203.4,277.5,1207.7,279.6z M1191.2,302.3c-2.6,3.5-3.5,8-2.9,13.6c0.6,5.6,2.6,9.8,5.9,12.6
			c3.3,2.8,7.3,3.9,12.1,3.4c4.7-0.5,8.4-2.6,11.1-6.2c2.6-3.6,3.7-8.1,3-13.5c-0.6-5.5-2.6-9.7-6-12.5c-3.4-2.8-7.4-4-12.2-3.5
			C1197.5,296.8,1193.8,298.8,1191.2,302.3z"/>
	</g>
</g>
<g id="outlinetext">
	<g>
		<path class="st3" d="M162.4,379.5l2,17.8l-25.2,2.9l8.5,74.9l-22.6,2.6l-8.5-74.9l-24.9,2.8l-2-17.8L162.4,379.5z"/>
		<path class="st3" d="M228.2,395.4c6.1,2.4,11.1,6.2,15,11.5c3.9,5.3,6.3,11.8,7.2,19.4c0.9,7.6,0,14.4-2.6,20.5
			c-2.6,6.1-6.6,10.9-12,14.6c-5.4,3.7-11.7,5.9-19,6.7c-7.3,0.8-13.9,0.1-20.1-2.3s-11.1-6.2-15.1-11.5c-3.9-5.3-6.3-11.8-7.2-19.4
			s0-14.4,2.6-20.5c2.6-6.1,6.7-10.9,12.1-14.6c5.4-3.7,11.8-5.9,19-6.8C215.5,392.3,222.1,393.1,228.2,395.4z M200.1,418.4
			c-2.6,3.4-3.5,8.1-2.9,13.9c0.7,5.9,2.6,10.2,5.9,12.9c3.3,2.7,7.1,3.8,11.3,3.4c4.3-0.5,7.7-2.4,10.2-5.8c2.5-3.4,3.5-8,2.8-13.9
			c-0.7-5.9-2.6-10.2-5.9-12.9c-3.2-2.8-7-3.9-11.3-3.4C206.1,413,202.7,415,200.1,418.4z"/>
		<path class="st3" d="M346.4,382c5.1,2.5,9.4,6.4,12.8,11.7c3.4,5.3,5.5,11.8,6.4,19.5c0.9,7.6,0.2,14.4-1.9,20.4
			c-2.1,6-5.4,10.8-9.8,14.3c-4.4,3.6-9.6,5.7-15.7,6.4c-5.6,0.6-10.6-0.1-14.9-2.2c-4.3-2.1-7.6-5.2-10-9.4l1.5,13.2l-22.4,2.6
			l-11.1-97.1l22.4-2.6l4.2,37.1c1.3-4.6,3.9-8.4,7.6-11.4c3.7-3,8.4-4.8,14-5.4C335.7,378.6,341.3,379.5,346.4,382z M313.6,405.9
			c-2.7,3.5-3.7,8.1-3,13.6c0.6,5.4,2.6,9.6,6,12.5c3.4,2.9,7.4,4.1,12.2,3.5c4.8-0.5,8.5-2.6,11.1-6c2.6-3.5,3.5-8,2.9-13.6
			c-0.6-5.6-2.6-9.8-5.9-12.6c-3.3-2.8-7.3-3.9-12.1-3.4C320,400.3,316.3,402.4,313.6,405.9z"/>
		<path class="st3" d="M446.5,408.1l-50.8,5.8c0.9,5.5,2.7,9.3,5.6,11.4c2.8,2.1,6.2,2.9,10.1,2.5c3.3-0.4,6-1.5,8-3.4
			c2-1.9,3.2-4.2,3.6-6.9l23.7-2.7c-0.4,5.3-1.9,10.1-4.7,14.6c-2.8,4.4-6.5,8.1-11.2,11c-4.7,2.9-10.1,4.7-16.3,5.4
			c-7.2,0.8-13.7,0-19.6-2.3c-5.9-2.4-10.7-6.2-14.5-11.6c-3.8-5.3-6.1-11.8-7-19.4c-0.9-7.7-0.1-14.5,2.4-20.5
			c2.5-6,6.3-10.8,11.6-14.5c5.3-3.7,11.5-5.9,18.6-6.7c7.3-0.8,13.8-0.1,19.7,2.3c5.8,2.3,10.6,6,14.2,11.1c3.6,5,5.8,11,6.6,18
			C446.7,403.8,446.7,405.9,446.5,408.1z M418.3,390.8c-2.9-2.1-6.4-2.9-10.3-2.5c-4.1,0.5-7.4,2.1-9.8,4.8
			c-2.4,2.8-3.6,6.5-3.4,11.3l28.6-3.3C423,396.3,421.3,392.9,418.3,390.8z"/>
		<path class="st3" d="M523,361.1c4.3,2.1,7.7,5.2,10.1,9.3l-1.5-13.2l22.3-2.5l8.3,73.2l-22.3,2.5l-1.5-13.2
			c-1.4,4.6-4,8.4-7.7,11.4c-3.7,3-8.4,4.8-14,5.4c-6,0.7-11.6-0.2-16.7-2.7c-5.1-2.5-9.4-6.4-12.8-11.8c-3.4-5.4-5.5-11.9-6.4-19.5
			c-0.9-7.7-0.3-14.5,1.9-20.5s5.4-10.7,9.8-14.3c4.4-3.6,9.6-5.7,15.7-6.4C513.7,358.3,518.7,359,523,361.1z M506.5,383.8
			c-2.6,3.5-3.5,8-2.9,13.6c0.6,5.6,2.6,9.8,5.9,12.6c3.3,2.8,7.3,3.9,12.1,3.4c4.7-0.5,8.4-2.6,11.1-6.2c2.6-3.6,3.7-8.1,3-13.5
			c-0.6-5.5-2.6-9.7-6-12.5c-3.4-2.8-7.4-4-12.2-3.5C512.8,378.3,509.1,380.4,506.5,383.8z"/>
		<path class="st3" d="M636.7,352.9c5.6,5,8.9,12.4,10,22.2l4.8,42.5l-22.4,2.6l-4.5-39.9c-0.6-4.9-2.3-8.6-5.2-11
			c-2.9-2.5-6.5-3.4-10.8-3c-4.5,0.5-8,2.4-10.3,5.6c-2.3,3.2-3.2,7.5-2.6,12.8l4.4,38.8l-22.4,2.6l-8.3-73.2l22.4-2.6l1.5,13.4
			c1.6-4.6,4.3-8.4,8.2-11.4c3.9-3,8.6-4.8,14.2-5.5C624.1,345.9,631.1,347.9,636.7,352.9z"/>
		<path class="st3" d="M725.3,342.8c5.6,5,8.9,12.4,10,22.2l4.8,42.5l-22.4,2.6l-4.5-39.9c-0.6-4.9-2.3-8.6-5.2-11
			c-2.9-2.5-6.5-3.4-10.8-3c-4.5,0.5-8,2.4-10.3,5.6c-2.3,3.2-3.2,7.5-2.6,12.8l4.4,38.8l-22.4,2.6l-8.3-73.2l22.4-2.6l1.5,13.4
			c1.6-4.6,4.3-8.4,8.2-11.4c3.9-3,8.6-4.8,14.2-5.5C712.8,335.8,719.7,337.8,725.3,342.8z"/>
		<path class="st3" d="M800.8,330.2c6.1,2.4,11.1,6.2,15,11.5c3.9,5.3,6.3,11.8,7.2,19.4s0,14.4-2.6,20.5c-2.6,6.1-6.6,10.9-12,14.6
			c-5.4,3.7-11.7,5.9-19,6.7c-7.3,0.8-13.9,0.1-20.1-2.3s-11.1-6.2-15.1-11.5c-3.9-5.3-6.3-11.8-7.2-19.4s0-14.4,2.6-20.5
			c2.6-6.1,6.7-10.9,12.1-14.6c5.4-3.7,11.8-5.9,19-6.8C788.1,327,794.7,327.8,800.8,330.2z M772.7,353.2c-2.6,3.4-3.5,8.1-2.9,13.9
			c0.7,5.9,2.6,10.2,5.9,12.9c3.3,2.7,7.1,3.8,11.3,3.4c4.3-0.5,7.7-2.4,10.2-5.8c2.5-3.4,3.5-8,2.8-13.9
			c-0.7-5.9-2.6-10.2-5.9-12.9c-3.2-2.8-7-3.9-11.3-3.4C778.7,347.8,775.3,349.7,772.7,353.2z"/>
		<path class="st3" d="M903.3,314.8l8.3,73.2l-22.6,2.6l-1.5-13.2c-1.6,4.5-4.3,8.3-8.2,11.3c-3.9,3-8.6,4.8-14.1,5.5
			c-8.4,1-15.4-1.1-21-6.1c-5.6-5-8.9-12.4-10-22.2l-4.8-42.5l22.3-2.5l4.5,39.7c0.6,5,2.3,8.7,5.2,11.2c2.9,2.5,6.5,3.4,10.9,2.9
			c4.5-0.5,8-2.4,10.3-5.6c2.3-3.2,3.1-7.4,2.5-12.8l-4.4-38.8L903.3,314.8z"/>
		<path class="st3" d="M986,313.1c5.6,5,8.9,12.4,10,22.2l4.8,42.5l-22.4,2.6l-4.5-39.9c-0.6-4.9-2.3-8.6-5.2-11
			c-2.9-2.5-6.5-3.4-10.8-3c-4.5,0.5-8,2.4-10.3,5.6c-2.3,3.2-3.2,7.5-2.6,12.8l4.4,38.8l-22.4,2.6l-8.3-73.2l22.4-2.6l1.5,13.4
			c1.6-4.6,4.3-8.4,8.2-11.4c3.9-3,8.6-4.8,14.2-5.5C973.5,306,980.5,308.1,986,313.1z"/>
		<path class="st3" d="M1065,303.4c7,4.5,11.8,11.2,14.5,20.1l-23.7,2.7c-1.1-3.1-2.8-5.3-5.2-6.9c-2.4-1.5-5.2-2.1-8.6-1.7
			c-3.9,0.4-7,2.4-9.2,5.8c-2.2,3.4-2.9,8.1-2.3,14c0.7,5.9,2.5,10.3,5.4,13.1c2.9,2.8,6.3,4,10.2,3.5c3.3-0.4,6-1.6,8-3.6
			c2-2,3.1-4.6,3.5-7.8l23.7-2.7c-0.6,9.3-3.8,16.9-9.6,22.8c-5.8,5.9-13.4,9.4-22.8,10.5c-7.2,0.8-13.7,0-19.6-2.3
			c-5.9-2.4-10.7-6.2-14.5-11.6c-3.8-5.3-6.1-11.8-7-19.4c-0.9-7.7-0.1-14.5,2.4-20.5c2.5-6,6.3-10.8,11.6-14.5
			c5.3-3.7,11.5-5.9,18.6-6.7C1049.8,297.2,1058,298.9,1065,303.4z"/>
		<path class="st3" d="M1161.4,326.6l-50.8,5.8c0.9,5.5,2.7,9.3,5.5,11.4c2.8,2.1,6.2,2.9,10.1,2.5c3.3-0.4,6-1.5,8-3.4
			c2-1.9,3.2-4.2,3.6-6.9l23.7-2.7c-0.4,5.3-1.9,10.1-4.7,14.6c-2.8,4.4-6.5,8.1-11.2,11c-4.7,2.9-10.1,4.7-16.3,5.4
			c-7.2,0.8-13.7,0-19.6-2.3c-5.9-2.4-10.7-6.2-14.5-11.6c-3.8-5.3-6.1-11.8-7-19.4c-0.9-7.7-0.1-14.5,2.4-20.5
			c2.5-6,6.3-10.8,11.6-14.5c5.3-3.7,11.5-5.9,18.6-6.7c7.3-0.8,13.8-0.1,19.7,2.3c5.8,2.3,10.6,6,14.2,11.1c3.6,5,5.8,11,6.6,18
			C1161.6,322.3,1161.6,324.3,1161.4,326.6z M1133.2,309.3c-2.9-2.1-6.4-2.9-10.3-2.5c-4.1,0.5-7.4,2.1-9.8,4.8
			c-2.4,2.8-3.6,6.5-3.4,11.3l28.6-3.3C1137.8,314.8,1136.1,311.4,1133.2,309.3z"/>
		<path class="st3" d="M1211.7,282.6c4.3,2.1,7.6,5.2,10,9.4l-4.2-37.1l22.4-2.6l11.1,97.1l-22.4,2.6l-1.5-13.2
			c-1.3,4.6-3.9,8.4-7.6,11.4c-3.7,3-8.4,4.8-14,5.4c-6,0.7-11.6-0.2-16.7-2.7c-5.1-2.5-9.4-6.4-12.8-11.8
			c-3.4-5.4-5.5-11.9-6.4-19.5c-0.9-7.7-0.3-14.5,1.9-20.5s5.4-10.7,9.8-14.3c4.4-3.6,9.6-5.7,15.7-6.4
			C1202.4,279.8,1207.4,280.5,1211.7,282.6z M1195.2,305.3c-2.6,3.5-3.5,8-2.9,13.6c0.6,5.6,2.6,9.8,5.9,12.6
			c3.3,2.8,7.3,3.9,12.1,3.4c4.7-0.5,8.4-2.6,11.1-6.2c2.6-3.6,3.7-8.1,3-13.5c-0.6-5.5-2.6-9.7-6-12.5c-3.4-2.8-7.4-4-12.2-3.5
			C1201.5,299.8,1197.8,301.8,1195.2,305.3z"/>
	</g>
</g>
</svg>
