<?xml version="1.0" encoding="utf-8"?>
<!-- Generator: Adobe Illustrator 23.0.2, SVG Export Plug-In . SVG Version: 6.00 Build 0)  -->
<svg version="1.1" id="Layer_1" xmlns="http://www.w3.org/2000/svg" xmlns:xlink="http://www.w3.org/1999/xlink" x="0px" y="0px"
	 viewBox="0 0 522 367" style="enable-background:new 0 0 522 367;" xml:space="preserve">
<style type="text/css">
	.st0{fill:#FF00FF;}
	.st1{fill:#FFFFFF;}
</style>
<title>zoom</title>
<path class="st0" d="M500.6,188.6c-153.9,16.6-163.4,31.6-71.7,118.3c-122.3-65-143.5-58.3-166.8,47.2
	c-23.4-105.5-44.5-112.2-166.8-47.2c91.7-86.7,82.2-101.7-71.7-118.3C177.4,172,186.8,157,95.2,70.3c122.3,65,143.5,58.3,166.8-47.2
	c23.4,105.5,44.5,112.2,166.8,47.2C337.2,157.1,346.6,172.1,500.6,188.6z"/>
<path class="st1" d="M187.6,199h16.5v10.3h-30.7v-9.7l16.2-21.2h-16.2v-10.2h30.7v9.7L187.6,199z"/>
<path class="st1" d="M240.5,170.2c3.2,1.8,5.8,4.4,7.6,7.5c3.8,6.7,3.8,14.9,0,21.7c-1.8,3.2-4.5,5.8-7.6,7.5
	c-6.6,3.6-14.6,3.6-21.2,0c-3.2-1.8-5.8-4.4-7.7-7.5c-3.8-6.7-3.8-15,0-21.7c1.8-3.2,4.5-5.8,7.7-7.5
	C225.9,166.6,233.9,166.6,240.5,170.2z M223.9,181.9c-1.5,1.9-2.2,4.3-2.1,6.7c-0.1,2.4,0.6,4.8,2.1,6.6c3.3,3.3,8.6,3.3,11.9,0l0,0
	c1.5-1.9,2.2-4.2,2.1-6.6c0.1-2.4-0.6-4.8-2.1-6.7C232.5,178.6,227.2,178.6,223.9,181.9z"/>
<path class="st1" d="M286.2,170.2c3.2,1.8,5.8,4.4,7.6,7.5c3.7,6.7,3.7,14.9,0,21.7c-1.8,3.2-4.5,5.8-7.7,7.5
	c-6.6,3.6-14.6,3.6-21.2,0c-3.2-1.8-5.8-4.4-7.7-7.5c-3.8-6.7-3.8-15,0-21.7c1.8-3.2,4.5-5.8,7.7-7.5
	C271.6,166.7,279.6,166.7,286.2,170.2L286.2,170.2z M269.6,181.9c-1.5,1.9-2.2,4.3-2.1,6.7c-0.1,2.4,0.6,4.7,2.1,6.6
	c1.5,1.7,3.7,2.6,6,2.5c2.2,0.1,4.4-0.8,5.9-2.5c1.5-1.9,2.2-4.2,2.1-6.6c0.1-2.4-0.6-4.8-2.1-6.7c-1.5-1.7-3.7-2.6-5.9-2.5
	C273.3,179.3,271.1,180.2,269.6,181.9z"/>
<path class="st1" d="M350.6,168.2v41.1h-12.8v-20.5l-6.3,20.5h-11l-6.3-20.5v20.5h-12.9v-41.1h15.8l9,24.6l8.8-24.6L350.6,168.2
	L350.6,168.2z"/>
</svg>
