<svg id="Layer_1" data-name="Layer 1" xmlns="http://www.w3.org/2000/svg" viewBox="0 0 522 367"><defs><style>.cls-1{fill:#f0f;stroke:#000;stroke-miterlimit:10;stroke-width:2px;}</style></defs><title>zoom</title><path class="cls-1" d="M500.56,188.62c-153.93,16.57-163.4,31.57-71.73,118.27-122.3-65-143.46-58.27-166.83,47.19-23.37-105.46-44.53-112.17-166.84-47.19,91.67-86.7,82.2-101.7-71.72-118.27,153.92-16.57,163.39-31.57,71.72-118.27,122.31,65,143.47,58.27,166.84-47.19,23.37,105.46,44.53,112.18,166.83,47.19C337.16,157.05,346.63,172.05,500.56,188.62Z"/><path d="M187.61,199h16.47V209.3H173.34v-9.69l16.24-21.17H173.34V168.23h30.74v9.69Z"/><path d="M240.51,170.23a20,20,0,0,1,7.62,7.52,22.26,22.26,0,0,1,0,21.69,20.14,20.14,0,0,1-7.65,7.54,22.07,22.07,0,0,1-21.23,0,20.36,20.36,0,0,1-7.68-7.54,22.06,22.06,0,0,1,0-21.69,20.17,20.17,0,0,1,7.68-7.52,22.35,22.35,0,0,1,21.26,0Zm-16.59,11.66a10.06,10.06,0,0,0-2.09,6.7,9.93,9.93,0,0,0,2.09,6.64,8.39,8.39,0,0,0,11.89,0,9.93,9.93,0,0,0,2.09-6.64,10.06,10.06,0,0,0-2.09-6.7,8.41,8.41,0,0,0-11.89,0Z"/><path d="M286.21,170.23a20.1,20.1,0,0,1,7.63,7.52,22.33,22.33,0,0,1,0,21.69,20.24,20.24,0,0,1-7.66,7.54A22.07,22.07,0,0,1,265,207a20.43,20.43,0,0,1-7.68-7.54,22.13,22.13,0,0,1,0-21.69,20.24,20.24,0,0,1,7.68-7.52,22.35,22.35,0,0,1,21.26,0Zm-16.59,11.66a10.06,10.06,0,0,0-2.08,6.7,9.93,9.93,0,0,0,2.08,6.64,7.4,7.4,0,0,0,6,2.47,7.3,7.3,0,0,0,5.91-2.47,9.88,9.88,0,0,0,2.09-6.64,10,10,0,0,0-2.09-6.7,7.32,7.32,0,0,0-5.91-2.46A7.43,7.43,0,0,0,269.62,181.89Z"/><path d="M350.65,168.23V209.3H337.83V188.82l-6.32,20.48h-11l-6.32-20.48V209.3H301.29V168.23h15.78l9.05,24.65,8.81-24.65Z"/></svg>