<svg id="Layer_1" data-name="Layer 1" xmlns="http://www.w3.org/2000/svg" xmlns:xlink="http://www.w3.org/1999/xlink" viewBox="0 0 1366 704"><defs><style>.cls-1{fill:url(#linear-gradient);}</style><linearGradient id="linear-gradient" x1="59.05" y1="575.65" x2="1880.45" y2="575.65" gradientTransform="matrix(1.13, -0.1, 0.12, 1.32, -357.1, -458.19)" gradientUnits="userSpaceOnUse"><stop offset="0" stop-color="#0f6"/><stop offset="1" stop-color="#ff90ff"/></linearGradient></defs><title>case-header</title><path class="cls-1" d="M1365.88.14h-717a49.26,49.26,0,0,1-11.32,0H-.1V71c5,.48,10.63.87,17.1,1,40,1,24-52,84-30,32.7,12-11.86,55.68,21,101,29.84,41.16,75,11,119,31,13.46,6.12,79.54,23.06,81.26,38.92,3.72,34.43,16,57.23,46.23,74.69C381.28,295,532.05,293,547.35,451.55c3.33,34.53,32.73,45.41,62,44.38,34.7-1.21,60.29-29.63,56.76-62.33a57.1,57.1,0,0,0-1-6.17,47.37,47.37,0,0,1,11.65-43.29c27.59-29.09,42.53-68.95,37.91-111.68q-.54-5.07-1.44-10c-5.29-29.42,4.55-59,25.39-80.56a219.17,219.17,0,0,0,18.94-22.39C776.66,133.57,895,143,887.61,217.4c-1.93,19.39-16.84,35.64-14.74,56.5,4.88,48.5,49,84.91,99.92,82.35,52.2-2.63,90.47-45.65,85.13-95.09-.24-2.29-.58-4.55-1-6.78-1.59-8.4,4.28-16.25,13.07-17.57l.42-.06a55.57,55.57,0,0,1,41.2,10.32,48.57,48.57,0,0,0,33.87,9.29c24.76-2.5,42.59-23.79,39.8-47.49a43.35,43.35,0,0,0-.92-5.11c-3.36-13.84-1.29-28.28,6.71-40,.36-.51.71-1,1-1.54a20,20,0,0,1,21.1-8c15,3.49,27.49,13.76,33.18,27.49a131.61,131.61,0,0,0,20.36,33.64,75.06,75.06,0,0,1,17.12,53.31C1283,281,1287.61,297.77,1298,302c16.34,6.65,32.54,11.68,48.69,3.46a107.93,107.93,0,0,0,19.19-12.66Z"/></svg>