<?xml version="1.0" encoding="utf-8"?>
<!-- Generator: Adobe Illustrator 23.0.2, SVG Export Plug-In . SVG Version: 6.00 Build 0)  -->
<svg version="1.1" id="Layer_1" xmlns="http://www.w3.org/2000/svg" xmlns:xlink="http://www.w3.org/1999/xlink" x="0px" y="0px"
	 viewBox="0 0 1341 729" style="enable-background:new 0 0 1341 729;" xml:space="preserve">
<style type="text/css">
	.st0{fill:none;}
	.st1{fill:#231F20;}
	.st2{fill:#FFFFFF;}
	.st3{fill:#52FF97;}
	.st4{fill:url(#SVGID_1_);}
</style>
<pattern  y="729" width="107" height="104" patternUnits="userSpaceOnUse" id="SVGID_1" viewBox="12.3 -108.3 107 104" style="overflow:visible;">
	<g>
		<rect x="12.3" y="-108.3" class="st0" width="107" height="104"/>
		<g>
			<g>
				<g>
					<path class="st1" d="M84,0H56.1c-1.4,0-2.6-1.1-2.6-2.4v-14.2c0-1.4,1.2-2.4,2.6-2.4h12.2c-0.1-0.2,1.6-0.9-1.7-1.7
						c-9.3-2.6,0.9-1.8,1.9-1.8h1.1h0.3H70h1.3c1.1,0,11.3-0.8,1.9,1.8c-3.3,0.8-1.6,1.5-1.7,1.7H84c1.4,0,2.6,1.1,2.6,2.4v14.2
						C86.6-1.1,85.4,0,84,0z"/>
					<path class="st2" d="M82.5-15.6H57.6c-1.2,0-2.2,1-2.2,2.2v9.7c0,1.2,1,2.2,2.2,2.2h24.8c1.2,0,2.2-1,2.2-2.2v-9.7
						C84.7-14.6,83.7-15.6,82.5-15.6z"/>
				</g>
			</g>
		</g>
		<g>
			<g>
				<g>
					<g>
						<path class="st1" d="M137.5-52h-27.9c-1.4,0-2.6-1.1-2.6-2.4v-14.2c0-1.3,1.2-2.4,2.6-2.4h12.2c-0.1-0.2,1.6-0.9-1.7-1.7
							c-9.3-2.6,0.9-1.8,1.9-1.8h1.1h0.3h0.1h1.3c1,0,11.3-0.8,1.9,1.8c-3.3,0.8-1.6,1.6-1.7,1.7h12.3c1.4,0,2.6,1.1,2.6,2.4v14.2
							C140.1-53.1,138.9-52,137.5-52z"/>
						<path class="st2" d="M136-67.6h-24.9c-1.2,0-2.2,1-2.2,2.2v9.7c0,1.2,1,2.2,2.2,2.2H136c1.2,0,2.2-1,2.2-2.2v-9.7
							C138.1-66.6,137.2-67.6,136-67.6z"/>
					</g>
				</g>
				<path class="st2" d="M118.1-13.8c-1.3,0-2.6,0-3.9,0c0,1.6,0,3.2,0,4.8c1.2,0,2.5,0,3.8,0c0,1.3,0,2.5,0,3.8c1.7,0,3.4,0,5,0
					c0-1.2,0-2.4,0-3.7c1.3,0,2.6,0,3.9,0c0-1.7,0-3.2,0-4.9c-1.3,0-2.5,0-3.9,0c0-1.3,0-2.5,0-3.8c-1.7,0-3.4,0-5.1,0
					C118.1-16.3,118.1-15.1,118.1-13.8z"/>
			</g>
		</g>
		<g>
			<g>
				<g>
					<path class="st1" d="M84-104H56.1c-1.4,0-2.6-1.1-2.6-2.4v-14.2c0-1.4,1.2-2.4,2.6-2.4h12.2c-0.1-0.2,1.6-0.9-1.7-1.7
						c-9.3-2.6,0.9-1.8,1.9-1.8h1.1h0.3H70h1.3c1.1,0,11.3-0.8,1.9,1.8c-3.3,0.8-1.6,1.5-1.7,1.7H84c1.4,0,2.6,1.1,2.6,2.4v14.2
						C86.6-105.1,85.4-104,84-104z"/>
					<path class="st2" d="M82.5-119.6H57.6c-1.2,0-2.2,1-2.2,2.2v9.7c0,1.2,1,2.2,2.2,2.2h24.8c1.2,0,2.2-1,2.2-2.2v-9.7
						C84.7-118.6,83.7-119.6,82.5-119.6z"/>
				</g>
				<g>
					<path class="st1" d="M137.5-52h-27.9c-1.4,0-2.6-1.1-2.6-2.4v-14.2c0-1.3,1.2-2.4,2.6-2.4h12.2c-0.1-0.2,1.6-0.9-1.7-1.7
						c-9.3-2.6,0.9-1.8,1.9-1.8h1.1h0.3h0.1h1.3c1.1,0,11.2-0.8,1.9,1.8c-3.3,0.8-1.6,1.6-1.7,1.7h12.3c1.4,0,2.6,1.1,2.6,2.4v14.2
						C140.1-53.1,138.9-52,137.5-52z"/>
					<path class="st2" d="M136-67.6h-24.8c-1.2,0-2.2,1-2.2,2.2v9.7c0,1.2,1,2.2,2.2,2.2H136c1.2,0,2.2-1,2.2-2.2v-9.7
						C138.1-66.6,137.2-67.6,136-67.6z"/>
				</g>
				<g>
					<g>
						<path class="st1" d="M30.5-52H2.6C1.2-52,0-53.1,0-54.4v-14.2C0-69.9,1.2-71,2.6-71h12.2c-0.1-0.2,1.6-0.9-1.7-1.7
							c-9.3-2.6,0.9-1.8,1.9-1.8h1.1h0.3h0.1h1.3c1,0,11.3-0.8,1.9,1.8c-3.3,0.8-1.6,1.6-1.7,1.7h12.3c1.4,0,2.6,1.1,2.6,2.4v14.2
							C33.1-53.1,31.9-52,30.5-52z"/>
						<path class="st2" d="M29-67.6H4.1c-1.2,0-2.2,1-2.2,2.2v9.7c0,1.2,1,2.2,2.2,2.2H29c1.2,0,2.2-1,2.2-2.2v-9.7
							C31.1-66.6,30.2-67.6,29-67.6z"/>
					</g>
					<path class="st1" d="M64.6-65.8c-1.3,0-2.6,0-3.9,0c0,1.6,0,3.2,0,4.8c1.3,0,2.5,0,3.9,0c0,1.3,0,2.5,0,3.8c1.7,0,3.3,0,5,0
						c0-1.2,0-2.4,0-3.7c1.3,0,2.6,0,3.9,0c0-1.7,0-3.2,0-4.9c-1.3,0-2.5,0-3.9,0c0-1.3,0-2.5,0-3.8c-1.7,0-3.3,0-5.1,0
						C64.6-68.3,64.6-67.1,64.6-65.8z"/>
				</g>
				<g>
					<g>
						<path class="st1" d="M84,0H56.1c-1.4,0-2.6-1.1-2.6-2.4v-14.2c0-1.3,1.2-2.4,2.6-2.4h12.2c-0.1-0.2,1.6-0.9-1.7-1.7
							c-9.3-2.6,0.9-1.8,1.9-1.8h1.1h0.3H70h1.3c1.1,0,11.3-0.8,1.9,1.8c-3.3,0.8-1.6,1.6-1.7,1.7H84c1.4,0,2.6,1.1,2.6,2.4v14.2
							C86.6-1.1,85.4,0,84,0z"/>
						<path class="st2" d="M82.5-15.6H57.6c-1.2,0-2.2,1-2.2,2.2v9.7c0,1.2,1,2.2,2.2,2.2h24.8c1.2,0,2.2-1,2.2-2.2v-9.7
							C84.7-14.6,83.7-15.6,82.5-15.6z"/>
					</g>
					<path class="st1" d="M118.1-13.8c-1.3,0-2.6,0-3.9,0c0,1.6,0,3.2,0,4.8c1.3,0,2.5,0,3.9,0c0,1.3,0,2.5,0,3.8c1.7,0,3.3,0,5,0
						c0-1.2,0-2.4,0-3.7c1.3,0,2.6,0,3.9,0c0-1.7,0-3.2,0-4.9c-1.3,0-2.5,0-3.9,0c0-1.3,0-2.5,0-3.8c-1.7,0-3.3,0-5.1,0
						C118.1-16.3,118.1-15.1,118.1-13.8z"/>
				</g>
				<path class="st2" d="M11.1-13.8c-1.3,0-2.6,0-3.9,0c0,1.6,0,3.2,0,4.8C8.4-9,9.7-9,11-9c0,1.3,0,2.5,0,3.8c1.7,0,3.4,0,5,0
					c0-1.2,0-2.4,0-3.7c1.3,0,2.6,0,3.9,0c0-1.7,0-3.2,0-4.9c-1.3,0-2.5,0-3.9,0c0-1.3,0-2.5,0-3.8c-1.7,0-3.4,0-5.1,0
					C11.1-16.3,11.1-15.1,11.1-13.8z"/>
			</g>
		</g>
		<g>
			<g>
				<g>
					<path class="st1" d="M30.5-52H2.6C1.2-52,0-53.1,0-54.4v-14.2C0-69.9,1.2-71,2.6-71h12.2c-0.1-0.2,1.6-0.9-1.7-1.7
						c-9.3-2.6,0.9-1.8,1.9-1.8h1.1h0.3h0.1h1.3c1.1,0,11.2-0.8,1.9,1.8c-3.3,0.8-1.6,1.6-1.7,1.7h12.3c1.4,0,2.6,1.1,2.6,2.4v14.2
						C33.1-53.1,31.9-52,30.5-52z"/>
					<path class="st2" d="M29-67.6H4.2c-1.2,0-2.2,1-2.2,2.2v9.7c0,1.2,1,2.2,2.2,2.2H29c1.2,0,2.2-1,2.2-2.2v-9.7
						C31.1-66.6,30.2-67.6,29-67.6z"/>
				</g>
				<g>
					<path class="st1" d="M11.1-13.8c-1.3,0-2.6,0-3.9,0c0,1.6,0,3.2,0,4.8c1.3,0,2.5,0,3.9,0c0,1.3,0,2.5,0,3.8c1.7,0,3.3,0,5,0
						c0-1.2,0-2.4,0-3.7c1.3,0,2.6,0,3.9,0c0-1.7,0-3.2,0-4.9c-1.3,0-2.5,0-3.9,0c0-1.3,0-2.5,0-3.8c-1.7,0-3.3,0-5.1,0
						C11.1-16.3,11.1-15.1,11.1-13.8z"/>
				</g>
			</g>
		</g>
		<g>
			<g>
				<g>
					<g>
						<path class="st1" d="M84-104H56.1c-1.4,0-2.6-1.1-2.6-2.4v-14.2c0-1.3,1.2-2.4,2.6-2.4h12.2c-0.1-0.2,1.6-0.9-1.7-1.7
							c-9.3-2.6,0.9-1.8,1.9-1.8h1.1h0.3H70h1.3c1.1,0,11.3-0.8,1.9,1.8c-3.3,0.8-1.6,1.6-1.7,1.7H84c1.4,0,2.6,1.1,2.6,2.4v14.2
							C86.6-105.1,85.4-104,84-104z"/>
						<path class="st2" d="M82.5-119.6H57.6c-1.2,0-2.2,1-2.2,2.2v9.7c0,1.2,1,2.2,2.2,2.2h24.8c1.2,0,2.2-1,2.2-2.2v-9.7
							C84.7-118.6,83.7-119.6,82.5-119.6z"/>
					</g>
				</g>
			</g>
		</g>
	</g>
</pattern>
<rect x="-10" class="st3" width="1351" height="740"/>
<g>
	<path d="M427.4-231.1h-69.3c-3.6,0-6.5,2.7-6.5,6.1v35.3c0,3.4,2.9,6.1,6.5,6.1h30.4c-0.2,0.5,4,2.2-4.2,4.3
		c-23.2,6.4,2.1,4.4,4.8,4.4h2.6h0.7h0.4h3.4c2.6,0,28,2,4.8-4.4c-8.1-2.1-3.9-3.9-4.2-4.3h30.7c3.6,0,6.5-2.7,6.5-6.1V-225
		C433.9-228.4,431-231.1,427.4-231.1z"/>
	<path class="st2" d="M426.9-192.4h-68.3c-1.2,0-2.2-1-2.2-2.2v-30.7c0-1.2,1-2.2,2.2-2.2h68.3c1.2,0,2.2,1,2.2,2.2v30.7
		C429.1-193.3,428.1-192.4,426.9-192.4z"/>
</g>
<path d="M481.4-201.6c-2.8,0-5.5,0-8.2,0c0-3.4,0-6.8,0-10.2c2.6,0,5.3,0,8.1,0c0-2.7,0-5.3,0-7.9c3.6,0,7,0,10.6,0
	c0,2.6,0,5.1,0,7.8c2.8,0,5.5,0,8.2,0c0,3.5,0,6.8,0,10.2c-2.7,0-5.3,0-8.1,0c0,2.7,0,5.3,0,7.9c-3.6,0-7,0-10.6,0
	C481.4-196.3,481.4-198.9,481.4-201.6z"/>
<pattern  id="SVGID_1_" xlink:href="#SVGID_1" patternTransform="matrix(-1 -8.979319e-11 8.979319e-11 -1 -15005.4004 -17273.5996)">
</pattern>
<rect class="st4" width="1341" height="729"/>
</svg>
