<?xml version="1.0" encoding="utf-8"?>
<!-- Generator: Adobe Illustrator 23.0.2, SVG Export Plug-In . SVG Version: 6.00 Build 0)  -->
<svg version="1.1" id="Layer_1" xmlns="http://www.w3.org/2000/svg" xmlns:xlink="http://www.w3.org/1999/xlink" x="0px" y="0px"
	 viewBox="0 0 1341 729" style="enable-background:new 0 0 1341 729;" xml:space="preserve">
<style type="text/css">
	.st0{fill:none;}
	.st1{clip-path:url(#SVGID_2_);}
	.st2{fill:#FFFFFF;stroke:#000000;stroke-width:0.25;stroke-miterlimit:10;}
	.st3{fill:#333333;}
	.st4{fill:#FFFFFF;}
	.st5{fill:#52FF97;}
	.st6{fill:url(#SVGID_1);}
</style>
<pattern  y="729" width="107" height="104" patternUnits="userSpaceOnUse" id="SVGID_1" viewBox="12.4 -122.4 107 104" style="overflow:visible;">
	<g>
		<rect x="12.4" y="-122.4" class="st0" width="107" height="104"/>
		<g>
			<defs>
				<rect id="SVGID_1_" x="12.4" y="-122.4" width="107" height="104"/>
			</defs>
			<clipPath id="SVGID_2_">
				<use xlink:href="#SVGID_1_"  style="overflow:visible;"/>
			</clipPath>
			<g class="st1">
				<g>
					<path class="st2" d="M84.1-22.7H56.2c-1.4,0-2.6,1.1-2.6,2.4v14.2c0,1.4,1.2,2.4,2.6,2.4h12.2C68.3-3.5,70-2.8,66.7-2
						c-9.3,2.6,0.9,1.8,1.9,1.8h1.1H70h0.1h1.3c1.1,0,11.3,0.8,1.9-1.8c-3.3-0.8-1.6-1.5-1.7-1.7h12.5c1.4,0,2.6-1.1,2.6-2.4v-14.2
						C86.7-21.6,85.5-22.7,84.1-22.7z"/>
					<path class="st3" d="M82.6-7.1H57.7c-1.2,0-2.2-1-2.2-2.2V-19c0-1.2,1-2.2,2.2-2.2h24.8c1.2,0,2.2,1,2.2,2.2v9.7
						C84.8-8.1,83.8-7.1,82.6-7.1z"/>
				</g>
				<g>
					<path class="st2" d="M137.6-74.7h-27.9c-1.4,0-2.6,1.1-2.6,2.4v14.2c0,1.3,1.2,2.4,2.6,2.4h12.2c-0.1,0.2,1.6,0.9-1.7,1.7
						c-9.3,2.6,0.9,1.8,1.9,1.8h1.1h0.3h0.1h1.3c1.1,0,11.2,0.8,1.9-1.8c-3.3-0.8-1.6-1.6-1.7-1.7h12.3c1.4,0,2.6-1.1,2.6-2.4v-14.2
						C140.2-73.6,139-74.7,137.6-74.7z"/>
					<path class="st3" d="M136.1-59.1h-24.8c-1.2,0-2.2-1-2.2-2.2V-71c0-1.2,1-2.2,2.2-2.2h24.8c1.2,0,2.2,1,2.2,2.2v9.7
						C138.2-60.1,137.3-59.1,136.1-59.1z"/>
				</g>
				<g>
					<g>
						<path class="st2" d="M30.6-74.7H2.7c-1.4,0-2.6,1.1-2.6,2.4v14.2c0,1.3,1.2,2.4,2.6,2.4h12.2c-0.1,0.2,1.6,0.9-1.7,1.7
							c-9.3,2.6,0.9,1.8,1.9,1.8h1.1h0.3h0.1h1.3c1,0,11.3,0.8,1.9-1.8c-3.3-0.8-1.6-1.6-1.7-1.7h12.3c1.4,0,2.6-1.1,2.6-2.4v-14.2
							C33.2-73.6,32-74.7,30.6-74.7z"/>
						<path class="st3" d="M29.1-59.1H4.2c-1.2,0-2.2-1-2.2-2.2V-71c0-1.2,1-2.2,2.2-2.2h24.9c1.2,0,2.2,1,2.2,2.2v9.7
							C31.2-60.1,30.3-59.1,29.1-59.1z"/>
					</g>
					<path class="st4" d="M64.7-60.9c-1.3,0-2.6,0-3.9,0c0-1.6,0-3.2,0-4.8c1.3,0,2.5,0,3.9,0c0-1.3,0-2.5,0-3.8c1.7,0,3.3,0,5,0
						c0,1.2,0,2.4,0,3.7c1.3,0,2.6,0,3.9,0c0,1.7,0,3.2,0,4.9c-1.3,0-2.5,0-3.9,0c0,1.3,0,2.5,0,3.8c-1.7,0-3.3,0-5.1,0
						C64.7-58.4,64.7-59.6,64.7-60.9z"/>
				</g>
				<g>
					<g>
						<path class="st2" d="M84.1-126.7H56.2c-1.4,0-2.6,1.1-2.6,2.4v14.2c0,1.3,1.2,2.4,2.6,2.4h12.2c-0.1,0.2,1.6,0.9-1.7,1.7
							c-9.3,2.6,0.9,1.8,1.9,1.8h1.1H70h0.1h1.3c1.1,0,11.3,0.8,1.9-1.8c-3.3-0.8-1.6-1.6-1.7-1.7h12.5c1.4,0,2.6-1.1,2.6-2.4v-14.2
							C86.7-125.6,85.5-126.7,84.1-126.7z"/>
						<path class="st3" d="M82.6-111.1H57.7c-1.2,0-2.2-1-2.2-2.2v-9.7c0-1.2,1-2.2,2.2-2.2h24.8c1.2,0,2.2,1,2.2,2.2v9.7
							C84.8-112.1,83.8-111.1,82.6-111.1z"/>
					</g>
					<path class="st4" d="M118.2-112.9c-1.3,0-2.6,0-3.9,0c0-1.6,0-3.2,0-4.8c1.3,0,2.5,0,3.9,0c0-1.3,0-2.5,0-3.8c1.7,0,3.3,0,5,0
						c0,1.2,0,2.4,0,3.7c1.3,0,2.6,0,3.9,0c0,1.7,0,3.2,0,4.9c-1.3,0-2.5,0-3.9,0c0,1.3,0,2.5,0,3.8c-1.7,0-3.3,0-5.1,0
						C118.2-110.4,118.2-111.6,118.2-112.9z"/>
				</g>
				<path class="st4" d="M11.2-112.9c-1.3,0-2.6,0-3.9,0c0-1.6,0-3.2,0-4.8c1.2,0,2.5,0,3.8,0c0-1.3,0-2.5,0-3.8c1.7,0,3.4,0,5,0
					c0,1.2,0,2.4,0,3.7c1.3,0,2.6,0,3.9,0c0,1.7,0,3.2,0,4.9c-1.3,0-2.5,0-3.9,0c0,1.3,0,2.5,0,3.8c-1.7,0-3.4,0-5.1,0
					C11.2-110.4,11.2-111.6,11.2-112.9z"/>
			</g>
		</g>
	</g>
</pattern>
<rect x="-10" class="st5" width="1351" height="740"/>
<g>
	<path d="M427.4-231.1h-69.3c-3.6,0-6.5,2.7-6.5,6.1v35.3c0,3.4,2.9,6.1,6.5,6.1h30.4c-0.2,0.5,4,2.2-4.2,4.3
		c-23.2,6.4,2.1,4.4,4.8,4.4h2.6h0.7h0.4h3.4c2.6,0,28,2,4.8-4.4c-8.1-2.1-3.9-3.9-4.2-4.3h30.7c3.6,0,6.5-2.7,6.5-6.1V-225
		C433.9-228.4,431-231.1,427.4-231.1z"/>
	<path class="st4" d="M426.9-192.4h-68.3c-1.2,0-2.2-1-2.2-2.2v-30.7c0-1.2,1-2.2,2.2-2.2h68.3c1.2,0,2.2,1,2.2,2.2v30.7
		C429.1-193.3,428.1-192.4,426.9-192.4z"/>
</g>
<path d="M481.4-201.6c-2.8,0-5.5,0-8.2,0c0-3.4,0-6.8,0-10.2c2.6,0,5.3,0,8.1,0c0-2.7,0-5.3,0-7.9c3.6,0,7,0,10.6,0
	c0,2.6,0,5.1,0,7.8c2.8,0,5.5,0,8.2,0c0,3.5,0,6.8,0,10.2c-2.7,0-5.3,0-8.1,0c0,2.7,0,5.3,0,7.9c-3.6,0-7,0-10.6,0
	C481.4-196.3,481.4-198.9,481.4-201.6z"/>
<rect class="st6" width="1341" height="729"/>
</svg>
