<?xml version="1.0" encoding="utf-8"?>
<!-- Generator: Adobe Illustrator 23.0.2, SVG Export Plug-In . SVG Version: 6.00 Build 0)  -->
<svg version="1.1" id="Layer_1" xmlns="http://www.w3.org/2000/svg" xmlns:xlink="http://www.w3.org/1999/xlink" x="0px" y="0px"
	 viewBox="0 0 363.3 1152.1" style="enable-background:new 0 0 363.3 1152.1;" xml:space="preserve">
<style type="text/css">
	.st0{fill:none;}
	.st1{fill:#FFFFFF;}
	.st2{fill:url(#New_Pattern);}
	.st3{fill:url(#SVGID_1_);}
	.st4{fill:url(#SVGID_2_);}
	.st5{fill:url(#SVGID_3_);}
	.st6{fill:url(#SVGID_4_);}
</style>
<pattern  y="1152.1" width="90.7" height="73.7" patternUnits="userSpaceOnUse" id="New_Pattern" viewBox="0 -90.7 90.7 73.7" style="overflow:visible;">
	<g>
		<rect y="-90.7" class="st0" width="90.7" height="73.7"/>
		<g>
			<g>
				<path d="M87.8-17v11.9c0,1.1-1,2.1-2.2,2.1H75.2c0.1,0.1-1.3,0.7,1.4,1.5c7.8,2.2-0.7,1.5-1.6,1.5h-1.1h-0.1h-0.2h-0.9
					c-0.9,0-9.5,0.7-1.6-1.5c2.8-0.7,1.4-1.3,1.4-1.5H62.1c-1.2,0-2.2-0.9-2.2-2.1V-17c0-1.1,1-2.1,2.2-2.1h23.4
					C86.7-19.1,87.7-18.2,87.8-17z"/>
				<path class="st1" d="M86.1-6.8v-10.4c0-0.4-0.3-0.7-0.7-0.7H62.3c-0.4,0-0.7,0.3-0.7,0.7v10.4c0,0.4,0.3,0.7,0.7,0.7h23.1
					C85.8-6,86.1-6.3,86.1-6.8z"/>
			</g>
		</g>
		<g>
			<g>
				<path d="M42.4-53.9V-42c0,1.1-1,2.1-2.2,2.1H29.8c0.1,0.1-1.3,0.7,1.4,1.5c7.8,2.2-0.7,1.5-1.6,1.5h-1.1h-0.1h-0.2h-0.9
					c-0.9,0-9.5,0.7-1.6-1.5c2.8-0.7,1.4-1.3,1.4-1.5H16.7c-1.2,0-2.2-0.9-2.2-2.1v-11.9c0-1.1,1-2.1,2.2-2.1h23.4
					C41.4-55.9,42.4-55,42.4-53.9z"/>
				<path class="st1" d="M40.7-43.6V-54c0-0.4-0.3-0.7-0.7-0.7H16.9c-0.4,0-0.7,0.3-0.7,0.7v10.4c0,0.4,0.3,0.7,0.7,0.7H40
					C40.4-42.9,40.7-43.2,40.7-43.6z"/>
			</g>
			<path d="M74-43.3c1.2,0,2.4,0,3.6,0c0-0.9,0-1.8,0-2.7c0.9,0,1.8,0,2.7,0c0-1.1,0-2.3,0-3.4c-0.9,0-1.8,0-2.8,0
				c0-0.9,0-1.8,0-2.6c-1.2,0-2.4,0-3.6,0c0,0.9,0,1.8,0,2.7c-0.9,0-1.9,0-2.7,0c0,1.1,0,2.3,0,3.4c0.9,0,1.8,0,2.8,0
				C74-45.1,74-44.2,74-43.3z"/>
		</g>
		<g>
			<g>
				<path d="M87.8-90.7v11.9c0,1.1-1,2.1-2.2,2.1H75.2c0.1,0.1-1.3,0.7,1.4,1.5c7.8,2.2-0.7,1.5-1.6,1.5h-1.1h-0.1h-0.2h-0.9
					c-0.9,0-9.5,0.7-1.6-1.5c2.8-0.7,1.4-1.3,1.4-1.5H62.1c-1.2,0-2.2-0.9-2.2-2.1v-11.9c0-1.1,1-2.1,2.2-2.1h23.4
					C86.7-92.8,87.7-91.9,87.8-90.7z"/>
				<path class="st1" d="M86.1-80.5v-10.4c0-0.4-0.3-0.7-0.7-0.7H62.3c-0.4,0-0.7,0.3-0.7,0.7v10.4c0,0.4,0.3,0.7,0.7,0.7h23.1
					C85.8-79.7,86.1-80,86.1-80.5z"/>
			</g>
		</g>
		<g>
			<path d="M28.6-80.2c1.2,0,2.4,0,3.6,0c0-0.9,0-1.8,0-2.7c0.9,0,1.8,0,2.7,0c0-1.1,0-2.3,0-3.4c-0.9,0-1.8,0-2.8,0
				c0-0.9,0-1.8,0-2.6c-1.2,0-2.4,0-3.6,0c0,0.9,0,1.8,0,2.7c-0.9,0-1.9,0-2.7,0c0,1.1,0,2.3,0,3.4c0.9,0,1.8,0,2.8,0
				C28.6-81.9,28.6-81,28.6-80.2z"/>
		</g>
	</g>
</pattern>
<g>
	<path d="M426.8-208.5h-41.6c-2.2,0-3.9,1.6-3.9,3.7v21.2c0,2,1.7,3.7,3.9,3.7h18.3c-0.1,0.3,2.4,1.3-2.5,2.6
		c-13.9,3.8,1.3,2.6,2.9,2.6h1.6h0.4h0.2h2c1.6,0,16.8,1.2,2.9-2.6c-4.9-1.3-2.3-2.3-2.5-2.6h18.4c2.2,0,3.9-1.6,3.9-3.7v-21.2
		C430.7-206.9,428.9-208.5,426.8-208.5z"/>
	<path class="st1" d="M426.5-185.3h-41c-0.7,0-1.3-0.6-1.3-1.3v-18.4c0-0.7,0.6-1.3,1.3-1.3h41c0.7,0,1.3,0.6,1.3,1.3v18.4
		C427.8-185.8,427.2-185.3,426.5-185.3z"/>
</g>
<path d="M459.2-190.8c-1.7,0-3.3,0-4.9,0c0-2,0-4.1,0-6.1c1.6,0,3.2,0,4.9,0c0-1.6,0-3.2,0-4.7c2.2,0,4.2,0,6.4,0c0,1.6,0,3.1,0,4.7
	c1.7,0,3.3,0,4.9,0c0,2.1,0,4.1,0,6.1c-1.6,0-3.2,0-4.9,0c0,1.6,0,3.2,0,4.7c-2.2,0-4.2,0-6.4,0
	C459.2-187.6,459.2-189.2,459.2-190.8z"/>
<polygon class="st2" points="0,0 363.3,0 363.3,1152.1 0,1152.1 "/>
<linearGradient id="SVGID_1_" gradientUnits="userSpaceOnUse" x1="455.9265" y1="518.1146" x2="745.0369" y2="518.1146" gradientTransform="matrix(-1 0 0 -1 912.05 894.92)">
	<stop  offset="0" style="stop-color:#00FF66"/>
	<stop  offset="1" style="stop-color:#FF90FF"/>
</linearGradient>
<path class="st3" d="M208.9,353.5c1.1-23.8,20.7-43.1,44.5-43.8c4.8-0.2,9.5,0.4,13.9,1.7c10,2.8,20.5,0.1,28.2-6.8
	c5.9-5.3,14-8.3,22.8-7.4c13.8,1.4,24.8,12.6,26.1,26.4c0.3,3.2,0.1,6.3-0.6,9.2c-2.2,10,0.4,20.6,6.7,28.6
	c7.9,10,12.6,22.7,12.6,36.4c0,32.5-26.3,58.8-58.8,58.8c-26.9,0-49.6-18-56.6-42.7c-2.1-7.3-7-13.6-13.8-17
	C218.5,389,208,372.4,208.9,353.5z"/>
<linearGradient id="SVGID_2_" gradientUnits="userSpaceOnUse" x1="785.1229" y1="876.3044" x2="795.8533" y2="825.6441" gradientTransform="matrix(0.9839 0.1787 -0.1787 0.9839 -505.1727 -936.2316)">
	<stop  offset="0" style="stop-color:#00FF66"/>
	<stop  offset="1" style="stop-color:#FF90FF"/>
</linearGradient>
<path class="st4" d="M142.4,40c-0.6,0.7-1.2,1.3-1.9,1.9c-2.9,2.4-4.9,5.8-5.5,9.5c-0.5,3.1-1.7,6.1-3.8,8.7
	c-6.4,8.1-18.2,9.5-26.3,3.1c-8.1-6.4-9.5-18.2-3.1-26.3c3.3-4.1,8-6.5,12.8-7c3.4-0.3,6.5-2,8.6-4.7c0,0,0.1-0.1,0.1-0.1
	c4.1-5.2,11.8-6.1,17-2C145.7,27.2,146.6,34.8,142.4,40z"/>
<linearGradient id="SVGID_3_" gradientUnits="userSpaceOnUse" x1="787.0836" y1="441.4395" x2="887.1609" y2="441.4395" gradientTransform="matrix(-1 0 0 -1 912.05 894.92)">
	<stop  offset="0" style="stop-color:#00FF66"/>
	<stop  offset="1" style="stop-color:#FF90FF"/>
</linearGradient>
<path class="st5" d="M39.4,450c0.3-6.2,5.5-11.4,11.7-11.6c0.9,0,1.8,0,2.6,0.2c3.9,0.7,7.9,0.3,11.4-1.6c3.3-1.8,7.2-2.7,11.3-2.2
	c8.5,1,15.4,7.9,16.3,16.5c1.2,11.3-7.6,20.8-18.6,20.8c-2.3,0-4.5-0.4-6.6-1.2c-1.9-0.7-3.9-0.5-5.7,0.4c-1,0.5-2.1,0.8-3.2,0.8
	c-3.9,0-7.1-3.2-7.1-7.1c0,0,0,0,0,0c0-1.5-0.7-2.9-2-3.6C45.7,459.4,39.2,455.1,39.4,450z"/>
<linearGradient id="SVGID_4_" gradientUnits="userSpaceOnUse" x1="752.5986" y1="728.8508" x2="902.014" y2="685.8317" gradientTransform="matrix(-1 0 0 -1 912.05 894.92)">
	<stop  offset="0" style="stop-color:#00FF66"/>
	<stop  offset="1" style="stop-color:#FF90FF"/>
</linearGradient>
<path class="st6" d="M17.5,139.4c0.5-24.2,20.1-44.1,44.3-45c26.3-1,47.9,20,47.9,46.1c0,0,0,0.1,0,0.1c0,5.5,4.3,9.9,9.8,9.8
	c0.4,0,0.7,0,1.1,0c24.2,0.2,44.5,19.5,45.7,43.7c0.9,17.7-8.2,33.4-22.2,41.9c-9,5.5-16.3,13.3-20.9,22.8
	c-9,18.9-28.6,31.7-51.1,30.9c-28.1-1-51-23.8-52.2-51.9c-0.4-9.5,1.7-18.5,5.6-26.5c7.5-15.1,7-32.9-1.6-47.4
	C19.6,156.6,17.3,148.3,17.5,139.4z"/>
</svg>
