<?xml version="1.0" encoding="utf-8"?>
<!-- Generator: Adobe Illustrator 23.0.2, SVG Export Plug-In . SVG Version: 6.00 Build 0)  -->
<svg version="1.1" id="Layer_1" xmlns="http://www.w3.org/2000/svg" xmlns:xlink="http://www.w3.org/1999/xlink" x="0px" y="0px"
	 viewBox="0 0 1341 729" style="enable-background:new 0 0 1341 729;" xml:space="preserve">
<style type="text/css">
	.st0{fill:none;}
	.st1{fill:#FFFFFF;}
	.st2{fill:url(#New_Pattern);}
	.st3{fill:url(#SVGID_1_);}
	.st4{fill:url(#SVGID_2_);}
	.st5{fill:url(#SVGID_3_);}
	.st6{fill:url(#SVGID_4_);}
	.st7{fill:url(#SVGID_5_);}
</style>
<pattern  y="729" width="76.5" height="90.7" patternUnits="userSpaceOnUse" id="New_Pattern" viewBox="24 -99.9 76.5 90.7" style="overflow:visible;">
	<g>
		<rect x="24" y="-99.9" class="st0" width="76.5" height="90.7"/>
		<g>
			<g>
				<path d="M103.2-16.3v11.4c0,1.1-0.9,2-2.1,2h-9.9c0.1,0.1-1.3,0.7,1.4,1.4c7.5,2.1-0.7,1.4-1.6,1.4h-1.1h-0.1h-0.2h-0.8
					c-0.9,0-9.1,0.6-1.6-1.4c2.7-0.7,1.3-1.2,1.4-1.4h-9.8c-1.2,0-2.1-0.9-2.1-2v-11.4c0-1.1,0.9-2,2.1-2h22.4
					C102.2-18.3,103.2-17.4,103.2-16.3z"/>
				<path class="st1" d="M101.6-6.5v-9.9c0-0.4-0.3-0.7-0.7-0.7H78.8c-0.4,0-0.7,0.3-0.7,0.7v9.9c0,0.4,0.3,0.7,0.7,0.7h22.1
					C101.3-5.8,101.6-6.1,101.6-6.5z"/>
			</g>
		</g>
		<g>
			<g>
				<path d="M26.7-16.3v11.4c0,1.1-0.9,2-2.1,2h-9.9c0.1,0.1-1.3,0.7,1.4,1.4c7.5,2.1-0.7,1.4-1.6,1.4h-1.1h-0.1H13h-0.8
					c-0.9,0-9.1,0.6-1.6-1.4c2.7-0.7,1.3-1.2,1.4-1.4H2.1C0.9-2.9,0-3.8,0-4.9v-11.4c0-1.1,0.9-2,2.1-2h22.4
					C25.7-18.3,26.6-17.4,26.7-16.3z"/>
				<path class="st1" d="M25.1-6.5v-9.9c0-0.4-0.3-0.7-0.7-0.7H2.3c-0.4,0-0.7,0.3-0.7,0.7v9.9c0,0.4,0.3,0.7,0.7,0.7h22.1
					C24.8-5.8,25.1-6.1,25.1-6.5z"/>
			</g>
			<path d="M49.3-6.2c1.2,0,2.3,0,3.4,0c0-0.8,0-1.7,0-2.6c0.9,0,1.7,0,2.6,0c0-1.1,0-2.2,0-3.3c-0.9,0-1.7,0-2.7,0
				c0-0.9,0-1.7,0-2.5c-1.2,0-2.3,0-3.4,0c0,0.8,0,1.7,0,2.6c-0.9,0-1.8,0-2.6,0c0,1.1,0,2.2,0,3.3c0.9,0,1.7,0,2.7,0
				C49.3-7.9,49.3-7,49.3-6.2z"/>
		</g>
		<g>
			<g>
				<path d="M64.9-61.7v11.4c0,1.1-0.9,2-2.1,2h-9.9c0.1,0.1-1.3,0.7,1.4,1.4c7.5,2.1-0.7,1.4-1.6,1.4h-1.1h-0.1h-0.2h-0.8
					c-0.9,0-9.1,0.6-1.6-1.4c2.7-0.7,1.3-1.2,1.4-1.4h-9.8c-1.2,0-2.1-0.9-2.1-2v-11.4c0-1.1,0.9-2,2.1-2h22.4
					C64-63.6,64.9-62.8,64.9-61.7z"/>
				<path class="st1" d="M63.4-51.8v-9.9c0-0.4-0.3-0.7-0.7-0.7H40.5c-0.4,0-0.7,0.3-0.7,0.7v9.9c0,0.4,0.3,0.7,0.7,0.7h22.1
					C63-51.1,63.4-51.4,63.4-51.8z"/>
			</g>
			<path d="M87.6-51.6c1.2,0,2.3,0,3.4,0c0-0.8,0-1.7,0-2.6c0.9,0,1.7,0,2.6,0c0-1.1,0-2.2,0-3.3c-0.9,0-1.7,0-2.7,0
				c0-0.9,0-1.7,0-2.5c-1.2,0-2.3,0-3.4,0c0,0.8,0,1.7,0,2.6c-0.9,0-1.8,0-2.6,0c0,1.1,0,2.2,0,3.3c0.9,0,1.7,0,2.7,0
				C87.6-53.2,87.6-52.4,87.6-51.6z"/>
		</g>
		<g>
			<g>
				<path d="M103.2-107v11.4c0,1.1-0.9,2-2.1,2h-9.9c0.1,0.1-1.3,0.7,1.4,1.4c7.5,2.1-0.7,1.4-1.6,1.4h-1.1h-0.1h-0.2h-0.8
					c-0.9,0-9.1,0.6-1.6-1.4c2.7-0.7,1.3-1.2,1.4-1.4h-9.8c-1.2,0-2.1-0.9-2.1-2V-107c0-1.1,0.9-2,2.1-2h22.4
					C102.2-109,103.2-108.1,103.2-107z"/>
				<path class="st1" d="M101.6-97.2v-9.9c0-0.4-0.3-0.7-0.7-0.7H78.8c-0.4,0-0.7,0.3-0.7,0.7v9.9c0,0.4,0.3,0.7,0.7,0.7h22.1
					C101.3-96.5,101.6-96.8,101.6-97.2z"/>
			</g>
		</g>
		<g>
			<g>
				<path d="M26.7-107v11.4c0,1.1-0.9,2-2.1,2h-9.9c0.1,0.1-1.3,0.7,1.4,1.4c7.5,2.1-0.7,1.4-1.6,1.4h-1.1h-0.1H13h-0.8
					c-0.9,0-9.1,0.6-1.6-1.4c2.7-0.7,1.3-1.2,1.4-1.4H2.1c-1.2,0-2.1-0.9-2.1-2V-107c0-1.1,0.9-2,2.1-2h22.4
					C25.7-109,26.6-108.1,26.7-107z"/>
				<path class="st1" d="M25.1-97.2v-9.9c0-0.4-0.3-0.7-0.7-0.7H2.3c-0.4,0-0.7,0.3-0.7,0.7v9.9c0,0.4,0.3,0.7,0.7,0.7h22.1
					C24.8-96.5,25.1-96.8,25.1-97.2z"/>
			</g>
			<path d="M49.3-96.9c1.2,0,2.3,0,3.4,0c0-0.8,0-1.7,0-2.6c0.9,0,1.7,0,2.6,0c0-1.1,0-2.2,0-3.3c-0.9,0-1.7,0-2.7,0
				c0-0.9,0-1.7,0-2.5c-1.2,0-2.3,0-3.4,0c0,0.8,0,1.7,0,2.6c-0.9,0-1.8,0-2.6,0c0,1.1,0,2.2,0,3.3c0.9,0,1.7,0,2.7,0
				C49.3-98.6,49.3-97.7,49.3-96.9z"/>
		</g>
	</g>
</pattern>
<g>
	<path d="M350.8-101h-22.4c-1.2,0-2.1,0.9-2.1,2v11.4c0,1.1,0.9,2,2.1,2h9.8c-0.1,0.2,1.3,0.7-1.4,1.4c-7.5,2.1,0.7,1.4,1.6,1.4h0.8
		h0.2h0.1h1.1c0.8,0,9.1,0.6,1.6-1.4c-2.6-0.7-1.3-1.3-1.4-1.4h9.9c1.2,0,2.1-0.9,2.1-2V-99C352.9-100.1,352-101,350.8-101z"/>
	<path class="st1" d="M350.6-88.5h-22.1c-0.4,0-0.7-0.3-0.7-0.7v-9.9c0-0.4,0.3-0.7,0.7-0.7h22.1c0.4,0,0.7,0.3,0.7,0.7v9.9
		C351.4-88.7,351-88.5,350.6-88.5z"/>
</g>
<path d="M368.3-91.4c-0.9,0-1.8,0-2.7,0c0-1.1,0-2.2,0-3.3c0.8,0,1.7,0,2.6,0c0-0.9,0-1.7,0-2.6c1.2,0,2.3,0,3.4,0
	c0,0.8,0,1.7,0,2.5c0.9,0,1.8,0,2.7,0c0,1.1,0,2.2,0,3.3c-0.9,0-1.7,0-2.6,0c0,0.9,0,1.7,0,2.6c-1.2,0-2.3,0-3.4,0
	C368.3-89.7,368.3-90.6,368.3-91.4z"/>
<rect y="0" class="st2" width="1341" height="729"/>
<linearGradient id="SVGID_1_" gradientUnits="userSpaceOnUse" x1="163.3485" y1="453.5708" x2="443.7779" y2="361.2686">
	<stop  offset="0" style="stop-color:#00FF66"/>
	<stop  offset="1" style="stop-color:#FF90FF"/>
</linearGradient>
<path class="st3" d="M421.8,379.6c-15.3,14.2-23.6,32.3-23.5,51c0,0.1,0,0.2,0,0.4c0,17.8-7.2,34.4-19.6,48.2
	c-11.5,12.9-17.8,28.3-17.6,44.2c0,0.1,0,0.3,0,0.4c0,28.8-31.7,52.1-70.8,52.1s-70.8-23.3-70.8-52.1c0-0.2,0-0.4,0-0.6
	c0.1-9.2-5.4-17.8-14.7-23.2c-27.7-16.1-45.5-41-45.5-69c0-14.5,4.8-28.2,13.2-40.3c11.7-16.6,14.1-36.2,7.7-54.6
	c-1.8-5-2.7-10.3-2.7-15.8c0-34.6,38.2-62.7,85.2-62.7c27.4,0,51.7,9.5,67.3,24.2c9,8.5,22,13.4,35.9,13.3c0.1,0,0.2,0,0.3,0
	c39.1,0,70.8,23.3,70.8,52.1C437.1,359.5,431.4,370.8,421.8,379.6z"/>
<linearGradient id="SVGID_2_" gradientUnits="userSpaceOnUse" x1="833.8984" y1="230.5742" x2="1114.3278" y2="138.272" gradientTransform="matrix(-0.7049 0.7093 -0.7093 -0.7049 1876.4387 -257.1529)">
	<stop  offset="0" style="stop-color:#00FF66"/>
	<stop  offset="1" style="stop-color:#FF90FF"/>
</linearGradient>
<path class="st4" d="M995.3,407.3c0.7-20.9-6.2-39.5-19.6-52.7c-0.1-0.1-0.2-0.2-0.3-0.3c-12.6-12.5-19.3-29.3-20.4-47.9
	c-1-17.3-7.6-32.6-19-43.7c-0.1-0.1-0.2-0.2-0.3-0.3c-20.4-20.3-14.6-59.2,12.9-86.9c27.5-27.7,66.4-33.8,86.8-13.5
	c0.1,0.1,0.3,0.3,0.4,0.4c6.4,6.6,16.4,8.7,26.8,5.9c30.9-8.3,61.2-3.4,81,16.4c10.3,10.2,16.6,23.3,19.2,37.8
	c3.6,20,15.8,35.6,33.3,43.9c4.8,2.3,9.2,5.4,13.1,9.2c24.6,24.4,17.6,71.3-15.6,104.7c-19.3,19.4-43.2,30-64.6,30.7
	c-12.3,0.4-25,6.2-34.7,16c-0.1,0.1-0.2,0.2-0.2,0.2c-27.5,27.7-66.4,33.8-86.8,13.5C998.8,432.3,994.9,420.3,995.3,407.3z"/>
<linearGradient id="SVGID_3_" gradientUnits="userSpaceOnUse" x1="98.874" y1="287.3493" x2="189.783" y2="257.427">
	<stop  offset="0" style="stop-color:#00FF66"/>
	<stop  offset="1" style="stop-color:#FF90FF"/>
</linearGradient>
<path class="st5" d="M162,278.6c-2.5,1.4-4,4-4,6.9c0,0,3.3,15.5,3.3,15.6c0,19.5-16.2,19.7-32,19.7c-15.9,0-28.7-15.8-28.7-35.2
	c0-16.2,8.9-29.8,21-33.9c4.9-1.7,8.4-6.2,9-11.3l0,0c0.9-15,12.2-16.8,27.4-16.8c15.8,0,28.6,12.8,28.6,28.6
	C186.5,264,170.1,274.3,162,278.6z"/>
<linearGradient id="SVGID_4_" gradientUnits="userSpaceOnUse" x1="1137.0623" y1="546.0912" x2="1257.1685" y2="506.5587">
	<stop  offset="0" style="stop-color:#00FF66"/>
	<stop  offset="1" style="stop-color:#FF90FF"/>
</linearGradient>
<path class="st6" d="M1253.6,536.5c-2,3.4-3,7.2-2.9,11.1c0,0.2,0,0.4,0,0.5c0,15.4-16,27.8-35.8,27.8c-5.7,0-11.1-1-15.8-2.9
	c-6.5-2.5-13.7-2.5-20,0.3c-3.6,1.6-7.8,2.5-12.1,2.5c-14.7,0-26.6-10.3-26.6-23c0-2.7,0.5-5.3,1.5-7.7c2.9-7.2,3.6-15,2.7-22.7
	c-0.1-0.8-1.2-12,2.7-23.5c6.7-20,34.2-31.7,69-22c22.7,6.3,42.7,17.9,42.7,40.1C1258.9,524.2,1257,530.8,1253.6,536.5z"/>
<linearGradient id="SVGID_5_" gradientUnits="userSpaceOnUse" x1="1018.1351" y1="784.9584" x2="1059.9872" y2="771.1829" gradientTransform="matrix(-0.5262 -0.8504 0.8504 -0.5262 1156.661 1942.4741)">
	<stop  offset="0" style="stop-color:#00FF66"/>
	<stop  offset="1" style="stop-color:#FF90FF"/>
</linearGradient>
<path class="st7" d="M1264.2,630.9c1.4,0,2.7-0.4,3.8-1.2c0.1,0,0.1-0.1,0.2-0.1c4.6-2.8,11.2-0.4,14.8,5.5c1,1.7,1.7,3.5,2.1,5.2
	c0.4,2.4,1.8,4.5,3.8,5.9c1.1,0.8,2.2,1.8,3,3.1c2.7,4.3,1.8,9.8-1.9,12.1c-0.8,0.5-1.7,0.8-2.6,1c-2.7,0.4-5.1,1.7-7.2,3.4
	c-0.2,0.2-3.3,2.5-7.4,3.5c-7.1,1.7-15.7-4.3-19.1-16.4c-2.3-7.9-2.5-15.9,4.1-20C1259.6,631.6,1261.9,630.9,1264.2,630.9z"/>
</svg>
