<?xml version="1.0" encoding="utf-8"?>
<!-- Generator: Adobe Illustrator 23.0.1, SVG Export Plug-In . SVG Version: 6.00 Build 0)  -->
<svg version="1.1" id="Layer_1" xmlns="http://www.w3.org/2000/svg" xmlns:xlink="http://www.w3.org/1999/xlink" x="0px" y="0px"
	 viewBox="0 0 363.3 1152.1" style="enable-background:new 0 0 363.3 1152.1;" xml:space="preserve">
<style type="text/css">
	.st0{fill:none;}
	.st1{fill:#FFFFFF;}
	.st2{fill:#52FF97;}
	.st3{fill:url(#New_Pattern_2);}
</style>
<pattern  y="729" width="71" height="58" patternUnits="userSpaceOnUse" id="New_Pattern_2" viewBox="0 -58 71 58" style="overflow:visible;">
	<g>
		<rect y="-58" class="st0" width="71" height="58"/>
		<g>
			<g>
				<path d="M23.8-23.1v10c0,1-0.8,1.7-1.8,1.7h-8.7c0.1,0.1-1.1,0.6,1.2,1.2c6.6,1.8-0.6,1.2-1.4,1.2h-1h-0.1h-0.2h-0.7
					c-0.8,0-7.9,0.6-1.4-1.2c2.3-0.6,1.1-1.1,1.2-1.2H2.4c-1,0-1.8-0.8-1.8-1.7v-10c0-1,0.8-1.7,1.8-1.7H22
					C23-24.8,23.8-24.1,23.8-23.1z"/>
				<path class="st1" d="M22.4-14.5v-8.7c0-0.3-0.3-0.6-0.6-0.6H2.5c-0.3,0-0.6,0.3-0.6,0.6v8.7c0,0.3,0.3,0.6,0.6,0.6h19.3
					C22.2-13.9,22.4-14.1,22.4-14.5z"/>
			</g>
			<path d="M46.1-13.2c1,0,2,0,3,0c0-0.7,0-1.5,0-2.2c0.8,0,1.5,0,2.3,0c0-1,0-1.9,0-2.9c-0.8,0-1.5,0-2.3,0c0-0.8,0-1.5,0-2.2
				c-1,0-2,0-3,0c0,0.7,0,1.5,0,2.2c-0.8,0-1.6,0-2.3,0c0,1,0,1.9,0,2.9c0.8,0,1.5,0,2.3,0C46.1-14.6,46.1-13.9,46.1-13.2z"/>
		</g>
		<g>
			<g>
				<path d="M59.3-52.1v10c0,1-0.8,1.7-1.8,1.7h-8.7c0.1,0.1-1.1,0.6,1.2,1.2c6.6,1.8-0.6,1.2-1.4,1.2h-1h-0.1h-0.2h-0.7
					c-0.8,0-7.9,0.6-1.4-1.2c2.3-0.6,1.1-1.1,1.2-1.2h-8.6c-1,0-1.8-0.8-1.8-1.7v-10c0-1,0.8-1.7,1.8-1.7h19.6
					C58.5-53.8,59.3-53.1,59.3-52.1z"/>
				<path class="st1" d="M57.9-43.5v-8.7c0-0.3-0.3-0.6-0.6-0.6H38c-0.3,0-0.6,0.3-0.6,0.6v8.7c0,0.3,0.3,0.6,0.6,0.6h19.3
					C57.7-42.9,57.9-43.1,57.9-43.5z"/>
			</g>
		</g>
		<g>
			<path d="M10.6-42.2c1,0,2,0,3,0c0-0.7,0-1.5,0-2.2c0.8,0,1.5,0,2.3,0c0-1,0-1.9,0-2.9c-0.8,0-1.5,0-2.3,0c0-0.8,0-1.5,0-2.2
				c-1,0-2,0-3,0c0,0.7,0,1.5,0,2.2c-0.8,0-1.6,0-2.3,0c0,1,0,1.9,0,2.9c0.8,0,1.5,0,2.3,0C10.6-43.6,10.6-42.9,10.6-42.2z"/>
		</g>
	</g>
</pattern>
<rect x="-10" y="-4" class="st2" width="380.9" height="1168.3"/>
<g>
	<path d="M427.4-231.1h-69.3c-3.6,0-6.5,2.7-6.5,6.1v35.3c0,3.4,2.9,6.1,6.5,6.1h30.4c-0.2,0.5,4,2.2-4.2,4.3
		c-23.2,6.4,2.1,4.4,4.8,4.4h2.6h0.7h0.4h3.4c2.6,0,28,2,4.8-4.4c-8.1-2.1-3.9-3.9-4.2-4.3h30.7c3.6,0,6.5-2.7,6.5-6.1V-225
		C433.9-228.4,431-231.1,427.4-231.1z"/>
	<path class="st1" d="M426.9-192.4h-68.3c-1.2,0-2.2-1-2.2-2.2v-30.7c0-1.2,1-2.2,2.2-2.2h68.3c1.2,0,2.2,1,2.2,2.2v30.7
		C429.1-193.3,428.1-192.4,426.9-192.4z"/>
</g>
<path d="M481.4-201.6c-2.8,0-5.5,0-8.2,0c0-3.4,0-6.8,0-10.2c2.6,0,5.3,0,8.1,0c0-2.7,0-5.3,0-7.9c3.6,0,7,0,10.6,0
	c0,2.6,0,5.1,0,7.8c2.8,0,5.5,0,8.2,0c0,3.5,0,6.8,0,10.2c-2.7,0-5.3,0-8.1,0c0,2.7,0,5.3,0,7.9c-3.6,0-7,0-10.6,0
	C481.4-196.3,481.4-198.9,481.4-201.6z"/>
<rect class="st3" width="363.3" height="1152.1"/>
</svg>
