<?xml version="1.0" encoding="utf-8"?>
<!-- Generator: Adobe Illustrator 23.0.1, SVG Export Plug-In . SVG Version: 6.00 Build 0)  -->
<svg version="1.1" id="Layer_1" xmlns="http://www.w3.org/2000/svg" xmlns:xlink="http://www.w3.org/1999/xlink" x="0px" y="0px"
	 viewBox="0 0 1341 729" style="enable-background:new 0 0 1341 729;" xml:space="preserve">
<style type="text/css">
	.st0{fill:none;}
	.st1{fill:#FFFFFF;}
	.st2{fill:url(#New_Pattern);}
</style>
<pattern  x="-37" y="-95" width="107" height="104" patternUnits="userSpaceOnUse" id="New_Pattern" viewBox="12.31 -122.44 107 104" style="overflow:visible;">
	<g>
		<rect x="12.31" y="-122.44" class="st0" width="107" height="104"/>
		<g>
			<g>
				<path d="M83.97-22.73H56.12c-1.44,0-2.62,1.09-2.62,2.44v14.21c0,1.35,1.17,2.44,2.62,2.44h12.23
					c-0.09,0.19,1.59,0.89-1.68,1.74c-9.34,2.58,0.86,1.79,1.91,1.79h1.06h0.28h0.14h1.34c1.05,0,11.25,0.79,1.91-1.79
					c-3.27-0.85-1.58-1.55-1.68-1.74h12.33c1.44,0,2.62-1.09,2.62-2.44v-14.21C86.59-21.64,85.42-22.73,83.97-22.73z"/>
				<path class="st1" d="M82.47-7.14H57.62c-1.21,0-2.19-0.98-2.19-2.19v-9.71c0-1.21,0.98-2.19,2.19-2.19h24.84
					c1.21,0,2.19,0.98,2.19,2.19v9.71C84.65-8.12,83.67-7.14,82.47-7.14z"/>
			</g>
		</g>
		<g>
			<g>
				<path d="M137.47-74.73h-27.86c-1.44,0-2.62,1.09-2.62,2.44v14.21c0,1.35,1.17,2.44,2.62,2.44h12.23
					c-0.09,0.19,1.59,0.89-1.68,1.74c-9.34,2.58,0.86,1.79,1.91,1.79h1.06h0.28h0.14h1.34c1.05,0,11.25,0.79,1.91-1.79
					c-3.27-0.85-1.58-1.55-1.68-1.74h12.33c1.44,0,2.62-1.09,2.62-2.44v-14.21C140.09-73.64,138.92-74.73,137.47-74.73z"/>
				<path class="st1" d="M135.97-59.14h-24.84c-1.21,0-2.19-0.98-2.19-2.19v-9.71c0-1.21,0.98-2.19,2.19-2.19h24.84
					c1.21,0,2.19,0.98,2.19,2.19v9.71C138.15-60.12,137.17-59.14,135.97-59.14z"/>
			</g>
		</g>
		<g>
			<g>
				<path d="M30.47-74.73H2.62C1.17-74.73,0-73.64,0-72.29v14.21c0,1.35,1.17,2.44,2.62,2.44h12.23c-0.09,0.19,1.59,0.89-1.68,1.74
					c-9.34,2.58,0.86,1.79,1.91,1.79h1.06h0.28h0.14h1.34c1.05,0,11.25,0.79,1.91-1.79c-3.27-0.85-1.58-1.55-1.68-1.74h12.33
					c1.44,0,2.62-1.09,2.62-2.44v-14.21C33.09-73.64,31.92-74.73,30.47-74.73z"/>
				<path class="st1" d="M28.97-59.14H4.12c-1.21,0-2.19-0.98-2.19-2.19v-9.71c0-1.21,0.98-2.19,2.19-2.19h24.84
					c1.21,0,2.19,0.98,2.19,2.19v9.71C31.15-60.12,30.17-59.14,28.97-59.14z"/>
			</g>
			<path d="M64.58-60.93c-1.33,0-2.59,0-3.89,0c0-1.63,0-3.21,0-4.84c1.26,0,2.53,0,3.86,0c0-1.28,0-2.51,0-3.77
				c1.71,0,3.35,0,5.04,0c0,1.22,0,2.44,0,3.72c1.32,0,2.6,0,3.91,0c0,1.65,0,3.23,0,4.86c-1.27,0-2.53,0-3.86,0
				c0,1.27,0,2.51,0,3.77c-1.71,0-3.35,0-5.06,0C64.58-58.42,64.58-59.65,64.58-60.93z"/>
		</g>
		<g>
			<g>
				<path d="M83.97-126.73H56.12c-1.44,0-2.62,1.09-2.62,2.44v14.21c0,1.35,1.17,2.44,2.62,2.44h12.23
					c-0.09,0.19,1.59,0.89-1.68,1.74c-9.34,2.58,0.86,1.79,1.91,1.79h1.06h0.28h0.14h1.34c1.05,0,11.25,0.79,1.91-1.79
					c-3.27-0.85-1.58-1.55-1.68-1.74h12.33c1.44,0,2.62-1.09,2.62-2.44v-14.21C86.59-125.64,85.42-126.73,83.97-126.73z"/>
				<path class="st1" d="M82.47-111.14H57.62c-1.21,0-2.19-0.98-2.19-2.19v-9.71c0-1.21,0.98-2.19,2.19-2.19h24.84
					c1.21,0,2.19,0.98,2.19,2.19v9.71C84.65-112.12,83.67-111.14,82.47-111.14z"/>
			</g>
			<path d="M118.08-112.93c-1.33,0-2.59,0-3.89,0c0-1.63,0-3.21,0-4.84c1.26,0,2.53,0,3.86,0c0-1.28,0-2.51,0-3.77
				c1.71,0,3.35,0,5.04,0c0,1.22,0,2.44,0,3.72c1.32,0,2.6,0,3.91,0c0,1.65,0,3.23,0,4.86c-1.27,0-2.53,0-3.86,0
				c0,1.27,0,2.51,0,3.77c-1.71,0-3.35,0-5.06,0C118.08-110.42,118.08-111.65,118.08-112.93z"/>
		</g>
		<g>
			<path d="M11.08-112.93c-1.33,0-2.59,0-3.89,0c0-1.63,0-3.21,0-4.84c1.26,0,2.53,0,3.86,0c0-1.28,0-2.51,0-3.77
				c1.71,0,3.35,0,5.04,0c0,1.22,0,2.44,0,3.72c1.32,0,2.6,0,3.91,0c0,1.65,0,3.23,0,4.86c-1.27,0-2.53,0-3.86,0
				c0,1.27,0,2.51,0,3.77c-1.71,0-3.35,0-5.06,0C11.08-110.42,11.08-111.65,11.08-112.93z"/>
		</g>
	</g>
</pattern>
<g>
	<path d="M427.4-231.14h-69.3c-3.59,0-6.51,2.72-6.51,6.08v35.34c0,3.36,2.91,6.08,6.51,6.08h30.41c-0.24,0.46,3.96,2.21-4.17,4.32
		c-23.24,6.41,2.14,4.44,4.75,4.44h2.64h0.7h0.35h3.35c2.61,0,27.99,1.97,4.75-4.44c-8.12-2.11-3.93-3.85-4.17-4.32h30.67
		c3.59,0,6.51-2.72,6.51-6.08v-35.34C433.91-228.42,430.99-231.14,427.4-231.14z"/>
	<path class="st1" d="M426.9-192.35h-68.3c-1.21,0-2.19-0.98-2.19-2.19v-30.67c0-1.21,0.98-2.19,2.19-2.19h68.3
		c1.21,0,2.19,0.98,2.19,2.19v30.67C429.09-193.33,428.11-192.35,426.9-192.35z"/>
</g>
<path d="M481.38-201.6c-2.79,0-5.45,0-8.18,0c0-3.42,0-6.75,0-10.18c2.65,0,5.31,0,8.11,0c0-2.68,0-5.27,0-7.93
	c3.59,0,7.04,0,10.59,0c0,2.57,0,5.13,0,7.83c2.78,0,5.46,0,8.22,0c0,3.46,0,6.79,0,10.21c-2.66,0-5.32,0-8.11,0
	c0,2.68,0,5.27,0,7.93c-3.59,0-7.04,0-10.63,0C481.38-196.32,481.38-198.91,481.38-201.6z"/>
<rect class="st2" width="1341" height="729"/>
</svg>
