<svg id="Layer_1" data-name="Layer 1" xmlns="http://www.w3.org/2000/svg" viewBox="0 0 789.33 258.5"><defs><style>.cls-1,.cls-3{fill:#fff;}.cls-2{font-size:48px;}.cls-2,.cls-5{font-family:SpaceMono-Regular, Space Mono;}.cls-3,.cls-4{stroke:#000;stroke-miterlimit:10;}.cls-3{stroke-width:4px;}.cls-4{fill:none;stroke-width:2.7px;}.cls-5{font-size:14px;}</style></defs><title>devLogo</title><path d="M310.4,48h5.38l.84.12c3,.38,6,.6,8.9,1.17A67.68,67.68,0,0,1,350.38,59.9a103.46,103.46,0,0,1,20.1,18c.85,1,1.67,2,2.52,2.93l-.7.87a89.67,89.67,0,0,1-8.54,8.89,89.93,89.93,0,0,1-29.16,18.3,66,66,0,0,1-30.93,4A72.75,72.75,0,0,1,280,105.75a107.5,107.5,0,0,1-25.17-17.4c-2.69-2.43-5.24-5-7.86-7.53v-.14a2.27,2.27,0,0,0,.35-.26c1.93-1.9,3.79-3.88,5.8-5.7A110.51,110.51,0,0,1,284.4,54.2a74.78,74.78,0,0,1,22.09-5.84C307.79,48.23,309.1,48.12,310.4,48Zm28.18,32.7a26.43,26.43,0,0,0-3.18-12.52c-8-14.73-27.76-19.12-41.44-9.18-12.22,8.87-14.91,25.39-6.1,37.36a28.52,28.52,0,0,0,33.73,9.2A27.06,27.06,0,0,0,338.58,80.7Z"/><path class="cls-1" d="M338.58,80.7a27.06,27.06,0,0,1-17,24.86,28.52,28.52,0,0,1-33.73-9.2c-8.81-12-6.12-28.49,6.1-37.36,13.68-9.94,33.48-5.55,41.44,9.18A26.43,26.43,0,0,1,338.58,80.7Zm-12.11-.1c0-.31,0-.93-.11-1.53a15,15,0,0,0-.43-2.12,15.65,15.65,0,0,0-20.06-10.47A15.13,15.13,0,0,0,296,85.37,15.59,15.59,0,0,0,312.39,96,15.43,15.43,0,0,0,326.47,80.6Z"/><path d="M326.47,80.6A15.43,15.43,0,0,1,312.39,96,15.59,15.59,0,0,1,296,85.37a15.13,15.13,0,0,1,9.9-18.89A15.65,15.65,0,0,1,325.93,77a15,15,0,0,1,.43,2.12C326.45,79.67,326.45,80.29,326.47,80.6Z"/><text class="cls-2" transform="translate(203.6 101.1)">+</text><text class="cls-2" transform="translate(394.31 97.1)">+</text><text class="cls-2" transform="translate(563.88 95.1)">=</text><rect class="cls-3" x="444" y="25" width="80" height="108.67"/><path d="M680.22,96.66V69.09a16.88,16.88,0,1,0-3.09,0V96.66a16,16,0,1,0,3.09,0ZM664.12,52.3a14.56,14.56,0,1,1,14.56,14.55A14.57,14.57,0,0,1,664.12,52.3Z"/><circle cx="678.68" cy="52.3" r="5.64"/><rect class="cls-4" x="631.83" y="15" width="93.69" height="134"/><path d="M195.58,68.5v57.39h-14.3a8.78,8.78,0,0,0-.39-.92,3,3,0,0,0-4.87-.4,3,3,0,0,0,.54,4.29,2.86,2.86,0,0,0,4.08-.73A2.31,2.31,0,0,1,183,127c3.29.06,6.58,0,9.87,0,.89,0,1.78-.07,2.67-.11v7.7c-1.86,0-3.73,0-5.6,0a1.17,1.17,0,0,1-1.3-.77,3,3,0,0,0-3.1-1.7,3.06,3.06,0,0,0-.22,5.94,2.86,2.86,0,0,0,3.34-1.63,1.28,1.28,0,0,1,1.41-.81c1.82,0,3.65,0,5.47-.07v7.21c-1.78,0-3.57,0-5.36.09a1.46,1.46,0,0,1-1.6-.91,2.76,2.76,0,0,0-4.16-1,2.91,2.91,0,0,0-1.22,3.25,2.71,2.71,0,0,0,2.31,2.09,2.86,2.86,0,0,0,3.18-1.54c.2-.33.59-.78.89-.78,2,0,4,0,6,.07v7.21h-6.41a14.32,14.32,0,0,0-.75-1.38,2.9,2.9,0,0,0-3.91-.72,3,3,0,0,0-1.33,3.1,3.33,3.33,0,0,0,2.41,2.37,3.1,3.1,0,0,0,3.09-1.54c.23-.36.61-.86.94-.87,2-.06,4,0,6,0v9.19h-18v-1.55c0-4.55,0-9.11,0-13.66a2.64,2.64,0,0,0-.61-1.63c-2.18-2.29-4.47-4.47-6.62-6.77a3.29,3.29,0,0,0-2.68-1.1q-16.92,0-33.86,0h-1.38c-1.15-2.31-2.92-3.08-4.56-2.07a3.24,3.24,0,0,0-1.43,3.08,3.67,3.67,0,0,0,2.34,2.49,3.05,3.05,0,0,0,3.17-1.61,1.39,1.39,0,0,1,1.39-.88c11.53,0,23.07,0,34.6,0a2.11,2.11,0,0,1,1.38.54c2.24,2.19,4.47,4.41,6.62,6.7a2.92,2.92,0,0,1,.67,1.83c.06,4.72,0,9.45,0,14.17v1.4h19a4.3,4.3,0,0,1-1,.24H169.42c0-3.15-.08-6.3.09-9.43.13-2.52-.11-4.75-2.38-6.27-.13-.08-.19-.26-.3-.38a4.53,4.53,0,0,0-3.66-1.69c-9.93.08-19.87,0-29.8,0a1.39,1.39,0,0,1-1.47-.87,2.85,2.85,0,0,0-4.28-1,3,3,0,0,0-.51,4.37,2.77,2.77,0,0,0,4.38,0,10.3,10.3,0,0,0,.92-1.43c9.93,0,19.82.07,29.71,0a5.82,5.82,0,0,1,4.64,2,5.43,5.43,0,0,1,1.74,4.43c-.16,3.42-.05,6.86-.06,10.3h-7.09c0-2.61,0-5.22,0-7.82,0-1.72,0-1.7-1.67-1.69-6.14,0-12.29,0-18.43,0a1.58,1.58,0,0,1-1.14-.73,3,3,0,0,0-3.36-1.64,3.19,3.19,0,0,0-2.29,2.88,3.35,3.35,0,0,0,2.24,3,2.81,2.81,0,0,0,3.28-1.53,1.31,1.31,0,0,1,1.47-.91c5.33,0,10.66,0,16,0h2.94v8.48H148.14a2.75,2.75,0,0,0-2.71-1.69,2.49,2.49,0,0,0-2.42,1.69H130.29a2.77,2.77,0,0,0-1.8-3.55,2.66,2.66,0,0,0-3.47,1.41,1.48,1.48,0,0,1-1.62.88c-4.11,0-8.21,0-12.31,0h-1.34v1.27h-7.09v-8.42H116.5c.75,1.85,1.9,2.65,3.41,2.41a3,3,0,0,0,.4-5.82c-1.53-.51-2.59.11-4,2.44H101.44v9.39H94.35V146.05h22.11c.88,1.84,2.09,2.69,3.41,2.42a3.21,3.21,0,0,0,2.47-3,3.14,3.14,0,0,0-2.2-2.94c-1.53-.39-2.65.31-3.8,2.46H93.58c0,.52-.07,1-.07,1.41,0,3.72,0,7.45,0,11.18,0,1.69.07,3.38.1,5.08H86.28c0-.5.09-1,.09-1.48q0-10.94,0-21.86v-1.49c.42,0,.7-.08,1-.08q14.11,0,28.23,0a1.13,1.13,0,0,1,1.25.82,2.83,2.83,0,0,0,3.48,1.53,3,3,0,0,0,2-3.33,2.71,2.71,0,0,0-2.87-2.46c-1.64,0-2.46,1-3,2.43-9.93,0-19.78,0-29.64,0-1.19,0-1.51.3-1.51,1.51,0,8.15,0,16.3,0,24.46H77.72c0-2-.66-3.15-2.11-3.63s-2.41.15-3.67,1.92a1.49,1.49,0,0,1-1.11.42q-7.87,0-15.75,0c-.35,0-.71,0-1.06-.06a3.46,3.46,0,0,1-.11-.57c0-5.63,0-11.25,0-16.88,0-.34.42-.79.76-1a3,3,0,0,0,1.56-3.33,3.1,3.1,0,0,0-2.77-2.39,3.23,3.23,0,0,0-2.87,2,2.89,2.89,0,0,0,1.26,3.54,1.68,1.68,0,0,1,1,1.84c0,5.59,0,11.17,0,16.76,0,.35,0,.71.07,1.18,1.1,0,2.12,0,3.13,0s2.22.14,3.33.22H45.68c0-2.36.07-4.72.08-7.07,0-3.54,0-7.09,0-10.65-6,0-11.88,0-17.74,0a1.49,1.49,0,0,1-1.62-.89,2.74,2.74,0,0,0-3.28-1.53,3.06,3.06,0,0,0,.19,5.9,2.81,2.81,0,0,0,3.11-1.63,1.32,1.32,0,0,1,1.42-.81c5.26,0,10.51,0,15.77,0,.35,0,.7,0,1.09.06v16.59h-7.1c0-2.77,0-5.54.06-8.31,0-1-.37-1.18-1.25-1.16-2.76,0-5.53,0-8.29,0a1.62,1.62,0,0,1-1.79-1,2.69,2.69,0,0,0-3.2-1.39A2.93,2.93,0,0,0,21,153.35a3.06,3.06,0,0,0,1.86,3.16c1.11.45,2.66.24,3.15-.86.74-1.69,2-1.46,3.3-1.46h6.34c.31,0,.62.06,1,.1v8.37h-7.1c.09-.93-.22-1.43-1.23-1.28a1.7,1.7,0,0,1-2-1,2.66,2.66,0,0,0-4.17-.76A3.07,3.07,0,0,0,21,162.67h-7.1c0-4.26,0-8.53,0-12.79,0-.82.05-1.41,1-1.83a2.93,2.93,0,0,0,1.42-3.37,3.08,3.08,0,0,0-2.79-2.21,3.11,3.11,0,0,0-2.78,1.88,2.8,2.8,0,0,0,1.15,3.55c1.14.56,1.19,1.34,1.15,2.37,0,1.4,0,2.81,0,4.22,0,2.73.07,5.45.11,8.18H3.87v-14l.67-.35a3,3,0,0,0-1.06-5.78A2.91,2.91,0,0,0,.63,144.9a3.06,3.06,0,0,0,1.63,3.37,1.58,1.58,0,0,1,.62,1.13c0,4.42,0,8.84,0,13.27H-2V75.46a2.39,2.39,0,0,0,.58-.34C2.3,71.39,6,67.68,9.69,63.88c1-1,2.15-1.76,2.12-3.62-.14-8.6-.07-17.2-.07-25.8,0-7.07,0-14.14,0-21.21,0-1.27-.35-1.61-1.58-1.6-4.06,0-8.13,0-12.2-.05V3.9H14V-.5H28.64V2.73H60.85c.24,1,.29,1.71-.83,2.17a2.82,2.82,0,0,0-1.31,3.3,2.88,2.88,0,0,0,5.54.25,2.59,2.59,0,0,0-.93-3.28A2.26,2.26,0,0,1,62,2.53a4.19,4.19,0,0,0-.14-.94H29.59V-.49H69.15c0,1.53,0,3,0,4.42a1.12,1.12,0,0,1-.59.72,3.11,3.11,0,0,0-1.8,3.44,2.94,2.94,0,0,0,5.75,0,3.11,3.11,0,0,0-1.76-3.46c-.24-.12-.58-.39-.59-.61,0-1.51,0-3,0-4.54h7.08c0,1.22,0,2.37,0,3.52,0,.85,0,1.47-1,1.94a2.91,2.91,0,0,0-1,4A2.85,2.85,0,0,0,79,10.09a2.7,2.7,0,0,0,1.34-3.82,11.81,11.81,0,0,0-2-2.18V-.48H99.57c-.32.39-.68.64-.76,1-.31,1.16-1.12,1.17-2.07,1.16-3.39,0-6.77,0-10.15,0-.39,0-.78.05-1.32.08V18.06c-5.87,0-11.57,0-17.27,0a1.28,1.28,0,0,1-.84-.62c-1-1.7-3.11-2.27-4.46-1.17a2.9,2.9,0,0,0-1.1,3.08,2.89,2.89,0,0,0,5.46.61,1.23,1.23,0,0,1,1.39-.82c5.5,0,11,0,16.5,0,1.06,0,1.48-.2,1.46-1.42-.08-4.55,0-9.11,0-13.66,0-.44,0-.88.06-1.38,3.8,0,7.47,0,11.13,0a1.6,1.6,0,0,1,1,.8,2.83,2.83,0,0,0,3.83,1.35,2.93,2.93,0,0,0,1.48-3.75,10.5,10.5,0,0,0-1-1.62h6.88V10.85c2.84,0,5.52,0,8.21,0,.75,0,.86-.36.85-1,0-2.81,0-5.63,0-8.44,0-.65,0-1.29,0-1.94h7.09V1q0,28,0,56c0,1.76-.16,3.2-1.82,4.19a15.59,15.59,0,0,0-2.26,2.06L110.14,74a5.58,5.58,0,0,0-.56-.31,3,3,0,0,0-3.55.79,3.06,3.06,0,0,0,.06,3.89,3,3,0,0,0,3.35.78,2.88,2.88,0,0,0,1.65-3.48,1.36,1.36,0,0,1,.49-1.61c.45-.35.86-.76,1.28-1.14,3.93-3.58,7.84-7.19,11.8-10.73,1.48-1.32,2.47-2.59,2.34-4.86-.25-4.5-.07-9-.07-13.53V-.5h25.36V2.68h33.09c1,2.28,2.68,3.11,4.34,2.07a4.07,4.07,0,0,0,1.47-1.85c.55-1.37-.37-2.39-1.28-3.47h5.67V59.31h-3.8V20.1c0-2.15,0-2.1-2.08-2.09q-16.14,0-32.27,0c-.37,0-.76-.39-1.1-.65-.62-.5-1.12-1.28-1.81-1.53a2.78,2.78,0,0,0-3.64,1.8,3,3,0,0,0,1.48,3.64A2.76,2.76,0,0,0,156.2,20a1.55,1.55,0,0,1,1.63-.9q14.79,0,29.58,0c1.08,0,2.16,0,3.28,0,0,.51.06.83.06,1.16q0,8.63,0,17.25c0,7.16,0,14.32,0,21.49,0,1,.25,1.42,1.3,1.33s2.36,0,3.54,0v7.21h-11.9V28.12c0-1.79,0-1.8-1.72-1.8q-12,0-24.08,0a1.59,1.59,0,0,1-1.74-.91,2.89,2.89,0,0,0-4.59-.6,2.81,2.81,0,0,0-.66,3.08,2.72,2.72,0,0,0,2.46,1.92,2.58,2.58,0,0,0,2.83-1.51c.4-.95,1-1,1.81-1q11.56,0,23.11,0h1.53v2q0,18.89,0,37.76c0,1.07.26,1.46,1.36,1.44C187.84,68.47,191.71,68.5,195.58,68.5ZM142.08,9.88v1.57c0,17.8,0,35.61,0,53.41A6.12,6.12,0,0,1,140,69.92C132.91,76.4,126,83,119,89.58a1.42,1.42,0,0,1-1.78.39,3,3,0,0,0-3.54,1.46,3.2,3.2,0,0,0,.74,3.63,2.8,2.8,0,0,0,3.89-.08,3,3,0,0,0,.53-3.83c2.32-2.19,4.57-4.34,6.83-6.47l16.48-15.45a2.74,2.74,0,0,0,1-2.26c-.08-2.23,0-4.46,0-6.7V10.86h1.57q15.66,0,31.3,0c.79,0,1.3.08,1.7.95a2.77,2.77,0,0,0,3.41,1.46,2.94,2.94,0,0,0,2-2.92A2.88,2.88,0,0,0,177.69,9a1.36,1.36,0,0,1-1.5.86q-15.84,0-31.67,0ZM85.36,60.32c5.65,0,11.11,0,16.57,0a1.34,1.34,0,0,0,.8-.44c2.39-2.4,4.75-4.85,7.17-7.23a2.73,2.73,0,0,0,.86-2.17c0-8.24,0-16.48,0-24.72a1.42,1.42,0,0,1,.86-1.51A3.09,3.09,0,0,0,112.76,20a3.16,3.16,0,0,0-4-1,2.8,2.8,0,0,0-1.14,4,10.13,10.13,0,0,0,2,1.91v1.82c0,7.91,0,15.82,0,23.72a2.35,2.35,0,0,1-.65,1.46c-2.11,2.23-4.26,4.44-6.45,6.58a2.6,2.6,0,0,1-1.67.73c-4.48.06-9,0-13.45,0-.31,0-.63,0-1.09-.08V57.8c0-4.47,0-8.94,0-13.4,0-1.22-.26-1.6-1.54-1.6-16.18.05-32.36,0-48.54.05-.87,0-1.5-.06-1.88-1.07a2.72,2.72,0,0,0-3.27-1.26,2.75,2.75,0,0,0-2.08,2.84,2.86,2.86,0,0,0,2.33,2.91c1,.27,2.75-.34,3-1.31s.95-1.11,1.83-1.11q23.9,0,47.8,0h1.27Zm8.15-24.73c0,4.57,0,8.91,0,13.25,0,.91.26,1.23,1.18,1.21Q98,50,101.39,50c1,0,1.24-.33,1.23-1.3,0-7.41,0-14.82,0-22.22,0-1,0-1.88,1.17-2.52a2.86,2.86,0,0,0,.7-4.14,3.08,3.08,0,0,0-4-.73A2.94,2.94,0,0,0,99.51,23a10.69,10.69,0,0,0,1.92,1.87V48.9h-7V47.5c0-3.89,0-7.78.06-11.67,0-.87-.12-1.46-1.23-1.25a10.45,10.45,0,0,1-1.94,0q-27.37,0-54.75,0c-1,0-1.71-.12-2.19-1.21A2.73,2.73,0,0,0,31,32.27a3,3,0,0,0-1.93,2.87A2.91,2.91,0,0,0,31.33,38a2.68,2.68,0,0,0,3.06-1.24c.42-1.07,1.08-1.2,2.06-1.19q26.84,0,53.66,0Zm97.25,41.18v1.51q0,15.77,0,31.55a2.16,2.16,0,0,1-1.14,2.27,2.74,2.74,0,0,0-1.17,3.34,3.07,3.07,0,0,0,2.9,2,2.88,2.88,0,0,0,2.66-2c.41-1.54.05-2.87-1.26-3.52-.94-.47-1-1.1-1-2q0-16.33,0-32.67c0-1.64,0-1.64-1.59-1.64H176.87c-.43,0-.86,0-1.33-.06V47.43c0-3.89,0-7.78,0-11.67,0-.85-.18-1.22-1.16-1.2-5.3.06-10.6,0-15.89.06-1.09,0-1.93,0-2.57-1.24a2.75,2.75,0,0,0-3.44-1.06,3.33,3.33,0,0,0-1.82,2.86A3.12,3.12,0,0,0,153,38a2.74,2.74,0,0,0,3.17-1.51,1.5,1.5,0,0,1,1.61-.92c5.17,0,10.34,0,15.52,0,.39,0,.78,0,1.26.08V60.84c0,4.85,0,9.69,0,14.53,0,1.24.42,1.44,1.47,1.42,3-.06,6,0,9,0Zm-137.92,40a3,3,0,0,1-.52.12c-5.54,0-11.08,0-16.62,0a1.62,1.62,0,0,1-1.1-.82,2.9,2.9,0,0,0-3.32-1.45,2.73,2.73,0,0,0-2.19,2.87,2.93,2.93,0,0,0,2.22,2.9,2.79,2.79,0,0,0,3.18-1.47c.35-.87.89-1,1.69-1,5.42,0,10.84,0,16.25,0,1.22,0,1.5-.37,1.49-1.54,0-7.2,0-14.4,0-21.61v-1.5c.39,0,.62-.08.86-.08q23.34,0,46.68,0a1.12,1.12,0,0,1,1.23.86,2.72,2.72,0,0,0,3.13,1.56,2.77,2.77,0,0,0,2.3-2.79,2.92,2.92,0,0,0-1.95-3,2.76,2.76,0,0,0-3.38,1.3c-.39,1-1,1-1.79,1H54.42c-1.53,0-1.58,0-1.58,1.6v23ZM20.51,52c.29,0,.48.08.68.08l20.77,0c7,0,14,0,21,0a1.44,1.44,0,0,1,1,.7,3,3,0,0,0,5.68-1.13,3.2,3.2,0,0,0-2-2.95,2.73,2.73,0,0,0-3.43,1.4c-.39,1-1,1-1.77,1H21.57V27.33c8.27,0,16.46,0,24.64,0a1.61,1.61,0,0,1,1.71,1,2.87,2.87,0,0,0,4.64.72,2.9,2.9,0,0,0,.64-3.21A2.71,2.71,0,0,0,50.77,24a3,3,0,0,0-3,1.56,1.58,1.58,0,0,1-1,.74c-6.11,0-12.22,0-18.33,0-2.63,0-5.26,0-7.94,0Zm162,33a3.79,3.79,0,0,1,.11.53c0,8.4,0,16.81,0,25.21a1.64,1.64,0,0,1-.73,1,3.11,3.11,0,0,0-1.57,3.44,2.93,2.93,0,0,0,2.88,2.23,3,3,0,0,0,2.84-2.13,2.84,2.84,0,0,0-1.41-3.37,1.75,1.75,0,0,1-1-1.86c0-8.12,0-16.23,0-24.34,0-.56-.05-1.12-.09-1.83H167.47V82.29q0-19,0-38c0-1.11-.24-1.54-1.41-1.5-2.81.08-5.62,0-8.43,0a1.35,1.35,0,0,1-1.42-.83,2.92,2.92,0,0,0-4.56-.87A3,3,0,1,0,156.1,45c.28-.4.64-1,1-1,3.08-.08,6.16-.05,9.32-.05,0,.53,0,.94,0,1.34,0,3.6,0,7.19,0,10.79V83.32c0,1.66,0,1.67,1.7,1.67h14.35ZM78.22,69.57c0-3.95,0-7.71,0-11.47,0-.31.44-.71.77-.89A3.17,3.17,0,0,0,80.63,54a2.81,2.81,0,0,0-2.82-2.41,2.93,2.93,0,0,0-1.46,5.5c.79.35.85.84.84,1.54,0,3.44,0,6.88,0,10.31,0,1.23.27,1.63,1.54,1.62,7.54-.07,15.08,0,22.62-.06a2.89,2.89,0,0,0,1.74-.63c5-4.35,9.94-8.76,14.91-13.14a2.43,2.43,0,0,0,.85-2c0-9.61,0-19.21,0-28.81V24.62c1.73-.73,2.65-2.09,2.4-3.42a3.05,3.05,0,0,0-2.73-2.59,2.84,2.84,0,0,0-2.92,2c-.53,1.81,0,2.84,2.3,4.17v1.46c0,8.9-.06,17.8,0,26.7a4.91,4.91,0,0,1-2,4.24c-4.41,3.76-8.73,7.65-13,11.55a3.07,3.07,0,0,1-2.27.89c-7,0-13.93,0-20.9,0Zm-14.55-1c.18.36.33.74.54,1.08a3,3,0,0,0,3.42,1.26,3.11,3.11,0,0,0,2-2.94,3.38,3.38,0,0,0-2.2-2.85,2.83,2.83,0,0,0-3.29,1.53c-.34.89-.85.92-1.57.92-8.14,0-16.29,0-24.44,0-1.26,0-1.56.39-1.55,1.62,0,8.78,0,17.56,0,26.33v5.06H20.8v1.62c0,3.77,0,7.53,0,11.29a1.32,1.32,0,0,1-.83,1.43,2.91,2.91,0,0,0-1.51,3.33,3.1,3.1,0,0,0,2.86,2.28,3.07,3.07,0,0,0,2.84-2.14,2.87,2.87,0,0,0-1.47-3.46,1.36,1.36,0,0,1-.91-1.51c0-1.7,0-3.39,0-5.09v-6.78H37.69V68.54Zm-51,6.36c0,3,0,6,0,9a3,3,0,0,1-.72,1.81C9.9,87.9,7.8,90,5.7,92a3.46,3.46,0,0,0-1.11,2.7c0,10.68,0,21.36,0,32v8.37H6.23c7.21,0,14.42,0,21.63,0,.77,0,1.31,0,1.67.94a2.91,2.91,0,0,0,3.31,1.48,3.07,3.07,0,0,0,2.22-3.05,3,3,0,0,0-2.16-2.7,2.76,2.76,0,0,0-3.39,1.5c-.35.91-.88.89-1.57.89H5.56v-1.44c0-3.23,0-6.45,0-9.68,0-9.52,0-19,0-28.56a2,2,0,0,1,.51-1.29c2.27-2.35,4.61-4.64,6.87-7a2.77,2.77,0,0,0,.69-1.7c.06-3.23,0-6.46,0-9.65,2.06-1,2.69-2.15,2.27-3.91a2.86,2.86,0,0,0-2.78-2.17,3.06,3.06,0,0,0-2.91,2.38C9.93,72.56,10.76,73.88,12.67,74.9ZM45.72,85H96.14a8.56,8.56,0,0,0,.41.91,3,3,0,0,0,3.35,1.43,3,3,0,0,0,2.17-2.7,3,3,0,0,0-1.76-2.85c-1.3-.51-3-.2-3.57,1S95.38,84,94.42,84q-24.06,0-48.13,0c-1.25,0-1.56.36-1.55,1.61.06,7.29,0,14.57,0,21.85v1.35c-2.83,0-5.55,0-8.27,0-.94,0-1.63-.06-2.08-1.13a2.75,2.75,0,0,0-3.27-1.29,3,3,0,0,0-2.05,2.91,2.91,2.91,0,0,0,2.12,2.86,2.71,2.71,0,0,0,3.17-1.23c.43-1.07,1.07-1.21,2.06-1.19,3,0,6.09,0,9.28,0Zm-24-22.61c.27-.1.46-.15.64-.24a3.12,3.12,0,0,0,1.75-3.57,3.06,3.06,0,0,0-2.8-2.19,3,3,0,0,0-2.9,2.21,2.85,2.85,0,0,0,1.66,3.45c.78.34.7.87.7,1.47,0,6.79,0,13.58,0,20.37a2.58,2.58,0,0,1-.89,2c-2.15,2.13-4.25,4.3-6.4,6.44a2.75,2.75,0,0,0-.88,2.16q0,15.51,0,31c0,1.08.29,1.45,1.38,1.43,4.32,0,8.64,0,13,0,1.26,0,2.28,0,3,1.38.51,1,2,1.27,3.18.86a2.88,2.88,0,0,0,1.9-2.63,2.76,2.76,0,0,0-1.64-2.79c-1.86-.82-3.23-.18-4.29,2H13.74v-5.06q0-13,0-25.95a2.6,2.6,0,0,1,.56-1.64c2.17-2.28,4.39-4.5,6.63-6.72a2.76,2.76,0,0,0,.87-2.16C21.73,77,21.75,69.78,21.75,62.43ZM134,35.89c0,8.89,0,17.79,0,26.69a2.44,2.44,0,0,1-.48,1.54c-1.19,1.23-2.49,2.36-3.75,3.52-4.91,4.57-9.83,9.13-14.72,13.73a1.44,1.44,0,0,1-1.77.46,2.78,2.78,0,0,0-3.62,1.61,3,3,0,0,0,.79,3.37,2.59,2.59,0,0,0,3.47.24,2.81,2.81,0,0,0,1.16-3.35,1.1,1.1,0,0,1,.4-1.35c2-1.79,3.89-3.63,5.83-5.44,4.37-4.07,8.75-8.13,13.09-12.22a2.19,2.19,0,0,0,.59-1.38c.06-3.39.07-6.78.07-10.17q0-22-.06-43.95c0-.67.09-1.09.83-1.4a3,3,0,0,0,1.51-3.56,3.1,3.1,0,0,0-2.76-2.08,3,3,0,0,0-2.89,2.22,2.85,2.85,0,0,0,1.41,3.37c.85.34.93.82.93,1.58Q134,22.6,134,35.89Zm24.38,16.32V53.5c0,12.74,0,25.49,0,38.23,0,1.33.43,1.56,1.6,1.55,4.4-.06,8.8,0,13.2,0,.43,0,.87,0,1.36.06v18.11l-.43.22a3.08,3.08,0,0,0-1.91,3.48,2.95,2.95,0,0,0,5.72.17c.39-1.46-.22-2.65-1.7-3.61a1.73,1.73,0,0,1-.63-1.23c0-5.63-.06-11.26,0-16.88,0-1.14-.38-1.42-1.39-1.41-4.48,0-9,0-13.44,0h-1.39V90.66c0-12.7,0-25.41,0-38.11,0-1.06-.16-1.69-1.39-1.47a1.51,1.51,0,0,1-1.83-.94,3.3,3.3,0,0,0-1.84-1.45,2.81,2.81,0,0,0-3.46,2,3,3,0,0,0,1.6,3.62,2.77,2.77,0,0,0,3.69-1.22A1.59,1.59,0,0,1,158.39,52.21Zm-32.54,64.72h-1.44c-5.17,0-10.34-.05-15.51-.05q-20.1,0-40.2.06c-.8,0-1.37,0-1.79-1a2.71,2.71,0,0,0-3.47-1.26,2.86,2.86,0,0,0-1.91,2.73,2.94,2.94,0,0,0,2.16,2.94,2.69,2.69,0,0,0,3.2-1.39,1.71,1.71,0,0,1,1.89-1q28.27,0,56.56,0c1.58,0,1.58,0,1.58-1.65q0-8.13,0-16.26c0-.82,0-1.44,1-1.81a2.76,2.76,0,0,0,1.33-3.17,2.62,2.62,0,0,0-2.38-2.23,2.84,2.84,0,0,0-3.07,1.53c-.81,1.71-.13,3.52,2.07,4.39ZM92,125.88c-.06-.17-.12-.28-.16-.39a3.06,3.06,0,0,0-3.13-2,2.86,2.86,0,0,0-2.5,2.77,2.78,2.78,0,0,0,1.88,3,2.75,2.75,0,0,0,3.58-1.49C92,127,92.45,127,93,127c5.62,0,11.23,0,16.85,0h49.38a6.55,6.55,0,0,1,1.47,0,1.68,1.68,0,0,1,1,.66,3,3,0,0,0,3.46,1.6,2.76,2.76,0,0,0,2.08-3,2.8,2.8,0,0,0-2.42-2.83c-1.34-.29-2.6.57-3.42,2.39ZM71.64,154.19c.43.6.75,1.13,1.15,1.59a2.62,2.62,0,0,0,3.12.7,3.09,3.09,0,0,0,1.81-2.84,3,3,0,0,0-2-2.81,3.08,3.08,0,0,0-3.54,1.51c-.21.34-.55.83-.84.84-3,.06-6.08,0-9.26,0v-1.45c0-7.25,0-14.5,0-21.74,0-1.16-.26-1.59-1.48-1.58-5.5.06-11,0-16.51,0-.42,0-.85.07-1.33.11,0,1.21,0,2.29,0,3.36a1.65,1.65,0,0,1-1,1.85,2.68,2.68,0,0,0-1.48,3,2.75,2.75,0,0,0,2,2.3A2.85,2.85,0,0,0,46,137.48a3,3,0,0,0-1.37-3.83c-.32-.2-.8-.47-.82-.74-.09-1.09,0-2.2,0-3.28H61v24.56ZM29.53,60.39c.34,0,.54-.06.74-.06q16.31,0,32.63,0c.81,0,1,.39,1.27,1a2.92,2.92,0,0,0,3.22,1.44,3.13,3.13,0,0,0,2.28-2.9A2.87,2.87,0,0,0,67.55,57a2.7,2.7,0,0,0-3.35,1.3c-.35.91-.86,1-1.65,1-10.84,0-21.67,0-32.51,0-1.22,0-1.49.39-1.48,1.55,0,8.2,0,16.4,0,24.6v1.3c-.36.18-.62.29-.86.44a3.07,3.07,0,0,0-1.53,3.47,3.44,3.44,0,0,0,2.94,2.23,3.33,3.33,0,0,0,2.79-2.28,3,3,0,0,0-1.7-3.47c-.66-.32-.71-.75-.71-1.35q0-6.78,0-13.54ZM135,116.86v-1.5c0-7.74,0-15.48,0-23.22,0-1,.07-1.74,1.15-2.26a2.74,2.74,0,0,0,1.15-3.45,3,3,0,0,0-5.62.3A2.77,2.77,0,0,0,133,90a1.67,1.67,0,0,1,1,1.81c0,8.19,0,16.39,0,24.58v1.54h27c.17.33.28.6.42.85a2.94,2.94,0,0,0,3.36,1.61,3,3,0,0,0,2.2-2.94,2.84,2.84,0,0,0-2.14-2.8,2.67,2.67,0,0,0-3.43,1.59c-.33.72-.77.7-1.35.7H136.23C135.87,116.92,135.52,116.89,135,116.86Zm8.26-8.11a4,4,0,0,1-.11-.63c0-8.4,0-16.8,0-25.21a1.37,1.37,0,0,1,.68-.93,3,3,0,0,0,1.56-3.43,2.8,2.8,0,0,0-2.68-2.27,2.91,2.91,0,0,0-2.94,2.29,2.76,2.76,0,0,0,1.36,3.23c.91.37.94.92.94,1.71q0,12.17,0,24.34c0,2.09-.21,1.85,1.83,1.85H160.5a14.74,14.74,0,0,0,2.63,2.31,2.8,2.8,0,0,0,3.63-1.63,3.12,3.12,0,0,0-1.26-3.78,3,3,0,0,0-3.81.86c-.36.47-.81,1.22-1.23,1.23C154.76,108.77,149.06,108.75,143.26,108.75Zm-25,.46a3,3,0,0,0-2.09-2.88,2.7,2.7,0,0,0-3.35,1.53,1.35,1.35,0,0,1-1.49.9c-3.54-.05-7.09-.06-10.63-.06l-32.27,0c-.64,0-1,0-1.37-.82a2.89,2.89,0,0,0-3.47-1.59,3.05,3.05,0,0,0-2.07,2.9,3,3,0,0,0,2.23,2.89,2.8,2.8,0,0,0,3.32-1.66c.29-.71.67-.77,1.28-.77q21.57,0,43.15,0a1.21,1.21,0,0,1,1.28.83,2.87,2.87,0,0,0,5.48-1.31Zm33-8.73V99.06c0-10.67,0-21.34,0-32a1.77,1.77,0,0,1,1-1.83,2.77,2.77,0,0,0,1.23-3.42,2.93,2.93,0,0,0-5.61.18,2.74,2.74,0,0,0,1.33,3.26,1.83,1.83,0,0,1,1.07,1.93q0,16.32,0,32.63v1.68H161c.26.46.44.83.67,1.17a2.78,2.78,0,0,0,3.06,1.24,3,3,0,0,0,2.28-3,2.83,2.83,0,0,0-2.08-2.72,2.94,2.94,0,0,0-3.51,1.51c-.18.31-.51.75-.78.75C157.55,100.5,154.51,100.48,151.28,100.48ZM94.43,10.86c.83,0,1.48,0,2.12,0,1-.06,1.82,0,2.27,1.23.39,1.1,1.94,1.51,3.18,1.17a3,3,0,0,0,2.1-2.75,2.82,2.82,0,0,0-2-2.88c-1.18-.39-2.82,0-3.2,1-.48,1.36-1.38,1.27-2.4,1.23-.53,0-1.07,0-1.59,0-1.07-.15-1.4.28-1.38,1.37.05,4.47,0,8.94,0,13.41v1.54a3.48,3.48,0,0,1-.52.11c-8.31,0-16.62,0-24.93,0a1.36,1.36,0,0,1-.91-.67,3,3,0,0,0-3.53-1.54,2.8,2.8,0,0,0-2.1,2.71,2.86,2.86,0,0,0,2,2.92A2.77,2.77,0,0,0,67,28.21c.38-.88.88-.89,1.59-.89H94.43Zm-7.68,90.66c6.19,0,12.38,0,18.57,0,.65,0,1.08.06,1.37.83a2.9,2.9,0,0,0,3.13,1.6,3.11,3.11,0,0,0,2.4-3A2.85,2.85,0,0,0,110,98.15a3.07,3.07,0,0,0-3.42,1.53,1.63,1.63,0,0,1-1.1.78q-18.63,0-37.25,0a1.44,1.44,0,0,1-1-.66,3.09,3.09,0,0,0-3.49-1.66,2.88,2.88,0,0,0-2.17,2.79,3,3,0,0,0,2.28,3,2.85,2.85,0,0,0,3.24-1.6c.32-.75.74-.79,1.38-.79ZM69.66,76.77H87.13c.61,0,1,.06,1.31.76a2.77,2.77,0,0,0,3.28,1.68A3,3,0,0,0,94,76.3a3,3,0,0,0-2-2.83,2.74,2.74,0,0,0-3.49,1.46c-.32.78-.78.79-1.41.79q-17.4,0-34.8,0a1.5,1.5,0,0,1-1.6-.94,2.75,2.75,0,0,0-3.46-1.31,3,3,0,0,0-1.93,2.87,2.92,2.92,0,0,0,2.16,2.83,2.73,2.73,0,0,0,3.27-1.49,1.49,1.49,0,0,1,1.61-.94C58.1,76.78,63.88,76.77,69.66,76.77ZM35.75,19.12c3.55,0,7.09,0,10.63,0A1.45,1.45,0,0,1,47.9,20a2.87,2.87,0,0,0,3.39,1.54,3.26,3.26,0,0,0,2.16-2.87,3.31,3.31,0,0,0-1.9-2.8A2.81,2.81,0,0,0,48,17.17a1.62,1.62,0,0,1-1.76.9c-7.08,0-14.17,0-21.25-.05a1.67,1.67,0,0,1-1.17-.7c-1.15-1.71-3.32-2.19-4.61-.95a3.1,3.1,0,0,0-.82,3.31,2.7,2.7,0,0,0,2.34,1.9,2.59,2.59,0,0,0,2.87-1.43,1.76,1.76,0,0,1,1.91-1C28.92,19.15,32.34,19.12,35.75,19.12Zm0-8.26c3.58,0,7.16,0,10.75,0a1.17,1.17,0,0,1,1.27.79,2.92,2.92,0,0,0,3.46,1.64,3.24,3.24,0,0,0,2.2-2.85,3.06,3.06,0,0,0-2.29-2.85,2.78,2.78,0,0,0-3.34,1.57,1.22,1.22,0,0,1-1.32.75q-10.74,0-21.49,0a1.22,1.22,0,0,1-1.29-.79A2.91,2.91,0,0,0,19,8.34a3,3,0,0,0-.61,3.12,2.67,2.67,0,0,0,2.37,1.87,2.72,2.72,0,0,0,2.93-1.57,1.46,1.46,0,0,1,1.59-.92C28.79,10.88,32.29,10.86,35.79,10.86ZM78.22,139.41c0-.95,0-1.82,0-2.68-.08-1.09.06-1.91,1.25-2.4.94-.39,1.42-2,1.15-3A2.8,2.8,0,0,0,77.92,129a2.88,2.88,0,0,0-2.87,1.68c-.48,1.29-.28,3,.78,3.46,1.54.65,1.38,1.8,1.36,3,0,.74,0,1.49,0,2.2-2.14,1.29-2.69,2.31-2.21,4a2.91,2.91,0,0,0,2.83,2.09A3.08,3.08,0,0,0,80.64,143C80.93,141.63,80.11,140.39,78.22,139.41Zm-9.08,0c-2,1-2.71,2.14-2.41,3.72a3.21,3.21,0,0,0,2.79,2.37,3,3,0,0,0,2.92-2.18c.45-1.54-.25-2.75-2.34-4,0-.84,0-1.71,0-2.57-.06-1.07,0-1.91,1.21-2.44a2.7,2.7,0,0,0,1.15-3.12A2.81,2.81,0,0,0,69.69,129a2.93,2.93,0,0,0-2.9,2c-.35,1.06,0,2.74,1,3.18,1.41.62,1.44,1.64,1.36,2.86C69.1,137.87,69.14,138.66,69.14,139.41Z"/><path d="M-2,74.21V63.28c1.63-1.61,3.3-3.17,4.85-4.85a3.15,3.15,0,0,0,.74-1.94c0-11.71,0-23.43,0-35.15V19.8H-2V12.6H10.71v1.74c0,7-.05,14,0,21,0,8.44,0,16.88,0,25.32a2,2,0,0,1-.52,1.28C6.13,66,2.06,70.12-2,74.21Z"/><path class="cls-1" d="M195.58-.57h-5.67c.91,1.08,1.83,2.1,1.28,3.47a4.07,4.07,0,0,1-1.47,1.85c-1.66,1-3.32.21-4.34-2.07H152.29V-.5H126.93V43.78c0,4.51-.18,9,.07,13.53.13,2.27-.86,3.54-2.34,4.86-4,3.54-7.87,7.15-11.8,10.73-.42.38-.83.79-1.28,1.14a1.36,1.36,0,0,0-.49,1.61,2.88,2.88,0,0,1-1.65,3.48,3,3,0,0,1-3.35-.78,3.06,3.06,0,0,1-.06-3.89,3,3,0,0,1,3.55-.79,5.58,5.58,0,0,1,.56.31l11.69-10.7a15.59,15.59,0,0,1,2.26-2.06c1.66-1,1.83-2.43,1.82-4.19q-.07-28,0-56V-.51h-7.09c0,.65,0,1.29,0,1.94,0,2.81,0,5.63,0,8.44,0,.64-.1,1-.85,1-2.69,0-5.37,0-8.21,0V-.51h-6.88a10.5,10.5,0,0,1,1,1.62,2.93,2.93,0,0,1-1.48,3.75,2.83,2.83,0,0,1-3.83-1.35,1.6,1.6,0,0,0-1-.8c-3.66,0-7.33,0-11.13,0,0,.5-.06.94-.06,1.38,0,4.55,0,9.11,0,13.66,0,1.22-.4,1.43-1.46,1.42-5.5-.05-11,0-16.5,0a1.23,1.23,0,0,0-1.39.82,2.89,2.89,0,0,1-5.46-.61,2.9,2.9,0,0,1,1.1-3.08c1.35-1.1,3.42-.53,4.46,1.17A1.28,1.28,0,0,0,68,18c5.7,0,11.4,0,17.27,0V1.71c.54,0,.93-.08,1.32-.08,3.38,0,6.76,0,10.15,0,1,0,1.76,0,2.07-1.16.08-.32.44-.57.76-1H78.32V4.09a11.81,11.81,0,0,1,2,2.18A2.7,2.7,0,0,1,79,10.09,2.85,2.85,0,0,1,75.19,9a2.91,2.91,0,0,1,1-4c1-.47,1-1.09,1-1.94,0-1.15,0-2.3,0-3.52H70.1c0,1.52,0,3,0,4.54,0,.22.35.49.59.61a3.11,3.11,0,0,1,1.76,3.46,2.94,2.94,0,0,1-5.75,0,3.11,3.11,0,0,1,1.8-3.44,1.12,1.12,0,0,0,.59-.72c.06-1.44,0-2.89,0-4.42H29.59V1.59H61.9a4.19,4.19,0,0,1,.14.94,2.26,2.26,0,0,0,1.28,2.64,2.59,2.59,0,0,1,.93,3.28,2.88,2.88,0,0,1-5.54-.25A2.82,2.82,0,0,1,60,4.9c1.12-.46,1.07-1.15.83-2.17H28.64V-.5H14V3.9H-2v-1H13V-.57H-2c0-.08.08-.24.12-.24.33,0,.65,0,1,0H194.48A5.28,5.28,0,0,1,195.58-.57ZM117.75,9.82V-.47h-6.94V9.82ZM186.62-.48H153.38V1.63h11.06q10,0,19.91,0a1.73,1.73,0,0,0,1.17-.34A10.84,10.84,0,0,0,186.62-.48ZM69.6,9.37a2,2,0,0,0,2-1.94,2.1,2.1,0,0,0-2-2,2,2,0,0,0-1.87,1.92A1.9,1.9,0,0,0,69.6,9.37ZM61.47,5.44a2,2,0,0,0-1.87,2,1.89,1.89,0,0,0,1.94,1.91,2,2,0,0,0,1.91-2A2.14,2.14,0,0,0,61.47,5.44Zm18.18,2a2,2,0,0,0-2-2A2.08,2.08,0,0,0,75.81,7.5a2,2,0,0,0,1.91,1.87A1.93,1.93,0,0,0,79.65,7.41ZM190.24,2.22a2,2,0,0,0-1.88-2,2.08,2.08,0,0,0-2,2,2,2,0,0,0,1.87,1.91A1.88,1.88,0,0,0,190.24,2.22ZM106.39,76.36a2,2,0,0,0,1.92,2,2.17,2.17,0,0,0,1.93-2,1.94,1.94,0,0,0-2-1.84A1.78,1.78,0,0,0,106.39,76.36ZM101.18,4.11a2,2,0,0,0,1.94-2,2.18,2.18,0,0,0-2-1.93,2,2,0,0,0-1.84,1.94A1.94,1.94,0,0,0,101.18,4.11ZM64.38,20.56a1.91,1.91,0,0,0,.09-3.82,1.78,1.78,0,0,0-1.91,1.79A1.85,1.85,0,0,0,64.38,20.56Z"/><path d="M-2,61.79V21H2.57a3.5,3.5,0,0,1,.08.47q0,17.49,0,35a1.53,1.53,0,0,1-.31,1C.92,59-.55,60.36-2,61.79Z"/><path class="cls-1" d="M195.58,162.42h-19V161c0-4.72,0-9.45,0-14.17a2.92,2.92,0,0,0-.67-1.83c-2.15-2.29-4.38-4.51-6.62-6.7a2.11,2.11,0,0,0-1.38-.54c-11.53,0-23.07,0-34.6,0a1.39,1.39,0,0,0-1.39.88,3.05,3.05,0,0,1-3.17,1.61,3.67,3.67,0,0,1-2.34-2.49,3.24,3.24,0,0,1,1.43-3.08c1.64-1,3.41-.24,4.56,2.07h1.38q16.94,0,33.86,0a3.29,3.29,0,0,1,2.68,1.1c2.15,2.3,4.44,4.48,6.62,6.77a2.64,2.64,0,0,1,.61,1.63c0,4.55,0,9.11,0,13.66v1.55h18Zm-64.39-25.14a1.89,1.89,0,0,0-1.85-2,2.06,2.06,0,0,0-2,2,2,2,0,0,0,1.86,1.91A1.8,1.8,0,0,0,131.19,137.28Z"/><path class="cls-1" d="M195.58,60.3c-1.18,0-2.36,0-3.54,0s-1.3-.33-1.3-1.33c0-7.17,0-14.33,0-21.49q0-8.63,0-17.25c0-.33,0-.65-.06-1.16-1.12,0-2.2,0-3.28,0q-14.79,0-29.58,0a1.55,1.55,0,0,0-1.63.9,2.76,2.76,0,0,1-3.84,1.29,3,3,0,0,1-1.48-3.64,2.78,2.78,0,0,1,3.64-1.8c.69.25,1.19,1,1.81,1.53.34.26.73.65,1.1.65q16.14,0,32.27,0c2.07,0,2.07-.06,2.08,2.09V59.31h3.8ZM151.72,18.47a1.92,1.92,0,0,0,1.78,2.08,1.81,1.81,0,0,0,2-1.67,1.79,1.79,0,0,0-1.67-2.13A1.93,1.93,0,0,0,151.72,18.47Z"/><path class="cls-1" d="M195.58,68.5c-3.87,0-7.74,0-11.61,0-1.1,0-1.36-.37-1.36-1.44q0-18.87,0-37.76v-2H181.1q-11.55,0-23.11,0c-.82,0-1.41,0-1.81,1a2.58,2.58,0,0,1-2.83,1.51,2.72,2.72,0,0,1-2.46-1.92,2.81,2.81,0,0,1,.66-3.08,2.89,2.89,0,0,1,4.59.6,1.59,1.59,0,0,0,1.74.91q12,0,24.08,0c1.71,0,1.72,0,1.72,1.8V67.51h11.9ZM153.62,25a1.84,1.84,0,0,0-1.89,2,1.93,1.93,0,0,0,2,1.89,1.8,1.8,0,0,0,1.79-1.94A1.79,1.79,0,0,0,153.62,25Z"/><path class="cls-1" d="M-2,74.21C2.06,70.12,6.13,66,10.16,61.92a2,2,0,0,0,.52-1.28c0-8.44,0-16.88,0-25.32,0-7,0-14,0-21V12.6H-2v-1c4.07,0,8.14.1,12.2.05,1.23,0,1.59.33,1.58,1.6-.07,7.07,0,14.14,0,21.21,0,8.6-.07,17.2.07,25.8,0,1.86-1.16,2.63-2.12,3.62C6,67.68,2.3,71.39-1.42,75.12a2.39,2.39,0,0,1-.58.34Z"/><path class="cls-1" d="M85.3,162.67c0-8.16,0-16.31,0-24.46,0-1.21.32-1.52,1.51-1.51,9.86.05,19.71,0,29.64,0,.49-1.43,1.31-2.44,3-2.43a2.71,2.71,0,0,1,2.87,2.46,3,3,0,0,1-2,3.33,2.83,2.83,0,0,1-3.48-1.53,1.13,1.13,0,0,0-1.25-.82q-14.11,0-28.23,0c-.28,0-.56.05-1,.08v1.49q0,10.93,0,21.86c0,.49-.06,1-.09,1.48Zm34.18-27.42a2,2,0,0,0-2,1.93,1.86,1.86,0,0,0,1.9,1.95,1.84,1.84,0,0,0,1.89-1.83A2,2,0,0,0,119.48,135.25Z"/><path class="cls-1" d="M59.38,162.67c-1.11-.08-2.22-.18-3.33-.22s-2,0-3.13,0c0-.47-.07-.83-.07-1.18,0-5.59,0-11.17,0-16.76a1.68,1.68,0,0,0-1-1.84,2.89,2.89,0,0,1-1.26-3.54,3.23,3.23,0,0,1,2.87-2,3.1,3.1,0,0,1,2.77,2.39,3,3,0,0,1-1.56,3.33c-.34.21-.76.66-.76,1,0,5.63,0,11.25,0,16.88a3.46,3.46,0,0,0,.11.57c.35,0,.71.06,1.06.06q7.88,0,15.75,0a1.49,1.49,0,0,0,1.11-.42c1.26-1.77,2.33-2.37,3.67-1.92s2.1,1.6,2.11,3.63h-1c.09-1,0-2-1-2.42a2.74,2.74,0,0,0-2,.16c-.88.43-.92,1.35-.64,2.26H71.85a4.46,4.46,0,0,0-1-.21q-3.41,0-6.79,0a4.43,4.43,0,0,0-1,.21Zm-6-24.4a1.79,1.79,0,0,0-1.81,2,1.82,1.82,0,0,0,1.84,1.88,1.94,1.94,0,0,0,1.91-2A1.86,1.86,0,0,0,53.36,138.27Z"/><path class="cls-1" d="M168.44,162.67c0-3.44-.1-6.88.06-10.3a5.43,5.43,0,0,0-1.74-4.43,5.82,5.82,0,0,0-4.64-2c-9.89.12-19.78,0-29.71,0a10.3,10.3,0,0,1-.92,1.43,2.77,2.77,0,0,1-4.38,0,3,3,0,0,1,.51-4.37,2.85,2.85,0,0,1,4.28,1,1.39,1.39,0,0,0,1.47.87c9.93,0,19.87,0,29.8,0a4.53,4.53,0,0,1,3.66,1.69c.11.12.17.3.3.38,2.27,1.52,2.51,3.75,2.38,6.27-.17,3.13-.07,6.28-.09,9.43Zm-39.12-15.21a2,2,0,0,0,1.88-2.05,1.84,1.84,0,0,0-1.86-1.88,2,2,0,0,0-2,1.93A2.18,2.18,0,0,0,129.32,147.46Z"/><path d="M-2-.57H13V2.91H-2Z"/><path class="cls-1" d="M44.71,162.67V146.08c-.39,0-.74-.06-1.09-.06-5.26,0-10.51,0-15.77,0a1.32,1.32,0,0,0-1.42.81,2.81,2.81,0,0,1-3.11,1.63,3.06,3.06,0,0,1-.19-5.9,2.74,2.74,0,0,1,3.28,1.53A1.49,1.49,0,0,0,28,145c5.86,0,11.73,0,17.74,0,0,3.56,0,7.11,0,10.65,0,2.35,0,4.71-.08,7.07ZM23.88,147.45a2.12,2.12,0,0,0,2-2,2,2,0,0,0-2-1.92A1.84,1.84,0,0,0,22,145.42,2,2,0,0,0,23.88,147.45Z"/><path class="cls-1" d="M93.61,162.67c0-1.7-.09-3.39-.1-5.08,0-3.73,0-7.46,0-11.18,0-.44,0-.89.07-1.41h22.76c1.15-2.15,2.27-2.85,3.8-2.46a3.14,3.14,0,0,1,2.2,2.94,3.21,3.21,0,0,1-2.47,3c-1.32.27-2.53-.58-3.41-2.42H94.35v16.62Zm25.82-19.14a1.88,1.88,0,0,0-1.91,1.95,2,2,0,0,0,1.94,2,2.08,2.08,0,0,0,1.86-2A1.9,1.9,0,0,0,119.43,143.53Z"/><path class="cls-1" d="M-2,61.79C-.55,60.36.92,59,2.34,57.49a1.53,1.53,0,0,0,.31-1q0-17.49,0-35A3.5,3.5,0,0,0,2.57,21H-2V19.8H3.62v1.54c0,11.72,0,23.44,0,35.15a3.15,3.15,0,0,1-.74,1.94C1.3,60.11-.37,61.67-2,63.28Z"/><path class="cls-1" d="M160.37,162.67v-8.48h-2.94c-5.33,0-10.66,0-16,0a1.31,1.31,0,0,0-1.47.91,2.81,2.81,0,0,1-3.28,1.53,3.35,3.35,0,0,1-2.24-3,3.19,3.19,0,0,1,2.29-2.88,3,3,0,0,1,3.36,1.64,1.58,1.58,0,0,0,1.14.73c6.14,0,12.29,0,18.43,0,1.67,0,1.67,0,1.67,1.69,0,2.6,0,5.21,0,7.82Zm-22.93-11a2,2,0,0,0-1.95,2,1.94,1.94,0,0,0,1.85,1.92,1.88,1.88,0,0,0,2-1.88A2,2,0,0,0,137.44,151.71Z"/><path class="cls-1" d="M101.44,162.67v-9.39h14.84c1.44-2.33,2.5-2.95,4-2.44a3,3,0,0,1-.4,5.82c-1.51.24-2.66-.56-3.41-2.41H102.66v8.42Zm17.94-7.07a1.86,1.86,0,0,0,1.93-1.79,2,2,0,0,0-1.91-2.1,2.06,2.06,0,0,0-1.89,2A1.89,1.89,0,0,0,119.38,155.6Z"/><path class="cls-1" d="M36.64,162.67V154.3c-.39,0-.7-.09-1-.1H29.29c-1.31,0-2.56-.23-3.3,1.46-.49,1.1-2,1.31-3.15.86A3.06,3.06,0,0,1,21,153.35a2.93,2.93,0,0,1,2.16-2.55,2.69,2.69,0,0,1,3.2,1.39,1.62,1.62,0,0,0,1.79,1c2.76-.06,5.53,0,8.29,0,.88,0,1.27.21,1.25,1.16-.05,2.77,0,5.54-.06,8.31ZM23.88,155.6a2,2,0,0,0,2-1.94,2.14,2.14,0,0,0-2-1.95,2,2,0,0,0-1.84,2A1.81,1.81,0,0,0,23.88,155.6Z"/><path class="cls-1" d="M195.58,126.89c-.89,0-1.78.1-2.67.11-3.29,0-6.58,0-9.87,0a2.31,2.31,0,0,0-2.4,1.15,2.86,2.86,0,0,1-4.08.73,3,3,0,0,1-.54-4.29,3,3,0,0,1,4.87.4,8.78,8.78,0,0,1,.39.92h14.3Zm-15.42-.38a1.85,1.85,0,0,0-1.83-2,2,2,0,0,0-2,1.94,2.16,2.16,0,0,0,2,2A1.85,1.85,0,0,0,180.16,126.51Z"/><path class="cls-1" d="M2.89,162.67c0-4.43,0-8.85,0-13.27a1.58,1.58,0,0,0-.62-1.13A3.06,3.06,0,0,1,.63,144.9a2.91,2.91,0,0,1,2.85-2.39,3,3,0,0,1,1.06,5.78l-.67.35v14Zm.53-15.18a2,2,0,0,0,2-2,2,2,0,0,0-2-1.95,1.91,1.91,0,0,0-1.85,1.9A1.94,1.94,0,0,0,3.42,147.49Z"/><path class="cls-1" d="M13.16,162.67c0-2.73-.08-5.45-.11-8.18,0-1.41,0-2.82,0-4.22,0-1,0-1.81-1.15-2.37a2.8,2.8,0,0,1-1.15-3.55,3.11,3.11,0,0,1,2.78-1.88,3.08,3.08,0,0,1,2.79,2.21,2.93,2.93,0,0,1-1.42,3.37c-.93.42-1,1-1,1.83,0,4.26,0,8.53,0,12.79Zm.31-15.21a1.93,1.93,0,0,0,1.9-2,1.81,1.81,0,0,0-1.77-2,1.86,1.86,0,0,0-2,1.87A2,2,0,0,0,13.47,147.46Z"/><path class="cls-1" d="M109.75,162.67V161.4h1.34c4.1,0,8.2,0,12.31,0a1.48,1.48,0,0,0,1.62-.88,2.66,2.66,0,0,1,3.47-1.41,2.77,2.77,0,0,1,1.8,3.55h-1a6.3,6.3,0,0,0,.09-.85,1.91,1.91,0,0,0-1.88-1.86,1.88,1.88,0,0,0-1.86,1.85c0,.29,0,.57,0,.86h-1a2.14,2.14,0,0,0-.65-.21q-6.33,0-12.64,0a2.06,2.06,0,0,0-.65.21Z"/><path class="cls-1" d="M195.58,144c-2,0-4-.11-6-.07-.3,0-.69.45-.89.78a2.86,2.86,0,0,1-3.18,1.54,2.71,2.71,0,0,1-2.31-2.09,2.91,2.91,0,0,1,1.22-3.25,2.76,2.76,0,0,1,4.16,1,1.46,1.46,0,0,0,1.6.91c1.79-.06,3.58-.06,5.36-.09Zm-9.48,1.35a2.09,2.09,0,0,0,1.93-2,1.93,1.93,0,0,0-2-1.86,1.79,1.79,0,0,0-1.83,1.87A1.93,1.93,0,0,0,186.1,145.38Z"/><path class="cls-1" d="M195.58,152.23c-2,0-4-.09-6,0-.33,0-.71.51-.94.87a3.1,3.1,0,0,1-3.09,1.54,3.33,3.33,0,0,1-2.41-2.37,3,3,0,0,1,1.33-3.1,2.9,2.9,0,0,1,3.91.72,14.32,14.32,0,0,1,.75,1.38h6.41Zm-9.44-2.56a1.88,1.88,0,0,0-1.92,2,1.75,1.75,0,0,0,1.77,1.9,1.92,1.92,0,0,0,2-1.82A2.06,2.06,0,0,0,186.14,149.67Z"/><path class="cls-1" d="M195.58,135.58c-1.82,0-3.65.08-5.47.07a1.28,1.28,0,0,0-1.41.81,2.86,2.86,0,0,1-3.34,1.63,3.06,3.06,0,0,1,.22-5.94,3,3,0,0,1,3.1,1.7,1.17,1.17,0,0,0,1.3.77c1.87,0,3.74,0,5.6,0Zm-9.48,1.51a2,2,0,0,0,1.93-2,2.12,2.12,0,0,0-2-2,2,2,0,0,0-1.83,2.08A1.84,1.84,0,0,0,186.1,137.09Z"/><path class="cls-1" d="M21,162.67a3.07,3.07,0,0,1,1.12-3.08,2.66,2.66,0,0,1,4.17.76,1.7,1.7,0,0,0,2,1c1-.15,1.32.35,1.23,1.28H25.63a1.63,1.63,0,0,0-.53-2.19,2.63,2.63,0,0,0-1.9-.34,1.71,1.71,0,0,0-1.2,1.92c0,.2,0,.4,0,.61Z"/><path d="M22,162.67c0-.21,0-.41,0-.61a1.71,1.71,0,0,1,1.2-1.92,2.63,2.63,0,0,1,1.9.34,1.63,1.63,0,0,1,.53,2.19Z"/><path d="M73.07,162.67c-.28-.91-.24-1.83.64-2.26a2.74,2.74,0,0,1,2-.16c1,.4,1.1,1.42,1,2.42Z"/><path d="M125.65,162.67c0-.29,0-.57,0-.86a1.88,1.88,0,0,1,1.86-1.85,1.91,1.91,0,0,1,1.88,1.86,6.3,6.3,0,0,1-.09.85Z"/><path class="cls-1" d="M143,162.67a2.49,2.49,0,0,1,2.42-1.69,2.75,2.75,0,0,1,2.71,1.69Z"/><path d="M110.73,162.67a2.06,2.06,0,0,1,.65-.21q6.32,0,12.64,0a2.14,2.14,0,0,1,.65.21Z"/><path d="M63.05,162.67a4.43,4.43,0,0,1,1-.21q3.39,0,6.79,0a4.46,4.46,0,0,1,1,.21Z"/><path class="cls-1" d="M142.08,9.88h2.44q15.84,0,31.67,0a1.36,1.36,0,0,0,1.5-.86,2.88,2.88,0,0,1,5.45,1.3,2.94,2.94,0,0,1-2,2.92,2.77,2.77,0,0,1-3.41-1.46c-.4-.87-.91-.95-1.7-.95q-15.64,0-31.3,0h-1.57V60.27c0,2.24-.06,4.47,0,6.7a2.74,2.74,0,0,1-1,2.26L125.71,84.68c-2.26,2.13-4.51,4.28-6.83,6.47a3,3,0,0,1-.53,3.83,2.8,2.8,0,0,1-3.89.08,3.2,3.2,0,0,1-.74-3.63A3,3,0,0,1,117.26,90a1.42,1.42,0,0,0,1.78-.39C126,83,132.91,76.4,140,69.92a6.12,6.12,0,0,0,2.17-5.06c-.09-17.8,0-35.61,0-53.41Zm40,.5a1.86,1.86,0,0,0-1.82-1.92,2.11,2.11,0,0,0-2,1.91,2.14,2.14,0,0,0,1.95,2A1.91,1.91,0,0,0,182.12,10.38ZM116.4,90.89a2,2,0,0,0-2,1.91,2.23,2.23,0,0,0,2,2,2.07,2.07,0,0,0,1.87-1.93A1.84,1.84,0,0,0,116.4,90.89Z"/><path class="cls-1" d="M85.36,60.32V43.86H84.09q-23.91,0-47.8,0c-.88,0-1.5,0-1.83,1.11s-2,1.58-3,1.31a2.86,2.86,0,0,1-2.33-2.91,2.75,2.75,0,0,1,2.08-2.84,2.72,2.72,0,0,1,3.27,1.26c.38,1,1,1.07,1.88,1.07,16.18,0,32.36,0,48.54-.05,1.28,0,1.56.38,1.54,1.6-.06,4.46,0,8.93,0,13.4v1.39c.46,0,.78.08,1.09.08,4.48,0,9,0,13.45,0a2.6,2.6,0,0,0,1.67-.73c2.19-2.14,4.34-4.35,6.45-6.58a2.35,2.35,0,0,0,.65-1.46c0-7.9,0-15.81,0-23.72V24.93a10.13,10.13,0,0,1-2-1.91,2.8,2.8,0,0,1,1.14-4,3.16,3.16,0,0,1,4,1,3.09,3.09,0,0,1-1.12,4.22,1.42,1.42,0,0,0-.86,1.51c0,8.24,0,16.48,0,24.72a2.73,2.73,0,0,1-.86,2.17c-2.42,2.38-4.78,4.83-7.17,7.23a1.34,1.34,0,0,1-.8.44C96.47,60.33,91,60.32,85.36,60.32ZM32,41.4a1.92,1.92,0,0,0-2,1.91,1.93,1.93,0,1,0,3.86,0A2,2,0,0,0,32,41.4Zm78.08-21.69a1.75,1.75,0,0,0-1.78,1.91,1.84,1.84,0,0,0,3.68.18A1.89,1.89,0,0,0,110.11,19.71Z"/><path class="cls-1" d="M93.51,35.59h-3.4q-26.83,0-53.66,0c-1,0-1.64.12-2.06,1.19A2.68,2.68,0,0,1,31.33,38a2.91,2.91,0,0,1-2.24-2.87A3,3,0,0,1,31,32.27a2.73,2.73,0,0,1,3.33,1.14c.48,1.09,1.18,1.21,2.19,1.21q27.38,0,54.75,0a10.45,10.45,0,0,0,1.94,0c1.11-.21,1.24.38,1.23,1.25,0,3.89,0,7.78-.06,11.67v1.4h7V24.84A10.69,10.69,0,0,1,99.51,23a2.94,2.94,0,0,1,.91-3.84,3.08,3.08,0,0,1,4,.73,2.86,2.86,0,0,1-.7,4.14c-1.14.64-1.17,1.48-1.17,2.52,0,7.4,0,14.81,0,22.22,0,1-.25,1.33-1.23,1.3q-3.36-.07-6.72,0c-.92,0-1.18-.3-1.18-1.21C93.53,44.5,93.51,40.16,93.51,35.59Zm-59.6-.53a1.94,1.94,0,0,0-3.87,0,2.09,2.09,0,0,0,2,2A2,2,0,0,0,33.91,35.06Zm70-13.42a1.87,1.87,0,0,0-1.87-2,2,2,0,0,0-.08,3.9A1.91,1.91,0,0,0,104,21.64Z"/><path class="cls-1" d="M190.76,76.77h-5.71c-3,0-6,0-9,0-1,0-1.49-.18-1.47-1.42.08-4.84,0-9.68,0-14.53V35.68c-.48,0-.87-.08-1.26-.08-5.18,0-10.35,0-15.52,0a1.5,1.5,0,0,0-1.61.92A2.74,2.74,0,0,1,153,38a3.12,3.12,0,0,1-2.34-2.83,3.33,3.33,0,0,1,1.82-2.86,2.75,2.75,0,0,1,3.44,1.06c.64,1.19,1.48,1.25,2.57,1.24,5.29,0,10.59,0,15.89-.06,1,0,1.16.35,1.16,1.2,0,3.89,0,7.78,0,11.67V75.65c.47,0,.9.06,1.33.06h13.32c1.57,0,1.59,0,1.59,1.64q0,16.34,0,32.67c0,.86.06,1.49,1,2,1.31.65,1.67,2,1.26,3.52a2.88,2.88,0,0,1-2.66,2,3.07,3.07,0,0,1-2.9-2,2.74,2.74,0,0,1,1.17-3.34,2.16,2.16,0,0,0,1.14-2.27q0-15.78,0-31.55Zm.5,35.81a1.8,1.8,0,0,0-1.84,2,1.94,1.94,0,0,0,1.82,1.91,2.21,2.21,0,0,0,2-2A1.94,1.94,0,0,0,191.26,112.58ZM155.52,35.21a1.78,1.78,0,0,0-1.82-2,1.91,1.91,0,0,0-2,1.86,2.07,2.07,0,0,0,1.93,2A1.94,1.94,0,0,0,155.52,35.21Z"/><path class="cls-1" d="M52.84,116.8v-23c0-1.55,0-1.6,1.58-1.6H101c.8,0,1.4,0,1.79-1a2.76,2.76,0,0,1,3.38-1.3,2.92,2.92,0,0,1,1.95,3,2.77,2.77,0,0,1-2.3,2.79,2.72,2.72,0,0,1-3.13-1.56,1.12,1.12,0,0,0-1.23-.86q-23.34,0-46.68,0c-.24,0-.47,0-.86.08v1.5c0,7.21,0,14.41,0,21.61,0,1.17-.27,1.56-1.49,1.54-5.41-.07-10.83,0-16.25,0-.8,0-1.34.11-1.69,1a2.79,2.79,0,0,1-3.18,1.47,2.93,2.93,0,0,1-2.22-2.9,2.73,2.73,0,0,1,2.19-2.87,2.9,2.9,0,0,1,3.32,1.45,1.62,1.62,0,0,0,1.1.82c5.54,0,11.08,0,16.62,0A3,3,0,0,0,52.84,116.8ZM32,115.48a2,2,0,1,0,0,3.92,2,2,0,0,0,1.91-1.87A2.06,2.06,0,0,0,32,115.48Zm73.16-20.75a2.06,2.06,0,0,0,2-2,1.86,1.86,0,0,0-1.83-1.89,1.83,1.83,0,0,0-2,1.84A2.05,2.05,0,0,0,105.19,94.73Z"/><path class="cls-1" d="M20.51,52V26.28c2.68,0,5.31,0,7.94,0,6.11,0,12.22,0,18.33,0a1.58,1.58,0,0,0,1-.74,3,3,0,0,1,3-1.56,2.71,2.71,0,0,1,2.43,1.79A2.9,2.9,0,0,1,52.56,29a2.87,2.87,0,0,1-4.64-.72,1.61,1.61,0,0,0-1.71-1c-8.18,0-16.37,0-24.64,0V51.09H62.43c.79,0,1.38,0,1.77-1a2.73,2.73,0,0,1,3.43-1.4,3.2,3.2,0,0,1,2,2.95A3,3,0,0,1,64,52.79a1.44,1.44,0,0,0-1-.7c-7,0-14,0-21,0l-20.77,0C21,52.05,20.8,52,20.51,52Zm48.12-.47a1.94,1.94,0,0,0-2-1.84,1.9,1.9,0,0,0-1.84,2,2,2,0,0,0,2,1.89A2.07,2.07,0,0,0,68.63,51.5ZM50.51,28.82a2,2,0,0,0,1.92-2A2,2,0,0,0,50.52,25a1.79,1.79,0,0,0-1.93,1.89A1.91,1.91,0,0,0,50.51,28.82Z"/><path class="cls-1" d="M182.51,85H168.16c-1.7,0-1.7,0-1.7-1.67V56c0-3.6,0-7.19,0-10.79,0-.4,0-.81,0-1.34-3.16,0-6.24,0-9.32.05-.34,0-.7.65-1,1a2.95,2.95,0,1,1-4.43-3.83,2.92,2.92,0,0,1,4.56.87,1.35,1.35,0,0,0,1.42.83c2.81,0,5.62,0,8.43,0,1.17,0,1.42.39,1.41,1.5q0,19,0,38v1.63h16.12c0,.71.09,1.27.09,1.83,0,8.11,0,16.22,0,24.34a1.75,1.75,0,0,0,1,1.86,2.84,2.84,0,0,1,1.41,3.37,3,3,0,0,1-2.84,2.13,2.93,2.93,0,0,1-2.88-2.23,3.11,3.11,0,0,1,1.57-3.44,1.64,1.64,0,0,0,.73-1c0-8.4,0-16.81,0-25.21A3.79,3.79,0,0,0,182.51,85Zm.61,31.49a2,2,0,0,0,1.95-2,1.83,1.83,0,0,0-1.81-1.93,2,2,0,0,0-2,1.84A2.12,2.12,0,0,0,183.12,116.48ZM153.68,45.3a1.9,1.9,0,0,0,1.85-2,1.82,1.82,0,0,0-1.86-1.88,1.9,1.9,0,0,0-1.95,1.93A2,2,0,0,0,153.68,45.3Z"/><path class="cls-1" d="M78.22,69.57h1.5c7,0,13.94,0,20.9,0a3.07,3.07,0,0,0,2.27-.89c4.3-3.9,8.62-7.79,13-11.55a4.91,4.91,0,0,0,2-4.24c-.11-8.9,0-17.8,0-26.7V24.75c-2.27-1.33-2.83-2.36-2.3-4.17a2.84,2.84,0,0,1,2.92-2,3.05,3.05,0,0,1,2.73,2.59c.25,1.33-.67,2.69-2.4,3.42V25.9c0,9.6,0,19.2,0,28.81a2.43,2.43,0,0,1-.85,2c-5,4.38-9.92,8.79-14.91,13.14a2.89,2.89,0,0,1-1.74.63c-7.54,0-15.08,0-22.62.06-1.27,0-1.57-.39-1.54-1.62.09-3.43,0-6.87,0-10.31,0-.7,0-1.19-.84-1.54a2.93,2.93,0,0,1,1.46-5.5A2.81,2.81,0,0,1,80.63,54,3.17,3.17,0,0,1,79,57.21c-.33.18-.77.58-.77.89C78.2,61.86,78.22,65.62,78.22,69.57Zm42-47.9a1.86,1.86,0,0,0-1.84-2,2,2,0,0,0-2,2,2.07,2.07,0,0,0,1.87,1.92A2,2,0,0,0,120.19,21.67ZM79.64,54.61a2,2,0,0,0-1.87-2,2.09,2.09,0,0,0-2,2,2.15,2.15,0,0,0,1.85,2A2,2,0,0,0,79.64,54.61Z"/><path class="cls-1" d="M63.67,68.54h-26v32.94H21.75v6.78c0,1.7,0,3.39,0,5.09a1.36,1.36,0,0,0,.91,1.51,2.87,2.87,0,0,1,1.47,3.46,3.07,3.07,0,0,1-2.84,2.14,3.1,3.1,0,0,1-2.86-2.28,2.91,2.91,0,0,1,1.51-3.33,1.32,1.32,0,0,0,.83-1.43c0-3.76,0-7.52,0-11.29v-1.62H36.63V95.45c0-8.77,0-17.55,0-26.33,0-1.23.29-1.63,1.55-1.62,8.15.06,16.3,0,24.44,0,.72,0,1.23,0,1.57-.92a2.83,2.83,0,0,1,3.29-1.53,3.38,3.38,0,0,1,2.2,2.85,3.11,3.11,0,0,1-2,2.94,3,3,0,0,1-3.42-1.26C64,69.28,63.85,68.9,63.67,68.54ZM23.16,117.43a1.83,1.83,0,0,0-1.83-1.9,1.94,1.94,0,1,0,.05,3.87A1.89,1.89,0,0,0,23.16,117.43ZM66.82,66.15a1.84,1.84,0,0,0-2,1.95A1.92,1.92,0,0,0,66.63,70a2,2,0,0,0,2-1.93A1.93,1.93,0,0,0,66.82,66.15Z"/><path class="cls-1" d="M12.67,74.9c-1.91-1-2.74-2.34-2.4-3.74a3.06,3.06,0,0,1,2.91-2.38A2.86,2.86,0,0,1,16,71c.42,1.76-.21,2.86-2.27,3.91,0,3.19,0,6.42,0,9.65a2.77,2.77,0,0,1-.69,1.7c-2.26,2.38-4.6,4.67-6.87,7a2,2,0,0,0-.51,1.29c0,9.52,0,19,0,28.56,0,3.23,0,6.45,0,9.68v1.44H27.94c.69,0,1.22,0,1.57-.89a2.76,2.76,0,0,1,3.39-1.5,3,3,0,0,1,2.16,2.7,3.07,3.07,0,0,1-2.22,3.05,2.91,2.91,0,0,1-3.31-1.48c-.36-.93-.9-.94-1.67-.94-7.21,0-14.42,0-21.63,0H4.57v-8.37c0-10.68,0-21.36,0-32A3.46,3.46,0,0,1,5.7,92C7.8,90,9.9,87.9,11.92,85.75a3,3,0,0,0,.72-1.81C12.71,80.92,12.67,77.9,12.67,74.9Zm.49-5.13a2.08,2.08,0,0,0-1.92,2,2,2,0,0,0,2,1.87,1.89,1.89,0,0,0,1.84-1.92A2,2,0,0,0,13.16,69.77Zm19,66.81a1.81,1.81,0,0,0,1.86-2,2,2,0,0,0-1.87-1.9,2.23,2.23,0,0,0-2,2A2,2,0,0,0,32.12,136.58Z"/><path class="cls-1" d="M45.72,85v24.67c-3.19,0-6.24,0-9.28,0-1,0-1.63.12-2.06,1.19a2.71,2.71,0,0,1-3.17,1.23,2.91,2.91,0,0,1-2.12-2.86,3,3,0,0,1,2.05-2.91,2.75,2.75,0,0,1,3.27,1.29c.45,1.07,1.14,1.15,2.08,1.13,2.72,0,5.44,0,8.27,0V107.4c0-7.28,0-14.56,0-21.85,0-1.25.3-1.61,1.55-1.61q24.06.06,48.13,0c1,0,1.77.09,2.32-1.13s2.27-1.53,3.57-1a3,3,0,0,1,1.76,2.85,3,3,0,0,1-2.17,2.7A3,3,0,0,1,96.55,86a8.56,8.56,0,0,1-.41-.91Zm-11.81,24.2a2,2,0,0,0-2-1.94A2,2,0,0,0,30,109.17a2.2,2.2,0,0,0,1.9,2.06A2.15,2.15,0,0,0,33.91,109.24ZM101,84.46a1.87,1.87,0,1,0-3.74.18,1.87,1.87,0,1,0,3.74-.18Z"/><path class="cls-1" d="M21.75,62.43c0,7.35,0,14.59,0,21.84a2.76,2.76,0,0,1-.87,2.16c-2.24,2.22-4.46,4.44-6.63,6.72a2.6,2.6,0,0,0-.56,1.64q0,13,0,25.95v5.06H29.1c1.06-2.18,2.43-2.82,4.29-2A2.76,2.76,0,0,1,35,126.59a2.88,2.88,0,0,1-1.9,2.63c-1.18.41-2.67.17-3.18-.86C29.26,127,28.24,127,27,127c-4.31.06-8.63,0-12.95,0-1.09,0-1.39-.35-1.38-1.43q0-15.51,0-31a2.75,2.75,0,0,1,.88-2.16c2.15-2.14,4.25-4.31,6.4-6.44a2.58,2.58,0,0,0,.89-2c0-6.79,0-13.58,0-20.37,0-.6.08-1.13-.7-1.47a2.85,2.85,0,0,1-1.66-3.45,3,3,0,0,1,2.9-2.21,3.06,3.06,0,0,1,2.8,2.19,3.12,3.12,0,0,1-1.75,3.57C22.21,62.28,22,62.33,21.75,62.43ZM34,126.5a1.88,1.88,0,0,0-1.86-2,2.05,2.05,0,0,0-2,1.93,2.17,2.17,0,0,0,1.85,2A2,2,0,0,0,34,126.5Zm-12.73-69a2,2,0,0,0-1.93,2,2,2,0,0,0,2,1.85,1.78,1.78,0,0,0,1.8-1.9A1.88,1.88,0,0,0,21.25,57.46Z"/><path class="cls-1" d="M134,35.89q0-13.29,0-26.57c0-.76-.08-1.24-.93-1.58a2.85,2.85,0,0,1-1.41-3.37,3,3,0,0,1,2.89-2.22,3.1,3.1,0,0,1,2.76,2.08,3,3,0,0,1-1.51,3.56c-.74.31-.83.73-.83,1.4q0,22,.06,44c0,3.39,0,6.78-.07,10.17a2.19,2.19,0,0,1-.59,1.38c-4.34,4.09-8.72,8.15-13.09,12.22-1.94,1.81-3.86,3.65-5.83,5.44a1.1,1.1,0,0,0-.4,1.35,2.81,2.81,0,0,1-1.16,3.35,2.59,2.59,0,0,1-3.47-.24,3,3,0,0,1-.79-3.37,2.78,2.78,0,0,1,3.62-1.61,1.44,1.44,0,0,0,1.77-.46c4.89-4.6,9.81-9.16,14.72-13.73,1.26-1.16,2.56-2.29,3.75-3.52a2.44,2.44,0,0,0,.48-1.54C134,53.68,134,44.78,134,35.89Zm.48-32.69a2,2,0,0,0-2,2,2.14,2.14,0,0,0,2,1.94A2,2,0,0,0,136.39,5,1.82,1.82,0,0,0,134.49,3.2ZM114.22,84.6a1.9,1.9,0,1,0-3.79,0,1.9,1.9,0,1,0,3.79,0Z"/><path class="cls-1" d="M158.39,52.21a1.59,1.59,0,0,0-2.26.87,2.77,2.77,0,0,1-3.69,1.22,3,3,0,0,1-1.6-3.62,2.81,2.81,0,0,1,3.46-2,3.3,3.3,0,0,1,1.84,1.45,1.51,1.51,0,0,0,1.83.94c1.23-.22,1.39.41,1.39,1.47,0,12.7,0,25.41,0,38.11v1.52h1.39c4.48,0,9,0,13.44,0,1,0,1.4.27,1.39,1.41-.06,5.62,0,11.25,0,16.88a1.73,1.73,0,0,0,.63,1.23c1.48,1,2.09,2.15,1.7,3.61a2.95,2.95,0,0,1-5.72-.17,3.08,3.08,0,0,1,1.91-3.48l.43-.22V93.32c-.49,0-.93-.06-1.36-.06-4.4,0-8.8,0-13.2,0-1.17,0-1.6-.22-1.6-1.55.06-12.74,0-25.49,0-38.23Zm-2.87-.64a1.81,1.81,0,0,0-1.81-1.91,1.92,1.92,0,0,0-2,1.88,2,2,0,0,0,1.91,2A2,2,0,0,0,155.52,51.57Zm21.43,63a1.88,1.88,0,0,0-1.76-2,2.09,2.09,0,0,0-2.11,1.82,2.2,2.2,0,0,0,1.88,2.07A2,2,0,0,0,177,114.56Z"/><path class="cls-1" d="M125.85,116.93V98.76c-2.2-.87-2.88-2.68-2.07-4.39a2.84,2.84,0,0,1,3.07-1.53,2.62,2.62,0,0,1,2.38,2.23,2.76,2.76,0,0,1-1.33,3.17c-1,.37-1,1-1,1.81q0,8.13,0,16.26c0,1.64,0,1.65-1.58,1.65q-28.28,0-56.56,0a1.71,1.71,0,0,0-1.89,1,2.69,2.69,0,0,1-3.2,1.39,2.94,2.94,0,0,1-2.16-2.94,2.86,2.86,0,0,1,1.91-2.73A2.71,2.71,0,0,1,66.91,116c.42,1,1,1,1.79,1q20.1,0,40.2-.06c5.17,0,10.34,0,15.51.05Zm.49-19.25a2.08,2.08,0,0,0,2-1.93,1.9,1.9,0,0,0-1.94-2,1.94,1.94,0,0,0-1.93,1.82A2.05,2.05,0,0,0,126.34,97.68Zm-60,19.82a2,2,0,0,0-1.87-2,2,2,0,1,0,1.87,2Z"/><path class="cls-1" d="M92,125.88h69.37c.82-1.82,2.08-2.68,3.42-2.39a2.8,2.8,0,0,1,2.42,2.83,2.76,2.76,0,0,1-2.08,3,3,3,0,0,1-3.46-1.6,1.68,1.68,0,0,0-1-.66,6.55,6.55,0,0,0-1.47,0H109.88c-5.62,0-11.23,0-16.85,0-.58,0-1,0-1.34.72a2.75,2.75,0,0,1-3.58,1.49,2.78,2.78,0,0,1-1.88-3,2.86,2.86,0,0,1,2.5-2.77,3.06,3.06,0,0,1,3.13,2C91.9,125.6,92,125.71,92,125.88Zm74.26.57a2,2,0,0,0-1.95-2,1.89,1.89,0,0,0-1.89,2,1.94,1.94,0,0,0,2,1.9A2,2,0,0,0,166.28,126.45Zm-77.17-2a1.84,1.84,0,0,0-1.9,2,1.88,1.88,0,0,0,1.8,1.94,2,2,0,0,0,2-1.91A1.93,1.93,0,0,0,89.11,124.49Z"/><path class="cls-1" d="M71.64,154.19H61V129.63H43.73c0,1.08,0,2.19,0,3.28,0,.27.5.54.82.74A3,3,0,0,1,46,137.48a2.85,2.85,0,0,1-3.65,1.61,2.75,2.75,0,0,1-2-2.3,2.68,2.68,0,0,1,1.48-3,1.65,1.65,0,0,0,1-1.85c-.06-1.07,0-2.15,0-3.36.48,0,.91-.1,1.33-.11,5.5,0,11,0,16.51,0,1.22,0,1.48.42,1.48,1.58,0,7.24,0,14.49,0,21.74v1.45c3.18,0,6.22,0,9.26,0,.29,0,.63-.5.84-.84a3.08,3.08,0,0,1,3.54-1.51,3,3,0,0,1,2,2.81,3.09,3.09,0,0,1-1.81,2.84,2.62,2.62,0,0,1-3.12-.7C72.39,155.32,72.07,154.79,71.64,154.19ZM43.3,134.37a1.91,1.91,0,0,0-1.93,1.93,2,2,0,0,0,1.89,2,2,2,0,0,0,2-2A2,2,0,0,0,43.3,134.37Zm31.48,17.34a2,2,0,0,0-1.86,2,1.83,1.83,0,0,0,1.89,1.84,1.91,1.91,0,0,0,1.94-1.93A2.06,2.06,0,0,0,74.78,151.71Z"/><path class="cls-1" d="M29.53,60.39V72.2q0,6.76,0,13.54c0,.6.05,1,.71,1.35a3,3,0,0,1,1.7,3.47,3.33,3.33,0,0,1-2.79,2.28,3.44,3.44,0,0,1-2.94-2.23,3.07,3.07,0,0,1,1.53-3.47c.24-.15.5-.26.86-.44V85.4c0-8.2,0-16.4,0-24.6,0-1.16.26-1.56,1.48-1.55,10.84,0,21.67,0,32.51,0,.79,0,1.3-.08,1.65-1A2.7,2.7,0,0,1,67.55,57a2.87,2.87,0,0,1,2.12,2.84,3.13,3.13,0,0,1-2.28,2.9,2.92,2.92,0,0,1-3.22-1.44c-.28-.6-.46-1-1.27-1q-16.32,0-32.63,0C30.07,60.33,29.87,60.36,29.53,60.39Zm39.1-.58a2,2,0,0,0-1.93-2,2,2,0,0,0-1.93,2,1.92,1.92,0,0,0,1.91,2A2,2,0,0,0,68.63,59.81ZM31,89.79a2,2,0,0,0-2-1.93,1.85,1.85,0,0,0-1.86,1.88,2,2,0,0,0,1.88,2A2.06,2.06,0,0,0,31,89.79Z"/><path class="cls-1" d="M135,116.86c.52,0,.87.06,1.23.06h23.82c.58,0,1,0,1.35-.7a2.67,2.67,0,0,1,3.43-1.59,2.84,2.84,0,0,1,2.14,2.8,3,3,0,0,1-2.2,2.94,2.94,2.94,0,0,1-3.36-1.61c-.14-.25-.25-.52-.42-.85H134v-1.54c0-8.19,0-16.39,0-24.58A1.67,1.67,0,0,0,133,90a2.77,2.77,0,0,1-1.34-3.26,3,3,0,0,1,5.62-.3,2.74,2.74,0,0,1-1.15,3.45c-1.08.52-1.15,1.26-1.15,2.26,0,7.74,0,15.48,0,23.22Zm29,2.55a1.93,1.93,0,0,0,2-1.94,2,2,0,0,0-1.79-2,2,2,0,0,0-2,1.88A2,2,0,0,0,164,119.41Zm-29.44-30a1.8,1.8,0,0,0,1.86-2,1.83,1.83,0,0,0-1.86-1.86,2,2,0,0,0-2,1.92A1.91,1.91,0,0,0,134.52,89.4Z"/><path class="cls-1" d="M143.26,108.75c5.8,0,11.5,0,17.2-.06.42,0,.87-.76,1.23-1.23a3,3,0,0,1,3.81-.86,3.12,3.12,0,0,1,1.26,3.78,2.8,2.8,0,0,1-3.63,1.63,14.74,14.74,0,0,1-2.63-2.31H143.91c-2,0-1.83.24-1.83-1.85q0-12.16,0-24.34c0-.79,0-1.34-.94-1.71a2.76,2.76,0,0,1-1.36-3.23,2.91,2.91,0,0,1,2.94-2.29,2.8,2.8,0,0,1,2.68,2.27A3,3,0,0,1,143.85,82a1.37,1.37,0,0,0-.68.93c0,8.41,0,16.81,0,25.21A4,4,0,0,0,143.26,108.75Zm22.65.41a1.81,1.81,0,0,0-1.87-1.85,2,2,0,0,0-2,1.93,2.2,2.2,0,0,0,2,2A2.06,2.06,0,0,0,165.91,109.16ZM142.56,77.32a1.9,1.9,0,0,0-1.85,2,2,2,0,0,0,1.9,1.86,1.94,1.94,0,0,0-.05-3.88Z"/><path class="cls-1" d="M118.27,109.21a2.87,2.87,0,0,1-5.48,1.31,1.21,1.21,0,0,0-1.28-.83q-21.58,0-43.15,0c-.61,0-1,.06-1.28.77a2.8,2.8,0,0,1-3.32,1.66,3,3,0,0,1-2.23-2.89,3.05,3.05,0,0,1,2.07-2.9,2.89,2.89,0,0,1,3.47,1.59c.32.78.73.82,1.37.82l32.27,0c3.54,0,7.09,0,10.63.06a1.35,1.35,0,0,0,1.49-.9,2.7,2.7,0,0,1,3.35-1.53A3,3,0,0,1,118.27,109.21Zm-2.89,2a2.29,2.29,0,0,0,1.94-2,2,2,0,0,0-1.91-1.86,1.93,1.93,0,0,0-2,1.92A2.05,2.05,0,0,0,115.38,111.22Zm-52.82-2a2,2,0,0,0,1.87,2,2.06,2.06,0,0,0,1.9-2,1.9,1.9,0,0,0-1.84-1.89A1.8,1.8,0,0,0,62.56,109.2Z"/><path class="cls-1" d="M151.28,100.48c3.23,0,6.27,0,9.32,0,.27,0,.6-.44.78-.75a2.94,2.94,0,0,1,3.51-1.51,2.83,2.83,0,0,1,2.08,2.72,3,3,0,0,1-2.28,3,2.78,2.78,0,0,1-3.06-1.24c-.23-.34-.41-.71-.67-1.17H150.27V99.8q0-16.3,0-32.63a1.83,1.83,0,0,0-1.07-1.93A2.74,2.74,0,0,1,147.89,62a2.93,2.93,0,0,1,5.61-.18,2.77,2.77,0,0,1-1.23,3.42,1.77,1.77,0,0,0-1,1.83c0,10.67,0,21.34,0,32Zm12.77-1.43a2,2,0,0,0-2,1.9,2.07,2.07,0,0,0,1.91,2,1.94,1.94,0,0,0,1.93-1.94A1.86,1.86,0,0,0,164.05,99.05ZM150.69,64.76a2.23,2.23,0,0,0,2-2,2.07,2.07,0,0,0-2-2,1.9,1.9,0,0,0-1.89,1.87A1.94,1.94,0,0,0,150.69,64.76Z"/><path class="cls-1" d="M94.43,10.86V27.33H68.62c-.71,0-1.21,0-1.59.89a2.77,2.77,0,0,1-3.49,1.49,2.86,2.86,0,0,1-2-2.92,2.8,2.8,0,0,1,2.1-2.71,3,3,0,0,1,3.53,1.54,1.36,1.36,0,0,0,.91.67c8.31,0,16.62,0,24.93,0a3.48,3.48,0,0,0,.52-.11V24.65c0-4.47,0-8.94,0-13.41,0-1.09.31-1.52,1.38-1.37.52.07,1.06,0,1.59,0,1,0,1.92.13,2.4-1.23.38-1.06,2-1.43,3.2-1a2.82,2.82,0,0,1,2,2.88,3,3,0,0,1-2.1,2.75c-1.24.34-2.79-.07-3.18-1.17-.45-1.26-1.25-1.29-2.27-1.23C95.91,10.89,95.26,10.86,94.43,10.86Zm6.72,1.51a2.09,2.09,0,0,0,2-2,2,2,0,0,0-1.86-1.93,1.86,1.86,0,0,0-2,1.88A2,2,0,0,0,101.15,12.37ZM66.35,26.88A1.86,1.86,0,0,0,64.42,25a1.76,1.76,0,0,0-1.86,1.84,1.88,1.88,0,0,0,1.83,2A2,2,0,0,0,66.35,26.88Z"/><path class="cls-1" d="M86.75,101.52H68.43c-.64,0-1.06,0-1.38.79a2.85,2.85,0,0,1-3.24,1.6,3,3,0,0,1-2.28-3,2.88,2.88,0,0,1,2.17-2.79,3.09,3.09,0,0,1,3.49,1.66,1.44,1.44,0,0,0,1,.66q18.63,0,37.25,0a1.63,1.63,0,0,0,1.1-.78A3.07,3.07,0,0,1,110,98.15a2.85,2.85,0,0,1,2.21,2.76,3.11,3.11,0,0,1-2.4,3,2.9,2.9,0,0,1-3.13-1.6c-.29-.77-.72-.83-1.37-.83C99.13,101.53,92.94,101.52,86.75,101.52Zm24.43-.57a1.86,1.86,0,0,0-2-1.9,2,2,0,0,0-1.87,1.91,2.07,2.07,0,0,0,2,2A2,2,0,0,0,111.18,101Zm-44.84,0a1.89,1.89,0,0,0-2-1.91,1.85,1.85,0,0,0-1.81,2A1.92,1.92,0,0,0,64.43,103,2,2,0,0,0,66.34,101Z"/><path class="cls-1" d="M69.66,76.77c-5.78,0-11.56,0-17.33,0a1.49,1.49,0,0,0-1.61.94,2.73,2.73,0,0,1-3.27,1.49,2.92,2.92,0,0,1-2.16-2.83,3,3,0,0,1,1.93-2.87,2.75,2.75,0,0,1,3.46,1.31,1.5,1.5,0,0,0,1.6.94q17.4,0,34.8,0c.63,0,1.09,0,1.41-.79A2.74,2.74,0,0,1,92,73.47a3,3,0,0,1,2,2.83,3,3,0,0,1-2.24,2.9,2.77,2.77,0,0,1-3.28-1.68c-.28-.7-.7-.76-1.31-.76Zm23.28-.51a1.88,1.88,0,0,0-1.89-1.87,1.79,1.79,0,0,0-1.91,1.94,1.88,1.88,0,0,0,2,1.88A1.93,1.93,0,0,0,92.94,76.26ZM48.26,74.38a1.92,1.92,0,1,0,1.83,2A1.8,1.8,0,0,0,48.26,74.38Z"/><path class="cls-1" d="M35.75,19.12c-3.41,0-6.83,0-10.25,0a1.76,1.76,0,0,0-1.91,1,2.59,2.59,0,0,1-2.87,1.43,2.7,2.7,0,0,1-2.34-1.9,3.1,3.1,0,0,1,.82-3.31c1.29-1.24,3.46-.76,4.61.95A1.67,1.67,0,0,0,25,18c7.08.05,14.17,0,21.25.05a1.62,1.62,0,0,0,1.76-.9,2.81,2.81,0,0,1,3.56-1.32,3.31,3.31,0,0,1,1.9,2.8,3.26,3.26,0,0,1-2.16,2.87A2.87,2.87,0,0,1,47.9,20a1.45,1.45,0,0,0-1.52-.88C42.84,19.14,39.3,19.12,35.75,19.12Zm14.67-2.37a1.82,1.82,0,0,0-1.84,2,1.91,1.91,0,0,0,1.91,1.82,2,2,0,0,0,1.95-1.95A2,2,0,0,0,50.42,16.75ZM23,18.59a1.79,1.79,0,0,0-1.87-1.85,1.92,1.92,0,0,0-1.93,2,2,2,0,0,0,2,1.85A1.8,1.8,0,0,0,23,18.59Z"/><path class="cls-1" d="M35.79,10.86c-3.5,0-7,0-10.5,0a1.46,1.46,0,0,0-1.59.92,2.72,2.72,0,0,1-2.93,1.57,2.67,2.67,0,0,1-2.37-1.87A3,3,0,0,1,19,8.34a2.91,2.91,0,0,1,4.73.76A1.22,1.22,0,0,0,25,9.89q10.74,0,21.49,0a1.22,1.22,0,0,0,1.32-.75,2.78,2.78,0,0,1,3.34-1.57,3.06,3.06,0,0,1,2.29,2.85,3.24,3.24,0,0,1-2.2,2.85,2.92,2.92,0,0,1-3.46-1.64,1.17,1.17,0,0,0-1.27-.79C43,10.87,39.37,10.86,35.79,10.86ZM50.5,8.48a1.84,1.84,0,0,0-1.91,1.95,1.91,1.91,0,0,0,1.82,1.94,2.06,2.06,0,0,0,2-1.92A2,2,0,0,0,50.5,8.48ZM23,10.44a1.84,1.84,0,0,0-1.87-2,2,2,0,0,0-1.93,2,2,2,0,0,0,1.86,1.93A1.91,1.91,0,0,0,23,10.44Z"/><path class="cls-1" d="M78.22,139.41c1.89,1,2.71,2.22,2.42,3.63a3.08,3.08,0,0,1-2.84,2.46A2.91,2.91,0,0,1,75,143.41c-.48-1.71.07-2.73,2.21-4,0-.71,0-1.46,0-2.2,0-1.22.18-2.37-1.36-3-1.06-.45-1.26-2.17-.78-3.46A2.88,2.88,0,0,1,77.92,129a2.8,2.8,0,0,1,2.69,2.27c.27,1-.21,2.64-1.15,3-1.19.49-1.33,1.31-1.25,2.4C78.27,137.59,78.22,138.46,78.22,139.41ZM79.65,132a2.08,2.08,0,0,0-1.89-2.06,2.14,2.14,0,0,0-2,2,2,2,0,0,0,1.86,1.93A1.91,1.91,0,0,0,79.65,132Zm0,10.53a2,2,0,0,0-2-2,2.06,2.06,0,0,0-1.82,2,2,2,0,0,0,2,1.91A1.89,1.89,0,0,0,79.64,142.53Z"/><path class="cls-1" d="M69.14,139.41c0-.75,0-1.54,0-2.32.08-1.22,0-2.24-1.36-2.86-1-.44-1.35-2.12-1-3.18a2.93,2.93,0,0,1,2.9-2,2.81,2.81,0,0,1,2.76,2.18,2.7,2.7,0,0,1-1.15,3.12c-1.2.53-1.27,1.37-1.21,2.44,0,.86,0,1.73,0,2.57,2.09,1.23,2.79,2.44,2.34,4a3,3,0,0,1-2.92,2.18,3.21,3.21,0,0,1-2.79-2.37C66.43,141.55,67.16,140.41,69.14,139.41ZM69.6,130A2,2,0,0,0,67.73,132a1.87,1.87,0,0,0,1.87,1.87,2,2,0,0,0,2-1.93A2.19,2.19,0,0,0,69.6,130Zm0,14.46a2,2,0,0,0,2-1.88,2.11,2.11,0,0,0-1.94-2,2,2,0,0,0-1.91,2A1.83,1.83,0,0,0,69.55,144.41Z"/><path d="M117.75,9.82h-6.94V-.47h6.94Z"/><path d="M186.62-.48a10.84,10.84,0,0,1-1.1,1.75,1.73,1.73,0,0,1-1.17.34q-10,0-19.91,0H153.38V-.48Z"/><path d="M69.6,9.37a1.9,1.9,0,0,1-1.87-2A2,2,0,0,1,69.6,5.44a2.1,2.1,0,0,1,2,2A2,2,0,0,1,69.6,9.37Z"/><path d="M61.47,5.44a2.14,2.14,0,0,1,2,1.95,2,2,0,0,1-1.91,2A1.89,1.89,0,0,1,59.6,7.46,2,2,0,0,1,61.47,5.44Z"/><path d="M79.65,7.41a1.93,1.93,0,0,1-1.93,2A2,2,0,0,1,75.81,7.5,2.08,2.08,0,0,1,77.7,5.44,2,2,0,0,1,79.65,7.41Z"/><path d="M190.24,2.22a1.88,1.88,0,0,1-2,1.89,2,2,0,0,1-1.87-1.91,2.08,2.08,0,0,1,2-2A2,2,0,0,1,190.24,2.22Z"/><path d="M106.39,76.36a1.78,1.78,0,0,1,1.82-1.88,1.94,1.94,0,0,1,2,1.84,2.17,2.17,0,0,1-1.93,2A2,2,0,0,1,106.39,76.36Z"/><path d="M101.18,4.11a1.94,1.94,0,0,1-1.91-2A2,2,0,0,1,101.11.2a2.18,2.18,0,0,1,2,1.93A2,2,0,0,1,101.18,4.11Z"/><path d="M64.38,20.56a1.85,1.85,0,0,1-1.82-2,1.78,1.78,0,0,1,1.91-1.79,1.91,1.91,0,0,1-.09,3.82Z"/><path d="M131.19,137.28a1.8,1.8,0,0,1-2,1.84,2,2,0,0,1-1.86-1.91,2.06,2.06,0,0,1,2-2A1.89,1.89,0,0,1,131.19,137.28Z"/><path d="M151.72,18.47a1.93,1.93,0,0,1,2.12-1.72,1.79,1.79,0,0,1,1.67,2.13,1.81,1.81,0,0,1-2,1.67A1.92,1.92,0,0,1,151.72,18.47Z"/><path d="M153.62,25a1.79,1.79,0,0,1,1.9,1.92,1.8,1.8,0,0,1-1.79,1.94,1.93,1.93,0,0,1-2-1.89A1.84,1.84,0,0,1,153.62,25Z"/><path d="M119.48,135.25a2,2,0,0,1,1.83,2.05,1.84,1.84,0,0,1-1.89,1.83,1.86,1.86,0,0,1-1.9-1.95A2,2,0,0,1,119.48,135.25Z"/><path d="M53.36,138.27a1.86,1.86,0,0,1,1.94,1.91,1.94,1.94,0,0,1-1.91,2,1.82,1.82,0,0,1-1.84-1.88A1.79,1.79,0,0,1,53.36,138.27Z"/><path d="M129.32,147.46a2.18,2.18,0,0,1-2-2,2,2,0,0,1,2-1.93,1.84,1.84,0,0,1,1.86,1.88A2,2,0,0,1,129.32,147.46Z"/><path d="M23.88,147.45a2,2,0,0,1-1.88-2,1.84,1.84,0,0,1,1.85-1.89,2,2,0,0,1,2,1.92A2.12,2.12,0,0,1,23.88,147.45Z"/><path d="M119.43,143.53a1.9,1.9,0,0,1,1.89,2,2.08,2.08,0,0,1-1.86,2,2,2,0,0,1-1.94-2A1.88,1.88,0,0,1,119.43,143.53Z"/><path d="M137.44,151.71a2,2,0,0,1,1.9,2,1.88,1.88,0,0,1-2,1.88,1.94,1.94,0,0,1-1.85-1.92A2,2,0,0,1,137.44,151.71Z"/><path d="M119.38,155.6a1.89,1.89,0,0,1-1.87-1.87,2.06,2.06,0,0,1,1.89-2,2,2,0,0,1,1.91,2.1A1.86,1.86,0,0,1,119.38,155.6Z"/><path d="M23.88,155.6A1.81,1.81,0,0,1,22,153.76a2,2,0,0,1,1.84-2,2.14,2.14,0,0,1,2,1.95A2,2,0,0,1,23.88,155.6Z"/><path d="M180.16,126.51a1.85,1.85,0,0,1-1.85,1.88,2.16,2.16,0,0,1-2-2,2,2,0,0,1,2-1.94A1.85,1.85,0,0,1,180.16,126.51Z"/><path d="M3.42,147.49a1.94,1.94,0,0,1-1.86-2,1.91,1.91,0,0,1,1.85-1.9,2,2,0,0,1,2,1.95A2,2,0,0,1,3.42,147.49Z"/><path d="M13.47,147.46a2,2,0,0,1-1.85-2.05,1.86,1.86,0,0,1,2-1.87,1.81,1.81,0,0,1,1.77,2A1.93,1.93,0,0,1,13.47,147.46Z"/><path d="M186.1,145.38a1.93,1.93,0,0,1-1.9-2,1.79,1.79,0,0,1,1.83-1.87,1.93,1.93,0,0,1,2,1.86A2.09,2.09,0,0,1,186.1,145.38Z"/><path d="M186.14,149.67a2.06,2.06,0,0,1,1.88,2,1.92,1.92,0,0,1-2,1.82,1.75,1.75,0,0,1-1.77-1.9A1.88,1.88,0,0,1,186.14,149.67Z"/><path d="M186.1,137.09a1.84,1.84,0,0,1-1.9-1.84,2,2,0,0,1,1.83-2.08,2.12,2.12,0,0,1,2,2A2,2,0,0,1,186.1,137.09Z"/><path d="M182.12,10.38a1.91,1.91,0,0,1-1.89,2,2.14,2.14,0,0,1-1.95-2,2.11,2.11,0,0,1,2-1.91A1.86,1.86,0,0,1,182.12,10.38Z"/><path d="M116.4,90.89a1.84,1.84,0,0,1,1.87,2,2.07,2.07,0,0,1-1.87,1.93,2.23,2.23,0,0,1-2-2A2,2,0,0,1,116.4,90.89Z"/><path d="M32,41.4a2,2,0,0,1,1.88,1.9,1.93,1.93,0,1,1-3.86,0A1.92,1.92,0,0,1,32,41.4Z"/><path d="M110.11,19.71A1.89,1.89,0,0,1,112,21.8a1.84,1.84,0,0,1-3.68-.18A1.75,1.75,0,0,1,110.11,19.71Z"/><path d="M33.91,35.06a2,2,0,0,1-1.91,2,2.09,2.09,0,0,1-2-2,1.94,1.94,0,0,1,3.87,0Z"/><path d="M104,21.64a1.91,1.91,0,0,1-2,1.91,2,2,0,0,1,.08-3.9A1.87,1.87,0,0,1,104,21.64Z"/><path d="M191.26,112.58a1.94,1.94,0,0,1,2,1.92,2.21,2.21,0,0,1-2,2,1.94,1.94,0,0,1-1.82-1.91A1.8,1.8,0,0,1,191.26,112.58Z"/><path d="M155.52,35.21a1.94,1.94,0,0,1-1.89,1.86,2.07,2.07,0,0,1-1.93-2,1.91,1.91,0,0,1,2-1.86A1.78,1.78,0,0,1,155.52,35.21Z"/><path d="M32,115.48a2.06,2.06,0,0,1,1.88,2A2,2,0,0,1,32,119.4a2,2,0,1,1,0-3.92Z"/><path d="M105.19,94.73a2.05,2.05,0,0,1-1.86-2,1.83,1.83,0,0,1,2-1.84,1.86,1.86,0,0,1,1.83,1.89A2.06,2.06,0,0,1,105.19,94.73Z"/><path d="M68.63,51.5a2.07,2.07,0,0,1-1.85,2.07,2,2,0,0,1-2-1.89,1.9,1.9,0,0,1,1.84-2A1.94,1.94,0,0,1,68.63,51.5Z"/><path d="M50.51,28.82a1.91,1.91,0,0,1-1.92-2A1.79,1.79,0,0,1,50.52,25a2,2,0,0,1,1.91,1.85A2,2,0,0,1,50.51,28.82Z"/><path d="M183.12,116.48a2.12,2.12,0,0,1-1.91-2,2,2,0,0,1,2-1.84,1.83,1.83,0,0,1,1.81,1.93A2,2,0,0,1,183.12,116.48Z"/><path d="M153.68,45.3a2,2,0,0,1-2-2,1.9,1.9,0,0,1,1.95-1.93,1.82,1.82,0,0,1,1.86,1.88A1.9,1.9,0,0,1,153.68,45.3Z"/><path d="M120.19,21.67a2,2,0,0,1-2,1.89,2.07,2.07,0,0,1-1.87-1.92,2,2,0,0,1,2-2A1.86,1.86,0,0,1,120.19,21.67Z"/><path d="M79.64,54.61a2,2,0,0,1-2,1.89,2.15,2.15,0,0,1-1.85-2,2.09,2.09,0,0,1,2-2A2,2,0,0,1,79.64,54.61Z"/><path d="M23.16,117.43a1.89,1.89,0,0,1-1.78,2,1.94,1.94,0,1,1-.05-3.87A1.83,1.83,0,0,1,23.16,117.43Z"/><path d="M66.82,66.15a1.93,1.93,0,0,1,1.81,1.94,2,2,0,0,1-2,1.93,1.92,1.92,0,0,1-1.84-1.92A1.84,1.84,0,0,1,66.82,66.15Z"/><path d="M13.16,69.77a2,2,0,0,1,1.95,2,1.89,1.89,0,0,1-1.84,1.92,2,2,0,0,1-2-1.87A2.08,2.08,0,0,1,13.16,69.77Z"/><path d="M32.12,136.58a2,2,0,0,1-2-1.9,2.23,2.23,0,0,1,2-2,2,2,0,0,1,1.87,1.9A1.81,1.81,0,0,1,32.12,136.58Z"/><path d="M33.91,109.24a2.15,2.15,0,0,1-2,2,2.2,2.2,0,0,1-1.9-2.06A2,2,0,0,1,32,107.3,2,2,0,0,1,33.91,109.24Z"/><path d="M101,84.46a1.87,1.87,0,1,1-3.74.18,1.87,1.87,0,1,1,3.74-.18Z"/><path d="M34,126.5a2,2,0,0,1-2,1.89,2.17,2.17,0,0,1-1.85-2,2.05,2.05,0,0,1,2-1.93A1.88,1.88,0,0,1,34,126.5Z"/><path d="M21.25,57.46a1.88,1.88,0,0,1,1.91,1.94,1.78,1.78,0,0,1-1.8,1.9,2,2,0,0,1-2-1.85A2,2,0,0,1,21.25,57.46Z"/><path d="M134.49,3.2A1.82,1.82,0,0,1,136.39,5a2,2,0,0,1-1.84,2.06,2.14,2.14,0,0,1-2-1.94A2,2,0,0,1,134.49,3.2Z"/><path d="M114.22,84.6a1.9,1.9,0,1,1-3.79,0,1.9,1.9,0,1,1,3.79,0Z"/><path d="M155.52,51.57a2,2,0,0,1-1.89,2,2,2,0,0,1-1.91-2,1.92,1.92,0,0,1,2-1.88A1.81,1.81,0,0,1,155.52,51.57Z"/><path d="M177,114.56a2,2,0,0,1-2,1.91,2.2,2.2,0,0,1-1.88-2.07,2.09,2.09,0,0,1,2.11-1.82A1.88,1.88,0,0,1,177,114.56Z"/><path d="M126.34,97.68a2.05,2.05,0,0,1-1.87-2.06,1.94,1.94,0,0,1,1.93-1.82,1.9,1.9,0,0,1,1.94,2A2.08,2.08,0,0,1,126.34,97.68Z"/><path d="M66.32,117.5a1.88,1.88,0,1,1-1.87-2A2,2,0,0,1,66.32,117.5Z"/><path d="M166.28,126.45a2,2,0,0,1-1.85,1.94,1.94,1.94,0,0,1-2-1.9,1.89,1.89,0,0,1,1.89-2A2,2,0,0,1,166.28,126.45Z"/><path d="M89.11,124.49a1.93,1.93,0,0,1,1.89,2,2,2,0,0,1-2,1.91,1.88,1.88,0,0,1-1.8-1.94A1.84,1.84,0,0,1,89.11,124.49Z"/><path d="M43.3,134.37a2,2,0,0,1,1.91,2,2,2,0,0,1-2,2,2,2,0,0,1-1.89-2A1.91,1.91,0,0,1,43.3,134.37Z"/><path d="M74.78,151.71a2.06,2.06,0,0,1,2,2,1.91,1.91,0,0,1-1.94,1.93,1.83,1.83,0,0,1-1.89-1.84A2,2,0,0,1,74.78,151.71Z"/><path d="M68.63,59.81a2,2,0,0,1-1.95,1.94,1.92,1.92,0,0,1-1.91-2,2,2,0,0,1,1.93-2A2,2,0,0,1,68.63,59.81Z"/><path d="M31,89.79a2.06,2.06,0,0,1-2,2,2,2,0,0,1-1.88-2A1.85,1.85,0,0,1,29,87.86,2,2,0,0,1,31,89.79Z"/><path d="M164,119.41a2,2,0,0,1-1.88-2,2,2,0,0,1,2-1.88,2,2,0,0,1,1.79,2A1.93,1.93,0,0,1,164,119.41Z"/><path d="M134.52,89.4a1.91,1.91,0,0,1-2-1.9,2,2,0,0,1,2-1.92,1.83,1.83,0,0,1,1.86,1.86A1.8,1.8,0,0,1,134.52,89.4Z"/><path d="M165.91,109.16a2.06,2.06,0,0,1-1.86,2.06,2.2,2.2,0,0,1-2-2,2,2,0,0,1,2-1.93A1.81,1.81,0,0,1,165.91,109.16Z"/><path d="M142.56,77.32a1.94,1.94,0,0,1,.05,3.88,2,2,0,0,1-1.9-1.86A1.9,1.9,0,0,1,142.56,77.32Z"/><path d="M115.38,111.22a2.05,2.05,0,0,1-1.92-2,1.93,1.93,0,0,1,2-1.92,2,2,0,0,1,1.91,1.86A2.29,2.29,0,0,1,115.38,111.22Z"/><path d="M62.56,109.2a1.8,1.8,0,0,1,1.93-1.89,1.9,1.9,0,0,1,1.84,1.89,2.06,2.06,0,0,1-1.9,2A2,2,0,0,1,62.56,109.2Z"/><path d="M164.05,99.05a1.86,1.86,0,0,1,1.86,2A1.94,1.94,0,0,1,164,103a2.07,2.07,0,0,1-1.91-2A2,2,0,0,1,164.05,99.05Z"/><path d="M150.69,64.76a1.94,1.94,0,0,1-1.85-2.05,1.9,1.9,0,0,1,1.89-1.87,2.07,2.07,0,0,1,2,2A2.23,2.23,0,0,1,150.69,64.76Z"/><path d="M101.15,12.37a2,2,0,0,1-1.88-2,1.86,1.86,0,0,1,2-1.88,2,2,0,0,1,1.86,1.93A2.09,2.09,0,0,1,101.15,12.37Z"/><path d="M66.35,26.88a2,2,0,0,1-2,1.94,1.88,1.88,0,0,1-1.83-2A1.76,1.76,0,0,1,64.42,25,1.86,1.86,0,0,1,66.35,26.88Z"/><path d="M111.18,101a2,2,0,0,1-1.89,2,2.07,2.07,0,0,1-2-2,2,2,0,0,1,1.87-1.91A1.86,1.86,0,0,1,111.18,101Z"/><path d="M66.34,101a2,2,0,0,1-1.91,2,1.92,1.92,0,0,1-1.87-1.88,1.85,1.85,0,0,1,1.81-2A1.89,1.89,0,0,1,66.34,101Z"/><path d="M92.94,76.26a1.93,1.93,0,0,1-1.82,1.95,1.88,1.88,0,0,1-2-1.88,1.79,1.79,0,0,1,1.91-1.94A1.88,1.88,0,0,1,92.94,76.26Z"/><path d="M48.26,74.38a1.8,1.8,0,0,1,1.83,2,1.88,1.88,0,1,1-1.83-2Z"/><path d="M50.42,16.75a2,2,0,0,1,2,1.86,2,2,0,0,1-1.95,1.95,1.91,1.91,0,0,1-1.91-1.82A1.82,1.82,0,0,1,50.42,16.75Z"/><path d="M23,18.59a1.8,1.8,0,0,1-1.76,2,2,2,0,0,1-2-1.85,1.92,1.92,0,0,1,1.93-2A1.79,1.79,0,0,1,23,18.59Z"/><path d="M50.5,8.48a2,2,0,0,1,1.93,2,2.06,2.06,0,0,1-2,1.92,1.91,1.91,0,0,1-1.82-1.94A1.84,1.84,0,0,1,50.5,8.48Z"/><path d="M23,10.44a1.91,1.91,0,0,1-1.94,1.93,2,2,0,0,1-1.86-1.93,2,2,0,0,1,1.93-2A1.84,1.84,0,0,1,23,10.44Z"/><path d="M79.65,132a1.91,1.91,0,0,1-2,1.88A2,2,0,0,1,75.79,132a2.14,2.14,0,0,1,2-2A2.08,2.08,0,0,1,79.65,132Z"/><path d="M79.64,142.53a1.89,1.89,0,0,1-1.86,1.88,2,2,0,0,1-2-1.91,2.06,2.06,0,0,1,1.82-2A2,2,0,0,1,79.64,142.53Z"/><path d="M69.6,130a2.19,2.19,0,0,1,2,2,2,2,0,0,1-2,1.93A1.87,1.87,0,0,1,67.73,132,2,2,0,0,1,69.6,130Z"/><path d="M69.55,144.41a1.83,1.83,0,0,1-1.82-1.91,2,2,0,0,1,1.91-2,2.11,2.11,0,0,1,1.94,2A2,2,0,0,1,69.55,144.41Z"/><text class="cls-5" transform="translate(80.36 205.16)">Data <tspan x="-25.7" y="16.8">Connection</tspan><tspan x="-17.14" y="33.6">Internet </tspan></text><text class="cls-5" transform="translate(237.17 203.16)">Keep eye on/check<tspan x="21.42" y="16.8">Survaillance</tspan><tspan x="34.27" y="33.6">Look into</tspan></text><text class="cls-5" transform="translate(449.73 206.45)">Security</text></svg>