<?xml version="1.0" encoding="utf-8"?>
<!-- Generator: Adobe Illustrator 23.0.1, SVG Export Plug-In . SVG Version: 6.00 Build 0)  -->
<svg version="1.1" id="Layer_1" xmlns="http://www.w3.org/2000/svg" xmlns:xlink="http://www.w3.org/1999/xlink" x="0px" y="0px"
	 viewBox="0 0 356.2 1096.6" style="enable-background:new 0 0 356.2 1096.6;" xml:space="preserve">
<style type="text/css">
	.st0{fill:none;}
	.st1{fill:#FFFFFF;}
	.st2{fill:#D0FFB8;}
	.st3{fill:url(#New_Pattern);}
</style>
<pattern  x="-515.2" y="723.5" width="76" height="108" patternUnits="userSpaceOnUse" id="New_Pattern" viewBox="6.3 -129.8 76 108" style="overflow:visible;">
	<g>
		<rect x="6.3" y="-129.8" class="st0" width="76" height="108"/>
		<g>
			<path d="M69.4-0.8c0,0.1-0.1,0.3-0.3,0.3c-0.4,0.1-0.8,0.3-1.3,0.3c-0.7,0.1-1.4,0.2-2.1,0.3l0,0c-0.3,0-0.6,0-0.8-0.1
				c-0.2,0-0.3-0.1-0.5-0.2v-0.1c0-0.5-0.1-1-0.1-1.5c0-0.1,0-0.1,0-0.1c-0.1,0-0.1,0-0.1,0c-0.5,0.4-1.1,0.5-1.8,0.6
				c-0.3,0-0.8,0.1-1.1,0.1c-0.3,0-0.4,0-0.6,0c-0.1,0-0.1-0.1-0.1-0.1c-0.4-1.3-0.8-2.5-1.4-3.6c-0.5-1.1-0.8-2.1-1.3-3.2
				c-0.1-0.3-0.3-0.7-0.4-1c-0.3-0.7-0.4-1.4-0.4-2c0-1-0.1-2.1-0.1-3.1c0-0.8,0-1.5,0-2.2s0-1.4,0.1-2.1c0.1-0.3,0.2-0.6,0.3-0.9
				c0.1-0.3,0.2-0.6,0.2-0.8c0.1-0.9,0.2-1.9,0.3-2.9c0-0.6,0-1.2,0-1.9c0-0.2,0-0.3,0.1-0.4c0-0.1,0.1-0.3,0.3-0.3
				c0.4,0,0.4-0.1,0.5-0.4c0-0.5,0.1-0.9,0.3-1.4c0.3-0.8,0.6-1.6,0.9-2.4c0.2-0.3,0.3-0.6,0.5-0.9c0,0,0.1-0.1,0.2-0.1
				c0.1-0.1,0.2-0.1,0.3-0.1s0.1-0.1,0.1-0.1s0-0.1-0.1-0.1s-0.1-0.1-0.1-0.1c0.1-0.1,0.1-0.2,0.1-0.2c0.3-0.2,0.2-0.3,0.2-0.5
				c0-0.1,0-0.1,0-0.1c-0.3-0.1-0.2-0.3-0.2-0.4c0-0.1,0-0.3,0.2-0.3V-33c0-1.2,0-2.4,0-3.6c0-0.1,0.1-0.2,0.2-0.2
				c0.2,0,0.3-0.1,0.6-0.1c0.1,0,0.2,0,0.2,0.1c0.2,1,0.4,2,0.4,3c0.1,0.6,0.3,1,0.7,1.5c0,0.1,0.1,0.1,0.2,0
				c0.5-0.7,0.8-1.4,0.9-2.1c0.1-0.8,0.3-1.6,0.3-2.5c0-0.1,0.1-0.1,0.2-0.1c0.3,0,0.4,0,0.7,0l0.1,0.1c0.2,1.2,0.3,2.4,0.4,3.6
				c0,0.2,0.2,0.3,0.2,0.4c0.1,0.2,0,0.3-0.2,0.3c-0.1,0-0.1,0.1-0.1,0.2c-0.1,0.2,0,0.3,0.2,0.3c0.1,0,0.2,0.2,0,0.3v0.1
				c0,0.1,0.1,0.1,0.1,0.1l0,0c0.3,0,0.4,0.2,0.5,0.4c0.2,0.5,0.3,0.9,0.4,1.4c0.2,0.6,0.3,1.1,0.5,1.7c0.2,0.5,0.3,1,0.3,1.5
				c0,0.1-0.1,0.3-0.1,0.3c-0.1,0.1,0,0.2,0.1,0.2c0.2,0,0.3,0.1,0.5,0.1l0.1,0.1c0.1,1.1,0.2,2.2,0.3,3.3c0.1,0.7,0.2,1.4,0.3,2
				c0,0.1,0.1,0.2,0.1,0.3c0,0.2,0.1,0.3,0,0.6c-0.2,0.2,0,0.4,0,0.7c0.1,0.3,0.1,0.5,0.1,0.8c0,0.1-0.1,0.1-0.1,0.2
				c0,0.2,0.1,0.3,0.1,0.3c0,0.1,0.1,0.2,0.1,0.2c-0.2,0.3-0.1,0.6,0.1,0.8c0,0.1-0.1,0.1-0.1,0.2c0,0.1-0.1,0.1-0.1,0.2
				c0,0.3,0,0.8,0,1.1c0.1,1.2,0,2.3,0.2,3.5c0.2,1.4,0.3,2.8,0.3,4.2c0,0.3,0.1,0.8,0.1,1.2c0,0.2,0,0.4,0,0.6
				c0.1,1.2,0.1,2.4,0.1,3.6C69.6-1.8,69.6-1.4,69.4-0.8z M64.4-7c0-0.8,0-1.7-0.1-2.5c-0.1-0.7-0.2-1.4-0.3-2
				c-0.1-0.8-0.3-1.6-0.5-2.4c-0.2-0.4-0.3-0.9-0.4-1.4c0-0.2-0.1-0.3-0.1-0.4l0,0c-0.1,0.3-0.2,0.7-0.3,1c-0.2,0.4-0.3,0.9-0.4,1.4
				c-0.2,0.5-0.5,1-0.8,1.5c-0.1,0.1,0,0.1,0,0.2c0.2,0.3,0.4,0.4,0.6,0.7c0.5,0.8,0.9,1.5,1.2,2.3c0.1,0.4,0.3,0.8,0.4,1.2
				c0.1,0.4,0.3,0.8,0.4,1.2c0,0.1,0.1,0.1,0.1,0.2C64.4-6.5,64.4-6.8,64.4-7z"/>
			<path class="st1" d="M65.5-25.3h2.2v3.7l0,0C66.9-22.8,66.2-24.1,65.5-25.3z"/>
			<path class="st1" d="M61.1-25.3h-2.2v3.7l0,0C59.5-22.8,60.3-24.1,61.1-25.3z"/>
			<circle cx="59.6" cy="-24.3" r="0.3"/>
			<circle cx="67" cy="-24.4" r="0.3"/>
			<rect x="61.5" y="-30.4" class="st1" width="3.8" height="1.1"/>
			<circle class="st1" cx="61.8" cy="-32.3" r="0.3"/>
			<circle class="st1" cx="64.9" cy="-32.3" r="0.3"/>
		</g>
		<g>
			<path d="M31.4-0.8c0,0.1-0.1,0.3-0.3,0.3c-0.4,0.1-0.8,0.3-1.3,0.3c-0.7,0.1-1.4,0.2-2.1,0.3l0,0c-0.3,0-0.6,0-0.8-0.1
				c-0.2,0-0.3-0.1-0.5-0.2v-0.1c0-0.5-0.1-1-0.1-1.5c0-0.1,0-0.1,0-0.1c-0.1,0-0.1,0-0.1,0c-0.5,0.4-1.1,0.5-1.8,0.6
				c-0.3,0-0.8,0.1-1.1,0.1c-0.3,0-0.4,0-0.6,0c-0.1,0-0.1-0.1-0.1-0.1c-0.4-1.3-0.8-2.5-1.4-3.6c-0.5-1.1-0.8-2.1-1.3-3.2
				c-0.1-0.3-0.3-0.7-0.4-1c-0.3-0.7-0.4-1.4-0.4-2c0-1-0.1-2.1-0.1-3.1c0-0.8,0-1.5,0-2.2s0-1.4,0.1-2.1c0.1-0.3,0.2-0.6,0.3-0.9
				c0.1-0.3,0.2-0.6,0.2-0.8c0.1-0.9,0.2-1.9,0.3-2.9c0-0.6,0-1.2,0-1.9c0-0.2,0-0.3,0.1-0.4c0-0.1,0.1-0.3,0.3-0.3
				c0.4,0,0.4-0.1,0.5-0.4c0-0.5,0.1-0.9,0.3-1.4c0.3-0.8,0.6-1.6,0.9-2.4c0.2-0.3,0.3-0.6,0.5-0.9c0,0,0.1-0.1,0.2-0.1
				c0.1-0.1,0.2-0.1,0.3-0.1c0.1,0,0.1-0.1,0.1-0.1s0-0.1-0.1-0.1c-0.1,0-0.1-0.1-0.1-0.1c0.1-0.1,0.1-0.2,0.1-0.2
				c0.3-0.2,0.2-0.3,0.2-0.5c0-0.1,0-0.1,0-0.1c-0.3-0.1-0.2-0.3-0.2-0.4c0-0.1,0-0.3,0.2-0.3V-33c0-1.2,0-2.4,0-3.6
				c0-0.1,0.1-0.2,0.2-0.2c0.2,0,0.3-0.1,0.6-0.1c0.1,0,0.2,0,0.2,0.1c0.2,1,0.4,2,0.4,3c0.1,0.6,0.3,1,0.7,1.5c0,0.1,0.1,0.1,0.2,0
				c0.5-0.7,0.8-1.4,0.9-2.1c0.1-0.8,0.3-1.6,0.3-2.5c0-0.1,0.1-0.1,0.2-0.1c0.3,0,0.4,0,0.7,0l0.1,0.1c0.2,1.2,0.3,2.4,0.4,3.6
				c0,0.2,0.2,0.3,0.2,0.4c0.1,0.2,0,0.3-0.2,0.3c-0.1,0-0.1,0.1-0.1,0.2c-0.1,0.2,0,0.3,0.2,0.3c0.1,0,0.2,0.2,0,0.3v0.1
				c0,0.1,0.1,0.1,0.1,0.1l0,0c0.3,0,0.4,0.2,0.5,0.4c0.2,0.5,0.3,0.9,0.4,1.4c0.2,0.6,0.3,1.1,0.5,1.7c0.2,0.5,0.3,1,0.3,1.5
				c0,0.1-0.1,0.3-0.1,0.3c-0.1,0.1,0,0.2,0.1,0.2c0.2,0,0.3,0.1,0.5,0.1l0.1,0.1c0.1,1.1,0.2,2.2,0.3,3.3c0.1,0.7,0.2,1.4,0.3,2
				c0,0.1,0.1,0.2,0.1,0.3c0,0.2,0.1,0.3,0,0.6c-0.2,0.2,0,0.4,0,0.7c0.1,0.3,0.1,0.5,0.1,0.8c0,0.1-0.1,0.1-0.1,0.2
				c0,0.2,0.1,0.3,0.1,0.3c0,0.1,0.1,0.2,0.1,0.2c-0.2,0.3-0.1,0.6,0.1,0.8c0,0.1-0.1,0.1-0.1,0.2c0,0.1-0.1,0.1-0.1,0.2
				c0,0.3,0,0.8,0,1.1c0.1,1.2,0,2.3,0.2,3.5c0.2,1.4,0.3,2.8,0.3,4.2c0,0.3,0.1,0.8,0.1,1.2c0,0.2,0,0.4,0,0.6
				c0.1,1.2,0.1,2.4,0.1,3.6C31.6-1.8,31.6-1.4,31.4-0.8z M26.4-7c0-0.8,0-1.7-0.1-2.5c-0.1-0.7-0.2-1.4-0.3-2
				c-0.1-0.8-0.3-1.6-0.5-2.4c-0.2-0.4-0.3-0.9-0.4-1.4c0-0.2-0.1-0.3-0.1-0.4l0,0c-0.1,0.3-0.2,0.7-0.3,1c-0.2,0.4-0.3,0.9-0.4,1.4
				c-0.2,0.5-0.5,1-0.8,1.5c-0.1,0.1,0,0.1,0,0.2c0.2,0.3,0.4,0.4,0.6,0.7c0.5,0.8,0.9,1.5,1.2,2.3c0.1,0.4,0.3,0.8,0.4,1.2
				c0.1,0.4,0.3,0.8,0.4,1.2c0,0.1,0.1,0.1,0.1,0.2C26.4-6.5,26.4-6.8,26.4-7z"/>
			<path class="st1" d="M27.5-25.3h2.2v3.7l0,0C28.9-22.8,28.2-24.1,27.5-25.3z"/>
			<path class="st1" d="M23.1-25.3h-2.2v3.7l0,0C21.5-22.8,22.3-24.1,23.1-25.3z"/>
			<circle cx="21.6" cy="-24.3" r="0.3"/>
			<circle cx="29" cy="-24.4" r="0.3"/>
			<rect x="23.5" y="-30.4" class="st1" width="3.8" height="1.1"/>
			<circle class="st1" cx="23.8" cy="-32.3" r="0.3"/>
			<circle class="st1" cx="26.9" cy="-32.3" r="0.3"/>
		</g>
		<g>
			<path d="M88.4-54.8c0,0.1-0.1,0.3-0.3,0.3c-0.4,0.1-0.8,0.3-1.3,0.3c-0.7,0.1-1.4,0.2-2.1,0.3l0,0c-0.3,0-0.6,0-0.8-0.1
				c-0.2,0-0.3-0.1-0.5-0.2v-0.1c0-0.5-0.1-1-0.1-1.5c0-0.1,0-0.1,0-0.1c-0.1,0-0.1,0-0.1,0c-0.5,0.4-1.1,0.5-1.8,0.6
				c-0.3,0-0.8,0.1-1.1,0.1c-0.3,0-0.4,0-0.6,0c-0.1,0-0.1-0.1-0.1-0.1c-0.4-1.3-0.8-2.5-1.4-3.6c-0.5-1.1-0.8-2.1-1.3-3.2
				c-0.1-0.3-0.3-0.7-0.4-1c-0.3-0.7-0.4-1.4-0.4-2c0-1-0.1-2.1-0.1-3.1c0-0.8,0-1.5,0-2.2c0-0.7,0-1.4,0.1-2.1
				c0.1-0.3,0.2-0.6,0.3-0.9c0.1-0.3,0.2-0.6,0.2-0.8c0.1-0.9,0.2-1.9,0.3-2.9c0-0.6,0-1.2,0-1.9c0-0.2,0-0.3,0.1-0.4
				c0-0.1,0.1-0.3,0.3-0.3c0.4,0,0.4-0.1,0.5-0.4c0-0.5,0.1-0.9,0.3-1.4c0.3-0.8,0.6-1.6,0.9-2.4c0.2-0.3,0.3-0.6,0.5-0.9
				c0,0,0.1-0.1,0.2-0.1c0.1-0.1,0.2-0.1,0.3-0.1s0.1-0.1,0.1-0.1s0-0.1-0.1-0.1s-0.1-0.1-0.1-0.1c0.1-0.1,0.1-0.2,0.1-0.2
				c0.3-0.2,0.2-0.3,0.2-0.5c0-0.1,0-0.1,0-0.1c-0.3-0.1-0.2-0.3-0.2-0.4c0-0.1,0-0.3,0.2-0.3V-87c0-1.2,0-2.4,0-3.6
				c0-0.1,0.1-0.2,0.2-0.2c0.2,0,0.3-0.1,0.6-0.1c0.1,0,0.2,0,0.2,0.1c0.2,1,0.4,2,0.4,3c0.1,0.6,0.3,1,0.7,1.5c0,0.1,0.1,0.1,0.2,0
				c0.5-0.7,0.8-1.4,0.9-2.1c0.1-0.8,0.3-1.6,0.3-2.5c0-0.1,0.1-0.1,0.2-0.1c0.3,0,0.4,0,0.7,0l0.1,0.1c0.2,1.2,0.3,2.4,0.4,3.6
				c0,0.2,0.2,0.3,0.2,0.4c0.1,0.2,0,0.3-0.2,0.3c-0.1,0-0.1,0.1-0.1,0.2c-0.1,0.2,0,0.3,0.2,0.3c0.1,0,0.2,0.2,0,0.3v0.1
				c0,0.1,0.1,0.1,0.1,0.1l0,0c0.3,0,0.4,0.2,0.5,0.4c0.2,0.5,0.3,0.9,0.4,1.4c0.2,0.6,0.3,1.1,0.5,1.7c0.2,0.5,0.3,1,0.3,1.5
				c0,0.1-0.1,0.3-0.1,0.3c-0.1,0.1,0,0.2,0.1,0.2c0.2,0,0.3,0.1,0.5,0.1l0.1,0.1c0.1,1.1,0.2,2.2,0.3,3.3c0.1,0.7,0.2,1.4,0.3,2
				c0,0.1,0.1,0.2,0.1,0.3c0,0.2,0.1,0.3,0,0.6c-0.2,0.2,0,0.4,0,0.7c0.1,0.3,0.1,0.5,0.1,0.8c0,0.1-0.1,0.1-0.1,0.2
				c0,0.2,0.1,0.3,0.1,0.3s0.1,0.2,0.1,0.2c-0.2,0.3-0.1,0.6,0.1,0.8c0,0.1-0.1,0.1-0.1,0.2c0,0.1-0.1,0.1-0.1,0.2
				c0,0.3,0,0.8,0,1.1c0.1,1.2,0,2.3,0.2,3.5c0.2,1.4,0.3,2.8,0.3,4.2c0,0.3,0.1,0.8,0.1,1.2c0,0.2,0,0.4,0,0.6
				c0.1,1.2,0.1,2.4,0.1,3.6C88.6-55.8,88.6-55.4,88.4-54.8z M83.4-61c0-0.8,0-1.7-0.1-2.5c-0.1-0.7-0.2-1.4-0.3-2
				c-0.1-0.8-0.3-1.6-0.5-2.4c-0.2-0.4-0.3-0.9-0.4-1.4c0-0.2-0.1-0.3-0.1-0.4l0,0c-0.1,0.3-0.2,0.7-0.3,1c-0.2,0.4-0.3,0.9-0.4,1.4
				c-0.2,0.5-0.5,1-0.8,1.5c-0.1,0.1,0,0.1,0,0.2c0.2,0.3,0.4,0.4,0.6,0.7c0.5,0.8,0.9,1.5,1.2,2.3c0.1,0.4,0.3,0.8,0.4,1.2
				c0.1,0.4,0.3,0.8,0.4,1.2c0,0.1,0.1,0.1,0.1,0.2C83.4-60.5,83.4-60.8,83.4-61z"/>
			<path class="st1" d="M80.1-79.3h-2.2v3.7l0,0C78.5-76.8,79.3-78.1,80.1-79.3z"/>
			<circle cx="78.6" cy="-78.3" r="0.3"/>
			<rect x="80.5" y="-84.4" class="st1" width="3.8" height="1.1"/>
			<circle class="st1" cx="80.8" cy="-86.3" r="0.3"/>
		</g>
		<g>
			<path d="M50.4-54.8c0,0.1-0.1,0.3-0.3,0.3c-0.4,0.1-0.8,0.3-1.3,0.3c-0.7,0.1-1.4,0.2-2.1,0.3l0,0c-0.3,0-0.6,0-0.8-0.1
				c-0.2,0-0.3-0.1-0.5-0.2v-0.1c0-0.5-0.1-1-0.1-1.5c0-0.1,0-0.1,0-0.1c-0.1,0-0.1,0-0.1,0c-0.5,0.4-1.1,0.5-1.8,0.6
				c-0.3,0-0.8,0.1-1.1,0.1c-0.3,0-0.4,0-0.6,0c-0.1,0-0.1-0.1-0.1-0.1c-0.4-1.3-0.8-2.5-1.4-3.6c-0.5-1.1-0.8-2.1-1.3-3.2
				c-0.1-0.3-0.3-0.7-0.4-1c-0.3-0.7-0.4-1.4-0.4-2c0-1-0.1-2.1-0.1-3.1c0-0.8,0-1.5,0-2.2c0-0.7,0-1.4,0.1-2.1
				c0.1-0.3,0.2-0.6,0.3-0.9c0.1-0.3,0.2-0.6,0.2-0.8c0.1-0.9,0.2-1.9,0.3-2.9c0-0.6,0-1.2,0-1.9c0-0.2,0-0.3,0.1-0.4
				c0-0.1,0.1-0.3,0.3-0.3c0.4,0,0.4-0.1,0.5-0.4c0-0.5,0.1-0.9,0.3-1.4c0.3-0.8,0.6-1.6,0.9-2.4c0.2-0.3,0.3-0.6,0.5-0.9
				c0,0,0.1-0.1,0.2-0.1c0.1-0.1,0.2-0.1,0.3-0.1s0.1-0.1,0.1-0.1s0-0.1-0.1-0.1s-0.1-0.1-0.1-0.1c0.1-0.1,0.1-0.2,0.1-0.2
				c0.3-0.2,0.2-0.3,0.2-0.5c0-0.1,0-0.1,0-0.1c-0.3-0.1-0.2-0.3-0.2-0.4c0-0.1,0-0.3,0.2-0.3V-87c0-1.2,0-2.4,0-3.6
				c0-0.1,0.1-0.2,0.2-0.2c0.2,0,0.3-0.1,0.6-0.1c0.1,0,0.2,0,0.2,0.1c0.2,1,0.4,2,0.4,3c0.1,0.6,0.3,1,0.7,1.5c0,0.1,0.1,0.1,0.2,0
				c0.5-0.7,0.8-1.4,0.9-2.1c0.1-0.8,0.3-1.6,0.3-2.5c0-0.1,0.1-0.1,0.2-0.1c0.3,0,0.4,0,0.7,0l0.1,0.1c0.2,1.2,0.3,2.4,0.4,3.6
				c0,0.2,0.2,0.3,0.2,0.4c0.1,0.2,0,0.3-0.2,0.3c-0.1,0-0.1,0.1-0.1,0.2c-0.1,0.2,0,0.3,0.2,0.3c0.1,0,0.2,0.2,0,0.3v0.1
				c0,0.1,0.1,0.1,0.1,0.1l0,0c0.3,0,0.4,0.2,0.5,0.4c0.2,0.5,0.3,0.9,0.4,1.4c0.2,0.6,0.3,1.1,0.5,1.7c0.2,0.5,0.3,1,0.3,1.5
				c0,0.1-0.1,0.3-0.1,0.3c-0.1,0.1,0,0.2,0.1,0.2c0.2,0,0.3,0.1,0.5,0.1l0.1,0.1c0.1,1.1,0.2,2.2,0.3,3.3c0.1,0.7,0.2,1.4,0.3,2
				c0,0.1,0.1,0.2,0.1,0.3c0,0.2,0.1,0.3,0,0.6c-0.2,0.2,0,0.4,0,0.7c0.1,0.3,0.1,0.5,0.1,0.8c0,0.1-0.1,0.1-0.1,0.2
				c0,0.2,0.1,0.3,0.1,0.3s0.1,0.2,0.1,0.2c-0.2,0.3-0.1,0.6,0.1,0.8c0,0.1-0.1,0.1-0.1,0.2c0,0.1-0.1,0.1-0.1,0.2
				c0,0.3,0,0.8,0,1.1c0.1,1.2,0,2.3,0.2,3.5c0.2,1.4,0.3,2.8,0.3,4.2c0,0.3,0.1,0.8,0.1,1.2c0,0.2,0,0.4,0,0.6
				c0.1,1.2,0.1,2.4,0.1,3.6C50.6-55.8,50.6-55.4,50.4-54.8z M45.4-61c0-0.8,0-1.7-0.1-2.5c-0.1-0.7-0.2-1.4-0.3-2
				c-0.1-0.8-0.3-1.6-0.5-2.4c-0.2-0.4-0.3-0.9-0.4-1.4c0-0.2-0.1-0.3-0.1-0.4l0,0c-0.1,0.3-0.2,0.7-0.3,1c-0.2,0.4-0.3,0.9-0.4,1.4
				c-0.2,0.5-0.5,1-0.8,1.5c-0.1,0.1,0,0.1,0,0.2c0.2,0.3,0.4,0.4,0.6,0.7c0.5,0.8,0.9,1.5,1.2,2.3c0.1,0.4,0.3,0.8,0.4,1.2
				c0.1,0.4,0.3,0.8,0.4,1.2c0,0.1,0.1,0.1,0.1,0.2C45.4-60.5,45.4-60.8,45.4-61z"/>
			<path class="st1" d="M46.5-79.3h2.2v3.7l0,0C47.9-76.8,47.2-78.1,46.5-79.3z"/>
			<path class="st1" d="M42.1-79.3h-2.2v3.7l0,0C40.5-76.8,41.3-78.1,42.1-79.3z"/>
			<rect x="47.1" y="-72.8" class="st1" width="2.8" height="1"/>
			<circle cx="40.6" cy="-78.3" r="0.3"/>
			<circle cx="48" cy="-78.4" r="0.3"/>
			<rect x="42.5" y="-84.4" class="st1" width="3.8" height="1.1"/>
			<circle class="st1" cx="42.8" cy="-86.3" r="0.3"/>
			<circle class="st1" cx="45.9" cy="-86.3" r="0.3"/>
		</g>
		<g>
			<path d="M12.4-54.8c0,0.1-0.1,0.3-0.3,0.3c-0.4,0.1-0.8,0.3-1.3,0.3c-0.7,0.1-1.4,0.2-2.1,0.3l0,0c-0.3,0-0.6,0-0.8-0.1
				c-0.2,0-0.3-0.1-0.5-0.2v-0.1c0-0.5-0.1-1-0.1-1.5c0-0.1,0-0.1,0-0.1c-0.1,0-0.1,0-0.1,0c-0.5,0.4-1.1,0.5-1.8,0.6
				c-0.3,0-0.8,0.1-1.1,0.1c-0.3,0-0.4,0-0.6,0c-0.1,0-0.1-0.1-0.1-0.1c-0.4-1.3-0.8-2.5-1.4-3.6c-0.5-1.1-0.8-2.1-1.3-3.2
				c-0.1-0.3-0.3-0.7-0.4-1c-0.3-0.7-0.4-1.4-0.4-2c0-1-0.1-2.1-0.1-3.1c0-0.8,0-1.5,0-2.2c0-0.7,0-1.4,0.1-2.1
				c0.1-0.3,0.2-0.6,0.3-0.9c0.1-0.3,0.2-0.6,0.2-0.8c0.1-0.9,0.2-1.9,0.3-2.9c0-0.6,0-1.2,0-1.9c0-0.2,0-0.3,0.1-0.4
				c0-0.1,0.1-0.3,0.3-0.3c0.4,0,0.4-0.1,0.5-0.4c0-0.5,0.1-0.9,0.3-1.4c0.3-0.8,0.6-1.6,0.9-2.4c0.2-0.3,0.3-0.6,0.5-0.9
				c0,0,0.1-0.1,0.2-0.1c0.1-0.1,0.2-0.1,0.3-0.1s0.1-0.1,0.1-0.1s0-0.1-0.1-0.1s-0.1-0.1-0.1-0.1c0.1-0.1,0.1-0.2,0.1-0.2
				C4-85.8,3.9-86,3.9-86.2c0-0.1,0-0.1,0-0.1c-0.3-0.1-0.2-0.3-0.2-0.4c0-0.1,0-0.3,0.2-0.3V-87c0-1.2,0-2.4,0-3.6
				c0-0.1,0.1-0.2,0.2-0.2c0.2,0,0.3-0.1,0.6-0.1c0.1,0,0.2,0,0.2,0.1c0.2,1,0.4,2,0.4,3c0.1,0.6,0.3,1,0.7,1.5c0,0.1,0.1,0.1,0.2,0
				c0.5-0.7,0.8-1.4,0.9-2.1c0.1-0.8,0.3-1.6,0.3-2.5c0-0.1,0.1-0.1,0.2-0.1c0.3,0,0.4,0,0.7,0l0.1,0.1c0.2,1.2,0.3,2.4,0.4,3.6
				c0,0.2,0.2,0.3,0.2,0.4c0.1,0.2,0,0.3-0.2,0.3c-0.1,0-0.1,0.1-0.1,0.2c-0.1,0.2,0,0.3,0.2,0.3c0.1,0,0.2,0.2,0,0.3v0.1
				c0,0.1,0.1,0.1,0.1,0.1l0,0c0.3,0,0.4,0.2,0.5,0.4c0.2,0.5,0.3,0.9,0.4,1.4c0.2,0.6,0.3,1.1,0.5,1.7c0.2,0.5,0.3,1,0.3,1.5
				c0,0.1-0.1,0.3-0.1,0.3c-0.1,0.1,0,0.2,0.1,0.2c0.2,0,0.3,0.1,0.5,0.1l0.1,0.1c0.1,1.1,0.2,2.2,0.3,3.3c0.1,0.7,0.2,1.4,0.3,2
				c0,0.1,0.1,0.2,0.1,0.3c0,0.2,0.1,0.3,0,0.6c-0.2,0.2,0,0.4,0,0.7c0.1,0.3,0.1,0.5,0.1,0.8c0,0.1-0.1,0.1-0.1,0.2
				c0,0.2,0.1,0.3,0.1,0.3s0.1,0.2,0.1,0.2c-0.2,0.3-0.1,0.6,0.1,0.8c0,0.1-0.1,0.1-0.1,0.2c0,0.1-0.1,0.1-0.1,0.2
				c0,0.3,0,0.8,0,1.1c0.1,1.2,0,2.3,0.2,3.5c0.2,1.4,0.3,2.8,0.3,4.2c0,0.3,0.1,0.8,0.1,1.2c0,0.2,0,0.4,0,0.6
				c0.1,1.2,0.1,2.4,0.1,3.6C12.6-55.8,12.6-55.4,12.4-54.8z M7.4-61c0-0.8,0-1.7-0.1-2.5c-0.1-0.7-0.2-1.4-0.3-2
				C7-66.4,6.9-67.2,6.6-68c-0.2-0.4-0.3-0.9-0.4-1.4c0-0.2-0.1-0.3-0.1-0.4l0,0c-0.1,0.3-0.2,0.7-0.3,1c-0.2,0.4-0.3,0.9-0.4,1.4
				c-0.2,0.5-0.5,1-0.8,1.5c-0.1,0.1,0,0.1,0,0.2c0.2,0.3,0.4,0.4,0.6,0.7c0.5,0.8,0.9,1.5,1.2,2.3c0.1,0.4,0.3,0.8,0.4,1.2
				c0.1,0.4,0.3,0.8,0.4,1.2c0,0.1,0.1,0.1,0.1,0.2C7.4-60.5,7.4-60.8,7.4-61z"/>
			<path class="st1" d="M8.5-79.3h2.2v3.7l0,0C9.9-76.8,9.2-78.1,8.5-79.3z"/>
			<rect x="9.1" y="-72.8" class="st1" width="2.8" height="1"/>
			<circle cx="10" cy="-78.4" r="0.3"/>
			<rect x="4.5" y="-84.4" class="st1" width="3.8" height="1.1"/>
			<circle class="st1" cx="7.9" cy="-86.3" r="0.3"/>
		</g>
		<g>
			<path d="M69.4-108.8c0,0.1-0.1,0.3-0.3,0.3c-0.4,0.1-0.8,0.3-1.3,0.3c-0.7,0.1-1.4,0.2-2.1,0.3l0,0c-0.3,0-0.6,0-0.8-0.1
				c-0.2,0-0.3-0.1-0.5-0.2v-0.1c0-0.5-0.1-1-0.1-1.5c0-0.1,0-0.1,0-0.1c-0.1,0-0.1,0-0.1,0c-0.5,0.4-1.1,0.5-1.8,0.6
				c-0.3,0-0.8,0.1-1.1,0.1c-0.3,0-0.4,0-0.6,0c-0.1,0-0.1-0.1-0.1-0.1c-0.4-1.3-0.8-2.5-1.4-3.6c-0.5-1.1-0.8-2.1-1.3-3.2
				c-0.1-0.3-0.3-0.7-0.4-1c-0.3-0.7-0.4-1.4-0.4-2c0-1-0.1-2.1-0.1-3.1c0-0.8,0-1.5,0-2.2c0-0.7,0-1.4,0.1-2.1
				c0.1-0.3,0.2-0.6,0.3-0.9c0.1-0.3,0.2-0.6,0.2-0.8c0.1-0.9,0.2-1.9,0.3-2.9c0-0.6,0-1.2,0-1.9c0-0.2,0-0.3,0.1-0.4
				c0-0.1,0.1-0.3,0.3-0.3c0.4,0,0.4-0.1,0.5-0.4c0-0.5,0.1-0.9,0.3-1.4c0.3-0.8,0.6-1.6,0.9-2.4c0.2-0.3,0.3-0.6,0.5-0.9
				c0,0,0.1-0.1,0.2-0.1c0.1-0.1,0.2-0.1,0.3-0.1s0.1-0.1,0.1-0.1s0-0.1-0.1-0.1s-0.1-0.1-0.1-0.1c0.1-0.1,0.1-0.2,0.1-0.2
				c0.3-0.2,0.2-0.3,0.2-0.5c0-0.1,0-0.1,0-0.1c-0.3-0.1-0.2-0.3-0.2-0.4c0-0.1,0-0.3,0.2-0.3v-0.1c0-1.2,0-2.4,0-3.6
				c0-0.1,0.1-0.2,0.2-0.2c0.2,0,0.3-0.1,0.6-0.1c0.1,0,0.2,0,0.2,0.1c0.2,1,0.4,2,0.4,3c0.1,0.6,0.3,1,0.7,1.5c0,0.1,0.1,0.1,0.2,0
				c0.5-0.7,0.8-1.4,0.9-2.1c0.1-0.8,0.3-1.6,0.3-2.5c0-0.1,0.1-0.1,0.2-0.1c0.3,0,0.4,0,0.7,0l0.1,0.1c0.2,1.2,0.3,2.4,0.4,3.6
				c0,0.2,0.2,0.3,0.2,0.4c0.1,0.2,0,0.3-0.2,0.3c-0.1,0-0.1,0.1-0.1,0.2c-0.1,0.2,0,0.3,0.2,0.3c0.1,0,0.2,0.2,0,0.3v0.1
				c0,0.1,0.1,0.1,0.1,0.1l0,0c0.3,0,0.4,0.2,0.5,0.4c0.2,0.5,0.3,0.9,0.4,1.4c0.2,0.6,0.3,1.1,0.5,1.7c0.2,0.5,0.3,1,0.3,1.5
				c0,0.1-0.1,0.3-0.1,0.3c-0.1,0.1,0,0.2,0.1,0.2c0.2,0,0.3,0.1,0.5,0.1l0.1,0.1c0.1,1.1,0.2,2.2,0.3,3.3c0.1,0.7,0.2,1.4,0.3,2
				c0,0.1,0.1,0.2,0.1,0.3c0,0.2,0.1,0.3,0,0.6c-0.2,0.2,0,0.4,0,0.7c0.1,0.3,0.1,0.5,0.1,0.8c0,0.1-0.1,0.1-0.1,0.2
				c0,0.2,0.1,0.3,0.1,0.3s0.1,0.2,0.1,0.2c-0.2,0.3-0.1,0.6,0.1,0.8c0,0.1-0.1,0.1-0.1,0.2c0,0.1-0.1,0.1-0.1,0.2
				c0,0.3,0,0.8,0,1.1c0.1,1.2,0,2.3,0.2,3.5c0.2,1.4,0.3,2.8,0.3,4.2c0,0.3,0.1,0.8,0.1,1.2c0,0.2,0,0.4,0,0.6
				c0.1,1.2,0.1,2.4,0.1,3.6C69.6-109.8,69.6-109.4,69.4-108.8z M64.4-115c0-0.8,0-1.7-0.1-2.5c-0.1-0.7-0.2-1.4-0.3-2
				c-0.1-0.8-0.3-1.6-0.5-2.4c-0.2-0.4-0.3-0.9-0.4-1.4c0-0.2-0.1-0.3-0.1-0.4l0,0c-0.1,0.3-0.2,0.7-0.3,1c-0.2,0.4-0.3,0.9-0.4,1.4
				c-0.2,0.5-0.5,1-0.8,1.5c-0.1,0.1,0,0.1,0,0.2c0.2,0.3,0.4,0.4,0.6,0.7c0.5,0.8,0.9,1.5,1.2,2.3c0.1,0.4,0.3,0.8,0.4,1.2
				c0.1,0.4,0.3,0.8,0.4,1.2c0,0.1,0.1,0.1,0.1,0.2C64.4-114.5,64.4-114.8,64.4-115z"/>
			<path class="st1" d="M65.5-133.3h2.2v3.7l0,0C66.9-130.8,66.2-132.1,65.5-133.3z"/>
			<path class="st1" d="M61.1-133.3h-2.2v3.7l0,0C59.5-130.8,60.3-132.1,61.1-133.3z"/>
			<rect x="66.1" y="-126.8" class="st1" width="2.8" height="1"/>
		</g>
		<g>
			<path d="M31.4-108.8c0,0.1-0.1,0.3-0.3,0.3c-0.4,0.1-0.8,0.3-1.3,0.3c-0.7,0.1-1.4,0.2-2.1,0.3l0,0c-0.3,0-0.6,0-0.8-0.1
				c-0.2,0-0.3-0.1-0.5-0.2v-0.1c0-0.5-0.1-1-0.1-1.5c0-0.1,0-0.1,0-0.1c-0.1,0-0.1,0-0.1,0c-0.5,0.4-1.1,0.5-1.8,0.6
				c-0.3,0-0.8,0.1-1.1,0.1c-0.3,0-0.4,0-0.6,0c-0.1,0-0.1-0.1-0.1-0.1c-0.4-1.3-0.8-2.5-1.4-3.6c-0.5-1.1-0.8-2.1-1.3-3.2
				c-0.1-0.3-0.3-0.7-0.4-1c-0.3-0.7-0.4-1.4-0.4-2c0-1-0.1-2.1-0.1-3.1c0-0.8,0-1.5,0-2.2c0-0.7,0-1.4,0.1-2.1
				c0.1-0.3,0.2-0.6,0.3-0.9c0.1-0.3,0.2-0.6,0.2-0.8c0.1-0.9,0.2-1.9,0.3-2.9c0-0.6,0-1.2,0-1.9c0-0.2,0-0.3,0.1-0.4
				c0-0.1,0.1-0.3,0.3-0.3c0.4,0,0.4-0.1,0.5-0.4c0-0.5,0.1-0.9,0.3-1.4c0.3-0.8,0.6-1.6,0.9-2.4c0.2-0.3,0.3-0.6,0.5-0.9
				c0,0,0.1-0.1,0.2-0.1c0.1-0.1,0.2-0.1,0.3-0.1c0.1,0,0.1-0.1,0.1-0.1s0-0.1-0.1-0.1c-0.1,0-0.1-0.1-0.1-0.1
				c0.1-0.1,0.1-0.2,0.1-0.2c0.3-0.2,0.2-0.3,0.2-0.5c0-0.1,0-0.1,0-0.1c-0.3-0.1-0.2-0.3-0.2-0.4c0-0.1,0-0.3,0.2-0.3v-0.1
				c0-1.2,0-2.4,0-3.6c0-0.1,0.1-0.2,0.2-0.2c0.2,0,0.3-0.1,0.6-0.1c0.1,0,0.2,0,0.2,0.1c0.2,1,0.4,2,0.4,3c0.1,0.6,0.3,1,0.7,1.5
				c0,0.1,0.1,0.1,0.2,0c0.5-0.7,0.8-1.4,0.9-2.1c0.1-0.8,0.3-1.6,0.3-2.5c0-0.1,0.1-0.1,0.2-0.1c0.3,0,0.4,0,0.7,0l0.1,0.1
				c0.2,1.2,0.3,2.4,0.4,3.6c0,0.2,0.2,0.3,0.2,0.4c0.1,0.2,0,0.3-0.2,0.3c-0.1,0-0.1,0.1-0.1,0.2c-0.1,0.2,0,0.3,0.2,0.3
				c0.1,0,0.2,0.2,0,0.3v0.1c0,0.1,0.1,0.1,0.1,0.1l0,0c0.3,0,0.4,0.2,0.5,0.4c0.2,0.5,0.3,0.9,0.4,1.4c0.2,0.6,0.3,1.1,0.5,1.7
				c0.2,0.5,0.3,1,0.3,1.5c0,0.1-0.1,0.3-0.1,0.3c-0.1,0.1,0,0.2,0.1,0.2c0.2,0,0.3,0.1,0.5,0.1l0.1,0.1c0.1,1.1,0.2,2.2,0.3,3.3
				c0.1,0.7,0.2,1.4,0.3,2c0,0.1,0.1,0.2,0.1,0.3c0,0.2,0.1,0.3,0,0.6c-0.2,0.2,0,0.4,0,0.7c0.1,0.3,0.1,0.5,0.1,0.8
				c0,0.1-0.1,0.1-0.1,0.2c0,0.2,0.1,0.3,0.1,0.3s0.1,0.2,0.1,0.2c-0.2,0.3-0.1,0.6,0.1,0.8c0,0.1-0.1,0.1-0.1,0.2
				c0,0.1-0.1,0.1-0.1,0.2c0,0.3,0,0.8,0,1.1c0.1,1.2,0,2.3,0.2,3.5c0.2,1.4,0.3,2.8,0.3,4.2c0,0.3,0.1,0.8,0.1,1.2
				c0,0.2,0,0.4,0,0.6c0.1,1.2,0.1,2.4,0.1,3.6C31.6-109.8,31.6-109.4,31.4-108.8z M26.4-115c0-0.8,0-1.7-0.1-2.5
				c-0.1-0.7-0.2-1.4-0.3-2c-0.1-0.8-0.3-1.6-0.5-2.4c-0.2-0.4-0.3-0.9-0.4-1.4c0-0.2-0.1-0.3-0.1-0.4l0,0c-0.1,0.3-0.2,0.7-0.3,1
				c-0.2,0.4-0.3,0.9-0.4,1.4c-0.2,0.5-0.5,1-0.8,1.5c-0.1,0.1,0,0.1,0,0.2c0.2,0.3,0.4,0.4,0.6,0.7c0.5,0.8,0.9,1.5,1.2,2.3
				c0.1,0.4,0.3,0.8,0.4,1.2c0.1,0.4,0.3,0.8,0.4,1.2c0,0.1,0.1,0.1,0.1,0.2C26.4-114.5,26.4-114.8,26.4-115z"/>
			<path class="st1" d="M27.5-133.3h2.2v3.7l0,0C28.9-130.8,28.2-132.1,27.5-133.3z"/>
			<path class="st1" d="M23.1-133.3h-2.2v3.7l0,0C21.5-130.8,22.3-132.1,23.1-133.3z"/>
			<rect x="28.1" y="-126.8" class="st1" width="2.8" height="1"/>
		</g>
	</g>
</pattern>
<rect class="st2" width="356.2" height="1096.6"/>
<g>
	<path d="M61.3-71.7c0-1.4,0-2.8-0.1-4.2c0-0.2,0-0.5,0-0.7c0-0.5-0.1-1-0.1-1.4c-0.1-1.7-0.2-3.3-0.4-5c-0.2-1.4-0.1-2.7-0.2-4.1
		c0-0.4,0-0.9,0-1.3c0-0.1,0.1-0.1,0.1-0.2s0.1-0.1,0.1-0.2c-0.2-0.3-0.3-0.6-0.1-1c0,0-0.1-0.1-0.1-0.2s-0.1-0.2-0.1-0.4
		c0-0.1,0.1-0.1,0.1-0.2c0-0.3,0-0.6-0.1-0.9c0-0.3-0.2-0.6,0-0.8c0.1-0.3,0-0.5,0-0.7c0-0.1-0.1-0.2-0.1-0.3
		c-0.1-0.8-0.2-1.6-0.3-2.4c-0.1-1.3-0.2-2.6-0.3-3.9l-0.1-0.1c-0.2,0-0.4-0.1-0.6-0.1c-0.1,0-0.2-0.1-0.1-0.2
		c0-0.1,0.1-0.3,0.1-0.4c-0.1-0.6-0.2-1.2-0.4-1.8c-0.2-0.7-0.4-1.3-0.6-2c-0.2-0.6-0.3-1.1-0.5-1.7c-0.1-0.3-0.2-0.5-0.6-0.5l0,0
		c0,0-0.1,0-0.1-0.1v-0.1c0.2-0.1,0.1-0.3,0-0.3c-0.2-0.1-0.3-0.2-0.2-0.4c0-0.1,0-0.2,0.1-0.2c0.2-0.1,0.3-0.2,0.2-0.4
		c0-0.2-0.2-0.3-0.2-0.5c-0.2-1.4-0.3-2.8-0.5-4.2l-0.1-0.1c-0.3,0-0.5,0-0.8,0c-0.1,0-0.2,0-0.2,0.1c-0.1,1-0.3,1.9-0.4,2.9
		c-0.1,0.9-0.5,1.7-1.1,2.5c-0.1,0.1-0.2,0.1-0.2,0c-0.4-0.6-0.7-1.1-0.8-1.8c0-1.2-0.3-2.4-0.5-3.6c0-0.1-0.1-0.1-0.2-0.1
		c-0.3,0-0.5,0.1-0.7,0.1c-0.1,0-0.2,0.1-0.2,0.2c0,1.4,0,2.8,0,4.2v0.1c-0.2,0-0.2,0.2-0.2,0.3c0,0.2-0.1,0.4,0.2,0.5
		c0,0,0,0,0,0.1c0,0.2,0.1,0.4-0.2,0.6c0,0,0,0.1-0.1,0.2c0,0,0,0.1,0.1,0.1s0.1,0.1,0.1,0.1s0,0.1-0.1,0.1s-0.2,0-0.3,0.1
		c-0.1,0-0.2,0.1-0.2,0.1c-0.2,0.4-0.4,0.7-0.6,1.1c-0.4,0.9-0.8,1.8-1.1,2.8c-0.2,0.6-0.3,1.1-0.3,1.7c-0.1,0.4-0.1,0.5-0.6,0.5
		c-0.2,0-0.3,0.2-0.3,0.3c-0.1,0.1-0.1,0.3-0.1,0.5c0,0.8,0,1.5,0,2.2c-0.1,1.2-0.2,2.3-0.3,3.4c0,0.3-0.1,0.7-0.2,1
		c-0.1,0.4-0.2,0.7-0.3,1.1c-0.1,0.8-0.1,1.7-0.1,2.5s0,1.7,0,2.6c0,1.2,0.1,2.5,0.1,3.7c0,0.8,0.2,1.6,0.5,2.4
		c0.2,0.4,0.4,0.8,0.5,1.2c0.5,1.3,0.9,2.5,1.5,3.8c0.7,1.4,1.2,2.8,1.7,4.3c0,0,0,0.1,0.1,0.1c0.2,0,0.4,0,0.7,0
		c0.4,0,0.9-0.1,1.3-0.1c0.8-0.1,1.5-0.2,2.1-0.7c0,0,0,0,0.1,0c0,0,0,0,0,0.1c0,0.6,0.1,1.2,0.1,1.8v0.1c0.2,0.1,0.4,0.2,0.6,0.2
		c0.3,0.1,0.6,0.1,1,0.1l0,0c0.8-0.1,1.7-0.2,2.5-0.3c0.5-0.1,1-0.3,1.5-0.4c0.2,0,0.3-0.2,0.3-0.3C61.3-70.9,61.3-71.3,61.3-71.7z
		 M55.1-76.5c0-0.1-0.1-0.1-0.1-0.2c-0.2-0.5-0.4-0.9-0.5-1.4c-0.2-0.5-0.4-0.9-0.5-1.4c-0.3-0.9-0.8-1.8-1.4-2.7
		c-0.2-0.3-0.5-0.5-0.7-0.8c0-0.1-0.1-0.1,0-0.2c0.3-0.6,0.7-1.2,0.9-1.8c0.2-0.5,0.3-1.1,0.5-1.6c0.1-0.4,0.2-0.8,0.3-1.2l0,0
		c0,0.2,0.1,0.3,0.1,0.5c0.2,0.5,0.3,1.1,0.5,1.6c0.3,0.9,0.5,1.8,0.6,2.8c0.1,0.8,0.2,1.6,0.3,2.4c0.1,1,0.1,2,0.1,3
		C55.1-77.2,55.1-76.9,55.1-76.5z"/>
	<path class="st1" d="M59-94.7L59-94.7v-4.4h-2.6C57.3-97.7,58.1-96.2,59-94.7z"/>
	<path class="st1" d="M48.6-94.7L48.6-94.7v-4.4h2.6C50.3-97.7,49.4-96.2,48.6-94.7z"/>
	<rect x="57.2" y="-91.4" class="st1" width="3.3" height="1.2"/>
	<circle cx="49.5" cy="-97.9" r="0.4"/>
	<circle cx="58.2" cy="-98" r="0.4"/>
	<rect x="51.7" y="-105.1" class="st1" width="4.5" height="1.3"/>
	<circle class="st1" cx="52.1" cy="-107.4" r="0.4"/>
	<circle class="st1" cx="55.7" cy="-107.4" r="0.4"/>
</g>
<g>
	<g>
		<path d="M125.5-135.2c-0.1,0.4-0.1,0.8-0.2,1.2c-0.1,0.7-0.3,1.3-0.5,2c-0.1,0.5-0.1,1-0.2,1.6c0,0.6-0.1,1.2-0.1,1.8
			c-1.2,0.3-2.4,0-3.5-0.3c-0.5-0.1-0.9-0.3-1.3-0.5c-0.1,0-0.1-0.2-0.1-0.3c0.1-0.5,0.2-0.9,0.3-1.4c0-0.2,0.1-0.3,0.1-0.5
			c0-0.8,0.1-1.7,0.2-2.5c0-0.4,0.1-0.8,0.3-1.2c0.1-0.1,0.1-0.3,0.1-0.5c0-0.4,0-0.8,0.1-1.2c0.1-0.6,0.1-1.2,0.2-1.7
			c0.1-0.8,0.3-1.5,0.5-2.2c0.1-0.6,0.2-1.1,0.3-1.7c0-0.2,0.1-0.3,0.3-0.2c1.2,0.3,2.5,0.3,3.7,0.3s2.5-0.2,3.8-0.3
			c0.4,0,0.4,0,0.5,0.4s0.1,0.8,0.3,1.2c0.1,0.3,0.1,0.7,0.2,1c0.1,0.6,0.2,1.1,0.3,1.7c0.1,0.9,0.2,1.8,0.3,2.7
			c0,0.3,0.1,0.5,0.2,0.8c0,0.1,0,0.1,0,0.1c-0.2,0.2-0.1,0.3,0,0.5c0,0.2,0.1,0.5,0.2,0.7c0,0.1,0,0.1,0,0.2c-0.1,0.5,0,1,0,1.5
			c0,0.6,0.1,1.3,0.1,1.9c0,0.2,0,0.3,0.1,0.5s-0.1,0.3-0.2,0.3c-0.1,0-0.3,0.1-0.4,0.2c-0.4,0.3-0.9,0.3-1.4,0.3
			c-0.7,0.1-1.4,0.1-2,0.1c-0.3,0-0.6,0-0.9,0c-0.2,0-0.3-0.1-0.3-0.4c-0.1-1.3-0.1-2.5-0.3-3.7
			C125.8-133.6,125.7-134.4,125.5-135.2L125.5-135.2z"/>
	</g>
	<path class="st1" d="M130.6-138.5L130.6-138.5l-0.7-3.2l-1.9,0.4C128.8-140.4,129.7-139.5,130.6-138.5z"/>
	<path class="st1" d="M121-138.5L121-138.5l0.6-3.2l1.9,0.4C122.7-140.4,121.8-139.5,121-138.5z"/>
	
		<rect x="128.6" y="-134.3" transform="matrix(0.9671 -0.2545 0.2545 0.9671 38.3371 28.6486)" class="st1" width="2.5" height="0.9"/>
	<circle cx="122" cy="-140.6" r="0.3"/>
	<circle cx="129.5" cy="-140.6" r="0.3"/>
</g>
<rect class="st3" width="356.2" height="1096.6"/>
</svg>
