<?xml version="1.0" encoding="utf-8"?>
<!-- Generator: Adobe Illustrator 23.0.1, SVG Export Plug-In . SVG Version: 6.00 Build 0)  -->
<svg version="1.1" id="Layer_1" xmlns="http://www.w3.org/2000/svg" xmlns:xlink="http://www.w3.org/1999/xlink" x="0px" y="0px"
	 viewBox="0 0 1366 736" style="enable-background:new 0 0 1366 736;" xml:space="preserve">
<style type="text/css">
	.st0{fill:none;}
	.st1{fill:#FFFFFF;}
	.st2{fill:#D0FFB8;}
	.st3{fill:url(#SVGID_1_);}
</style>
<pattern  y="736" width="91" height="134" patternUnits="userSpaceOnUse" id="New_Pattern_3" viewBox="7.4 -155.4 91 134" style="overflow:visible;">
	<g>
		<rect x="7.4" y="-155.4" class="st0" width="91" height="134"/>
		<g>
			<rect x="7.4" y="-155.4" class="st0" width="91" height="134"/>
			<g>
				<path d="M108-182.3c0-0.2-0.1-0.3-0.4-0.4c-0.6-0.1-1.1-0.3-1.7-0.4c-1-0.1-1.9-0.2-2.9-0.3c0,0,0,0,0,0
					c-0.4,0.1-0.7,0.1-1.1,0.2c-0.2,0.1-0.5,0.1-0.7,0.2c0,0-0.1,0.1-0.1,0.1c0,0.7-0.1,1.4-0.1,2.1c0,0,0,0.1,0,0.1
					c0,0-0.1,0-0.1,0c-0.7-0.6-1.6-0.7-2.5-0.8c-0.5-0.1-1-0.1-1.5-0.2c-0.3,0-0.5,0-0.8,0c0,0-0.1,0.1-0.1,0.1
					c-0.6,1.7-1.2,3.3-2,4.9c-0.7,1.4-1.2,2.9-1.7,4.3c-0.2,0.5-0.4,0.9-0.6,1.4c-0.4,0.9-0.5,1.8-0.6,2.7c-0.1,1.4-0.1,2.9-0.1,4.3
					c0,1,0,2,0,2.9c0,1,0.1,1.9,0.2,2.9c0,0.4,0.2,0.8,0.3,1.2c0.1,0.4,0.2,0.8,0.2,1.1c0.1,1.3,0.3,2.6,0.3,3.9
					c0.1,0.9,0,1.7,0.1,2.6c0,0.2,0,0.4,0.1,0.5c0.1,0.1,0.1,0.3,0.4,0.3c0.6,0,0.6,0,0.7,0.5c0.1,0.7,0.2,1.3,0.4,2
					c0.3,1.1,0.8,2.1,1.2,3.2c0.2,0.4,0.4,0.9,0.7,1.3c0,0,0.1,0.1,0.2,0.1c0.1,0,0.2,0,0.3,0.1c0.1,0,0.1,0.1,0.1,0.1
					c0,0-0.1,0-0.1,0.1s-0.1,0.1-0.1,0.1c0,0.1,0,0.2,0.1,0.2c0.4,0.2,0.3,0.4,0.2,0.7c0,0,0,0,0,0.1c-0.4,0.1-0.3,0.3-0.2,0.6
					c0,0.1,0,0.3,0.2,0.4c0,0,0,0.1,0,0.1c0,1.6,0,3.2,0.1,4.8c0,0.1,0,0.2,0.2,0.2c0.3,0,0.6,0.1,0.8,0.1c0.1,0,0.2-0.1,0.2-0.1
					c0.3-1.4,0.6-2.8,0.6-4.2c0-0.8,0.4-1.4,0.9-2c0.1-0.1,0.2-0.1,0.3,0c0.7,0.9,1.2,1.8,1.3,2.9c0.1,1.1,0.3,2.2,0.4,3.3
					c0,0.1,0.1,0.2,0.2,0.2c0.3,0,0.6,0,0.9,0c0.1,0,0.1-0.1,0.1-0.1c0.2-1.6,0.3-3.2,0.5-4.8c0-0.2,0.2-0.4,0.2-0.6
					c0.1-0.2,0-0.4-0.2-0.4c-0.1,0-0.1-0.1-0.1-0.2c-0.1-0.2,0-0.4,0.2-0.5c0.2-0.1,0.2-0.2,0-0.3c0,0,0-0.1,0-0.1
					c0,0,0.1-0.1,0.1-0.1c0,0,0,0,0,0c0.5,0,0.6-0.2,0.7-0.6c0.2-0.7,0.3-1.3,0.6-2c0.2-0.8,0.5-1.5,0.7-2.3
					c0.2-0.7,0.3-1.4,0.5-2.1c0-0.1,0-0.3-0.1-0.4c0-0.1,0-0.2,0.1-0.2c0.2,0,0.4-0.1,0.7-0.1c0.1,0,0.1-0.1,0.1-0.1
					c0.1-1.5,0.2-3,0.4-4.6c0.1-0.9,0.2-1.8,0.3-2.7c0-0.1,0.2-0.2,0.2-0.3c0-0.3,0.1-0.5,0-0.8c-0.1-0.2,0-0.6,0.1-0.9
					c0-0.4,0.1-0.7,0.1-1.1c0-0.1-0.1-0.2-0.1-0.3c0-0.1,0.1-0.3,0.1-0.4c0-0.1,0.1-0.1,0.1-0.2c-0.1-0.4,0-0.8,0.2-1.1
					c0-0.1,0-0.1-0.1-0.2c-0.1-0.1-0.2-0.2-0.2-0.2c0-0.5,0-1,0-1.5c0-1.6,0-3.1,0.2-4.7c0.2-1.9,0.3-3.8,0.4-5.7
					c0-0.6,0.1-1.1,0.1-1.7c0-0.3,0-0.6,0-0.8c0-1.6,0-3.2,0.1-4.8C108-181.4,108-181.8,108-182.3z M100.8-174.2
					c0,1.1-0.1,2.3-0.1,3.4c-0.1,0.9-0.2,1.9-0.3,2.8c-0.1,1.1-0.4,2.1-0.7,3.2c-0.2,0.6-0.4,1.2-0.6,1.8c-0.1,0.2-0.1,0.4-0.1,0.6
					c0,0,0,0,0,0c-0.1-0.5-0.2-0.9-0.3-1.4c-0.2-0.6-0.3-1.3-0.5-1.8c-0.3-0.7-0.7-1.4-1.1-2.1c0-0.1,0-0.1,0.1-0.2
					c0.3-0.3,0.6-0.6,0.8-0.9c0.6-1,1.2-2,1.6-3.1c0.2-0.6,0.4-1.1,0.6-1.6c0.2-0.5,0.4-1.1,0.6-1.6c0-0.1,0.1-0.1,0.1-0.2
					C100.8-174.9,100.8-174.6,100.8-174.2z"/>
				<path class="st1" d="M93.3-154.4L93.3-154.4l0,5h3C95.3-151,94.3-152.7,93.3-154.4z"/>
				<circle cx="94.4" cy="-150.8" r="0.5"/>
				<rect x="96.9" y="-144" class="st1" width="5.2" height="1.5"/>
				<circle class="st1" cx="97.4" cy="-139.8" r="0.5"/>
			</g>
			<g>
				<path d="M17-182.3c0-0.2-0.1-0.3-0.4-0.4c-0.6-0.1-1.1-0.3-1.7-0.4c-1-0.1-2-0.2-2.9-0.3c0,0,0,0,0,0.1
					c-0.4,0.1-0.7,0.1-1.1,0.1c-0.2,0.1-0.5,0.1-0.7,0.2c0,0-0.1,0.1-0.1,0.1c0,0.7-0.1,1.4-0.1,2.1c0,0,0,0.1,0,0.1c0,0,0,0-0.1,0
					c-0.7-0.6-1.6-0.7-2.5-0.8c-0.5-0.1-1-0.1-1.5-0.2c-0.3,0-0.5,0-0.8,0c0,0-0.1,0-0.1,0.1c-0.6,1.7-1.2,3.3-2,4.9
					c-0.7,1.4-1.2,2.9-1.7,4.3c-0.2,0.5-0.4,0.9-0.6,1.4c-0.4,0.9-0.5,1.8-0.6,2.7c-0.1,1.4-0.1,2.9-0.1,4.3c0,1,0,2,0,2.9
					c0,1,0.1,1.9,0.2,2.9c0,0.4,0.2,0.8,0.3,1.2c0.1,0.4,0.2,0.8,0.2,1.1c0.1,1.3,0.3,2.6,0.3,4c0.1,0.9,0,1.7,0.1,2.6
					c0,0.2,0,0.4,0.1,0.5c0.1,0.1,0.1,0.3,0.4,0.3c0.6,0,0.6,0,0.6,0.5c0.1,0.6,0.2,1.3,0.4,1.9c0.3,1.1,0.8,2.1,1.2,3.2
					c0.2,0.4,0.4,0.9,0.7,1.3c0,0.1,0.1,0.1,0.2,0.1c0.1,0,0.2,0,0.3,0.1c0.1,0,0.1,0.1,0.1,0.1c0,0-0.1,0-0.1,0.1s-0.1,0.1-0.1,0.1
					c0,0.1,0,0.2,0.1,0.2c0.4,0.1,0.3,0.4,0.2,0.6c0,0,0,0.1,0,0.1c-0.4,0.1-0.3,0.3-0.2,0.6c0,0.1,0,0.3,0.2,0.4c0,0,0,0.1,0,0.1
					c0,1.6,0,3.2,0.1,4.8c0,0.1,0,0.2,0.2,0.2c0.3,0,0.6,0.1,0.8,0.1c0.1,0,0.2-0.1,0.2-0.1c0.3-1.4,0.6-2.8,0.6-4.2
					c0-0.8,0.4-1.4,0.9-2c0.1-0.1,0.2-0.1,0.3,0c0.7,0.9,1.2,1.8,1.3,2.9c0.1,1.1,0.3,2.2,0.4,3.3c0,0.1,0.1,0.2,0.2,0.2
					c0.3,0,0.6,0,0.9,0c0.1,0,0.1-0.1,0.1-0.1c0.2-1.6,0.3-3.2,0.5-4.8c0-0.2,0.2-0.4,0.2-0.6c0.1-0.2,0-0.4-0.2-0.4
					c-0.1,0-0.1-0.1-0.1-0.2c-0.1-0.2,0-0.4,0.2-0.5c0.2-0.1,0.2-0.2,0-0.3c0,0,0-0.1,0-0.1c0,0,0.1-0.1,0.1-0.1c0,0,0,0,0,0
					c0.5,0,0.6-0.2,0.7-0.6c0.2-0.7,0.4-1.3,0.6-2c0.2-0.8,0.5-1.5,0.7-2.3c0.2-0.7,0.3-1.4,0.5-2.1c0-0.1,0-0.3-0.1-0.4
					c0-0.1,0-0.2,0.1-0.2c0.2,0,0.4-0.1,0.7-0.1c0.1,0,0.1-0.1,0.1-0.1c0.1-1.5,0.2-3,0.4-4.5c0.1-0.9,0.2-1.8,0.3-2.7
					c0-0.1,0.2-0.2,0.2-0.3c0-0.3,0.1-0.5,0-0.8c-0.1-0.2,0-0.6,0.1-0.9c0-0.4,0.1-0.7,0.1-1.1c0-0.1-0.1-0.2-0.1-0.3
					c0-0.1,0.1-0.3,0.1-0.4c0-0.1,0.1-0.1,0.1-0.2c-0.1-0.4,0-0.8,0.2-1.1c0-0.1,0-0.1-0.1-0.2c0-0.1-0.1-0.2-0.1-0.2
					c0-0.5,0-1,0-1.5c0-1.6,0-3.1,0.2-4.7c0.2-1.9,0.3-3.8,0.5-5.7c0-0.6,0.1-1.1,0.1-1.7c0-0.3,0-0.6,0-0.8c0-1.6,0-3.2,0.1-4.8
					C17-181.4,17-181.8,17-182.3z M9.8-174.2c0,1.1-0.1,2.3-0.1,3.4c-0.1,0.9-0.2,1.9-0.3,2.8c-0.1,1.1-0.4,2.1-0.7,3.2
					c-0.2,0.6-0.4,1.2-0.6,1.8c-0.1,0.2-0.1,0.4-0.1,0.6c0,0,0,0,0,0c-0.1-0.5-0.2-0.9-0.3-1.4c-0.2-0.6-0.3-1.3-0.5-1.8
					c-0.3-0.7-0.7-1.4-1.1-2.1c0-0.1,0-0.1,0.1-0.2c0.3-0.3,0.6-0.6,0.8-0.9c0.6-1,1.2-2,1.6-3.1c0.2-0.6,0.4-1.1,0.6-1.6
					c0.2-0.5,0.4-1.1,0.6-1.6c0,0,0-0.1,0.1-0.2C9.8-174.9,9.8-174.6,9.8-174.2z"/>
				<path class="st1" d="M14.3-154.4L14.3-154.4l0,5.1h-3C12.3-151,13.3-152.7,14.3-154.4z"/>
				<circle cx="13.4" cy="-150.6" r="0.5"/>
				<rect x="5.9" y="-144" class="st1" width="5.2" height="1.5"/>
				<circle class="st1" cx="10.5" cy="-139.8" r="0.5"/>
			</g>
			<g>
				<path d="M62.5-115.3c0-0.2-0.1-0.3-0.4-0.4c-0.6-0.1-1.1-0.3-1.7-0.4c-1-0.2-2-0.2-2.9-0.3c0,0,0,0,0,0.1
					c-0.4,0.1-0.7,0.1-1.1,0.2c-0.2,0.1-0.5,0.1-0.7,0.2c0,0,0,0.1,0,0.1c0,0.7-0.1,1.4-0.1,2.1c0,0,0,0.1,0,0.1c0,0,0,0-0.1,0
					c-0.7-0.6-1.6-0.7-2.5-0.8c-0.5-0.1-1-0.1-1.5-0.2c-0.3,0-0.5,0-0.8,0c0,0-0.1,0.1-0.1,0.1c-0.6,1.7-1.2,3.3-2,4.9
					c-0.7,1.4-1.2,2.9-1.7,4.3c-0.2,0.5-0.4,0.9-0.6,1.3c-0.4,0.9-0.5,1.8-0.6,2.7c-0.1,1.4-0.1,2.9-0.1,4.3c0,1,0,2,0,2.9
					c0,1,0.1,1.9,0.2,2.9c0,0.4,0.2,0.8,0.3,1.2c0.1,0.4,0.2,0.8,0.2,1.1c0.1,1.3,0.3,2.6,0.3,3.9c0.1,0.9,0,1.7,0.1,2.6
					c0,0.2,0,0.4,0.1,0.5c0.1,0.1,0.1,0.3,0.4,0.3c0.6,0,0.6,0,0.7,0.5c0.1,0.7,0.2,1.3,0.4,1.9c0.3,1.1,0.8,2.1,1.2,3.2
					c0.2,0.4,0.4,0.8,0.7,1.3c0,0.1,0.1,0.1,0.2,0.1c0.1,0,0.2,0,0.3,0.1c0,0,0.1,0.1,0.1,0.1c0,0-0.1,0-0.1,0.1s-0.1,0.1-0.1,0.1
					c0,0.1,0,0.2,0.1,0.2c0.4,0.2,0.3,0.4,0.2,0.7c0,0,0,0.1,0,0.1c-0.4,0.1-0.3,0.3-0.2,0.6c0,0.1,0,0.3,0.2,0.4c0,0,0,0.1,0,0.1
					c0,1.6,0,3.2,0,4.8c0,0.1,0,0.2,0.2,0.2c0.3,0,0.6,0.1,0.8,0.1c0.1,0,0.2-0.1,0.2-0.1c0.3-1.4,0.5-2.8,0.6-4.2
					c0-0.8,0.4-1.4,0.9-2c0.1-0.1,0.2-0.1,0.3,0c0.7,0.9,1.2,1.8,1.3,2.9c0.1,1.1,0.3,2.2,0.4,3.3c0,0.1,0.1,0.2,0.2,0.2
					c0.3,0,0.6,0,0.9,0c0,0,0.1-0.1,0.1-0.1c0.2-1.6,0.3-3.2,0.5-4.8c0-0.2,0.2-0.4,0.2-0.6c0-0.2,0-0.4-0.2-0.4
					c0,0-0.1-0.1-0.1-0.2c0-0.2,0-0.4,0.2-0.5c0.2-0.1,0.2-0.2,0-0.3c0,0,0-0.1,0-0.1c0,0,0-0.1,0.1-0.1c0,0,0,0,0,0
					c0.5,0,0.6-0.2,0.7-0.6c0.2-0.7,0.3-1.3,0.5-2c0.2-0.8,0.5-1.5,0.7-2.3c0.2-0.7,0.3-1.4,0.5-2.1c0-0.1,0-0.3-0.1-0.4
					c0-0.1,0-0.2,0.1-0.2c0.2,0,0.4-0.1,0.7-0.1c0,0,0.1-0.1,0.1-0.1c0.1-1.5,0.2-3,0.4-4.6c0.1-0.9,0.2-1.8,0.3-2.7
					c0-0.1,0.2-0.2,0.2-0.3c0-0.3,0.1-0.5,0-0.8c-0.1-0.2,0-0.6,0-0.9c0-0.3,0.1-0.7,0.1-1.1c0-0.1-0.1-0.2-0.1-0.3
					c0-0.1,0.1-0.3,0.1-0.4c0-0.1,0.1-0.1,0.1-0.2c-0.1-0.4,0-0.8,0.2-1.1c0-0.1,0-0.1-0.1-0.2c0-0.1-0.2-0.2-0.2-0.2
					c0-0.5,0-1,0-1.5c0-1.6,0-3.1,0.2-4.7c0.2-1.9,0.3-3.8,0.5-5.7c0-0.6,0.1-1.1,0.1-1.7c0-0.3,0-0.6,0-0.8c0-1.6,0-3.2,0.1-4.8
					C62.5-114.4,62.5-114.8,62.5-115.3z M55.3-107.2c0,1.2-0.1,2.3-0.1,3.4c-0.1,0.9-0.2,1.9-0.3,2.8c-0.1,1.1-0.4,2.2-0.7,3.2
					c-0.2,0.6-0.4,1.2-0.6,1.8c0,0.2-0.1,0.4-0.1,0.6c0,0,0,0,0,0c-0.1-0.5-0.2-0.9-0.3-1.4c-0.2-0.6-0.3-1.3-0.5-1.8
					c-0.3-0.7-0.7-1.4-1.1-2.1c0-0.1,0-0.2,0-0.2c0.3-0.3,0.6-0.6,0.8-0.9c0.6-1,1.2-2,1.6-3.1c0.2-0.6,0.4-1.1,0.6-1.6
					c0.2-0.5,0.4-1.1,0.6-1.6c0-0.1,0-0.1,0.1-0.2C55.3-107.9,55.3-107.6,55.3-107.2z"/>
				<path class="st1" d="M59.8-87.4L59.8-87.4l0,5.1h-3C57.8-84,58.8-85.7,59.8-87.4z"/>
				<path class="st1" d="M47.8-87.4L47.8-87.4l0,5.1h3C49.8-84,48.8-85.7,47.8-87.4z"/>
				<rect x="57.7" y="-92.6" class="st1" width="3.8" height="1.3"/>
				<circle cx="48.9" cy="-83.8" r="0.5"/>
				<circle cx="58.9" cy="-83.6" r="0.5"/>
				<rect x="51.4" y="-77" class="st1" width="5.2" height="1.5"/>
				<circle class="st1" cx="51.9" cy="-72.8" r="0.5"/>
				<circle class="st1" cx="56" cy="-72.8" r="0.5"/>
			</g>
			<g>
				<path d="M108-48.3c0-0.2-0.1-0.3-0.4-0.4c-0.6-0.1-1.1-0.3-1.7-0.4c-1-0.1-1.9-0.2-2.9-0.4c0,0,0,0,0,0.1
					c-0.4,0.1-0.7,0.1-1.1,0.1c-0.2,0.1-0.5,0.1-0.7,0.2c0,0-0.1,0.1-0.1,0.1c0,0.7-0.1,1.4-0.1,2.1c0,0,0,0.1,0,0.1
					c0,0-0.1,0-0.1,0c-0.7-0.6-1.6-0.7-2.5-0.8c-0.5-0.1-1-0.1-1.5-0.2c-0.3,0-0.5,0-0.8,0c0,0-0.1,0.1-0.1,0.1
					c-0.6,1.7-1.2,3.3-2,4.9c-0.7,1.4-1.2,2.9-1.7,4.3c-0.2,0.5-0.4,0.9-0.6,1.4c-0.4,0.9-0.5,1.8-0.6,2.7c-0.1,1.4-0.1,2.9-0.1,4.3
					c0,1,0,2,0,2.9c0,1,0.1,1.9,0.2,2.9c0,0.4,0.2,0.8,0.3,1.2c0.1,0.4,0.2,0.8,0.2,1.1c0.1,1.3,0.3,2.6,0.3,3.9
					c0.1,0.9,0,1.7,0.1,2.6c0,0.2,0,0.4,0.1,0.5c0.1,0.1,0.1,0.3,0.4,0.3c0.6,0,0.6,0,0.7,0.5c0.1,0.6,0.2,1.3,0.4,1.9
					c0.3,1.1,0.8,2.1,1.2,3.2C95-8.4,95.2-8,95.5-7.6c0,0.1,0.1,0.1,0.2,0.1c0.1,0,0.2,0,0.3,0.1c0.1,0,0.1,0.1,0.1,0.1
					c0,0-0.1,0-0.1,0.1c0,0-0.1,0.1-0.1,0.1c0,0.1,0,0.2,0.1,0.2c0.4,0.1,0.3,0.4,0.2,0.6c0,0,0,0.1,0,0.1c-0.4,0.1-0.3,0.4-0.2,0.6
					c0,0.1,0,0.3,0.2,0.4c0,0,0,0.1,0,0.1c0,1.6,0,3.2,0.1,4.8c0,0.1,0,0.2,0.2,0.2c0.3,0,0.6,0.1,0.8,0.1c0.1,0,0.2-0.1,0.2-0.1
					C97.8-1.6,98-3,98.1-4.4c0-0.8,0.4-1.4,0.9-2c0.1-0.1,0.2-0.1,0.3,0c0.7,0.9,1.2,1.8,1.3,2.9c0.1,1.1,0.3,2.2,0.4,3.3
					c0,0.1,0.1,0.2,0.2,0.2c0.3,0,0.6,0,0.9,0c0.1,0,0.1-0.1,0.1-0.1c0.2-1.6,0.3-3.2,0.5-4.8c0-0.2,0.2-0.4,0.2-0.6
					c0.1-0.2,0-0.4-0.2-0.4c-0.1,0-0.1-0.1-0.1-0.2c-0.1-0.2,0-0.4,0.2-0.5c0.2-0.1,0.2-0.2,0-0.4c0,0,0-0.1,0-0.1
					c0,0,0.1-0.1,0.1-0.1c0,0,0,0,0,0c0.5,0,0.6-0.2,0.7-0.6c0.2-0.7,0.3-1.3,0.6-2c0.2-0.8,0.5-1.5,0.7-2.3
					c0.2-0.7,0.3-1.4,0.5-2.1c0-0.1,0-0.3-0.1-0.4c0-0.1,0-0.2,0.1-0.2c0.2,0,0.4-0.1,0.7-0.1c0.1,0,0.1-0.1,0.1-0.1
					c0.1-1.5,0.2-3,0.4-4.6c0.1-0.9,0.2-1.8,0.3-2.7c0-0.1,0.2-0.2,0.2-0.3c0-0.3,0.1-0.5,0-0.8c-0.1-0.2,0-0.6,0.1-0.9
					c0-0.4,0.1-0.7,0.1-1.1c0-0.1-0.1-0.2-0.1-0.3c0-0.1,0.1-0.3,0.1-0.4c0-0.1,0.1-0.1,0.1-0.2c-0.1-0.4,0-0.8,0.2-1.1
					c0-0.1,0-0.1-0.1-0.2c-0.1-0.1-0.2-0.2-0.2-0.2c0-0.5,0-1,0-1.5c0-1.6,0-3.1,0.2-4.7c0.2-1.9,0.3-3.8,0.4-5.7
					c0-0.6,0.1-1.1,0.1-1.7c0-0.3,0-0.6,0-0.8c0-1.6,0-3.2,0.1-4.8C108-47.4,108-47.8,108-48.3z M100.8-40.2c0,1.1-0.1,2.3-0.1,3.4
					c-0.1,0.9-0.2,1.9-0.3,2.8c-0.1,1.1-0.4,2.1-0.7,3.2c-0.2,0.6-0.4,1.2-0.6,1.8c-0.1,0.2-0.1,0.4-0.1,0.6c0,0,0,0,0,0
					c-0.1-0.5-0.2-0.9-0.3-1.4c-0.2-0.6-0.3-1.3-0.5-1.8c-0.3-0.7-0.7-1.4-1.1-2.1c0-0.1,0-0.1,0.1-0.2c0.3-0.3,0.6-0.6,0.8-0.9
					c0.6-1,1.2-2,1.6-3.1c0.2-0.6,0.4-1.1,0.6-1.6c0.2-0.5,0.4-1.1,0.6-1.6c0-0.1,0.1-0.1,0.1-0.2C100.8-40.9,100.8-40.6,100.8-40.2
					z"/>
			</g>
			<g>
				<path d="M17-48.3c0-0.2-0.1-0.3-0.4-0.4c-0.6-0.1-1.1-0.3-1.7-0.4c-1-0.1-1.9-0.2-2.9-0.4c0,0,0,0,0,0.1
					c-0.4,0.1-0.7,0.1-1.1,0.1c-0.2,0.1-0.5,0.1-0.7,0.2c0,0-0.1,0.1-0.1,0.1c0,0.7-0.1,1.4-0.1,2.1c0,0,0,0.1,0,0.1
					c0,0-0.1,0-0.1,0c-0.7-0.6-1.6-0.7-2.5-0.8c-0.5-0.1-1-0.1-1.5-0.2c-0.3,0-0.5,0-0.8,0c0,0-0.1,0.1-0.1,0.1
					c-0.6,1.7-1.2,3.3-2,4.9c-0.7,1.4-1.2,2.9-1.7,4.3c-0.2,0.5-0.4,0.9-0.6,1.4c-0.4,0.9-0.5,1.8-0.6,2.7C0.1-32.9,0.1-31.4,0-30
					c0,1,0,2,0,2.9c0,1,0.1,1.9,0.2,2.9c0,0.4,0.2,0.8,0.3,1.2c0.1,0.4,0.2,0.8,0.2,1.1c0.1,1.3,0.3,2.6,0.3,3.9
					c0.1,0.9,0,1.7,0.1,2.6c0,0.2,0,0.4,0.1,0.5c0.1,0.1,0.1,0.3,0.4,0.3c0.6,0,0.6,0,0.6,0.5c0.1,0.6,0.2,1.3,0.4,1.9
					c0.3,1.1,0.8,2.1,1.2,3.2C4-8.4,4.2-8,4.5-7.6c0,0.1,0.1,0.1,0.2,0.1c0.1,0,0.2,0,0.3,0.1c0.1,0,0.1,0.1,0.1,0.1
					c0,0-0.1,0-0.1,0.1c0,0-0.1,0.1-0.1,0.1c0,0.1,0,0.2,0.1,0.2c0.4,0.1,0.3,0.4,0.2,0.6c0,0,0,0.1,0,0.1C4.8-6.1,4.9-5.8,4.9-5.6
					c0,0.1,0,0.3,0.2,0.4c0,0,0,0.1,0,0.1c0,1.6,0,3.2,0.1,4.8c0,0.1,0,0.2,0.2,0.2c0.3,0,0.6,0.1,0.8,0.1c0.1,0,0.2-0.1,0.2-0.1
					C6.8-1.6,7-3,7.1-4.4c0-0.8,0.4-1.4,0.9-2c0.1-0.1,0.2-0.1,0.3,0c0.7,0.9,1.2,1.8,1.3,2.9c0.1,1.1,0.3,2.2,0.4,3.3
					C9.9-0.1,10,0,10.1,0c0.3,0,0.6,0,0.9,0c0.1,0,0.1-0.1,0.1-0.1c0.2-1.6,0.3-3.2,0.5-4.8c0-0.2,0.2-0.4,0.2-0.6
					c0.1-0.2,0-0.4-0.2-0.4c-0.1,0-0.1-0.1-0.1-0.2c-0.1-0.2,0-0.4,0.2-0.5C12-6.8,12-6.9,11.8-7c0,0,0-0.1,0-0.1
					c0,0,0.1-0.1,0.1-0.1c0,0,0,0,0,0c0.5,0,0.6-0.2,0.7-0.6c0.2-0.7,0.4-1.3,0.6-2c0.2-0.8,0.5-1.5,0.7-2.3
					c0.2-0.7,0.3-1.4,0.5-2.1c0-0.1,0-0.3-0.1-0.4c0-0.1,0-0.2,0.1-0.2c0.2,0,0.4-0.1,0.7-0.1c0.1,0,0.1-0.1,0.1-0.1
					c0.1-1.5,0.2-3,0.4-4.6c0.1-0.9,0.2-1.8,0.3-2.7c0-0.1,0.2-0.2,0.2-0.3c0-0.3,0.1-0.5,0-0.8c-0.1-0.2,0-0.6,0.1-0.9
					c0-0.4,0.1-0.7,0.1-1.1c0-0.1-0.1-0.2-0.1-0.3c0-0.1,0.1-0.3,0.1-0.4c0-0.1,0.1-0.1,0.1-0.2c-0.1-0.4,0-0.8,0.2-1.1
					c0-0.1,0-0.1-0.1-0.2c0-0.1-0.1-0.2-0.1-0.2c0-0.5,0-1,0-1.5c0-1.6,0-3.1,0.2-4.7c0.2-1.9,0.3-3.8,0.5-5.7
					c0-0.6,0.1-1.1,0.1-1.7c0-0.3,0-0.6,0-0.8c0-1.6,0-3.2,0.1-4.8C17-47.4,17-47.8,17-48.3z M9.8-40.2c0,1.1-0.1,2.3-0.1,3.4
					c-0.1,0.9-0.2,1.9-0.3,2.8c-0.1,1.1-0.4,2.1-0.7,3.2c-0.2,0.6-0.4,1.2-0.6,1.8C8-28.7,8-28.5,7.9-28.3c0,0,0,0,0,0
					c-0.1-0.5-0.2-0.9-0.3-1.4c-0.2-0.6-0.3-1.3-0.5-1.8C6.8-32.3,6.4-33,6-33.7c0-0.1,0-0.1,0.1-0.2c0.3-0.3,0.6-0.6,0.8-0.9
					c0.6-1,1.2-2,1.6-3.1C8.6-38.5,8.8-39,9-39.6c0.2-0.5,0.4-1.1,0.6-1.6c0-0.1,0.1-0.1,0.1-0.2C9.8-40.9,9.8-40.6,9.8-40.2z"/>
				<rect x="12.2" y="-25.6" class="st1" width="3.8" height="1.4"/>
			</g>
		</g>
	</g>
</pattern>
<rect class="st2" width="1366" height="736"/>
<g>
	<path d="M576.5-59.2c0-1.4,0-2.8-0.1-4.2c0-0.2,0-0.5,0-0.7c0-0.5-0.1-1-0.1-1.4c-0.1-1.7-0.2-3.3-0.4-5c-0.2-1.4-0.1-2.7-0.2-4.1
		c0-0.4,0-0.9,0-1.3c0-0.1,0.1-0.1,0.1-0.2c0-0.1,0.1-0.1,0.1-0.2c-0.2-0.3-0.3-0.6-0.1-1c0,0-0.1-0.1-0.1-0.2
		c0-0.1-0.1-0.2-0.1-0.4c0-0.1,0.1-0.1,0.1-0.2c0-0.3,0-0.6-0.1-0.9c0-0.3-0.2-0.6,0-0.8c0.1-0.3,0-0.5,0-0.7c0-0.1-0.1-0.2-0.1-0.3
		c-0.1-0.8-0.2-1.6-0.3-2.4c-0.1-1.3-0.2-2.6-0.3-3.9c0,0-0.1-0.1-0.1-0.1c-0.2,0-0.4-0.1-0.6-0.1c-0.1,0-0.2-0.1-0.1-0.2
		c0-0.1,0.1-0.3,0.1-0.4c-0.1-0.6-0.2-1.2-0.4-1.8c-0.2-0.7-0.4-1.3-0.6-2c-0.2-0.6-0.3-1.1-0.5-1.7c-0.1-0.3-0.2-0.5-0.6-0.5
		c0,0,0,0,0,0c0,0-0.1,0-0.1-0.1c0,0,0-0.1,0-0.1c0.2-0.1,0.1-0.3,0-0.3c-0.2-0.1-0.3-0.2-0.2-0.4c0-0.1,0-0.2,0.1-0.2
		c0.2-0.1,0.3-0.2,0.2-0.4c0-0.2-0.2-0.3-0.2-0.5c-0.2-1.4-0.3-2.8-0.5-4.2c0,0-0.1-0.1-0.1-0.1c-0.3,0-0.5,0-0.8,0
		c-0.1,0-0.2,0-0.2,0.1c-0.1,1-0.3,1.9-0.4,2.9c-0.1,0.9-0.5,1.7-1.1,2.5c-0.1,0.1-0.2,0.1-0.2,0c-0.4-0.6-0.7-1.1-0.8-1.8
		c0-1.2-0.3-2.4-0.5-3.6c0-0.1-0.1-0.1-0.2-0.1c-0.3,0-0.5,0.1-0.7,0.1c-0.1,0-0.2,0.1-0.2,0.2c0,1.4,0,2.8,0,4.2c0,0,0,0.1,0,0.1
		c-0.2,0-0.2,0.2-0.2,0.3c0,0.2-0.1,0.4,0.2,0.5c0,0,0,0,0,0.1c0,0.2,0.1,0.4-0.2,0.6c0,0,0,0.1-0.1,0.2c0,0,0,0.1,0.1,0.1
		s0.1,0.1,0.1,0.1c0,0,0,0.1-0.1,0.1c-0.1,0-0.2,0-0.3,0.1c-0.1,0-0.2,0.1-0.2,0.1c-0.2,0.4-0.4,0.7-0.6,1.1
		c-0.4,0.9-0.8,1.8-1.1,2.8c-0.2,0.6-0.3,1.1-0.3,1.7c-0.1,0.4-0.1,0.5-0.6,0.5c-0.2,0-0.3,0.2-0.3,0.3c-0.1,0.1-0.1,0.3-0.1,0.5
		c0,0.8,0,1.5,0,2.2c-0.1,1.2-0.2,2.3-0.3,3.4c0,0.3-0.1,0.7-0.2,1c-0.1,0.4-0.2,0.7-0.3,1.1c-0.1,0.8-0.1,1.7-0.1,2.5
		c0,0.8,0,1.7,0,2.6c0,1.2,0.1,2.5,0.1,3.7c0,0.8,0.2,1.6,0.5,2.4c0.2,0.4,0.4,0.8,0.5,1.2c0.5,1.3,0.9,2.5,1.5,3.8
		c0.7,1.4,1.2,2.8,1.7,4.3c0,0,0,0.1,0.1,0.1c0.2,0,0.4,0,0.7,0c0.4,0,0.9-0.1,1.3-0.1c0.8-0.1,1.5-0.2,2.1-0.7c0,0,0,0,0.1,0
		c0,0,0,0,0,0.1c0,0.6,0.1,1.2,0.1,1.8c0,0,0,0.1,0,0.1c0.2,0.1,0.4,0.2,0.6,0.2c0.3,0.1,0.6,0.1,1,0.1c0,0,0,0,0,0
		c0.8-0.1,1.7-0.2,2.5-0.3c0.5-0.1,1-0.3,1.5-0.4c0.2,0,0.3-0.2,0.3-0.3C576.5-58.4,576.5-58.8,576.5-59.2z M570.3-64
		c0-0.1-0.1-0.1-0.1-0.2c-0.2-0.5-0.4-0.9-0.5-1.4c-0.2-0.5-0.4-0.9-0.5-1.4c-0.3-0.9-0.8-1.8-1.4-2.7c-0.2-0.3-0.5-0.5-0.7-0.8
		c0-0.1-0.1-0.1,0-0.2c0.3-0.6,0.7-1.2,0.9-1.8c0.2-0.5,0.3-1.1,0.5-1.6c0.1-0.4,0.2-0.8,0.3-1.2c0,0,0,0,0,0c0,0.2,0.1,0.3,0.1,0.5
		c0.2,0.5,0.3,1.1,0.5,1.6c0.3,0.9,0.5,1.8,0.6,2.8c0.1,0.8,0.2,1.6,0.3,2.4c0.1,1,0.1,2,0.1,3C570.3-64.7,570.3-64.4,570.3-64z"/>
	<path class="st1" d="M574.2-82.2L574.2-82.2l0-4.4h-2.6C572.5-85.2,573.3-83.7,574.2-82.2z"/>
	<path class="st1" d="M563.8-82.2L563.8-82.2l0-4.4h2.6C565.5-85.2,564.6-83.7,563.8-82.2z"/>
	<rect x="572.4" y="-78.9" class="st1" width="3.3" height="1.2"/>
	<circle cx="564.7" cy="-85.4" r="0.4"/>
	<circle cx="573.4" cy="-85.5" r="0.4"/>
	<rect x="566.9" y="-92.6" class="st1" width="4.5" height="1.3"/>
	<circle class="st1" cx="567.3" cy="-94.9" r="0.4"/>
	<circle class="st1" cx="570.9" cy="-94.9" r="0.4"/>
</g>
<pattern  id="SVGID_1_" xlink:href="#New_Pattern_3" patternTransform="matrix(1 0 0 -1 -85.37 -16513.9004)">
</pattern>
<rect class="st3" width="1366" height="736"/>
<g>
	<g>
		<path d="M640.7-122.7c-0.1,0.4-0.1,0.8-0.2,1.2c-0.1,0.7-0.3,1.3-0.5,2c-0.1,0.5-0.1,1-0.2,1.6c0,0.6-0.1,1.2-0.1,1.8
			c-1.2,0.3-2.4,0-3.5-0.3c-0.5-0.1-0.9-0.3-1.3-0.5c-0.1,0-0.1-0.2-0.1-0.3c0.1-0.5,0.2-0.9,0.3-1.4c0-0.2,0.1-0.3,0.1-0.5
			c0-0.8,0.1-1.7,0.2-2.5c0-0.4,0.1-0.8,0.3-1.2c0.1-0.1,0.1-0.3,0.1-0.5c0-0.4,0-0.8,0.1-1.2c0.1-0.6,0.1-1.2,0.2-1.7
			c0.1-0.8,0.3-1.5,0.5-2.2c0.1-0.6,0.2-1.1,0.3-1.7c0-0.2,0.1-0.3,0.3-0.2c1.2,0.3,2.5,0.3,3.7,0.3s2.5-0.2,3.8-0.3
			c0.4,0,0.4,0,0.5,0.4c0.1,0.4,0.1,0.8,0.3,1.2c0.1,0.3,0.1,0.7,0.2,1c0.1,0.6,0.2,1.1,0.3,1.7c0.1,0.9,0.2,1.8,0.3,2.7
			c0,0.3,0.1,0.5,0.2,0.8c0,0.1,0,0.1,0,0.1c-0.2,0.2-0.1,0.3,0,0.5c0,0.2,0.1,0.5,0.2,0.7c0,0.1,0,0.1,0,0.2c-0.1,0.5,0,1,0,1.5
			c0,0.6,0.1,1.3,0.1,1.9c0,0.2,0,0.3,0.1,0.5c0.1,0.2-0.1,0.3-0.2,0.3c-0.1,0-0.3,0.1-0.4,0.2c-0.4,0.3-0.9,0.3-1.4,0.3
			c-0.7,0.1-1.4,0.1-2,0.1c-0.3,0-0.6,0-0.9,0c-0.2,0-0.3-0.1-0.3-0.4c-0.1-1.3-0.1-2.5-0.3-3.7C641-121.1,640.9-121.9,640.7-122.7
			C640.7-122.7,640.7-122.7,640.7-122.7z"/>
	</g>
	<path class="st1" d="M645.8-126L645.8-126l-0.7-3.2l-1.9,0.4C644-127.9,644.9-127,645.8-126z"/>
	<path class="st1" d="M636.2-126L636.2-126l0.6-3.2l1.9,0.4C637.9-127.9,637-127,636.2-126z"/>
	
		<rect x="643.8" y="-121.8" transform="matrix(0.9671 -0.2545 0.2545 0.9671 52.1124 160.1756)" class="st1" width="2.5" height="0.9"/>
	<circle cx="637.2" cy="-128.1" r="0.3"/>
	<circle cx="644.7" cy="-128.1" r="0.3"/>
</g>
</svg>
