<?xml version="1.0" encoding="utf-8"?>
<!-- Generator: Adobe Illustrator 23.0.1, SVG Export Plug-In . SVG Version: 6.00 Build 0)  -->
<svg version="1.1" id="Layer_1" xmlns="http://www.w3.org/2000/svg" xmlns:xlink="http://www.w3.org/1999/xlink" x="0px" y="0px"
	 viewBox="0 0 1366 736" style="enable-background:new 0 0 1366 736;" xml:space="preserve">
<style type="text/css">
	.st0{fill:none;}
	.st1{fill:#FFFFFF;}
	.st2{fill:url(#New_Pattern_3);}
</style>
<pattern  x="-35" y="-44" width="91" height="134" patternUnits="userSpaceOnUse" id="New_Pattern_3" viewBox="7.37 -162 91 134" style="overflow:visible;">
	<g>
		<rect x="7.37" y="-162" class="st0" width="91" height="134"/>
		<g>
			<path d="M107.95-1.17c-0.01,0.21-0.12,0.33-0.38,0.39c-0.58,0.13-1.13,0.34-1.71,0.44c-0.97,0.15-1.95,0.24-2.93,0.35
				c-0.01-0.02-0.01-0.03-0.02-0.05c-0.36-0.05-0.73-0.08-1.09-0.15c-0.24-0.05-0.47-0.14-0.71-0.22c-0.03-0.01-0.05-0.08-0.05-0.12
				c-0.04-0.7-0.08-1.4-0.12-2.11c0-0.03-0.01-0.05-0.02-0.08c-0.02,0.01-0.05,0.01-0.07,0.02c-0.68,0.59-1.57,0.72-2.46,0.83
				c-0.5,0.06-1.01,0.12-1.51,0.16c-0.25,0.02-0.51-0.01-0.76-0.02c-0.03,0-0.08-0.05-0.09-0.09c-0.57-1.67-1.21-3.31-1.97-4.92
				c-0.67-1.42-1.17-2.88-1.71-4.34c-0.17-0.46-0.41-0.9-0.61-1.35c-0.39-0.87-0.54-1.79-0.58-2.71c-0.06-1.43-0.11-2.86-0.14-4.29
				c-0.02-0.98-0.04-1.96-0.02-2.94c0.02-0.96,0.08-1.91,0.17-2.86c0.04-0.42,0.21-0.83,0.3-1.24c0.08-0.38,0.15-0.76,0.19-1.14
				c0.12-1.32,0.25-2.63,0.33-3.95c0.06-0.86,0.04-1.72,0.06-2.58c0-0.18,0-0.38,0.09-0.54c0.07-0.12,0.14-0.31,0.4-0.3
				c0.56,0.03,0.59-0.04,0.65-0.53c0.09-0.65,0.18-1.32,0.39-1.95c0.35-1.07,0.79-2.12,1.21-3.17c0.18-0.43,0.43-0.85,0.66-1.26
				c0.03-0.05,0.13-0.09,0.21-0.11c0.11-0.03,0.23-0.03,0.33-0.07c0.05-0.02,0.08-0.08,0.1-0.12c0-0.01-0.07-0.04-0.11-0.07
				c-0.04-0.03-0.1-0.06-0.1-0.08c0.01-0.08,0.02-0.2,0.07-0.22c0.37-0.15,0.26-0.41,0.24-0.65c0-0.02-0.02-0.05-0.04-0.06
				c-0.37-0.1-0.28-0.35-0.24-0.56c0.02-0.14-0.02-0.32,0.23-0.36c0.02,0,0.03-0.07,0.03-0.11c0.02-1.6,0.04-3.19,0.05-4.79
				c0-0.13,0.04-0.18,0.19-0.19c0.28-0.03,0.57-0.08,0.85-0.1c0.07,0,0.19,0.07,0.2,0.13c0.31,1.37,0.55,2.76,0.62,4.16
				c0.03,0.76,0.44,1.39,0.86,2.03c0.09,0.13,0.17,0.11,0.26-0.01c0.68-0.88,1.2-1.79,1.27-2.88c0.08-1.11,0.27-2.22,0.41-3.33
				c0.02-0.12,0.07-0.17,0.22-0.17c0.3,0.01,0.59,0,0.89,0.01c0.05,0,0.13,0.07,0.14,0.12c0.17,1.61,0.33,3.22,0.51,4.83
				c0.02,0.21,0.16,0.4,0.22,0.6c0.05,0.19,0.03,0.36-0.23,0.45c-0.05,0.02-0.06,0.12-0.07,0.19c-0.05,0.21-0.04,0.37,0.24,0.49
				c0.16,0.07,0.19,0.22,0.02,0.35c-0.03,0.02-0.04,0.09-0.04,0.13c0,0.03,0.05,0.05,0.09,0.08c0.01,0,0.02,0.01,0.03,0.01
				c0.47-0.03,0.64,0.22,0.73,0.56c0.17,0.66,0.35,1.32,0.55,1.97c0.23,0.77,0.51,1.54,0.72,2.32c0.19,0.7,0.32,1.4,0.46,2.11
				c0.03,0.14-0.04,0.3-0.09,0.44c-0.04,0.12-0.02,0.19,0.14,0.21c0.22,0.03,0.44,0.05,0.66,0.09c0.05,0.01,0.12,0.07,0.12,0.12
				c0.13,1.52,0.24,3.04,0.37,4.55c0.08,0.91,0.18,1.82,0.29,2.72c0.01,0.12,0.16,0.22,0.16,0.34c0,0.26,0.11,0.5-0.04,0.78
				c-0.12,0.24,0.03,0.58,0.05,0.87c0.03,0.35,0.06,0.7,0.06,1.05c0,0.08-0.11,0.17-0.11,0.25c0.01,0.14,0.07,0.28,0.12,0.41
				c0.02,0.07,0.12,0.14,0.1,0.19c-0.13,0.4-0.01,0.76,0.16,1.13c0.02,0.05-0.04,0.13-0.08,0.19c-0.05,0.08-0.15,0.16-0.15,0.24
				c0,0.49,0.03,0.98,0.04,1.48c0.03,1.57,0.02,3.13,0.19,4.69c0.22,1.9,0.31,3.82,0.45,5.73c0.04,0.55,0.1,1.1,0.12,1.66
				c0.01,0.28-0.04,0.56-0.04,0.84c0.02,1.61,0.04,3.22,0.06,4.83C107.97-2.05,107.96-1.61,107.95-1.17z M100.77-9.25
				c-0.04-1.15-0.07-2.3-0.14-3.45c-0.06-0.94-0.18-1.88-0.29-2.82c-0.12-1.08-0.37-2.15-0.72-3.19c-0.2-0.61-0.38-1.22-0.57-1.83
				c-0.05-0.18-0.08-0.37-0.12-0.56c-0.01,0-0.02,0-0.04,0c-0.11,0.46-0.2,0.93-0.32,1.39c-0.16,0.62-0.27,1.25-0.52,1.84
				c-0.3,0.72-0.7,1.41-1.06,2.12c-0.03,0.05,0,0.15,0.05,0.21c0.25,0.3,0.57,0.56,0.77,0.88c0.63,1.01,1.2,2.04,1.58,3.14
				c0.19,0.55,0.42,1.09,0.64,1.63c0.21,0.54,0.43,1.09,0.64,1.63c0.02,0.05,0.05,0.09,0.08,0.17
				C100.77-8.51,100.78-8.88,100.77-9.25z"/>
			<path class="st1" d="M93.31-29.05h-0.03v-5.05h3.03C95.31-32.42,94.31-30.74,93.31-29.05z"/>
			<circle cx="94.35" cy="-32.65" r="0.46"/>
			<rect x="96.91" y="-40.92" class="st1" width="5.16" height="1.47"/>
			<circle class="st1" cx="97.37" cy="-43.64" r="0.46"/>
		</g>
		<g>
			<path d="M16.95-1.17c-0.01,0.21-0.12,0.33-0.38,0.39c-0.58,0.13-1.13,0.34-1.71,0.44C13.89-0.2,12.91-0.11,11.93,0
				c-0.01-0.02-0.01-0.03-0.02-0.05c-0.36-0.05-0.73-0.08-1.09-0.15c-0.24-0.05-0.47-0.14-0.71-0.22c-0.03-0.01-0.05-0.08-0.05-0.12
				c-0.04-0.7-0.08-1.4-0.12-2.11c0-0.03-0.01-0.05-0.02-0.08C9.91-2.73,9.88-2.73,9.86-2.71C9.18-2.12,8.29-1.99,7.4-1.88
				c-0.5,0.06-1.01,0.12-1.51,0.16C5.63-1.7,5.38-1.73,5.12-1.74c-0.03,0-0.08-0.05-0.09-0.09C4.47-3.49,3.82-5.14,3.07-6.75
				C2.4-8.17,1.9-9.63,1.36-11.09c-0.17-0.46-0.41-0.9-0.61-1.35c-0.39-0.87-0.54-1.79-0.58-2.71c-0.06-1.43-0.11-2.86-0.14-4.29
				c-0.02-0.98-0.04-1.96-0.02-2.94c0.02-0.96,0.08-1.91,0.17-2.86c0.04-0.42,0.21-0.83,0.3-1.24c0.08-0.38,0.15-0.76,0.19-1.14
				c0.12-1.32,0.25-2.63,0.33-3.95c0.06-0.86,0.04-1.72,0.06-2.58c0-0.18,0-0.38,0.09-0.54c0.07-0.12,0.14-0.31,0.4-0.3
				c0.56,0.03,0.59-0.04,0.65-0.53c0.09-0.65,0.18-1.32,0.39-1.95c0.35-1.07,0.79-2.12,1.21-3.17c0.18-0.43,0.43-0.85,0.66-1.26
				c0.03-0.05,0.13-0.09,0.21-0.11C4.78-42.05,4.9-42.05,5-42.09c0.05-0.02,0.08-0.08,0.1-0.12c0-0.01-0.07-0.04-0.11-0.07
				c-0.04-0.03-0.1-0.06-0.1-0.08c0.01-0.08,0.02-0.2,0.07-0.22c0.37-0.15,0.26-0.41,0.24-0.65c0-0.02-0.02-0.05-0.04-0.06
				c-0.37-0.1-0.28-0.35-0.24-0.56c0.02-0.14-0.02-0.32,0.23-0.36c0.02,0,0.03-0.07,0.03-0.11c0.02-1.6,0.04-3.19,0.05-4.79
				c0-0.13,0.04-0.18,0.19-0.19c0.28-0.03,0.57-0.08,0.85-0.1c0.07,0,0.19,0.07,0.2,0.13c0.31,1.37,0.55,2.76,0.62,4.16
				c0.03,0.76,0.44,1.39,0.86,2.03c0.09,0.13,0.17,0.11,0.26-0.01c0.68-0.88,1.2-1.79,1.27-2.88c0.08-1.11,0.27-2.22,0.41-3.33
				c0.02-0.12,0.07-0.17,0.22-0.17c0.3,0.01,0.59,0,0.89,0.01c0.05,0,0.13,0.07,0.14,0.12c0.17,1.61,0.33,3.22,0.51,4.83
				c0.02,0.21,0.16,0.4,0.22,0.6c0.05,0.19,0.03,0.36-0.23,0.45c-0.05,0.02-0.06,0.12-0.07,0.19c-0.05,0.21-0.04,0.37,0.24,0.49
				c0.16,0.07,0.19,0.22,0.02,0.35c-0.03,0.02-0.04,0.09-0.04,0.13c0,0.03,0.05,0.05,0.09,0.08c0.01,0,0.02,0.01,0.03,0.01
				c0.47-0.03,0.64,0.22,0.73,0.56c0.17,0.66,0.35,1.32,0.55,1.97c0.23,0.77,0.51,1.54,0.72,2.32c0.19,0.7,0.32,1.4,0.46,2.11
				c0.03,0.14-0.04,0.3-0.09,0.44c-0.04,0.12-0.02,0.19,0.14,0.21c0.22,0.03,0.44,0.05,0.66,0.09c0.05,0.01,0.12,0.07,0.12,0.12
				c0.13,1.52,0.24,3.04,0.37,4.55c0.08,0.91,0.18,1.82,0.29,2.72c0.01,0.12,0.16,0.22,0.16,0.34c0,0.26,0.11,0.5-0.04,0.78
				c-0.12,0.24,0.03,0.58,0.05,0.87c0.03,0.35,0.06,0.7,0.06,1.05c0,0.08-0.11,0.17-0.11,0.25c0.01,0.14,0.07,0.28,0.12,0.41
				c0.02,0.07,0.12,0.14,0.1,0.19c-0.13,0.4-0.01,0.76,0.16,1.13c0.02,0.05-0.04,0.13-0.08,0.19c-0.05,0.08-0.15,0.16-0.15,0.24
				c0,0.49,0.03,0.98,0.04,1.48c0.03,1.57,0.02,3.13,0.19,4.69c0.22,1.9,0.31,3.82,0.45,5.73c0.04,0.55,0.1,1.1,0.12,1.66
				c0.01,0.28-0.04,0.56-0.04,0.84c0.02,1.61,0.04,3.22,0.06,4.83C16.97-2.05,16.96-1.61,16.95-1.17z M9.77-9.25
				c-0.04-1.15-0.07-2.3-0.14-3.45c-0.06-0.94-0.18-1.88-0.29-2.82c-0.12-1.08-0.37-2.15-0.72-3.19c-0.2-0.61-0.38-1.22-0.57-1.83
				C8-20.73,7.98-20.92,7.94-21.1c-0.01,0-0.02,0-0.04,0c-0.11,0.46-0.2,0.93-0.32,1.39c-0.16,0.62-0.27,1.25-0.52,1.84
				c-0.3,0.72-0.7,1.41-1.06,2.12c-0.03,0.05,0,0.15,0.05,0.21c0.25,0.3,0.57,0.56,0.77,0.88c0.63,1.01,1.2,2.04,1.58,3.14
				c0.19,0.55,0.42,1.09,0.64,1.63c0.21,0.54,0.43,1.09,0.64,1.63C9.71-8.22,9.73-8.18,9.77-8.1C9.77-8.51,9.78-8.88,9.77-9.25z"/>
			<path class="st1" d="M14.3-29.03h0.03v-5.05h-3.03C12.31-32.41,13.31-30.72,14.3-29.03z"/>
			<circle cx="13.35" cy="-32.85" r="0.46"/>
			<rect x="5.91" y="-40.92" class="st1" width="5.16" height="1.47"/>
			<circle class="st1" cx="10.53" cy="-43.64" r="0.46"/>
		</g>
		<g>
			<path d="M62.45-68.17c-0.01,0.21-0.12,0.33-0.38,0.39c-0.58,0.13-1.13,0.34-1.71,0.44c-0.97,0.15-1.95,0.24-2.93,0.35
				c-0.01-0.02-0.01-0.03-0.02-0.05c-0.36-0.05-0.73-0.08-1.09-0.15c-0.24-0.05-0.47-0.14-0.71-0.22c-0.03-0.01-0.05-0.08-0.05-0.12
				c-0.04-0.7-0.08-1.4-0.12-2.11c0-0.03-0.01-0.05-0.02-0.08c-0.02,0.01-0.05,0.01-0.07,0.02c-0.68,0.59-1.57,0.72-2.46,0.83
				c-0.5,0.06-1.01,0.12-1.51,0.16c-0.25,0.02-0.51-0.01-0.76-0.02c-0.03,0-0.08-0.05-0.09-0.09c-0.57-1.67-1.21-3.31-1.97-4.92
				c-0.67-1.42-1.17-2.88-1.71-4.34c-0.17-0.46-0.41-0.9-0.61-1.35c-0.39-0.87-0.54-1.79-0.58-2.71c-0.06-1.43-0.11-2.86-0.14-4.29
				c-0.02-0.98-0.04-1.96-0.02-2.94c0.02-0.96,0.08-1.91,0.17-2.86c0.04-0.42,0.21-0.83,0.3-1.24c0.08-0.38,0.15-0.76,0.19-1.14
				c0.12-1.32,0.25-2.63,0.33-3.95c0.06-0.86,0.04-1.72,0.06-2.58c0-0.18,0-0.38,0.09-0.54c0.07-0.12,0.14-0.31,0.4-0.3
				c0.56,0.03,0.59-0.04,0.65-0.53c0.09-0.65,0.18-1.32,0.39-1.95c0.35-1.07,0.79-2.12,1.21-3.17c0.18-0.43,0.43-0.85,0.66-1.26
				c0.03-0.05,0.13-0.09,0.21-0.11c0.11-0.03,0.23-0.03,0.33-0.07c0.05-0.02,0.08-0.08,0.1-0.12c0-0.01-0.07-0.04-0.11-0.07
				c-0.04-0.03-0.1-0.06-0.1-0.08c0.01-0.08,0.02-0.2,0.07-0.22c0.37-0.15,0.26-0.41,0.24-0.65c0-0.02-0.02-0.05-0.04-0.06
				c-0.37-0.1-0.28-0.35-0.24-0.56c0.02-0.14-0.02-0.32,0.23-0.36c0.02,0,0.03-0.07,0.03-0.11c0.02-1.6,0.04-3.19,0.05-4.79
				c0-0.13,0.04-0.18,0.19-0.19c0.28-0.03,0.57-0.08,0.85-0.1c0.07,0,0.19,0.07,0.2,0.13c0.31,1.37,0.55,2.76,0.62,4.16
				c0.03,0.76,0.44,1.39,0.86,2.03c0.09,0.13,0.17,0.11,0.26-0.01c0.68-0.88,1.2-1.79,1.27-2.88c0.08-1.11,0.27-2.22,0.41-3.33
				c0.02-0.12,0.07-0.17,0.22-0.17c0.3,0.01,0.59,0,0.89,0.01c0.05,0,0.13,0.07,0.14,0.12c0.17,1.61,0.33,3.22,0.51,4.83
				c0.02,0.21,0.16,0.4,0.22,0.6c0.05,0.19,0.03,0.36-0.23,0.45c-0.05,0.02-0.06,0.12-0.07,0.19c-0.05,0.21-0.04,0.37,0.24,0.49
				c0.16,0.07,0.19,0.22,0.02,0.35c-0.03,0.02-0.04,0.09-0.04,0.13c0,0.03,0.05,0.05,0.09,0.08c0.01,0,0.02,0.01,0.03,0.01
				c0.47-0.03,0.64,0.22,0.73,0.56c0.17,0.66,0.35,1.32,0.55,1.97c0.23,0.77,0.51,1.54,0.72,2.32c0.19,0.7,0.32,1.4,0.46,2.11
				c0.03,0.14-0.04,0.3-0.09,0.44c-0.04,0.12-0.02,0.19,0.14,0.21c0.22,0.03,0.44,0.05,0.66,0.09c0.05,0.01,0.12,0.07,0.12,0.12
				c0.13,1.52,0.24,3.04,0.37,4.55c0.08,0.91,0.18,1.82,0.29,2.72c0.01,0.12,0.16,0.22,0.16,0.34c0,0.26,0.11,0.5-0.04,0.78
				c-0.12,0.24,0.03,0.58,0.05,0.87c0.03,0.35,0.06,0.7,0.06,1.05c0,0.08-0.11,0.17-0.11,0.25c0.01,0.14,0.07,0.28,0.12,0.41
				c0.02,0.07,0.12,0.14,0.1,0.19c-0.13,0.4-0.01,0.76,0.16,1.13c0.02,0.05-0.04,0.13-0.08,0.19c-0.05,0.08-0.15,0.16-0.15,0.24
				c0,0.49,0.03,0.98,0.04,1.48c0.03,1.57,0.02,3.13,0.19,4.69c0.22,1.9,0.31,3.82,0.45,5.73c0.04,0.55,0.1,1.1,0.12,1.66
				c0.01,0.28-0.04,0.56-0.04,0.84c0.02,1.61,0.04,3.22,0.06,4.83C62.47-69.05,62.46-68.61,62.45-68.17z M55.27-76.25
				c-0.04-1.15-0.07-2.3-0.14-3.45c-0.06-0.94-0.18-1.88-0.29-2.82c-0.12-1.08-0.37-2.15-0.72-3.19c-0.2-0.61-0.38-1.22-0.57-1.83
				c-0.05-0.18-0.08-0.37-0.12-0.56c-0.01,0-0.02,0-0.04,0c-0.11,0.46-0.2,0.93-0.32,1.39c-0.16,0.62-0.27,1.25-0.52,1.84
				c-0.3,0.72-0.7,1.41-1.06,2.12c-0.03,0.05,0,0.15,0.05,0.21c0.25,0.3,0.57,0.56,0.77,0.88c0.63,1.01,1.2,2.04,1.58,3.14
				c0.19,0.55,0.42,1.09,0.64,1.63c0.21,0.54,0.43,1.09,0.64,1.63c0.02,0.05,0.05,0.09,0.08,0.17
				C55.27-75.51,55.28-75.88,55.27-76.25z"/>
			<path class="st1" d="M59.8-96.03h0.03v-5.05h-3.03C57.81-99.41,58.81-97.72,59.8-96.03z"/>
			<path class="st1" d="M47.81-96.05h-0.03v-5.05h3.03C49.81-99.42,48.81-97.74,47.81-96.05z"/>
			<rect x="57.73" y="-92.19" class="st1" width="3.81" height="1.35"/>
			<circle cx="48.85" cy="-99.65" r="0.46"/>
			<circle cx="58.85" cy="-99.85" r="0.46"/>
			<rect x="51.41" y="-107.92" class="st1" width="5.16" height="1.47"/>
			<circle class="st1" cx="51.87" cy="-110.64" r="0.46"/>
			<circle class="st1" cx="56.03" cy="-110.64" r="0.46"/>
		</g>
		<g>
			<path d="M107.95-135.17c-0.01,0.21-0.12,0.33-0.38,0.39c-0.58,0.13-1.13,0.34-1.71,0.44c-0.97,0.15-1.95,0.24-2.93,0.35
				c-0.01-0.02-0.01-0.03-0.02-0.05c-0.36-0.05-0.73-0.08-1.09-0.15c-0.24-0.05-0.47-0.14-0.71-0.22c-0.03-0.01-0.05-0.08-0.05-0.12
				c-0.04-0.7-0.08-1.4-0.12-2.11c0-0.03-0.01-0.05-0.02-0.08c-0.02,0.01-0.05,0.01-0.07,0.02c-0.68,0.59-1.57,0.72-2.46,0.83
				c-0.5,0.06-1.01,0.12-1.51,0.16c-0.25,0.02-0.51-0.01-0.76-0.02c-0.03,0-0.08-0.05-0.09-0.09c-0.57-1.67-1.21-3.31-1.97-4.92
				c-0.67-1.42-1.17-2.88-1.71-4.34c-0.17-0.46-0.41-0.9-0.61-1.35c-0.39-0.87-0.54-1.79-0.58-2.71c-0.06-1.43-0.11-2.86-0.14-4.29
				c-0.02-0.98-0.04-1.96-0.02-2.94c0.02-0.96,0.08-1.91,0.17-2.86c0.04-0.42,0.21-0.83,0.3-1.24c0.08-0.38,0.15-0.76,0.19-1.14
				c0.12-1.32,0.25-2.63,0.33-3.95c0.06-0.86,0.04-1.72,0.06-2.58c0-0.18,0-0.38,0.09-0.54c0.07-0.12,0.14-0.31,0.4-0.3
				c0.56,0.03,0.59-0.04,0.65-0.53c0.09-0.65,0.18-1.32,0.39-1.95c0.35-1.07,0.79-2.12,1.21-3.17c0.18-0.43,0.43-0.85,0.66-1.26
				c0.03-0.05,0.13-0.09,0.21-0.11c0.11-0.03,0.23-0.03,0.33-0.07c0.05-0.02,0.08-0.08,0.1-0.12c0-0.01-0.07-0.04-0.11-0.07
				c-0.04-0.03-0.1-0.06-0.1-0.08c0.01-0.08,0.02-0.2,0.07-0.22c0.37-0.15,0.26-0.41,0.24-0.65c0-0.02-0.02-0.05-0.04-0.06
				c-0.37-0.1-0.28-0.35-0.24-0.56c0.02-0.14-0.02-0.32,0.23-0.36c0.02,0,0.03-0.07,0.03-0.11c0.02-1.6,0.04-3.19,0.05-4.79
				c0-0.13,0.04-0.18,0.19-0.19c0.28-0.03,0.57-0.08,0.85-0.1c0.07,0,0.19,0.07,0.2,0.13c0.31,1.37,0.55,2.76,0.62,4.16
				c0.03,0.76,0.44,1.39,0.86,2.03c0.09,0.13,0.17,0.11,0.26-0.01c0.68-0.88,1.2-1.79,1.27-2.88c0.08-1.11,0.27-2.22,0.41-3.33
				c0.02-0.12,0.07-0.17,0.22-0.17c0.3,0.01,0.59,0,0.89,0.01c0.05,0,0.13,0.07,0.14,0.12c0.17,1.61,0.33,3.22,0.51,4.83
				c0.02,0.21,0.16,0.4,0.22,0.6c0.05,0.19,0.03,0.36-0.23,0.45c-0.05,0.02-0.06,0.12-0.07,0.19c-0.05,0.21-0.04,0.37,0.24,0.49
				c0.16,0.07,0.19,0.22,0.02,0.35c-0.03,0.02-0.04,0.09-0.04,0.13c0,0.03,0.05,0.05,0.09,0.08c0.01,0,0.02,0.01,0.03,0.01
				c0.47-0.03,0.64,0.22,0.73,0.56c0.17,0.66,0.35,1.32,0.55,1.97c0.23,0.77,0.51,1.54,0.72,2.32c0.19,0.7,0.32,1.4,0.46,2.11
				c0.03,0.14-0.04,0.3-0.09,0.44c-0.04,0.12-0.02,0.19,0.14,0.21c0.22,0.03,0.44,0.05,0.66,0.09c0.05,0.01,0.12,0.07,0.12,0.12
				c0.13,1.52,0.24,3.04,0.37,4.55c0.08,0.91,0.18,1.82,0.29,2.72c0.01,0.12,0.16,0.22,0.16,0.34c0,0.26,0.11,0.5-0.04,0.78
				c-0.12,0.24,0.03,0.58,0.05,0.87c0.03,0.35,0.06,0.7,0.06,1.05c0,0.08-0.11,0.17-0.11,0.25c0.01,0.14,0.07,0.28,0.12,0.41
				c0.02,0.07,0.12,0.14,0.1,0.19c-0.13,0.4-0.01,0.76,0.16,1.13c0.02,0.05-0.04,0.13-0.08,0.19c-0.05,0.08-0.15,0.16-0.15,0.24
				c0,0.49,0.03,0.98,0.04,1.48c0.03,1.57,0.02,3.13,0.19,4.69c0.22,1.9,0.31,3.82,0.45,5.73c0.04,0.55,0.1,1.1,0.12,1.66
				c0.01,0.28-0.04,0.56-0.04,0.84c0.02,1.61,0.04,3.22,0.06,4.83C107.97-136.05,107.96-135.61,107.95-135.17z M100.77-143.25
				c-0.04-1.15-0.07-2.3-0.14-3.45c-0.06-0.94-0.18-1.88-0.29-2.82c-0.12-1.08-0.37-2.15-0.72-3.19c-0.2-0.61-0.38-1.22-0.57-1.83
				c-0.05-0.18-0.08-0.37-0.12-0.56c-0.01,0-0.02,0-0.04,0c-0.11,0.46-0.2,0.93-0.32,1.39c-0.16,0.62-0.27,1.25-0.52,1.84
				c-0.3,0.72-0.7,1.41-1.06,2.12c-0.03,0.05,0,0.15,0.05,0.21c0.25,0.3,0.57,0.56,0.77,0.88c0.63,1.01,1.2,2.04,1.58,3.14
				c0.19,0.55,0.42,1.09,0.64,1.63c0.21,0.54,0.43,1.09,0.64,1.63c0.02,0.05,0.05,0.09,0.08,0.17
				C100.77-142.51,100.78-142.88,100.77-143.25z"/>
		</g>
		<g>
			<path d="M16.95-135.17c-0.01,0.21-0.12,0.33-0.38,0.39c-0.58,0.13-1.13,0.34-1.71,0.44c-0.97,0.15-1.95,0.24-2.93,0.35
				c-0.01-0.02-0.01-0.03-0.02-0.05c-0.36-0.05-0.73-0.08-1.09-0.15c-0.24-0.05-0.47-0.14-0.71-0.22c-0.03-0.01-0.05-0.08-0.05-0.12
				c-0.04-0.7-0.08-1.4-0.12-2.11c0-0.03-0.01-0.05-0.02-0.08c-0.02,0.01-0.05,0.01-0.07,0.02c-0.68,0.59-1.57,0.72-2.46,0.83
				c-0.5,0.06-1.01,0.12-1.51,0.16c-0.25,0.02-0.51-0.01-0.76-0.02c-0.03,0-0.08-0.05-0.09-0.09c-0.57-1.67-1.21-3.31-1.97-4.92
				c-0.67-1.42-1.17-2.88-1.71-4.34c-0.17-0.46-0.41-0.9-0.61-1.35c-0.39-0.87-0.54-1.79-0.58-2.71c-0.06-1.43-0.11-2.86-0.14-4.29
				c-0.02-0.98-0.04-1.96-0.02-2.94c0.02-0.96,0.08-1.91,0.17-2.86c0.04-0.42,0.21-0.83,0.3-1.24c0.08-0.38,0.15-0.76,0.19-1.14
				c0.12-1.32,0.25-2.63,0.33-3.95c0.06-0.86,0.04-1.72,0.06-2.58c0-0.18,0-0.38,0.09-0.54c0.07-0.12,0.14-0.31,0.4-0.3
				c0.56,0.03,0.59-0.04,0.65-0.53c0.09-0.65,0.18-1.32,0.39-1.95c0.35-1.07,0.79-2.12,1.21-3.17c0.18-0.43,0.43-0.85,0.66-1.26
				c0.03-0.05,0.13-0.09,0.21-0.11c0.11-0.03,0.23-0.03,0.33-0.07c0.05-0.02,0.08-0.08,0.1-0.12c0-0.01-0.07-0.04-0.11-0.07
				c-0.04-0.03-0.1-0.06-0.1-0.08c0.01-0.08,0.02-0.2,0.07-0.22c0.37-0.15,0.26-0.41,0.24-0.65c0-0.02-0.02-0.05-0.04-0.06
				c-0.37-0.1-0.28-0.35-0.24-0.56c0.02-0.14-0.02-0.32,0.23-0.36c0.02,0,0.03-0.07,0.03-0.11c0.02-1.6,0.04-3.19,0.05-4.79
				c0-0.13,0.04-0.18,0.19-0.19c0.28-0.03,0.57-0.08,0.85-0.1c0.07,0,0.19,0.07,0.2,0.13c0.31,1.37,0.55,2.76,0.62,4.16
				c0.03,0.76,0.44,1.39,0.86,2.03c0.09,0.13,0.17,0.11,0.26-0.01c0.68-0.88,1.2-1.79,1.27-2.88c0.08-1.11,0.27-2.22,0.41-3.33
				c0.02-0.12,0.07-0.17,0.22-0.17c0.3,0.01,0.59,0,0.89,0.01c0.05,0,0.13,0.07,0.14,0.12c0.17,1.61,0.33,3.22,0.51,4.83
				c0.02,0.21,0.16,0.4,0.22,0.6c0.05,0.19,0.03,0.36-0.23,0.45c-0.05,0.02-0.06,0.12-0.07,0.19c-0.05,0.21-0.04,0.37,0.24,0.49
				c0.16,0.07,0.19,0.22,0.02,0.35c-0.03,0.02-0.04,0.09-0.04,0.13c0,0.03,0.05,0.05,0.09,0.08c0.01,0,0.02,0.01,0.03,0.01
				c0.47-0.03,0.64,0.22,0.73,0.56c0.17,0.66,0.35,1.32,0.55,1.97c0.23,0.77,0.51,1.54,0.72,2.32c0.19,0.7,0.32,1.4,0.46,2.11
				c0.03,0.14-0.04,0.3-0.09,0.44c-0.04,0.12-0.02,0.19,0.14,0.21c0.22,0.03,0.44,0.05,0.66,0.09c0.05,0.01,0.12,0.07,0.12,0.12
				c0.13,1.52,0.24,3.04,0.37,4.55c0.08,0.91,0.18,1.82,0.29,2.72c0.01,0.12,0.16,0.22,0.16,0.34c0,0.26,0.11,0.5-0.04,0.78
				c-0.12,0.24,0.03,0.58,0.05,0.87c0.03,0.35,0.06,0.7,0.06,1.05c0,0.08-0.11,0.17-0.11,0.25c0.01,0.14,0.07,0.28,0.12,0.41
				c0.02,0.07,0.12,0.14,0.1,0.19c-0.13,0.4-0.01,0.76,0.16,1.13c0.02,0.05-0.04,0.13-0.08,0.19c-0.05,0.08-0.15,0.16-0.15,0.24
				c0,0.49,0.03,0.98,0.04,1.48c0.03,1.57,0.02,3.13,0.19,4.69c0.22,1.9,0.31,3.82,0.45,5.73c0.04,0.55,0.1,1.1,0.12,1.66
				c0.01,0.28-0.04,0.56-0.04,0.84c0.02,1.61,0.04,3.22,0.06,4.83C16.97-136.05,16.96-135.61,16.95-135.17z M9.77-143.25
				c-0.04-1.15-0.07-2.3-0.14-3.45c-0.06-0.94-0.18-1.88-0.29-2.82c-0.12-1.08-0.37-2.15-0.72-3.19c-0.2-0.61-0.38-1.22-0.57-1.83
				c-0.05-0.18-0.08-0.37-0.12-0.56c-0.01,0-0.02,0-0.04,0c-0.11,0.46-0.2,0.93-0.32,1.39c-0.16,0.62-0.27,1.25-0.52,1.84
				c-0.3,0.72-0.7,1.41-1.06,2.12c-0.03,0.05,0,0.15,0.05,0.21c0.25,0.3,0.57,0.56,0.77,0.88c0.63,1.01,1.2,2.04,1.58,3.14
				c0.19,0.55,0.42,1.09,0.64,1.63c0.21,0.54,0.43,1.09,0.64,1.63c0.02,0.05,0.05,0.09,0.08,0.17
				C9.77-142.51,9.78-142.88,9.77-143.25z"/>
			<rect x="12.23" y="-159.19" class="st1" width="3.81" height="1.35"/>
		</g>
	</g>
</pattern>
<g>
	<path d="M576.5-59.16c-0.02-1.4-0.04-2.8-0.06-4.2c0-0.24,0.04-0.49,0.03-0.73c-0.02-0.48-0.07-0.96-0.11-1.44
		c-0.13-1.66-0.2-3.32-0.39-4.98c-0.15-1.36-0.14-2.72-0.17-4.08c-0.01-0.43-0.03-0.86-0.04-1.28c0-0.07,0.09-0.13,0.13-0.21
		c0.03-0.05,0.08-0.12,0.07-0.16c-0.15-0.32-0.25-0.63-0.14-0.98c0.01-0.04-0.07-0.1-0.09-0.16c-0.04-0.12-0.09-0.24-0.1-0.36
		c-0.01-0.07,0.1-0.14,0.09-0.21c-0.01-0.3-0.03-0.61-0.06-0.91c-0.02-0.26-0.15-0.55-0.04-0.76c0.13-0.25,0.04-0.46,0.04-0.68
		c0-0.1-0.13-0.19-0.14-0.29c-0.09-0.79-0.19-1.58-0.25-2.36c-0.11-1.32-0.21-2.64-0.32-3.95c0-0.04-0.06-0.09-0.11-0.1
		c-0.19-0.03-0.38-0.06-0.57-0.08c-0.14-0.02-0.16-0.07-0.12-0.18c0.04-0.12,0.1-0.26,0.08-0.38c-0.12-0.61-0.23-1.23-0.4-1.83
		c-0.18-0.68-0.42-1.34-0.62-2.01c-0.17-0.57-0.32-1.14-0.47-1.71c-0.08-0.3-0.23-0.51-0.63-0.49c-0.01,0-0.02,0-0.02-0.01
		c-0.03-0.02-0.07-0.04-0.07-0.07c-0.01-0.04,0-0.09,0.03-0.11c0.15-0.11,0.12-0.25-0.02-0.3c-0.24-0.1-0.25-0.24-0.21-0.42
		c0.01-0.06,0.02-0.15,0.06-0.16c0.23-0.08,0.25-0.23,0.2-0.39c-0.05-0.18-0.17-0.35-0.19-0.52c-0.16-1.4-0.29-2.8-0.45-4.2
		c0-0.04-0.08-0.1-0.12-0.1c-0.26-0.01-0.51,0-0.77-0.01c-0.13,0-0.18,0.04-0.19,0.14c-0.12,0.96-0.29,1.92-0.36,2.89
		c-0.07,0.95-0.52,1.74-1.11,2.5c-0.08,0.1-0.15,0.12-0.22,0.01c-0.36-0.55-0.72-1.1-0.75-1.76c-0.05-1.22-0.27-2.42-0.54-3.61
		c-0.01-0.05-0.12-0.11-0.18-0.11c-0.25,0.02-0.49,0.06-0.74,0.09c-0.13,0.01-0.17,0.05-0.17,0.17c-0.01,1.39-0.03,2.78-0.04,4.16
		c0,0.03-0.01,0.09-0.03,0.09c-0.21,0.04-0.18,0.2-0.2,0.32c-0.03,0.19-0.11,0.41,0.21,0.49c0.02,0,0.03,0.03,0.03,0.05
		c0.02,0.21,0.12,0.44-0.21,0.57c-0.05,0.02-0.05,0.13-0.06,0.19c0,0.02,0.05,0.05,0.08,0.07c0.03,0.02,0.1,0.05,0.09,0.06
		c-0.02,0.04-0.04,0.1-0.08,0.11c-0.09,0.03-0.2,0.03-0.29,0.06c-0.07,0.02-0.15,0.05-0.18,0.1c-0.2,0.36-0.42,0.72-0.57,1.1
		c-0.37,0.91-0.75,1.83-1.06,2.76c-0.18,0.55-0.26,1.12-0.34,1.69c-0.06,0.42-0.08,0.48-0.57,0.46c-0.23-0.01-0.29,0.16-0.35,0.26
		c-0.08,0.13-0.07,0.31-0.08,0.47c-0.02,0.75,0,1.49-0.05,2.24c-0.07,1.15-0.18,2.29-0.29,3.43c-0.03,0.33-0.09,0.67-0.16,0.99
		c-0.08,0.36-0.23,0.72-0.26,1.08c-0.08,0.83-0.12,1.66-0.14,2.49c-0.02,0.85,0,1.7,0.02,2.56c0.03,1.24,0.07,2.48,0.13,3.73
		c0.03,0.8,0.16,1.6,0.5,2.36c0.17,0.39,0.38,0.77,0.53,1.17c0.47,1.26,0.9,2.54,1.49,3.77c0.66,1.4,1.22,2.83,1.71,4.28
		c0.01,0.03,0.05,0.07,0.08,0.07c0.22,0.01,0.44,0.03,0.66,0.02c0.44-0.03,0.88-0.08,1.31-0.14c0.78-0.1,1.55-0.21,2.14-0.72
		c0.01-0.01,0.04-0.01,0.06-0.02c0.01,0.02,0.02,0.05,0.02,0.07c0.03,0.61,0.07,1.22,0.1,1.83c0,0.04,0.02,0.1,0.04,0.11
		c0.2,0.07,0.4,0.15,0.61,0.19c0.31,0.06,0.63,0.09,0.95,0.13c0,0.01,0.01,0.03,0.01,0.04c0.85-0.1,1.7-0.17,2.54-0.3
		c0.51-0.08,0.99-0.27,1.49-0.38c0.23-0.05,0.32-0.16,0.33-0.34C576.5-58.4,576.51-58.78,576.5-59.16z M570.26-64.03
		c-0.03-0.07-0.06-0.11-0.07-0.15c-0.19-0.47-0.37-0.94-0.55-1.42c-0.19-0.47-0.39-0.94-0.55-1.42c-0.34-0.95-0.83-1.85-1.38-2.72
		c-0.17-0.28-0.45-0.51-0.67-0.76c-0.04-0.05-0.06-0.13-0.04-0.18c0.3-0.61,0.66-1.21,0.92-1.84c0.21-0.51,0.31-1.06,0.45-1.6
		c0.1-0.4,0.19-0.81,0.28-1.21c0.01,0,0.02,0,0.03,0c0.04,0.16,0.06,0.33,0.11,0.48c0.16,0.53,0.32,1.06,0.49,1.59
		c0.3,0.91,0.52,1.83,0.62,2.77c0.09,0.82,0.19,1.63,0.25,2.45c0.07,1,0.09,2,0.12,2.99C570.26-64.71,570.26-64.39,570.26-64.03z"/>
	<path class="st1" d="M574.19-82.22h0.03v-4.39h-2.63C572.46-85.15,573.33-83.69,574.19-82.22z"/>
	<path class="st1" d="M563.78-82.24h-0.03v-4.39h2.63C565.51-85.17,564.64-83.7,563.78-82.24z"/>
	<rect x="572.39" y="-78.88" class="st1" width="3.31" height="1.17"/>
	<circle cx="564.67" cy="-85.37" r="0.4"/>
	<circle cx="573.36" cy="-85.54" r="0.4"/>
	<rect x="566.9" y="-92.55" class="st1" width="4.48" height="1.27"/>
	<circle class="st1" cx="567.3" cy="-94.91" r="0.4"/>
	<circle class="st1" cx="570.91" cy="-94.91" r="0.4"/>
</g>
<rect y="0" class="st2" width="1366" height="736"/>
<g>
	<g>
		<path d="M640.67-122.7c-0.06,0.41-0.11,0.82-0.19,1.22c-0.14,0.67-0.33,1.34-0.45,2.01c-0.1,0.51-0.14,1.03-0.18,1.55
			c-0.05,0.6-0.08,1.2-0.12,1.79c-1.23,0.3-2.38-0.02-3.52-0.29c-0.46-0.11-0.9-0.29-1.34-0.46c-0.07-0.03-0.13-0.18-0.11-0.26
			c0.08-0.46,0.19-0.92,0.29-1.39c0.03-0.15,0.07-0.31,0.08-0.46c0.05-0.82,0.06-1.65,0.16-2.46c0.05-0.39,0.08-0.81,0.34-1.17
			c0.09-0.13,0.06-0.35,0.07-0.53c0.02-0.4,0.02-0.81,0.06-1.21c0.06-0.58,0.11-1.17,0.21-1.74c0.14-0.75,0.33-1.49,0.49-2.24
			c0.12-0.56,0.24-1.13,0.34-1.7c0.03-0.19,0.11-0.25,0.29-0.2c1.22,0.33,2.48,0.33,3.73,0.3c1.25-0.03,2.5-0.21,3.75-0.34
			c0.39-0.04,0.42-0.02,0.49,0.37c0.07,0.4,0.1,0.8,0.29,1.19c0.14,0.3,0.12,0.68,0.17,1.02c0.08,0.57,0.17,1.14,0.25,1.71
			c0.12,0.91,0.22,1.82,0.34,2.73c0.04,0.27,0.11,0.54,0.16,0.82c0.01,0.05,0.03,0.12,0.01,0.13c-0.2,0.16-0.06,0.34-0.03,0.5
			c0.05,0.24,0.13,0.47,0.2,0.71c0.01,0.05,0.04,0.11,0.02,0.16c-0.13,0.49-0.03,0.97,0,1.46c0.04,0.63,0.06,1.26,0.09,1.9
			c0.01,0.16,0.02,0.32,0.06,0.47c0.06,0.23-0.07,0.29-0.24,0.35c-0.13,0.04-0.27,0.08-0.39,0.16c-0.43,0.26-0.92,0.3-1.39,0.35
			c-0.68,0.07-1.36,0.09-2.04,0.12c-0.29,0.01-0.58,0-0.87-0.03c-0.19-0.02-0.31-0.13-0.32-0.36c-0.07-1.25-0.13-2.5-0.25-3.74
			c-0.08-0.82-0.25-1.62-0.38-2.43C640.69-122.69,640.68-122.69,640.67-122.7z"/>
	</g>
	<path class="st1" d="M645.76-126.04l0.02,0l-0.71-3.21l-1.93,0.43C644.02-127.9,644.89-126.97,645.76-126.04z"/>
	<path class="st1" d="M636.19-126.03l-0.02,0l0.66-3.22l1.93,0.39C637.9-127.92,637.04-126.98,636.19-126.03z"/>
	
		<rect x="643.83" y="-121.74" transform="matrix(0.9671 -0.2545 0.2545 0.9671 52.1084 160.1693)" class="st1" width="2.48" height="0.88"/>
	<circle cx="637.17" cy="-128.15" r="0.3"/>
	<circle cx="644.67" cy="-128.14" r="0.3"/>
</g>
</svg>
