<?xml version="1.0" encoding="utf-8"?>
<!-- Generator: Adobe Illustrator 23.0.2, SVG Export Plug-In . SVG Version: 6.00 Build 0)  -->
<svg version="1.1" id="Layer_1" xmlns="http://www.w3.org/2000/svg" xmlns:xlink="http://www.w3.org/1999/xlink" x="0px" y="0px"
	 viewBox="0 0 356.2 1096.6" style="enable-background:new 0 0 356.2 1096.6;" xml:space="preserve">
<style type="text/css">
	.st0{fill:none;}
	.st1{fill:#FFFFFF;}
	.st2{fill:url(#SVGID_1_);}
	.st3{fill:url(#SVGID_2_);}
	.st4{fill:url(#SVGID_3_);}
	.st5{fill:url(#SVGID_4_);}
	.st6{fill:url(#SVGID_5_);}
	.st7{fill:url(#SVGID_6_);}
</style>
<pattern  y="1096.6" width="68" height="102" patternUnits="userSpaceOnUse" id="New_Pattern_2" viewBox="7.6 -130.4 68 102" style="overflow:visible;">
	<g>
		<rect x="7.6" y="-130.4" class="st0" width="68" height="102"/>
		<g>
			<path d="M83-1c0,0.1-0.1,0.3-0.3,0.3c-0.5,0.1-1,0.3-1.5,0.4c-0.8,0.1-1.7,0.2-2.6,0.3l0,0c-0.4,0-0.7,0-1-0.1
				c-0.2,0-0.4-0.1-0.6-0.2v-0.1c0-0.6-0.1-1.2-0.1-1.8c0-0.1,0-0.1,0-0.1c-0.1,0-0.1,0-0.1,0c-0.6,0.5-1.3,0.6-2.2,0.7
				c-0.4,0-0.9,0.1-1.3,0.1c-0.3,0-0.5,0-0.7,0c-0.1,0-0.1-0.1-0.1-0.1c-0.5-1.5-1-3-1.7-4.4c-0.6-1.3-1-2.6-1.5-3.9
				c-0.1-0.4-0.3-0.8-0.5-1.2c-0.3-0.8-0.5-1.6-0.5-2.5c0-1.2-0.1-2.6-0.1-3.8c0-0.9,0-1.8,0-2.7s0-1.7,0.1-2.6
				c0.1-0.4,0.2-0.7,0.3-1.1c0.1-0.3,0.2-0.7,0.2-1c0.1-1.1,0.2-2.3,0.3-3.5c0-0.7,0-1.4,0-2.3c0-0.2,0-0.4,0.1-0.5
				c0-0.1,0.1-0.3,0.3-0.3c0.5,0,0.5-0.1,0.6-0.5c0-0.6,0.1-1.1,0.3-1.7c0.3-1,0.7-1.9,1.1-2.9c0.2-0.4,0.4-0.7,0.6-1.1
				c0,0,0.1-0.1,0.2-0.1c0.1-0.1,0.2-0.1,0.3-0.1s0.1-0.1,0.1-0.1s0-0.1-0.1-0.1s-0.1-0.1-0.1-0.1c0.1-0.1,0.1-0.2,0.1-0.2
				c0.3-0.2,0.2-0.4,0.2-0.6c0-0.1,0-0.1,0-0.1c-0.3-0.1-0.2-0.3-0.2-0.5c0-0.1,0-0.3,0.2-0.3v-0.1c0-1.4,0-2.9,0-4.3
				c0-0.1,0.1-0.2,0.2-0.2c0.2,0,0.4-0.1,0.7-0.1c0.1,0,0.2,0,0.2,0.1c0.2,1.2,0.5,2.5,0.5,3.7c0.1,0.7,0.4,1.2,0.8,1.8
				c0,0.1,0.1,0.1,0.2,0c0.6-0.8,1-1.6,1.1-2.6c0.1-1,0.3-1.9,0.4-3c0-0.1,0.1-0.1,0.2-0.1c0.3,0,0.5,0,0.8,0l0.1,0.1
				c0.2,1.4,0.3,2.9,0.5,4.3c0,0.2,0.2,0.3,0.2,0.5c0.1,0.2,0,0.3-0.2,0.4c-0.1,0-0.1,0.1-0.1,0.2c-0.1,0.2,0,0.3,0.2,0.4
				c0.1,0,0.2,0.2,0,0.3v0.1c0,0.1,0.1,0.1,0.1,0.1l0,0c0.4,0,0.5,0.2,0.6,0.5c0.2,0.6,0.3,1.1,0.5,1.7c0.2,0.7,0.4,1.3,0.6,2
				c0.2,0.6,0.3,1.2,0.4,1.8c0,0.1-0.1,0.3-0.1,0.4c-0.1,0.1,0,0.2,0.1,0.2c0.2,0,0.4,0.1,0.6,0.1l0.1,0.1c0.1,1.3,0.2,2.7,0.3,4
				c0.1,0.8,0.2,1.6,0.3,2.5c0,0.1,0.1,0.2,0.1,0.3c0,0.2,0.1,0.4,0,0.7c-0.2,0.2,0,0.5,0,0.8c0.1,0.3,0.1,0.6,0.1,0.9
				c0,0.1-0.1,0.1-0.1,0.2c0,0.2,0.1,0.3,0.1,0.4c0,0.1,0.1,0.2,0.1,0.2c-0.2,0.4-0.1,0.7,0.1,1c0,0.1-0.1,0.1-0.1,0.2
				s-0.1,0.1-0.1,0.2c0,0.4,0,0.9,0,1.3c0.1,1.4,0,2.8,0.2,4.2c0.2,1.7,0.3,3.4,0.4,5.1c0,0.4,0.1,0.9,0.1,1.4c0,0.2,0,0.5,0,0.7
				c0.1,1.4,0.1,2.9,0.1,4.3C83.3-2.2,83.3-1.7,83-1z M77-8.5c0-1,0-2-0.1-3.1c-0.1-0.8-0.2-1.6-0.3-2.5c-0.1-1-0.3-1.9-0.6-2.9
				c-0.2-0.5-0.3-1.1-0.5-1.6c0-0.2-0.1-0.3-0.1-0.5l0,0c-0.1,0.4-0.2,0.8-0.3,1.2c-0.2,0.5-0.3,1.1-0.5,1.6
				c-0.2,0.6-0.6,1.2-0.9,1.8c-0.1,0.1,0,0.1,0,0.2c0.2,0.3,0.5,0.5,0.7,0.8c0.6,0.9,1.1,1.8,1.4,2.8c0.1,0.5,0.3,0.9,0.5,1.4
				c0.1,0.5,0.3,0.9,0.5,1.4c0,0.1,0.1,0.1,0.1,0.2C76.9-7.9,76.9-8.2,77-8.5z"/>
			<path class="st1" d="M72.9-30.6h-2.7v4.5l0,0C71.1-27.6,72-29.2,72.9-30.6z"/>
			<circle cx="71.2" cy="-29.4" r="0.4"/>
			<rect x="73.5" y="-36.8" class="st1" width="4.6" height="1.3"/>
			<circle class="st1" cx="73.9" cy="-39.1" r="0.4"/>
		</g>
		<g>
			<path d="M14.9-1c0,0.1-0.1,0.3-0.3,0.3c-0.5,0.1-1,0.3-1.5,0.4c-0.8,0.1-1.7,0.2-2.6,0.3l0,0c-0.4,0-0.7,0-1-0.1
				c-0.2,0-0.4-0.1-0.6-0.2v-0.1c0-0.6-0.1-1.2-0.1-1.8c0-0.1,0-0.1,0-0.1c-0.1,0-0.1,0-0.1,0C8.1-1.8,7.4-1.7,6.6-1.6
				c-0.4,0-0.9,0.1-1.3,0.1c-0.3,0-0.5,0-0.7,0c-0.1,0-0.1-0.1-0.1-0.1c-0.5-1.5-1-3-1.7-4.4C2-7.4,1.6-8.6,1.1-9.9
				c-0.1-0.4-0.3-0.8-0.5-1.2c-0.3-0.8-0.5-1.6-0.5-2.5c0-1.2-0.1-2.6-0.1-3.8c0-0.9,0-1.8,0-2.7s0-1.7,0.1-2.6
				c0.1-0.4,0.2-0.7,0.3-1.1c0.1-0.3,0.2-0.7,0.2-1c0.1-1.1,0.2-2.3,0.3-3.5c0-0.7,0-1.4,0-2.3c0-0.2,0-0.4,0.1-0.5
				c0-0.1,0.1-0.3,0.3-0.3c0.5,0,0.5-0.1,0.6-0.5c0-0.6,0.1-1.1,0.3-1.7c0.3-1,0.7-1.9,1.1-2.9c0.2-0.4,0.4-0.7,0.6-1.1
				c0,0,0.1-0.1,0.2-0.1c0.1-0.1,0.2-0.1,0.3-0.1s0.1-0.1,0.1-0.1s0-0.1-0.1-0.1s-0.1-0.1-0.1-0.1c0.1-0.1,0.1-0.2,0.1-0.2
				c0.3-0.2,0.2-0.4,0.2-0.6c0-0.1,0-0.1,0-0.1c-0.3-0.1-0.2-0.3-0.2-0.5c0-0.1,0-0.3,0.2-0.3v-0.1c0-1.4,0-2.9,0-4.3
				c0-0.1,0.1-0.2,0.2-0.2c0.2,0,0.4-0.1,0.7-0.1c0.1,0,0.2,0,0.2,0.1C6-43.2,6.3-42,6.3-40.7c0.1,0.7,0.4,1.2,0.8,1.8
				c0,0.1,0.1,0.1,0.2,0c0.6-0.8,1-1.6,1.1-2.6c0.1-1,0.3-1.9,0.4-3c0-0.1,0.1-0.1,0.2-0.1c0.3,0,0.5,0,0.8,0l0.1,0.1
				c0.2,1.4,0.3,2.9,0.5,4.3c0,0.2,0.2,0.3,0.2,0.5c0.1,0.2,0,0.3-0.2,0.4c-0.1,0-0.1,0.1-0.1,0.2c-0.1,0.2,0,0.3,0.2,0.4
				c0.1,0,0.2,0.2,0,0.3v0.1c0,0.1,0.1,0.1,0.1,0.1l0,0c0.4,0,0.5,0.2,0.6,0.5c0.2,0.6,0.3,1.1,0.5,1.7c0.2,0.7,0.4,1.3,0.6,2
				c0.2,0.6,0.3,1.2,0.4,1.8c0,0.1-0.1,0.3-0.1,0.4c-0.1,0.1,0,0.2,0.1,0.2c0.2,0,0.4,0.1,0.6,0.1l0.1,0.1c0.1,1.3,0.2,2.7,0.3,4
				c0.1,0.8,0.2,1.6,0.3,2.5c0,0.1,0.1,0.2,0.1,0.3c0,0.2,0.1,0.4,0,0.7c-0.2,0.2,0,0.5,0,0.8c0.1,0.3,0.1,0.6,0.1,0.9
				c0,0.1-0.1,0.1-0.1,0.2c0,0.2,0.1,0.3,0.1,0.4c0,0.1,0.1,0.2,0.1,0.2c-0.2,0.4-0.1,0.7,0.1,1c0,0.1-0.1,0.1-0.1,0.2
				s-0.1,0.1-0.1,0.2c0,0.4,0,0.9,0,1.3c0.1,1.4,0,2.8,0.2,4.2c0.2,1.7,0.3,3.4,0.4,5.1c0,0.4,0.1,0.9,0.1,1.4c0,0.2,0,0.5,0,0.7
				c0.1,1.4,0.1,2.9,0.1,4.3C15.3-2.2,15.3-1.7,14.9-1z M9-8.5c0-1,0-2-0.1-3.1c-0.1-0.8-0.2-1.6-0.3-2.5c-0.1-1-0.3-1.9-0.6-2.9
				c-0.2-0.5-0.3-1.1-0.5-1.6c0-0.2-0.1-0.3-0.1-0.5l0,0c-0.1,0.4-0.2,0.8-0.3,1.2c-0.2,0.5-0.3,1.1-0.5,1.6
				c-0.2,0.6-0.6,1.2-0.9,1.8c-0.1,0.1,0,0.1,0,0.2c0.2,0.3,0.5,0.5,0.7,0.8c0.6,0.9,1.1,1.8,1.4,2.8C7.9-10,8.1-9.6,8.3-9.1
				c0.1,0.5,0.3,0.9,0.5,1.4c0,0.1,0.1,0.1,0.1,0.2C8.9-7.9,8.9-8.2,9-8.5z"/>
			<path class="st1" d="M10.2-30.6h2.7v4.5l0,0C12-27.6,11.2-29.2,10.2-30.6z"/>
			<circle cx="12.1" cy="-29.5" r="0.4"/>
			<rect x="5.4" y="-36.8" class="st1" width="4.6" height="1.3"/>
			<circle class="st1" cx="9.5" cy="-39.1" r="0.4"/>
		</g>
		<g>
			<path d="M49-52c0,0.1-0.1,0.3-0.3,0.3c-0.5,0.1-1,0.3-1.5,0.4c-0.8,0.1-1.7,0.2-2.6,0.3l0,0c-0.4,0-0.7,0-1-0.1
				c-0.2,0-0.4-0.1-0.6-0.2v-0.1c0-0.6-0.1-1.2-0.1-1.8c0-0.1,0-0.1,0-0.1c-0.1,0-0.1,0-0.1,0c-0.6,0.5-1.3,0.6-2.2,0.7
				c-0.4,0-0.9,0.1-1.3,0.1c-0.3,0-0.5,0-0.7,0c-0.1,0-0.1-0.1-0.1-0.1c-0.5-1.5-1-3-1.7-4.4c-0.6-1.3-1-2.6-1.5-3.9
				c-0.1-0.4-0.3-0.8-0.5-1.2c-0.3-0.8-0.5-1.6-0.5-2.5c0-1.2-0.1-2.6-0.1-3.8c0-0.9,0-1.8,0-2.7c0-0.8,0-1.7,0.1-2.6
				c0.1-0.4,0.2-0.7,0.3-1.1c0.1-0.3,0.2-0.7,0.2-1c0.1-1.1,0.2-2.3,0.3-3.5c0-0.7,0-1.4,0-2.3c0-0.2,0-0.4,0.1-0.5
				c0-0.1,0.1-0.3,0.3-0.3c0.5,0,0.5-0.1,0.6-0.5c0-0.6,0.1-1.1,0.3-1.7c0.3-1,0.7-1.9,1.1-2.9c0.2-0.4,0.4-0.7,0.6-1.1
				c0,0,0.1-0.1,0.2-0.1c0.1-0.1,0.2-0.1,0.3-0.1s0.1-0.1,0.1-0.1s0-0.1-0.1-0.1s-0.1-0.1-0.1-0.1c0.1-0.1,0.1-0.2,0.1-0.2
				c0.3-0.2,0.2-0.4,0.2-0.6c0-0.1,0-0.1,0-0.1c-0.3-0.1-0.2-0.3-0.2-0.5c0-0.1,0-0.3,0.2-0.3V-91c0-1.4,0-2.9,0-4.3
				c0-0.1,0.1-0.2,0.2-0.2c0.2,0,0.4-0.1,0.7-0.1c0.1,0,0.2,0,0.2,0.1c0.2,1.2,0.5,2.5,0.5,3.7c0.1,0.7,0.4,1.2,0.8,1.8
				c0,0.1,0.1,0.1,0.2,0c0.6-0.8,1-1.6,1.1-2.6c0.1-1,0.3-1.9,0.4-3c0-0.1,0.1-0.1,0.2-0.1c0.3,0,0.5,0,0.8,0l0.1,0.1
				c0.2,1.4,0.3,2.9,0.5,4.3c0,0.2,0.2,0.3,0.2,0.5c0.1,0.2,0,0.3-0.2,0.4c-0.1,0-0.1,0.1-0.1,0.2c-0.1,0.2,0,0.3,0.2,0.4
				c0.1,0,0.2,0.2,0,0.3v0.1c0,0.1,0.1,0.1,0.1,0.1l0,0c0.4,0,0.5,0.2,0.6,0.5c0.2,0.6,0.3,1.1,0.5,1.7c0.2,0.7,0.4,1.3,0.6,2
				c0.2,0.6,0.3,1.2,0.4,1.8c0,0.1-0.1,0.3-0.1,0.4c-0.1,0.1,0,0.2,0.1,0.2c0.2,0,0.4,0.1,0.6,0.1l0.1,0.1c0.1,1.3,0.2,2.7,0.3,4
				c0.1,0.8,0.2,1.6,0.3,2.5c0,0.1,0.1,0.2,0.1,0.3c0,0.2,0.1,0.4,0,0.7c-0.2,0.2,0,0.5,0,0.8c0.1,0.3,0.1,0.6,0.1,0.9
				c0,0.1-0.1,0.1-0.1,0.2c0,0.2,0.1,0.3,0.1,0.4s0.1,0.2,0.1,0.2c-0.2,0.4-0.1,0.7,0.1,1c0,0.1-0.1,0.1-0.1,0.2s-0.1,0.1-0.1,0.2
				c0,0.4,0,0.9,0,1.3c0.1,1.4,0,2.8,0.2,4.2c0.2,1.7,0.3,3.4,0.4,5.1c0,0.4,0.1,0.9,0.1,1.4c0,0.2,0,0.5,0,0.7
				c0.1,1.4,0.1,2.9,0.1,4.3C49.3-53.2,49.3-52.8,49-52z M43-59.5c0-1,0-2-0.1-3.1c-0.1-0.8-0.2-1.6-0.3-2.5c-0.1-1-0.3-1.9-0.6-2.9
				c-0.2-0.5-0.3-1.1-0.5-1.6c0-0.2-0.1-0.3-0.1-0.5l0,0c-0.1,0.4-0.2,0.8-0.3,1.2c-0.2,0.5-0.3,1.1-0.5,1.6
				c-0.2,0.6-0.6,1.2-0.9,1.8c-0.1,0.1,0,0.1,0,0.2c0.2,0.3,0.5,0.5,0.7,0.8c0.6,0.9,1.1,1.8,1.4,2.8c0.1,0.5,0.3,0.9,0.5,1.4
				c0.1,0.5,0.3,0.9,0.5,1.4c0,0.1,0.1,0.1,0.1,0.2C42.9-58.9,42.9-59.2,43-59.5z"/>
			<path class="st1" d="M44.3-81.6h2.7v4.5l0,0C46-78.7,45.2-80.2,44.3-81.6z"/>
			<path class="st1" d="M38.9-81.6h-2.7v4.5l0,0C37.1-78.7,38-80.2,38.9-81.6z"/>
			<rect x="45.1" y="-73.8" class="st1" width="3.4" height="1.2"/>
			<circle cx="37.2" cy="-80.4" r="0.4"/>
			<circle cx="46.1" cy="-80.5" r="0.4"/>
			<rect x="39.4" y="-87.8" class="st1" width="4.6" height="1.3"/>
			<circle class="st1" cx="39.9" cy="-90.1" r="0.4"/>
			<circle class="st1" cx="43.5" cy="-90.1" r="0.4"/>
		</g>
		<g>
			<path d="M83-103.1c0,0.1-0.1,0.3-0.3,0.3c-0.5,0.1-1,0.3-1.5,0.4c-0.8,0.1-1.7,0.2-2.6,0.3l0,0c-0.4,0-0.7,0-1-0.1
				c-0.2,0-0.4-0.1-0.6-0.2v-0.1c0-0.6-0.1-1.2-0.1-1.8c0-0.1,0-0.1,0-0.1c-0.1,0-0.1,0-0.1,0c-0.6,0.5-1.3,0.6-2.2,0.7
				c-0.4,0-0.9,0.1-1.3,0.1c-0.3,0-0.5,0-0.7,0c-0.1,0-0.1-0.1-0.1-0.1c-0.5-1.5-1-3-1.7-4.4c-0.6-1.3-1-2.6-1.5-3.9
				c-0.1-0.4-0.3-0.8-0.5-1.2c-0.3-0.8-0.5-1.6-0.5-2.5c0-1.2-0.1-2.6-0.1-3.8c0-0.9,0-1.8,0-2.7c0-0.8,0-1.7,0.1-2.6
				c0.1-0.4,0.2-0.7,0.3-1.1c0.1-0.3,0.2-0.7,0.2-1c0.1-1.1,0.2-2.3,0.3-3.5c0-0.7,0-1.4,0-2.3c0-0.2,0-0.4,0.1-0.5
				c0-0.1,0.1-0.3,0.3-0.3c0.5,0,0.5-0.1,0.6-0.5c0-0.6,0.1-1.1,0.3-1.7c0.3-1,0.7-1.9,1.1-2.9c0.2-0.4,0.4-0.7,0.6-1.1
				c0,0,0.1-0.1,0.2-0.1c0.1-0.1,0.2-0.1,0.3-0.1s0.1-0.1,0.1-0.1s0-0.1-0.1-0.1s-0.1-0.1-0.1-0.1c0.1-0.1,0.1-0.2,0.1-0.2
				c0.3-0.2,0.2-0.4,0.2-0.6c0-0.1,0-0.1,0-0.1c-0.3-0.1-0.2-0.3-0.2-0.5c0-0.1,0-0.3,0.2-0.3v-0.1c0-1.4,0-2.9,0-4.3
				c0-0.1,0.1-0.2,0.2-0.2c0.2,0,0.4-0.1,0.7-0.1c0.1,0,0.2,0,0.2,0.1c0.2,1.2,0.5,2.5,0.5,3.7c0.1,0.7,0.4,1.2,0.8,1.8
				c0,0.1,0.1,0.1,0.2,0c0.6-0.8,1-1.6,1.1-2.6c0.1-1,0.3-1.9,0.4-3c0-0.1,0.1-0.1,0.2-0.1c0.3,0,0.5,0,0.8,0l0.1,0.1
				c0.2,1.4,0.3,2.9,0.5,4.3c0,0.2,0.2,0.3,0.2,0.5c0.1,0.2,0,0.3-0.2,0.4c-0.1,0-0.1,0.1-0.1,0.2c-0.1,0.2,0,0.3,0.2,0.4
				c0.1,0,0.2,0.2,0,0.3v0.1c0,0.1,0.1,0.1,0.1,0.1l0,0c0.4,0,0.5,0.2,0.6,0.5c0.2,0.6,0.3,1.1,0.5,1.7c0.2,0.7,0.4,1.3,0.6,2
				c0.2,0.6,0.3,1.2,0.4,1.8c0,0.1-0.1,0.3-0.1,0.4c-0.1,0.1,0,0.2,0.1,0.2c0.2,0,0.4,0.1,0.6,0.1l0.1,0.1c0.1,1.3,0.2,2.7,0.3,4
				c0.1,0.8,0.2,1.6,0.3,2.5c0,0.1,0.1,0.2,0.1,0.3c0,0.2,0.1,0.4,0,0.7c-0.2,0.2,0,0.5,0,0.8c0.1,0.3,0.1,0.6,0.1,0.9
				c0,0.1-0.1,0.1-0.1,0.2c0,0.2,0.1,0.3,0.1,0.4c0,0.1,0.1,0.2,0.1,0.2c-0.2,0.4-0.1,0.7,0.1,1c0,0.1-0.1,0.1-0.1,0.2
				c0,0.1-0.1,0.1-0.1,0.2c0,0.4,0,0.9,0,1.3c0.1,1.4,0,2.8,0.2,4.2c0.2,1.7,0.3,3.4,0.4,5.1c0,0.4,0.1,0.9,0.1,1.4
				c0,0.2,0,0.5,0,0.7c0.1,1.4,0.1,2.9,0.1,4.3C83.3-104.2,83.3-103.8,83-103.1z M77-110.5c0-1,0-2-0.1-3.1
				c-0.1-0.8-0.2-1.6-0.3-2.5c-0.1-1-0.3-1.9-0.6-2.9c-0.2-0.5-0.3-1.1-0.5-1.6c0-0.2-0.1-0.3-0.1-0.5l0,0c-0.1,0.4-0.2,0.8-0.3,1.2
				c-0.2,0.5-0.3,1.1-0.5,1.6c-0.2,0.6-0.6,1.2-0.9,1.8c-0.1,0.1,0,0.1,0,0.2c0.2,0.3,0.5,0.5,0.7,0.8c0.6,0.9,1.1,1.8,1.4,2.8
				c0.1,0.5,0.3,0.9,0.5,1.4c0.1,0.5,0.3,0.9,0.5,1.4c0,0.1,0.1,0.1,0.1,0.2C76.9-109.9,76.9-110.2,77-110.5z"/>
			<path class="st1" d="M72.9-132.7h-2.7v4.5l0,0C71.1-129.7,72-131.2,72.9-132.7z"/>
		</g>
		<g>
			<path d="M14.9-103.1c0,0.1-0.1,0.3-0.3,0.3c-0.5,0.1-1,0.3-1.5,0.4c-0.8,0.1-1.7,0.2-2.6,0.3l0,0c-0.4,0-0.7,0-1-0.1
				c-0.2,0-0.4-0.1-0.6-0.2v-0.1c0-0.6-0.1-1.2-0.1-1.8c0-0.1,0-0.1,0-0.1c-0.1,0-0.1,0-0.1,0c-0.6,0.5-1.3,0.6-2.2,0.7
				c-0.4,0-0.9,0.1-1.3,0.1c-0.3,0-0.5,0-0.7,0c-0.1,0-0.1-0.1-0.1-0.1c-0.5-1.5-1-3-1.7-4.4c-0.6-1.3-1-2.6-1.5-3.9
				c-0.1-0.4-0.3-0.8-0.5-1.2c-0.3-0.8-0.5-1.6-0.5-2.5c0-1.2-0.1-2.6-0.1-3.8c0-0.9,0-1.8,0-2.7c0-0.8,0-1.7,0.1-2.6
				c0.1-0.4,0.2-0.7,0.3-1.1c0.1-0.3,0.2-0.7,0.2-1c0.1-1.1,0.2-2.3,0.3-3.5c0-0.7,0-1.4,0-2.3c0-0.2,0-0.4,0.1-0.5
				c0-0.1,0.1-0.3,0.3-0.3c0.5,0,0.5-0.1,0.6-0.5c0-0.6,0.1-1.1,0.3-1.7c0.3-1,0.7-1.9,1.1-2.9c0.2-0.4,0.4-0.7,0.6-1.1
				c0,0,0.1-0.1,0.2-0.1c0.1-0.1,0.2-0.1,0.3-0.1s0.1-0.1,0.1-0.1s0-0.1-0.1-0.1s-0.1-0.1-0.1-0.1c0.1-0.1,0.1-0.2,0.1-0.2
				c0.3-0.2,0.2-0.4,0.2-0.6c0-0.1,0-0.1,0-0.1c-0.3-0.1-0.2-0.3-0.2-0.5c0-0.1,0-0.3,0.2-0.3v-0.1c0-1.4,0-2.9,0-4.3
				c0-0.1,0.1-0.2,0.2-0.2c0.2,0,0.4-0.1,0.7-0.1c0.1,0,0.2,0,0.2,0.1c0.2,1.2,0.5,2.5,0.5,3.7c0.1,0.7,0.4,1.2,0.8,1.8
				c0,0.1,0.1,0.1,0.2,0c0.6-0.8,1-1.6,1.1-2.6c0.1-1,0.3-1.9,0.4-3c0-0.1,0.1-0.1,0.2-0.1c0.3,0,0.5,0,0.8,0l0.1,0.1
				c0.2,1.4,0.3,2.9,0.5,4.3c0,0.2,0.2,0.3,0.2,0.5c0.1,0.2,0,0.3-0.2,0.4c-0.1,0-0.1,0.1-0.1,0.2c-0.1,0.2,0,0.3,0.2,0.4
				c0.1,0,0.2,0.2,0,0.3v0.1c0,0.1,0.1,0.1,0.1,0.1l0,0c0.4,0,0.5,0.2,0.6,0.5c0.2,0.6,0.3,1.1,0.5,1.7c0.2,0.7,0.4,1.3,0.6,2
				c0.2,0.6,0.3,1.2,0.4,1.8c0,0.1-0.1,0.3-0.1,0.4c-0.1,0.1,0,0.2,0.1,0.2c0.2,0,0.4,0.1,0.6,0.1l0.1,0.1c0.1,1.3,0.2,2.7,0.3,4
				c0.1,0.8,0.2,1.6,0.3,2.5c0,0.1,0.1,0.2,0.1,0.3c0,0.2,0.1,0.4,0,0.7c-0.2,0.2,0,0.5,0,0.8c0.1,0.3,0.1,0.6,0.1,0.9
				c0,0.1-0.1,0.1-0.1,0.2c0,0.2,0.1,0.3,0.1,0.4c0,0.1,0.1,0.2,0.1,0.2c-0.2,0.4-0.1,0.7,0.1,1c0,0.1-0.1,0.1-0.1,0.2
				c0,0.1-0.1,0.1-0.1,0.2c0,0.4,0,0.9,0,1.3c0.1,1.4,0,2.8,0.2,4.2c0.2,1.7,0.3,3.4,0.4,5.1c0,0.4,0.1,0.9,0.1,1.4
				c0,0.2,0,0.5,0,0.7c0.1,1.4,0.1,2.9,0.1,4.3C15.3-104.2,15.3-103.8,14.9-103.1z M9-110.5c0-1,0-2-0.1-3.1
				c-0.1-0.8-0.2-1.6-0.3-2.5c-0.1-1-0.3-1.9-0.6-2.9c-0.2-0.5-0.3-1.1-0.5-1.6c0-0.2-0.1-0.3-0.1-0.5l0,0c-0.1,0.4-0.2,0.8-0.3,1.2
				c-0.2,0.5-0.3,1.1-0.5,1.6c-0.2,0.6-0.6,1.2-0.9,1.8c-0.1,0.1,0,0.1,0,0.2c0.2,0.3,0.5,0.5,0.7,0.8c0.6,0.9,1.1,1.8,1.4,2.8
				c0.1,0.5,0.3,0.9,0.5,1.4c0.1,0.5,0.3,0.9,0.5,1.4c0,0.1,0.1,0.1,0.1,0.2C8.9-109.9,8.9-110.2,9-110.5z"/>
			<path class="st1" d="M10.2-132.7h2.7v4.5l0,0C12-129.7,11.2-131.2,10.2-132.7z"/>
			<rect x="11.1" y="-124.8" class="st1" width="3.4" height="1.2"/>
		</g>
	</g>
</pattern>
<pattern  id="SVGID_1_" xlink:href="#New_Pattern_2" patternTransform="matrix(1 0 0 1 12.4409 -19.5591)">
</pattern>
<rect x="0" y="0" class="st2" width="356.2" height="1096.6"/>
<g>
	<path d="M65.8-59.3c0-1.8,0-3.6-0.1-5.5c0-0.3,0-0.7,0-0.9c0-0.7-0.1-1.3-0.1-1.8c-0.1-2.2-0.3-4.3-0.5-6.5
		c-0.3-1.8-0.1-3.5-0.3-5.3c0-0.5,0-1.2,0-1.7c0-0.1,0.1-0.1,0.1-0.3s0.1-0.1,0.1-0.3c-0.3-0.4-0.4-0.8-0.1-1.3c0,0-0.1-0.1-0.1-0.3
		s-0.1-0.3-0.1-0.5c0-0.1,0.1-0.1,0.1-0.3c0-0.4,0-0.8-0.1-1.2c0-0.4-0.3-0.8,0-1c0.1-0.4,0-0.7,0-0.9c0-0.1-0.1-0.3-0.1-0.4
		c-0.1-1-0.3-2.1-0.4-3.1c-0.1-1.7-0.3-3.4-0.4-5.1l-0.1-0.1c-0.3,0-0.5-0.1-0.8-0.1c-0.1,0-0.3-0.1-0.1-0.3c0-0.1,0.1-0.4,0.1-0.5
		c-0.1-0.8-0.3-1.6-0.5-2.3c-0.3-0.9-0.5-1.7-0.8-2.6c-0.3-0.8-0.4-1.4-0.7-2.2c-0.1-0.4-0.3-0.7-0.8-0.7l0,0c0,0-0.1,0-0.1-0.1
		v-0.1c0.3-0.1,0.1-0.4,0-0.4c-0.3-0.1-0.4-0.3-0.3-0.5c0-0.1,0-0.3,0.1-0.3c0.3-0.1,0.4-0.3,0.3-0.5c0-0.3-0.3-0.4-0.3-0.7
		c-0.3-1.8-0.4-3.6-0.7-5.5l-0.1-0.1c-0.4,0-0.7,0-1,0c-0.1,0-0.3,0-0.3,0.1c-0.1,1.3-0.4,2.5-0.5,3.8c-0.1,1.2-0.7,2.2-1.4,3.3
		c-0.1,0.1-0.3,0.1-0.3,0c-0.5-0.8-0.9-1.4-1-2.3c0-1.6-0.4-3.1-0.7-4.7c0-0.1-0.1-0.1-0.3-0.1c-0.4,0-0.7,0.1-0.9,0.1
		c-0.1,0-0.3,0.1-0.3,0.3c0,1.8,0,3.6,0,5.5v0.1c-0.3,0-0.3,0.3-0.3,0.4c0,0.3-0.1,0.5,0.3,0.7c0,0,0,0,0,0.1c0,0.3,0.1,0.5-0.3,0.8
		c0,0,0,0.1-0.1,0.3c0,0,0,0.1,0.1,0.1c0.1,0,0.1,0.1,0.1,0.1s0,0.1-0.1,0.1c-0.1,0-0.3,0-0.4,0.1c-0.1,0-0.3,0.1-0.3,0.1
		c-0.3,0.5-0.5,0.9-0.8,1.4c-0.5,1.2-1,2.3-1.4,3.6c-0.3,0.8-0.4,1.4-0.4,2.2c-0.1,0.5-0.1,0.7-0.8,0.7c-0.3,0-0.4,0.3-0.4,0.4
		c-0.1,0.1-0.1,0.4-0.1,0.7c0,1,0,2,0,2.9c-0.1,1.6-0.3,3-0.4,4.4c0,0.4-0.1,0.9-0.3,1.3c-0.1,0.5-0.3,0.9-0.4,1.4
		c-0.1,1-0.1,2.2-0.1,3.3s0,2.2,0,3.4c0,1.6,0.1,3.3,0.1,4.8c0,1,0.3,2.1,0.7,3.1c0.3,0.5,0.5,1,0.7,1.6c0.7,1.7,1.2,3.3,2,5
		c0.9,1.8,1.6,3.6,2.2,5.6c0,0,0,0.1,0.1,0.1c0.3,0,0.5,0,0.9,0c0.5,0,1.2-0.1,1.7-0.1c1-0.1,2-0.3,2.7-0.9c0,0,0,0,0.1,0
		c0,0,0,0,0,0.1c0,0.8,0.1,1.6,0.1,2.3v0.1c0.3,0.1,0.5,0.3,0.8,0.3c0.4,0.1,0.8,0.1,1.3,0.1l0,0c1-0.1,2.2-0.3,3.3-0.4
		c0.7-0.1,1.3-0.4,2-0.5c0.3,0,0.4-0.3,0.4-0.4C65.8-58.2,65.8-58.8,65.8-59.3z M57.7-65.5c0-0.1-0.1-0.1-0.1-0.3
		c-0.3-0.7-0.5-1.2-0.7-1.8c-0.3-0.7-0.5-1.2-0.7-1.8c-0.4-1.2-1-2.3-1.8-3.5c-0.3-0.4-0.7-0.7-0.9-1c0-0.1-0.1-0.1,0-0.3
		c0.4-0.8,0.9-1.6,1.2-2.3c0.3-0.7,0.4-1.4,0.7-2.1c0.1-0.5,0.3-1,0.4-1.6l0,0c0,0.3,0.1,0.4,0.1,0.7c0.3,0.7,0.4,1.4,0.7,2.1
		c0.4,1.2,0.7,2.3,0.8,3.6c0.1,1,0.3,2.1,0.4,3.1c0.1,1.3,0.1,2.6,0.1,3.9C57.7-66.4,57.7-66.1,57.7-65.5z"/>
	<path class="st1" d="M62.8-89.2L62.8-89.2V-95h-3.4C60.6-93.2,61.6-91.2,62.8-89.2z"/>
	<path class="st1" d="M49.3-89.2L49.3-89.2V-95h3.4C51.5-93.2,50.3-91.2,49.3-89.2z"/>
	<rect x="60.5" y="-84.9" class="st1" width="4.3" height="1.6"/>
	<circle cx="50.4" cy="-93.4" r="0.5"/>
	<circle cx="61.8" cy="-93.5" r="0.5"/>
	<rect x="53.3" y="-102.8" class="st1" width="5.9" height="1.7"/>
	<circle class="st1" cx="53.8" cy="-105.8" r="0.5"/>
	<circle class="st1" cx="58.5" cy="-105.8" r="0.5"/>
</g>
<g>
	<g>
		<path d="M125.5-135.2c-0.1,0.4-0.1,0.8-0.2,1.2c-0.1,0.7-0.3,1.3-0.5,2c-0.1,0.5-0.1,1-0.2,1.6c0,0.6-0.1,1.2-0.1,1.8
			c-1.2,0.3-2.4,0-3.5-0.3c-0.5-0.1-0.9-0.3-1.3-0.5c-0.1,0-0.1-0.2-0.1-0.3c0.1-0.5,0.2-0.9,0.3-1.4c0-0.2,0.1-0.3,0.1-0.5
			c0-0.8,0.1-1.7,0.2-2.5c0-0.4,0.1-0.8,0.3-1.2c0.1-0.1,0.1-0.3,0.1-0.5c0-0.4,0-0.8,0.1-1.2c0.1-0.6,0.1-1.2,0.2-1.7
			c0.1-0.8,0.3-1.5,0.5-2.2c0.1-0.6,0.2-1.1,0.3-1.7c0-0.2,0.1-0.3,0.3-0.2c1.2,0.3,2.5,0.3,3.7,0.3s2.5-0.2,3.8-0.3
			c0.4,0,0.4,0,0.5,0.4s0.1,0.8,0.3,1.2c0.1,0.3,0.1,0.7,0.2,1c0.1,0.6,0.2,1.1,0.3,1.7c0.1,0.9,0.2,1.8,0.3,2.7
			c0,0.3,0.1,0.5,0.2,0.8c0,0.1,0,0.1,0,0.1c-0.2,0.2-0.1,0.3,0,0.5c0,0.2,0.1,0.5,0.2,0.7c0,0.1,0,0.1,0,0.2c-0.1,0.5,0,1,0,1.5
			c0,0.6,0.1,1.3,0.1,1.9c0,0.2,0,0.3,0.1,0.5s-0.1,0.3-0.2,0.3c-0.1,0-0.3,0.1-0.4,0.2c-0.4,0.3-0.9,0.3-1.4,0.3
			c-0.7,0.1-1.4,0.1-2,0.1c-0.3,0-0.6,0-0.9,0c-0.2,0-0.3-0.1-0.3-0.4c-0.1-1.3-0.1-2.5-0.3-3.7
			C125.8-133.6,125.7-134.4,125.5-135.2L125.5-135.2z"/>
	</g>
	<path class="st1" d="M130.6-138.5L130.6-138.5l-0.7-3.2l-1.9,0.4C128.8-140.4,129.7-139.5,130.6-138.5z"/>
	<path class="st1" d="M121-138.5L121-138.5l0.6-3.2l1.9,0.4C122.7-140.4,121.8-139.5,121-138.5z"/>
	
		<rect x="128.6" y="-134.3" transform="matrix(0.9671 -0.2545 0.2545 0.9671 38.3379 28.6391)" class="st1" width="2.5" height="0.9"/>
	<circle cx="122" cy="-140.6" r="0.3"/>
	<circle cx="129.5" cy="-140.6" r="0.3"/>
</g>
<linearGradient id="SVGID_2_" gradientUnits="userSpaceOnUse" x1="-69.9736" y1="125.17" x2="219.1368" y2="125.17">
	<stop  offset="0" style="stop-color:#00FF66"/>
	<stop  offset="1" style="stop-color:#FF90FF"/>
</linearGradient>
<path class="st3" d="M177.2,148.4c-1.1,23.8-20.7,43.1-44.5,43.8c-4.8,0.2-9.5-0.4-13.9-1.7c-10-2.8-20.5-0.1-28.2,6.8
	c-5.9,5.3-14,8.3-22.8,7.4c-13.8-1.4-24.8-12.6-26.1-26.4c-0.3-3.2-0.1-6.3,0.6-9.2c2.2-10-0.4-20.6-6.7-28.6
	c-7.9-10-12.6-22.7-12.6-36.4c0-32.5,26.3-58.8,58.8-58.8c26.9,0,49.6,18,56.6,42.7c2.1,7.3,7,13.6,13.8,17
	C167.6,113,178.1,129.5,177.2,148.4z"/>
<linearGradient id="SVGID_3_" gradientUnits="userSpaceOnUse" x1="241.7479" y1="464.9768" x2="252.4783" y2="414.3166">
	<stop  offset="0" style="stop-color:#00FF66"/>
	<stop  offset="1" style="stop-color:#FF90FF"/>
</linearGradient>
<path class="st4" d="M268.3,433.5c-0.4,0.8-0.9,1.5-1.5,2.2c-2.4,2.8-3.8,6.6-3.7,10.3c0.1,3.1-0.6,6.3-2.2,9.2
	c-4.9,9.1-16.2,12.6-25.3,7.7c-9.1-4.9-12.6-16.2-7.7-25.3c2.5-4.7,6.7-7.8,11.4-9.2c3.3-0.9,6-3.1,7.6-6.2c0-0.1,0.1-0.1,0.1-0.2
	c3.1-5.9,10.5-8.1,16.4-5C269.2,420.2,271.5,427.6,268.3,433.5z"/>
<linearGradient id="SVGID_4_" gradientUnits="userSpaceOnUse" x1="243.7086" y1="48.495" x2="343.7859" y2="48.495">
	<stop  offset="0" style="stop-color:#00FF66"/>
	<stop  offset="1" style="stop-color:#FF90FF"/>
</linearGradient>
<path class="st5" d="M329.3,51.9c-0.3,6.2-5.5,11.4-11.7,11.6c-0.9,0-1.8,0-2.6-0.2c-3.9-0.7-7.9-0.3-11.4,1.6
	c-3.3,1.8-7.2,2.7-11.3,2.2c-8.5-1-15.4-7.9-16.3-16.5c-1.2-11.3,7.6-20.8,18.6-20.8c2.3,0,4.5,0.4,6.6,1.2c1.9,0.7,3.9,0.5,5.7-0.4
	c1-0.5,2.1-0.8,3.2-0.8c3.9,0,7.1,3.2,7.1,7.1c0,0,0,0,0,0c0,1.5,0.7,2.9,2,3.6C322.9,42.5,329.5,46.9,329.3,51.9z"/>
<linearGradient id="SVGID_5_" gradientUnits="userSpaceOnUse" x1="209.2236" y1="335.9063" x2="358.639" y2="292.8872">
	<stop  offset="0" style="stop-color:#00FF66"/>
	<stop  offset="1" style="stop-color:#FF90FF"/>
</linearGradient>
<path class="st6" d="M351.2,362.6c-0.5,24.2-20.1,44.1-44.3,45c-26.3,1-47.9-20-47.9-46.1c0,0,0-0.1,0-0.1c0-5.5-4.3-9.9-9.8-9.8
	c-0.4,0-0.7,0-1.1,0c-24.2-0.2-44.5-19.5-45.7-43.7c-0.9-17.7,8.2-33.4,22.2-41.9c9-5.5,16.3-13.3,20.9-22.8
	c9-18.9,28.6-31.7,51.1-30.9c28.1,1,51,23.8,52.2,51.9c0.4,9.5-1.7,18.5-5.6,26.5c-7.5,15.1-7,32.9,1.6,47.4
	C349,345.3,351.4,353.7,351.2,362.6z"/>
<g>
	
		<linearGradient id="SVGID_6_" gradientUnits="userSpaceOnUse" x1="-1145.0923" y1="89.9607" x2="404.4731" y2="89.9607" gradientTransform="matrix(1.1031 -0.3176 0.3111 1.4501 -698.1298 -88.191)">
		<stop  offset="0" style="stop-color:#00FF66"/>
		<stop  offset="1" style="stop-color:#FF90FF"/>
	</linearGradient>
	<path class="st7" d="M-456.1,56.7l-10.2-0.7c-11.1-0.8-21.5-6-28.2-14.5c-27.5-34.4-74.6-52-121.2-41.2
		c-28.2,6.6-28.9,48-66.8,43.4C-743.8,36.5-696.8-49-734-76.8c-57.5-43.1-59.3,43.9-132.8,61c-33.9,7.9-66-67.5-131.5,15.8
		c-14.1,18-264.5-90.2-359.5-82.1V372c42.5,7,97.4,30.4,118,110.5c7.4,28.7,33.5,34,58,29.2c29-5.7,46.9-33.1,39.5-60.1
		c-0.5-1.7-1-3.4-1.7-5.1c-5-12.8-3.6-26.8,4.1-38.1c19.4-28.3,26.7-63.9,17.1-99.3c-0.8-2.8-1.6-5.6-2.6-8.3
		c-8.4-24.1-3.9-50.4,10.7-71.4c4.8-6.9,18.8-16.7,26.6-19.7c29.7-11.2,98.6-0.3,104.6,23.3c4.1,16.1-10.5,38.9-6,56.3
		c10.5,40.3,52.5,65.1,95,56.2c43.6-9.2,70.1-50.6,59.1-91.6c-0.5-1.9-1.1-3.7-1.8-5.6c-2.5-6.9,1.4-14.3,8.7-16.6l0.3-0.1
		c11.9-3.7,25-2.5,36,3.3c8.7,4.6,19.3,6.1,29.8,3.4c20.4-5.6,32.6-25.9,27.1-45.5c-0.4-1.5-0.9-2.9-1.5-4.2
		c-4.7-11.3-4.8-23.7,0.4-34.6c0.2-0.5,0.5-0.9,0.7-1.4c2.9-6.2,9.6-10.1,16.7-9.6c13.1,0.9,24.9,8,31.5,18.8
		c5.9,9.6,13.2,18.2,21.6,25.7c12.6,11.2,20.4,26.5,21.5,42.7c0.3,4.6,1.6,13.8,12,18.5c13.7,6.3,30.3,4.4,45.8,4.2
		c16-0.2,32.1-0.7,47.5-6c13.1-4.5,24.3-12.2,32.3-21.9c9.3-11.5,14.2-25,16.6-38.2c3.1-17.2,1.4-34.2,1.5-51.4
		c0-17.2,3-34.1,11.8-50.2C-471.3,75.2-464.5,65.4-456.1,56.7z"/>
</g>
</svg>
