<?xml version="1.0" encoding="utf-8"?>
<!-- Generator: Adobe Illustrator 23.0.2, SVG Export Plug-In . SVG Version: 6.00 Build 0)  -->
<svg version="1.1" id="Layer_1" xmlns="http://www.w3.org/2000/svg" xmlns:xlink="http://www.w3.org/1999/xlink" x="0px" y="0px"
	 viewBox="0 0 1366 1017.2" style="enable-background:new 0 0 1366 1017.2;" xml:space="preserve">
<style type="text/css">
	.st0{fill:none;}
	.st1{clip-path:url(#SVGID_2_);}
	.st2{fill:#231F20;}
	.st3{fill:#FFFFFF;}
	.st4{fill:url(#SVGID_4_);}
	.st5{fill:url(#SVGID_5_);}
</style>
<pattern  y="736" width="91" height="134" patternUnits="userSpaceOnUse" id="SVGID_3_" viewBox="7.4 -162 91 134" style="overflow:visible;">
	<g>
		<rect x="7.4" y="-162" class="st0" width="91" height="134"/>
		<g>
			<rect x="7.4" y="-162" class="st0" width="91" height="134"/>
			<g>
				<g>
					<defs>
						<rect id="SVGID_1_" x="7.4" y="-162" width="91" height="134"/>
					</defs>
					<clipPath id="SVGID_2_">
						<use xlink:href="#SVGID_1_"  style="overflow:visible;"/>
					</clipPath>
					<g class="st1">
						<g>
							<path class="st2" d="M108-1.1c0,0.2-0.1,0.3-0.4,0.4c-0.6,0.1-1.1,0.3-1.7,0.4c-1,0.1-1.9,0.2-2.9,0.3l0,0
								c-0.4-0.1-0.7-0.1-1.1-0.2c-0.2-0.1-0.5-0.1-0.7-0.2l-0.1-0.1c0-0.7-0.1-1.4-0.1-2.1v-0.1h-0.1c-0.7,0.6-1.6,0.7-2.5,0.8
								c-0.5,0.1-1,0.1-1.5,0.2c-0.3,0-0.5,0-0.8,0L96-1.8c-0.6-1.7-1.2-3.3-2-4.9c-0.7-1.4-1.2-2.9-1.7-4.3
								c-0.2-0.5-0.4-0.9-0.6-1.4c-0.4-0.9-0.5-1.8-0.6-2.7C91-16.5,91-18,91-19.4c0-1,0-2,0-2.9c0-1,0.1-1.9,0.2-2.9
								c0-0.4,0.2-0.8,0.3-1.2c0.1-0.4,0.2-0.8,0.2-1.1c0.1-1.3,0.3-2.6,0.3-3.9c0.1-0.9,0-1.7,0.1-2.6c0-0.2,0-0.4,0.1-0.5
								s0.1-0.3,0.4-0.3c0.6,0,0.6,0,0.7-0.5c0.1-0.7,0.2-1.3,0.4-2c0.3-1.1,0.8-2.1,1.2-3.2c0.2-0.4,0.4-0.9,0.7-1.3
								c0,0,0.1-0.1,0.2-0.1s0.2,0,0.3-0.1c0.1,0,0.1-0.1,0.1-0.1s-0.1,0-0.1-0.1S96-42.3,96-42.3c0-0.1,0-0.2,0.1-0.2
								c0.4-0.2,0.3-0.4,0.2-0.7c0,0,0,0,0-0.1c-0.4-0.1-0.3-0.3-0.2-0.6c0-0.1,0-0.3,0.2-0.4v-0.1c0-1.6,0-3.2,0.1-4.8
								c0-0.1,0-0.2,0.2-0.2c0.3,0,0.6-0.1,0.8-0.1c0.1,0,0.2,0.1,0.2,0.1c0.3,1.4,0.6,2.8,0.6,4.2c0,0.8,0.4,1.4,0.9,2
								c0.1,0.1,0.2,0.1,0.3,0c0.7-0.9,1.2-1.8,1.3-2.9c0.1-1.1,0.3-2.2,0.4-3.3c0-0.1,0.1-0.2,0.2-0.2c0.3,0,0.6,0,0.9,0
								c0.1,0,0.1,0.1,0.1,0.1c0.2,1.6,0.3,3.2,0.5,4.8c0,0.2,0.2,0.4,0.2,0.6c0.1,0.2,0,0.4-0.2,0.4c-0.1,0-0.1,0.1-0.1,0.2
								c-0.1,0.2,0,0.4,0.2,0.5s0.2,0.2,0,0.3v0.1l0.1,0.1l0,0c0.5,0,0.6,0.2,0.7,0.6c0.2,0.7,0.3,1.3,0.6,2
								c0.2,0.8,0.5,1.5,0.7,2.3c0.2,0.7,0.3,1.4,0.5,2.1c0,0.1,0,0.3-0.1,0.4c0,0.1,0,0.2,0.1,0.2c0.2,0,0.4,0.1,0.7,0.1
								c0.1,0,0.1,0.1,0.1,0.1c0.1,1.5,0.2,3,0.4,4.6c0.1,0.9,0.2,1.8,0.3,2.7c0,0.1,0.2,0.2,0.2,0.3c0,0.3,0.1,0.5,0,0.8
								c-0.1,0.2,0,0.6,0.1,0.9c0,0.4,0.1,0.7,0.1,1.1c0,0.1-0.1,0.2-0.1,0.3s0.1,0.3,0.1,0.4c0,0.1,0.1,0.1,0.1,0.2
								c-0.1,0.4,0,0.8,0.2,1.1c0,0.1,0,0.1-0.1,0.2s-0.2,0.2-0.2,0.2c0,0.5,0,1,0,1.5c0,1.6,0,3.1,0.2,4.7c0.2,1.9,0.3,3.8,0.4,5.7
								c0,0.6,0.1,1.1,0.1,1.7c0,0.3,0,0.6,0,0.8c0,1.6,0,3.2,0.1,4.8C108-2,108-1.6,108-1.1z M100.8-9.2c0-1.1-0.1-2.3-0.1-3.4
								c-0.1-0.9-0.2-1.9-0.3-2.8c-0.1-1.1-0.4-2.1-0.7-3.2c-0.2-0.6-0.4-1.2-0.6-1.8C99-20.6,99-20.8,99-21l0,0
								c-0.1,0.5-0.2,0.9-0.3,1.4c-0.2,0.6-0.3,1.3-0.5,1.8c-0.3,0.7-0.7,1.4-1.1,2.1c0,0.1,0,0.1,0.1,0.2c0.3,0.3,0.6,0.6,0.8,0.9
								c0.6,1,1.2,2,1.6,3.1c0.2,0.6,0.4,1.1,0.6,1.6s0.4,1.1,0.6,1.6c0,0.1,0.1,0.1,0.1,0.2C100.8-8.5,100.8-8.8,100.8-9.2z"/>
							<path class="st3" d="M93.3-29L93.3-29v-5h3C95.3-32.4,94.3-30.7,93.3-29z"/>
							<circle class="st2" cx="94.4" cy="-32.6" r="0.5"/>
							<rect x="96.9" y="-40.9" class="st3" width="5.2" height="1.5"/>
							<circle class="st3" cx="97.4" cy="-43.6" r="0.5"/>
						</g>
						<g>
							<path class="st2" d="M17-1.1c0,0.2-0.1,0.3-0.4,0.4c-0.6,0.1-1.1,0.3-1.7,0.4c-1,0.1-2,0.2-2.9,0.3c0,0,0,0,0-0.1
								c-0.4-0.1-0.7-0.1-1.1-0.1c-0.2-0.1-0.5-0.1-0.7-0.2l-0.1-0.1c0-0.7-0.1-1.4-0.1-2.1v-0.1c0,0,0,0-0.1,0
								C9.2-2.1,8.3-2,7.4-1.9c-0.5,0.1-1,0.1-1.5,0.2c-0.3,0-0.5,0-0.8,0c0,0-0.1,0-0.1-0.1C4.4-3.5,3.8-5.1,3-6.7
								C2.3-8.1,1.8-9.6,1.3-11c-0.2-0.5-0.4-0.9-0.6-1.4c-0.4-0.9-0.5-1.8-0.6-2.7C0-16.5,0-18,0-19.4c0-1,0-2,0-2.9
								c0-1,0.1-1.9,0.2-2.9c0-0.4,0.2-0.8,0.3-1.2s0.2-0.8,0.2-1.1c0.1-1.3,0.3-2.6,0.3-4c0.1-0.9,0-1.7,0.1-2.6
								c0-0.2,0-0.4,0.1-0.5s0.1-0.3,0.4-0.3c0.6,0,0.6,0,0.6-0.5c0.1-0.6,0.2-1.3,0.4-1.9c0.3-1.1,0.8-2.1,1.2-3.2
								c0.2-0.4,0.4-0.9,0.7-1.3c0-0.1,0.1-0.1,0.2-0.1s0.2,0,0.3-0.1c0.1,0,0.1-0.1,0.1-0.1S5-42.1,5-42.2s-0.1-0.1-0.1-0.1
								c0-0.1,0-0.2,0.1-0.2c0.4-0.1,0.3-0.4,0.2-0.6v-0.1c-0.4-0.1-0.3-0.3-0.2-0.6c0-0.1,0-0.3,0.2-0.4v-0.1c0-1.6,0-3.2,0.1-4.8
								c0-0.1,0-0.2,0.2-0.2c0.3,0,0.6-0.1,0.8-0.1c0.1,0,0.2,0.1,0.2,0.1c0.3,1.4,0.6,2.8,0.6,4.2c0,0.8,0.4,1.4,0.9,2
								c0.1,0.1,0.2,0.1,0.3,0C9-44,9.5-44.9,9.6-46c0.1-1.1,0.3-2.2,0.4-3.3c0-0.1,0.1-0.2,0.2-0.2c0.3,0,0.6,0,0.9,0
								c0.1,0,0.1,0.1,0.1,0.1c0.2,1.6,0.3,3.2,0.5,4.8c0,0.2,0.2,0.4,0.2,0.6c0.1,0.2,0,0.4-0.2,0.4c-0.1,0-0.1,0.1-0.1,0.2
								c-0.1,0.2,0,0.4,0.2,0.5s0.2,0.2,0,0.3v0.1l0.1,0.1l0,0c0.5,0,0.6,0.2,0.7,0.6c0.2,0.7,0.4,1.3,0.6,2
								c0.2,0.8,0.5,1.5,0.7,2.3c0.2,0.7,0.3,1.4,0.5,2.1c0,0.1,0,0.3-0.1,0.4c0,0.1,0,0.2,0.1,0.2c0.2,0,0.4,0.1,0.7,0.1
								c0.1,0,0.1,0.1,0.1,0.1c0.1,1.5,0.2,3,0.4,4.5c0.1,0.9,0.2,1.8,0.3,2.7c0,0.1,0.2,0.2,0.2,0.3c0,0.3,0.1,0.5,0,0.8
								c-0.1,0.2,0,0.6,0.1,0.9c0,0.4,0.1,0.7,0.1,1.1c0,0.1-0.1,0.2-0.1,0.3s0.1,0.3,0.1,0.4c0,0.1,0.1,0.1,0.1,0.2
								c-0.1,0.4,0,0.8,0.2,1.1c0,0.1,0,0.1-0.1,0.2c0,0.1-0.1,0.2-0.1,0.2c0,0.5,0,1,0,1.5c0,1.6,0,3.1,0.2,4.7
								c0.2,1.9,0.3,3.8,0.5,5.7c0,0.6,0.1,1.1,0.1,1.7c0,0.3,0,0.6,0,0.8c0,1.6,0,3.2,0.1,4.8C17-2,17-1.6,17-1.1z M9.8-9.2
								c0-1.1-0.1-2.3-0.1-3.4c-0.1-0.9-0.2-1.9-0.3-2.8c-0.1-1.1-0.4-2.1-0.7-3.2c-0.2-0.6-0.4-1.2-0.6-1.8C8-20.6,8-20.8,8-21l0,0
								c-0.1,0.5-0.2,0.9-0.3,1.4c-0.2,0.6-0.3,1.3-0.5,1.8c-0.3,0.7-0.7,1.4-1.1,2.1c0,0.1,0,0.1,0.1,0.2c0.3,0.3,0.6,0.6,0.8,0.9
								c0.6,1,1.2,2,1.6,3.1c0.2,0.6,0.4,1.1,0.6,1.6s0.4,1.1,0.6,1.6c0,0,0,0.1,0.1,0.2C9.8-8.5,9.8-8.8,9.8-9.2z"/>
							<path class="st3" d="M14.3-29L14.3-29v-5.1h-3C12.3-32.4,13.3-30.7,14.3-29z"/>
							<circle class="st2" cx="13.4" cy="-32.8" r="0.5"/>
							<rect x="5.9" y="-40.9" class="st3" width="5.2" height="1.5"/>
							<circle class="st3" cx="10.5" cy="-43.6" r="0.5"/>
						</g>
						<g>
							<path class="st2" d="M62.5-68.1c0,0.2-0.1,0.3-0.4,0.4c-0.6,0.1-1.1,0.3-1.7,0.4c-1,0.2-2,0.2-2.9,0.3c0,0,0,0,0-0.1
								c-0.4-0.1-0.7-0.1-1.1-0.2c-0.2-0.1-0.5-0.1-0.7-0.2v-0.1c0-0.7-0.1-1.4-0.1-2.1v-0.1c0,0,0,0-0.1,0
								c-0.7,0.6-1.6,0.7-2.5,0.8c-0.5,0.1-1,0.1-1.5,0.2c-0.3,0-0.5,0-0.8,0l-0.1-0.1c-0.6-1.7-1.2-3.3-2-4.9
								c-0.7-1.4-1.2-2.9-1.7-4.3c-0.2-0.5-0.4-0.9-0.6-1.3c-0.4-0.9-0.5-1.8-0.6-2.7c-0.1-1.4-0.1-2.9-0.1-4.3c0-1,0-2,0-2.9
								c0-1,0.1-1.9,0.2-2.9c0-0.4,0.2-0.8,0.3-1.2c0.1-0.4,0.2-0.8,0.2-1.1c0.1-1.3,0.3-2.6,0.3-3.9c0.1-0.9,0-1.7,0.1-2.6
								c0-0.2,0-0.4,0.1-0.5s0.1-0.3,0.4-0.3c0.6,0,0.6,0,0.7-0.5c0.1-0.7,0.2-1.3,0.4-1.9c0.3-1.1,0.8-2.1,1.2-3.2
								c0.2-0.4,0.4-0.8,0.7-1.3c0-0.1,0.1-0.1,0.2-0.1c0.1,0,0.2,0,0.3-0.1l0.1-0.1c0,0-0.1,0-0.1-0.1s-0.1-0.1-0.1-0.1
								c0-0.1,0-0.2,0.1-0.2c0.4-0.2,0.3-0.4,0.2-0.7v-0.1c-0.4-0.1-0.3-0.3-0.2-0.6c0-0.1,0-0.3,0.2-0.4v-0.1c0-1.6,0-3.2,0-4.8
								c0-0.1,0-0.2,0.2-0.2c0.3,0,0.6-0.1,0.8-0.1c0.1,0,0.2,0.1,0.2,0.1c0.3,1.4,0.5,2.8,0.6,4.2c0,0.8,0.4,1.4,0.9,2
								c0.1,0.1,0.2,0.1,0.3,0c0.7-0.9,1.2-1.8,1.3-2.9s0.3-2.2,0.4-3.3c0-0.1,0.1-0.2,0.2-0.2c0.3,0,0.6,0,0.9,0l0.1,0.1
								c0.2,1.6,0.3,3.2,0.5,4.8c0,0.2,0.2,0.4,0.2,0.6s0,0.4-0.2,0.4c0,0-0.1,0.1-0.1,0.2c0,0.2,0,0.4,0.2,0.5s0.2,0.2,0,0.3v0.1
								c0,0,0,0.1,0.1,0.1l0,0c0.5,0,0.6,0.2,0.7,0.6c0.2,0.7,0.3,1.3,0.5,2c0.2,0.8,0.5,1.5,0.7,2.3c0.2,0.7,0.3,1.4,0.5,2.1
								c0,0.1,0,0.3-0.1,0.4c0,0.1,0,0.2,0.1,0.2c0.2,0,0.4,0.1,0.7,0.1l0.1,0.1c0.1,1.5,0.2,3,0.4,4.6c0.1,0.9,0.2,1.8,0.3,2.7
								c0,0.1,0.2,0.2,0.2,0.3c0,0.3,0.1,0.5,0,0.8c-0.1,0.2,0,0.6,0,0.9s0.1,0.7,0.1,1.1c0,0.1-0.1,0.2-0.1,0.3
								c0,0.1,0.1,0.3,0.1,0.4s0.1,0.1,0.1,0.2c-0.1,0.4,0,0.8,0.2,1.1c0,0.1,0,0.1-0.1,0.2c0,0.1-0.2,0.2-0.2,0.2c0,0.5,0,1,0,1.5
								c0,1.6,0,3.1,0.2,4.7c0.2,1.9,0.3,3.8,0.5,5.7c0,0.6,0.1,1.1,0.1,1.7c0,0.3,0,0.6,0,0.8c0,1.6,0,3.2,0.1,4.8
								C62.5-69,62.5-68.6,62.5-68.1z M55.3-76.2c0-1.2-0.1-2.3-0.1-3.4c-0.1-0.9-0.2-1.9-0.3-2.8c-0.1-1.1-0.4-2.2-0.7-3.2
								c-0.2-0.6-0.4-1.2-0.6-1.8c0-0.2-0.1-0.4-0.1-0.6l0,0c-0.1,0.5-0.2,0.9-0.3,1.4c-0.2,0.6-0.3,1.3-0.5,1.8
								c-0.3,0.7-0.7,1.4-1.1,2.1c0,0.1,0,0.2,0,0.2c0.3,0.3,0.6,0.6,0.8,0.9c0.6,1,1.2,2,1.6,3.1c0.2,0.6,0.4,1.1,0.6,1.6
								c0.2,0.5,0.4,1.1,0.6,1.6c0,0.1,0,0.1,0.1,0.2C55.3-75.5,55.3-75.8,55.3-76.2z"/>
							<path class="st3" d="M59.8-96L59.8-96v-5.1h-3C57.8-99.4,58.8-97.7,59.8-96z"/>
							<path class="st3" d="M47.8-96L47.8-96v-5.1h3C49.8-99.4,48.8-97.7,47.8-96z"/>
							<rect x="57.7" y="-92.1" class="st3" width="3.8" height="1.3"/>
							<circle class="st2" cx="48.9" cy="-99.6" r="0.5"/>
							<circle class="st2" cx="58.9" cy="-99.8" r="0.5"/>
							<rect x="51.4" y="-107.9" class="st3" width="5.2" height="1.5"/>
							<circle class="st3" cx="51.9" cy="-110.6" r="0.5"/>
							<circle class="st3" cx="56" cy="-110.6" r="0.5"/>
						</g>
						<path class="st2" d="M108-135.1c0,0.2-0.1,0.3-0.4,0.4c-0.6,0.1-1.1,0.3-1.7,0.4c-1,0.1-1.9,0.2-2.9,0.4c0,0,0,0,0-0.1
							c-0.4-0.1-0.7-0.1-1.1-0.1c-0.2-0.1-0.5-0.1-0.7-0.2l-0.1-0.1c0-0.7-0.1-1.4-0.1-2.1v-0.1h-0.1c-0.7,0.6-1.6,0.7-2.5,0.8
							c-0.5,0.1-1,0.1-1.5,0.2c-0.3,0-0.5,0-0.8,0l-0.1-0.1c-0.6-1.7-1.2-3.3-2-4.9c-0.7-1.4-1.2-2.9-1.7-4.3
							c-0.2-0.5-0.4-0.9-0.6-1.4c-0.4-0.9-0.5-1.8-0.6-2.7c-0.1-1.4-0.1-2.9-0.1-4.3c0-1,0-2,0-2.9c0-1,0.1-1.9,0.2-2.9
							c0-0.4,0.2-0.8,0.3-1.2c0.1-0.4,0.2-0.8,0.2-1.1c0.1-1.3,0.3-2.6,0.3-3.9c0.1-0.9,0-1.7,0.1-2.6c0-0.2,0-0.4,0.1-0.5
							s0.1-0.3,0.4-0.3c0.6,0,0.6,0,0.7-0.5c0.1-0.6,0.2-1.3,0.4-1.9c0.3-1.1,0.8-2.1,1.2-3.2c0.1-0.7,0.3-1.1,0.6-1.5
							c0-0.1,0.1-0.1,0.2-0.1s0.2,0,0.3-0.1c0.1,0,0.1-0.1,0.1-0.1s-0.1,0-0.1-0.1l-0.1-0.1c0-0.1,0-0.2,0.1-0.2
							c0.4-0.1,0.3-0.4,0.2-0.6v-0.1c-0.4-0.1-0.3-0.4-0.2-0.6c0-0.1,0-0.3,0.2-0.4v-0.1c0-1.6,0-3.2,0.1-4.8c0-0.1,0-0.2,0.2-0.2
							c0.3,0,0.6-0.1,0.8-0.1c0.1,0,0.2,0.1,0.2,0.1c0.3,1.5,0.5,2.9,0.6,4.3c0,0.8,0.4,1.4,0.9,2c0.1,0.1,0.2,0.1,0.3,0
							c0.7-0.9,1.2-1.8,1.3-2.9c0.1-1.1,0.3-2.2,0.4-3.3c0-0.1,0.1-0.2,0.2-0.2c0.3,0,0.6,0,0.9,0c0.1,0,0.1,0.1,0.1,0.1
							c0.2,1.6,0.3,3.2,0.5,4.8c0,0.2,0.2,0.4,0.2,0.6c0.1,0.2,0,0.4-0.2,0.4c-0.1,0-0.1,0.1-0.1,0.2c-0.1,0.2,0,0.4,0.2,0.5
							c0.2,0.1,0.2,0.2,0,0.4v0.1l0.1,0.1l0,0c0.5,0,0.6,0.2,0.7,0.6c0.2,0.7,0.3,1.3,0.6,2c0.2,0.8,0.5,1.5,0.7,2.3
							c0.2,0.7,0.3,1.4,0.5,2.1c0,0.1,0,0.3-0.1,0.4c0,0.1,0,0.2,0.1,0.2c0.2,0,0.4,0.1,0.7,0.1c0.1,0,0.1,0.1,0.1,0.1
							c0.1,1.5,0.2,3,0.4,4.6c0.1,0.9,0.2,1.8,0.3,2.7c0,0.1,0.2,0.2,0.2,0.3c0,0.3,0.1,0.5,0,0.8c-0.1,0.2,0,0.6,0.1,0.9
							c0,0.4,0.1,0.7,0.1,1.1c0,0.1-0.1,0.2-0.1,0.3s0.1,0.3,0.1,0.4c0,0.1,0.1,0.1,0.1,0.2c-0.1,0.4,0,0.8,0.2,1.1
							c0,0.1,0,0.1-0.1,0.2c-0.1,0.1-0.2,0.2-0.2,0.2c0,0.5,0,1,0,1.5c0,1.6,0,3.1,0.2,4.7c0.2,1.9,0.3,3.8,0.4,5.7
							c0,0.6,0.1,1.1,0.1,1.7c0,0.3,0,0.6,0,0.8c0,1.6,0,3.2,0.1,4.8C108-136,108-135.6,108-135.1z M100.8-143.2
							c0-1.1-0.1-2.3-0.1-3.4c-0.1-0.9-0.2-1.9-0.3-2.8c-0.1-1.1-0.4-2.1-0.7-3.2c-0.2-0.6-0.4-1.2-0.6-1.8
							c-0.1-0.2-0.1-0.4-0.1-0.6l0,0c-0.1,0.5-0.2,0.9-0.3,1.4c-0.2,0.6-0.3,1.3-0.5,1.8c-0.3,0.7-0.7,1.4-1.1,2.1
							c0,0.1,0,0.1,0.1,0.2c0.3,0.3,0.6,0.6,0.8,0.9c0.6,1,1.2,2,1.6,3.1c0.2,0.6,0.4,1.1,0.6,1.6s0.4,1.1,0.6,1.6
							c0,0.1,0.1,0.1,0.1,0.2C100.8-142.5,100.8-142.8,100.8-143.2z"/>
						<g>
							<path class="st2" d="M17-135.1c0,0.2-0.1,0.3-0.4,0.4c-0.6,0.1-1.1,0.3-1.7,0.4c-1,0.1-1.9,0.2-2.9,0.4c0,0,0,0,0-0.1
								c-0.4-0.1-0.7-0.1-1.1-0.1c-0.2-0.1-0.5-0.1-0.7-0.2l-0.1-0.1c0-0.7-0.1-1.4-0.1-2.1v-0.1H9.9c-0.7,0.6-1.6,0.7-2.5,0.8
								c-0.5,0.1-1,0.1-1.5,0.2c-0.3,0-0.5,0-0.8,0L5-135.7c-0.6-1.7-1.2-3.3-2-4.9c-0.7-1.4-1.2-2.9-1.7-4.3
								c-0.2-0.5-0.4-0.9-0.6-1.4c-0.4-0.9-0.5-1.8-0.6-2.7c0-1.5,0-3-0.1-4.4c0-1,0-2,0-2.9c0-1,0.1-1.9,0.2-2.9
								c0-0.4,0.2-0.8,0.3-1.2c0.1-0.4,0.2-0.8,0.2-1.1c0.1-1.3,0.3-2.6,0.3-3.9c0.1-0.9,0-1.7,0.1-2.6c0-0.2,0-0.4,0.1-0.5
								c0.1-0.1,0.1-0.3,0.4-0.3c0.6,0,0.6,0,0.6-0.5c0.1-0.6,0.2-1.3,0.4-1.9c0.3-1.1,0.8-2.1,1.2-3.2c0.2-0.6,0.4-1,0.7-1.4
								c0-0.1,0.1-0.1,0.2-0.1s0.2,0,0.3-0.1c0.1,0,0.1-0.1,0.1-0.1s-0.1,0-0.1-0.1l-0.1-0.1c0-0.1,0-0.2,0.1-0.2
								c0.4-0.1,0.3-0.4,0.2-0.6v-0.1c-0.4-0.1-0.3-0.4-0.3-0.6c0-0.1,0-0.3,0.2-0.4v-0.1c0-1.6,0-3.2,0.1-4.8c0-0.1,0-0.2,0.2-0.2
								c0.3,0,0.6-0.1,0.8-0.1c0.1,0,0.2,0.1,0.2,0.1c0.4,1.5,0.6,2.9,0.7,4.3c0,0.8,0.4,1.4,0.9,2c0.1,0.1,0.2,0.1,0.3,0
								c0.7-0.9,1.2-1.8,1.3-2.9c0.1-1.1,0.3-2.2,0.4-3.3c-0.1-0.1,0-0.2,0.1-0.2c0.3,0,0.6,0,0.9,0c0.1,0,0.1,0.1,0.1,0.1
								c0.2,1.6,0.3,3.2,0.5,4.8c0,0.2,0.2,0.4,0.2,0.6c0.1,0.2,0,0.4-0.2,0.4c-0.1,0-0.1,0.1-0.1,0.2c-0.1,0.2,0,0.4,0.2,0.5
								c0.3,0.2,0.3,0.3,0.1,0.4v0.1l0.1,0.1l0,0c0.5,0,0.6,0.2,0.7,0.6c0.2,0.7,0.4,1.3,0.6,2c0.2,0.8,0.5,1.5,0.7,2.3
								c0.2,0.7,0.3,1.4,0.5,2.1c0,0.1,0,0.3-0.1,0.4c0,0.1,0,0.2,0.1,0.2c0.2,0,0.4,0.1,0.7,0.1c0.1,0,0.1,0.1,0.1,0.1
								c0.1,1.5,0.2,3,0.4,4.6c0.1,0.9,0.2,1.8,0.3,2.7c0,0.1,0.2,0.2,0.2,0.3c0,0.3,0.1,0.5,0,0.8c-0.1,0.2,0,0.6,0.1,0.9
								c0,0.4,0.1,0.7,0.1,1.1c0,0.1-0.1,0.2-0.1,0.3s0.1,0.3,0.1,0.4c0,0.1,0.1,0.1,0.1,0.2c-0.1,0.4,0,0.8,0.2,1.1
								c0,0.1,0,0.1-0.1,0.2c0,0.1-0.1,0.2-0.1,0.2c0,0.5,0,1,0,1.5c0,1.6,0,3.1,0.2,4.7c0.2,1.9,0.3,3.8,0.5,5.7
								c0,0.6,0.1,1.1,0.1,1.7c0,0.3,0,0.6,0,0.8c0,1.6,0,3.2,0.1,4.8C17-136,17-135.6,17-135.1z M9.8-143.2c0-1.1-0.1-2.3-0.1-3.4
								c-0.1-0.9-0.2-1.9-0.3-2.8c-0.1-1.1-0.4-2.1-0.7-3.2c-0.2-0.6-0.4-1.2-0.6-1.8c-0.1-0.3-0.1-0.5-0.2-0.7l0,0
								c-0.1,0.5-0.2,0.9-0.3,1.4c-0.2,0.6-0.3,1.3-0.5,1.8c-0.3,0.8-0.7,1.5-1.1,2.2c0,0.1,0,0.1,0.1,0.2c0.3,0.3,0.6,0.6,0.8,0.9
								c0.6,1,1.2,2,1.6,3.1c0.1,0.6,0.3,1.1,0.5,1.7c0.2,0.5,0.4,1.1,0.6,1.6c0,0.1,0.1,0.1,0.1,0.2C9.8-142.5,9.8-142.8,9.8-143.2
								z"/>
							<rect x="12.2" y="-159.2" class="st3" width="3.8" height="1.4"/>
						</g>
					</g>
				</g>
			</g>
		</g>
	</g>
</pattern>
<g>
	<path d="M576.5-59.2c0-1.4,0-2.8-0.1-4.2c0-0.2,0-0.5,0-0.7c0-0.5-0.1-1-0.1-1.4c-0.1-1.7-0.2-3.3-0.4-5c-0.2-1.4-0.1-2.7-0.2-4.1
		c0-0.4,0-0.9,0-1.3c0-0.1,0.1-0.1,0.1-0.2s0.1-0.1,0.1-0.2c-0.2-0.3-0.3-0.6-0.1-1c0,0-0.1-0.1-0.1-0.2s-0.1-0.2-0.1-0.4
		c0-0.1,0.1-0.1,0.1-0.2c0-0.3,0-0.6-0.1-0.9c0-0.3-0.2-0.6,0-0.8c0.1-0.3,0-0.5,0-0.7c0-0.1-0.1-0.2-0.1-0.3
		c-0.1-0.8-0.2-1.6-0.3-2.4c-0.1-1.3-0.2-2.6-0.3-3.9l-0.1-0.1c-0.2,0-0.4-0.1-0.6-0.1c-0.1,0-0.2-0.1-0.1-0.2
		c0-0.1,0.1-0.3,0.1-0.4c-0.1-0.6-0.2-1.2-0.4-1.8c-0.2-0.7-0.4-1.3-0.6-2c-0.2-0.6-0.3-1.1-0.5-1.7c-0.1-0.3-0.2-0.5-0.6-0.5l0,0
		c0,0-0.1,0-0.1-0.1v-0.1c0.2-0.1,0.1-0.3,0-0.3c-0.2-0.1-0.3-0.2-0.2-0.4c0-0.1,0-0.2,0.1-0.2c0.2-0.1,0.3-0.2,0.2-0.4
		c0-0.2-0.2-0.3-0.2-0.5c-0.2-1.4-0.3-2.8-0.5-4.2l-0.1-0.1c-0.3,0-0.5,0-0.8,0c-0.1,0-0.2,0-0.2,0.1c-0.1,1-0.3,1.9-0.4,2.9
		c-0.1,0.9-0.5,1.7-1.1,2.5c-0.1,0.1-0.2,0.1-0.2,0c-0.4-0.6-0.7-1.1-0.8-1.8c0-1.2-0.3-2.4-0.5-3.6c0-0.1-0.1-0.1-0.2-0.1
		c-0.3,0-0.5,0.1-0.7,0.1c-0.1,0-0.2,0.1-0.2,0.2c0,1.4,0,2.8,0,4.2v0.1c-0.2,0-0.2,0.2-0.2,0.3c0,0.2-0.1,0.4,0.2,0.5
		c0,0,0,0,0,0.1c0,0.2,0.1,0.4-0.2,0.6c0,0,0,0.1-0.1,0.2c0,0,0,0.1,0.1,0.1s0.1,0.1,0.1,0.1s0,0.1-0.1,0.1s-0.2,0-0.3,0.1
		c-0.1,0-0.2,0.1-0.2,0.1c-0.2,0.4-0.4,0.7-0.6,1.1c-0.4,0.9-0.8,1.8-1.1,2.8c-0.2,0.6-0.3,1.1-0.3,1.7c-0.1,0.4-0.1,0.5-0.6,0.5
		c-0.2,0-0.3,0.2-0.3,0.3c-0.1,0.1-0.1,0.3-0.1,0.5c0,0.8,0,1.5,0,2.2c-0.1,1.2-0.2,2.3-0.3,3.4c0,0.3-0.1,0.7-0.2,1
		c-0.1,0.4-0.2,0.7-0.3,1.1c-0.1,0.8-0.1,1.7-0.1,2.5s0,1.7,0,2.6c0,1.2,0.1,2.5,0.1,3.7c0,0.8,0.2,1.6,0.5,2.4
		c0.2,0.4,0.4,0.8,0.5,1.2c0.5,1.3,0.9,2.5,1.5,3.8c0.7,1.4,1.2,2.8,1.7,4.3c0,0,0,0.1,0.1,0.1c0.2,0,0.4,0,0.7,0
		c0.4,0,0.9-0.1,1.3-0.1c0.8-0.1,1.5-0.2,2.1-0.7c0,0,0,0,0.1,0c0,0,0,0,0,0.1c0,0.6,0.1,1.2,0.1,1.8v0.1c0.2,0.1,0.4,0.2,0.6,0.2
		c0.3,0.1,0.6,0.1,1,0.1l0,0c0.8-0.1,1.7-0.2,2.5-0.3c0.5-0.1,1-0.3,1.5-0.4c0.2,0,0.3-0.2,0.3-0.3
		C576.5-58.4,576.5-58.8,576.5-59.2z M570.3-64c0-0.1-0.1-0.1-0.1-0.2c-0.2-0.5-0.4-0.9-0.5-1.4c-0.2-0.5-0.4-0.9-0.5-1.4
		c-0.3-0.9-0.8-1.8-1.4-2.7c-0.2-0.3-0.5-0.5-0.7-0.8c0-0.1-0.1-0.1,0-0.2c0.3-0.6,0.7-1.2,0.9-1.8c0.2-0.5,0.3-1.1,0.5-1.6
		c0.1-0.4,0.2-0.8,0.3-1.2l0,0c0,0.2,0.1,0.3,0.1,0.5c0.2,0.5,0.3,1.1,0.5,1.6c0.3,0.9,0.5,1.8,0.6,2.8c0.1,0.8,0.2,1.6,0.3,2.4
		c0.1,1,0.1,2,0.1,3C570.3-64.7,570.3-64.4,570.3-64z"/>
	<path class="st3" d="M574.2-82.2L574.2-82.2v-4.4h-2.6C572.5-85.2,573.3-83.7,574.2-82.2z"/>
	<path class="st3" d="M563.8-82.2L563.8-82.2v-4.4h2.6C565.5-85.2,564.6-83.7,563.8-82.2z"/>
	<rect x="572.4" y="-78.9" class="st3" width="3.3" height="1.2"/>
	<circle cx="564.7" cy="-85.4" r="0.4"/>
	<circle cx="573.4" cy="-85.5" r="0.4"/>
	<rect x="566.9" y="-92.6" class="st3" width="4.5" height="1.3"/>
	<circle class="st3" cx="567.3" cy="-94.9" r="0.4"/>
	<circle class="st3" cx="570.9" cy="-94.9" r="0.4"/>
</g>
<g>
	<g>
		<path d="M640.7-122.7c-0.1,0.4-0.1,0.8-0.2,1.2c-0.1,0.7-0.3,1.3-0.5,2c-0.1,0.5-0.1,1-0.2,1.6c0,0.6-0.1,1.2-0.1,1.8
			c-1.2,0.3-2.4,0-3.5-0.3c-0.5-0.1-0.9-0.3-1.3-0.5c-0.1,0-0.1-0.2-0.1-0.3c0.1-0.5,0.2-0.9,0.3-1.4c0-0.2,0.1-0.3,0.1-0.5
			c0-0.8,0.1-1.7,0.2-2.5c0-0.4,0.1-0.8,0.3-1.2c0.1-0.1,0.1-0.3,0.1-0.5c0-0.4,0-0.8,0.1-1.2c0.1-0.6,0.1-1.2,0.2-1.7
			c0.1-0.8,0.3-1.5,0.5-2.2c0.1-0.6,0.2-1.1,0.3-1.7c0-0.2,0.1-0.3,0.3-0.2c1.2,0.3,2.5,0.3,3.7,0.3s2.5-0.2,3.8-0.3
			c0.4,0,0.4,0,0.5,0.4s0.1,0.8,0.3,1.2c0.1,0.3,0.1,0.7,0.2,1c0.1,0.6,0.2,1.1,0.3,1.7c0.1,0.9,0.2,1.8,0.3,2.7
			c0,0.3,0.1,0.5,0.2,0.8c0,0.1,0,0.1,0,0.1c-0.2,0.2-0.1,0.3,0,0.5c0,0.2,0.1,0.5,0.2,0.7c0,0.1,0,0.1,0,0.2c-0.1,0.5,0,1,0,1.5
			c0,0.6,0.1,1.3,0.1,1.9c0,0.2,0,0.3,0.1,0.5s-0.1,0.3-0.2,0.3c-0.1,0-0.3,0.1-0.4,0.2c-0.4,0.3-0.9,0.3-1.4,0.3
			c-0.7,0.1-1.4,0.1-2,0.1c-0.3,0-0.6,0-0.9,0c-0.2,0-0.3-0.1-0.3-0.4c-0.1-1.3-0.1-2.5-0.3-3.7C641-121.1,640.9-121.9,640.7-122.7
			L640.7-122.7z"/>
	</g>
	<path class="st3" d="M645.8-126L645.8-126l-0.7-3.2l-1.9,0.4C644-127.9,644.9-127,645.8-126z"/>
	<path class="st3" d="M636.2-126L636.2-126l0.6-3.2l1.9,0.4C637.9-127.9,637-127,636.2-126z"/>
	
		<rect x="643.8" y="-121.8" transform="matrix(0.9671 -0.2545 0.2545 0.9671 52.1229 160.1698)" class="st3" width="2.5" height="0.9"/>
	<circle cx="637.2" cy="-128.1" r="0.3"/>
	<circle cx="644.7" cy="-128.1" r="0.3"/>
</g>
<pattern  id="SVGID_4_" xlink:href="#SVGID_3_" patternTransform="matrix(-1 0 0 1 -30009.8008 17286.4004)">
</pattern>
<rect class="st4" width="1366" height="1017.2"/>
<g>
	
		<linearGradient id="SVGID_5_" gradientUnits="userSpaceOnUse" x1="-836.8785" y1="406.7878" x2="-743.1821" y2="-273.1731" gradientTransform="matrix(1.137 -0.4244 0.4173 1.5873 711.6901 203.0071)">
		<stop  offset="0" style="stop-color:#00FF66"/>
		<stop  offset="1" style="stop-color:#FF90FF"/>
	</linearGradient>
	<path class="st5" d="M359,633.1c-0.6-2.1-1.3-4.1-2.1-6c-6.6-16.1-7.7-34.4-2.1-50.9c0.3-0.7,0.5-1.4,0.7-2.2
		c3.1-9.4,11-15.6,19.8-15.5c16.2,0.3,31.3,9.6,40.3,24.9c8,13.7,17.6,25.7,28.5,35.9c16.4,15.3,27.1,37.1,29.6,60.9
		c0.7,6.8,3,20.1,16.1,26.1c17.3,8,37.7,3.9,56.7,2.3c19.7-1.7,39.5-3.8,58-12.8c15.8-7.7,29-19.9,38.1-35
		c10.6-17.6,15.6-37.9,17.6-57.6c2.6-25.5-0.8-50.4-2-75.6c-1.2-25.2,1.1-50.3,10.8-74.7c6.1-15.3,13.8-30.2,23.5-43.8l-12.6-0.2
		c-13.8-0.2-26.9-7-35.9-18.8c-36.3-48.1-95.7-69.9-152.2-50c-34.3,12.1-32,72.8-78.9,69.5c-76-5.4-24.6-134.8-72.5-172.5
		c-74-58.3-69.7,69.4-158.9,100.9c-41.2,14.5-86.3-93.4-160.7,34.4c-16.2,27.8-339-112.7-452.4-89c-57.8,12-68.9,79.5-99.4,130.4
		c-10.6,17.7-27.7,13.1-46.2,9.1c-12.6-2.7-34.1,0.8-45,4.6c-8.1,2.9-21.4,15.1-29.6,18.6c-11,4.7-20.7-3-23.9-14.5l-0.1-0.2
		c-11.6-41.3-18.8-49.3-27.7-74.8c-3.7,0.7-7.4,1.4-11.1,2.1c-39.8,7.2-79.9,12.2-119.9,16.8c-39.7,4.6-79.5,8.8-119.1,14.5
		c-24.4,3.5-48.8,7.6-73.1,12.6c0.6,1.4,1.2,2.8,1.9,4.2c9.6,20.8-55.3,19.5-47.7,73.9c15,106.9,101.9,136.6,118.1,161.8
		c17.1,26.6-6.3,37.6-14,48.5c-13.8,19.4-14.4,40.6-9.4,56.4c14,44.2,70,88.9,106.1,46.2c22-26.1,2.8-76.3,20.1-103.6
		c20.6-32.6,25.9-36.4,35.1-32.3c6.8,3,12.5,8.5,16.6,15.3c16.3,27.1,185.3,34,197.2,12.9c10.5-18.6,34.2-21.2,47.1-4.4
		c1.6,2.1,2.9,4.2,3.8,6.5c5.6,14.3,12.4,30.5,18,40.4c14.3,25.1,17.5,56.3,9,84.4c-5.3,17.5-5.8,36.9-0.5,56
		c11.6,41.3,29.4,66,64.3,79.4c14.8,5.7,169-37.1,220.5,153.5c11.2,41.5,43.8,47,73.6,37.9c35.3-10.8,55.2-52.5,44.2-91.7
		c-0.7-2.5-1.5-4.9-2.4-7.3c-7.1-18.3-6.5-39,2.2-56.3c21.7-43.1,28.1-96,13.7-147.2c-1.1-4-2.4-8-3.7-11.9
		c-12.1-34.7-8.7-73.6,7.9-105.7c5.4-10.5,21.9-26.2,31.3-31.1c35.7-18.9,121.3-8.9,130.4,25.2c6.2,23.3-10,58-3.1,83
		c16,58.2,69.5,91.2,121.1,74.4c53-17.2,82.5-80.2,65.9-139.5c-0.8-2.7-1.6-5.4-2.6-8c-3.5-9.9,0.7-21.1,9.4-25.1l0.4-0.2
		c14.4-6.6,30.5-5.9,44.6,1.7c11.1,6,24.3,7.3,36.9,2.4C353.7,692.3,367.2,661.4,359,633.1z"/>
</g>
</svg>
