<?xml version="1.0" encoding="utf-8"?>
<!-- Generator: Adobe Illustrator 23.0.2, SVG Export Plug-In . SVG Version: 6.00 Build 0)  -->
<svg version="1.1" id="Layer_1" xmlns="http://www.w3.org/2000/svg" xmlns:xlink="http://www.w3.org/1999/xlink" x="0px" y="0px"
	 viewBox="0 0 1366 1017.2" style="enable-background:new 0 0 1366 1017.2;" xml:space="preserve">
<style type="text/css">
	.st0{fill:none;}
	.st1{fill:#FFFFFF;}
	.st2{fill:url(#SVGID_1_);}
	.st3{fill:url(#SVGID_2_);}
	.st4{fill:url(#SVGID_3_);}
	.st5{fill:url(#SVGID_4_);stroke:#000000;stroke-width:2.5853;stroke-miterlimit:10;}
	.st6{fill:url(#SVGID_5_);stroke:#000000;stroke-width:2.5853;stroke-miterlimit:10;}
	.st7{fill:url(#SVGID_6_);}
	.st8{fill:url(#SVGID_7_);}
	.st9{fill:url(#SVGID_8_);}
	.st10{fill:url(#SVGID_9_);}
	.st11{fill:url(#SVGID_10_);}
</style>
<pattern  y="1017.2" width="106" height="100" patternUnits="userSpaceOnUse" id="New_Pattern" viewBox="5.2 -119.9 106 100" style="overflow:visible;">
	<g>
		<rect x="5.2" y="-119.9" class="st0" width="106" height="100"/>
		<g>
			<rect x="5.2" y="-119.9" class="st0" width="106" height="100"/>
			<g>
				<path d="M91-134c0-0.1-0.1-0.2-0.2-0.2c-0.4-0.1-0.8-0.2-1.2-0.3c-0.6-0.1-1.3-0.2-2-0.2l0,0c-0.3,0-0.5,0-0.8,0.1
					c-0.2,0-0.3,0.1-0.5,0.2v0.1c0,0.5-0.1,0.9-0.1,1.4c0,0.1,0,0.1,0,0.1c-0.1,0-0.1,0-0.1,0c-0.5-0.4-1-0.5-1.6-0.5
					c-0.3,0-0.7-0.1-1-0.1c-0.2,0-0.4,0-0.5,0s-0.1,0.1-0.1,0.1c-0.4,1.2-0.8,2.3-1.3,3.4c-0.5,1-0.8,2-1.2,3
					c-0.1,0.3-0.2,0.6-0.4,0.9c-0.2,0.6-0.4,1.3-0.4,1.9c0,0.9-0.1,2-0.1,2.9c0,0.7,0,1.4,0,2s0,1.3,0.1,2c0.1,0.3,0.2,0.5,0.2,0.9
					c0.1,0.2,0.2,0.5,0.2,0.8c0.1,0.9,0.2,1.7,0.2,2.7c0,0.5,0,1.1,0,1.7c0,0.2,0,0.3,0.1,0.4c0,0.1,0.1,0.2,0.2,0.2
					c0.4,0,0.4,0.1,0.5,0.4c0,0.5,0.1,0.9,0.2,1.3c0.2,0.8,0.5,1.5,0.9,2.2c0.2,0.3,0.3,0.5,0.5,0.9c0,0,0.1,0.1,0.2,0.1
					c0.1,0.1,0.2,0.1,0.2,0.1c0.1-0.4,0.1-0.3,0.1-0.3s0,0.1-0.1,0.1s-0.1,0.1-0.1,0.1c0.1,0.1,0.1,0.2,0.1,0.2
					c0.2,0.2,0.2,0.3,0.2,0.5c0,0.1,0,0.1,0,0.1c-0.2,0.1-0.2,0.2-0.2,0.4c0,0.1,0,0.2,0.2,0.2v0.1c0,1.1,0,2.2,0,3.3
					c0,0.1,0.1,0.2,0.2,0.2c0.2,0,0.3,0.1,0.5,0.1c0.1,0,0.2,0,0.2-0.1c0.2-0.9,0.4-1.9,0.4-2.8c0.1-0.5,0.3-0.9,0.6-1.4
					c0-0.1,0.1-0.1,0.2,0c0.5,0.6,0.8,1.3,0.9,2c0.1,0.8,0.2,1.5,0.3,2.3c0,0.1,0.1,0.1,0.2,0.1c0.2,0,0.4,0,0.6,0l0.1-0.1
					c0.2-1.1,0.2-2.2,0.4-3.3c0-0.2,0.2-0.2,0.2-0.4c0.1-0.2,0-0.2-0.2-0.3c-0.1,0-0.1-0.1-0.1-0.2c-0.1-0.2,0-0.2,0.2-0.3
					c0.1,0,0.2-0.2,0-0.2v-0.1c0-0.1,0.1-0.1,0.1-0.1l0,0c0.3,0,0.4-0.2,0.5-0.4c0.2-0.5,0.2-0.9,0.4-1.3c0.2-0.5,0.3-1,0.5-1.6
					c0.2-0.5,0.2-0.9,0.3-1.4c0-0.1-0.1-0.2-0.1-0.3c-0.1-0.1,0-0.2,0.1-0.2c0.2,0,0.3-0.1,0.5-0.1l0.1-0.1c0.1-1,0.2-2,0.2-3.1
					c0.1-0.6,0.2-1.3,0.2-1.9c0-0.1,0.1-0.2,0.1-0.2c0-0.2,0.1-0.3,0-0.5c-0.2-0.2,0-0.4,0-0.6c0.1-0.2,0.1-0.5,0.1-0.7
					c0-0.1-0.1-0.1-0.1-0.2c0-0.2,0.1-0.2,0.1-0.3s0.1-0.2,0.1-0.2c-0.2-0.3-0.1-0.5,0.1-0.8c0-0.1-0.1-0.1-0.1-0.2
					s-0.1-0.1-0.1-0.2c0-0.3,0-0.7,0-1c0.1-1.1,0-2.1,0.2-3.2c0.2-1.3,0.2-2.6,0.3-3.9c0-0.3,0.1-0.7,0.1-1.1c0-0.2,0-0.4,0-0.5
					c0.1-1.1,0.1-2.2,0.1-3.3C91.3-133.2,91.3-133.5,91-134z M86.5-128.3c0,0.8,0,1.6-0.1,2.4c-0.1,0.6-0.2,1.3-0.2,1.9
					c-0.1,0.8-0.2,1.5-0.5,2.2c-0.2,0.4-0.2,0.9-0.4,1.3c0,0.2-0.1,0.2-0.1,0.4l0,0c-0.1-0.3-0.2-0.6-0.2-0.9
					c-0.2-0.4-0.2-0.9-0.4-1.3c-0.2-0.5-0.5-0.9-0.7-1.4c-0.1-0.1,0-0.1,0-0.2c0.2-0.2,0.4-0.4,0.5-0.6c0.5-0.7,0.9-1.4,1.1-2.1
					c0.1-0.4,0.2-0.7,0.4-1.1c0.1-0.4,0.2-0.7,0.4-1.1c0-0.1,0.1-0.1,0.1-0.2C86.4-128.8,86.4-128.5,86.5-128.3z"/>
				<path class="st1" d="M87.4-111.4h2v-3.4l0,0C88.8-113.6,88.1-112.5,87.4-111.4z"/>
				<path class="st1" d="M83.4-111.4h-2v-3.4l0,0C82-113.6,82.7-112.5,83.4-111.4z"/>
				<rect x="88.1" y="-118.3" class="st1" width="2.6" height="0.9"/>
				<circle cx="82" cy="-112.3" r="0.3"/>
				<circle cx="88.9" cy="-112.2" r="0.3"/>
				<rect x="83.8" y="-107.7" class="st1" width="3.5" height="1"/>
				<circle class="st1" cx="84.1" cy="-104.8" r="0.3"/>
				<circle class="st1" cx="86.9" cy="-104.8" r="0.3"/>
			</g>
			<g>
				<path d="M38-134c0-0.1-0.1-0.2-0.2-0.2c-0.4-0.1-0.8-0.2-1.2-0.3c-0.6-0.1-1.3-0.2-2-0.2l0,0c-0.3,0-0.5,0-0.8,0.1
					c-0.2,0-0.3,0.1-0.5,0.2v0.1c0,0.5-0.1,0.9-0.1,1.4c0,0.1,0,0.1,0,0.1c-0.1,0-0.1,0-0.1,0c-0.5-0.4-1-0.5-1.6-0.5
					c-0.3,0-0.7-0.1-1-0.1c-0.2,0-0.4,0-0.5,0s-0.1,0.1-0.1,0.1c-0.4,1.2-0.8,2.3-1.3,3.4c-0.5,1-0.8,2-1.2,3
					c-0.1,0.3-0.2,0.6-0.4,0.9c-0.2,0.6-0.4,1.3-0.4,1.9c0,0.9-0.1,2-0.1,2.9c0,0.7,0,1.4,0,2s0,1.3,0.1,2c0.1,0.3,0.2,0.5,0.2,0.9
					c0.1,0.2,0.2,0.5,0.2,0.8c0.1,0.9,0.2,1.7,0.2,2.7c0,0.5,0,1.1,0,1.7c0,0.2,0,0.3,0.1,0.4c0,0.1,0.1,0.2,0.2,0.2
					c0.4,0,0.4,0.1,0.5,0.4c0,0.5,0.1,0.9,0.2,1.3c0.2,0.8,0.5,1.5,0.9,2.2c0.2,0.3,0.3,0.5,0.5,0.9c0,0,0.1,0.1,0.2,0.1
					c0.1,0.1,0.2,0.1,0.2,0.1l0.1-0.3c0,0,0,0.1-0.1,0.1s-0.1,0.1-0.1,0.1c0.1,0.1,0.1,0.2,0.1,0.2c0.2,0.2,0.2,0.3,0.2,0.5
					c0,0.1,0,0.1,0,0.1c-0.2,0.1-0.2,0.2-0.2,0.4c0,0.1,0,0.2,0.2,0.2v0.1c0,1.1,0,2.2,0,3.3c0,0.1,0.1,0.2,0.2,0.2
					c0.2,0,0.3,0.1,0.5,0.1c0.1,0,0.2,0,0.2-0.1c0.2-0.9,0.4-1.9,0.4-2.8c0.1-0.5,0.3-0.9,0.6-1.4c0-0.1,0.1-0.1,0.2,0
					c0.5,0.6,0.8,1.3,0.9,2c0.1,0.8,0.2,1.5,0.3,2.3c0,0.1,0.1,0.1,0.2,0.1c0.2,0,0.4,0,0.6,0l0.1-0.1c0.2-1.1,0.2-2.2,0.4-3.3
					c0-0.2,0.2-0.2,0.2-0.4c0.1-0.2,0-0.2-0.2-0.3c-0.1,0-0.1-0.1-0.1-0.2c-0.1-0.2,0-0.2,0.2-0.3c0.1,0,0.2-0.2,0-0.2v-0.1
					c0-0.1,0.1-0.1,0.1-0.1l0,0c0.3,0,0.4-0.2,0.5-0.4c0.2-0.5,0.2-0.9,0.4-1.3c0.2-0.5,0.3-1,0.5-1.6c0.2-0.5,0.2-0.9,0.3-1.4
					c0-0.1-0.1-0.2-0.1-0.3c-0.1-0.1,0-0.2,0.1-0.2c0.2,0,0.3-0.1,0.5-0.1l0.1-0.1c0.1-1,0.2-2,0.2-3.1c0.1-0.6,0.2-1.3,0.2-1.9
					c0-0.1,0.1-0.2,0.1-0.2c0-0.2,0.1-0.3,0-0.5c-0.2-0.2,0-0.4,0-0.6c0.1-0.2,0.1-0.5,0.1-0.7c0-0.1-0.1-0.1-0.1-0.2
					c0-0.2,0.1-0.2,0.1-0.3s0.1-0.2,0.1-0.2c-0.2-0.3-0.1-0.5,0.1-0.8c0-0.1-0.1-0.1-0.1-0.2s-0.1-0.1-0.1-0.2c0-0.3,0-0.7,0-1
					c0.1-1.1,0-2.1,0.2-3.2c0.2-1.3,0.2-2.6,0.3-3.9c0-0.3,0.1-0.7,0.1-1.1c0-0.2,0-0.4,0-0.5c0.1-1.1,0.1-2.2,0.1-3.3
					C38.3-133.2,38.3-133.5,38-134z M33.5-128.3c0,0.8,0,1.6-0.1,2.4c-0.1,0.6-0.2,1.3-0.2,1.9c-0.1,0.8-0.2,1.5-0.5,2.2
					c-0.2,0.4-0.2,0.9-0.4,1.3c0,0.2-0.1,0.2-0.1,0.4l0,0c-0.1-0.3-0.2-0.6-0.2-0.9c-0.2-0.4-0.2-0.9-0.4-1.3
					c-0.2-0.5-0.5-0.9-0.7-1.4c-0.1-0.1,0-0.1,0-0.2c0.2-0.2,0.4-0.4,0.5-0.6c0.5-0.7,0.9-1.4,1.1-2.1c0.1-0.4,0.2-0.7,0.4-1.1
					c0.1-0.4,0.2-0.7,0.4-1.1c0-0.1,0.1-0.1,0.1-0.2C33.4-128.8,33.4-128.5,33.5-128.3z"/>
				<path class="st1" d="M34.4-111.4h2v-3.4l0,0C35.8-113.6,35.1-112.5,34.4-111.4z"/>
				<path class="st1" d="M30.4-111.4h-2v-3.4l0,0C29-113.6,29.7-112.5,30.4-111.4z"/>
				<rect x="35.1" y="-118.3" class="st1" width="2.6" height="0.9"/>
				<circle cx="29" cy="-112.3" r="0.3"/>
				<circle cx="35.9" cy="-112.2" r="0.3"/>
				<rect x="30.8" y="-107.7" class="st1" width="3.5" height="1"/>
				<circle class="st1" cx="31.1" cy="-104.8" r="0.3"/>
				<circle class="st1" cx="33.9" cy="-104.8" r="0.3"/>
			</g>
			<g>
				<path d="M117.5-84c0-0.1-0.1-0.2-0.2-0.2c-0.4-0.1-0.8-0.2-1.2-0.3c-0.6-0.1-1.3-0.2-2-0.2l0,0c-0.3,0-0.5,0-0.8,0.1
					c-0.2,0-0.3,0.1-0.5,0.2v0.1c0,0.5-0.1,0.9-0.1,1.4c0,0.1,0,0.1,0,0.1c-0.1,0-0.1,0-0.1,0c-0.5-0.4-1-0.5-1.6-0.5
					c-0.3,0-0.7-0.1-1-0.1c-0.2,0-0.4,0-0.5,0s-0.1,0.1-0.1,0.1c-0.4,1.2-0.8,2.3-1.3,3.4c-0.5,1-0.8,2-1.2,3
					c-0.1,0.3-0.2,0.6-0.4,0.9c-0.2,0.6-0.4,1.3-0.4,1.9c0,0.9-0.1,2-0.1,2.9c0,0.7,0,1.4,0,2s0,1.3,0.1,2c0.1,0.3,0.2,0.5,0.2,0.9
					c0.1,0.2,0.2,0.5,0.2,0.8c0.1,0.9,0.2,1.7,0.2,2.7c0,0.5,0,1.1,0,1.7c0,0.2,0,0.3,0.1,0.4c0,0.1,0.1,0.2,0.2,0.2
					c0.4,0,0.4,0.1,0.5,0.4c0,0.5,0.1,0.9,0.2,1.3c0.2,0.8,0.5,1.5,0.9,2.2c0.2,0.3,0.3,0.5,0.5,0.9c0,0,0.1,0.1,0.2,0.1
					c0.1,0.1,0.2,0.1,0.2,0.1c0.1,0,0.1,0.1,0.1,0.1s0,0.1-0.1,0.1s-0.1,0.1-0.1,0.1c0.1,0.1,0.1,0.2,0.1,0.2
					c0.2,0.2,0.2,0.3,0.2,0.5c0,0.1,0,0.1,0,0.1c-0.2,0.1-0.2,0.2-0.2,0.4c0,0.1,0,0.2,0.2,0.2v0.1c0,1.1,0,2.2,0,3.3
					c0,0.1,0.1,0.2,0.2,0.2c0.2,0,0.3,0.1,0.5,0.1c0.1,0,0.2,0,0.2-0.1c0.2-0.9,0.4-1.9,0.4-2.8c0.1-0.5,0.3-0.9,0.6-1.4
					c0-0.1,0.1-0.1,0.2,0c0.5,0.6,0.8,1.3,0.9,2c0.1,0.8,0.2,1.5,0.3,2.3c0,0.1,0.1,0.1,0.2,0.1c0.2,0,0.4,0,0.6,0l0.1-0.1
					c0.2-1.1,0.2-2.2,0.4-3.3c0-0.2,0.2-0.2,0.2-0.4c0.1-0.2,0-0.2-0.2-0.3c-0.1,0-0.1-0.1-0.1-0.2c-0.1-0.2,0-0.2,0.2-0.3
					c0.1,0,0.2-0.2,0-0.2v-0.1c0-0.1,0.1-0.1,0.1-0.1l0,0c0.3,0,0.4-0.2,0.5-0.4c0.2-0.5,0.2-0.9,0.4-1.3c0.2-0.5,0.3-1,0.5-1.6
					c0.2-0.5,0.2-0.9,0.3-1.4c0-0.1-0.1-0.2-0.1-0.3c-0.1-0.1,0-0.2,0.1-0.2c0.2,0,0.3-0.1,0.5-0.1l0.1-0.1c0.1-1,0.2-2,0.2-3.1
					c0.1-0.6,0.2-1.3,0.2-1.9c0-0.1,0.1-0.2,0.1-0.2c0-0.2,0.1-0.3,0-0.5c-0.2-0.2,0-0.4,0-0.6c0.1-0.2,0.1-0.5,0.1-0.7
					c0-0.1-0.1-0.1-0.1-0.2c0-0.2,0.1-0.2,0.1-0.3s0.1-0.2,0.1-0.2c-0.2-0.3-0.1-0.5,0.1-0.8c0-0.1-0.1-0.1-0.1-0.2
					s-0.1-0.1-0.1-0.2c0-0.3,0-0.7,0-1c0.1-1.1,0-2.1,0.2-3.2c0.2-1.3,0.2-2.6,0.3-3.9c0-0.3,0.1-0.7,0.1-1.1c0-0.2,0-0.4,0-0.5
					c0.1-1.1,0.1-2.2,0.1-3.3C117.8-83.2,117.8-83.5,117.5-84z M113-78.3c0,0.8,0,1.6-0.1,2.4c-0.1,0.6-0.2,1.3-0.2,1.9
					c-0.1,0.8-0.2,1.5-0.5,2.2c-0.2,0.4-0.2,0.9-0.4,1.3c0,0.2-0.1,0.2-0.1,0.4l0,0c-0.1-0.3-0.2-0.6-0.2-0.9
					c-0.2-0.4-0.2-0.9-0.4-1.3c-0.2-0.5-0.5-0.9-0.7-1.4c-0.1-0.1,0-0.1,0-0.2c0.2-0.2,0.4-0.4,0.5-0.6c0.5-0.7,0.9-1.4,1.1-2.1
					c0.1-0.4,0.2-0.7,0.4-1.1c0.1-0.4,0.2-0.7,0.4-1.1c0-0.1,0.1-0.1,0.1-0.2C112.9-78.8,112.9-78.5,113-78.3z"/>
				<path class="st1" d="M109.9-61.4h-2v-3.4l0,0C108.5-63.6,109.2-62.5,109.9-61.4z"/>
				<circle cx="108.5" cy="-62.3" r="0.3"/>
				<rect x="110.3" y="-57.7" class="st1" width="3.5" height="1"/>
				<circle class="st1" cx="110.6" cy="-54.8" r="0.3"/>
			</g>
			<g>
				<path d="M64.5-84c0-0.1-0.1-0.2-0.2-0.2c-0.4-0.1-0.8-0.2-1.2-0.3c-0.6-0.1-1.3-0.2-2-0.2l0,0c-0.3,0-0.5,0-0.8,0.1
					c-0.2,0-0.3,0.1-0.5,0.2v0.1c0,0.5-0.1,0.9-0.1,1.4c0,0.1,0,0.1,0,0.1c-0.1,0-0.1,0-0.1,0c-0.5-0.4-1-0.5-1.6-0.5
					c-0.3,0-0.7-0.1-1-0.1c-0.2,0-0.4,0-0.5,0s-0.1,0.1-0.1,0.1c-0.4,1.2-0.8,2.3-1.3,3.4c-0.5,1-0.8,2-1.2,3
					c-0.1,0.3-0.2,0.6-0.4,0.9c-0.2,0.6-0.4,1.3-0.4,1.9c0,0.9-0.1,2-0.1,2.9c0,0.7,0,1.4,0,2s0,1.3,0.1,2c0.1,0.3,0.2,0.5,0.2,0.9
					c0.1,0.2,0.2,0.5,0.2,0.8c0.1,0.9,0.2,1.7,0.2,2.7c0,0.5,0,1.1,0,1.7c0,0.2,0,0.3,0.1,0.4c0,0.1,0.1,0.2,0.2,0.2
					c0.4,0,0.4,0.1,0.5,0.4c0,0.5,0.1,0.9,0.2,1.3c0.2,0.8,0.5,1.5,0.9,2.2c0.2,0.3,0.3,0.5,0.5,0.9c0,0,0.1,0.1,0.2,0.1
					c0.1,0.1,0.2,0.1,0.2,0.1c0.1,0,0.1,0.1,0.1,0.1s0,0.1-0.1,0.1s-0.1,0.1-0.1,0.1c0.1,0.1,0.1,0.2,0.1,0.2
					c0.2,0.2,0.2,0.3,0.2,0.5c0,0.1,0,0.1,0,0.1c-0.2,0.1-0.2,0.2-0.2,0.4c0,0.1,0,0.2,0.2,0.2v0.1c0,1.1,0,2.2,0,3.3
					c0,0.1,0.1,0.2,0.2,0.2c0.2,0,0.3,0.1,0.5,0.1c0.1,0,0.2,0,0.2-0.1c0.2-0.9,0.4-1.9,0.4-2.8c0.1-0.5,0.3-0.9,0.6-1.4
					c0-0.1,0.1-0.1,0.2,0c0.5,0.6,0.8,1.3,0.9,2c0.1,0.8,0.2,1.5,0.3,2.3c0,0.1,0.1,0.1,0.2,0.1c0.2,0,0.4,0,0.6,0l0.1-0.1
					c0.2-1.1,0.2-2.2,0.4-3.3c0-0.2,0.2-0.2,0.2-0.4c0.1-0.2,0-0.2-0.2-0.3c-0.2-0.7-0.2-0.7-0.2-0.8c-0.1-0.2,0-0.2,0.2-0.3
					c0.1,0,0.2-0.2,0-0.2v-0.1c0-0.1,0.1-0.1,0.1-0.1l0,0c0.3,0,0.4-0.2,0.5-0.4c0.2-0.5,0.2-0.9,0.4-1.3c0.2-0.5,0.3-1,0.5-1.6
					c0.2-0.5,0.2-0.9,0.3-1.4c0-0.1-0.1-0.2-0.1-0.3c-0.1-0.1,0-0.2,0.1-0.2c0.2,0,0.3-0.1,0.5-0.1l0.1-0.1c0.1-1,0.2-2,0.2-3.1
					c0.1-0.6,0.2-1.3,0.2-1.9c0-0.1,0.1-0.2,0.1-0.2c0-0.2,0.1-0.3,0-0.5c-0.2-0.2,0-0.4,0-0.6c0.1-0.2,0.1-0.5,0.1-0.7
					c0-0.1-0.1-0.1-0.1-0.2c0-0.2,0.1-0.2,0.1-0.3s0.1-0.2,0.1-0.2c-0.2-0.3-0.1-0.5,0.1-0.8c0-0.1-0.1-0.1-0.1-0.2
					s-0.1-0.1-0.1-0.2c0-0.3,0-0.7,0-1c0.1-1.1,0-2.1,0.2-3.2c0.2-1.3,0.2-2.6,0.3-3.9c0-0.3,0.1-0.7,0.1-1.1c0-0.2,0-0.4,0-0.5
					c0.1-1.1,0.1-2.2,0.1-3.3C64.8-83.2,64.8-83.5,64.5-84z M60-78.3c0,0.8,0,1.6-0.1,2.4c-0.1,0.6-0.2,1.3-0.2,1.9
					c-0.1,0.8-0.2,1.5-0.5,2.2c-0.2,0.4-0.2,0.9-0.4,1.3c0,0.2-0.1,0.2-0.1,0.4l0,0c-0.1-0.3-0.2-0.6-0.2-0.9
					c-0.2-0.4-0.2-0.9-0.4-1.3c-0.2-0.5-0.5-0.9-0.7-1.4c-0.1-0.1,0-0.1,0-0.2c0.2-0.2,0.4-0.4,0.5-0.6c0.5-0.7,0.9-1.4,1.1-2.1
					c0.1-0.4,0.2-0.7,0.4-1.1c0.1-0.4,0.2-0.7,0.4-1.1c0-0.1,0.1-0.1,0.1-0.2C59.9-78.8,59.9-78.5,60-78.3z"/>
				<path class="st1" d="M60.9-61.4h2v-3.4l0,0C62.3-63.6,61.6-62.5,60.9-61.4z"/>
				<path class="st1" d="M56.9-61.4h-2v-3.4l0,0C55.5-63.6,56.2-62.5,56.9-61.4z"/>
				<rect x="61.6" y="-68.3" class="st1" width="2.6" height="0.9"/>
				<circle cx="55.5" cy="-62.3" r="0.3"/>
				<circle cx="62.4" cy="-62.2" r="0.3"/>
				<rect x="57.3" y="-57.7" class="st1" width="3.5" height="1"/>
				<circle class="st1" cx="57.6" cy="-54.8" r="0.3"/>
				<circle class="st1" cx="60.4" cy="-54.8" r="0.3"/>
			</g>
			<g>
				<path d="M11.5-84c0-0.1-0.1-0.2-0.2-0.2c-0.4-0.1-0.8-0.2-1.2-0.3c-0.6-0.1-1.3-0.2-2-0.2l0,0c-0.3,0-0.5,0-0.8,0.1
					c-0.2,0-0.3,0.1-0.5,0.2v0.1c0,0.5-0.1,0.9-0.1,1.4c0,0.1,0,0.1,0,0.1c-0.1,0-0.1,0-0.1,0c-0.5-0.4-1-0.5-1.6-0.5
					c-0.3,0-0.7-0.1-1-0.1c-0.2,0-0.4,0-0.5,0s-0.1,0.1-0.1,0.1c-0.3,0.9-0.7,2-1.3,3.1c-0.5,1-0.8,2-1.2,3
					c-0.1,0.3-0.2,0.6-0.4,0.9c-0.2,0.6-0.4,1.3-0.4,1.9c0,0.9-0.1,2-0.1,2.9c0,0.7,0,1.4,0,2s0,1.3,0.1,2c0.1,0.3,0.2,0.5,0.2,0.9
					c0.1,0.2,0.2,0.5,0.2,0.8c0.1,0.9,0.2,1.7,0.2,2.7c0,0.5,0,1.1,0,1.7c0,0.2,0,0.3,0.1,0.4c0.1,0,0.2,0.2,0.3,0.2
					c0.4,0,0.4,0.1,0.5,0.4c0,0.5,0.1,0.9,0.2,1.3c0.2,0.8,0.5,1.5,0.9,2.2C2.9-56.6,3-56.4,3.2-56c0,0,0.1,0.1,0.2,0.1
					c0.1,0.1,0.2,0.1,0.2,0.1c0.1,0,0.1,0.1,0.1,0.1s0,0.1-0.1,0.1s-0.1,0.1-0.1,0.1c0.1,0.1,0.1,0.2,0.1,0.2
					c0.2,0.2,0.2,0.3,0.2,0.5c0,0.1,0,0.1,0,0.1c-0.2,0.1-0.2,0.2-0.2,0.4c0,0.1,0,0.2,0.2,0.2v0.1c0,1.1,0,2.2,0,3.3
					c-0.1-0.1,0-0.1,0.1-0.1c0.2,0,0.3,0.1,0.5,0.1c0.1,0,0.2,0,0.2-0.1C4.8-51.7,5-52.7,5-53.6c0.1-0.5,0.3-0.9,0.6-1.4
					c0-0.1,0.1-0.1,0.2,0c0.5,0.6,0.8,1.3,0.9,2c0.1,0.8,0.2,1.5,0.3,2.3c0,0.1,0.1,0.1,0.2,0.1c0.2,0,0.4,0,0.6,0v-0.2
					C8-51.9,8-53,8.2-54.1c0-0.2,0.2-0.2,0.2-0.4c0.1-0.2,0-0.2-0.2-0.3c-0.1,0-0.1,0-0.1-0.1c-0.1-0.2,0-0.2,0.2-0.3
					c0.1,0,0.2-0.2,0-0.2v-0.1c0-0.1,0.1-0.1,0.1-0.1l0,0c0.3,0,0.4-0.2,0.5-0.4c0.2-0.5,0.2-0.9,0.4-1.3c0.2-0.5,0.3-1,0.5-1.6
					c0.2-0.5,0.2-0.9,0.3-1.4c0-0.1-0.1-0.2-0.1-0.3c-0.1-0.1,0-0.2,0.1-0.2c0.2,0,0.3-0.1,0.5-0.1l0.1-0.1c0.1-1,0.2-2,0.2-3.1
					c0.1-0.6,0.2-1.3,0.2-1.9c0-0.1,0.1-0.2,0.1-0.2c0-0.2,0.1-0.3,0-0.5c-0.2-0.2,0-0.4,0-0.6c0.1-0.2,0.1-0.5,0.1-0.7
					c0-0.1-0.1-0.1-0.1-0.2c0-0.2,0.1-0.2,0.1-0.3s0.1-0.2,0.1-0.2c-0.2-0.3-0.1-0.5,0.1-0.8c0-0.1-0.1-0.1-0.1-0.2
					s-0.1-0.1-0.1-0.2c0-0.3,0-0.7,0-1c0.1-1.1,0-2.1,0.2-3.2c0.2-1.3,0.2-2.6,0.3-3.9c0-0.3,0.1-0.7,0.1-1.1c0-0.2,0-0.4,0-0.5
					c0.1-1.1,0.1-2.2,0.1-3.3C11.8-83.2,11.8-83.5,11.5-84z M7-78.3c0,0.8,0,1.6-0.1,2.4c-0.1,0.6-0.2,1.3-0.2,1.9
					c-0.1,0.8-0.2,1.5-0.5,2.2C6-71.4,6-70.9,5.8-70.5c0,0.2-0.1,0.2-0.1,0.4l0,0c-0.1-0.3-0.2-0.6-0.2-0.9
					c-0.2-0.4-0.2-0.9-0.4-1.3c-0.2-0.5-0.5-0.9-0.7-1.4c-0.1-0.1,0-0.1,0-0.2c0.2-0.2,0.4-0.4,0.5-0.6c0.5-0.7,0.9-1.4,1.1-2.1
					c0.1-0.5,0.3-0.8,0.5-1.2c0.1-0.4,0.2-0.7,0.4-1.1C6.9-79,7-79,7-79.1C6.9-78.8,6.9-78.5,7-78.3z"/>
				<path class="st1" d="M7.9-61.4h2v-3.4l0,0C9.3-63.6,8.6-62.5,7.9-61.4z"/>
				<rect x="8.6" y="-68.3" class="st1" width="2.6" height="0.9"/>
				<circle cx="9.4" cy="-62.2" r="0.3"/>
				<rect x="4.3" y="-57.7" class="st1" width="3.5" height="1"/>
				<circle class="st1" cx="7.4" cy="-54.8" r="0.3"/>
			</g>
			<g>
				<path d="M91-34c0-0.1-0.1-0.2-0.2-0.2c-0.4-0.1-0.8-0.2-1.2-0.3c-0.6-0.1-1.3-0.2-2-0.2l0,0c-0.3,0-0.5,0-0.8,0.1
					c-0.2,0-0.3,0.1-0.5,0.2v0.1c0,0.5-0.1,0.9-0.1,1.4c0,0.1,0,0.1,0,0.1c-0.1,0-0.1,0-0.1,0c-0.5-0.4-1-0.5-1.6-0.5
					c-0.3,0-0.7-0.1-1-0.1c-0.2,0-0.4,0-0.5,0s-0.1,0.1-0.1,0.1c-0.4,1.2-0.8,2.3-1.3,3.4c-0.5,1-0.8,2-1.2,3
					c-0.1,0.3-0.2,0.6-0.4,0.9c-0.2,0.6-0.4,1.3-0.4,1.9c0,0.9-0.1,2-0.1,2.9c0,0.7,0,1.4,0,2s0,1.3,0.1,2c0.1,0.3,0.2,0.5,0.2,0.9
					c0.1,0.2,0.2,0.5,0.2,0.8c0.1,0.9,0.2,1.7,0.2,2.7c0,0.5,0,1.1,0,1.7c0,0.2,0,0.3,0.1,0.4c0,0.1,0.1,0.2,0.2,0.2
					c0.4,0,0.4,0.1,0.5,0.4c0,0.5,0.1,0.9,0.2,1.3c0.2,0.8,0.5,1.5,0.9,2.2c0.2,0.3,0.3,0.5,0.5,0.9c0,0,0.1,0.1,0.2,0.1
					C82.9-5.5,83-5.5,83-5.5c0.1,0,0.1,0.1,0.1,0.1s0,0.1-0.1,0.1s-0.1,0.1-0.1,0.1C83-5.1,83-5,83-5c0.2,0.2,0.2,0.3,0.2,0.5
					c0,0.1,0,0.1,0,0.1C83-4.3,83-4.2,83-4c0,0.1,0,0.2,0.2,0.2v0.1c0,1.1,0,2.2,0,3.3c0,0.1,0.1,0.2,0.2,0.2c0.2,0,0.3,0.1,0.5,0.1
					c0.1,0,0.2,0,0.2-0.1c0.2-0.9,0.4-1.9,0.4-2.8c0.1-0.5,0.3-0.9,0.6-1.4c0-0.1,0.1-0.1,0.2,0c0.5,0.6,0.8,1.3,0.9,2
					c0.1,0.8,0.2,1.5,0.3,2.3C86.5,0,86.6,0,86.7,0c0.2,0,0.4,0,0.6,0l0.1-0.1c0.2-1.1,0.2-2.2,0.4-3.3c0-0.2,0.2-0.2,0.2-0.4
					C88.1-4,88-4,87.8-4.1c-0.1,0-0.1-0.1-0.1-0.2c-0.1-0.2,0-0.2,0.2-0.3c0.1,0,0.2-0.2,0-0.2v-0.1C87.9-5,88-5,88-5l0,0
					c0.3,0,0.4-0.2,0.5-0.4c0.2-0.5,0.2-0.9,0.4-1.3c0.2-0.5,0.3-1,0.5-1.6c0.2-0.5,0.2-0.9,0.3-1.4c0-0.1-0.1-0.2-0.1-0.3
					c-0.1-0.1,0-0.2,0.1-0.2c0.2,0,0.3-0.1,0.5-0.1l0.1-0.1c0.1-1,0.2-2,0.2-3.1c0.1-0.6,0.2-1.3,0.2-1.9c0-0.1,0.1-0.2,0.1-0.2
					c0-0.2,0.1-0.3,0-0.5c-0.2-0.2,0-0.4,0-0.6c0.1-0.2,0.1-0.5,0.1-0.7c0-0.1-0.1-0.1-0.1-0.2c0-0.2,0.1-0.2,0.1-0.3
					s0.1-0.2,0.1-0.2c-0.2-0.3-0.1-0.5,0.1-0.8c0-0.1-0.1-0.1-0.1-0.2s-0.1-0.1-0.1-0.2c0-0.3,0-0.7,0-1c0.1-1.1,0-2.1,0.2-3.2
					c0.2-1.3,0.2-2.6,0.3-3.9c0-0.3,0.1-0.7,0.1-1.1c0-0.2,0-0.4,0-0.5c0.1-1.1,0.1-2.2,0.1-3.3C91.3-33.2,91.3-33.5,91-34z
					 M86.5-28.3c0,0.8,0,1.6-0.1,2.4c-0.1,0.6-0.2,1.3-0.2,1.9c-0.1,0.8-0.2,1.5-0.5,2.2c-0.2,0.4-0.2,0.9-0.4,1.3
					c0,0.2-0.1,0.2-0.1,0.4l0,0C85.1-20.4,85-20.7,85-21c-0.2-0.4-0.2-0.9-0.4-1.3c-0.2-0.5-0.5-0.9-0.7-1.4c-0.1-0.1,0-0.1,0-0.2
					c0.2-0.2,0.4-0.4,0.5-0.6c0.5-0.7,0.9-1.4,1.1-2.1c0.1-0.4,0.2-0.7,0.4-1.1c0.1-0.4,0.2-0.7,0.4-1.1c0-0.1,0.1-0.1,0.1-0.2
					C86.4-28.8,86.4-28.5,86.5-28.3z"/>
			</g>
			<g>
				<path d="M38-34c0-0.1-0.1-0.2-0.2-0.2c-0.4-0.1-0.8-0.2-1.2-0.3c-0.6-0.1-1.3-0.2-2-0.2l0,0c-0.3,0-0.5,0-0.8,0.1
					c-0.2,0-0.3,0.1-0.5,0.2v0.1c0,0.5-0.1,0.9-0.1,1.4c0,0.1,0,0.1,0,0.1c-0.1,0-0.1,0-0.1,0c-0.5-0.4-1-0.5-1.6-0.5
					c-0.3,0-0.7-0.1-1-0.1c-0.2,0-0.4,0-0.5,0s-0.1,0.1-0.1,0.1c-0.4,1.2-0.8,2.3-1.3,3.4c-0.5,1-0.8,2-1.2,3
					c-0.1,0.3-0.2,0.6-0.4,0.9c-0.2,0.6-0.4,1.3-0.4,1.9c0,0.9-0.1,2-0.1,2.9c0,0.7,0,1.4,0,2s0,1.3,0.1,2c0.1,0.3,0.2,0.5,0.2,0.9
					c0.1,0.2,0.2,0.5,0.2,0.8c0.1,0.9,0.2,1.7,0.2,2.7c0,0.5,0,1.1,0,1.7c0,0.2,0,0.3,0.1,0.4c0,0.1,0.1,0.2,0.2,0.2
					c0.4,0,0.4,0.1,0.5,0.4c0,0.5,0.1,0.9,0.2,1.3c0.2,0.8,0.5,1.5,0.9,2.2c0.2,0.3,0.3,0.5,0.5,0.9c0,0,0.1,0.1,0.2,0.1
					C29.9-5.5,30-5.5,30-5.5l0.1-0.3c0,0,0,0.1-0.1,0.1s-0.1,0.1-0.1,0.1C30-5.5,30-5.4,30-5.4c0.2,0.2,0.2,0.3,0.2,0.5
					c0,0.1,0,0.1,0,0.1C30-4.7,30-4.6,30-4.4c0,0.1,0,0.2,0.2,0.2v0.1c0,1.1,0,2.2,0,3.3c0,0.1,0.1,0.2,0.2,0.2
					c0.2,0,0.3,0.1,0.5,0.1c0.1,0,0.2,0,0.2-0.1c0.2-0.9,0.4-1.9,0.4-2.8c0.1-0.5,0.3-0.9,0.6-1.4c0-0.1,0.1-0.1,0.2,0
					c0.5,0.6,0.8,1.3,0.9,2c0.1,0.8,0.2,1.5,0.3,2.3c0,0.1,0.1,0.1,0.2,0.1c0.2,0,0.4,0,0.6,0l0.1-0.1c0.2-1.1,0.2-2.2,0.4-3.3
					C34.8-4,35-4,35-4.2c0.1-0.2,0-0.2-0.2-0.3c-0.1,0-0.1-0.1-0.1-0.2c-0.1-0.2,0-0.2,0.2-0.3c0.1,0,0.2-0.2,0-0.2v-0.1
					c0-0.1,0.1-0.1,0.1-0.1l0,0c0.3,0,0.4-0.2,0.5-0.4c0.2-0.5,0.2-0.9,0.4-1.3c0.2-0.5,0.3-1,0.5-1.6c0.2-0.5,0.2-0.9,0.3-1.4
					c0-0.1-0.1-0.2-0.1-0.3c-0.1-0.1,0-0.2,0.1-0.2c0.2,0,0.3-0.1,0.5-0.1l0.1-0.1c0.1-1,0.2-2,0.2-3.1c0.1-0.6,0.2-1.3,0.2-1.9
					c0-0.1,0.1-0.2,0.1-0.2c0-0.2,0.1-0.3,0-0.5c-0.2-0.2,0-0.4,0-0.6c0.1-0.2,0.1-0.5,0.1-0.7c0-0.1-0.1-0.1-0.1-0.2
					c0-0.2,0.1-0.2,0.1-0.3s0.1-0.2,0.1-0.2c-0.2-0.3-0.1-0.5,0.1-0.8c0-0.1-0.1-0.1-0.1-0.2s-0.1-0.1-0.1-0.2c0-0.3,0-0.7,0-1
					c0.1-1.1,0-2.1,0.2-3.2c0.2-1.3,0.2-2.6,0.3-3.9c0-0.3,0.1-0.7,0.1-1.1c0-0.2,0-0.4,0-0.5c0.1-1.1,0.1-2.2,0.1-3.3
					C38.3-33.2,38.3-33.5,38-34z M33.5-28.3c0,0.8,0,1.6-0.1,2.4c-0.1,0.6-0.2,1.3-0.2,1.9c-0.1,0.8-0.2,1.5-0.5,2.2
					c-0.2,0.4-0.2,0.9-0.4,1.3c0,0.2-0.1,0.2-0.1,0.4l0,0C32.1-20.4,32-20.7,32-21c-0.2-0.4-0.2-0.9-0.4-1.3
					c-0.2-0.5-0.5-0.9-0.7-1.4c-0.1-0.1,0-0.1,0-0.2c0.2-0.2,0.4-0.4,0.5-0.6c0.5-0.7,0.9-1.4,1.1-2.1c0.1-0.4,0.2-0.7,0.4-1.1
					c0.1-0.4,0.2-0.7,0.4-1.1c0-0.1,0.1-0.1,0.1-0.2C33.4-28.8,33.4-28.5,33.5-28.3z"/>
			</g>
		</g>
	</g>
</pattern>
<pattern  id="SVGID_1_" xlink:href="#New_Pattern" patternTransform="matrix(1 0 0 -1 -72.1 -18017.6309)">
</pattern>
<polygon class="st2" points="0,0 1366,0 1366,1017.2 0,1017.2 "/>
<g>
	<path d="M574.2-58.4c0-1,0-1.9-0.1-2.9c0-0.1,0-0.3,0-0.5c0-0.3-0.1-0.7-0.1-1c-0.1-1.2-0.1-2.3-0.3-3.4c-0.1-1-0.1-1.9-0.1-2.8
		c0-0.3,0-0.6,0-0.9c0-0.1,0.1-0.1,0.1-0.1c0-0.1,0.1-0.1,0.1-0.1c-0.1-0.2-0.2-0.4-0.1-0.7l-0.1-0.1c0-0.1-0.1-0.1-0.1-0.3
		c0-0.1,0.1-0.1,0.1-0.1c0-0.2,0-0.4-0.1-0.6c0-0.2-0.1-0.4,0-0.5c0.1-0.2,0-0.3,0-0.5c0-0.1-0.1-0.1-0.1-0.2
		c-0.1-0.5-0.1-1.1-0.2-1.6c-0.1-0.9-0.1-1.8-0.2-2.7l-0.1-0.1c-0.1,0-0.3-0.1-0.4-0.1c-0.1,0-0.1-0.1-0.1-0.1
		c0-0.1,0.1-0.2,0.1-0.3c-0.1-0.4-0.1-0.8-0.3-1.2c-0.1-0.5-0.3-0.9-0.4-1.4c-0.1-0.4-0.2-0.8-0.3-1.2c-0.1-0.2-0.1-0.3-0.4-0.3l0,0
		c0,0-0.1,0-0.1-0.1v-0.1c0.1-0.1,0.1-0.2,0-0.2c-0.1-0.1-0.2-0.1-0.1-0.3c0-0.1,0-0.1,0.1-0.1c0.1-0.1,0.2-0.1,0.1-0.3
		c0-0.1-0.1-0.2-0.1-0.3c-0.1-1-0.2-1.9-0.3-2.9l-0.1-0.1c-0.2,0-0.3,0-0.5,0c-0.1,0-0.1,0-0.1,0.1c-0.1,0.7-0.2,1.3-0.3,2
		c-0.1,0.6-0.3,1.2-0.8,1.7c-0.1,0.1-0.1,0.1-0.1,0c-0.3-0.4-0.5-0.8-0.5-1.2c0-0.8-0.2-1.6-0.3-2.5c0-0.1-0.1-0.1-0.1-0.1
		c-0.2,0-0.3,0.1-0.5,0.1c-0.1,0-0.1,0.1-0.1,0.1c0,1,0,1.9,0,2.9v0.1c-0.1,0-0.1,0.1-0.1,0.2s-0.1,0.3,0.1,0.3c0,0,0,0,0,0.1
		s0.1,0.3-0.1,0.4c0,0,0,0.1-0.1,0.1c0,0,0,0.1,0.1,0.1s0.1,0.1,0.1,0.1s0,0.1-0.1,0.1s-0.1,0-0.2,0.1c-0.1,0-0.1,0.1-0.1,0.1
		c-0.1,0.3-0.3,0.5-0.4,0.8c-0.3,0.6-0.5,1.2-0.8,1.9c-0.1,0.4-0.2,0.8-0.2,1.2c-0.1,0.3-0.1,0.3-0.4,0.3c-0.1,0-0.2,0.1-0.2,0.2
		c-0.1,0.1-0.1,0.2-0.1,0.3c0,0.5,0,1,0,1.5c-0.1,0.8-0.1,1.6-0.2,2.3c0,0.2-0.1,0.5-0.1,0.7c-0.1,0.3-0.1,0.5-0.2,0.8
		c-0.1,0.5-0.1,1.2-0.1,1.7s0,1.2,0,1.8c0,0.8,0.1,1.7,0.1,2.5c0,0.5,0.1,1.1,0.3,1.6c0.1,0.3,0.3,0.5,0.3,0.8
		c0.3,0.9,0.6,1.7,1,2.6c0.5,1,0.8,1.9,1.2,3c0,0,0,0.1,0.1,0.1s0.3,0,0.5,0c0.3,0,0.6-0.1,0.9-0.1c0.5-0.1,1-0.1,1.4-0.5
		c0,0,0,0,0.1,0c0,0,0,0,0,0.1c0,0.4,0.1,0.8,0.1,1.2v0.1c0.1,0.1,0.3,0.1,0.4,0.1c0.2,0.1,0.4,0.1,0.7,0.1l0,0
		c0.5-0.1,1.2-0.1,1.7-0.2c0.3-0.1,0.7-0.2,1-0.3c0.1,0,0.2-0.1,0.2-0.2C574.2-57.9,574.2-58.1,574.2-58.4z M569.9-61.7
		C569.9-61.8,569.8-61.8,569.9-61.7c-0.2-0.4-0.4-0.7-0.4-1.1c-0.1-0.3-0.3-0.6-0.3-1c-0.2-0.6-0.5-1.2-1-1.9
		c-0.1-0.2-0.3-0.3-0.5-0.5c0-0.1-0.1-0.1,0-0.1c0.2-0.4,0.5-0.8,0.6-1.2c0.1-0.3,0.2-0.8,0.3-1.1c0.1-0.3,0.1-0.5,0.2-0.8l0,0
		c0,0.1,0.1,0.2,0.1,0.3c0.1,0.3,0.2,0.8,0.3,1.1c0.2,0.6,0.3,1.2,0.4,1.9c0.1,0.5,0.1,1.1,0.2,1.6c0.1,0.7,0.1,1.4,0.1,2.1
		C569.9-62.2,569.9-62,569.9-61.7z"/>
	<path class="st1" d="M572.6-74.2L572.6-74.2v-3h-1.8C571.4-76.3,572-75.3,572.6-74.2z"/>
	<path class="st1" d="M565.4-74.2L565.4-74.2v-3h1.8C566.6-76.3,566-75.3,565.4-74.2z"/>
	<rect x="571.4" y="-72" class="st1" width="2.3" height="0.8"/>
	<circle cx="566.1" cy="-76.4" r="0.3"/>
	<circle cx="572" cy="-76.5" r="0.3"/>
	<rect x="567.6" y="-81.4" class="st1" width="3.1" height="0.9"/>
	<circle class="st1" cx="567.8" cy="-83" r="0.3"/>
	<circle class="st1" cx="570.3" cy="-83" r="0.3"/>
</g>
<g>
	<g>
		<path d="M640.7-122.7c-0.1,0.4-0.1,0.8-0.2,1.2c-0.1,0.7-0.3,1.3-0.5,2c-0.1,0.5-0.1,1-0.2,1.6c0,0.6-0.1,1.2-0.1,1.8
			c-1.2,0.3-2.4,0-3.5-0.3c-0.5-0.1-0.9-0.3-1.3-0.5c-0.1,0-0.1-0.2-0.1-0.3c0.1-0.5,0.2-0.9,0.3-1.4c0-0.2,0.1-0.3,0.1-0.5
			c0-0.8,0.1-1.7,0.2-2.5c0-0.4,0.1-0.8,0.3-1.2c0.1-0.1,0.1-0.3,0.1-0.5c0-0.4,0-0.8,0.1-1.2c0.1-0.6,0.1-1.2,0.2-1.7
			c0.1-0.8,0.3-1.5,0.5-2.2c0.1-0.6,0.2-1.1,0.3-1.7c0-0.2,0.1-0.3,0.3-0.2c1.2,0.3,2.5,0.3,3.7,0.3s2.5-0.2,3.8-0.3
			c0.4,0,0.4,0,0.5,0.4s0.1,0.8,0.3,1.2c0.1,0.3,0.1,0.7,0.2,1c0.1,0.6,0.2,1.1,0.3,1.7c0.1,0.9,0.2,1.8,0.3,2.7
			c0,0.3,0.1,0.5,0.2,0.8c0,0.1,0,0.1,0,0.1c-0.2,0.2-0.1,0.3,0,0.5c0,0.2,0.1,0.5,0.2,0.7c0,0.1,0,0.1,0,0.2c-0.1,0.5,0,1,0,1.5
			c0,0.6,0.1,1.3,0.1,1.9c0,0.2,0,0.3,0.1,0.5s-0.1,0.3-0.2,0.3c-0.1,0-0.3,0.1-0.4,0.2c-0.4,0.3-0.9,0.3-1.4,0.3
			c-0.7,0.1-1.4,0.1-2,0.1c-0.3,0-0.6,0-0.9,0c-0.2,0-0.3-0.1-0.3-0.4c-0.1-1.3-0.1-2.5-0.3-3.7C641-121.1,640.9-121.9,640.7-122.7
			L640.7-122.7z"/>
	</g>
	<path class="st1" d="M645.8-126L645.8-126l-0.7-3.2l-1.9,0.4C644-127.9,644.9-127,645.8-126z"/>
	<path class="st1" d="M636.2-126L636.2-126l0.6-3.2l1.9,0.4C637.9-127.9,637-127,636.2-126z"/>
	
		<rect x="643.8" y="-121.8" transform="matrix(0.9671 -0.2545 0.2545 0.9671 52.1227 160.1696)" class="st1" width="2.5" height="0.9"/>
	<circle cx="637.2" cy="-128.1" r="0.3"/>
	<circle cx="644.7" cy="-128.1" r="0.3"/>
</g>
<g>
	
		<linearGradient id="SVGID_2_" gradientUnits="userSpaceOnUse" x1="279.0684" y1="73.1168" x2="372.7647" y2="-606.8442" gradientTransform="matrix(-0.4152 -1.1404 1.5906 -0.4045 -220.163 146.8698)">
		<stop  offset="0" style="stop-color:#00FF66"/>
		<stop  offset="1" style="stop-color:#FF90FF"/>
	</linearGradient>
	<path class="st3" d="M-787-634.3c-2.1,0.6-4.1,1.3-6,2.1c-16.2,6.5-34.5,7.4-50.9,1.7c-0.7-0.3-1.4-0.5-2.2-0.7
		c-9.4-3.2-15.5-11.1-15.3-19.9c0.4-16.2,9.9-31.2,25.2-40.1c13.8-7.9,25.8-17.4,36.1-28.2c15.4-16.3,37.3-26.8,61.1-29.1
		c6.8-0.6,20.1-2.8,26.2-15.9c8.1-17.2,4.2-37.7,2.8-56.7c-1.5-19.7-3.5-39.5-12.3-58.1c-7.6-15.9-19.7-29.2-34.7-38.4
		c-17.5-10.7-37.8-15.9-57.5-18.1c-25.5-2.8-50.4,0.4-75.6,1.4c-25.2,1-50.3-1.5-74.6-11.4c-15.3-6.2-30.1-14-43.6-23.9l-0.3,12.6
		c-0.3,13.8-7.2,26.8-19.1,35.7c-48.4,35.9-70.7,95.1-51.2,151.8c11.8,34.4,72.5,32.6,68.9,79.5c-6,76-135,23.5-173.1,71.1
		c-58.9,73.5,68.8,70.3,99.6,159.7c14.2,41.3-94.1,85.5,33.1,161c27.7,16.4-115.4,338.1-92.6,451.7c11.5,57.9,78.9,69.5,129.6,100.4
		c17.6,10.7,12.9,27.8,8.7,46.3c-2.8,12.6,0.5,34.1,4.2,45c2.8,8.1,14.9,21.5,18.4,29.7c4.6,11-3.2,20.7-14.7,23.8l-0.2,0.1
		c-41.4,11.3-49.4,18.4-75,27.1c0.7,3.7,1.3,7.4,2,11.1c6.9,39.9,11.6,80,15.8,120c4.3,39.7,8.2,79.6,13.5,119.2
		c3.3,24.4,7.2,48.9,12,73.2c1.4-0.6,2.8-1.2,4.2-1.9c20.9-9.4,19.1,55.5,73.5,48.3C-844,781.7-813.6,695-788.3,679
		c26.7-16.9,37.5,6.6,48.4,14.4c19.3,14,40.5,14.7,56.3,9.9c44.3-13.6,89.5-69.3,47.1-105.7c-25.9-22.2-76.3-3.4-103.4-20.9
		c-32.4-20.9-36.2-26.2-32-35.4c3.1-6.8,8.6-12.4,15.4-16.5c27.2-16.1,35.5-185,14.5-197.1c-18.5-10.6-20.9-34.4-4-47.1
		c2.1-1.6,4.2-2.9,6.5-3.7c14.3-5.5,30.6-12.2,40.5-17.7c25.2-14.1,56.4-17,84.5-8.3c17.5,5.4,36.9,6.1,56,1
		c41.4-11.3,66.2-28.9,79.9-63.7c5.8-14.8-35.7-169.3,155.3-219.3c41.6-10.9,47.4-43.4,38.5-73.3c-10.5-35.4-52.1-55.6-91.3-44.9
		c-2.5,0.7-4.9,1.5-7.3,2.3c-18.4,7-39.1,6.2-56.3-2.7c-42.9-22-95.8-28.9-147.1-14.9c-4,1.1-8,2.3-11.9,3.6
		c-34.8,11.8-73.7,8.1-105.6-8.8c-10.5-5.5-26-22.1-30.8-31.5c-18.6-35.9-7.9-121.4,26.2-130.2c23.3-6,57.9,10.5,83,3.8
		c58.3-15.5,91.8-68.8,75.4-120.5c-16.8-53.1-79.5-83.1-139-67c-2.7,0.8-5.4,1.6-8,2.5c-9.9,3.4-21.1-0.9-25-9.6l-0.2-0.4
		c-6.5-14.5-5.7-30.5,2.1-44.6c6.1-11.1,7.5-24.2,2.7-36.9C-727.8-628.6-758.6-642.3-787-634.3z"/>
</g>
<linearGradient id="SVGID_3_" gradientUnits="userSpaceOnUse" x1="264.204" y1="-201.0663" x2="2490.1331" y2="-201.0663" gradientTransform="matrix(-0.9962 -8.715343e-02 -8.715343e-02 0.9962 1964.7632 683.1601)">
	<stop  offset="0" style="stop-color:#00FF66"/>
	<stop  offset="1" style="stop-color:#FF90FF"/>
</linearGradient>
<path class="st4" d="M547.2,479.2c6.2,0.5,36.9-4.3,46.4-22.4c11.5-22.2,20.7-36.7,9.4-58c-7.5-14-41.1-36.4-51.8-40.3l-20.7-7.4
	c-6.2-2.2-10.8-6.5-12.9-11.8c-1.6-4.3-3.6-8.6-5.6-12.8c-9.2-18-4.1-38.7,12.3-52.7c14.8-12.6,24.7-29.5,26.9-48.4
	c5-43.9-32.9-82.7-85.9-87.5C411,133,362.7,166.2,358,211c-0.1,2.1-0.3,4.2-0.3,6.1c-0.1,7.7-7.8,13.9-17.2,13.9H340
	c-15.5-0.2-30.2-5.8-40.6-15.2c-8.1-7.5-19.7-12.4-33-13c-26.1-1.2-48.9,15.2-50.8,36.8c-0.1,1.6-0.1,3.2-0.1,4.7
	c0.6,12.9-4.6,25.4-15.3,34.7c-0.4,0.4-0.9,0.9-1.3,1.2c-5.9,5.3-26.4,9.2-62.6,23.3c-13.5,5.3-18.2,19.5-26.2,29.8
	c-8,10.3-15.5,21.2-20.7,32.8c-0.6,1.8-21.2,104.5,10.1,144.7c48.1,62.1,87.2-24.8,179.6-18.2c42.6,3.1,47.5,89.4,158.9,27
	c24.3-13.6,22.2-26.1,63.5-28.7C538.9,488.5,532.4,478.1,547.2,479.2z"/>
<linearGradient id="SVGID_4_" gradientUnits="userSpaceOnUse" x1="1548.7384" y1="564.84" x2="3445.0386" y2="564.84" gradientTransform="matrix(1 0 0 -1 0 1015.89)">
	<stop  offset="0" style="stop-color:#00FF66"/>
	<stop  offset="1" style="stop-color:#FF90FF"/>
</linearGradient>
<path class="st5" d="M2066.8,639.4c0.8,1.9,1.4,3.9,1.6,5.8c1.2,10.6,2.8,22.6,4.8,31.3c1-0.2,1.9-0.5,2.9-0.7
	c24.2-6,48-14.2,69.3-27.5c10.6-6.6,20.5-14.5,29.6-23c7.6-7.1,14.8-14.6,22.9-21.1c8.3-6.6,17.5-11.8,27.6-15.2
	c12.7-4.2,26.4-5.6,39.7-6.3c22.4-1.1,44.7,0.8,67,2.2c-1-1.2-2-2.5-2.9-3.9c-47.6-68.5,34-190-66-202c-50.9-6.1-76,40.6-113.3,70.1
	c-13,10.3-26.1,2.5-40.6-5.3c-9.8-5.3-28.6-8.3-38.6-8.3c-7.5,0-21.4,5.6-29,6c-10.2,0.6-16.5-7.6-16.5-16.8v-0.2
	c0-42.2-6.6-43.4-6-82.5c0-1.3,0.1-2.4,0.2-3.6c-12.4-6.2-24-14-34.9-22.5c-14.9-11.5-28.7-24.3-41.9-37.6
	c-16.7-16.9-32.3-34.7-47.8-52.7c-6.5,16.4-6.4,28.8-30.5,29.4c-20.5,0.5-32.2-30.1-79-17c-45,12.6-54,27-45,78
	c3.1,17.8-50.6,0-57,42c-12.5,82.5,52.9,126.8,60.5,149.5c8,24-14,26-23,32c-16,10.7-21.5,26.1-21,39c1.3,36.1,37.5,83.5,77.5,61.5
	c24.4-13.5,20.2-55.4,41-71c24.8-18.6,30.1-20.1,36.8-14.7c4.9,4,8.4,9.5,10.3,15.6c7.2,24.1,21,82.1,72.4,84.6
	c46.7,2.3,74-11.6,88.9-24C2039.7,619.5,2060,623.7,2066.8,639.4z"/>
<linearGradient id="SVGID_5_" gradientUnits="userSpaceOnUse" x1="1548.7384" y1="-309.1883" x2="3445.0386" y2="-309.1883" gradientTransform="matrix(1 0 0 -1 0 1015.89)">
	<stop  offset="0" style="stop-color:#00FF66"/>
	<stop  offset="1" style="stop-color:#FF90FF"/>
</linearGradient>
<path class="st6" d="M3331.2,926c90-109,65-210-102.7-159c-7.4,2.3-15.4,0.3-22.9,1.3c-9.2,1.2-18.5,0-27.3-2.9l-18.4-6
	c-11.4-3.7-20.8-12.1-25.5-23.2c-19-44.8-63.4-76.2-115.1-76.2c-30.1,0-42.7,41.7-77.6,32.1c-0.8,3.6-1.8,7.1-2.9,10.5
	c-4.2,12.3-9.6,24.1-15.8,35.6c-11.2,20.8-24.9,40.1-39.4,58.7c7.4,5.5,12.9,13.3,15.5,22.4c3.4,12.1,8.6,23.4,15.3,33.7
	c10.1,15.5,13.9,34.3,10.4,52.4c-1,5.2-1.5,10.6-1.5,16.1c0,19.7,6.7,37.9,17.9,52.4c14.9,19.2,7.4,47.3-15.4,55.8l-0.7,0.2
	c-10.9,4.1-22.9,2.7-33-3.1c-6.7-3.9-14.6-6-23-5.7c-22.8,0.8-28.2,35-38.4,55.5c-15,30-42.8,53.3-62.6,63.8
	c-26.3,14-59.4,2.9-79.5-19.1c-30.4-33.3-74.3-54.2-122.9-54.2c-56.2,0-105.8,27.8-136,70.4c-19.2,27.2-53.9,38.6-85.4,28.1
	c-12.8-4.2-26.4-6.5-40.6-6.5c-48.4,0-90.6,26.8-112.5,66.4c-18.5,33.4-47.8,59.6-83.6,72.9l-2.9,1.1c-17.9,6.7-37.2,2.3-50.2-10.6
	l-0.4-0.4c-11.3-11.2-17-27-14.8-42.8c0.7-5.1,1-10.3,0.8-15.6c-1.8-45.4-39.5-81.8-85-82c-29.9-0.2-56.3,15.1-71.7,38.3
	c-17.4,26.3-41.3,47.6-69.8,61.2c-71.8,34.1-173.4,92.8-173.4,177.6c0,31.9,15.9,86.9,36,109c9.1,10,23.4,26.8,36.3,42.3
	c20.8,24.8,30.9,57,27.8,89.3c-2.9,30.9-32.5,60-36.6,74c-14,47-11.2,86.3-4,90c35,18,66.4-42.3,83-32c34,21,46.4,55.9,33,116
	c-8,36-9.5,56.5,25,72c22,9.9,53.7,2.8,55-20c1-18-15-28-18-43c-1.3-6.7,3-27,15-40c20-21.6,39.5-36.9,39.5-68.5
	c0-3.4-0.2-6.9-0.6-10.2c-2.6-22.4,3.6-44.9,17.9-62.3c14.8-18.1,23.7-41.3,23.7-66.5v-0.8c-0.1-19,10.4-36.5,27.3-45
	c0.3-0.1,0.5-0.3,0.7-0.4c13.9-7.1,34.5-11.4,52.1-13.9c6.7-15.5,14.7-30.4,23.6-44.8c17.4-27.8,38.5-53.1,61.8-76.1l-2.7-1
	c-13.5-5.1-21.9-18.5-20.8-32.9c0.2-2.9,0.4-5.8,0.6-8.6c0.9-13.9,9.8-25.9,22.8-30.8h0.1c4.8-1.8,10.1-0.3,13.4,3.6
	c12.7,15.1,31.6,24.6,52.9,24.6c27.1,0,50.5-15.6,61.8-38.3c0,0,0,0,0.1,0c11.6,3.5,23.9,5.3,36.6,5.3c31,0,59.5-11,81.7-29.3
	c27.9-23,56.1-37.9,83.8-14.7c17.2,14.4,29.6,9.1,39,8.2c9.7-0.9,16.1,9.8,10.9,18c-0.6,0.9-13.9,16.8-14.9,36.8
	c-3.3,65.4,47.3,82.1,87,75c39-7,75.1-15.3,65-93c-0.1-0.8,0-15.4,0-16.2c-1.3-14.6,3.4-29,14.7-38.3c23.8-19.4,42.1-45.2,52.3-74.8
	c7.3-21.1,23.8-37.8,44.7-45.6l0.5-0.2c24.9-9.3,52.1-9.5,77.5-1.7c7.8,2.4,16.2,3.7,24.9,3.7c5.9,0,11.7-0.6,17.3-1.7
	c22.9-4.7,46.8-1.9,67.9,7.9c10.9,5,23,7.8,35.8,7.8c47.2,0,84.6-55.3,97-86.5c10.2-25.6,27.1-63.1,91-35c25,11,15.9,41.4,16.5,54.5
	c2.3,47.8,21.4,54.1,69.5,53c45.7-1.1,82.8-38.5,83.5-84.2c0-2.2,0-4.5-0.2-6.7c-1.2-19.8,5.8-39.4,19.8-53.5
	C3403,1064.9,3298.1,966.1,3331.2,926z"/>
<linearGradient id="SVGID_6_" gradientUnits="userSpaceOnUse" x1="1503.7225" y1="117.8985" x2="1552.4398" y2="-235.6461" gradientTransform="matrix(-0.5551 -0.8318 -0.8318 0.5551 1855.0496 1766.6143)">
	<stop  offset="0" style="stop-color:#00FF66"/>
	<stop  offset="1" style="stop-color:#FF90FF"/>
</linearGradient>
<path class="st7" d="M909,340.1c-62.2,5.8-72.6,91.8-58.6,112.7c16.5,24.8,67.7,29.5,73.5,78.4c2.4,19.7,19.4,34.7,32,50.1
	c6.6,8.1,13.8,15.8,22.8,21.1c7.1,4.2,14.8,6.8,22.7,8.7c7.8,1.8,15.9,3.3,23.6,5.6c9.1,2.6,18,6.1,26.3,10.6
	c15.4,8.1,71.2,8.8,88.8,9.7c10.9,0.5,22.1-2.3,31.9-8.9c21.3-14.2,25.9-30.6,32.9-54.2c21.1-70.4-23.9-240-129.7-207.4
	c-12.7,3.9-16.8,12.2-18.7,13.7c-17.4,13.4-27.6,8.3-48.9,2.9c-7-1.8-14.1-3-21.2-3.9C965.1,376.5,953.2,336.8,909,340.1z"/>
<linearGradient id="SVGID_7_" gradientUnits="userSpaceOnUse" x1="222.1151" y1="631.4912" x2="238.6683" y2="511.3632">
	<stop  offset="0" style="stop-color:#00FF66"/>
	<stop  offset="1" style="stop-color:#FF90FF"/>
</linearGradient>
<path class="st8" d="M271.3,581.7c-0.3,1.3-0.7,2.6-1.1,4c-2,6.8-1.4,14.1,1.7,20.5c1.5,3,2.2,6.3,2.1,9.9
	c-0.4,10.4-8.8,18.9-19.1,19.6c-8.1,0.5-15.2-3.7-19-10.1c-3.1-5.3-8.7-8.7-14.9-8.6c-0.1,0-0.1,0-0.2,0c-28.8,0-52.1-18.3-52.1-41
	c0-22.6,23.3-41,52.1-41c0.1,0,0.2,0,0.3,0c6,0,11.5-2.8,15.2-7.5c5.9-7.6,15.5-12.5,26.3-12.5c18,0,32.6,13.6,32.6,30.4
	c0,11.2-6.4,20.9-16,26.2C275.2,573.8,272.4,577.4,271.3,581.7z"/>
<linearGradient id="SVGID_8_" gradientUnits="userSpaceOnUse" x1="70.3983" y1="84.4234" x2="76.64" y2="39.1269">
	<stop  offset="0" style="stop-color:#00FF66"/>
	<stop  offset="1" style="stop-color:#FF90FF"/>
</linearGradient>
<path class="st9" d="M94.1,67.4c0,6.1-5.2,11-11.6,11c0,0,0,0,0,0c-2.5,0-4.9,0.7-6.7,2.4c-2.3,2.1-5,3.2-7.8,3.2
	c-8.5,0-15.3-10.3-15.3-23s6.8-23,15.3-23c5.3,0,10,4.1,12.7,10.2c1.8,4,4.6,7.6,8.3,10C92,60.2,94.1,63.6,94.1,67.4z"/>
<linearGradient id="SVGID_9_" gradientUnits="userSpaceOnUse" x1="-137.6659" y1="146.3658" x2="326.9167" y2="146.3658">
	<stop  offset="0" style="stop-color:#00FF66"/>
	<stop  offset="1" style="stop-color:#FF90FF"/>
</linearGradient>
<path class="st10" d="M182,154.2c-4.7,1.4-7.8,5.8-7.8,10.7c0,0,0,0.1,0,0.1c0,14.8-12.9,26.8-28.9,26.8c-15.9,0-29.4-0.5-29.4-15.3
	c0,0,0-0.1,0-0.1c0.2-5.2-3.9-9.4-9.1-9.9c-0.3,0-0.7-0.1-1-0.1c-6.2-1-11.1-6.1-11.8-12.4c-0.9-8.6,5.7-15.8,14.1-15.8l0.1,0
	c2.9,0,5.6-1.6,6.9-4.2c3.1-6.3,10.1-10.6,18.2-10.6l0.1,0c4.3,0,8.3-2.4,10.3-6.3c4.9-9.5,15.8-16.2,28.4-16.2
	c17.2,0,31.2,12.2,31.2,27.3C203.3,140.3,194.4,150.6,182,154.2z"/>
<linearGradient id="SVGID_10_" gradientUnits="userSpaceOnUse" x1="660.6771" y1="179.1307" x2="1390.0741" y2="179.1307" gradientTransform="matrix(0.5 -0.866 0.866 0.5 490.9713 997.764)">
	<stop  offset="0" style="stop-color:#00FF66"/>
	<stop  offset="1" style="stop-color:#FF90FF"/>
</linearGradient>
<path class="st11" d="M1266.7,64.5c18.7,10.8,20.3,43,3.6,71.9c-3.9,6.8-8.5,12.8-13.5,17.9c-7.9,8.1-13.3,18.1-15.7,29.2
	c-0.8,3.7-2.2,7.3-4.1,10.6c-12.3,21.2-43.3,26.3-69.3,11.3c-26-15-37.2-44.4-24.9-65.7c0.2-0.4,0.5-0.9,0.8-1.3
	c6.1-9.7,7.9-21.5,4-32.3c-2.5-6.8-2.4-13.5,0.7-18.9c7.8-13.6,14.5-30.5,36.3-17.9c0,0,13.3,12.8,17.4,16.2c3,2.4,7.6,1.2,10.2-1.8
	C1228.9,64.2,1251.2,55.6,1266.7,64.5z"/>
</svg>
