<?xml version="1.0" encoding="utf-8"?>
<!-- Generator: Adobe Illustrator 23.0.2, SVG Export Plug-In . SVG Version: 6.00 Build 0)  -->
<svg version="1.1" id="Layer_1" xmlns="http://www.w3.org/2000/svg" xmlns:xlink="http://www.w3.org/1999/xlink" x="0px" y="0px"
	 viewBox="0 0 1366 736" style="enable-background:new 0 0 1366 736;" xml:space="preserve">
<style type="text/css">
	.st0{fill:none;}
	.st1{clip-path:url(#SVGID_2_);}
	.st2{fill:#FFFFFF;stroke:#000000;stroke-width:0.25;stroke-miterlimit:10;}
	.st3{fill:#FFFFFF;}
	.st4{fill:#D0FFB8;}
	.st5{fill:url(#SVGID_1);}
</style>
<pattern  y="736" width="91" height="134" patternUnits="userSpaceOnUse" id="SVGID_1" viewBox="7.5 -162.1 91 134" style="overflow:visible;">
	<g>
		<rect x="7.5" y="-162.1" class="st0" width="91" height="134"/>
		<g>
			<defs>
				<rect id="SVGID_1_" x="7.5" y="-162.1" width="91" height="134"/>
			</defs>
			<clipPath id="SVGID_2_">
				<use xlink:href="#SVGID_1_"  style="overflow:visible;"/>
			</clipPath>
			<g class="st1">
				<g>
					<path class="st2" d="M108.1-1.2c0,0.2-0.1,0.3-0.4,0.4c-0.6,0.1-1.1,0.3-1.7,0.4c-1,0.1-1.9,0.2-2.9,0.3l0,0
						c-0.4-0.1-0.7-0.1-1.1-0.2c-0.2-0.1-0.5-0.1-0.7-0.2l-0.1-0.1c0-0.7-0.1-1.4-0.1-2.1v-0.1H101c-0.7,0.6-1.6,0.7-2.5,0.8
						c-0.5,0.1-1,0.1-1.5,0.2c-0.3,0-0.5,0-0.8,0l-0.1-0.1c-0.6-1.7-1.2-3.3-2-4.9c-0.7-1.4-1.2-2.9-1.7-4.3
						c-0.2-0.5-0.4-0.9-0.6-1.4c-0.4-0.9-0.5-1.8-0.6-2.7c-0.1-1.4-0.1-2.9-0.1-4.3c0-1,0-2,0-2.9c0-1,0.1-1.9,0.2-2.9
						c0-0.4,0.2-0.8,0.3-1.2c0.1-0.4,0.2-0.8,0.2-1.1c0.1-1.3,0.3-2.6,0.3-3.9c0.1-0.9,0-1.7,0.1-2.6c0-0.2,0-0.4,0.1-0.5
						s0.1-0.3,0.4-0.3c0.6,0,0.6,0,0.7-0.5c0.1-0.7,0.2-1.3,0.4-2c0.3-1.1,0.8-2.1,1.2-3.2c0.2-0.4,0.4-0.9,0.7-1.3
						c0,0,0.1-0.1,0.2-0.1s0.2,0,0.3-0.1c0.1,0,0.1-0.1,0.1-0.1s-0.1,0-0.1-0.1s-0.1-0.1-0.1-0.1c0-0.1,0-0.2,0.1-0.2
						c0.4-0.2,0.3-0.4,0.2-0.7c0,0,0,0,0-0.1c-0.4-0.1-0.3-0.3-0.2-0.6c0-0.1,0-0.3,0.2-0.4v-0.1c0-1.6,0-3.2,0.1-4.8
						c0-0.1,0-0.2,0.2-0.2c0.3,0,0.6-0.1,0.8-0.1c0.1,0,0.2,0.1,0.2,0.1c0.3,1.4,0.6,2.8,0.6,4.2c0,0.8,0.4,1.4,0.9,2
						c0.1,0.1,0.2,0.1,0.3,0c0.7-0.9,1.2-1.8,1.3-2.9c0.1-1.1,0.3-2.2,0.4-3.3c0-0.1,0.1-0.2,0.2-0.2c0.3,0,0.6,0,0.9,0
						c0.1,0,0.1,0.1,0.1,0.1c0.2,1.6,0.3,3.2,0.5,4.8c0,0.2,0.2,0.4,0.2,0.6c0.1,0.2,0,0.4-0.2,0.4c-0.1,0-0.1,0.1-0.1,0.2
						c-0.1,0.2,0,0.4,0.2,0.5s0.2,0.2,0,0.3v0.1l0.1,0.1l0,0c0.5,0,0.6,0.2,0.7,0.6c0.2,0.7,0.3,1.3,0.6,2c0.2,0.8,0.5,1.5,0.7,2.3
						c0.2,0.7,0.3,1.4,0.5,2.1c0,0.1,0,0.3-0.1,0.4c0,0.1,0,0.2,0.1,0.2c0.2,0,0.4,0.1,0.7,0.1c0.1,0,0.1,0.1,0.1,0.1
						c0.1,1.5,0.2,3,0.4,4.6c0.1,0.9,0.2,1.8,0.3,2.7c0,0.1,0.2,0.2,0.2,0.3c0,0.3,0.1,0.5,0,0.8c-0.1,0.2,0,0.6,0.1,0.9
						c0,0.4,0.1,0.7,0.1,1.1c0,0.1-0.1,0.2-0.1,0.3s0.1,0.3,0.1,0.4c0,0.1,0.1,0.1,0.1,0.2c-0.1,0.4,0,0.8,0.2,1.1
						c0,0.1,0,0.1-0.1,0.2c-0.1,0.1-0.2,0.2-0.2,0.2c0,0.5,0,1,0,1.5c0,1.6,0,3.1,0.2,4.7c0.2,1.9,0.3,3.8,0.4,5.7
						c0,0.6,0.1,1.1,0.1,1.7c0,0.3,0,0.6,0,0.8c0,1.6,0,3.2,0.1,4.8C108.1-2.1,108.1-1.7,108.1-1.2z M100.9-9.3
						c0-1.1-0.1-2.3-0.1-3.4c-0.1-0.9-0.2-1.9-0.3-2.8c-0.1-1.1-0.4-2.1-0.7-3.2c-0.2-0.6-0.4-1.2-0.6-1.8c-0.1-0.2-0.1-0.4-0.1-0.6
						l0,0c-0.1,0.5-0.2,0.9-0.3,1.4c-0.2,0.6-0.3,1.3-0.5,1.8c-0.3,0.7-0.7,1.4-1.1,2.1c0,0.1,0,0.1,0.1,0.2
						c0.3,0.3,0.6,0.6,0.8,0.9c0.6,1,1.2,2,1.6,3.1c0.2,0.6,0.4,1.1,0.6,1.6s0.4,1.1,0.6,1.6c0,0.1,0.1,0.1,0.1,0.2
						C100.9-8.6,100.9-8.9,100.9-9.3z"/>
					<path d="M93.4-29.1L93.4-29.1v-5h3C95.4-32.5,94.4-30.8,93.4-29.1z"/>
					<circle class="st3" cx="94.5" cy="-32.7" r="0.5"/>
					<rect x="97" y="-41" width="5.2" height="1.5"/>
					<circle cx="97.5" cy="-43.7" r="0.5"/>
				</g>
				<g>
					<path class="st2" d="M17.1-1.2c0,0.2-0.1,0.3-0.4,0.4c-0.6,0.1-1.1,0.3-1.7,0.4c-1,0.1-2,0.2-2.9,0.3c0,0,0,0,0-0.1
						c-0.4-0.1-0.7-0.1-1.1-0.1c-0.2-0.1-0.5-0.1-0.7-0.2l-0.1-0.1c0-0.7-0.1-1.4-0.1-2.1v-0.1c0,0,0,0-0.1,0C9.3-2.2,8.4-2.1,7.5-2
						C7-1.9,6.5-1.9,6-1.8c-0.3,0-0.5,0-0.8,0c0,0-0.1,0-0.1-0.1c-0.6-1.7-1.2-3.3-2-4.9c-0.7-1.4-1.2-2.9-1.7-4.3
						C1.2-11.6,1-12,0.8-12.5c-0.4-0.9-0.5-1.8-0.6-2.7c-0.1-1.4-0.1-2.9-0.1-4.3c0-1,0-2,0-2.9c0-1,0.1-1.9,0.2-2.9
						c0-0.4,0.2-0.8,0.3-1.2s0.2-0.8,0.2-1.1c0.1-1.3,0.3-2.6,0.3-4c0.1-0.9,0-1.7,0.1-2.6c0-0.2,0-0.4,0.1-0.5S1.4-35,1.7-35
						c0.6,0,0.6,0,0.6-0.5c0.1-0.6,0.2-1.3,0.4-1.9c0.3-1.1,0.8-2.1,1.2-3.2c0.2-0.4,0.4-0.9,0.7-1.3C4.6-42,4.7-42,4.8-42
						s0.2,0,0.3-0.1c0.1,0,0.1-0.1,0.1-0.1s-0.1,0-0.1-0.1S5-42.4,5-42.4c0-0.1,0-0.2,0.1-0.2c0.4-0.1,0.3-0.4,0.2-0.6v-0.1
						c-0.4-0.1-0.3-0.3-0.2-0.6c0-0.1,0-0.3,0.2-0.4v-0.1c0-1.6,0-3.2,0.1-4.8c0-0.1,0-0.2,0.2-0.2c0.3,0,0.6-0.1,0.8-0.1
						c0.1,0,0.2,0.1,0.2,0.1c0.3,1.4,0.6,2.8,0.6,4.2c0,0.8,0.4,1.4,0.9,2c0.1,0.1,0.2,0.1,0.3,0c0.7-0.9,1.2-1.8,1.3-2.9
						c0.1-1.1,0.3-2.2,0.4-3.3c0-0.1,0.1-0.2,0.2-0.2c0.3,0,0.6,0,0.9,0c0.1,0,0.1,0.1,0.1,0.1c0.2,1.6,0.3,3.2,0.5,4.8
						c0,0.2,0.2,0.4,0.2,0.6c0.1,0.2,0,0.4-0.2,0.4c-0.1,0-0.1,0.1-0.1,0.2c-0.1,0.2,0,0.4,0.2,0.5s0.2,0.2,0,0.3v0.1l0.1,0.1l0,0
						c0.5,0,0.6,0.2,0.7,0.6c0.2,0.7,0.4,1.3,0.6,2c0.2,0.8,0.5,1.5,0.7,2.3c0.2,0.7,0.3,1.4,0.5,2.1c0,0.1,0,0.3-0.1,0.4
						c0,0.1,0,0.2,0.1,0.2c0.2,0,0.4,0.1,0.7,0.1c0.1,0,0.1,0.1,0.1,0.1c0.1,1.5,0.2,3,0.4,4.5c0.1,0.9,0.2,1.8,0.3,2.7
						c0,0.1,0.2,0.2,0.2,0.3c0,0.3,0.1,0.5,0,0.8c-0.1,0.2,0,0.6,0.1,0.9c0,0.4,0.1,0.7,0.1,1.1c0,0.1-0.1,0.2-0.1,0.3
						s0.1,0.3,0.1,0.4c0,0.1,0.1,0.1,0.1,0.2c-0.1,0.4,0,0.8,0.2,1.1c0,0.1,0,0.1-0.1,0.2c0,0.1-0.1,0.2-0.1,0.2c0,0.5,0,1,0,1.5
						c0,1.6,0,3.1,0.2,4.7c0.2,1.9,0.3,3.8,0.5,5.7c0,0.6,0.1,1.1,0.1,1.7c0,0.3,0,0.6,0,0.8c0,1.6,0,3.2,0.1,4.8
						C17.1-2.1,17.1-1.7,17.1-1.2z M9.9-9.3c0-1.1-0.1-2.3-0.1-3.4c-0.1-0.9-0.2-1.9-0.3-2.8c-0.1-1.1-0.4-2.1-0.7-3.2
						c-0.2-0.6-0.4-1.2-0.6-1.8c-0.1-0.2-0.1-0.4-0.1-0.6l0,0c-0.1,0.5-0.2,0.9-0.3,1.4c-0.2,0.6-0.3,1.3-0.5,1.8
						c-0.3,0.7-0.7,1.4-1.1,2.1c0,0.1,0,0.1,0.1,0.2c0.3,0.3,0.6,0.6,0.8,0.9c0.6,1,1.2,2,1.6,3.1C8.9-11,9.1-10.5,9.3-10
						c0.2,0.5,0.4,1.1,0.6,1.6c0,0,0,0.1,0.1,0.2C9.9-8.6,9.9-8.9,9.9-9.3z"/>
					<path d="M14.4-29.1L14.4-29.1v-5.1h-3C12.4-32.5,13.4-30.8,14.4-29.1z"/>
					<circle class="st3" cx="13.5" cy="-32.9" r="0.5"/>
					<rect x="6" y="-41" width="5.2" height="1.5"/>
					<circle cx="10.6" cy="-43.7" r="0.5"/>
				</g>
				<g>
					<path class="st2" d="M62.6-68.2c0,0.2-0.1,0.3-0.4,0.4c-0.6,0.1-1.1,0.3-1.7,0.4c-1,0.2-2,0.2-2.9,0.3c0,0,0,0,0-0.1
						c-0.4-0.1-0.7-0.1-1.1-0.2c-0.2-0.1-0.5-0.1-0.7-0.2v-0.1c0-0.7-0.1-1.4-0.1-2.1v-0.1c0,0,0,0-0.1,0c-0.7,0.6-1.6,0.7-2.5,0.8
						c-0.5,0.1-1,0.1-1.5,0.2c-0.3,0-0.5,0-0.8,0L50.7-69c-0.6-1.7-1.2-3.3-2-4.9c-0.7-1.4-1.2-2.9-1.7-4.3
						c-0.2-0.5-0.4-0.9-0.6-1.3c-0.4-0.9-0.5-1.8-0.6-2.7c-0.1-1.4-0.1-2.9-0.1-4.3c0-1,0-2,0-2.9c0-1,0.1-1.9,0.2-2.9
						c0-0.4,0.2-0.8,0.3-1.2c0.1-0.4,0.2-0.8,0.2-1.1c0.1-1.3,0.3-2.6,0.3-3.9c0.1-0.9,0-1.7,0.1-2.6c0-0.2,0-0.4,0.1-0.5
						s0.1-0.3,0.4-0.3c0.6,0,0.6,0,0.7-0.5c0.1-0.7,0.2-1.3,0.4-1.9c0.3-1.1,0.8-2.1,1.2-3.2c0.2-0.4,0.4-0.8,0.7-1.3
						c0-0.1,0.1-0.1,0.2-0.1c0.1,0,0.2,0,0.3-0.1l0.1-0.1c0,0-0.1,0-0.1-0.1s-0.1-0.1-0.1-0.1c0-0.1,0-0.2,0.1-0.2
						c0.4-0.2,0.3-0.4,0.2-0.7v-0.1c-0.4-0.1-0.3-0.3-0.2-0.6c0-0.1,0-0.3,0.2-0.4v-0.1c0-1.6,0-3.2,0-4.8c0-0.1,0-0.2,0.2-0.2
						c0.3,0,0.6-0.1,0.8-0.1c0.1,0,0.2,0.1,0.2,0.1c0.3,1.4,0.5,2.8,0.6,4.2c0,0.8,0.4,1.4,0.9,2c0.1,0.1,0.2,0.1,0.3,0
						c0.7-0.9,1.2-1.8,1.3-2.9s0.3-2.2,0.4-3.3c0-0.1,0.1-0.2,0.2-0.2c0.3,0,0.6,0,0.9,0l0.1,0.1c0.2,1.6,0.3,3.2,0.5,4.8
						c0,0.2,0.2,0.4,0.2,0.6s0,0.4-0.2,0.4c0,0-0.1,0.1-0.1,0.2c0,0.2,0,0.4,0.2,0.5s0.2,0.2,0,0.3v0.1c0,0,0,0.1,0.1,0.1l0,0
						c0.5,0,0.6,0.2,0.7,0.6c0.2,0.7,0.3,1.3,0.5,2c0.2,0.8,0.5,1.5,0.7,2.3c0.2,0.7,0.3,1.4,0.5,2.1c0,0.1,0,0.3-0.1,0.4
						c0,0.1,0,0.2,0.1,0.2c0.2,0,0.4,0.1,0.7,0.1l0.1,0.1c0.1,1.5,0.2,3,0.4,4.6c0.1,0.9,0.2,1.8,0.3,2.7c0,0.1,0.2,0.2,0.2,0.3
						c0,0.3,0.1,0.5,0,0.8c-0.1,0.2,0,0.6,0,0.9s0.1,0.7,0.1,1.1c0,0.1-0.1,0.2-0.1,0.3c0,0.1,0.1,0.3,0.1,0.4s0.1,0.1,0.1,0.2
						c-0.1,0.4,0,0.8,0.2,1.1c0,0.1,0,0.1-0.1,0.2c0,0.1-0.2,0.2-0.2,0.2c0,0.5,0,1,0,1.5c0,1.6,0,3.1,0.2,4.7
						c0.2,1.9,0.3,3.8,0.5,5.7c0,0.6,0.1,1.1,0.1,1.7c0,0.3,0,0.6,0,0.8c0,1.6,0,3.2,0.1,4.8C62.6-69.1,62.6-68.7,62.6-68.2z
						 M55.4-76.3c0-1.2-0.1-2.3-0.1-3.4c-0.1-0.9-0.2-1.9-0.3-2.8c-0.1-1.1-0.4-2.2-0.7-3.2c-0.2-0.6-0.4-1.2-0.6-1.8
						c0-0.2-0.1-0.4-0.1-0.6l0,0c-0.1,0.5-0.2,0.9-0.3,1.4c-0.2,0.6-0.3,1.3-0.5,1.8c-0.3,0.7-0.7,1.4-1.1,2.1c0,0.1,0,0.2,0,0.2
						c0.3,0.3,0.6,0.6,0.8,0.9c0.6,1,1.2,2,1.6,3.1c0.2,0.6,0.4,1.1,0.6,1.6c0.2,0.5,0.4,1.1,0.6,1.6c0,0.1,0,0.1,0.1,0.2
						C55.4-75.6,55.4-75.9,55.4-76.3z"/>
					<path d="M59.9-96.1L59.9-96.1v-5.1h-3C57.9-99.5,58.9-97.8,59.9-96.1z"/>
					<path d="M47.9-96.1L47.9-96.1v-5.1h3C49.9-99.5,48.9-97.8,47.9-96.1z"/>
					<rect x="57.8" y="-92.2" width="3.8" height="1.3"/>
					<circle class="st3" cx="49" cy="-99.7" r="0.5"/>
					<circle class="st3" cx="59" cy="-99.9" r="0.5"/>
					<rect x="51.5" y="-108" width="5.2" height="1.5"/>
					<circle cx="52" cy="-110.7" r="0.5"/>
					<circle cx="56.1" cy="-110.7" r="0.5"/>
				</g>
				<path class="st2" d="M108.1-135.2c0,0.2-0.1,0.3-0.4,0.4c-0.6,0.1-1.1,0.3-1.7,0.4c-1,0.1-1.9,0.2-2.9,0.4c0,0,0,0,0-0.1
					c-0.4-0.1-0.7-0.1-1.1-0.1c-0.2-0.1-0.5-0.1-0.7-0.2l-0.1-0.1c0-0.7-0.1-1.4-0.1-2.1v-0.1H101c-0.7,0.6-1.6,0.7-2.5,0.8
					c-0.5,0.1-1,0.1-1.5,0.2c-0.3,0-0.5,0-0.8,0l-0.1-0.1c-0.6-1.7-1.2-3.3-2-4.9c-0.7-1.4-1.2-2.9-1.7-4.3
					c-0.2-0.5-0.4-0.9-0.6-1.4c-0.4-0.9-0.5-1.8-0.6-2.7c-0.1-1.4-0.1-2.9-0.1-4.3c0-1,0-2,0-2.9c0-1,0.1-1.9,0.2-2.9
					c0-0.4,0.2-0.8,0.3-1.2c0.1-0.4,0.2-0.8,0.2-1.1c0.1-1.3,0.3-2.6,0.3-3.9c0.1-0.9,0-1.7,0.1-2.6c0-0.2,0-0.4,0.1-0.5
					s0.1-0.3,0.4-0.3c0.6,0,0.6,0,0.7-0.5c0.1-0.6,0.2-1.3,0.4-1.9c0.3-1.1,0.8-2.1,1.2-3.2c0.1-0.7,0.3-1.1,0.6-1.5
					c0-0.1,0.1-0.1,0.2-0.1s0.2,0,0.3-0.1c0.1,0,0.1-0.1,0.1-0.1s-0.1,0-0.1-0.1l-0.1-0.1c0-0.1,0-0.2,0.1-0.2
					c0.4-0.1,0.3-0.4,0.2-0.6v-0.1c-0.4-0.1-0.3-0.4-0.2-0.6c0-0.1,0-0.3,0.2-0.4v-0.1c0-1.6,0-3.2,0.1-4.8c0-0.1,0-0.2,0.2-0.2
					c0.3,0,0.6-0.1,0.8-0.1c0.1,0,0.2,0.1,0.2,0.1c0.3,1.5,0.5,2.9,0.6,4.3c0,0.8,0.4,1.4,0.9,2c0.1,0.1,0.2,0.1,0.3,0
					c0.7-0.9,1.2-1.8,1.3-2.9c0.1-1.1,0.3-2.2,0.4-3.3c0-0.1,0.1-0.2,0.2-0.2c0.3,0,0.6,0,0.9,0c0.1,0,0.1,0.1,0.1,0.1
					c0.2,1.6,0.3,3.2,0.5,4.8c0,0.2,0.2,0.4,0.2,0.6c0.1,0.2,0,0.4-0.2,0.4c-0.1,0-0.1,0.1-0.1,0.2c-0.1,0.2,0,0.4,0.2,0.5
					c0.2,0.1,0.2,0.2,0,0.4v0.1l0.1,0.1l0,0c0.5,0,0.6,0.2,0.7,0.6c0.2,0.7,0.3,1.3,0.6,2c0.2,0.8,0.5,1.5,0.7,2.3
					c0.2,0.7,0.3,1.4,0.5,2.1c0,0.1,0,0.3-0.1,0.4c0,0.1,0,0.2,0.1,0.2c0.2,0,0.4,0.1,0.7,0.1c0.1,0,0.1,0.1,0.1,0.1
					c0.1,1.5,0.2,3,0.4,4.6c0.1,0.9,0.2,1.8,0.3,2.7c0,0.1,0.2,0.2,0.2,0.3c0,0.3,0.1,0.5,0,0.8c-0.1,0.2,0,0.6,0.1,0.9
					c0,0.4,0.1,0.7,0.1,1.1c0,0.1-0.1,0.2-0.1,0.3c0,0.1,0.1,0.3,0.1,0.4c0,0.1,0.1,0.1,0.1,0.2c-0.1,0.4,0,0.8,0.2,1.1
					c0,0.1,0,0.1-0.1,0.2c-0.1,0.1-0.2,0.2-0.2,0.2c0,0.5,0,1,0,1.5c0,1.6,0,3.1,0.2,4.7c0.2,1.9,0.3,3.8,0.4,5.7
					c0,0.6,0.1,1.1,0.1,1.7c0,0.3,0,0.6,0,0.8c0,1.6,0,3.2,0.1,4.8C108.1-136.1,108.1-135.7,108.1-135.2z M100.9-143.3
					c0-1.1-0.1-2.3-0.1-3.4c-0.1-0.9-0.2-1.9-0.3-2.8c-0.1-1.1-0.4-2.1-0.7-3.2c-0.2-0.6-0.4-1.2-0.6-1.8c-0.1-0.2-0.1-0.4-0.1-0.6
					l0,0c-0.1,0.5-0.2,0.9-0.3,1.4c-0.2,0.6-0.3,1.3-0.5,1.8c-0.3,0.7-0.7,1.4-1.1,2.1c0,0.1,0,0.1,0.1,0.2c0.3,0.3,0.6,0.6,0.8,0.9
					c0.6,1,1.2,2,1.6,3.1c0.2,0.6,0.4,1.1,0.6,1.6s0.4,1.1,0.6,1.6c0,0.1,0.1,0.1,0.1,0.2C100.9-142.6,100.9-142.9,100.9-143.3z"/>
				<g>
					<path class="st2" d="M17.1-135.2c0,0.2-0.1,0.3-0.4,0.4c-0.6,0.1-1.1,0.3-1.7,0.4c-1,0.1-1.9,0.2-2.9,0.4c0,0,0,0,0-0.1
						c-0.4-0.1-0.7-0.1-1.1-0.1c-0.2-0.1-0.5-0.1-0.7-0.2l-0.1-0.1c0-0.7-0.1-1.4-0.1-2.1v-0.1H10c-0.7,0.6-1.6,0.7-2.5,0.8
						c-0.5,0.1-1,0.1-1.5,0.2c-0.3,0-0.5,0-0.8,0l-0.1-0.1c-0.6-1.7-1.2-3.3-2-4.9c-0.7-1.4-1.2-2.9-1.7-4.3
						c-0.2-0.5-0.4-0.9-0.6-1.4c-0.4-0.9-0.5-1.8-0.6-2.7c0-1.5,0-3-0.1-4.4c0-1,0-2,0-2.9c0-1,0.1-1.9,0.2-2.9
						c0-0.4,0.2-0.8,0.3-1.2c0.1-0.4,0.2-0.8,0.2-1.1c0.1-1.3,0.3-2.6,0.3-3.9c0.1-0.9,0-1.7,0.1-2.6c0-0.2,0-0.4,0.1-0.5
						c0.1-0.1,0.1-0.3,0.4-0.3c0.6,0,0.6,0,0.6-0.5c0.1-0.6,0.2-1.3,0.4-1.9c0.3-1.1,0.8-2.1,1.2-3.2c0.2-0.6,0.4-1,0.7-1.4
						c0-0.1,0.1-0.1,0.2-0.1s0.2,0,0.3-0.1c0.1,0,0.1-0.1,0.1-0.1s-0.1,0-0.1-0.1L5-176.4c0-0.1,0-0.2,0.1-0.2
						c0.4-0.1,0.3-0.4,0.2-0.6v-0.1c-0.4-0.1-0.3-0.4-0.3-0.6c0-0.1,0-0.3,0.2-0.4v-0.1c0-1.6,0-3.2,0.1-4.8c0-0.1,0-0.2,0.2-0.2
						c0.3,0,0.6-0.1,0.8-0.1c0.1,0,0.2,0.1,0.2,0.1c0.4,1.5,0.6,2.9,0.7,4.3c0,0.8,0.4,1.4,0.9,2c0.1,0.1,0.2,0.1,0.3,0
						c0.7-0.9,1.2-1.8,1.3-2.9c0.1-1.1,0.3-2.2,0.4-3.3c-0.1-0.1,0-0.2,0.1-0.2c0.3,0,0.6,0,0.9,0c0.1,0,0.1,0.1,0.1,0.1
						c0.2,1.6,0.3,3.2,0.5,4.8c0,0.2,0.2,0.4,0.2,0.6c0.1,0.2,0,0.4-0.2,0.4c-0.1,0-0.1,0.1-0.1,0.2c-0.1,0.2,0,0.4,0.2,0.5
						c0.3,0.2,0.3,0.3,0.1,0.4v0.1l0.1,0.1l0,0c0.5,0,0.6,0.2,0.7,0.6c0.2,0.7,0.4,1.3,0.6,2c0.2,0.8,0.5,1.5,0.7,2.3
						c0.2,0.7,0.3,1.4,0.5,2.1c0,0.1,0,0.3-0.1,0.4c0,0.1,0,0.2,0.1,0.2c0.2,0,0.4,0.1,0.7,0.1c0.1,0,0.1,0.1,0.1,0.1
						c0.1,1.5,0.2,3,0.4,4.6c0.1,0.9,0.2,1.8,0.3,2.7c0,0.1,0.2,0.2,0.2,0.3c0,0.3,0.1,0.5,0,0.8c-0.1,0.2,0,0.6,0.1,0.9
						c0,0.4,0.1,0.7,0.1,1.1c0,0.1-0.1,0.2-0.1,0.3c0,0.1,0.1,0.3,0.1,0.4c0,0.1,0.1,0.1,0.1,0.2c-0.1,0.4,0,0.8,0.2,1.1
						c0,0.1,0,0.1-0.1,0.2c0,0.1-0.1,0.2-0.1,0.2c0,0.5,0,1,0,1.5c0,1.6,0,3.1,0.2,4.7c0.2,1.9,0.3,3.8,0.5,5.7
						c0,0.6,0.1,1.1,0.1,1.7c0,0.3,0,0.6,0,0.8c0,1.6,0,3.2,0.1,4.8C17.1-136.1,17.1-135.7,17.1-135.2z M9.9-143.3
						c0-1.1-0.1-2.3-0.1-3.4c-0.1-0.9-0.2-1.9-0.3-2.8c-0.1-1.1-0.4-2.1-0.7-3.2c-0.2-0.6-0.4-1.2-0.6-1.8c-0.1-0.3-0.1-0.5-0.2-0.7
						l0,0c-0.1,0.5-0.2,0.9-0.3,1.4c-0.2,0.6-0.3,1.3-0.5,1.8c-0.3,0.8-0.7,1.5-1.1,2.2c0,0.1,0,0.1,0.1,0.2
						c0.3,0.3,0.6,0.6,0.8,0.9c0.6,1,1.2,2,1.6,3.1c0.1,0.6,0.3,1.1,0.5,1.7c0.2,0.5,0.4,1.1,0.6,1.6c0,0.1,0.1,0.1,0.1,0.2
						C9.9-142.6,9.9-142.9,9.9-143.3z"/>
					<rect x="12.3" y="-159.3" class="st3" width="3.8" height="1.4"/>
				</g>
			</g>
		</g>
	</g>
</pattern>
<rect class="st4" width="1366" height="736"/>
<g>
	<path d="M576.5-59.2c0-1.4,0-2.8-0.1-4.2c0-0.2,0-0.5,0-0.7c0-0.5-0.1-1-0.1-1.4c-0.1-1.7-0.2-3.3-0.4-5c-0.2-1.4-0.1-2.7-0.2-4.1
		c0-0.4,0-0.9,0-1.3c0-0.1,0.1-0.1,0.1-0.2s0.1-0.1,0.1-0.2c-0.2-0.3-0.3-0.6-0.1-1c0,0-0.1-0.1-0.1-0.2s-0.1-0.2-0.1-0.4
		c0-0.1,0.1-0.1,0.1-0.2c0-0.3,0-0.6-0.1-0.9c0-0.3-0.2-0.6,0-0.8c0.1-0.3,0-0.5,0-0.7c0-0.1-0.1-0.2-0.1-0.3
		c-0.1-0.8-0.2-1.6-0.3-2.4c-0.1-1.3-0.2-2.6-0.3-3.9l-0.1-0.1c-0.2,0-0.4-0.1-0.6-0.1c-0.1,0-0.2-0.1-0.1-0.2
		c0-0.1,0.1-0.3,0.1-0.4c-0.1-0.6-0.2-1.2-0.4-1.8c-0.2-0.7-0.4-1.3-0.6-2c-0.2-0.6-0.3-1.1-0.5-1.7c-0.1-0.3-0.2-0.5-0.6-0.5l0,0
		c0,0-0.1,0-0.1-0.1v-0.1c0.2-0.1,0.1-0.3,0-0.3c-0.2-0.1-0.3-0.2-0.2-0.4c0-0.1,0-0.2,0.1-0.2c0.2-0.1,0.3-0.2,0.2-0.4
		c0-0.2-0.2-0.3-0.2-0.5c-0.2-1.4-0.3-2.8-0.5-4.2l-0.1-0.1c-0.3,0-0.5,0-0.8,0c-0.1,0-0.2,0-0.2,0.1c-0.1,1-0.3,1.9-0.4,2.9
		c-0.1,0.9-0.5,1.7-1.1,2.5c-0.1,0.1-0.2,0.1-0.2,0c-0.4-0.6-0.7-1.1-0.8-1.8c0-1.2-0.3-2.4-0.5-3.6c0-0.1-0.1-0.1-0.2-0.1
		c-0.3,0-0.5,0.1-0.7,0.1c-0.1,0-0.2,0.1-0.2,0.2c0,1.4,0,2.8,0,4.2v0.1c-0.2,0-0.2,0.2-0.2,0.3c0,0.2-0.1,0.4,0.2,0.5
		c0,0,0,0,0,0.1c0,0.2,0.1,0.4-0.2,0.6c0,0,0,0.1-0.1,0.2c0,0,0,0.1,0.1,0.1s0.1,0.1,0.1,0.1s0,0.1-0.1,0.1s-0.2,0-0.3,0.1
		c-0.1,0-0.2,0.1-0.2,0.1c-0.2,0.4-0.4,0.7-0.6,1.1c-0.4,0.9-0.8,1.8-1.1,2.8c-0.2,0.6-0.3,1.1-0.3,1.7c-0.1,0.4-0.1,0.5-0.6,0.5
		c-0.2,0-0.3,0.2-0.3,0.3c-0.1,0.1-0.1,0.3-0.1,0.5c0,0.8,0,1.5,0,2.2c-0.1,1.2-0.2,2.3-0.3,3.4c0,0.3-0.1,0.7-0.2,1
		c-0.1,0.4-0.2,0.7-0.3,1.1c-0.1,0.8-0.1,1.7-0.1,2.5s0,1.7,0,2.6c0,1.2,0.1,2.5,0.1,3.7c0,0.8,0.2,1.6,0.5,2.4
		c0.2,0.4,0.4,0.8,0.5,1.2c0.5,1.3,0.9,2.5,1.5,3.8c0.7,1.4,1.2,2.8,1.7,4.3c0,0,0,0.1,0.1,0.1c0.2,0,0.4,0,0.7,0
		c0.4,0,0.9-0.1,1.3-0.1c0.8-0.1,1.5-0.2,2.1-0.7c0,0,0,0,0.1,0c0,0,0,0,0,0.1c0,0.6,0.1,1.2,0.1,1.8v0.1c0.2,0.1,0.4,0.2,0.6,0.2
		c0.3,0.1,0.6,0.1,1,0.1l0,0c0.8-0.1,1.7-0.2,2.5-0.3c0.5-0.1,1-0.3,1.5-0.4c0.2,0,0.3-0.2,0.3-0.3
		C576.5-58.4,576.5-58.8,576.5-59.2z M570.3-64c0-0.1-0.1-0.1-0.1-0.2c-0.2-0.5-0.4-0.9-0.5-1.4c-0.2-0.5-0.4-0.9-0.5-1.4
		c-0.3-0.9-0.8-1.8-1.4-2.7c-0.2-0.3-0.5-0.5-0.7-0.8c0-0.1-0.1-0.1,0-0.2c0.3-0.6,0.7-1.2,0.9-1.8c0.2-0.5,0.3-1.1,0.5-1.6
		c0.1-0.4,0.2-0.8,0.3-1.2l0,0c0,0.2,0.1,0.3,0.1,0.5c0.2,0.5,0.3,1.1,0.5,1.6c0.3,0.9,0.5,1.8,0.6,2.8c0.1,0.8,0.2,1.6,0.3,2.4
		c0.1,1,0.1,2,0.1,3C570.3-64.7,570.3-64.4,570.3-64z"/>
	<path class="st3" d="M574.2-82.2L574.2-82.2v-4.4h-2.6C572.5-85.2,573.3-83.7,574.2-82.2z"/>
	<path class="st3" d="M563.8-82.2L563.8-82.2v-4.4h2.6C565.5-85.2,564.6-83.7,563.8-82.2z"/>
	<rect x="572.4" y="-78.9" class="st3" width="3.3" height="1.2"/>
	<circle cx="564.7" cy="-85.4" r="0.4"/>
	<circle cx="573.4" cy="-85.5" r="0.4"/>
	<rect x="566.9" y="-92.6" class="st3" width="4.5" height="1.3"/>
	<circle class="st3" cx="567.3" cy="-94.9" r="0.4"/>
	<circle class="st3" cx="570.9" cy="-94.9" r="0.4"/>
</g>
<rect class="st5" width="1366" height="736"/>
<g>
	<g>
		<path d="M640.7-122.7c-0.1,0.4-0.1,0.8-0.2,1.2c-0.1,0.7-0.3,1.3-0.5,2c-0.1,0.5-0.1,1-0.2,1.6c0,0.6-0.1,1.2-0.1,1.8
			c-1.2,0.3-2.4,0-3.5-0.3c-0.5-0.1-0.9-0.3-1.3-0.5c-0.1,0-0.1-0.2-0.1-0.3c0.1-0.5,0.2-0.9,0.3-1.4c0-0.2,0.1-0.3,0.1-0.5
			c0-0.8,0.1-1.7,0.2-2.5c0-0.4,0.1-0.8,0.3-1.2c0.1-0.1,0.1-0.3,0.1-0.5c0-0.4,0-0.8,0.1-1.2c0.1-0.6,0.1-1.2,0.2-1.7
			c0.1-0.8,0.3-1.5,0.5-2.2c0.1-0.6,0.2-1.1,0.3-1.7c0-0.2,0.1-0.3,0.3-0.2c1.2,0.3,2.5,0.3,3.7,0.3s2.5-0.2,3.8-0.3
			c0.4,0,0.4,0,0.5,0.4s0.1,0.8,0.3,1.2c0.1,0.3,0.1,0.7,0.2,1c0.1,0.6,0.2,1.1,0.3,1.7c0.1,0.9,0.2,1.8,0.3,2.7
			c0,0.3,0.1,0.5,0.2,0.8c0,0.1,0,0.1,0,0.1c-0.2,0.2-0.1,0.3,0,0.5c0,0.2,0.1,0.5,0.2,0.7c0,0.1,0,0.1,0,0.2c-0.1,0.5,0,1,0,1.5
			c0,0.6,0.1,1.3,0.1,1.9c0,0.2,0,0.3,0.1,0.5s-0.1,0.3-0.2,0.3c-0.1,0-0.3,0.1-0.4,0.2c-0.4,0.3-0.9,0.3-1.4,0.3
			c-0.7,0.1-1.4,0.1-2,0.1c-0.3,0-0.6,0-0.9,0c-0.2,0-0.3-0.1-0.3-0.4c-0.1-1.3-0.1-2.5-0.3-3.7C641-121.1,640.9-121.9,640.7-122.7
			L640.7-122.7z"/>
	</g>
	<path class="st3" d="M645.8-126L645.8-126l-0.7-3.2l-1.9,0.4C644-127.9,644.9-127,645.8-126z"/>
	<path class="st3" d="M636.2-126L636.2-126l0.6-3.2l1.9,0.4C637.9-127.9,637-127,636.2-126z"/>
	
		<rect x="643.8" y="-121.8" transform="matrix(0.9671 -0.2545 0.2545 0.9671 52.1208 160.1672)" class="st3" width="2.5" height="0.9"/>
	<circle cx="637.2" cy="-128.1" r="0.3"/>
	<circle cx="644.7" cy="-128.1" r="0.3"/>
</g>
</svg>
