<svg xmlns="http://www.w3.org/2000/svg" viewBox="0 0 1393 2837"><defs><style>.cls-1{fill:#fff;}.cls-2{fill:none;stroke:#000;stroke-miterlimit:10;stroke-width:3px;}</style></defs><title>hesehus-background1</title><g id="flow-backgr"><rect class="cls-1" x="-92" y="-50" width="1544" height="2961"/></g><g id="flow"><path class="cls-2" d="M-25-5.5V20.9c0,8.63,0,19.29.72,31.68C-22,74-14,94-12.93,115.08c1.62,5.71,3.88,11.41,6.18,17.33C-.06,148.89,5,166.56-3.94,183.25A268.06,268.06,0,0,0-12.06,209c-7.12,25.73-13.67,51-12.87,77.87C-25,312.58-25,339.75-25,368.18V721.55c.5,8.36.94,16.69,1.27,25C-18,771-13,797-24.51,821.28c-.47,11.29-.49,22.63-.49,34V983q0,16.23.12,32.46C-10,1048-25,1081-25,1114.52v543.2c0,6.7,0,13.4.17,20.09C-23,1711-19,1744-10,1777c12,47-5,91-12,137-1,8-4,17-1.36,25.2a137.57,137.57,0,0,0,4.84,29.89c5.49,19.68,6.22,39.6.34,59.89s-6.3,40-6.82,59.46v533.47a294,294,0,0,0,2.64,42.51C-8,2703-3,2740-24.94,2777.43c0,22.44-.06,43-.06,61.59V2955.5"/><path class="cls-2" d="M-5.08-6.12V20.33c0,8.64-.29,19.34.71,31.73C-3.33,65,.37,77.3,3.09,89.73a155.67,155.67,0,0,1,3.69,24.08c0,.29,0,.58,0,.87C8.48,120.4,10.73,126.1,13,132c6.81,16.48,10.8,33.65,2.85,50.86-3.78,8.21-5.76,17-8.17,25.52-1.07,3.73-2.06,7.48-3,11.22-1.42,5.41-2.77,10.82-4,16.25A216,216,0,0,0-5,286.42c.35,25.8-.07,53-.07,81.48V663.28q0,12.94-.08,26.05c-.1,10.73-.41,21.55,0,32.42.27,8.34,1,16.63,1.34,24.9,1.76,7.49,3.43,15.12,4.58,22.8a121.79,121.79,0,0,1,1.44,23.78A74.57,74.57,0,0,1-4.6,821.52c-.25,6.31-.37,12.64-.43,19q-.1,7.51-.14,15.08c-.15,29.23-.19,58.88.09,88.81v39.05q0,5.4,0,10.78,0,10.86.1,21.74a75.13,75.13,0,0,1,6.4,28.08c1,23.46-6.52,47.17-6.52,71.14v519.29c0,8.29-.11,16.53-.14,24.77,0,6.69-.13,13.38.12,20,.38,9.84,1.31,19.65,2.34,29.44,1.44,13.56,3.32,27.08,5.87,40.59,1.83,9.66,4.08,19.3,6.61,29,10.73,41.15-1.29,80.18-9,120.18-1.06,5.52-2.12,11-2.89,16.61-1.09,8-3.95,17-1.37,25.16a145.45,145.45,0,0,0,1.74,16.24,132.31,132.31,0,0,0,3,13.61,113.77,113.77,0,0,1,3.9,41.41,102.9,102.9,0,0,1-3.5,18.38,168.37,168.37,0,0,0-5.69,34.62c-.59,8.3-.9,16.53-1,24.74-.13,9.79,0,19.54,0,29.24v503.33a298.73,298.73,0,0,0,2.6,42.44c6.49,17.65,11,35,12,52.12a106.19,106.19,0,0,1-4.75,38.71,112.66,112.66,0,0,1-9.89,22q-.08,24.85,0,46.64,0,7.62,0,14.83c0,5.27,0,10.39,0,15.33v101"/><path class="cls-2" d="M14.85-6.74V19.75c0,8.66-.3,19.38.69,31.79,1,12.89,4.67,25.27,7.35,37.75a157.13,157.13,0,0,1,3.65,24.12l.06.87c1.66,5.73,3.92,11.44,6.22,17.38,6.93,16.5,10.89,33.69,2.91,50.9C32,190.7,30,199.43,27.5,207.9c-1.09,3.72-2.06,7.48-3,11.22-1.39,5.43-2.72,10.85-3.92,16.29A218.76,218.76,0,0,0,14.91,286c.35,25.84-.06,53.09-.06,81.6V663.44c0,8.63,0,17.32-.16,26.07-.2,10.72-.5,21.56-.11,32.45.3,8.3,1,16.55,1.41,24.79,1.77,7.49,3.42,15.14,4.56,22.84A122.91,122.91,0,0,1,22,793.41a75.89,75.89,0,0,1-6.65,28.35c-.25,6.32-.37,12.66-.42,19q-.17,7.51-.23,15.09c-.32,29.26-.38,59,.17,88.9q0,19.46,0,39.11,0,5.4,0,10.8,0,10.88.11,21.77a76.65,76.65,0,0,1,6.3,28.14c1,23.51-6.42,47.26-6.42,71.27v489.73c0,10.15,0,20.29,0,30.41,0,8.32-.19,16.54-.27,24.78-.07,6.68-.17,13.35.08,20,.37,9.82,1.33,19.61,2.4,29.38,1.49,13.54,3.36,27,5.88,40.51,1.8,9.65,4,19.28,6.51,29,10.58,41.08-1.27,80.06-8.83,120-1.05,5.51-2.09,11-2.85,16.59-1.09,8-3.92,16.94-1.38,25.12a144.62,144.62,0,0,0,1.68,16.2A133.69,133.69,0,0,0,21,1971.12a115.92,115.92,0,0,1,3.89,41.35,103.2,103.2,0,0,1-3.42,18.35,170.15,170.15,0,0,0-5.59,34.56c-.58,8.29-.89,16.51-1,24.71-.13,9.77,0,19.5,0,29.18v502.49a301,301,0,0,0,2.56,42.37c6.39,17.62,10.88,34.91,11.82,52a106.42,106.42,0,0,1-4.73,38.64,115.2,115.2,0,0,1-9.83,22c-.07,16.52-.07,32.06.09,46.54q0,7.6.07,14.8,0,7.91,0,15.3v100.78"/><path class="cls-2" d="M34.77-7.35V19.18c0,8.67-.29,19.41.69,31.84,1,12.88,4.6,25.29,7.24,37.82A160,160,0,0,1,46.3,113l.06.87c1.69,5.74,4,11.46,6.25,17.41,7,16.5,11,33.71,3,50.92-3.77,8.09-5.78,16.76-8.29,25.16-1.1,3.71-2.06,7.49-3,11.24q-2.09,8.14-3.87,16.31a222.81,222.81,0,0,0-5.54,50.7c.33,25.88-.07,53.16-.07,81.73V663.61c0,8.62-.07,17.31-.24,26.07-.3,10.73-.58,21.59-.16,32.48.32,8.27,1.06,16.49,1.47,24.68,1.79,7.5,3.42,15.17,4.56,22.88a125.72,125.72,0,0,1,1.39,23.86A77,77,0,0,1,35.24,822c-.25,6.33-.37,12.68-.42,19q-.21,7.53-.32,15.1c-.47,29.29-.57,59.05.26,89q0,19.49,0,39.18,0,5.4,0,10.81,0,10.9.11,21.81a77.62,77.62,0,0,1,6.21,28.2c1,23.54-6.33,47.34-6.33,71.39v490.54c0,10.17,0,20.33,0,30.46,0,8.34-.28,16.55-.42,24.78-.1,6.66-.21,13.33,0,20,.38,9.81,1.37,19.58,2.47,29.32,1.54,13.53,3.41,27,5.89,40.43,1.77,9.64,4,19.26,6.42,28.91,10.42,41-1.26,80-8.71,119.81-1,5.5-2.06,11-2.82,16.56-1.07,8-3.87,16.91-1.39,25.08a151.53,151.53,0,0,0,1.62,16.18,133,133,0,0,0,2.85,13.57,118.32,118.32,0,0,1,3.87,41.27,103.43,103.43,0,0,1-3.33,18.33,172.8,172.8,0,0,0-5.49,34.51c-.58,8.27-.87,16.48-1,24.66-.12,9.76,0,19.47,0,29.14v501.63A304.57,304.57,0,0,0,37.3,2664c6.3,17.61,10.72,34.87,11.64,52a107,107,0,0,1-4.69,38.59,118.74,118.74,0,0,1-9.77,22c-.11,16.47,0,32,.15,46.45.07,5.06.09,10,.11,14.77q0,7.89,0,15.28v100.61"/><path class="cls-2" d="M54.69-8V18.61c0,8.68-.28,19.43.68,31.89,1,12.88,4.54,25.32,7.14,37.9a162.78,162.78,0,0,1,3.54,24.21c0,.29,0,.58.07.87,1.71,5.75,4,11.48,6.28,17.43,7.16,16.51,11,33.74,3,51-3.76,8-5.79,16.65-8.34,25-1.13,3.7-2.06,7.5-3,11.26q-2.06,8.16-3.81,16.34a226.85,226.85,0,0,0-5.46,50.78c.33,25.92-.07,53.24-.07,81.85v296.7c0,8.62-.09,17.31-.32,26.09-.39,10.73-.66,21.6-.21,32.51.35,8.23,1.1,16.41,1.54,24.56,1.81,7.52,3.42,15.19,4.54,22.93a127.69,127.69,0,0,1,1.37,23.89,78.49,78.49,0,0,1-6.46,28.48c-.24,6.34-.36,12.7-.41,19.08q-.26,7.53-.41,15.11c-.63,29.32-.76,59.14.35,89.09q0,19.51,0,39.24,0,5.41,0,10.83,0,10.92.1,21.84a78.83,78.83,0,0,1,6.12,28.26c1,23.59-6.24,47.42-6.24,71.51v491.35c0,10.19,0,20.37,0,30.51,0,8.38-.38,16.56-.56,24.8-.15,6.64-.26,13.29,0,19.93.38,9.78,1.39,19.54,2.53,29.25,1.6,13.51,3.45,26.94,5.9,40.36,1.74,9.62,3.9,19.23,6.32,28.87,10.27,40.94-1.23,79.82-8.58,119.62-1,5.49-2,11-2.78,16.54-1.07,7.95-3.84,16.87-1.4,25a150.61,150.61,0,0,0,1.56,16.15,129.22,129.22,0,0,0,2.79,13.55,121.43,121.43,0,0,1,3.85,41.21,104.84,104.84,0,0,1-3.25,18.3,175.46,175.46,0,0,0-5.39,34.46c-.57,8.25-.86,16.45-1,24.61-.12,9.74,0,19.44,0,29.09V2621.6a308.31,308.31,0,0,0,2.49,42.23c6.22,17.59,10.57,34.84,11.48,51.91A107.23,107.23,0,0,1,64,2754.27a120.61,120.61,0,0,1-9.71,22c-.13,16.43,0,31.91.23,46.36.09,5.05.12,10,.14,14.74q0,7.88,0,15.25V2953"/><path class="cls-2" d="M74.62-8.59V18c0,8.7-.29,19.47.66,31.95,1,12.87,4.48,25.34,7,38a165.83,165.83,0,0,1,3.49,24.26c0,.29,0,.58.08.87,1.72,5.76,4,11.5,6.3,17.46,7.27,16.52,11.13,33.77,3,51-3.76,8-5.81,16.53-8.4,24.79-1.15,3.7-2.07,7.51-3,11.28q-2,8.16-3.76,16.37a231,231,0,0,0-5.38,50.86c.33,26-.06,53.32-.06,82v274c0,7.66,0,15.36,0,23.11,0,8.63-.13,17.32-.41,26.1-.49,10.73-.74,21.62-.26,32.54.37,8.2,1.14,16.34,1.61,24.46,1.82,7.52,3.41,15.21,4.52,23a129.93,129.93,0,0,1,1.35,23.94,79.74,79.74,0,0,1-6.36,28.54c-.24,6.35-.35,12.72-.41,19.11q-.3,7.53-.49,15.11c-.79,29.35-1,59.23.42,89.18q0,19.54,0,39.31,0,5.42,0,10.85,0,10.94.1,21.88a80.07,80.07,0,0,1,6,28.32c1,23.63-6.14,47.5-6.14,71.63V1610c0,10.2-.07,20.4,0,30.56,0,8.4-.46,16.57-.69,24.8-.19,6.63-.3,13.27,0,19.89.38,9.77,1.42,19.5,2.6,29.19,1.65,13.5,3.5,26.9,5.9,40.28,1.73,9.62,3.85,19.21,6.24,28.83,10.12,40.87-1.22,79.71-8.46,119.44-1,5.48-2,11-2.75,16.51-1.06,7.94-3.79,16.85-1.41,25a155.78,155.78,0,0,0,1.51,16.12,131.69,131.69,0,0,0,2.72,13.53A123.88,123.88,0,0,1,84,2015.31a105.05,105.05,0,0,1-3.16,18.26A178.58,178.58,0,0,0,75.57,2068c-.56,8.24-.85,16.42-.95,24.58-.12,9.72,0,19.4,0,29v499.92a312.08,312.08,0,0,0,2.45,42.16c6.12,17.58,10.41,34.8,11.31,51.85A107.92,107.92,0,0,1,83.74,2754a123.92,123.92,0,0,1-9.65,22c-.17,16.38,0,31.84.3,46.27.11,5,.14,9.94.18,14.71q0,7.86.05,15.22v100.27"/><path class="cls-2" d="M94.54-9.21V17.46c0,8.71-.28,19.5.66,32,1,12.87,4.4,25.37,6.93,38.05a168.84,168.84,0,0,1,3.44,24.3c0,.29.05.58.08.87,1.75,5.77,4,11.52,6.32,17.48,7.39,16.53,11.22,33.8,3.09,51-3.74,7.93-5.82,16.42-8.45,24.62-1.18,3.68-2.07,7.51-3,11.29-1.35,5.45-2.57,10.92-3.7,16.4a234.74,234.74,0,0,0-5.31,51c.33,26-.06,53.39-.06,82.08V641c0,7.67,0,15.38,0,23.14,0,8.63-.15,17.32-.48,26.12a315.41,315.41,0,0,0-.32,32.57c.39,8.16,1.18,16.27,1.68,24.34,1.83,7.53,3.4,15.24,4.5,23a132.12,132.12,0,0,1,1.33,24A80.93,80.93,0,0,1,95,822.7c-.24,6.37-.35,12.75-.4,19.15Q94.23,849.38,94,857c-1,29.37-1.14,59.31.51,89.27q0,19.57,0,39.37c0,3.62,0,7.24,0,10.87q0,10.95.1,21.91a81.82,81.82,0,0,1,5.95,28.38c1,23.68-6.06,47.59-6.06,71.76v493c0,10.23-.08,20.45,0,30.61,0,8.43-.55,16.58-.83,24.81-.23,6.61-.35,13.24-.09,19.85.38,9.75,1.45,19.47,2.65,29.13,1.71,13.48,3.55,26.86,5.92,40.2,1.7,9.61,3.79,19.18,6.14,28.79,10,40.81-1.2,79.6-8.33,119.26-1,5.47-2,11-2.71,16.49-1,7.93-3.76,16.81-1.42,24.95a157.37,157.37,0,0,0,1.45,16.09,127.91,127.91,0,0,0,2.65,13.51,126.77,126.77,0,0,1,3.81,41.08,104.44,104.44,0,0,1-3.07,18.23,181.61,181.61,0,0,0-5.19,34.36c-.55,8.23-.84,16.39-.94,24.53-.12,9.71,0,19.37,0,29v499.08A314.58,314.58,0,0,0,97,2663.54c6,17.56,10.26,34.76,11.14,51.77a108.2,108.2,0,0,1-4.62,38.4,127.12,127.12,0,0,1-9.59,21.93c-.19,16.34,0,31.77.37,46.18.14,5,.18,9.92.22,14.68,0,5.23,0,10.3.06,15.2v100.09"/><path class="cls-2" d="M114.47-9.83V16.88c0,8.73-.28,19.53.64,32.06,1,12.87,4.34,25.39,6.83,38.12a172.31,172.31,0,0,1,3.39,24.35c0,.29.06.59.08.88,1.77,5.77,4,11.52,6.35,17.5,7.51,16.53,11.31,33.83,3.13,51-3.73,7.87-5.83,16.3-8.5,24.43-1.21,3.68-2.08,7.52-3,11.3q-2,8.2-3.64,16.44a238.53,238.53,0,0,0-5.22,51c.31,26-.06,53.47-.06,82.2V641.08c0,7.68,0,15.4,0,23.17,0,8.63-.18,17.32-.57,26.13a283.16,283.16,0,0,0-.36,32.6c.41,8.13,1.21,16.2,1.74,24.23a229.42,229.42,0,0,1,4.48,23,133.41,133.41,0,0,1,1.32,24,82.77,82.77,0,0,1-6.17,28.66c-.24,6.37-.35,12.77-.4,19.18q-.41,7.53-.67,15.13c-1.11,29.4-1.33,59.39.59,89.36q0,19.59,0,39.43,0,5.44,0,10.89,0,11,.1,22a83.14,83.14,0,0,1,5.85,28.44c.94,23.72-6,47.67-6,71.88V1613c0,10.24-.1,20.48,0,30.65,0,8.46-.64,16.59-1,24.82-.26,6.6-.38,13.22-.13,19.82.38,9.73,1.48,19.42,2.72,29.06,1.76,13.47,3.59,26.81,5.93,40.13,1.67,9.59,3.73,19.15,6,28.75,9.81,40.73-1.18,79.47-8.21,119.07-1,5.46-2,10.94-2.68,16.46-1,7.93-3.71,16.78-1.43,24.91q.3,8.07,1.39,16.07a132.57,132.57,0,0,0,2.59,13.49,129.72,129.72,0,0,1,3.8,41,104.79,104.79,0,0,1-3,18.21,185.49,185.49,0,0,0-5.08,34.3c-.54,8.22-.82,16.37-.92,24.5-.12,9.68,0,19.33,0,28.93v498.23a316.86,316.86,0,0,0,2.38,42c5.93,17.54,10.1,34.72,11,51.71a108.68,108.68,0,0,1-4.6,38.33,130.09,130.09,0,0,1-9.52,21.91c-.22,16.29,0,31.69.44,46.09.16,5,.21,9.9.25,14.65q.08,7.83.08,15.17v99.92"/><path class="cls-2" d="M134.39-10.44V16.31c0,8.74-.28,19.56.64,32.11.93,12.86,4.24,25.42,6.72,38.2A178.6,178.6,0,0,1,145.08,111c0,.3.07.59.1.88,1.79,5.78,4.06,11.54,6.37,17.52,7.62,16.55,11.39,33.86,3.18,51.07-3.73,7.82-5.85,16.18-8.56,24.25-1.23,3.67-2.08,7.53-3,11.32-1.31,5.47-2.49,11-3.59,16.47a243.09,243.09,0,0,0-5.14,51.11c.31,26.06-.06,53.55-.06,82.33V641.2c0,7.7,0,15.43,0,23.21,0,8.63-.2,17.33-.65,26.15a257,257,0,0,0-.41,32.63c.43,8.09,1.25,16.12,1.8,24.12a221.86,221.86,0,0,1,4.48,23.08,135.69,135.69,0,0,1,1.29,24.06,84,84,0,0,1-6.08,28.73c-.23,6.38-.34,12.78-.39,19.21q-.45,7.53-.76,15.13C132.4,887,132.15,917,134.35,947q0,19.63,0,39.5,0,5.44,0,10.91,0,11,.1,22a84.53,84.53,0,0,1,5.76,28.51c.93,23.75-5.87,47.75-5.87,72v494.57c0,10.27-.11,20.52-.06,30.71,0,8.49-.73,16.6-1.11,24.82-.3,6.59-.43,13.19-.17,19.78.38,9.71,1.5,19.39,2.78,29,1.81,13.45,3.64,26.77,5.94,40,1.64,9.58,3.67,19.13,5.95,28.71,9.67,40.67-1.16,79.36-8.07,118.89-1,5.46-1.94,10.92-2.65,16.43-1,7.92-3.68,16.76-1.44,24.88q.27,8.05,1.33,16a128.75,128.75,0,0,0,2.52,13.47,133,133,0,0,1,3.78,40.94,104.49,104.49,0,0,1-2.91,18.18,188,188,0,0,0-5,34.25c-.54,8.2-.81,16.34-.91,24.45-.12,9.67,0,19.3,0,28.89v497.37a322.78,322.78,0,0,0,2.34,41.95c5.85,17.53,10,34.68,10.81,51.64a109,109,0,0,1-4.57,38.28A134.41,134.41,0,0,1,133.5,2775c-.25,16.25,0,31.62.51,46,.19,5,.24,9.89.3,14.63.06,5.21.07,10.26.08,15.14v99.76"/><path class="cls-2" d="M154.31-11.06v26.8c0,8.75-.27,19.59.63,32.16.92,12.86,4.17,25.45,6.62,38.28a180.41,180.41,0,0,1,3.28,24.44c0,.29.07.58.1.87,1.81,5.79,4.09,11.56,6.4,17.55,7.74,16.55,11.47,33.89,3.22,51.1-3.72,7.76-5.86,16.06-8.61,24.07-1.26,3.65-2.08,7.53-3,11.33-1.3,5.48-2.46,11-3.54,16.5a248.5,248.5,0,0,0-5.06,51.19c.31,26.1-.06,53.63-.06,82.45V641.33c0,7.71,0,15.45,0,23.24,0,8.63-.22,17.33-.73,26.16a236.9,236.9,0,0,0-.46,32.66c.45,8.06,1.29,16.06,1.87,24a216.94,216.94,0,0,1,4.46,23.12,138.15,138.15,0,0,1,1.27,24.11,85.55,85.55,0,0,1-6,28.78c-.23,6.4-.33,12.81-.38,19.25q-.51,7.53-.86,15.14c-1.42,29.46-1.71,59.56.77,89.54q0,19.67,0,39.56c0,3.64,0,7.28,0,10.92q0,11,.1,22a86,86,0,0,1,5.67,28.56c.91,23.8-5.78,47.84-5.78,72.13v495.38c0,10.28-.12,20.56-.06,30.75.05,8.52-.82,16.61-1.25,24.83-.34,6.57-.47,13.17-.22,19.74.39,9.7,1.53,19.36,2.85,28.94,1.87,13.44,3.68,26.72,6,40,1.62,9.56,3.62,19.1,5.86,28.67,9.51,40.59-1.15,79.24-7.95,118.7-1,5.45-1.91,10.9-2.62,16.41-1,7.91-3.63,16.72-1.45,24.83q.27,8,1.28,16a128.61,128.61,0,0,0,2.45,13.45,136.68,136.68,0,0,1,3.77,40.87,105.83,105.83,0,0,1-2.83,18.15,192.42,192.42,0,0,0-4.89,34.19c-.52,8.19-.79,16.31-.89,24.41-.11,9.66,0,19.27,0,28.84v496.52a327.39,327.39,0,0,0,2.31,41.89c5.75,17.5,9.79,34.64,10.63,51.56a109.33,109.33,0,0,1-4.54,38.22,137.38,137.38,0,0,1-9.41,21.86c-.27,16.2,0,31.55.59,45.9.21,5,.27,9.87.33,14.6.07,5.2.08,10.24.09,15.12v99.58"/><path class="cls-2" d="M174.24-11.68V15.16c0,8.77-.27,19.62.61,32.22.91,12.86,4.11,25.47,6.51,38.35a184.11,184.11,0,0,1,3.24,24.49c0,.29.07.58.1.87,1.84,5.8,4.11,11.58,6.42,17.57,7.86,16.56,11.56,33.92,3.27,51.13-3.71,7.71-5.87,16-8.67,23.89a109.89,109.89,0,0,0-3,11.35c-1.28,5.49-2.41,11-3.48,16.53a252,252,0,0,0-5,51.27c.3,26.14-.06,53.71-.06,82.57V641.46c0,7.71,0,15.47,0,23.28,0,8.62-.25,17.33-.81,26.16a215.93,215.93,0,0,0-.52,32.7c.48,8,1.33,16,1.94,23.89a210.09,210.09,0,0,1,4.44,23.17,139.46,139.46,0,0,1,1.25,24.14,87.28,87.28,0,0,1-5.88,28.85c-.23,6.4-.33,12.83-.38,19.28q-.56,7.53-.94,15.14c-1.59,29.49-1.9,59.65.85,89.64q.06,19.68.05,39.62,0,5.48,0,10.94,0,11,.09,22.06a87.43,87.43,0,0,1,5.58,28.63c.9,23.84-5.68,47.92-5.68,72.25v496.18c0,10.31-.13,20.6-.07,30.81.05,8.54-.91,16.62-1.39,24.84-.38,6.55-.52,13.13-.26,19.69a287.1,287.1,0,0,0,2.91,28.87c1.92,13.43,3.73,26.69,6,39.91,1.59,9.55,3.56,19.08,5.76,28.63,9.36,40.52-1.12,79.12-7.82,118.52-.94,5.44-1.88,10.89-2.59,16.38-1,7.9-3.58,16.69-1.45,24.8q.24,8,1.22,16a125.92,125.92,0,0,0,2.39,13.43,140.24,140.24,0,0,1,3.74,40.8,106,106,0,0,1-2.74,18.11,196.09,196.09,0,0,0-4.79,34.15c-.51,8.17-.78,16.28-.87,24.37-.12,9.64,0,19.23,0,28.79v495.67a328.15,328.15,0,0,0,2.27,41.81c5.66,17.49,9.63,34.6,10.46,51.5a109.83,109.83,0,0,1-4.51,38.15,142,142,0,0,1-9.35,21.84c-.31,16.16,0,31.47.65,45.81.24,5,.31,9.85.37,14.57.08,5.19.09,10.22.11,15.09v99.41"/><path class="cls-2" d="M194.16-12.3V14.59c0,8.78-.27,19.65.61,32.27.89,12.85,4,25.5,6.4,38.43a189.52,189.52,0,0,1,3.19,24.53c0,.29.07.58.11.87,1.85,5.81,4.13,11.6,6.44,17.59,8,16.58,11.65,33.95,3.32,51.17-3.7,7.65-5.89,15.83-8.73,23.7a99.79,99.79,0,0,0-3,11.37c-1.27,5.49-2.38,11-3.42,16.56a256.3,256.3,0,0,0-4.9,51.35c.29,26.18-.06,53.79-.06,82.69V641.59c0,7.72,0,15.49,0,23.31,0,8.63-.27,17.33-.89,26.18a200.44,200.44,0,0,0-.57,32.72c.5,8,1.37,15.91,2,23.79a203.79,203.79,0,0,1,4.42,23.2A140.91,140.91,0,0,1,200.36,795a88.62,88.62,0,0,1-5.79,28.92c-.22,6.41-.32,12.85-.37,19.3q-.6,7.54-1,15.16c-1.74,29.52-2.09,59.73.94,89.72q.06,19.73,0,39.7,0,5.47,0,11,0,11,.09,22.1a89.23,89.23,0,0,1,5.5,28.68c.88,23.89-5.6,48-5.6,72.38v497c0,10.32-.14,20.63-.08,30.85.06,8.57-1,16.63-1.52,24.85a189.62,189.62,0,0,0-.31,19.66,279.85,279.85,0,0,0,3,28.8c2,13.42,3.78,26.64,6,39.83,1.57,9.54,3.51,19.05,5.68,28.6,9.2,40.45-1.11,79-7.7,118.33-.92,5.43-1.86,10.87-2.55,16.36-1,7.89-3.55,16.66-1.47,24.75.15,5.34.53,10.66,1.17,15.95a124.45,124.45,0,0,0,2.32,13.41,144.13,144.13,0,0,1,3.73,40.73,106.33,106.33,0,0,1-2.66,18.09,199,199,0,0,0-4.69,34.09c-.5,8.16-.77,16.26-.86,24.33-.11,9.62,0,19.21,0,28.74v494.82a336.44,336.44,0,0,0,2.23,41.74c5.57,17.47,9.48,34.56,10.3,51.43a110.38,110.38,0,0,1-4.49,38.09,145.86,145.86,0,0,1-9.29,21.82c-.33,16.12,0,31.4.73,45.72.26,5,.33,9.83.41,14.54.08,5.19.09,10.21.11,15.06v99.24"/><path class="cls-2" d="M214.08-12.92V14c0,8.8-.26,19.69.6,32.33.88,12.85,4,25.53,6.3,38.5a191.77,191.77,0,0,1,3.13,24.58l.12.87c1.87,5.82,4.16,11.61,6.47,17.62,8.09,16.58,11.73,34,3.36,51.19-3.69,7.6-5.91,15.72-8.78,23.53a94.46,94.46,0,0,0-3,11.38c-1.25,5.5-2.33,11-3.36,16.59A261.49,261.49,0,0,0,214.14,282c.29,26.22-.06,53.87-.06,82.82V641.71c0,7.74,0,15.52,0,23.35,0,8.63-.29,17.33-1,26.19a188.29,188.29,0,0,0-.62,32.76c.52,8,1.41,15.84,2.08,23.67a199.89,199.89,0,0,1,4.4,23.25,145.48,145.48,0,0,1,1.22,24.22,90.69,90.69,0,0,1-5.7,29c-.22,6.43-.32,12.88-.37,19.34q-.65,7.54-1.12,15.16c-1.9,29.55-2.28,59.82,1,89.82q.06,19.74.05,39.76c0,3.65,0,7.31,0,11q0,11.05.09,22.13a90.87,90.87,0,0,1,5.41,28.75c.87,23.93-5.51,48.09-5.51,72.5v497.79c0,10.35-.15,20.68-.08,30.91.06,8.6-1.09,16.64-1.67,24.85a180.85,180.85,0,0,0-.34,19.62,267.86,267.86,0,0,0,3,28.74c2,13.4,3.83,26.6,6,39.76,1.54,9.52,3.45,19,5.58,28.55,9.06,40.38-1.09,78.89-7.57,118.15-.91,5.42-1.83,10.85-2.52,16.33-1,7.88-3.5,16.63-1.47,24.71q.19,8,1.1,15.93a124.31,124.31,0,0,0,2.26,13.39,147.79,147.79,0,0,1,3.71,40.66,107,107,0,0,1-2.57,18.06,202.91,202.91,0,0,0-4.59,34c-.5,8.14-.75,16.23-.85,24.28-.11,9.61,0,19.18,0,28.69v494a339.29,339.29,0,0,0,2.2,41.67c5.48,17.46,9.32,34.53,10.13,51.36a110.69,110.69,0,0,1-4.47,38,150.51,150.51,0,0,1-9.22,21.8c-.36,16.07,0,31.33.8,45.63.28,5,.36,9.81.44,14.51.09,5.18.11,10.19.12,15v99.06"/><path class="cls-2" d="M234-13.53v27c0,8.81-.26,19.71.58,32.38.86,12.84,3.9,25.55,6.2,38.58A195.75,195.75,0,0,1,243.87,109l.12.87c1.9,5.83,4.18,11.63,6.5,17.64,8.2,16.59,11.81,34,3.4,51.23-3.68,7.54-5.92,15.6-8.83,23.34a85.68,85.68,0,0,0-2.95,11.39c-1.24,5.51-2.3,11.06-3.31,16.63a266.88,266.88,0,0,0-4.74,51.51c.29,26.26-.05,53.95-.05,82.94V641.84c0,7.75,0,15.54,0,23.38,0,8.63-.33,17.34-1,26.21a174.76,174.76,0,0,0-.68,32.78c.54,7.92,1.45,15.77,2.14,23.56a194.44,194.44,0,0,1,4.4,23.29A148.18,148.18,0,0,1,240,795.32a92.34,92.34,0,0,1-5.6,29c-.22,6.44-.32,12.89-.36,19.37q-.7,7.54-1.21,15.17c-2.06,29.58-2.47,59.91,1.11,89.91q.06,19.77.06,39.82,0,5.49,0,11,0,11.07.09,22.17a92.71,92.71,0,0,1,5.31,28.8c.85,24-5.41,48.18-5.41,72.62v498.61c0,10.36-.17,20.71-.09,31,.06,8.63-1.18,16.65-1.81,24.86a168.3,168.3,0,0,0-.39,19.58,259.44,259.44,0,0,0,3.1,28.68c2.08,13.39,3.87,26.55,6,39.68,1.52,9.51,3.39,19,5.49,28.51,8.9,40.32-1.07,78.77-7.45,118-.89,5.41-1.8,10.84-2.48,16.3-1,7.88-3.47,16.61-1.49,24.68.13,5.31.47,10.61,1.05,15.89a125.82,125.82,0,0,0,2.19,13.37,152.18,152.18,0,0,1,3.69,40.6,105.46,105.46,0,0,1-2.49,18,207.15,207.15,0,0,0-4.48,34c-.49,8.13-.74,16.2-.83,24.25-.11,9.59,0,19.14,0,28.64V2620.9a342.4,342.4,0,0,0,2.16,41.61c5.39,17.43,9.17,34.48,10,51.29a111.28,111.28,0,0,1-4.44,38,155.56,155.56,0,0,1-9.17,21.77c-.39,16,0,31.25.87,45.54.31,5,.4,9.79.48,14.48.1,5.17.12,10.17.14,15v98.9"/><path class="cls-2" d="M253.93-14.15v27c0,8.82-.26,19.74.58,32.43.84,12.84,3.83,25.58,6.09,38.65a202,202,0,0,1,3,24.67l.12.88c1.92,5.83,4.21,11.64,6.53,17.66,8.31,16.6,11.9,34,3.45,51.25-3.68,7.49-5.94,15.49-8.89,23.16A79.51,79.51,0,0,0,261.9,213c-1.22,5.52-2.26,11.08-3.26,16.66a272.51,272.51,0,0,0-4.65,51.6c.28,26.29-.06,54-.06,83.05V642c0,7.76,0,15.56,0,23.41-.05,8.63-.35,17.34-1.13,26.22a164.78,164.78,0,0,0-.73,32.82c.57,7.88,1.49,15.69,2.21,23.45a189.11,189.11,0,0,1,4.38,23.32,149.89,149.89,0,0,1,1.17,24.31,94.05,94.05,0,0,1-5.51,29.1c-.21,6.44-.3,12.91-.35,19.4q-.75,7.54-1.3,15.17c-2.22,29.61-2.66,60,1.19,90q.09,19.8.07,39.89,0,5.51,0,11,0,11.08.09,22.2a94.18,94.18,0,0,1,5.22,28.87c.84,24-5.32,48.26-5.32,72.74v499.41c0,10.38-.18,20.75-.1,31,.08,8.65-1.26,16.65-1.94,24.86a159.31,159.31,0,0,0-.43,19.54,248.73,248.73,0,0,0,3.16,28.62c2.14,13.37,3.91,26.51,6,39.6,1.49,9.5,3.33,19,5.39,28.48,8.75,40.24-1.05,78.65-7.32,117.78-.88,5.4-1.77,10.82-2.45,16.28-1,7.87-3.42,16.57-1.49,24.63q.17,8,1,15.87a122.77,122.77,0,0,0,2.12,13.35,157.25,157.25,0,0,1,3.68,40.53,106.91,106.91,0,0,1-2.41,18,211.64,211.64,0,0,0-4.38,33.93c-.48,8.12-.73,16.17-.82,24.2-.1,9.58,0,19.11,0,28.59v492.27a349.65,349.65,0,0,0,2.12,41.53c5.3,17.42,9,34.44,9.79,51.22a111.6,111.6,0,0,1-4.41,37.91,161.51,161.51,0,0,1-9.1,21.75c-.42,16,0,31.18.94,45.45.33,4.95.42,9.77.51,14.45.11,5.16.14,10.15.15,15,.13,63.23,0,98.73,0,98.73"/><path class="cls-2" d="M273.85-14.77V12.29c0,8.84-.25,19.78.57,32.49s3.76,25.6,6,38.73a206.39,206.39,0,0,1,3,24.71c0,.29.08.59.13.88,1.94,5.84,4.23,11.66,6.54,17.68,8.44,16.61,12,34.08,3.5,51.29-3.66,7.43-5.95,15.36-8.94,23a74.23,74.23,0,0,0-2.94,11.43c-1.2,5.53-2.22,11.1-3.19,16.69a276.62,276.62,0,0,0-4.58,51.68c.28,26.33-.06,54.1-.06,83.17V642.1c0,7.77.06,15.58,0,23.44-.05,8.63-.37,17.34-1.21,26.24a156.41,156.41,0,0,0-.78,32.84c.59,7.85,1.53,15.63,2.28,23.34a183.73,183.73,0,0,1,4.36,23.37,152.49,152.49,0,0,1,1.15,24.34,95.76,95.76,0,0,1-5.41,29.16c-.21,6.46-.3,12.94-.35,19.44q-.79,7.54-1.39,15.18c-2.37,29.63-2.85,60.08,1.28,90.09q.09,19.83.07,40c0,3.67,0,7.35,0,11q0,11.1.09,22.23a96.29,96.29,0,0,1,5.13,28.93c.83,24.06-5.23,48.35-5.23,72.87v500.22c0,10.4-.19,20.79-.1,31,.08,8.69-1.36,16.67-2.08,24.87a151.21,151.21,0,0,0-.48,19.51,239.34,239.34,0,0,0,3.23,28.55c2.19,13.36,4,26.46,6,39.53,1.46,9.48,3.27,19,5.3,28.43,8.6,40.17-1,78.54-7.19,117.6-.87,5.39-1.76,10.8-2.42,16.25-1,7.86-3.39,16.54-1.51,24.6q.15,7.93.94,15.83a124.31,124.31,0,0,0,2.05,13.33,161.81,161.81,0,0,1,3.66,40.46,107.46,107.46,0,0,1-2.32,18,216.25,216.25,0,0,0-4.28,33.87c-.47,8.11-.72,16.15-.81,24.17-.1,9.55,0,19.07,0,28.54v491.41a354.87,354.87,0,0,0,2.09,41.46c5.21,17.4,8.86,34.41,9.62,51.16a112.14,112.14,0,0,1-4.38,37.84,167.59,167.59,0,0,1-9.05,21.73c-.44,15.94,0,31.1,1,45.36.36,4.94.46,9.75.56,14.42.11,5.15.14,10.13.15,15,.15,63.11,0,98.55,0,98.55"/><path class="cls-2" d="M293.78-15.39V11.72c0,8.85-.25,19.8.56,32.53s3.69,25.64,5.88,38.81a211.14,211.14,0,0,1,2.92,24.76c.05.29.1.59.14.88,2,5.85,4.25,11.68,6.57,17.71,8.55,16.61,12.08,34.1,3.55,51.31-3.66,7.38-6,15.25-9,22.8-1.44,3.59-2.1,7.57-2.93,11.44-1.19,5.53-2.18,11.12-3.14,16.72a283.47,283.47,0,0,0-4.5,51.76c.27,26.36-.05,54.18-.05,83.29V642.22c0,7.79.06,15.61,0,23.48-.07,8.63-.4,17.35-1.3,26.25a147.77,147.77,0,0,0-.83,32.87c.61,7.82,1.57,15.56,2.35,23.23a180.85,180.85,0,0,1,4.34,23.41,154.28,154.28,0,0,1,1.13,24.39,97.64,97.64,0,0,1-5.31,29.22c-.2,6.47-.3,13-.34,19.47-.57,5-1.05,10.1-1.48,15.19-2.54,29.66-3,60.16,1.36,90.18q.09,19.86.08,40,0,5.52,0,11.05,0,11.13.08,22.27a98.4,98.4,0,0,1,5.05,29c.81,24.1-5.14,48.43-5.14,73v501c0,10.42-.21,20.83-.11,31.11.08,8.71-1.45,16.67-2.23,24.88a145.27,145.27,0,0,0-.51,19.46,233.94,233.94,0,0,0,3.28,28.49c2.25,13.34,4,26.42,6,39.45,1.43,9.47,3.21,18.93,5.2,28.4,8.45,40.1-1,78.41-7.06,117.41-.86,5.38-1.73,10.78-2.39,16.23-.95,7.85-3.34,16.51-1.51,24.55.08,5.28.37,10.56.87,15.81a124.2,124.2,0,0,0,2,13.31,168.14,168.14,0,0,1,3.64,40.39,108.89,108.89,0,0,1-2.24,17.94,220.29,220.29,0,0,0-4.18,33.83q-.69,12.14-.79,24.12c-.1,9.54,0,19,0,28.49v490.56a358.2,358.2,0,0,0,2.05,41.39c5.11,17.39,8.74,34.37,9.45,51.09a112,112,0,0,1-4.36,37.78,171.9,171.9,0,0,1-9,21.71A419.37,419.37,0,0,0,293,2817.9c.38,4.94.49,9.74.59,14.4.12,5.14.16,10.12.17,14.93.15,63,0,98.38,0,98.38"/><path class="cls-2" d="M313.7-16V11.15c0,8.86-.25,19.83.55,32.58s3.62,25.66,5.77,38.89a214,214,0,0,1,2.88,24.8c.05.3.1.59.14.88,2,5.86,4.28,11.7,6.6,17.73,8.67,16.63,12.16,34.14,3.59,51.34-3.65,7.33-6,15.14-9.05,22.62-1.47,3.58-2.1,7.58-2.92,11.46-1.18,5.54-2.15,11.14-3.09,16.75A288.79,288.79,0,0,0,313.75,280c.27,26.4-.05,54.26-.05,83.42V642.35c0,7.79.06,15.63,0,23.51-.07,8.64-.42,17.35-1.37,26.27a140.58,140.58,0,0,0-.89,32.9c.63,7.77,1.61,15.48,2.42,23.12a177.94,177.94,0,0,1,4.33,23.44A159.76,159.76,0,0,1,319.3,796a100.22,100.22,0,0,1-5.23,29.29q-.29,9.72-.33,19.5c-.6,5-1.11,10.1-1.57,15.19-2.69,29.69-3.23,60.25,1.45,90.27q.09,19.89.08,40.08,0,5.53,0,11.07,0,11.15.08,22.3a100.36,100.36,0,0,1,5,29c.79,24.15-5.05,48.52-5.05,73.12v501.83c0,10.44-.22,20.86-.12,31.15.09,8.74-1.53,16.69-2.36,24.89a138.31,138.31,0,0,0-.56,19.42,227.09,227.09,0,0,0,3.35,28.43c2.3,13.33,4.06,26.38,6,39.38,1.42,9.46,3.16,18.89,5.12,28.35,8.29,40-1,78.3-6.94,117.23-.84,5.38-1.7,10.77-2.35,16.2-.95,7.84-3.3,16.48-1.53,24.51q.12,7.92.82,15.79a121.37,121.37,0,0,0,1.93,13.28,174,174,0,0,1,3.62,40.33,108.3,108.3,0,0,1-2.15,17.91,225.54,225.54,0,0,0-4.08,33.78c-.46,8.07-.69,16.09-.78,24.07-.1,9.53,0,19,0,28.44v489.71a364.06,364.06,0,0,0,2,41.33c5,17.36,8.58,34.32,9.28,51a112.57,112.57,0,0,1-4.34,37.72,177.89,177.89,0,0,1-8.92,21.69,397.81,397.81,0,0,0,1.15,45.17c.41,4.92.52,9.72.63,14.37.13,5.13.17,10.1.18,14.9.16,62.9,0,98.21,0,98.21"/><path class="cls-2" d="M333.63-16.62V10.57c0,8.89-.25,19.87.53,32.64s3.56,25.69,5.67,39A219.06,219.06,0,0,1,342.66,107l.15.88c2,5.87,4.29,11.71,6.62,17.76,8.78,16.63,12.25,34.16,3.63,51.37-3.64,7.27-6,15-9.11,22.43-1.49,3.57-2.1,7.59-2.91,11.47-1.16,5.56-2.1,11.16-3,16.79a295.25,295.25,0,0,0-4.33,51.92c.26,26.44-.05,54.33-.05,83.54v279.3c0,7.8.06,15.65,0,23.55a253,253,0,0,1-1.46,26.27,134.12,134.12,0,0,0-.94,32.93c.65,7.74,1.65,15.42,2.49,23A175.12,175.12,0,0,1,338,771.73a162.68,162.68,0,0,1,1.09,24.46A102.08,102.08,0,0,1,334,825.54q-.28,9.74-.33,19.53c-.63,5-1.17,10.11-1.65,15.21-2.86,29.72-3.43,60.33,1.53,90.36q.1,19.92.08,40.14c0,3.7,0,7.39,0,11.09q0,11.16.09,22.34a102.26,102.26,0,0,1,4.86,29.11c.78,24.18-4.95,48.6-4.95,73.24V1629.2c0,10.45-.24,20.9-.13,31.2.09,8.76-1.62,16.69-2.5,24.89a130.65,130.65,0,0,0-.6,19.38,217.1,217.1,0,0,0,3.41,28.37c2.35,13.31,4.1,26.33,6,39.3,1.39,9.45,3.1,18.87,5,28.31,8.14,40-.9,78.2-6.82,117-.82,5.37-1.67,10.75-2.32,16.18-.93,7.83-3.26,16.44-1.53,24.47q.09,7.89.76,15.75a125.68,125.68,0,0,0,1.86,13.27,178.52,178.52,0,0,1,3.61,40.26,109.91,109.91,0,0,1-2.07,17.88,231,231,0,0,0-4,33.72c-.45,8.06-.68,16.06-.76,24-.1,9.5,0,19,0,28.39v488.86a367.6,367.6,0,0,0,2,41.25c4.93,17.35,8.43,34.29,9.12,50.95a113,113,0,0,1-4.31,37.66,186.07,186.07,0,0,1-8.87,21.66,372,372,0,0,0,1.23,45.08c.43,4.91.55,9.7.67,14.34.13,5.12.17,10.08.19,14.88.17,62.79,0,98,0,98"/><path class="cls-2" d="M353.55-17.24V10c0,8.9-.24,19.89.53,32.69s3.48,25.71,5.56,39a226.51,226.51,0,0,1,2.78,24.9l.15.87c2,5.88,4.32,11.73,6.64,17.78,8.9,16.64,12.34,34.2,3.69,51.4-3.63,7.22-6,14.91-9.17,22.26-1.52,3.55-2.1,7.59-2.9,11.48-1.15,5.56-2.07,11.18-3,16.82a301,301,0,0,0-4.26,52c.26,26.48-.05,54.41-.05,83.66V642.6c0,7.82.07,15.68,0,23.59A238.12,238.12,0,0,1,352,692.47a127.87,127.87,0,0,0-1,33c.67,7.7,1.69,15.34,2.55,22.89a169.56,169.56,0,0,1,4.3,23.53,164.66,164.66,0,0,1,1.07,24.51,104.19,104.19,0,0,1-5,29.41c-.19,6.5-.28,13-.32,19.56-.67,5-1.24,10.11-1.75,15.21-3,29.75-3.61,60.42,1.62,90.46q.1,19.93.09,40.2,0,5.55,0,11.1,0,11.19.08,22.38a104.73,104.73,0,0,1,4.77,29.17c.77,24.23-4.86,48.69-4.86,73.37v503.44c0,10.48-.25,20.94-.13,31.25.1,8.8-1.71,16.7-2.64,24.9a125,125,0,0,0-.64,19.35,209.52,209.52,0,0,0,3.47,28.3c2.41,13.3,4.14,26.29,6.05,39.22,1.36,9.44,3,18.85,4.93,28.28,8,39.89-.88,78.07-6.69,116.85-.8,5.37-1.65,10.74-2.29,16.16-.92,7.82-3.21,16.42-1.54,24.43q.07,7.88.71,15.73a122.42,122.42,0,0,0,1.79,13.24,185.18,185.18,0,0,1,3.59,40.19,108.37,108.37,0,0,1-2,17.86,236.83,236.83,0,0,0-3.87,33.67c-.44,8-.67,16-.75,24-.1,9.49,0,18.94,0,28.34v488a376,376,0,0,0,1.94,41.18c4.84,17.34,8.28,34.25,8.95,50.88a113.32,113.32,0,0,1-4.29,37.6,194.27,194.27,0,0,1-8.8,21.64,351,351,0,0,0,1.3,45c.45,4.9.58,9.68.7,14.31.14,5.11.19,10.06.2,14.85.18,62.68,0,97.87,0,97.87"/><path class="cls-2" d="M373.47-17.86V9.42c0,8.92-.23,19.93.52,32.75s3.42,25.74,5.46,39.12a229.19,229.19,0,0,1,2.72,24.94c.06.29.11.58.16.88,2.05,5.88,4.35,11.74,6.67,17.8,9,16.65,12.43,34.23,3.73,51.43-3.62,7.16-6,14.78-9.22,22.07-1.55,3.55-2.11,7.6-2.9,11.5-1.12,5.57-2,11.2-2.91,16.85a307.93,307.93,0,0,0-4.18,52.08c.25,26.52,0,54.49,0,83.78V642.73c0,7.83.08,15.7,0,23.62a225.23,225.23,0,0,1-1.62,26.3,122.89,122.89,0,0,0-1,33c.69,7.67,1.73,15.27,2.62,22.79a177.26,177.26,0,0,1,5.33,48.11A106.28,106.28,0,0,1,373.82,826c-.18,6.52-.27,13-.31,19.6q-1,7.56-1.84,15.22c-3.17,29.78-3.8,60.5,1.71,90.55q.11,20,.09,40.27c0,3.7,0,7.41,0,11.11q0,11.21.08,22.42a106.81,106.81,0,0,1,4.68,29.23c.75,24.27-4.77,48.77-4.77,73.49v504.25c0,10.49-.26,21-.14,31.3.11,8.82-1.8,16.71-2.77,24.9a119.77,119.77,0,0,0-.69,19.31,203.69,203.69,0,0,0,3.54,28.24c2.46,13.28,4.19,26.24,6.06,39.15,1.33,9.42,3,18.82,4.84,28.23,7.83,39.82-.86,78-6.57,116.67-.79,5.36-1.62,10.73-2.25,16.13-.91,7.82-3.18,16.39-1.55,24.4q0,7.86.64,15.69a124.65,124.65,0,0,0,1.73,13.23,191.68,191.68,0,0,1,3.57,40.12,107.91,107.91,0,0,1-1.9,17.83,243,243,0,0,0-3.77,33.61c-.43,8-.66,16-.74,23.95-.09,9.48,0,18.91,0,28.3v487.15a380.31,380.31,0,0,0,1.91,41.12c4.75,17.31,8.12,34.2,8.77,50.81.5,12.68-.56,25.2-4.25,37.53a203.54,203.54,0,0,1-8.75,21.62,333.81,333.81,0,0,0,1.37,44.9c.48,4.89.61,9.66.74,14.28.15,5.1.2,10,.21,14.82.19,62.58,0,97.7,0,97.7"/><path class="cls-2" d="M393.4-18.48V8.85c0,8.93-.24,20,.5,32.8s3.35,25.76,5.36,39.19a235.26,235.26,0,0,1,2.67,25c.06.29.11.58.17.88,2.06,5.89,4.36,11.76,6.69,17.82,9.13,16.66,12.51,34.26,3.77,51.46-3.61,7.11-6.06,14.67-9.27,21.89-1.57,3.54-2.11,7.61-2.89,11.52-1.11,5.58-2,11.22-2.86,16.88a315.19,315.19,0,0,0-4.1,52.16c.25,26.56,0,54.57,0,83.91V642.86c0,7.84.07,15.72,0,23.65a219.35,219.35,0,0,1-1.7,26.31c-2.08,10.76-2.13,21.94-1.1,33,.72,7.63,1.77,15.2,2.69,22.67a163,163,0,0,1,4.26,23.61,169.81,169.81,0,0,1,1,24.59,108.49,108.49,0,0,1-4.84,29.53c-.18,6.52-.27,13.07-.31,19.63q-1.08,7.56-1.92,15.22c-3.33,29.81-4,60.59,1.79,90.64q.1,20,.1,40.34v11.13q0,11.22.08,22.45a108.71,108.71,0,0,1,4.59,29.3c.74,24.31-4.67,48.84-4.67,73.6v505.06c0,10.52-.28,21-.15,31.35.11,8.85-1.89,16.72-2.92,24.91a116,116,0,0,0-.72,19.27,198.48,198.48,0,0,0,3.59,28.18c2.52,13.27,4.24,26.2,6.08,39.07,1.31,9.41,2.92,18.8,4.74,28.2,7.69,39.75-.83,77.84-6.43,116.48-.78,5.35-1.6,10.71-2.23,16.11-.9,7.81-3.13,16.35-1.56,24.35q0,7.85.59,15.67a124,124,0,0,0,1.66,13.2,199.68,199.68,0,0,1,3.56,40.06,110.44,110.44,0,0,1-1.82,17.79,250,250,0,0,0-3.67,33.57c-.43,8-.65,16-.72,23.91-.1,9.46,0,18.87,0,28.24v486.3a386.87,386.87,0,0,0,1.86,41c4.66,17.3,8,34.17,8.61,50.74.49,12.67-.56,25.17-4.23,37.47a213.61,213.61,0,0,1-8.68,21.6A315.15,315.15,0,0,0,392.4,2816c.5,4.88.64,9.64.78,14.25.15,5.1.2,10,.22,14.8.2,62.47,0,97.52,0,97.52"/><path class="cls-2" d="M413.32-19.1V8.28c0,8.94-.23,20,.5,32.85s3.28,25.79,5.25,39.27a243.61,243.61,0,0,1,2.62,25c.06.29.11.58.17.88,2.08,5.9,4.39,11.78,6.72,17.85,9.25,16.66,12.6,34.29,3.82,51.49-3.6,7-6.08,14.55-9.33,21.7-1.6,3.53-2.11,7.62-2.88,11.54-1.1,5.58-1.95,11.23-2.81,16.9a321.81,321.81,0,0,0-4,52.26c.24,26.59-.05,54.64-.05,84V643c0,7.85.08,15.74,0,23.68A208.48,208.48,0,0,1,411.54,693c-2.17,10.76-2.21,22-1.14,33,.73,7.6,1.8,15.13,2.75,22.56a160.83,160.83,0,0,1,4.25,23.65,176.31,176.31,0,0,1,1,24.63,111.62,111.62,0,0,1-4.75,29.6c-.18,6.53-.27,13.09-.31,19.66q-1.12,7.56-2,15.23c-3.49,29.83-4.18,60.67,1.88,90.73.08,13.35.1,26.84.1,40.4q0,5.57,0,11.15,0,11.24.07,22.49a111.35,111.35,0,0,1,4.51,29.35c.72,24.36-4.59,48.93-4.59,73.73V1635.1c0,10.53-.28,21.05-.15,31.39.11,8.89-2,16.73-3.06,24.93a111.21,111.21,0,0,0-.77,19.22,193,193,0,0,0,3.66,28.11c2.57,13.26,4.29,26.16,6.09,39,1.28,9.4,2.86,18.77,4.65,28.16,7.53,39.68-.81,77.73-6.31,116.3-.77,5.34-1.57,10.69-2.19,16.08-.9,7.8-3.1,16.33-1.57,24.31q0,7.85.53,15.64a120.84,120.84,0,0,0,1.6,13.19,208.93,208.93,0,0,1,3.53,40,110,110,0,0,1-1.73,17.77,255.44,255.44,0,0,0-3.57,33.51c-.42,8-.63,15.95-.71,23.87-.09,9.44,0,18.84,0,28.19v485.46a393.68,393.68,0,0,0,1.83,41c4.57,17.28,7.82,34.13,8.44,50.67.48,12.66-.56,25.14-4.21,37.41a223.41,223.41,0,0,1-8.62,21.58,301,301,0,0,0,1.51,44.72c.53,4.87.68,9.62.82,14.22.16,5.09.21,10,.23,14.77.21,62.36,0,97.35,0,97.35"/><path class="cls-2" d="M433.24-19.72V7.7c0,9-.22,20,.49,32.91s3.21,25.81,5.15,39.34A247.51,247.51,0,0,1,441.45,105c.06.29.11.59.17.88,2.11,5.91,4.42,11.8,6.74,17.87,9.37,16.67,12.7,34.33,3.87,51.52-3.59,7-6.1,14.44-9.38,21.53-1.63,3.52-2.12,7.62-2.88,11.54-1.08,5.6-1.9,11.26-2.74,16.94a328.5,328.5,0,0,0-3.94,52.34c.24,26.63-.05,54.72-.05,84.14V643.11c0,7.87.09,15.77,0,23.72a198.44,198.44,0,0,1-1.86,26.34c-2.27,10.76-2.3,22-1.19,33.09.75,7.56,1.84,15,2.82,22.45a158.5,158.5,0,0,1,4.23,23.69,179.92,179.92,0,0,1,1,24.67,114,114,0,0,1-4.66,29.65c-.17,6.55-.25,13.11-.29,19.7q-1.18,7.56-2.11,15.23c-3.64,29.87-4.37,60.77,2,90.83.09,13.37.11,26.88.11,40.46,0,3.72,0,7.44,0,11.17q0,11.25.08,22.52a114.68,114.68,0,0,1,4.41,29.42c.71,24.39-4.5,49-4.5,73.85v506.67c0,10.55-.29,21.09-.16,31.45.12,8.91-2.06,16.74-3.19,24.93a107,107,0,0,0-.81,19.19,186.86,186.86,0,0,0,3.72,28c2.62,13.25,4.33,26.12,6.09,38.93,1.26,9.38,2.81,18.74,4.56,28.12,7.38,39.6-.78,77.6-6.18,116.11-.75,5.33-1.55,10.67-2.16,16.06-.88,7.79-3.05,16.29-1.58,24.27q0,7.82.48,15.61a120.19,120.19,0,0,0,1.53,13.16,218.62,218.62,0,0,1,3.52,39.92,111.73,111.73,0,0,1-1.65,17.74,266.48,266.48,0,0,0-3.47,33.46q-.58,12-.7,23.83c-.09,9.42,0,18.8,0,28.14v484.6A400.75,400.75,0,0,0,435,2661c4.47,17.27,7.66,34.09,8.27,50.61.46,12.64-.56,25.1-4.18,37.35q-3.66,10.71-8.56,21.56a285.53,285.53,0,0,0,1.58,44.62c.55,4.86.7,9.6.85,14.19.17,5.08.23,10,.24,14.74.22,62.26,0,97.18,0,97.18"/><path class="cls-2" d="M453.17-20.33V7.13c0,9-.23,20.05.47,33s3.15,25.84,5,39.42a250.71,250.71,0,0,1,2.52,25.12c.06.29.13.59.19.88,2.12,5.92,4.43,11.81,6.76,17.9,9.48,16.68,12.78,34.35,3.91,51.55-3.58,6.94-6.11,14.31-9.43,21.34-1.66,3.51-2.12,7.63-2.87,11.56-1.07,5.61-1.87,11.28-2.69,17a337.9,337.9,0,0,0-3.86,52.42c.23,26.67,0,54.8,0,84.26V643.24c0,7.87.08,15.79,0,23.75a191,191,0,0,1-1.95,26.36c-2.37,10.76-2.38,22-1.24,33.11.77,7.53,1.88,15,2.88,22.34a154,154,0,0,1,4.22,23.73,182.1,182.1,0,0,1,1,24.71A116.58,116.58,0,0,1,453.49,827c-.17,6.56-.25,13.13-.29,19.73Q452,854.25,451,861.93c-3.81,29.89-4.56,60.85,2,90.91q.13,20.08.12,40.53v11.19q0,11.27.08,22.56a117.14,117.14,0,0,1,4.32,29.47c.69,24.44-4.4,49.1-4.4,74v507.48c0,10.57-.31,21.13-.17,31.49.12,8.94-2.15,16.75-3.33,24.94a103.06,103.06,0,0,0-.86,19.15,182.23,182.23,0,0,0,3.79,28c2.68,13.23,4.38,26.07,6.1,38.85,1.24,9.37,2.75,18.72,4.47,28.08,7.23,39.54-.76,77.49-6.06,115.93-.73,5.33-1.52,10.66-2.12,16-.88,7.78-3,16.26-1.59,24.23q0,7.8.42,15.58a119.91,119.91,0,0,0,1.46,13.15,229,229,0,0,1,3.5,39.85,111.26,111.26,0,0,1-1.56,17.71,274.85,274.85,0,0,0-3.37,33.4q-.59,12-.68,23.79c-.09,9.41,0,18.77,0,28.09v483.75a405.72,405.72,0,0,0,1.75,40.84c4.39,17.24,7.51,34.05,8.11,50.53.45,12.63-.56,25.07-4.16,37.29q-3.66,10.7-8.5,21.54a273.59,273.59,0,0,0,1.65,44.52c.58,4.86.74,9.59.9,14.17.17,5.07.23,10,.25,14.72.23,62.14,0,97,0,97"/><path class="cls-2" d="M473.09-20.95V6.55c0,9-.22,20.09.47,33s3.07,25.86,4.93,39.49c1.12,8.2,2.13,16.55,2.47,25.17.06.3.13.59.19.88,2.15,5.93,4.46,11.83,6.79,17.92,9.6,16.69,12.87,34.39,4,51.58-3.57,6.89-6.14,14.2-9.5,21.16-1.68,3.5-2.11,7.64-2.85,11.58-1.06,5.61-1.83,11.3-2.64,17a344,344,0,0,0-3.77,52.5c.22,26.7-.05,54.88-.05,84.38V643.37c0,7.88.09,15.81,0,23.79a184,184,0,0,1-2,26.36c-2.47,10.77-2.48,22-1.3,33.15.79,7.49,1.92,14.91,3,22.22a151,151,0,0,1,4.2,23.77,184.38,184.38,0,0,1,.95,24.75,119.68,119.68,0,0,1-4.46,29.79c-.17,6.56-.25,13.15-.29,19.76-.85,5-1.61,10.13-2.28,15.24-4,29.93-4.75,60.94,2.13,91q.15,20.12.12,40.59,0,5.6,0,11.21,0,11.28.07,22.59a119.39,119.39,0,0,1,4.23,29.54c.68,24.48-4.31,49.18-4.31,74.1v508.28c0,10.59-.32,21.17-.17,31.55.13,9-2.24,16.75-3.48,24.94a99.3,99.3,0,0,0-.89,19.11A175.3,175.3,0,0,0,472.4,1743c2.73,13.22,4.42,26,6.11,38.78,1.21,9.35,2.7,18.69,4.37,28,7.08,39.47-.74,77.38-5.93,115.75-.72,5.32-1.49,10.64-2.09,16-.86,7.77-3,16.23-1.59,24.18q0,7.8.35,15.56a121.5,121.5,0,0,0,1.4,13.12,239.7,239.7,0,0,1,3.48,39.79,111.87,111.87,0,0,1-1.47,17.68,281.69,281.69,0,0,0-3.27,33.35q-.57,11.94-.67,23.74c-.09,9.4,0,18.74,0,28V2620c0,14,.41,27.59,1.72,40.77,4.29,17.23,7.36,34,7.94,50.47.44,12.61-.56,25-4.13,37.22q-3.67,10.68-8.44,21.52a261.66,261.66,0,0,0,1.72,44.43c.6,4.84.77,9.57.93,14.14.19,5.06.24,9.95.26,14.69.24,62,0,96.84,0,96.84"/><path class="cls-2" d="M493-21.57V6c0,9-.21,20.11.46,33.07s3,25.89,4.83,39.57c1.1,8.2,2.09,16.57,2.42,25.21.06.3.13.59.19.88,2.17,5.94,4.49,11.85,6.82,18,9.71,16.69,13,34.42,4,51.61-3.56,6.83-6.16,14.08-9.55,21-1.71,3.48-2.12,7.64-2.85,11.59-1,5.62-1.79,11.32-2.58,17a352.84,352.84,0,0,0-3.69,52.58c.22,26.74-.05,55-.05,84.51V643.49c0,7.9.1,15.84,0,23.83a176.32,176.32,0,0,1-2.1,26.38c-2.57,10.76-2.56,22-1.35,33.17.81,7.46,2,14.84,3,22.12a147.87,147.87,0,0,1,4.18,23.81,188.28,188.28,0,0,1,.93,24.79,122.29,122.29,0,0,1-4.36,29.84c-.17,6.58-.25,13.18-.28,19.79q-1.33,7.57-2.38,15.26c-4.12,29.95-4.94,61,2.22,91.1q.15,20.14.12,40.65c0,3.74,0,7.48,0,11.23q0,11.29.07,22.63a122,122,0,0,1,4.14,29.59c.67,24.53-4.22,49.27-4.22,74.23V1641c0,10.61-.33,21.2-.18,31.59.14,9-2.32,16.77-3.61,25a96.67,96.67,0,0,0-.94,19.08,173.55,173.55,0,0,0,3.91,27.85c2.79,13.2,4.47,26,6.13,38.7,1.18,9.34,2.64,18.67,4.28,28,6.92,39.39-.72,77.25-5.81,115.56-.7,5.31-1.46,10.62-2.05,16-.86,7.76-2.93,16.2-1.61,24.15q-.06,7.77.3,15.53a121.33,121.33,0,0,0,1.33,13.1,253.77,253.77,0,0,1,3.47,39.71,112.44,112.44,0,0,1-1.4,17.65,293.66,293.66,0,0,0-3.16,33.3q-.56,11.92-.66,23.71c-.08,9.37,0,18.7,0,28V2619.9c0,14,.4,27.53,1.69,40.69,4.2,17.21,7.2,34,7.76,50.4.43,12.6-.55,25-4.1,37.16q-3.67,10.68-8.38,21.5a249.73,249.73,0,0,0,1.8,44.34c.62,4.83.79,9.54,1,14.11.2,5.05.26,9.94.27,14.66.25,61.94,0,96.67,0,96.67"/><path class="cls-2" d="M512.94-22.19V5.41c0,9-.21,20.14.45,33.12.64,12.8,2.94,25.91,4.72,39.64,1.07,8.22,2,16.61,2.37,25.26.06.3.13.59.19.89,2.2,5.94,4.51,11.86,6.84,18,9.83,16.71,13,34.45,4,51.64-3.55,6.78-6.17,14-9.6,20.8-1.74,3.48-2.12,7.65-2.84,11.61-1,5.63-1.75,11.33-2.53,17.06A362.16,362.16,0,0,0,513,276.05c.22,26.78,0,55,0,84.63V643.62c0,7.91.1,15.86,0,23.86a170.48,170.48,0,0,1-2.19,26.39c-2.67,10.77-2.65,22-1.4,33.21.83,7.42,2,14.77,3.09,22a147.06,147.06,0,0,1,4.17,23.85,194.19,194.19,0,0,1,.9,24.83,125.26,125.26,0,0,1-4.27,29.91q-.24,9.89-.27,19.82-1.38,7.57-2.46,15.27c-4.28,30-5.13,61.1,2.3,91.18.1,13.45.12,27,.13,40.72q0,5.63,0,11.25,0,11.31.06,22.66a125.51,125.51,0,0,1,4.06,29.66c.65,24.57-4.13,49.35-4.13,74.35v509.89c0,10.63-.35,21.25-.19,31.65.14,9-2.42,16.77-3.75,25a93.31,93.31,0,0,0-1,19,168.23,168.23,0,0,0,4,27.79c2.84,13.19,4.52,25.94,6.14,38.62,1.15,9.33,2.58,18.64,4.18,28,6.78,39.33-.69,77.14-5.68,115.38-.69,5.3-1.44,10.61-2,16-.85,7.76-2.89,16.17-1.61,24.11q-.09,7.75.24,15.5a121.07,121.07,0,0,0,1.26,13.09,266.91,266.91,0,0,1,3.45,39.64,113.09,113.09,0,0,1-1.31,17.62,304.13,304.13,0,0,0-3.06,33.25q-.54,11.89-.64,23.66c-.08,9.36,0,18.68,0,28v481.19c0,13.94.39,27.49,1.65,40.62,4.11,17.2,7,33.94,7.59,50.33.42,12.59-.55,25-4.08,37.1q-3.66,10.66-8.32,21.48a241.34,241.34,0,0,0,1.87,44.25c.65,4.82.83,9.52,1,14.08.2,5,.26,9.92.28,14.64.26,61.82,0,96.49,0,96.49"/><path class="cls-2" d="M532.86-22.81V4.83c0,9-.21,20.18.44,33.18.63,12.8,2.87,25.94,4.62,39.72,1,8.22,2,16.63,2.31,25.31l.21.88c2.21,6,4.53,11.88,6.86,18,10,16.71,13.14,34.48,4.1,51.67-3.54,6.72-6.2,13.84-9.66,20.61-1.77,3.47-2.13,7.66-2.84,11.62-1,5.64-1.71,11.36-2.46,17.1a370.46,370.46,0,0,0-3.54,52.74c.22,26.82,0,55.12,0,84.75V643.75c0,7.92.1,15.88,0,23.89A165,165,0,0,1,530.6,694c-2.77,10.78-2.74,22.08-1.46,33.24.85,7.39,2,14.7,3.16,21.89a144.31,144.31,0,0,1,4.15,23.89,198.71,198.71,0,0,1,.89,24.88,128.88,128.88,0,0,1-4.18,30c-.16,6.6-.23,13.21-.27,19.85q-1.42,7.57-2.55,15.27c-4.44,30-5.32,61.19,2.39,91.28.1,13.47.13,27.09.13,40.79q0,5.63,0,11.26,0,11.32.07,22.7a129,129,0,0,1,4,29.71c.63,24.61-4,49.44-4,74.48V1644c0,10.65-.36,21.28-.19,31.69.14,9-2.51,16.78-3.89,25a90.77,90.77,0,0,0-1,19,163.36,163.36,0,0,0,4,27.73c2.89,13.17,4.56,25.9,6.14,38.55,1.14,9.31,2.53,18.61,4.1,27.92,6.62,39.25-.67,77-5.55,115.19-.68,5.29-1.42,10.59-2,15.93-.83,7.74-2.84,16.14-1.62,24.07q-.11,7.74.19,15.47a115.64,115.64,0,0,0,1.2,13.06,286.44,286.44,0,0,1,3.43,39.58,113.87,113.87,0,0,1-1.23,17.59,318,318,0,0,0-3,33.19q-.51,11.88-.62,23.63c-.08,9.34,0,18.64,0,27.89v480.34c0,13.92.38,27.44,1.61,40.56,4,17.17,6.9,33.89,7.43,50.26.41,12.57-.54,24.93-4,37q-3.68,10.64-8.26,21.45a230.22,230.22,0,0,0,1.94,44.16c.67,4.81.86,9.5,1,14.05.21,5,.27,9.9.29,14.61.27,61.72,0,96.32,0,96.32"/><path class="cls-2" d="M552.79-23.42V4.26c0,9-.21,20.2.42,33.23.62,12.8,2.81,26,4.52,39.79,1,8.24,1.95,16.66,2.26,25.36l.21.88c2.23,6,4.56,11.9,6.89,18,10.06,16.72,13.23,34.52,4.14,51.7-3.53,6.67-6.22,13.73-9.71,20.43-1.8,3.46-2.13,7.67-2.83,11.64-1,5.65-1.67,11.38-2.41,17.13a379.14,379.14,0,0,0-3.45,52.82c.2,26.86,0,55.2,0,84.87V643.88c0,7.93.1,15.9,0,23.92a161.11,161.11,0,0,1-2.35,26.42c-2.87,10.77-2.83,22.09-1.51,33.27.87,7.35,2.08,14.62,3.22,21.78a141.36,141.36,0,0,1,4.14,23.93,203.07,203.07,0,0,1,.87,24.91,131.89,131.89,0,0,1-4.08,30c-.16,6.61-.23,13.24-.27,19.89q-1.47,7.58-2.63,15.28c-4.6,30-5.52,61.27,2.47,91.37.11,13.48.13,27.13.13,40.85q0,5.63,0,11.28,0,11.36.07,22.73a132.2,132.2,0,0,1,3.87,29.78c.62,24.65-4,49.52-3.94,74.59v511.51c0,10.67-.38,21.33-.21,31.75.15,9.08-2.59,16.79-4,25a87.17,87.17,0,0,0-1.07,18.95,158.72,158.72,0,0,0,4.1,27.67,387.23,387.23,0,0,1,6.15,38.47c1.11,9.31,2.47,18.59,4,27.88,6.48,39.18-.64,76.9-5.42,115-.67,5.28-1.39,10.57-2,15.9-.83,7.74-2.81,16.11-1.63,24q-.12,7.73.12,15.44a120,120,0,0,0,1.14,13,303.73,303.73,0,0,1,3.41,39.51,113.39,113.39,0,0,1-1.14,17.56,327.69,327.69,0,0,0-2.87,33.14q-.5,11.85-.6,23.58c-.08,9.32,0,18.61,0,27.84v479.49c0,13.9.37,27.4,1.57,40.49,3.93,17.16,6.74,33.85,7.26,50.19.39,12.56-.54,24.9-4,37q-3.68,10.63-8.2,21.43a222.26,222.26,0,0,0,2,44.07,135,135,0,0,1,1.08,14c.22,5,.28,9.88.31,14.58.27,61.61,0,96.16,0,96.16"/><path class="cls-2" d="M572.71-24V3.68c0,9.06-.2,20.24.42,33.29.6,12.79,2.73,26,4.41,39.87,1,8.24,1.9,16.68,2.21,25.4l.21.88c2.26,6,4.58,11.91,6.92,18,10.18,16.73,13.32,34.55,4.18,51.72-3.52,6.62-6.24,13.61-9.76,20.26-1.83,3.44-2.13,7.67-2.82,11.65-1,5.66-1.64,11.4-2.36,17.16a389.83,389.83,0,0,0-3.37,52.91c.2,26.89,0,55.27,0,85V644c0,8,.11,15.93,0,24a155.15,155.15,0,0,1-2.43,26.43c-3,10.78-2.91,22.11-1.56,33.3.89,7.32,2.12,14.56,3.29,21.67a139,139,0,0,1,4.12,24,205.81,205.81,0,0,1,.85,25,135.79,135.79,0,0,1-4,30.09c-.15,6.62-.22,13.26-.25,19.92q-1.53,7.58-2.73,15.28c-4.76,30.07-5.7,61.36,2.56,91.46.11,13.51.13,27.17.14,40.92,0,3.76,0,7.53,0,11.29q0,11.38.06,22.78a135.5,135.5,0,0,1,3.78,29.83c.61,24.7-3.85,49.61-3.85,74.72V1646.9c0,10.69-.39,21.36-.21,31.79.15,9.11-2.68,16.8-4.17,25a85.65,85.65,0,0,0-1.11,18.92,156.17,156.17,0,0,0,4.17,27.6,364.44,364.44,0,0,1,6.16,38.4c1.08,9.29,2.41,18.56,3.91,27.83,6.32,39.12-.62,76.79-5.3,114.83-.65,5.27-1.36,10.55-1.93,15.88-.81,7.73-2.76,16.07-1.64,24q-.14,7.71.07,15.42a117,117,0,0,0,1.07,13,325.61,325.61,0,0,1,3.4,39.44,115.43,115.43,0,0,1-1.06,17.54c-1.55,11.08-2.31,22.11-2.77,33.09q-.49,11.84-.59,23.53c-.08,9.31,0,18.58,0,27.8v478.64c0,13.86.36,27.34,1.54,40.41,3.83,17.14,6.59,33.82,7.09,50.12.38,12.55-.54,24.87-4,36.92q-3.69,10.62-8.14,21.41a214.09,214.09,0,0,0,2.08,44,132,132,0,0,1,1.12,14c.22,5,.29,9.86.31,14.56.28,61.5,0,96,0,96"/><path class="cls-2" d="M592.63-24.66V3.11c0,9.07-.19,20.27.41,33.34.59,12.79,2.67,26,4.31,40,1,8.25,1.85,16.7,2.16,25.44.07.29.14.59.22.88,2.27,6,4.6,11.93,6.93,18.06,10.3,16.74,13.42,34.59,4.24,51.76-3.51,6.56-6.27,13.49-9.82,20.07-1.86,3.44-2.14,7.68-2.82,11.67-1,5.66-1.59,11.41-2.3,17.19a402.75,402.75,0,0,0-3.29,53c.2,26.93,0,55.35,0,85.11V644.13c0,8,.12,16,0,24a149.92,149.92,0,0,1-2.51,26.45c-3.06,10.78-3,22.13-1.61,33.33.91,7.27,2.16,14.48,3.36,21.55a136.57,136.57,0,0,1,4.1,24,208.35,208.35,0,0,1,.83,25,139.37,139.37,0,0,1-3.89,30.16c-.15,6.63-.22,13.28-.25,20q-1.57,7.57-2.82,15.29c-4.91,30.09-5.89,61.44,2.65,91.55q.16,20.3.14,41,0,5.65,0,11.31,0,11.4.06,22.81a139.05,139.05,0,0,1,3.69,29.9c.6,24.74-3.76,49.69-3.76,74.84v513.12c0,10.71-.39,21.4-.21,31.85.16,9.13-2.77,16.8-4.31,25a82.4,82.4,0,0,0-1.15,18.88,151.85,151.85,0,0,0,4.22,27.54,339.76,339.76,0,0,1,6.18,38.32c1,9.28,2.35,18.54,3.81,27.8,6.17,39-.59,76.67-5.17,114.64-.63,5.26-1.34,10.54-1.89,15.85-.81,7.72-2.73,16-1.65,24q-.16,7.69,0,15.38a119.25,119.25,0,0,0,1,13,348.32,348.32,0,0,1,3.38,39.37,114.88,114.88,0,0,1-1,17.51c-1.49,11.05-2.22,22.07-2.67,33q-.48,11.82-.58,23.5c-.07,9.29,0,18.54,0,27.74v477.79c0,13.84.36,27.3,1.5,40.35,3.75,17.12,6.44,33.77,6.92,50,.38,12.53-.53,24.83-4,36.85q-3.69,10.6-8.08,21.39a206.49,206.49,0,0,0,2.15,43.89,124.09,124.09,0,0,1,1.16,14c.23,5,.3,9.85.32,14.53.3,61.4,0,95.81,0,95.81"/><path class="cls-2" d="M612.56-25.28V2.54c0,9.08-.2,20.29.39,33.39.58,12.79,2.61,26,4.2,40,1,8.26,1.82,16.73,2.11,25.49.08.29.16.59.23.88,2.3,6,4.63,12,7,18.09,10.41,16.74,13.51,34.62,4.28,51.78-3.5,6.51-6.28,13.37-9.88,19.89-1.88,3.43-2.13,7.69-2.8,11.69-.95,5.67-1.56,11.43-2.24,17.22a411,411,0,0,0-3.22,53.07c.2,27,0,55.43,0,85.23v285c0,8,.11,16,0,24A146.57,146.57,0,0,1,610,694.74c-3.17,10.78-3.1,22.15-1.67,33.36.92,7.24,2.2,14.41,3.43,21.45a135.81,135.81,0,0,1,4.09,24.05,215.52,215.52,0,0,1,.8,25,143.51,143.51,0,0,1-3.79,30.22c-.15,6.64-.22,13.31-.25,20q-1.62,7.57-2.9,15.29c-5.08,30.13-6.09,61.54,2.72,91.65.12,13.54.15,27.25.15,41q0,5.65,0,11.33,0,11.42.06,22.85a143.28,143.28,0,0,1,3.61,30c.57,24.79-3.67,49.78-3.67,75v513.93c0,10.72-.41,21.44-.23,31.89.17,9.17-2.85,16.82-4.44,25a79.9,79.9,0,0,0-1.2,18.84,148.61,148.61,0,0,0,4.29,27.48c3.11,13.11,4.75,25.72,6.19,38.24,1,9.27,2.29,18.51,3.72,27.76,6,39-.58,76.55-5,114.46-.62,5.25-1.31,10.52-1.86,15.82-.8,7.72-2.68,16-1.66,23.91q-.18,7.68,0,15.36a116.26,116.26,0,0,0,.93,13,377.79,377.79,0,0,1,3.36,39.31,115.51,115.51,0,0,1-.89,17.47c-1.42,11-2.12,22-2.56,33q-.47,11.79-.56,23.45c-.08,9.28,0,18.51,0,27.7v476.93c0,13.82.34,27.25,1.46,40.28,3.65,17.11,6.28,33.73,6.75,50,.36,12.52-.53,24.8-3.94,36.8q-3.71,10.59-8,21.36a199.18,199.18,0,0,0,2.22,43.79,124.13,124.13,0,0,1,1.19,13.94c.24,5,.31,9.83.34,14.5.3,61.29,0,95.64,0,95.64"/><path class="cls-2" d="M632.48-25.9V2c0,9.1-.19,20.33.39,33.45.56,12.78,2.53,26.07,4.09,40.1.92,8.27,1.77,16.75,2.06,25.53.08.3.16.59.23.88,2.32,6,4.65,12,7,18.11,10.53,16.76,13.6,34.66,4.32,51.82-3.48,6.45-6.3,13.25-9.93,19.71-1.91,3.41-2.14,7.69-2.79,11.7-.94,5.68-1.52,11.45-2.19,17.25a423.44,423.44,0,0,0-3.13,53.15c.18,27,0,55.5,0,85.35V644.39c0,8,.12,16,0,24.06a142,142,0,0,1-2.67,26.47c-3.26,10.78-3.18,22.16-1.72,33.39.94,7.2,2.24,14.34,3.5,21.33a133.54,133.54,0,0,1,4.07,24.09,223.26,223.26,0,0,1,.79,25.08,147.49,147.49,0,0,1-3.71,30.28c-.14,6.65-.2,13.32-.23,20q-1.68,7.59-3,15.31c-5.23,30.15-6.27,61.62,2.81,91.74.13,13.56.15,27.29.16,41.1,0,3.78,0,7.57,0,11.35q0,11.43.06,22.88a147.91,147.91,0,0,1,3.51,30c.56,24.82-3.58,49.86-3.58,75.09v514.73c0,10.75-.42,21.48-.23,32,.17,9.19-2.94,16.82-4.58,25a77.53,77.53,0,0,0-1.24,18.8,144.67,144.67,0,0,0,4.35,27.42c3.16,13.1,4.79,25.67,6.2,38.17,1,9.25,2.23,18.48,3.62,27.72,5.87,38.9-.55,76.43-4.92,114.27-.6,5.25-1.28,10.5-1.82,15.8-.79,7.7-2.64,16-1.67,23.87q-.2,7.65-.11,15.33a118.33,118.33,0,0,0,.87,13c1.62,13.3,3,26.31,3.35,39.24a116.36,116.36,0,0,1-.81,17.44c-1.35,11-2,22-2.46,32.93q-.45,11.77-.55,23.41c-.07,9.26,0,18.48,0,27.65v476.08c0,13.8.34,27.21,1.43,40.21,3.56,17.09,6.13,33.7,6.58,49.92.35,12.5-.53,24.76-3.92,36.73-2.47,7.05-5.13,14.18-8,21.34a192.49,192.49,0,0,0,2.3,43.7,119.3,119.3,0,0,1,1.22,13.91c.25,5,.33,9.81.35,14.48.31,61.18,0,95.46,0,95.46"/><path class="cls-2" d="M652.4-26.51V1.39c0,9.11-.18,20.36.38,33.5.55,12.78,2.47,26.09,4,40.17.9,8.28,1.72,16.78,2,25.58l.24.89c2.33,6,4.67,12,7,18.13,10.64,16.76,13.69,34.69,4.37,51.84-3.48,6.4-6.33,13.13-10,19.53-1.94,3.4-2.14,7.7-2.79,11.71-.92,5.69-1.48,11.48-2.13,17.29a434.53,434.53,0,0,0-3,53.23c.18,27,0,55.58,0,85.47V644.51c0,8,.13,16,0,24.1a137.4,137.4,0,0,1-2.75,26.48c-3.36,10.78-3.27,22.19-1.77,33.42,1,7.17,2.28,14.27,3.56,21.22a131.33,131.33,0,0,1,4.06,24.14,226.11,226.11,0,0,1,.77,25.11,151.56,151.56,0,0,1-3.61,30.35c-.14,6.66-.2,13.34-.23,20q-1.73,7.59-3.09,15.31c-5.39,30.19-6.46,61.71,2.9,91.83.13,13.58.16,27.34.16,41.17,0,3.79,0,7.58,0,11.37q0,11.44.06,22.92a151.91,151.91,0,0,1,3.42,30.08c.55,24.86-3.49,49.94-3.49,75.21V1652.8c0,10.76-.43,21.51-.23,32,.17,9.22-3,16.83-4.73,25a75.72,75.72,0,0,0-1.28,18.76,141.71,141.71,0,0,0,4.42,27.35c3.22,13.08,4.84,25.63,6.2,38.09,1,9.24,2.18,18.46,3.54,27.68,5.71,38.83-.53,76.32-4.8,114.09-.59,5.24-1.25,10.49-1.79,15.77-.78,7.7-2.6,16-1.68,23.83q-.21,7.65-.16,15.3a115.4,115.4,0,0,0,.81,12.94c1.55,13.3,2.93,26.28,3.32,39.17a117.22,117.22,0,0,1-.72,17.42c-1.29,11-1.95,22-2.36,32.88q-.44,11.74-.54,23.37c-.07,9.24,0,18.44,0,27.59v475.24c0,13.77.33,27.15,1.39,40.13,3.47,17.08,6,33.66,6.42,49.85.34,12.49-.53,24.73-3.9,36.67q-3.7,10.56-7.89,21.32a186.2,186.2,0,0,0,2.36,43.61,117,117,0,0,1,1.27,13.88c.25,5,.33,9.79.35,14.45.33,61.07,0,95.3,0,95.3"/><path class="cls-2" d="M672.33-27.13v28c0,9.12-.18,20.39.36,33.55.54,12.78,2.41,26.12,3.89,40.25.87,8.29,1.68,16.8,1.95,25.62.09.3.17.59.25.89,2.36,6,4.7,12,7,18.15,10.77,16.77,13.79,34.72,4.42,51.88-3.47,6.34-6.35,13-10,19.34-2,3.39-2.14,7.71-2.78,11.73-.9,5.7-1.44,11.49-2.08,17.32a450.37,450.37,0,0,0-3,53.31c.18,27.08,0,55.66,0,85.6V644.64c0,8,.13,16,0,24.13a133.92,133.92,0,0,1-2.84,26.49c-3.45,10.79-3.36,22.21-1.82,33.46,1,7.13,2.32,14.19,3.63,21.11a128.18,128.18,0,0,1,4,24.17,232,232,0,0,1,.75,25.16,156.5,156.5,0,0,1-3.51,30.4c-.14,6.68-.2,13.37-.23,20.08q-1.77,7.59-3.17,15.32c-5.55,30.21-6.65,61.79,3,91.92.13,13.6.16,27.38.17,41.23v11.39q0,11.46.06,23a155.5,155.5,0,0,1,3.33,30.14c.54,24.91-3.39,50-3.39,75.34v516.34c0,10.79-.45,21.56-.25,32,.18,9.26-3.11,16.85-4.86,25a73.53,73.53,0,0,0-1.32,18.72,137.86,137.86,0,0,0,4.48,27.28c3.27,13.08,4.88,25.59,6.21,38,.95,9.23,2.12,18.44,3.44,27.65,5.57,38.75-.5,76.19-4.66,113.9-.58,5.23-1.24,10.47-1.76,15.75-.77,7.68-2.56,15.92-1.69,23.78q-.24,7.63-.22,15.28a115.21,115.21,0,0,0,.74,12.92c1.48,13.28,2.86,26.24,3.31,39.1a118.06,118.06,0,0,1-.64,17.39c-1.23,11-1.86,21.92-2.26,32.82-.28,7.82-.47,15.59-.52,23.33-.07,9.23,0,18.41,0,27.55V2619.2c0,13.75.32,27.11,1.35,40.07,3.38,17.05,5.82,33.62,6.25,49.77.32,12.48-.53,24.7-3.87,36.61q-3.72,10.56-7.84,21.3a180.25,180.25,0,0,0,2.44,43.52,112.63,112.63,0,0,1,1.3,13.85c.26,5,.34,9.77.37,14.42.33,61,0,95.13,0,95.13"/><path class="cls-2" d="M692.25-27.75v28c0,9.14-.17,20.42.36,33.61.51,12.77,2.33,26.14,3.78,40.32.84,8.3,1.63,16.83,1.9,25.67.09.3.17.59.25.89,2.38,6,4.72,12,7.06,18.18,10.88,16.78,13.88,34.75,4.46,51.9C706.61,177.1,703.69,183.7,700,190c-2,3.37-2.15,7.71-2.78,11.74-.88,5.71-1.4,11.51-2,17.35a462.77,462.77,0,0,0-2.9,53.39c.18,27.12,0,55.74,0,85.72V644.77c0,8,.13,16.06,0,24.16a130.82,130.82,0,0,1-2.91,26.51c-3.56,10.79-3.45,22.22-1.87,33.48,1,7.1,2.35,14.13,3.69,21a127.11,127.11,0,0,1,4,24.21,235.36,235.36,0,0,1,.73,25.2,161.06,161.06,0,0,1-3.42,30.47c-.13,6.68-.19,13.39-.22,20.11q-1.82,7.59-3.26,15.33c-5.71,30.24-6.84,61.87,3.07,92,.13,13.62.16,27.41.17,41.3q0,5.69,0,11.4,0,11.47,0,23a160.72,160.72,0,0,1,3.24,30.2c.52,24.95-3.3,50.11-3.3,75.46v517.15c0,10.8-.46,21.59-.25,32.09.18,9.28-3.2,16.85-5,25a72,72,0,0,0-1.37,18.68,135.68,135.68,0,0,0,4.54,27.22c3.33,13.06,4.94,25.55,6.23,38q1.4,13.82,3.35,27.6c5.41,38.69-.48,76.08-4.54,113.71-.57,5.23-1.21,10.46-1.73,15.73-.76,7.68-2.52,15.9-1.7,23.75q-.25,7.62-.27,15.24a117,117,0,0,0,.67,12.9c1.42,13.27,2.79,26.21,3.29,39a117.62,117.62,0,0,1-.55,17.36c-1.17,10.94-1.78,21.88-2.16,32.77q-.42,11.7-.51,23.29c-.07,9.2,0,18.37,0,27.49v473.53c0,13.72.31,27.06,1.32,40,3.29,17,5.67,33.58,6.08,49.71.31,12.46-.53,24.66-3.85,36.54q-3.72,10.55-7.78,21.28a174.65,174.65,0,0,0,2.51,43.43,106.84,106.84,0,0,1,1.34,13.82c.27,5,.35,9.76.38,14.4.34,60.85,0,94.95,0,94.95"/><path class="cls-2" d="M712.17-28.37v28c0,9.15-.17,20.45.35,33.66.5,12.77,2.27,26.17,3.68,40.4.82,8.31,1.58,16.86,1.85,25.71.09.3.17.59.25.89,2.41,6,4.75,12,7.09,18.2,11,16.79,14,34.8,4.51,51.94-3.45,6.23-6.4,12.77-10.15,19-2,3.36-2.15,7.72-2.77,11.76-.87,5.72-1.36,11.53-2,17.38a475.89,475.89,0,0,0-2.81,53.47c.17,27.16,0,55.82,0,85.84v287c0,8,.14,16.09,0,24.2a127.67,127.67,0,0,1-3,26.52c-3.66,10.79-3.54,22.25-1.92,33.52,1,7.06,2.39,14,3.76,20.88a125.92,125.92,0,0,1,4,24.26,244.06,244.06,0,0,1,.7,25.24A165.93,165.93,0,0,1,712.41,830c-.13,6.69-.18,13.41-.21,20.14q-1.87,7.59-3.36,15.33c-5.86,30.27-7,62,3.16,92.1.14,13.64.17,27.46.17,41.37,0,3.8,0,7.61,0,11.42q0,11.49.05,23a165.59,165.59,0,0,1,3.15,30.26c.51,25-3.21,50.2-3.21,75.59v518c0,10.82-.47,21.62-.25,32.13.19,9.31-3.29,16.86-5.14,25a70,70,0,0,0-1.41,18.64,132.42,132.42,0,0,0,4.6,27.16c3.38,13,5,25.5,6.24,37.87q1.35,13.8,3.26,27.56c5.26,38.62-.46,76-4.42,113.53-.55,5.22-1.18,10.44-1.7,15.71-.74,7.67-2.47,15.86-1.7,23.7q-.27,7.61-.33,15.22a114.45,114.45,0,0,0,.6,12.88c1.35,13.26,2.72,26.17,3.28,39a121.16,121.16,0,0,1-.47,17.32c-1.11,10.93-1.69,21.85-2.06,32.72q-.4,11.68-.5,23.25c-.06,9.19,0,18.34,0,27.45V2619c0,13.7.31,27,1.29,39.93,3.19,17,5.51,33.54,5.9,49.64.31,12.45-.52,24.64-3.81,36.49-2.49,7-5.07,14.11-7.72,21.25a169.39,169.39,0,0,0,2.58,43.34,106.44,106.44,0,0,1,1.38,13.79c.27,4.95.36,9.74.38,14.37.36,60.75,0,94.78,0,94.78"/><path class="cls-2" d="M732.1-29V-.91c0,9.17-.17,20.49.34,33.72.48,12.77,2.2,26.19,3.57,40.47.79,8.32,1.54,16.89,1.8,25.77.09.29.17.59.26.88,2.42,6,4.77,12,7.11,18.23,11.11,16.79,14.07,34.83,4.55,52-3.43,6.18-6.42,12.65-10.2,18.8-2.07,3.36-2.16,7.73-2.76,11.78-.86,5.72-1.33,11.55-1.91,17.41a492.18,492.18,0,0,0-2.73,53.55c.16,27.2,0,55.9,0,86V645c0,8,.14,16.11,0,24.23A124.94,124.94,0,0,1,729,695.79c-3.75,10.79-3.63,22.26-2,33.54,1,7,2.43,14,3.83,20.78a124.55,124.55,0,0,1,4,24.29c.66,8.39.87,16.84.69,25.28a172.65,172.65,0,0,1-3.23,30.59c-.13,6.71-.18,13.43-.21,20.18q-1.92,7.59-3.44,15.34c-6,30.3-7.22,62,3.24,92.19.14,13.66.17,27.5.18,41.43v11.44q0,11.5,0,23.06a171.48,171.48,0,0,1,3.07,30.32c.49,25-3.12,50.28-3.12,75.7V1658.7c0,10.84-.48,21.67-.27,32.19.2,9.34-3.37,16.86-5.27,25a68.15,68.15,0,0,0-1.46,18.61c.41,9.17,2.34,18.3,4.67,27.09,3.43,13,5,25.46,6.25,37.8.87,9.18,2,18.35,3.16,27.52,5.11,38.54-.43,75.84-4.29,113.34-.54,5.21-1.15,10.43-1.66,15.68-.74,7.66-2.44,15.83-1.72,23.66q-.28,7.59-.39,15.19a116.44,116.44,0,0,0,.54,12.86c1.28,13.25,2.65,26.14,3.26,38.9a119.3,119.3,0,0,1-.39,17.3c-1,10.91-1.59,21.81-1.95,32.67q-.39,11.65-.48,23.2c-.06,9.18,0,18.31,0,27.4V2619c0,13.67.29,27,1.24,39.86,3.11,17,5.36,33.5,5.74,49.57.29,12.43-.52,24.6-3.79,36.42-2.48,7-5,14.1-7.66,21.23a164.8,164.8,0,0,0,2.65,43.25,101.2,101.2,0,0,1,1.42,13.76c.28,4.94.37,9.72.4,14.34.36,60.65,0,94.61,0,94.61"/><path class="cls-2" d="M752-29.6V-1.48c0,9.18-.16,20.51.33,33.77.47,12.76,2.13,26.22,3.46,40.55.78,8.33,1.5,16.91,1.75,25.81.1.29.18.59.27.88,2.44,6,4.79,12.07,7.13,18.25,11.23,16.81,14.17,34.87,4.6,52-3.42,6.13-6.45,12.52-10.25,18.61-2.1,3.34-2.16,7.74-2.76,11.79-.84,5.74-1.28,11.58-1.85,17.45a509.6,509.6,0,0,0-2.65,53.64c.16,27.23,0,56,0,86.08v287.8c0,8,.15,16.13,0,24.27A121.54,121.54,0,0,1,748.86,696c-3.85,10.8-3.71,22.28-2,33.58,1,7,2.47,13.91,3.9,20.66a122.69,122.69,0,0,1,4,24.34c.65,8.4.85,16.86.67,25.32a177.22,177.22,0,0,1-3.14,30.65q-.16,10.08-.2,20.21c-1.3,5.06-2.49,10.18-3.53,15.34-6.18,30.33-7.41,62.13,3.33,92.29.14,13.67.17,27.54.18,41.49q0,5.71,0,11.46,0,11.52.05,23.09a177,177,0,0,1,3,30.38c.48,25.08-3,50.36-3,75.83v519.58c0,10.86-.49,21.7-.27,32.23.2,9.37-3.46,16.88-5.42,25a66.32,66.32,0,0,0-1.49,18.57c.41,9.15,2.36,18.26,4.73,27,3.49,13,5.07,25.42,6.26,37.72.84,9.17,1.89,18.33,3.07,27.48,5,38.48-.42,75.73-4.17,113.16-.52,5.2-1.13,10.41-1.63,15.65-.73,7.66-2.39,15.81-1.72,23.63q-.32,7.57-.45,15.16a116.25,116.25,0,0,0,.47,12.84c1.22,13.24,2.58,26.1,3.24,38.83a120.21,120.21,0,0,1-.3,17.27c-1,10.88-1.5,21.77-1.85,32.61-.25,7.77-.42,15.48-.47,23.17-.06,9.16,0,18.27,0,27.34v471c0,13.65.29,26.92,1.21,39.79,3,17,5.21,33.46,5.57,49.5.28,12.42-.51,24.57-3.77,36.36-2.48,7-5,14.08-7.59,21.21a159.23,159.23,0,0,0,2.72,43.16,97.87,97.87,0,0,1,1.45,13.72c.29,4.95.38,9.71.41,14.33.37,60.53,0,94.44,0,94.44"/><path class="cls-2" d="M771.94-30.22V-2c0,9.19-.15,20.54.32,33.82.46,12.76,2.07,26.24,3.36,40.62.75,8.34,1.45,16.94,1.7,25.86l.27.88c2.47,6.06,4.82,12.09,7.16,18.28,11.34,16.81,14.26,34.9,4.65,52-3.41,6.08-6.47,12.41-10.32,18.44-2.12,3.33-2.16,7.74-2.74,11.8-.83,5.75-1.25,11.59-1.79,17.48A525.22,525.22,0,0,0,772,270.87c.16,27.27,0,56.05,0,86.2V645.28c0,8.05.15,16.15,0,24.3a119,119,0,0,1-3.23,26.56c-4,10.79-3.79,22.29-2.08,33.6,1.07,7,2.51,13.84,4,20.55a120.22,120.22,0,0,1,4,24.38c.64,8.41.82,16.89.65,25.36a184,184,0,0,1-3,30.72Q772,840.83,772,851q-2,7.59-3.63,15.35c-6.33,30.35-7.6,62.21,3.42,92.37.14,13.7.18,27.59.18,41.56,0,3.82,0,7.65,0,11.47q0,11.55,0,23.14a183.63,183.63,0,0,1,2.88,30.44c.46,25.12-2.94,50.44-2.94,76v520.38c0,10.88-.5,21.74-.27,32.29.2,9.39-3.55,16.88-5.56,25a64.9,64.9,0,0,0-1.54,18.52c.42,9.14,2.4,18.23,4.8,27,3.54,13,5.11,25.37,6.26,37.64q1.25,13.74,3,27.45c4.81,38.4-.39,75.61-4,113-.5,5.19-1.1,10.39-1.59,15.63-.72,7.64-2.36,15.77-1.74,23.58q-.33,7.56-.5,15.13a113.41,113.41,0,0,0,.41,12.82c1.14,13.23,2.51,26.07,3.22,38.77a121.21,121.21,0,0,1-.22,17.24c-.92,10.86-1.42,21.73-1.75,32.56-.24,7.75-.41,15.45-.46,23.12-.05,9.14,0,18.24,0,27.3v470.12c0,13.63.28,26.87,1.18,39.72,2.92,17,5,33.42,5.4,49.43.27,12.41-.51,24.54-3.74,36.3-2.49,7-5,14.07-7.54,21.19a155,155,0,0,0,2.8,43.06,98,98,0,0,1,1.49,13.7c.29,4.94.39,9.69.41,14.3.39,60.43,0,94.27,0,94.27"/><path class="cls-2" d="M791.87-30.84V-2.63c0,9.21-.16,20.58.31,33.88.44,12.75,2,26.26,3.25,40.7.73,8.35,1.41,17,1.65,25.9.09.29.19.59.28.89,2.48,6.06,4.83,12.09,7.18,18.29,11.46,16.82,14.35,34.94,4.69,52.06-3.4,6-6.49,12.29-10.37,18.25-2.15,3.32-2.16,7.75-2.73,11.82-.82,5.75-1.21,11.61-1.74,17.5-1.63,17.36-2.59,35.23-2.49,53.81.15,27.31,0,56.13,0,86.32V645.4c0,8.07.15,16.18,0,24.34a116.47,116.47,0,0,1-3.32,26.57c-4,10.8-3.88,22.32-2.13,33.64,1.09,6.92,2.55,13.77,4,20.43a119.9,119.9,0,0,1,3.95,24.42c.62,8.43.79,16.92.62,25.4A190,190,0,0,1,792.08,831q-.17,10.11-.19,20.27c-1.37,5.07-2.62,10.19-3.71,15.36-6.5,30.39-7.79,62.31,3.49,92.47.16,13.72.19,27.62.2,41.62v11.49q0,11.56,0,23.17a189.87,189.87,0,0,1,2.79,30.5c.45,25.17-2.84,50.53-2.84,76.08v521.19c0,10.89-.52,21.78-.29,32.33.21,9.43-3.63,16.89-5.69,25.06a63.25,63.25,0,0,0-1.58,18.48c.41,9.12,2.42,18.2,4.85,26.91,3.6,13,5.17,25.33,6.28,37.57q1.2,13.71,2.89,27.4c4.65,38.33-.37,75.49-3.92,112.79-.49,5.18-1.07,10.38-1.56,15.6-.71,7.64-2.31,15.74-1.74,23.55q-.36,7.53-.56,15.1a110.94,110.94,0,0,0,.34,12.8c1.08,13.21,2.44,26,3.2,38.7a122.17,122.17,0,0,1-.13,17.21c-.86,10.84-1.33,21.69-1.65,32.5-.23,7.74-.39,15.43-.44,23.08-.06,9.13,0,18.21,0,27.25v469.27c0,13.6.27,26.83,1.13,39.65,2.83,16.95,4.9,33.39,5.24,49.37.25,12.39-.51,24.5-3.72,36.23-2.49,7-5,14.06-7.47,21.17a150.41,150.41,0,0,0,2.86,43,93.45,93.45,0,0,1,1.53,13.67c.3,4.93.4,9.68.43,14.27.39,60.32,0,94.1,0,94.1"/><path class="cls-2" d="M811.79-31.46V-3.2c0,9.22-.15,20.6.3,33.93.43,12.75,1.94,26.29,3.15,40.78.7,8.35,1.36,17,1.6,25.94.09.3.19.59.28.89,2.51,6.07,4.86,12.11,7.21,18.32,11.57,16.83,14.45,35,4.73,52.08-3.39,6-6.5,12.17-10.42,18.07-2.18,3.31-2.16,7.76-2.73,11.84-.8,5.76-1.17,11.63-1.68,17.53-1.57,17.38-2.51,35.28-2.41,53.89.14,27.35,0,56.21,0,86.44v289c0,8.08.16,16.2,0,24.37a113.66,113.66,0,0,1-3.4,26.59c-4.15,10.79-4,22.33-2.18,33.66,1.1,6.89,2.59,13.7,4.1,20.33a118.11,118.11,0,0,1,3.93,24.46c.61,8.44.77,16.94.6,25.44A195.33,195.33,0,0,1,812,831.22q-.15,10.13-.18,20.3c-1.4,5.07-2.68,10.2-3.8,15.37-6.65,30.41-8,62.39,3.58,92.56.16,13.73.19,27.66.2,41.68,0,3.84,0,7.67,0,11.51q0,11.58,0,23.21a195.07,195.07,0,0,1,2.7,30.56c.44,25.21-2.75,50.61-2.75,76.2v522c0,10.92-.53,21.82-.29,32.39.21,9.45-3.72,16.9-5.83,25.06A62,62,0,0,0,804,1740.5c.42,9.09,2.45,18.15,4.92,26.84,3.65,13,5.21,25.28,6.29,37.49.77,9.14,1.72,18.25,2.79,27.36,4.51,38.27-.34,75.38-3.78,112.61-.48,5.18-1.06,10.36-1.53,15.58-.7,7.62-2.27,15.71-1.76,23.5q-.36,7.53-.62,15.08a115.18,115.18,0,0,0,.28,12.77c1,13.21,2.37,26,3.19,38.63a123.17,123.17,0,0,1-.05,17.18c-.8,10.82-1.24,21.66-1.55,32.46q-.35,11.58-.43,23c0,9.11,0,18.17,0,27.2v468.42c0,13.57.26,26.77,1.1,39.58,2.74,16.93,4.75,33.34,5.06,49.29.25,12.38-.5,24.47-3.68,36.18-2.5,7-5,14-7.42,21.14a146.36,146.36,0,0,0,2.94,42.88,91.71,91.71,0,0,1,1.56,13.64c.32,4.92.41,9.66.44,14.25.4,60.21,0,93.92,0,93.92"/><path class="cls-2" d="M831.72-32.08v28.3c0,9.24-.15,20.64.28,34,.42,12.75,1.87,26.31,3,40.85.68,8.37,1.31,17,1.54,26,.1.3.2.59.29.89,2.53,6.08,4.89,12.13,7.23,18.34,11.7,16.84,14.55,35,4.79,52.11-3.38,5.92-6.54,12.05-10.48,17.9-2.22,3.29-2.17,7.76-2.72,11.85-.78,5.77-1.13,11.65-1.63,17.56-1.52,17.4-2.42,35.33-2.33,54,.14,27.38,0,56.29,0,86.56V645.66c0,8.09.16,16.22,0,24.4a111.93,111.93,0,0,1-3.48,26.6c-4.25,10.8-4.08,22.35-2.24,33.7,1.12,6.84,2.63,13.62,4.17,20.21a117.15,117.15,0,0,1,3.91,24.5c.59,8.46.74,17,.59,25.48a206.18,206.18,0,0,1-2.76,30.91q-.15,10.13-.17,20.33c-1.44,5.07-2.75,10.2-3.89,15.37-6.82,30.45-8.18,62.48,3.66,92.65.16,13.76.2,27.71.2,41.75,0,3.84,0,7.69,0,11.53q0,11.61,0,23.24a203.35,203.35,0,0,1,2.62,30.62c.42,25.26-2.66,50.7-2.66,76.33v522.8c0,10.93-.55,21.85-.3,32.43.22,9.48-3.81,16.91-6,25.07a60.52,60.52,0,0,0-1.66,18.41c.42,9.08,2.48,18.12,5,26.78,3.7,13,5.26,25.24,6.3,37.41.74,9.13,1.66,18.23,2.7,27.33,4.35,38.19-.32,75.26-3.66,112.42-.47,5.17-1,10.34-1.5,15.55-.69,7.62-2.23,15.68-1.76,23.46q-.39,7.51-.68,15a112.7,112.7,0,0,0,.21,12.76c.94,13.19,2.3,26,3.17,38.56a125.8,125.8,0,0,1,0,17.15c-.74,10.8-1.16,21.62-1.45,32.41-.22,7.7-.37,15.36-.41,23-.06,9.1,0,18.15,0,27.15v467.57c0,13.55.25,26.73,1.06,39.51,2.65,16.91,4.59,33.3,4.89,49.23.24,12.36-.5,24.43-3.66,36.11-2.5,7-5,14-7.35,21.13a142.76,142.76,0,0,0,3,42.78,90.26,90.26,0,0,1,1.61,13.61c.32,4.91.41,9.64.45,14.22.41,60.11,0,93.75,0,93.75"/><path class="cls-2" d="M851.64-32.69V-4.35c0,9.25-.14,20.67.28,34,.4,12.74,1.8,26.34,2.94,40.93.65,8.37,1.27,17,1.49,26l.3.89c2.55,6.09,4.9,12.15,7.25,18.37,11.81,16.84,14.65,35.05,4.83,52.14-3.37,5.86-6.56,11.92-10.53,17.71-2.25,3.28-2.17,7.77-2.72,11.86-.76,5.79-1.09,11.67-1.57,17.6-1.46,17.42-2.34,35.38-2.24,54,.13,27.42,0,56.37,0,86.69V645.78c0,8.11.16,16.25,0,24.44a109.78,109.78,0,0,1-3.56,26.61c-4.35,10.81-4.17,22.38-2.29,33.73,1.14,6.81,2.67,13.56,4.24,20.1a115.56,115.56,0,0,1,3.89,24.54c.58,8.47.72,17,.57,25.53a213.5,213.5,0,0,1-2.66,31q-.15,10.15-.17,20.37c-1.47,5.07-2.81,10.2-4,15.38-7,30.47-8.36,62.56,3.75,92.74.16,13.77.2,27.75.21,41.82v11.54q0,11.63.05,23.28a212.05,212.05,0,0,1,2.52,30.68c.4,25.29-2.57,50.78-2.57,76.45v523.6c0,11-.56,21.9-.31,32.49.23,9.51-3.89,16.91-6.11,25.07a59.06,59.06,0,0,0-1.71,18.37c.42,9.06,2.51,18.08,5,26.72,3.76,12.94,5.3,25.19,6.31,37.34q1.08,13.67,2.6,27.28c4.21,38.12-.29,75.14-3.53,112.24-.45,5.16-1,10.32-1.46,15.53-.68,7.6-2.19,15.64-1.78,23.42q-.41,7.48-.73,15a114.89,114.89,0,0,0,.14,12.74c.88,13.18,2.23,25.91,3.15,38.49a123.7,123.7,0,0,1,.12,17.12c-.67,10.78-1.06,21.58-1.34,32.35-.21,7.69-.36,15.34-.4,23,0,9.07,0,18.11,0,27.09V2618.5c0,13.53.24,26.68,1,39.44,2.56,16.9,4.44,33.27,4.73,49.16.22,12.35-.5,24.4-3.64,36.05-2.5,6.95-5,14-7.29,21.11a138.78,138.78,0,0,0,3.08,42.69,87.52,87.52,0,0,1,1.64,13.58c.33,4.9.43,9.62.46,14.19.42,60,0,93.59,0,93.59"/><path class="cls-2" d="M871.56-33.31V-4.92c0,9.26-.13,20.7.27,34.09.39,12.74,1.74,26.36,2.84,41,.62,8.39,1.22,17.06,1.44,26.08l.3.89c2.57,6.1,4.93,12.17,7.28,18.39,11.92,16.86,14.74,35.09,4.87,52.17-3.35,5.81-6.59,11.8-10.58,17.53-2.28,3.27-2.18,7.78-2.71,11.88-.75,5.79-1,11.69-1.51,17.63-1.42,17.44-2.26,35.43-2.17,54.13.13,27.46,0,56.45,0,86.81V645.91c0,8.11.17,16.27,0,24.47A107.33,107.33,0,0,1,867.92,697c-4.45,10.8-4.26,22.39-2.34,33.76,1.15,6.77,2.71,13.48,4.3,20a113.94,113.94,0,0,1,3.88,24.58c.57,8.48.7,17,.55,25.56a223.25,223.25,0,0,1-2.56,31q-.15,10.17-.17,20.4c-1.5,5.07-2.87,10.2-4.07,15.39-7.13,30.5-8.55,62.64,3.84,92.83.17,13.79.2,27.79.21,41.88q0,5.77,0,11.56,0,11.64,0,23.31A221.75,221.75,0,0,1,874,1068c.39,25.34-2.48,50.87-2.48,76.58V1669c0,11-.56,21.93-.31,32.53.23,9.54-4,16.93-6.25,25.08a58,58,0,0,0-1.75,18.33c.42,9,2.53,18,5.11,26.66,3.81,12.93,5.35,25.15,6.32,37.26q1,13.65,2.51,27.25c4,38-.27,75-3.41,112-.44,5.15-1,10.31-1.43,15.5-.67,7.6-2.15,15.62-1.78,23.38q-.44,7.48-.79,15a114.66,114.66,0,0,0,.07,12.72c.81,13.17,2.16,25.88,3.14,38.42a124.94,124.94,0,0,1,.2,17.1c-.61,10.75-1,21.54-1.24,32.3-.2,7.67-.35,15.31-.39,22.91,0,9.06,0,18.08,0,27v465.86c0,13.51.24,26.63,1,39.37,2.47,16.89,4.29,33.23,4.56,49.09.21,12.34-.5,24.37-3.61,36-2.51,7-5,14-7.23,21.09a135.27,135.27,0,0,0,3.14,42.6,83.85,83.85,0,0,1,1.68,13.55c.34,4.89.44,9.61.47,14.17.43,59.89,0,93.41,0,93.41"/><path class="cls-2" d="M891.49-33.93V-5.5c0,9.28-.14,20.73.25,34.15.38,12.74,1.68,26.39,2.74,41.08.6,8.39,1.17,17.08,1.39,26.12l.3.89c2.59,6.11,5,12.19,7.31,18.42,12,16.86,14.84,35.12,4.92,52.2-3.35,5.76-6.62,11.68-10.64,17.34-2.32,3.26-2.18,7.79-2.7,11.9-.74,5.8-1,11.71-1.46,17.66-1.36,17.46-2.17,35.48-2.09,54.21.13,27.5,0,56.53,0,86.93V646c0,8.12.17,16.29,0,24.51a105.84,105.84,0,0,1-3.73,26.63c-4.54,10.81-4.35,22.42-2.39,33.79,1.17,6.74,2.75,13.41,4.37,19.88,2.35,7.93,3.32,16.24,3.87,24.62s.66,17,.52,25.61a230.42,230.42,0,0,1-2.47,31.09q-.13,10.19-.16,20.43c-1.53,5.07-2.93,10.21-4.15,15.39-7.29,30.53-8.75,62.73,3.92,92.92.17,13.82.21,27.84.21,42q0,5.77,0,11.58,0,11.65,0,23.35a228.73,228.73,0,0,1,2.34,30.8c.38,25.38-2.38,51-2.38,76.69V1670.5c0,11-.58,22-.32,32.59.23,9.56-4.06,16.93-6.39,25.09a56.55,56.55,0,0,0-1.8,18.29c.42,9,2.58,18,5.17,26.59,3.9,12.9,5.4,25.1,6.33,37.19q1,13.62,2.42,27.2c3.9,38-.25,74.9-3.28,111.87-.42,5.14-1,10.29-1.4,15.47-.66,7.6-2.1,15.59-1.79,23.35q-.43,7.45-.85,15a112,112,0,0,0,0,12.7c.73,13.15,2.08,25.84,3.11,38.35a126.06,126.06,0,0,1,.29,17.07c-.55,10.73-.88,21.5-1.15,32.24-.18,7.66-.32,15.28-.36,22.87,0,9.05,0,18.05,0,27v465c0,13.48.22,26.58,1,39.3,2.37,16.86,4.13,33.18,4.39,49,.2,12.32-.5,24.33-3.59,35.92-2.51,6.94-4.93,14-7.17,21.07a131.65,131.65,0,0,0,3.22,42.51,83.67,83.67,0,0,1,1.72,13.52c.34,4.88.44,9.59.48,14.14.44,59.78,0,93.24,0,93.24"/><path class="cls-2" d="M911.41-34.55V-6.07c0,9.29-.13,20.76.25,34.2.35,12.73,1.61,26.41,2.62,41.15.58,8.41,1.14,17.11,1.34,26.18.11.29.21.59.32.88,2.61,6.12,5,12.2,7.32,18.44,12.16,16.87,14.94,35.16,5,52.23-3.33,5.71-6.64,11.56-10.7,17.17-2.34,3.24-2.17,7.79-2.69,11.91-.72,5.81-1,11.73-1.4,17.69-1.31,17.48-2.09,35.53-2,54.3.12,27.53,0,56.6,0,87v291c0,8.13.18,16.31,0,24.54a104,104,0,0,1-3.8,26.65c-4.65,10.81-4.46,22.43-2.45,33.81,1.18,6.71,2.79,13.35,4.44,19.77,2.36,7.94,3.32,16.27,3.85,24.67s.64,17.07.5,25.64a239.61,239.61,0,0,1-2.37,31.15q-.14,10.2-.15,20.47c-1.57,5.07-3,10.21-4.25,15.4-7.45,30.55-8.93,62.81,4,93,.17,13.83.21,27.87.22,42v11.6q0,11.67,0,23.38a238.14,238.14,0,0,1,2.25,30.86c.36,25.43-2.29,51-2.29,76.82v526c0,11-.59,22-.33,32.63.24,9.6-4.14,16.94-6.52,25.1a55.26,55.26,0,0,0-1.84,18.25c.42,9,2.61,18,5.23,26.53,3.95,12.89,5.44,25.06,6.34,37.11q1,13.61,2.33,27.17c3.75,37.9-.23,74.78-3.16,111.68-.4,5.13-.92,10.27-1.36,15.45-.65,7.58-2.07,15.55-1.8,23.3q-.46,7.44-.91,14.93a114.24,114.24,0,0,0,0,12.68c.67,13.15,2,25.81,3.1,38.29a127.07,127.07,0,0,1,.37,17c-.49,10.71-.8,21.47-1,32.2-.17,7.65-.31,15.25-.35,22.83,0,9,0,18,0,27v464.16c0,13.45.22,26.53.92,39.23,2.28,16.85,4,33.15,4.22,48.95.18,12.31-.5,24.3-3.56,35.87-2.52,6.92-4.92,14-7.12,21a128.72,128.72,0,0,0,3.3,42.42,81.14,81.14,0,0,1,1.75,13.49c.35,4.87.46,9.57.49,14.11.45,59.68,0,93.07,0,93.07"/><path class="cls-2" d="M931.33-35.17V-6.65c0,9.31-.12,20.8.24,34.26.34,12.73,1.54,26.44,2.52,41.23.56,8.41,1.09,17.14,1.29,26.22.11.29.21.59.32.89,2.63,6.12,5,12.21,7.35,18.46,12.28,16.88,15,35.2,5,52.26a191.32,191.32,0,0,1-10.75,17c-2.37,3.23-2.18,7.8-2.68,11.93-.71,5.82-.93,11.75-1.35,17.72-1.25,17.5-2,35.58-1.92,54.38.11,27.57,0,56.67,0,87.17V646.29c0,8.15.18,16.34,0,24.58a101.71,101.71,0,0,1-3.88,26.66c-4.75,10.81-4.55,22.45-2.5,33.85,1.2,6.67,2.83,13.27,4.51,19.66,2.37,7.94,3.31,16.29,3.83,24.7s.62,17.1.48,25.68a251.59,251.59,0,0,1-2.27,31.22q-.13,10.22-.15,20.49c-1.6,5.08-3.06,10.22-4.34,15.41-7.6,30.59-9.12,62.9,4.1,93.11.17,13.85.21,27.91.22,42.07q0,5.81,0,11.62,0,11.69,0,23.42a250,250,0,0,1,2.17,30.92c.34,25.47-2.21,51.12-2.21,76.94v526.83c0,11-.6,22-.33,32.68.24,9.63-4.23,16.95-6.67,25.11a54.29,54.29,0,0,0-1.88,18.21c.43,9,2.64,17.93,5.3,26.46,4,12.88,5.49,25,6.35,37q.93,13.59,2.23,27.13c3.6,37.83-.2,74.67-3,111.5-.39,5.12-.89,10.26-1.33,15.42-.64,7.58-2,15.53-1.81,23.26-.32,5-.63,9.93-1,14.91a111.67,111.67,0,0,0-.12,12.66c.6,13.13,1.94,25.77,3.08,38.22a129.94,129.94,0,0,1,.46,17c-.43,10.69-.71,21.43-1,32.14-.17,7.64-.3,15.23-.34,22.79,0,9,0,18,0,26.9v463.31c0,13.43.21,26.49.88,39.16,2.19,16.83,3.83,33.11,4,48.89.18,12.29-.49,24.26-3.53,35.8-2.52,6.92-4.9,13.94-7.05,21a125.59,125.59,0,0,0,3.36,42.32,78.17,78.17,0,0,1,1.79,13.47c.36,4.87.47,9.55.5,14.09.46,59.56,0,92.89,0,92.89"/><path class="cls-2" d="M951.26-35.78V-7.22c0,9.32-.12,20.82.23,34.31.32,12.73,1.47,26.46,2.41,41.3.53,8.43,1,17.17,1.24,26.27.11.29.22.59.32.89,2.66,6.13,5,12.23,7.38,18.48,12.39,16.89,15.14,35.24,5.06,52.29a179.71,179.71,0,0,1-10.81,16.8c-2.4,3.21-2.18,7.81-2.67,11.94-.7,5.83-.9,11.77-1.29,17.76-1.21,17.52-1.93,35.63-1.85,54.46.11,27.61,0,56.75,0,87.29V646.42c0,8.16.18,16.36,0,24.61a100.15,100.15,0,0,1-4,26.68c-4.84,10.81-4.64,22.47-2.55,33.87,1.21,6.64,2.87,13.2,4.58,19.55,2.38,8,3.31,16.32,3.81,24.74s.59,17.13.47,25.73a262.78,262.78,0,0,1-2.19,31.28q-.12,10.23-.14,20.52c-1.63,5.08-3.12,10.22-4.42,15.42-7.77,30.61-9.31,63,4.18,93.2.18,13.86.22,28,.22,42.13q0,5.8,0,11.64,0,11.7,0,23.45a263.23,263.23,0,0,1,2.07,31c.33,25.5-2.11,51.2-2.11,77.06v527.64c0,11-.62,22.08-.34,32.73.24,9.65-4.32,17-6.81,25.11a53.34,53.34,0,0,0-1.92,18.18c.42,9,2.67,17.89,5.36,26.39,4.06,12.87,5.53,25,6.36,37,.59,9,1.32,18.07,2.14,27.08,3.45,37.76-.18,74.55-2.9,111.32-.38,5.11-.87,10.24-1.3,15.4-.63,7.56-2,15.49-1.82,23.22-.34,4.94-.67,9.9-1,14.88a111.31,111.31,0,0,0-.19,12.63c.53,13.12,1.88,25.74,3.07,38.15a131.42,131.42,0,0,1,.54,17c-.37,10.67-.62,21.39-.85,32.09-.16,7.62-.29,15.2-.32,22.74,0,9,0,17.95,0,26.86v462.46c0,13.4.2,26.43.84,39.09A444.34,444.34,0,0,1,956,2706c.17,12.28-.48,24.23-3.51,35.74-2.51,6.91-4.88,13.93-7,21a122.38,122.38,0,0,0,3.44,42.23,79,79,0,0,1,1.83,13.44c.36,4.86.47,9.53.51,14.06.47,59.46,0,92.73,0,92.73"/><path class="cls-2" d="M971.18-36.4V-7.79c0,9.33-.11,20.85.22,34.36.31,12.72,1.41,26.49,2.31,41.38.51,8.43,1,17.19,1.19,26.31.11.3.22.59.32.89,2.68,6.14,5,12.25,7.41,18.51,12.5,16.89,15.23,35.28,5.1,52.32a171.57,171.57,0,0,1-10.86,16.62c-2.44,3.19-2.19,7.81-2.67,12-.68,5.84-.85,11.79-1.23,17.79-1.15,17.54-1.84,35.68-1.77,54.54.11,27.65,0,56.83,0,87.41V646.55c0,8.17.19,16.38,0,24.64a98,98,0,0,1-4,26.69c-4.94,10.81-4.73,22.49-2.6,33.91,1.23,6.6,2.91,13.13,4.64,19.43,2.4,8,3.31,16.35,3.8,24.79s.57,17.15.45,25.76a276.72,276.72,0,0,1-2.09,31.34q-.12,10.25-.13,20.56-2.51,7.62-4.52,15.42c-7.92,30.65-9.5,63.08,4.26,93.29.19,13.89.23,28,.24,42.2v11.66q0,11.71,0,23.49a275.34,275.34,0,0,1,2,31c.32,25.55-2,51.29-2,77.19V1676.4c0,11.07-.62,22.13-.35,32.78.26,9.69-4.4,17-6.94,25.12a52.2,52.2,0,0,0-2,18.14c.43,9,2.7,17.85,5.43,26.33,4.12,12.85,5.58,24.94,6.37,36.89.56,9,1.26,18,2,27,3.3,37.69-.15,74.43-2.77,111.13-.37,5.1-.85,10.22-1.27,15.37-.62,7.56-1.94,15.46-1.83,23.18q-.51,7.39-1.08,14.85a113.72,113.72,0,0,0-.25,12.62c.47,13.11,1.81,25.7,3.05,38.08a130.87,130.87,0,0,1,.62,16.95c-.3,10.64-.53,21.35-.74,32-.15,7.61-.28,15.17-.31,22.71,0,9,0,17.91,0,26.8V2618c0,13.38.19,26.39.81,39a462.46,462.46,0,0,1,3.71,48.74c.15,12.27-.48,24.2-3.48,35.68-2.52,6.9-4.87,13.92-6.93,21a119.59,119.59,0,0,0,3.5,42.14,75.94,75.94,0,0,1,1.87,13.41c.37,4.85.48,9.52.52,14,.48,59.36,0,92.56,0,92.56"/><path class="cls-2" d="M991.1-37V-8.37c0,9.35-.1,20.89.21,34.42.3,12.72,1.35,26.51,2.21,41.45.48,8.45,1,17.22,1.13,26.36.12.3.23.59.34.89,2.69,6.15,5.07,12.27,7.42,18.53,12.63,16.91,15.34,35.32,5.15,52.35a160.74,160.74,0,0,1-10.91,16.44c-2.47,3.18-2.19,7.82-2.66,12-.66,5.85-.82,11.81-1.18,17.82-1.1,17.56-1.75,35.73-1.69,54.62.1,27.69,0,56.91,0,87.53V646.68c0,8.18.2,16.4,0,24.67A96.58,96.58,0,0,1,987,698.06c-5,10.81-4.83,22.51-2.65,33.93,1.23,6.57,2.94,13.06,4.7,19.33,2.41,8,3.31,16.37,3.79,24.82s.53,17.18.42,25.81a292.64,292.64,0,0,1-2,31.4c-.08,6.84-.11,13.71-.13,20.59q-2.55,7.62-4.61,15.43c-8.08,30.67-9.69,63.16,4.35,93.38.19,13.91.23,28,.24,42.26,0,3.89,0,7.78,0,11.67q0,11.75,0,23.53a288.6,288.6,0,0,1,1.89,31.11c.3,25.59-1.93,51.37-1.93,77.31v529.25c0,11.09-.63,22.16-.35,32.83.26,9.71-4.49,17-7.08,25.12a50.82,50.82,0,0,0-2,18.1c.42,8.94,2.73,17.82,5.48,26.27,4.18,12.83,5.63,24.89,6.39,36.81q.81,13.53,2,27c3.08,37.63-.13,74.32-2.65,111-.35,5.1-.82,10.2-1.23,15.34-.61,7.55-1.9,15.44-1.84,23.15-.36,4.92-.73,9.86-1.14,14.82a113.4,113.4,0,0,0-.32,12.59c.4,13.1,1.74,25.67,3,38a130.38,130.38,0,0,1,.71,16.92c-.24,10.62-.44,21.31-.64,32-.14,7.59-.26,15.14-.3,22.66,0,9,0,17.88,0,26.75V2618c0,13.36.19,26.34.77,38.95a479.65,479.65,0,0,1,3.55,48.68c.14,12.24-.48,24.16-3.46,35.61-2.52,6.9-4.85,13.9-6.87,21a117.12,117.12,0,0,0,3.58,42.05,73.81,73.81,0,0,1,1.9,13.38c.38,4.84.5,9.5.53,14,.49,59.25,0,92.39,0,92.39"/><path class="cls-2" d="M1011-37.64v28.7c0,9.36-.11,20.92.2,34.47.28,12.72,1.28,26.54,2.1,41.53.46,8.45.9,17.24,1.08,26.4.12.3.23.59.34.89,2.72,6.16,5.1,12.29,7.45,18.56,12.74,16.91,15.44,35.36,5.2,52.38a154.56,154.56,0,0,1-11,16.25c-2.5,3.17-2.19,7.83-2.66,12-.64,5.86-.77,11.83-1.12,17.85-1,17.58-1.67,35.78-1.6,54.7.09,27.72,0,57,0,87.65V646.8c0,8.19.2,16.43,0,24.71a95,95,0,0,1-4.21,26.72c-5.14,10.82-4.93,22.53-2.7,34,1.25,6.53,3,13,4.77,19.21,2.42,8,3.3,16.4,3.77,24.86s.51,17.21.4,25.85a304.56,304.56,0,0,1-1.9,31.47q-.1,10.27-.12,20.62-2.6,7.62-4.69,15.43c-8.24,30.71-9.88,63.25,4.43,93.48.2,13.92.24,28.07.25,42.33v11.68q0,11.76,0,23.56a303.4,303.4,0,0,1,1.8,31.17c.29,25.64-1.83,51.46-1.83,77.44v530.05c0,11.11-.65,22.2-.36,32.88.26,9.74-4.57,17-7.23,25.14a50.35,50.35,0,0,0-2.05,18.05c.43,8.92,2.77,17.78,5.55,26.21,4.24,12.82,5.68,24.85,6.39,36.74q.78,13.5,1.86,27c2.93,37.55-.1,74.19-2.52,110.76-.34,5.09-.79,10.19-1.2,15.32-.6,7.54-1.86,15.4-1.85,23.1q-.55,7.37-1.19,14.79a108.76,108.76,0,0,0-.38,12.58c.32,13.09,1.66,25.63,3,38a133.45,133.45,0,0,1,.79,16.89c-.18,10.6-.35,21.27-.54,31.92-.13,7.58-.25,15.12-.28,22.63,0,8.94,0,17.84,0,26.7v459.9c0,13.33.17,26.3.73,38.88,1.83,16.76,3.21,33,3.38,48.61.13,12.23-.48,24.13-3.43,35.56-2.53,6.88-4.84,13.88-6.81,20.93a114.31,114.31,0,0,0,3.64,42,71.93,71.93,0,0,1,1.94,13.35c.39,4.83.51,9.48.55,14,.5,59.14,0,92.21,0,92.21"/><path class="cls-2" d="M1031-38.26V-9.51c0,9.37-.1,20.94.19,34.52.27,12.71,1.22,26.56,2,41.61.43,8.45.86,17.26,1,26.44.12.3.23.6.34.89,2.74,6.17,5.12,12.3,7.48,18.58,12.85,16.92,15.54,35.4,5.24,52.41a145,145,0,0,1-11,16.07c-2.54,3.16-2.2,7.84-2.65,12-.63,5.86-.74,11.84-1.06,17.88-1,17.6-1.59,35.83-1.53,54.78.09,27.76,0,57.07,0,87.78V646.93c0,8.2.2,16.45,0,24.74a93.18,93.18,0,0,1-4.29,26.73c-5.24,10.82-5,22.55-2.75,34,1.26,6.5,3,12.92,4.84,19.1,2.43,8,3.3,16.42,3.75,24.91s.49,17.23.38,25.89c-.12,10.5-.65,21-1.8,31.52q-.11,10.3-.12,20.66-2.64,7.62-4.78,15.44c-8.4,30.73-10.07,63.33,4.52,93.56.2,13.95.24,28.12.25,42.4v11.7q0,11.77,0,23.6c1.13,10.37,1.6,20.78,1.71,31.23.28,25.68-1.74,51.54-1.74,77.56v530.86c0,11.13-.66,22.24-.37,32.93.27,9.77-4.65,17-7.36,25.14a49.1,49.1,0,0,0-2.09,18c.43,8.89,2.79,17.74,5.61,26.14,4.3,12.8,5.72,24.8,6.4,36.66q.73,13.48,1.77,26.93c2.78,37.48-.08,74.08-2.4,110.58-.32,5.08-.76,10.17-1.16,15.29-.6,7.53-1.82,15.37-1.86,23.06q-.59,7.37-1.25,14.77a110.83,110.83,0,0,0-.45,12.55c.25,13.08,1.59,25.6,3,37.88a133.16,133.16,0,0,1,.88,16.86c-.12,10.58-.26,21.24-.44,31.88-.12,7.56-.24,15.09-.27,22.58,0,8.93,0,17.81,0,26.65v459.06c0,13.3.17,26.24.7,38.81,1.73,16.74,3,32.91,3.2,48.53.12,12.22-.47,24.1-3.4,35.5-2.53,6.87-4.82,13.87-6.75,20.91a111.82,111.82,0,0,0,3.72,41.87,71,71,0,0,1,2,13.32c.39,4.82.51,9.46.55,13.95.51,59,0,92,0,92"/><path class="cls-2" d="M1050.88-38.87v28.78c0,9.39-.1,21,.17,34.57.26,12.72,1.16,26.6,1.89,41.69.42,8.47.82,17.29,1,26.49.12.3.23.6.35.89,2.76,6.18,5.14,12.32,7.5,18.6,13,16.94,15.64,35.45,5.28,52.45A138.29,138.29,0,0,1,1056,180.49c-2.56,3.14-2.19,7.84-2.63,12-.62,5.87-.7,11.86-1,17.91-.94,17.62-1.51,35.88-1.45,54.86.09,27.8,0,57.15,0,87.9V647.06c0,8.21.2,16.47,0,24.78a92.26,92.26,0,0,1-4.38,26.74c-5.33,10.82-5.11,22.57-2.8,34,1.28,6.46,3.06,12.84,4.91,19,2.44,8,3.3,16.44,3.73,24.94s.46,17.26.37,25.93c-.12,10.52-.62,21.07-1.71,31.59q-.11,10.31-.11,20.69-2.7,7.62-4.87,15.44c-8.56,30.77-10.27,63.42,4.6,93.66.2,14,.24,28.16.25,42.46q0,5.85,0,11.72,0,11.79,0,23.63c1.06,10.4,1.51,20.83,1.62,31.29.26,25.72-1.65,51.63-1.65,77.68v531.68c0,11.14-.68,22.27-.38,33,.27,9.8-4.74,17-7.5,25.15a48.3,48.3,0,0,0-2.14,18c.43,8.88,2.83,17.7,5.68,26.08,4.35,12.78,5.76,24.76,6.41,36.59q.69,13.47,1.68,26.88c2.63,37.41-.06,74-2.28,110.39-.3,5.08-.74,10.16-1.13,15.28-.58,7.52-1.78,15.34-1.87,23q-.58,7.33-1.3,14.73a108.62,108.62,0,0,0-.52,12.54,360.78,360.78,0,0,0,3,37.81,136.39,136.39,0,0,1,1,16.83c-.06,10.56-.18,21.2-.34,31.82-.12,7.55-.23,15.06-.25,22.54,0,8.91,0,17.78,0,26.61v458.2c0,13.28.15,26.2.65,38.74,1.65,16.72,2.91,32.87,3,48.47.11,12.2-.47,24.06-3.38,35.43-2.53,6.87-4.8,13.85-6.68,20.89a109,109,0,0,0,3.79,41.78,69.17,69.17,0,0,1,2,13.29c.4,4.81.53,9.44.57,13.92.51,58.93,0,91.88,0,91.88"/><path class="cls-2" d="M1070.8-39.49v28.83c0,9.4-.09,21,.17,34.62.24,12.72,1.08,26.62,1.78,41.77.39,8.47.77,17.31.93,26.53l.36.9c2.78,6.18,5.17,12.33,7.52,18.62,13.09,16.94,15.75,35.49,5.34,52.47A132.82,132.82,0,0,1,1075.76,180c-2.6,3.12-2.2,7.85-2.63,12-.6,5.89-.66,11.89-1,17.95-.89,17.64-1.42,35.93-1.37,54.95.09,27.83,0,57.22,0,88V647.18c0,8.23.21,16.5,0,24.82a90.88,90.88,0,0,1-4.45,26.75c-5.44,10.83-5.21,22.59-2.86,34.06,1.29,6.43,3.1,12.77,5,18.88,2.46,8,3.3,16.47,3.72,25s.44,17.28.35,26c-.11,10.54-.58,21.11-1.62,31.66q-.09,10.32-.1,20.72-2.74,7.62-5,15.45c-8.72,30.79-10.45,63.5,4.69,93.75.2,14,.25,28.2.26,42.52v11.74q0,11.8,0,23.67c1,10.41,1.43,20.86,1.53,31.35.24,25.76-1.56,51.71-1.56,77.8v532.48c0,11.17-.69,22.31-.38,33,.27,9.82-4.83,17-7.64,25.15a47.31,47.31,0,0,0-2.18,17.94c.43,8.86,2.85,17.67,5.74,26,4.41,12.77,5.81,24.71,6.42,36.51q.66,13.46,1.58,26.85c2.49,37.33,0,73.84-2.14,110.2-.3,5.07-.72,10.15-1.11,15.25-.57,7.52-1.73,15.31-1.87,23q-.62,7.32-1.37,14.71a110.6,110.6,0,0,0-.58,12.51,329.68,329.68,0,0,0,3,37.75,137.9,137.9,0,0,1,1,16.8c0,10.53-.09,21.16-.24,31.77-.11,7.53-.22,15-.24,22.5,0,8.89,0,17.74,0,26.55v457.35c0,13.26.15,26.15.62,38.67,1.55,16.71,2.75,32.84,2.87,48.4.1,12.19-.47,24-3.35,35.37-2.54,6.86-4.79,13.84-6.63,20.87a106.94,106.94,0,0,0,3.86,41.69,68.14,68.14,0,0,1,2,13.26c.41,4.8.54,9.43.58,13.9.52,58.82,0,91.7,0,91.7"/><path class="cls-2" d="M1090.72-40.11v28.87c0,9.42-.08,21,.16,34.68.23,12.71,1,26.65,1.68,41.84.37,8.49.73,17.34.88,26.59l.36.89c2.8,6.19,5.19,12.35,7.55,18.64,13.21,16.95,15.85,35.54,5.38,52.5a125.78,125.78,0,0,1-11.19,15.53c-2.63,3.11-2.2,7.86-2.62,12-.59,5.9-.62,11.91-.9,18-.83,17.66-1.33,36-1.28,55,.07,27.87,0,57.3,0,88.13V647.31c0,8.24.22,16.52,0,24.85a89.33,89.33,0,0,1-4.53,26.77c-5.53,10.82-5.3,22.6-2.91,34.09a192,192,0,0,0,5,18.76c2.48,8,3.3,16.5,3.71,25s.41,17.31.32,26c-.11,10.56-.55,21.14-1.52,31.71-.06,6.9-.08,13.82-.1,20.75q-2.79,7.63-5,15.47c-8.87,30.81-10.64,63.58,4.78,93.83.21,14,.25,28.25.26,42.59v11.76l0,23.7c.94,10.44,1.35,20.91,1.44,31.41.23,25.81-1.47,51.79-1.47,77.93v533.29c0,11.18-.69,22.35-.39,33.07.29,9.86-4.9,17-7.77,25.16a46.56,46.56,0,0,0-2.23,17.9c.43,8.85,2.89,17.64,5.8,26,4.47,12.75,5.86,24.67,6.44,36.43q.62,13.44,1.49,26.81c2.34,37.26,0,73.73-2,110-.28,5.06-.69,10.13-1.07,15.23-.56,7.5-1.7,15.28-1.89,22.93q-.63,7.32-1.42,14.68a113.09,113.09,0,0,0-.65,12.5,301.43,301.43,0,0,0,3,37.68,139.32,139.32,0,0,1,1.13,16.77c.06,10.51,0,21.12-.14,31.72-.1,7.52-.2,15-.23,22.45,0,8.88,0,17.71,0,26.5v456.5c0,13.24.14,26.11.59,38.6,1.46,16.69,2.59,32.8,2.7,48.34.08,12.17-.47,24-3.33,35.3a209.77,209.77,0,0,0-6.57,20.85,104.86,104.86,0,0,0,3.94,41.59,67.46,67.46,0,0,1,2.09,13.24c.41,4.79.54,9.41.58,13.87.54,58.71,0,91.53,0,91.53"/><path class="cls-2" d="M1110.65-40.73v28.92c0,9.43-.08,21.07.15,34.73.21,12.71,1,26.67,1.57,41.92.34,8.49.68,17.36.83,26.63.12.29.25.59.37.89,2.82,6.2,5.21,12.37,7.57,18.67,13.32,17,15.95,35.57,5.43,52.53a122.29,122.29,0,0,1-11.25,15.35c-2.66,3.09-2.21,7.86-2.61,12.06-.58,5.9-.59,11.92-.85,18-.78,17.68-1.25,36-1.2,55.11.07,27.91,0,57.38,0,88.26V647.44c0,8.25.21,16.54,0,24.88A88.11,88.11,0,0,1,1106,699.1c-5.63,10.83-5.4,22.63-3,34.12a184.83,184.83,0,0,0,5.11,18.66c2.49,8,3.29,16.52,3.69,25.06s.38,17.34.3,26c-.1,10.58-.51,21.18-1.42,31.78q-.09,10.37-.09,20.78-2.85,7.63-5.14,15.47c-9,30.85-10.84,63.67,4.86,93.93.21,14,.25,28.29.26,42.65q0,5.88,0,11.78,0,11.85,0,23.74c.89,10.45,1.27,20.94,1.35,31.47.22,25.85-1.37,51.87-1.37,78.05v534.09c0,11.2-.71,22.39-.4,33.13.29,9.88-5,17-7.92,25.16a45.65,45.65,0,0,0-2.26,17.87c.43,8.82,2.91,17.59,5.86,25.89,4.53,12.73,5.91,24.62,6.45,36.36q.57,13.41,1.39,26.77c2.2,37.19,0,73.6-1.89,109.83-.27,5-.66,10.11-1,15.2-.55,7.5-1.65,15.25-1.89,22.9-.44,4.86-.92,9.74-1.48,14.65a110.6,110.6,0,0,0-.72,12.47,280.38,280.38,0,0,0,2.93,37.61,139,139,0,0,1,1.21,16.75c.13,10.49.09,21.07,0,31.66-.09,7.51-.19,15-.21,22.42,0,8.86,0,17.67,0,26.45V2617.5c0,13.21.13,26.05.55,38.53,1.37,16.67,2.44,32.75,2.53,48.26.07,12.16-.47,24-3.3,35.25a194.24,194.24,0,0,0-6.51,20.82,102.54,102.54,0,0,0,4,41.5,65.16,65.16,0,0,1,2.13,13.21c.42,4.79.55,9.39.6,13.84.54,58.61,0,91.36,0,91.36"/><path class="cls-2" d="M1130.57-41.35v29c0,9.44-.07,21.1.14,34.78.2,12.71.89,26.7,1.47,42,.32,8.51.63,17.4.78,26.68.12.29.25.59.37.89,2.84,6.21,5.24,12.38,7.6,18.69,13.43,17,16,35.62,5.47,52.56a116.84,116.84,0,0,1-11.3,15.17c-2.7,3.07-2.21,7.87-2.61,12.08-.56,5.91-.54,11.94-.78,18-.74,17.7-1.17,36.08-1.13,55.19.07,27.95,0,57.46,0,88.38v295.5c0,8.26.22,16.56,0,24.91a86.89,86.89,0,0,1-4.69,26.8c-5.74,10.83-5.5,22.64-3,34.15A180.2,180.2,0,0,0,1128,752c2.5,8,3.29,16.55,3.67,25.11s.36,17.36.28,26.09c-.09,10.59-.48,21.22-1.33,31.84q-.08,10.37-.08,20.81-2.89,7.63-5.23,15.48c-9.19,30.87-11,63.75,5,94,.21,14,.26,28.32.27,42.71v11.8q0,11.86,0,23.77c.83,10.48,1.18,21,1.26,31.53.21,25.9-1.28,52-1.28,78.18v534.9c0,11.22-.72,22.42-.4,33.17.29,9.91-5.08,17-8.06,25.18a44.89,44.89,0,0,0-2.31,17.82c.44,8.81,3,17.56,5.93,25.83,4.58,12.72,6,24.58,6.45,36.28q.54,13.4,1.31,26.73c2,37.12,0,73.49-1.77,109.65-.25,5-.64,10.09-1,15.17-.54,7.49-1.61,15.22-1.91,22.86q-.66,7.27-1.53,14.63a108.08,108.08,0,0,0-.78,12.45c-.12,13,1.24,25.41,2.9,37.54a138.54,138.54,0,0,1,1.3,16.71c.19,10.47.18,21,.07,31.62-.08,7.49-.18,14.94-.2,22.37,0,8.84,0,17.65,0,26.4v454.8c0,13.18.12,26,.51,38.46,1.28,16.66,2.29,32.72,2.37,48.19,0,12.15-.47,23.93-3.28,35.19a182.88,182.88,0,0,0-6.45,20.8,100.5,100.5,0,0,0,4.08,41.41,64.31,64.31,0,0,1,2.16,13.18c.43,4.78.57,9.37.61,13.82.55,58.49,0,91.18,0,91.18"/><path class="cls-2" d="M1150.49-42v29c0,9.46-.07,21.14.13,34.84.19,12.71.83,26.72,1.37,42.07.3,8.51.59,17.42.72,26.72.13.3.26.59.38.89,2.87,6.22,5.26,12.4,7.63,18.72,13.55,17,16.16,35.66,5.51,52.59a111.73,111.73,0,0,1-11.35,15c-2.73,3.06-2.21,7.88-2.6,12.1-.55,5.92-.51,12-.73,18.07-.68,17.72-1.09,36.13-1,55.27.06,28,0,57.54,0,88.5v295.9c0,8.27.23,16.59,0,24.95a85.45,85.45,0,0,1-4.77,26.81c-5.83,10.83-5.59,22.67-3.07,34.18a172.19,172.19,0,0,0,5.25,18.43c2.51,8.06,3.28,16.58,3.65,25.15s.34,17.39.27,26.13c-.09,10.61-.45,21.26-1.24,31.9q-.07,10.39-.08,20.85c-2,5.09-3.74,10.26-5.32,15.48-9.35,30.91-11.21,63.85,5,94.11.22,14.06.27,28.37.28,42.78,0,3.94,0,7.87,0,11.82q0,11.88,0,23.81c.76,10.49,1.09,21,1.17,31.59.18,25.93-1.2,52-1.2,78.3v535.7c0,11.24-.73,22.47-.41,33.23.3,9.94-5.16,17-8.19,25.18a44,44,0,0,0-2.35,17.78c.43,8.79,3,17.52,6,25.77,4.64,12.7,6,24.53,6.46,36.2q.51,13.38,1.21,26.7c1.91,37,.06,73.36-1.64,109.46-.24,5-.61,10.08-1,15.15-.53,7.48-1.57,15.19-1.91,22.82q-.69,7.26-1.6,14.59a108.14,108.14,0,0,0-.84,12.43,240.11,240.11,0,0,0,2.89,37.48,144.47,144.47,0,0,1,1.38,16.68c.25,10.45.27,21,.17,31.56-.07,7.48-.17,14.92-.19,22.33,0,8.83,0,17.62,0,26.36v453.94c0,13.16.12,26,.48,38.39,1.19,16.64,2.13,32.68,2.19,48.13,0,12.13-.45,23.89-3.24,35.12a170.37,170.37,0,0,0-6.39,20.78c-1.7,13.95-.07,27.69,4.14,41.32a62.88,62.88,0,0,1,2.21,13.15c.43,4.77.57,9.35.61,13.79.57,58.39,0,91,0,91"/><path class="cls-2" d="M1170.42-42.58v29.05c0,9.47-.07,21.16.12,34.89.17,12.7.76,26.75,1.26,42.14.27,8.53.54,17.45.67,26.77l.39.89c2.88,6.23,5.28,12.42,7.64,18.74,13.67,17,16.27,35.71,5.57,52.62a107.83,107.83,0,0,1-11.41,14.81c-2.77,3-2.22,7.88-2.6,12.1-.52,5.94-.46,12-.67,18.1-.63,17.75-1,36.19-1,55.36.06,28,0,57.62,0,88.62V647.82c0,8.28.23,16.61,0,25a84.36,84.36,0,0,1-4.86,26.82c-5.93,10.84-5.68,22.69-3.12,34.22a171.09,171.09,0,0,0,5.31,18.32c2.53,8.06,3.29,16.59,3.64,25.18s.31,17.42.25,26.18c-.08,10.63-.41,21.29-1.14,32q-.07,10.41-.08,20.88c-2,5.09-3.8,10.26-5.4,15.49-9.51,30.93-11.41,63.93,5.11,94.2.23,14.08.27,28.41.28,42.84q0,5.91,0,11.84,0,11.89,0,23.84c.71,10.52,1,21.07,1.08,31.65.17,26-1.1,52.13-1.1,78.43v536.51c0,11.26-.75,22.5-.42,33.27.3,10-5.24,17-8.33,25.19a43.36,43.36,0,0,0-2.4,17.74c.44,8.78,3,17.49,6.06,25.7,4.7,12.69,6,24.5,6.47,36.14q.46,13.35,1.12,26.65c1.75,37,.08,73.25-1.52,109.28-.22,5-.58,10.06-.93,15.12-.53,7.47-1.53,15.16-1.93,22.78-.47,4.83-1,9.68-1.65,14.57A108.11,108.11,0,0,0,1166,2030a225.37,225.37,0,0,0,2.87,37.41,143.82,143.82,0,0,1,1.47,16.65c.31,10.43.36,21,.27,31.51-.07,7.46-.15,14.89-.17,22.29,0,8.81,0,17.58,0,26.3v453.09c0,13.14.1,25.92.44,38.33,1.09,16.62,2,32.63,2,48,0,12.12-.45,23.87-3.22,35.06a164.67,164.67,0,0,0-6.33,20.76c-1.72,13.91-.07,27.61,4.22,41.23a62,62,0,0,1,2.24,13.12c.45,4.76.58,9.34.63,13.76.57,58.28,0,90.85,0,90.85"/><path class="cls-2" d="M1190.34-43.2v29.09c0,9.49-.06,21.2.11,35,.15,12.7.7,26.77,1.15,42.22.26,8.53.5,17.47.63,26.81l.39.89c2.91,6.24,5.31,12.44,7.67,18.77,13.78,17,16.37,35.75,5.61,52.65a104.54,104.54,0,0,1-11.46,14.62c-2.8,3-2.22,7.89-2.59,12.12-.51,5.94-.43,12-.62,18.13-.57,17.77-.92,36.24-.88,55.44.05,28.06,0,57.7,0,88.74V648c0,8.29.23,16.63,0,25a83.06,83.06,0,0,1-4.94,26.83c-6,10.83-5.77,22.7-3.17,34.24a164.29,164.29,0,0,0,5.38,18.21c2.54,8.08,3.29,16.62,3.63,25.23s.28,17.44.22,26.21c-.07,10.65-.38,21.33-1,32q0,10.41-.06,20.91c-2,5.09-3.87,10.26-5.5,15.49-9.67,31-11.59,64,5.2,94.3.23,14.1.28,28.45.29,42.91v11.84q0,11.92,0,23.89c.65,10.53.93,21.1,1,31.71.16,26-1,52.21-1,78.55v537.31c0,11.28-.75,22.54-.42,33.32.3,10-5.33,17.07-8.48,25.2a42.7,42.7,0,0,0-2.43,17.71c.44,8.75,3,17.44,6.11,25.63,4.76,12.68,6.09,24.46,6.49,36.06q.42,13.34,1,26.61c1.61,36.9.11,73.14-1.39,109.1-.2,5-.55,10-.9,15.1-.51,7.46-1.49,15.12-1.93,22.73-.49,4.82-1.05,9.67-1.71,14.54a108.27,108.27,0,0,0-1,12.4,211.18,211.18,0,0,0,2.86,37.33,148.08,148.08,0,0,1,1.55,16.63c.38,10.4.44,20.92.37,31.45-.06,7.45-.14,14.87-.16,22.25,0,8.8,0,17.55,0,26.25v452.25c0,13.11.1,25.86.4,38.25,1,16.6,1.83,32.6,1.86,48,0,12.1-.45,23.83-3.2,35a156.66,156.66,0,0,0-6.26,20.74c-1.75,13.86-.08,27.53,4.29,41.14a61.07,61.07,0,0,1,2.27,13.09c.46,4.75.6,9.32.64,13.74.58,58.17,0,90.67,0,90.67"/><path class="cls-2" d="M1210.26-43.82v29.14c0,9.5,0,21.23.1,35,.14,12.7.64,26.8,1.05,42.29.23,8.55.46,17.5.58,26.86l.39.9c2.93,6.24,5.33,12.45,7.7,18.78,13.9,17,16.48,35.8,5.65,52.68a99.81,99.81,0,0,1-11.52,14.44c-2.83,3-2.22,7.9-2.57,12.14-.5,6-.39,12-.56,18.16-.53,17.79-.84,36.29-.81,55.52,0,28.1,0,57.78,0,88.87V648.07c0,8.31.24,16.66,0,25.06a82.27,82.27,0,0,1-5,26.84c-6.13,10.84-5.88,22.73-3.23,34.28a159.77,159.77,0,0,0,5.45,18.09c2.55,8.09,3.28,16.65,3.61,25.27s.26,17.47.2,26.25c-.06,10.67-.34,21.38-1,32.09q0,10.44-.06,20.95c-2,5.09-3.93,10.26-5.59,15.5-9.82,31-11.78,64.1,5.29,94.39.23,14.11.28,28.49.29,43q0,5.93,0,11.86,0,11.94,0,23.92c.59,10.56.84,21.15.9,31.78.15,26.06-.92,52.29-.92,78.67v538.12c0,11.3-.76,22.58-.43,33.37.31,10-5.41,17.07-8.61,25.2a41.93,41.93,0,0,0-2.48,17.67c.44,8.73,3.07,17.41,6.18,25.57,4.82,12.66,6.14,24.41,6.5,36q.38,13.3.93,26.57c1.46,36.83.13,73-1.26,108.91-.2,5-.53,10-.87,15.07-.51,7.45-1.45,15.1-1.94,22.7-.5,4.81-1.08,9.64-1.77,14.51a108.1,108.1,0,0,0-1,12.37,200.5,200.5,0,0,0,2.84,37.27,147.62,147.62,0,0,1,1.64,16.6c.44,10.38.53,20.88.47,31.4-.05,7.43-.13,14.83-.15,22.2q0,13.17,0,26.21v451.39c0,13.09.09,25.82.37,38.18.91,16.59,1.67,32.56,1.69,47.92,0,12.09-.45,23.8-3.17,34.94a148.09,148.09,0,0,0-6.21,20.71c-1.78,13.82-.08,27.45,4.36,41a59.77,59.77,0,0,1,2.32,13.06c.46,4.74.6,9.3.64,13.71.6,58.07,0,90.5,0,90.5"/><path class="cls-2" d="M1230.19-44.44v29.19c0,9.51,0,21.25.09,35.05.12,12.69.6,26.82.94,42.37.22,8.55.41,17.52.52,26.9.14.3.27.6.4.9,2.95,6.25,5.36,12.47,7.73,18.81,14,17,16.58,35.84,5.7,52.71A96.67,96.67,0,0,1,1234,175.74c-2.86,3-2.22,7.91-2.57,12.16-.48,6-.35,12-.5,18.19-.47,17.81-.79,36.34-.72,55.61,0,28.13,0,57.84,0,89V648.2c0,8.32.24,16.68,0,25.09a81.34,81.34,0,0,1-5.1,26.86c-6.23,10.84-6,22.74-3.28,34.3a154.39,154.39,0,0,0,5.52,18c2.56,8.09,3.28,16.67,3.59,25.3s.23,17.5.18,26.3c-.06,10.68-.31,21.41-.85,32.15q0,10.45-.06,21c-2.08,5.1-4,10.28-5.67,15.51-10,31-12,64.19,5.37,94.48.23,14.14.28,28.54.29,43,0,3.95,0,7.92,0,11.88q0,12,0,24c.53,10.57.76,21.18.81,31.83.13,26.11-.82,52.38-.82,78.79v538.93c0,11.32-.78,22.62-.44,33.42.32,10.06-5.49,17.08-8.75,25.21a41.31,41.31,0,0,0-2.52,17.63c.44,8.72,3.1,17.37,6.24,25.51,4.88,12.64,6.18,24.37,6.51,35.91q.35,13.29.83,26.53c1.32,36.76.16,72.9-1.13,108.73-.18,5-.51,10-.84,15-.49,7.44-1.41,15.06-1.95,22.65-.51,4.8-1.11,9.63-1.83,14.48a108.23,108.23,0,0,0-1.11,12.36,189.92,189.92,0,0,0,2.82,37.2,144.94,144.94,0,0,1,1.72,16.56c.51,10.36.63,20.85.58,31.35,0,7.42-.1,14.81-.13,22.17V2617c0,13.06.08,25.77.33,38.11.82,16.57,1.52,32.53,1.52,47.85,0,12.08-.45,23.77-3.15,34.88a141.11,141.11,0,0,0-6.14,20.69c-1.81,13.77-.09,27.37,4.43,41a58.45,58.45,0,0,1,2.35,13c.47,4.73.61,9.28.66,13.68.6,58,0,90.33,0,90.33"/><path class="cls-2" d="M1250.11-45.06v29.23c0,9.53,0,21.29.08,35.11.11,12.69.53,26.85.84,42.44q.3,12.86.47,27l.41.9c3,6.26,5.37,12.48,7.74,18.83,14.14,17,16.7,35.89,5.75,52.74a93.52,93.52,0,0,1-11.63,14.08c-2.9,3-2.23,7.91-2.56,12.17-.47,6-.31,12.06-.45,18.22-.42,17.83-.7,36.39-.64,55.69,0,28.17,0,57.92,0,89.1V648.33c0,8.33.25,16.7,0,25.12a80.08,80.08,0,0,1-5.18,26.87c-6.32,10.84-6.06,22.77-3.33,34.34a150.82,150.82,0,0,0,5.59,17.87c2.57,8.11,3.27,16.7,3.57,25.35s.21,17.52.16,26.33c-.05,10.71-.27,21.45-.75,32.21q0,10.49-.05,21c-2.12,5.1-4.06,10.28-5.77,15.52-10.14,31-12.16,64.27,5.46,94.57.24,14.15.29,28.57.3,43.1v11.9q0,12,0,24c.48,10.6.68,21.23.73,31.9.11,26.14-.74,52.46-.74,78.91v539.74c0,11.34-.79,22.65-.44,33.47.32,10.08-5.58,17.09-8.89,25.22a40.5,40.5,0,0,0-2.57,17.58c.44,8.7,3.13,17.33,6.31,25.45,4.93,12.62,6.23,24.32,6.51,35.83q.32,13.28.75,26.5c1.17,36.68.18,72.77-1,108.54-.17,5-.47,10-.81,15-.46,7.44-1.36,15-2,22.62-.53,4.78-1.15,9.6-1.89,14.45a108.24,108.24,0,0,0-1.17,12.33,179.74,179.74,0,0,0,2.8,37.14,148.64,148.64,0,0,1,1.8,16.53c.57,10.34.71,20.81.67,31.3,0,7.41-.08,14.78-.11,22.12V2617c0,13,.07,25.73.29,38.05.73,16.55,1.37,32.48,1.35,47.78,0,12.06-.44,23.73-3.11,34.81a134.92,134.92,0,0,0-6.09,20.68c-1.84,13.72-.09,27.28,4.5,40.85a57.3,57.3,0,0,1,2.39,13c.48,4.72.62,9.26.67,13.66.61,57.85,0,90.15,0,90.15"/><path class="cls-2" d="M1270-45.67V-16.4c0,9.54,0,21.32.07,35.16.1,12.69.47,26.87.74,42.52q.26,12.85.42,27l.41.9c3,6.27,5.4,12.5,7.77,18.86,14.25,17,16.81,35.94,5.79,52.77a90.56,90.56,0,0,1-11.68,13.89c-2.93,2.95-2.23,7.93-2.55,12.18-.46,6-.28,12.09-.4,18.26-.36,17.85-.61,36.44-.56,55.77,0,28.21,0,58,0,89.22V648.46c0,8.34.26,16.72,0,25.15a79,79,0,0,1-5.26,26.89c-6.42,10.84-6.15,22.78-3.38,34.36a144.67,144.67,0,0,0,5.66,17.76c2.58,8.12,3.27,16.73,3.56,25.39s.17,17.55.14,26.38c0,10.72-.24,21.48-.67,32.27q0,10.49,0,21c-2.15,5.1-4.12,10.28-5.86,15.53-10.3,31.07-12.35,64.35,5.55,94.66.24,14.17.29,28.61.3,43.16,0,4,0,7.94,0,11.92q0,12,0,24c.41,10.61.59,21.26.63,32,.1,26.19-.65,52.55-.65,79v540.54c0,11.36-.79,22.7-.45,33.52.33,10.12-5.66,17.1-9,25.23a40.08,40.08,0,0,0-2.61,17.55c.46,8.68,3.16,17.29,6.37,25.38,5,12.61,6.27,24.28,6.52,35.76q.27,13.24.65,26.45c1,36.61.2,72.66-.88,108.36-.15,5-.44,10-.77,15-.46,7.43-1.32,15-2,22.58-.54,4.78-1.17,9.58-1.94,14.43a105.84,105.84,0,0,0-1.24,12.31,171,171,0,0,0,2.78,37.06,151.08,151.08,0,0,1,1.89,16.51c.63,10.32.8,20.77.77,31.24,0,7.4-.07,14.76-.1,22.09v474.89c0,13,.07,25.67.26,38,.64,16.53,1.21,32.44,1.18,47.71,0,12.05-.44,23.7-3.09,34.75a129.8,129.8,0,0,0-6,20.66c-1.86,13.67-.09,27.2,4.58,40.76a57.19,57.19,0,0,1,2.43,13c.48,4.71.63,9.25.67,13.63.63,57.74,0,90,0,90"/><path class="cls-2" d="M1290-46.29V-17c0,9.55,0,21.35.06,35.21.08,12.68.4,26.9.63,42.6q.22,12.87.37,27c.14.29.28.59.41.89,3,6.28,5.43,12.52,7.8,18.88,14.36,17,16.91,36,5.84,52.8a88,88,0,0,1-11.74,13.71c-3,2.94-2.23,7.94-2.55,12.2-.44,6-.23,12.1-.33,18.29-.32,17.87-.53,36.49-.49,55.85V648.58c0,8.35.25,16.75,0,25.19a78.29,78.29,0,0,1-5.34,26.9c-6.53,10.85-6.26,22.8-3.43,34.4a142,142,0,0,0,5.71,17.65c2.61,8.12,3.27,16.75,3.55,25.43s.15,17.57.12,26.41c0,10.74-.21,21.53-.57,32.34q0,10.5,0,21.07c-2.18,5.1-4.18,10.28-5.94,15.53-10.46,31.11-12.54,64.44,5.63,94.75.24,14.19.29,28.66.31,43.23v11.94q0,12,0,24.06c.35,10.64.5,21.31.54,32,.09,26.23-.55,52.63-.55,79.16V1700c0,11.37-.81,22.73-.46,33.57.33,10.14-5.74,17.1-9.17,25.23a39.51,39.51,0,0,0-2.65,17.51c.46,8.66,3.2,17.25,6.43,25.32,5.06,12.59,6.32,24.23,6.54,35.68q.22,13.25.56,26.41c.88,36.54.22,72.54-.76,108.18-.14,5-.42,10-.74,15-.45,7.42-1.28,15-2,22.53q-.83,7.15-2,14.4a108.35,108.35,0,0,0-1.31,12.29,162.55,162.55,0,0,0,2.77,37,155.71,155.71,0,0,1,2,16.48c.69,10.29.89,20.73.87,31.19,0,7.38-.06,14.72-.08,22v474c0,13,0,25.63.22,37.9.55,16.52,1,32.41,1,47.65,0,12-.44,23.66-3.07,34.68a124.3,124.3,0,0,0-6,20.64c-1.89,13.63-.1,27.12,4.64,40.67a55.48,55.48,0,0,1,2.47,12.95c.49,4.7.64,9.23.69,13.6.63,57.64,0,89.82,0,89.82"/><path class="cls-2" d="M1309.88-46.91v29.36c0,9.57,0,21.38,0,35.27.1,12.68.34,26.92.53,42.67q.18,12.89.31,27.09c.15.3.29.59.43.89,3,6.29,5.44,12.54,7.82,18.91,14.48,17,17,36,5.88,52.83a85.86,85.86,0,0,1-11.79,13.53c-3,2.91-2.24,7.94-2.54,12.21-.43,6-.2,12.12-.28,18.32-.26,17.89-.44,36.54-.4,55.93q0,42.43,0,89.47V648.71c0,8.36.26,16.77,0,25.22a77.28,77.28,0,0,1-5.42,26.92c-6.62,10.84-6.35,22.82-3.48,34.42a136.92,136.92,0,0,0,5.78,17.54c2.62,8.13,3.27,16.78,3.53,25.47s.13,17.6.1,26.46q0,16.13-.47,32.39,0,10.53,0,21.11c-2.22,5.1-4.25,10.28-6,15.54-10.62,31.13-12.73,64.52,5.71,94.84.25,14.21.31,28.7.32,43.29v12q0,12,0,24.1c.3,10.65.42,21.34.45,32.07.07,26.28-.46,52.72-.46,79.29v542.15c0,11.4-.82,22.77-.46,33.62.33,10.17-5.83,17.12-9.31,25.24a38.81,38.81,0,0,0-2.69,17.47c.45,8.65,3.22,17.22,6.49,25.26,5.12,12.57,6.37,24.19,6.55,35.61q.19,13.21.46,26.37c.74,36.47.25,72.42-.63,108-.12,5-.39,9.94-.7,14.94-.45,7.41-1.24,14.94-2,22.5-.56,4.76-1.24,9.54-2,14.37a108.16,108.16,0,0,0-1.38,12.27,156,156,0,0,0,2.75,36.93,155.28,155.28,0,0,1,2.06,16.45c.75,10.27,1,20.69,1,31.13,0,7.37,0,14.7-.07,22v473.09q0,19.46.19,37.83c.45,16.5.9,32.37.84,47.58-.05,12-.44,23.63-3,34.63a119.18,119.18,0,0,0-5.91,20.61c-1.92,13.58-.1,27,4.72,40.58a54.83,54.83,0,0,1,2.5,12.92c.5,4.7.65,9.21.7,13.58.64,57.53,0,89.64,0,89.64"/><path class="cls-2" d="M1329.81-47.53v29.41c0,9.58,0,21.41,0,35.32.07,12.68.26,27,.42,42.75q.13,12.9.26,27.13c.15.3.29.6.43.89,3,6.3,5.47,12.56,7.84,18.93,14.6,17,17.14,36.09,5.93,52.86a82.93,82.93,0,0,1-11.84,13.35c-3,2.9-2.24,7.95-2.54,12.23-.41,6-.15,12.14-.22,18.35-.21,17.91-.35,36.58-.32,56V648.84c0,8.37.26,16.79,0,25.26A76.45,76.45,0,0,1,1324.3,701c-6.72,10.85-6.44,22.84-3.53,34.46a133.42,133.42,0,0,0,5.85,17.42c2.63,8.15,3.27,16.8,3.51,25.51s.1,17.63.08,26.5q0,16.17-.38,32.46,0,10.54,0,21.14c-2.25,5.1-4.31,10.29-6.12,15.54-10.78,31.17-12.93,64.62,5.79,94.94.26,14.23.31,28.74.32,43.35q0,6,0,12v24.13c.24,10.68.34,21.39.36,32.14.06,26.32-.36,52.8-.36,79.41v543c0,11.41-.84,22.81-.48,33.67.34,10.2-5.9,17.12-9.44,25.24a38.17,38.17,0,0,0-2.74,17.43c.46,8.63,3.26,17.18,6.56,25.2,5.17,12.55,6.41,24.14,6.56,35.53q.15,13.2.37,26.33c.58,36.4.27,72.31-.51,107.81-.1,4.95-.37,9.92-.67,14.92-.43,7.4-1.2,14.91-2,22.45-.58,4.75-1.27,9.53-2.12,14.34a108.7,108.7,0,0,0-1.44,12.25,149.19,149.19,0,0,0,2.74,36.86,160.23,160.23,0,0,1,2.14,16.42c.81,10.26,1.06,20.66,1.07,31.09,0,7.35,0,14.67,0,22v472.18q0,19.41.14,37.77c.37,16.48.75,32.32.68,47.5-.06,12-.44,23.6-3,34.57a114.23,114.23,0,0,0-5.84,20.59c-2,13.54-.11,27,4.79,40.49a54.13,54.13,0,0,1,2.54,12.89c.5,4.69.66,9.19.71,13.55.65,57.42,0,89.47,0,89.47"/><path class="cls-2" d="M1349.73-48.15V-18.7c0,9.6,0,21.45,0,35.38.06,12.67.2,27,.31,42.82q.12,12.91.22,27.18c.15.3.29.6.43.9a204.59,204.59,0,0,1,7.87,19c14.72,17,17.25,36.13,6,52.88-3.07,4.57-7.21,8.76-11.91,13.17-3.06,2.88-2.24,8-2.52,12.25-.39,6-.12,12.16-.17,18.38q-.23,26.89-.24,56.09V649c0,8.38.27,16.81,0,25.29a75.33,75.33,0,0,1-5.59,26.93c-6.81,10.85-6.53,22.87-3.58,34.49a129.38,129.38,0,0,0,5.92,17.32c2.64,8.15,3.26,16.82,3.49,25.55s.08,17.65.06,26.53q0,16.2-.28,32.53,0,10.54,0,21.17c-2.28,5.1-4.37,10.29-6.21,15.55-10.94,31.19-13.11,64.7,5.88,95,.26,14.25.31,28.78.33,43.43v36.16q.27,16,.27,32.19c0,26.36-.27,52.89-.27,79.54v543.76c0,11.44-.85,22.85-.48,33.72.34,10.23-6,17.13-9.58,25.25a37.64,37.64,0,0,0-2.78,17.4c.45,8.61,3.28,17.14,6.62,25.13,5.23,12.54,6.46,24.1,6.57,35.45q.11,13.18.27,26.3.66,54.48-.37,107.62c-.1,4.94-.35,9.9-.64,14.89-.43,7.39-1.16,14.88-2,22.41-.59,4.74-1.3,9.51-2.17,14.32a110.88,110.88,0,0,0-1.51,12.23,143.5,143.5,0,0,0,2.72,36.79,157.07,157.07,0,0,1,2.22,16.39c.88,10.23,1.16,20.62,1.18,31,0,7.33,0,14.64,0,21.91v471.29q0,19.36.11,37.69c.27,16.46.59,32.29.51,47.44-.07,12-.43,23.56-3,34.5a109.92,109.92,0,0,0-5.79,20.57c-2,13.49-.11,26.88,4.86,40.4A53.06,53.06,0,0,1,1349,2810c.51,4.68.67,9.17.72,13.52.66,57.32,0,89.3,0,89.3"/><path class="cls-2" d="M1369.65-48.76v29.49c0,9.61,0,21.47,0,35.43,0,12.67.14,27,.21,42.9,0,8.62.09,17.7.17,27.22.14.3.29.6.44.9a205.14,205.14,0,0,1,7.89,19c14.83,17.07,17.36,36.19,6,52.92-3.06,4.51-7.24,8.63-12,13-3.1,2.87-2.24,8-2.51,12.26-.38,6-.08,12.19-.11,18.42q-.16,26.93-.17,56.17V649.09c0,8.4.28,16.84,0,25.33a74.82,74.82,0,0,1-5.66,27c-6.92,10.85-6.63,22.88-3.64,34.52a127.11,127.11,0,0,0,6,17.2c2.65,8.16,3.26,16.85,3.48,25.59s0,17.68,0,26.58q0,16.22-.19,32.58,0,10.57,0,21.21c-2.31,5.1-4.43,10.29-6.3,15.55-11.09,31.23-13.3,64.79,6,95.12.26,14.27.32,28.82.33,43.49v12q0,12.08,0,24.2.16,16.08.18,32.26c0,26.4-.19,53-.19,79.66v544.57c0,11.45-.85,22.88-.48,33.77.35,10.26-6.08,17.14-9.73,25.26a37.08,37.08,0,0,0-2.82,17.35c.46,8.59,3.32,17.1,6.69,25.07,5.29,12.52,6.5,24.05,6.57,35.38q.07,13.15.19,26.25c.29,36.25.32,72.07-.25,107.44-.08,4.94-.32,9.89-.61,14.86-.42,7.39-1.12,14.85-2,22.38q-.9,7.1-2.23,14.28a106.59,106.59,0,0,0-1.57,12.21,137.42,137.42,0,0,0,2.69,36.73,159.39,159.39,0,0,1,2.31,16.36c.94,10.21,1.25,20.58,1.28,31,0,7.32,0,14.61,0,21.87v470.39q0,19.34.08,37.62c.18,16.45.44,32.25.33,47.37-.08,12-.42,23.53-3,34.44a106,106,0,0,0-5.72,20.55c-2,13.45-.12,26.8,4.93,40.31a52.46,52.46,0,0,1,2.61,12.83,135,135,0,0,1,.73,13.5c.67,57.2,0,89.13,0,89.13"/><path class="cls-2" d="M1389.58-49.38v29.54c0,9.62,0,21.5,0,35.48,0,12.67.06,27,.1,43,0,8.63,0,17.73.11,27.27l.45.9a198,198,0,0,1,7.92,19c14.94,17.07,17.5,36.26,6.06,52.94-3,4.47-7.26,8.5-12,12.81-3.13,2.84-2.25,8-2.51,12.27-.36,6,0,12.2,0,18.45q-.08,27-.08,56.26V649.22c0,8.41.27,16.86,0,25.36a74.28,74.28,0,0,1-5.75,27c-7,10.86-6.73,22.9-3.69,34.55a123.59,123.59,0,0,0,6,17.09c2.67,8.18,3.26,16.88,3.47,25.63s0,17.71,0,26.62q0,16.25-.1,32.65v21.23c-2.35,5.11-4.5,10.3-6.39,15.57-11.26,31.25-13.5,64.87,6,95.21.26,14.28.32,28.86.33,43.55q0,6,0,12v24.25q.09,16.1.09,32.31c0,26.45-.09,53.06-.09,79.78v545.39c0,11.47-.87,22.92-.5,33.81.36,10.29-6.15,17.15-9.86,25.27a36.46,36.46,0,0,0-2.86,17.31c.45,8.57,3.35,17.07,6.74,25,5.35,12.5,6.56,24,6.59,35.3q0,13.14.09,26.22c.15,36.17.35,71.94-.12,107.24-.07,4.94-.3,9.88-.57,14.85-.42,7.37-1.08,14.82-2,22.33-.61,4.72-1.36,9.47-2.28,14.26a106.71,106.71,0,0,0-1.64,12.19,131.72,131.72,0,0,0,2.68,36.66,164.25,164.25,0,0,1,2.39,16.33c1,10.18,1.33,20.54,1.38,30.93,0,7.3,0,14.58,0,21.83v469.48q0,19.31,0,37.56c.09,16.43.29,32.2.17,47.29-.09,12-.42,23.5-2.94,34.38a103.39,103.39,0,0,0-5.66,20.53c-2,13.4-.12,26.72,5,40.22a51,51,0,0,1,2.65,12.8,134.57,134.57,0,0,1,.75,13.47c.68,57.1,0,89,0,89"/><path class="cls-2" d="M1409.5-50V58.17c0,8.64,0,17.75.06,27.31A188,188,0,0,1,1418,105.4c19,21.6,18,46.6-6,65.6-3,3-2,8-2.5,12.29V674.74c-.57,8.64-1.79,17.48-5.83,27C1393,718,1399,737,1406.05,753.28c2.68,8.18,3.07,16.9,3.45,25.67v80.63C1393,895,1386,935,1409.16,970.45c.34,18.21.34,36.88.34,55.66v682.75c0,11.49-.2,23-.5,33.87,1,10.27-6,17.27-10,25.27-6,14-2,29,3.9,42.22,5.27,12.54,6.6,24,6.6,35.22v133.24c-.35,16.82-1.44,33.81-4.92,51.34s-2.2,33.47,1,48.76,3.77,31.21,4,47.18v575.09c-.21,11.95-.42,23.46-2.91,34.32C1399,2755,1397,2776,1406.06,2796c3,9.42,3.24,18.08,3.44,26.22V2911"/></g></svg>