<svg xmlns="http://www.w3.org/2000/svg" viewBox="0 0 1393 2837"><defs><style>.cls-1{fill:#fff;}</style></defs><title>hesehus-background1</title><g id="flow-backgr"><rect class="cls-1" x="-67" y="-41" width="1656" height="2966"/></g><g id="flow"><path d="M-296.47,45.82a394.21,394.21,0,0,1-57.86-4.06C-387,36.91-418.52,26.83-445.6,12.61c-29.94-15.73-54.35-36.18-72.55-60.77l3.22-2.38c34,46,92.76,78.17,161.19,88.34,63.25,9.4,128,.77,188.47-10A2080.8,2080.8,0,0,0,423.54-170.7c47.79-24.57,95.54-51.49,141.71-77.52C669.57-307,777.43-367.85,893-405.67a931.64,931.64,0,0,1,541.12-10.58l-1.1,3.84c-174.76-49.74-366.1-46-538.78,10.54-115.16,37.7-222.85,98.41-327,157.13-46.21,26.05-94,53-141.85,77.6A2084.93,2084.93,0,0,1-164.58,31.78C-207.09,39.32-251.69,45.82-296.47,45.82Z"/><path d="M-286.14,86.24A394.11,394.11,0,0,1-344,82.18c-32.64-4.85-64.19-14.93-91.27-29.15-30-15.73-54.36-36.18-72.55-60.77l3.22-2.38c34,46,92.76,78.17,161.18,88.34,63.25,9.4,128,.77,188.47-10A2080.8,2080.8,0,0,0,433.86-130.28c47.79-24.57,95.54-51.49,141.72-77.52,104.31-58.82,212.18-119.63,327.71-157.45a931.76,931.76,0,0,1,541.12-10.59l-1.09,3.85c-174.76-49.74-366.1-46-538.78,10.54-115.16,37.7-222.85,98.41-327,157.13-46.21,26-94,53-141.85,77.6A2084.87,2084.87,0,0,1-154.25,72.2C-196.76,79.73-241.36,86.24-286.14,86.24Z"/><path d="M-275.82,126.66a394.21,394.21,0,0,1-57.86-4.06c-32.63-4.85-64.19-14.93-91.26-29.15-29.95-15.74-54.36-36.18-72.55-60.77l3.21-2.38c34,46,92.76,78.17,161.19,88.34,63.25,9.4,128,.77,188.47-10A2080.9,2080.9,0,0,0,444.19-89.86c47.79-24.57,95.54-51.49,141.71-77.53C690.22-226.2,798.08-287,913.62-324.83a931.76,931.76,0,0,1,541.12-10.59l-1.1,3.85c-174.75-49.74-366.1-46-538.78,10.54C799.7-283.33,692-222.62,587.87-163.9c-46.21,26.05-94,53-141.85,77.6A2085,2085,0,0,1-143.92,112.62C-186.44,120.15-231,126.66-275.82,126.66Z"/><path d="M-265.49,167.08A392.75,392.75,0,0,1-323.35,163c-32.63-4.84-64.19-14.92-91.27-29.14C-444.57,118.13-469,97.69-487.17,73.1l3.22-2.38c34,46,92.76,78.17,161.19,88.34,63.24,9.4,128,.76,188.46-10A2080.86,2080.86,0,0,0,454.52-49.44C502.3-74,550.05-100.93,596.23-127c104.31-58.81,212.18-119.62,327.71-157.45A931.9,931.9,0,0,1,1465.07-295l-1.1,3.85c-174.76-49.74-366.1-46-538.78,10.53C810-242.91,702.34-182.2,598.2-123.48c-46.22,26.05-94,53-141.85,77.6A2084.59,2084.59,0,0,1-133.6,153C-176.11,160.57-220.71,167.08-265.49,167.08Z"/><path d="M-255.17,207.5A392.94,392.94,0,0,1-313,203.43c-32.63-4.85-64.19-14.93-91.26-29.15-29.95-15.73-54.36-36.17-72.55-60.76l3.21-2.38c34,46,92.76,78.17,161.19,88.34,63.25,9.4,128,.76,188.47-10A2080.57,2080.57,0,0,0,464.84-9c47.79-24.57,95.54-51.5,141.72-77.53C710.87-145.36,818.73-206.17,934.27-244a931.64,931.64,0,0,1,541.12-10.58l-1.1,3.85c-174.75-49.74-366.1-46-538.78,10.53-115.16,37.71-222.84,98.42-327,157.13-46.21,26.06-94,53-141.85,77.61A2084.64,2084.64,0,0,1-123.27,193.45C-165.79,201-210.38,207.5-255.17,207.5Z"/><path d="M-244.84,247.92a392.85,392.85,0,0,1-57.86-4.07C-335.33,239-366.89,228.92-394,214.7c-29.95-15.73-54.36-36.17-72.55-60.76l3.22-2.38c34,46,92.76,78.17,161.19,88.33,63.25,9.4,128,.77,188.46-10A2080.63,2080.63,0,0,0,475.17,31.4C523,6.82,570.7-20.1,616.88-46.13,721.19-104.94,829.06-165.75,944.6-203.58a931.64,931.64,0,0,1,541.12-10.58l-1.1,3.85c-174.76-49.74-366.1-46-538.78,10.53-115.16,37.7-222.85,98.42-327,157.13-46.22,26.06-94,53-141.85,77.6A2084.41,2084.41,0,0,1-112.95,233.87C-155.46,241.41-200.06,247.92-244.84,247.92Z"/><path d="M-234.52,288.33a392.93,392.93,0,0,1-57.86-4.06c-32.63-4.85-64.19-14.93-91.26-29.15C-413.59,239.39-438,219-456.19,194.35L-453,192c34,46,92.76,78.17,161.19,88.33,63.25,9.4,128,.77,188.47-10A2080.78,2080.78,0,0,0,485.49,71.82C533.28,47.24,581,20.32,627.21-5.71,731.52-64.52,839.38-125.33,954.92-163.16A931.65,931.65,0,0,1,1496-173.74L1495-169.9c-174.76-49.74-366.11-46-538.78,10.54C841-121.66,733.32-60.94,629.17-2.23c-46.21,26.06-94,53-141.85,77.6A2084.55,2084.55,0,0,1-102.62,274.29C-145.14,281.83-189.73,288.33-234.52,288.33Z"/><path d="M-224.19,328.75A394.21,394.21,0,0,1-282,324.69c-32.63-4.85-64.19-14.93-91.27-29.15-29.95-15.73-54.35-36.18-72.55-60.77l3.22-2.38c34,46,92.76,78.18,161.19,88.34,63.25,9.4,128,.77,188.47-10A2080.7,2080.7,0,0,0,495.82,112.23c47.78-24.57,95.53-51.49,141.71-77.52C741.84-24.1,849.71-84.92,965.25-122.74a931.64,931.64,0,0,1,541.12-10.58l-1.1,3.84c-174.76-49.74-366.1-46-538.78,10.54-115.16,37.7-222.85,98.42-327,157.13-46.21,26.06-94,53-141.84,77.6A2084.72,2084.72,0,0,1-92.3,314.71C-134.81,322.25-179.41,328.75-224.19,328.75Z"/><path d="M-213.86,369.17a394.11,394.11,0,0,1-57.86-4.06c-32.64-4.85-64.2-14.93-91.27-29.15-29.95-15.73-54.36-36.18-72.55-60.77l3.21-2.38c34,46,92.76,78.17,161.19,88.34,63.26,9.4,128,.77,188.47-10A2080.48,2080.48,0,0,0,506.14,152.65c47.79-24.57,95.54-51.49,141.72-77.52C752.17,16.31,860-44.5,975.57-82.32a931.76,931.76,0,0,1,541.12-10.59l-1.09,3.85c-174.76-49.74-366.1-46-538.78,10.54C861.66-40.82,754,19.89,649.82,78.61c-46.21,26.05-94,53-141.85,77.6A2084.66,2084.66,0,0,1-82,355.13C-124.48,362.66-169.08,369.17-213.86,369.17Z"/><path d="M-203.54,409.59a394.21,394.21,0,0,1-57.86-4.06c-32.63-4.85-64.19-14.93-91.27-29.15-29.94-15.73-54.35-36.18-72.54-60.77l3.21-2.38c34,46,92.76,78.17,161.19,88.34,63.25,9.4,128,.76,188.47-10A2080.9,2080.9,0,0,0,516.47,193.07c47.79-24.57,95.54-51.49,141.72-77.53C762.5,56.73,870.36-4.08,985.9-41.9A931.76,931.76,0,0,1,1527-52.49l-1.1,3.85c-174.75-49.74-366.1-46-538.78,10.54C872-.4,764.29,60.31,660.15,119c-46.21,26.05-94,53-141.85,77.6A2085,2085,0,0,1-71.64,395.55C-114.16,403.08-158.76,409.59-203.54,409.59Z"/><path d="M-193.21,450a392.75,392.75,0,0,1-57.86-4.07c-32.64-4.84-64.19-14.92-91.27-29.15-30-15.73-54.36-36.17-72.55-60.76l3.22-2.38c34,46,92.76,78.17,161.18,88.34,63.25,9.4,128,.76,188.47-10A2080.8,2080.8,0,0,0,526.79,233.49C574.58,208.92,622.33,182,668.5,156,772.82,97.15,880.68,36.34,996.22-1.49a931.87,931.87,0,0,1,541.12-10.58l-1.09,3.85c-174.76-49.74-366.1-46-538.78,10.54C882.3,40,774.61,100.73,670.47,159.45c-46.21,26.05-94,53-141.84,77.6A2084.81,2084.81,0,0,1-61.32,436C-103.83,443.5-148.43,450-193.21,450Z"/><path d="M-182.89,490.43a392.85,392.85,0,0,1-57.86-4.07c-32.63-4.85-64.19-14.93-91.26-29.15C-362,441.48-386.37,421-404.56,396.45l3.21-2.38c34,46,92.76,78.17,161.19,88.34,63.25,9.4,128,.76,188.47-10A2080.46,2080.46,0,0,0,537.12,273.91c47.79-24.57,95.54-51.49,141.71-77.53C783.15,137.57,891,76.76,1006.55,38.93a931.64,931.64,0,0,1,541.12-10.58l-1.1,3.85c-174.75-49.74-366.1-46-538.78,10.53-115.16,37.71-222.85,98.42-327,157.13-46.21,26.06-94,53-141.85,77.6A2084.35,2084.35,0,0,1-51,476.38C-93.51,483.92-138.1,490.43-182.89,490.43Z"/><path d="M-172.56,530.85a392.75,392.75,0,0,1-57.86-4.07c-32.63-4.85-64.19-14.93-91.27-29.15-29.95-15.73-54.36-36.17-72.55-60.76l3.22-2.38c34,46,92.76,78.17,161.19,88.33,63.25,9.4,128,.77,188.46-10A2080.53,2080.53,0,0,0,547.45,314.33c47.78-24.58,95.53-51.5,141.71-77.53C793.47,178,901.34,117.18,1016.88,79.35A931.64,931.64,0,0,1,1558,68.77l-1.1,3.85c-174.76-49.74-366.1-46-538.78,10.53-115.16,37.71-222.85,98.42-327,157.13-46.22,26.06-94,53-141.85,77.6A2084.72,2084.72,0,0,1-40.67,516.8C-83.18,524.34-127.78,530.84-172.56,530.85Z"/><path d="M-162.24,571.26a392.93,392.93,0,0,1-57.86-4.06c-32.63-4.85-64.19-14.93-91.26-29.15-29.95-15.73-54.36-36.17-72.55-60.76l3.21-2.38c34,46,92.76,78.17,161.19,88.33,63.25,9.4,128,.77,188.47-10A2080.88,2080.88,0,0,0,557.77,354.75c47.79-24.58,95.53-51.5,141.71-77.53C803.79,218.41,911.66,157.6,1027.2,119.77a931.65,931.65,0,0,1,541.12-10.58l-1.09,3.85c-174.76-49.74-366.11-46-538.79,10.53-115.16,37.7-222.85,98.42-327,157.14-46.21,26.05-94,53-141.85,77.59A2084.66,2084.66,0,0,1-30.34,557.22C-72.86,564.76-117.45,571.26-162.24,571.26Z"/><path d="M-151.91,611.68a394.21,394.21,0,0,1-57.86-4.06C-242.4,602.77-274,592.69-301,578.47c-29.95-15.73-54.36-36.18-72.55-60.77l3.22-2.38c34,46,92.76,78.18,161.19,88.34,63.25,9.4,128,.77,188.47-10A2080.9,2080.9,0,0,0,568.1,395.16c47.78-24.57,95.54-51.49,141.71-77.53C814.13,258.83,922,198,1037.53,160.19a931.64,931.64,0,0,1,541.12-10.58l-1.1,3.84c-174.75-49.74-366.09-46-538.78,10.54-115.16,37.7-222.85,98.42-327,157.13-46.21,26.05-94,53-141.85,77.6A2084.62,2084.62,0,0,1-20,597.64C-62.53,605.18-107.13,611.68-151.91,611.68Z"/><path d="M-141.58,652.1A394.34,394.34,0,0,1-199.45,648c-32.63-4.85-64.19-14.93-91.26-29.15-30-15.73-54.36-36.18-72.55-60.77l3.21-2.38c34,46,92.76,78.17,161.19,88.34,63.25,9.4,128,.77,188.47-10A2080.8,2080.8,0,0,0,578.42,435.58C626.21,411,674,384.09,720.14,358.06c104.31-58.81,212.17-119.63,327.71-157.45A931.76,931.76,0,0,1,1589,190l-1.09,3.85c-174.76-49.74-366.1-46-538.78,10.54-115.17,37.7-222.85,98.41-327,157.13-46.21,26-94,53-141.85,77.6A2084.55,2084.55,0,0,1-9.69,638.06C-52.21,645.59-96.8,652.1-141.58,652.1Z"/><path d="M-131.26,692.52a394.21,394.21,0,0,1-57.86-4.06c-32.63-4.85-64.19-14.93-91.27-29.15-29.94-15.73-54.35-36.18-72.55-60.77l3.22-2.38c34,46,92.76,78.17,161.19,88.34,63.25,9.4,128,.77,188.47-10A2080.9,2080.9,0,0,0,588.75,476c47.78-24.57,95.53-51.49,141.71-77.52C834.77,339.67,942.64,278.85,1058.18,241a931.76,931.76,0,0,1,541.12-10.59l-1.1,3.85c-174.76-49.74-366.1-46-538.78,10.54-115.16,37.7-222.85,98.42-327,157.13-46.21,26.05-94,53-141.84,77.6A2085,2085,0,0,1,.63,678.48C-41.88,686-86.48,692.52-131.26,692.52Z"/><path d="M-120.93,732.94a392.75,392.75,0,0,1-57.86-4.07C-211.43,724-243,714-270.06,699.73-300,684-324.42,663.55-342.61,639l3.22-2.38c34,46,92.76,78.17,161.18,88.34,63.25,9.39,128,.76,188.47-10A2080.8,2080.8,0,0,0,599.07,516.42c47.79-24.57,95.54-51.49,141.72-77.53C845.1,380.08,953,319.27,1068.5,281.44a931.87,931.87,0,0,1,541.12-10.58l-1.09,3.85c-174.76-49.74-366.1-46-538.78,10.54-115.16,37.7-222.85,98.41-327,157.13-46.21,26.05-94,53-141.85,77.6A2084.53,2084.53,0,0,1,11,718.89C-31.56,726.43-76.15,732.94-120.93,732.94Z"/><path d="M-110.61,773.36a392.85,392.85,0,0,1-57.86-4.07c-32.63-4.85-64.19-14.92-91.27-29.15-29.94-15.73-54.35-36.17-72.55-60.76l3.22-2.38c34,46,92.76,78.17,161.19,88.34,63.25,9.39,128,.76,188.47-10A2080.8,2080.8,0,0,0,609.4,556.84c47.79-24.57,95.54-51.49,141.71-77.53,104.32-58.81,212.18-119.62,327.72-157.45A931.87,931.87,0,0,1,1620,311.28l-1.1,3.85c-174.76-49.74-366.1-46-538.78,10.53-115.16,37.71-222.85,98.42-327,157.13-46.21,26.06-94,53-141.85,77.61A2084.64,2084.64,0,0,1,21.29,759.31C-21.23,766.85-65.83,773.36-110.61,773.36Z"/><path d="M1630.27,351.7l-1.09,3.85c-174.76-49.74-366.1-46-538.78,10.53-115.16,37.71-222.85,98.42-327,157.14-46.21,26-94,53-141.85,77.59A2091.37,2091.37,0,0,1,229.29,754.64q-5.49,1.54-11,3.05l-.08,0q-6.14-.44-12.23-.83,5.63-1.51,11.25-3l.26-.07a2088.81,2088.81,0,0,0,402.23-156.5c47.79-24.57,95.54-51.49,141.72-77.53,104.31-58.81,212.18-119.62,327.71-157.45a931.65,931.65,0,0,1,541.12-10.58Z"/><path d="M1640.6,392.12l-1.1,3.84c-174.75-49.74-366.1-46-538.78,10.54-115.16,37.7-222.85,98.42-327,157.13-46.21,26.06-94,53-141.85,77.6A2085.5,2085.5,0,0,1,333.8,766.37c-2.84.94-5.68,1.88-8.52,2.8-3-.43-6.08-.84-9.11-1.25q4.36-1.39,8.71-2.82A2082.17,2082.17,0,0,0,630.05,637.68c47.79-24.58,95.54-51.5,141.72-77.53,104.31-58.81,212.17-119.62,327.71-157.45a931.64,931.64,0,0,1,541.12-10.58Z"/><path d="M1650.93,432.54l-1.1,3.84c-174.76-49.74-366.1-46-538.78,10.54-115.16,37.7-222.85,98.42-327,157.13-46.22,26.05-94,53-141.85,77.6a2086.59,2086.59,0,0,1-223.8,99q-3.63,1.36-7.27,2.7l-7.71-1.43c2.45-.89,4.91-1.8,7.36-2.71h0A2085.18,2085.18,0,0,0,640.38,678.09c47.78-24.57,95.53-51.49,141.71-77.52C886.4,541.76,994.27,480.94,1109.8,443.12a931.68,931.68,0,0,1,541.13-10.58Z"/><path d="M1661.25,473l-1.09,3.84c-174.76-49.74-366.1-46-538.78,10.54-115.17,37.7-222.86,98.42-327,157.13-46.21,26-94,53-141.85,77.6q-78.48,40.35-159.86,73.86h0l-6.5,2.66h0l-6.91-1.5q3.28-1.32,6.56-2.67,83.93-34.27,164.9-75.91C698.49,693.94,746.24,667,792.42,641c104.31-58.81,212.17-119.63,327.71-157.45A931.65,931.65,0,0,1,1661.25,473Z"/><path d="M1671.58,513.37l-1.1,3.85c-174.76-49.74-366.1-46-538.78,10.54-115.16,37.7-222.85,98.41-327,157.13-46.21,26.05-94,53-141.85,77.6q-50.61,26-102.45,49.2-3,1.35-6,2.67L548,812.81l6-2.65h0q54.15-24.06,107-51.23c47.78-24.57,95.53-51.49,141.71-77.53C907.06,622.59,1014.92,561.78,1130.46,524a931.76,931.76,0,0,1,541.12-10.59Z"/><path d="M1681.9,553.79l-1.09,3.85c-174.76-49.74-366.1-46-538.78,10.54-115.16,37.7-222.85,98.41-327,157.13-46.22,26.05-94,53-141.86,77.6q-24.64,12.68-49.59,24.67c-1.86.9-3.73,1.8-5.6,2.68l-6-1.55,5.62-2.68q27.06-12.94,53.78-26.68c47.79-24.57,95.54-51.49,141.72-77.53C917.38,663,1025.25,602.2,1140.78,564.38a931.76,931.76,0,0,1,541.12-10.59Z"/><path d="M1692.23,594.21l-1.1,3.85c-174.75-49.74-366.1-46-538.78,10.53C1037.19,646.3,929.5,707,825.36,765.73c-46.21,26-94,53-141.85,77.6l-.08,0q-2.64,1.36-5.3,2.71l-5.78-1.54,5.31-2.71,4-2.06c47.78-24.57,95.53-51.49,141.71-77.53,104.32-58.81,212.18-119.62,327.72-157.45a931.87,931.87,0,0,1,541.12-10.58Z"/><path d="M1702.55,634.63l-1.09,3.85c-174.76-49.74-366.1-46-538.78,10.53-115.16,37.71-222.85,98.42-327,157.13-31.07,17.52-62.84,35.44-94.88,52.78h0l-5.09,2.75-5.6-1.53,5.11-2.75c33.25-17.94,66.26-36.55,98.51-54.73C938,743.85,1045.9,683,1161.43,645.21a931.65,931.65,0,0,1,541.12-10.58Z"/><path d="M1712.88,675.05l-1.1,3.85c-174.76-49.74-366.1-46-538.78,10.53-115.16,37.7-222.85,98.42-327,157.14-16.23,9.16-32.67,18.42-49.23,27.65l-5,2.78-5.51-1.51,5-2.77c17.76-9.89,35.38-19.83,52.78-29.64,104.31-58.81,212.18-119.62,327.72-157.45a931.64,931.64,0,0,1,541.12-10.58Z"/><path d="M1723.21,715.47l-1.1,3.84c-174.76-49.74-366.1-46-538.78,10.54-115.16,37.7-222.85,98.42-327,157.13l-4.09,2.3-5,2.81-5.5-1.48,5-2.8h0l7.64-4.31c104.31-58.81,212.18-119.62,327.71-157.45a931.68,931.68,0,0,1,541.13-10.58Z"/><path d="M1733.53,755.88l-1.1,3.85c-174.75-49.74-366.1-46-538.78,10.54-100,32.72-194.27,82.78-285.53,133.82h0l-5,2.83-5.56-1.46,5-2.82h0c92.56-51.84,188.25-102.9,289.88-136.17a931.76,931.76,0,0,1,541.12-10.59Z"/><path d="M1743.86,796.3l-1.1,3.85c-174.76-49.74-366.1-46-538.78,10.54-83,27.16-162,66.26-238.71,108h0l-5.19,2.83-5.72-1.43,5.18-2.83h0c78-42.57,158.55-82.62,243.2-110.33a931.76,931.76,0,0,1,541.12-10.59Z"/><path d="M1754.18,836.72l-1.09,3.85c-174.76-49.74-366.1-46-538.79,10.54-65.3,21.38-128.21,50.16-189.42,81.78q-2.76,1.41-5.5,2.85l-6-1.4,5.46-2.84h0c62.68-32.56,127.14-62.25,194.19-84.2a931.87,931.87,0,0,1,541.12-10.58Z"/><path d="M1764.51,877.14l-1.1,3.85c-174.76-49.74-366.1-46-538.78,10.53-46.47,15.22-91.72,34.18-136,55.25h0l-6,2.85c-2.14-.43-4.27-.88-6.42-1.33,2-1,4-1.92,5.93-2.86,45.94-22,92.92-41.88,141.25-57.71a931.87,931.87,0,0,1,541.12-10.58Z"/><path d="M1774.83,917.56l-1.09,3.85c-174.76-49.74-366.11-46-538.78,10.53-25.46,8.34-50.55,17.8-75.32,28.11-2.29,1-4.57,1.91-6.86,2.89l-7.24-1.26,6.76-2.89h0c26.74-11.3,53.85-21.63,81.4-30.65a931.65,931.65,0,0,1,541.12-10.58Z"/><path d="M1785.16,958l-1.1,3.85q-31-8.82-62.59-15.39h0q-4.12-.87-8.26-1.69h0c-154.69-30.72-318.3-21.36-467.9,27.61l-.45.15q-4.41,1.44-8.8,2.94h0c-3-.38-5.93-.76-8.91-1.16,2.84-1,5.67-2,8.52-2.93s5.6-1.88,8.41-2.8a932.91,932.91,0,0,1,477.28-26.27c2.67.55,5.34,1.11,8,1.7h0Q1757.47,950.09,1785.16,958Z"/><path d="M1795.48,998.4l-1.09,3.84Q1762,993,1729,986.27q-4.1-.85-8.2-1.64h0a917.72,917.72,0,0,0-99.17-13.82h0q-8.07-.69-16.15-1.23h0A936.7,936.7,0,0,0,1372.89,983h0q-8.39,1.54-16.75,3.25h0q-7.69-.36-15.46-.86,7.41-1.65,14.86-3.17h0a938.37,938.37,0,0,1,266.23-15.5h0c4.76.4,9.5.84,14.25,1.32a915.94,915.94,0,0,1,92.76,14.11q4,.79,7.93,1.66Q1766.35,990.1,1795.48,998.4Z"/><path d="M1786,923.69q-27.73,11.12-56.62,20.3h0c-2.61.83-5.22,1.64-7.85,2.45h0A879.46,879.46,0,0,1,1636,968c-4.8,1-9.61,1.9-14.46,2.8h0Q1528.5,988,1424,988q-33.32,0-67.86-1.75h0q-7.69-.36-15.46-.86h0q-50.94-3.09-104.61-9.91h0c-3-.38-5.93-.76-8.91-1.16h0q-36.51-4.81-74.32-11.35l-7.24-1.26h0q-31-5.45-62.9-12.06c-2.14-.43-4.27-.88-6.42-1.33l-1.81-.38q-27.51-5.79-55-12.17l-6-1.4q-26.7-6.21-53.33-12.86l-5.72-1.43q-25.7-6.42-51.28-13.13l-5.56-1.46q-25.21-6.6-50.25-13.37l-5.5-1.48h0q-25.11-6.79-50-13.61l-5.51-1.51h0l-16.68-4.56-33.87-9.26-5.6-1.53q-25.89-7-52-14.06l-5.78-1.54Q645.26,837.3,618,830.26l-6-1.55q-28.69-7.37-57.53-14.35L548,812.81q-30.87-7.39-61.87-14.22h0l-6.91-1.5q-34-7.35-68.1-13.77l-7.71-1.43q-14.71-2.7-29.45-5.19-24.59-4.14-48.7-7.53c-3-.43-6.08-.84-9.11-1.25q-50-6.75-98-10.21-6.14-.44-12.23-.83a1278.45,1278.45,0,0,0-172.18.17h0A1028.59,1028.59,0,0,0-87.67,772.81,883.22,883.22,0,0,0-190.54,799q-3.45,1.1-6.89,2.24-21.24,7-41.75,15.07-2.5,1-5,2-12.81,5.12-25.33,10.65l-4.14,1.84q-27.8,12.48-54.18,27l-1.93-3.51q25.71-14.13,52.91-26.38l4.07-1.82q12-5.31,24.24-10.25h0l4.86-2q19.54-7.72,39.76-14.53,3.28-1.11,6.6-2.19a874.15,874.15,0,0,1,87.72-23.72h.2q11.18-2.42,22.53-4.58h.09q48.26-9.21,99.44-13.84,9.5-.85,19.08-1.56h0q15.33-1.12,31-1.84h0a1329.41,1329.41,0,0,1,154.7,2.24q5.88.42,11.8.88,46.95,3.69,95.59,10.46,4.46.61,8.92,1.27,20.29,2.93,40.85,6.39,18.08,3,36.14,6.42h0l7.61,1.44q33.75,6.42,67.39,13.8l6.86,1.51h0q30.75,6.8,61.36,14.23h0l6.37,1.53q28.67,7,57.16,14.34l6,1.55q27.12,7,54.07,14.25c1.93.5,3.85,1,5.77,1.54q26,7,51.78,14l5.58,1.53h0l29.82,8.15,20.64,5.65,5.51,1.5q24.87,6.81,50,13.59h0l5.51,1.47q25.05,6.75,50.28,13.36h0l5.58,1.45h0q25.65,6.7,51.41,13.13h0l5.72,1.43h0q26.76,6.63,53.59,12.85h0l6,1.39q25.17,5.79,50.34,11.1l6.92,1.44c2.16.46,4.31.9,6.46,1.34h0q32.31,6.6,63.69,12h0q3.68.66,7.33,1.26,38.68,6.57,76,11.31,4.61.6,9.2,1.15,56.93,7,110.69,9.68h0q8.71.45,17.35.78h0c82.86,3.19,160.15-1.27,232.45-13.39h0q8.23-1.37,16.38-2.89h0a885.2,885.2,0,0,0,91.4-21.94h0c2.72-.81,5.42-1.63,8.12-2.46q32.31-10,63.14-22.32Z"/><path d="M1787.11,965.49q-24.73,9.9-50.39,18.29-3.87,1.26-7.77,2.49-40.92,12.91-84.23,22c-4.7,1-9.42,1.94-14.17,2.85q-96.48,18.66-205.4,18.65-32.33,0-65.8-1.65h0q-7.53-.34-15.12-.81-50.3-3-103.26-9.59h0c-3-.36-5.9-.74-8.87-1.13h0q-36.32-4.71-73.93-11.12l-7.18-1.24h0q-30.93-5.37-62.73-11.9L1081.8,991h0l-6.23-1.3q-25.24-5.31-50.48-11.14h0l-6-1.37Q992.42,971,965.8,964.41L960.07,963q-25.7-6.39-51.26-13.09c-1.86-.47-3.72-1-5.57-1.44h0Q878,941.86,853,935.11l-5.5-1.48Q822.32,926.85,797.4,920l-5.51-1.5-21.16-5.79-29.5-8.07-5.61-1.53Q709.67,896.05,683.5,889l-5.79-1.55q-27.15-7.28-54.5-14.35c-2-.53-4-1.05-6.05-1.56q-28.75-7.41-57.67-14.45h0l-6.41-1.55h0q-30.91-7.45-62-14.34h0l-6.93-1.51h0q-34.06-7.43-68.26-13.91h0c-2.56-.49-5.11-1-7.68-1.44h0q-16.5-3.06-33-5.85-22.84-3.86-45.3-7c-3.05-.44-6.08-.87-9.11-1.28h0q-50-6.85-98-10.42-6.17-.46-12.28-.86a1282.86,1282.86,0,0,0-173-.22A1034.38,1034.38,0,0,0-79.75,813.34a890.41,890.41,0,0,0-103,25.34q-3.47,1.07-6.9,2.18h0q-21.09,6.76-41.47,14.56-2.5.95-5,1.92-12.63,4.92-25,10.23c-1.39.59-2.76,1.19-4.14,1.79q-31.57,13.78-61.34,30.16l-1.93-3.51q29.11-16,60.11-29.58l4.08-1.77q11.81-5.1,23.88-9.84l4.91-1.9q19.4-7.47,39.47-14c2.19-.72,4.4-1.43,6.61-2.13h0a887.69,887.69,0,0,1,87.77-23q11.36-2.38,22.9-4.49,45.08-8.26,92.69-12.57,10.67-1,21.48-1.73,15.54-1.1,31.36-1.79A1335.62,1335.62,0,0,1,222,795.8c3.93.29,7.86.59,11.82.92h0q47,3.78,95.59,10.66,4.47.61,8.95,1.29,18.59,2.72,37.41,5.89,19.88,3.35,39.73,7.09l7.61,1.45h0Q457,829.59,490.71,837h0c2.28.51,4.57,1,6.85,1.53h0q30.84,6.85,61.52,14.33h0l6.37,1.55h0q28.74,7,57.31,14.43h0l6,1.55h0q27.2,7.07,54.21,14.33l5.76,1.54q26.07,7,51.93,14.08l5.6,1.53,25.44,7,25.11,6.87,5.5,1.5h0q24.9,6.81,50,13.59L858,932.3h0Q883,939,908.27,945.63l5.58,1.45q25.64,6.67,51.4,13.07l5.75,1.42q26.73,6.6,53.54,12.77,3,.7,6,1.38,22.92,5.24,45.83,10.07,5.67,1.2,11.31,2.35l6.47,1.32q32.22,6.52,63.51,11.86h0q3.64.64,7.28,1.24h0q38.46,6.44,75.56,11.07,4.57.58,9.12,1.12,56.08,6.74,109.09,9.34h0q8.46.44,16.82.73h0c85.46,3.2,165-1.75,239.26-14.87,5.33-.94,10.59-1.92,15.86-3h0a882.66,882.66,0,0,0,90-22.37h0c2.69-.83,5.37-1.66,8-2.51q29-9.21,56.84-20.35Z"/><path d="M1426.32,1071.57c-106.71,0-222.84-13.36-349.59-40.06-102.55-21.6-205.38-49.75-304.83-77C643.17,919.29,510,882.85,376.32,860.3c-281.58-47.46-517.7-20.21-701.8,81l-1.92-3.51c98.71-54.27,213.92-87.68,342.42-99.29,110.67-10,232.44-4,362,17.84,133.93,22.58,267.15,59,396,94.31,99.39,27.21,202.16,55.35,304.59,76.92,286.32,60.31,518.31,52.45,709.24-24l1.49,3.72C1681.22,1050.17,1561.32,1071.57,1426.32,1071.57Z"/><path d="M1427.49,1113.37c-106.71,0-222.84-13.37-349.59-40.06-102.55-21.6-205.38-49.75-304.83-77-128.74-35.24-261.86-71.68-395.59-94.23-281.57-47.46-517.69-20.2-701.79,81l-1.93-3.51c98.71-54.27,213.92-87.68,342.43-99.29,110.66-10,232.44-4,362,17.84,133.93,22.58,267.14,59.05,396,94.31,99.39,27.21,202.16,55.35,304.59,76.92,286.32,60.31,518.31,52.45,709.24-24l1.49,3.72C1682.38,1092,1562.49,1113.37,1427.49,1113.37Z"/><path d="M1428.65,1155.17c-106.7,0-222.84-13.37-349.59-40.06-102.55-21.6-205.38-49.75-304.83-77-128.73-35.24-261.85-71.68-395.58-94.23-281.58-47.46-517.69-20.21-701.79,81l-1.93-3.51c98.71-54.27,213.92-87.68,342.43-99.29,110.66-10,232.44-4,362,17.84,133.93,22.58,267.15,59,396,94.31,99.39,27.21,202.17,55.35,304.6,76.92,286.31,60.31,518.31,52.45,709.24-24l1.48,3.72C1683.55,1133.77,1563.65,1155.17,1428.65,1155.17Z"/><path d="M1429.82,1197c-106.71,0-222.84-13.37-349.59-40.06-102.55-21.6-205.38-49.75-304.83-77-128.74-35.24-261.86-71.68-395.58-94.23-281.58-47.46-517.7-20.21-701.8,81l-1.92-3.51c98.71-54.27,213.92-87.68,342.42-99.29,110.67-10,232.45-4,362,17.84,133.93,22.58,267.14,59,396,94.31,99.39,27.21,202.16,55.35,304.59,76.92,286.32,60.31,518.31,52.45,709.24-24l1.49,3.72C1684.72,1175.57,1564.82,1197,1429.82,1197Z"/><path d="M1431,1238.77c-106.71,0-222.84-13.36-349.59-40.06-102.55-21.6-205.39-49.75-304.83-77-128.74-35.24-261.86-71.68-395.59-94.23-281.57-47.46-517.69-20.21-701.79,81l-1.93-3.51c98.71-54.27,213.92-87.68,342.43-99.29,110.66-10,232.44-4,362,17.84,133.92,22.58,267.14,59,396,94.31,99.39,27.21,202.17,55.35,304.6,76.92,286.31,60.31,518.31,52.45,709.24-24l1.49,3.72C1685.88,1217.37,1566,1238.77,1431,1238.77Z"/><path d="M1432.15,1280.57c-106.7,0-222.84-13.36-349.59-40.06-102.54-21.6-205.38-49.75-304.82-77-128.74-35.24-261.86-71.68-395.59-94.23-281.58-47.46-517.69-20.21-701.79,81l-1.93-3.51c98.71-54.27,213.92-87.68,342.43-99.29,110.66-10,232.44-4,362,17.84,133.93,22.58,267.15,59.05,396,94.31,99.39,27.21,202.17,55.35,304.6,76.92,286.31,60.31,518.31,52.45,709.24-24l1.48,3.72C1687.05,1259.17,1567.15,1280.57,1432.15,1280.57Z"/><path d="M1433.32,1322.37c-106.71,0-222.84-13.37-349.59-40.06-102.55-21.6-205.38-49.75-304.83-77-128.73-35.24-261.86-71.68-395.58-94.23-281.58-47.46-517.7-20.2-701.8,81l-1.92-3.51c98.71-54.27,213.92-87.68,342.42-99.29,110.66-10,232.44-4,362,17.84,133.93,22.58,267.15,59,396,94.31,99.39,27.21,202.16,55.35,304.59,76.92,286.32,60.31,518.31,52.45,709.24-24l1.49,3.72C1688.22,1301,1568.32,1322.37,1433.32,1322.37Z"/><path d="M1434.49,1364.17c-106.71,0-222.84-13.37-349.59-40.06-102.55-21.6-205.39-49.75-304.84-77-128.73-35.24-261.85-71.68-395.58-94.23-281.57-47.46-517.69-20.2-701.79,81l-1.93-3.51c98.71-54.27,213.92-87.68,342.43-99.29,110.66-10,232.44-4,362,17.84,133.92,22.58,267.14,59,396,94.31,99.39,27.21,202.17,55.35,304.6,76.92,286.32,60.31,518.31,52.45,709.24-24l1.49,3.72C1689.38,1342.77,1569.49,1364.17,1434.49,1364.17Z"/><path d="M1435.65,1406c-106.7,0-222.83-13.37-349.59-40.06-102.54-21.6-205.38-49.75-304.83-77-128.73-35.24-261.85-71.68-395.58-94.23-281.58-47.46-517.69-20.21-701.79,81l-1.93-3.51c98.71-54.27,213.92-87.68,342.43-99.29,110.66-10,232.44-4,362,17.84,133.93,22.58,267.15,59,396,94.31,99.39,27.21,202.17,55.35,304.6,76.92,286.31,60.31,518.31,52.45,709.24-24l1.48,3.72C1690.55,1384.57,1570.65,1406,1435.65,1406Z"/><path d="M1436.82,1447.77c-106.71,0-222.84-13.36-349.59-40.06-102.55-21.6-205.38-49.75-304.83-77-128.74-35.24-261.86-71.68-395.58-94.23-281.58-47.46-517.7-20.21-701.8,81l-1.92-3.51c98.71-54.27,213.92-87.68,342.42-99.29,110.66-10,232.44-4,362,17.84,133.93,22.58,267.14,59,396,94.31,99.39,27.21,202.16,55.35,304.59,76.92,286.32,60.31,518.31,52.45,709.24-24l1.49,3.72C1691.72,1426.37,1571.82,1447.77,1436.82,1447.77Z"/><path d="M1438,1489.57c-106.71,0-222.84-13.36-349.59-40.06-102.55-21.6-205.38-49.75-304.83-77-128.74-35.24-261.86-71.68-395.59-94.23-281.57-47.46-517.69-20.21-701.79,81l-1.93-3.51c98.71-54.27,213.92-87.68,342.43-99.29,110.66-10,232.44-4,362,17.84,133.93,22.58,267.14,59.05,396,94.31,99.39,27.21,202.16,55.35,304.59,76.92,286.32,60.31,518.31,52.45,709.24-24l1.49,3.72C1692.88,1468.17,1573,1489.57,1438,1489.57Z"/><path d="M1439.15,1531.37c-106.7,0-222.84-13.37-349.59-40.06-102.54-21.6-205.38-49.75-304.82-77-128.74-35.24-261.86-71.68-395.59-94.23-281.58-47.46-517.69-20.21-701.79,81l-1.93-3.51c98.71-54.27,213.92-87.68,342.43-99.29,110.66-10,232.44-4,362,17.84,133.93,22.58,267.15,59,396,94.31,99.39,27.21,202.17,55.35,304.6,76.92,286.31,60.31,518.31,52.45,709.24-24l1.48,3.72C1694.05,1510,1574.15,1531.37,1439.15,1531.37Z"/><path d="M1440.32,1573.17c-106.7,0-222.84-13.37-349.59-40.06-102.55-21.6-205.38-49.75-304.83-77-128.74-35.24-261.86-71.68-395.58-94.23-281.58-47.46-517.7-20.2-701.8,81l-1.92-3.51c98.71-54.27,213.92-87.68,342.42-99.29,110.66-10,232.44-4,362,17.84,133.93,22.58,267.14,59,396,94.31,99.39,27.21,202.17,55.35,304.6,76.92,286.32,60.31,518.31,52.45,709.24-24l1.49,3.72C1695.22,1551.77,1575.32,1573.17,1440.32,1573.17Z"/><path d="M1441.49,1615c-106.71,0-222.84-13.37-349.59-40.06-102.55-21.6-205.39-49.75-304.83-77-128.74-35.24-261.86-71.68-395.59-94.23-281.57-47.46-517.69-20.21-701.79,81l-1.93-3.51c98.71-54.27,213.92-87.68,342.43-99.29,110.66-10,232.44-4,362,17.84,133.92,22.58,267.14,59,396,94.31,99.39,27.21,202.17,55.35,304.6,76.92C1379,1631.3,1611,1623.44,1802,1547l1.49,3.72C1696.38,1593.57,1576.49,1615,1441.49,1615Z"/><path d="M1442.65,1656.77c-106.7,0-222.84-13.36-349.59-40.06-102.54-21.6-205.38-49.75-304.83-77-128.73-35.24-261.85-71.68-395.58-94.23-281.58-47.46-517.69-20.21-701.79,81l-1.93-3.51c98.71-54.27,213.92-87.68,342.43-99.29,110.66-10,232.44-4,362,17.84,133.93,22.58,267.15,59,396,94.31,99.39,27.21,202.17,55.35,304.6,76.92,286.31,60.31,518.31,52.45,709.24-24l1.48,3.72C1697.55,1635.37,1577.65,1656.77,1442.65,1656.77Z"/><path d="M1443.82,1698.57c-106.71,0-222.84-13.36-349.59-40.06-102.55-21.6-205.38-49.75-304.83-77-128.73-35.24-261.86-71.68-395.58-94.23-281.58-47.46-517.7-20.21-701.8,81l-1.92-3.51c98.71-54.27,213.92-87.68,342.42-99.29,110.67-10,232.45-4,362,17.84,133.93,22.58,267.15,59.05,396,94.31,99.39,27.21,202.16,55.35,304.59,76.92,286.32,60.31,518.31,52.45,709.24-24l1.49,3.72C1698.72,1677.17,1578.82,1698.57,1443.82,1698.57Z"/><path d="M1445,1740.37c-106.71,0-222.84-13.37-349.59-40.06-102.55-21.6-205.38-49.75-304.83-77-128.74-35.24-261.86-71.68-395.59-94.23-281.57-47.46-517.69-20.2-701.79,81l-1.93-3.51c98.71-54.27,213.92-87.68,342.43-99.29,110.66-10,232.44-4,362,17.84,133.93,22.58,267.14,59,396,94.31,99.39,27.21,202.16,55.35,304.59,76.92,286.32,60.31,518.31,52.45,709.24-24l1.49,3.72C1699.88,1719,1580,1740.37,1445,1740.37Z"/><path d="M1172.43,1752.64q11.65,2,23.17,3.9-12.07-.13-24.18,0h0q-9.75-1.69-19.6-3.51-27.29-5-55.24-10.91c-102.55-21.6-205.38-49.75-304.83-77-128.73-35.24-261.85-71.68-395.58-94.23-281.58-47.46-517.69-20.2-701.79,81l-1.93-3.51c98.71-54.27,213.92-87.68,342.43-99.29,110.66-10,232.44-4,362,17.84,133.93,22.58,267.15,59,396,94.31,99.39,27.21,202.17,55.35,304.6,76.92q38.14,8,75,14.45Z"/><path d="M1808.11,1717.89c-107.06,42.88-227,64.28-362,64.28q-9,0-18-.13h-.08q-9-.1-18.18-.37h-.08q-10.9-2.52-21.88-4.78,11,.5,21.94.78h.13c149.37,4.12,280.59-17,396.64-63.49Z"/><path d="M1022.25,1762.82l11.07,2.62c-3.87.44-7.72.89-11.61,1.37h0l-10.8-2.59c-73.5-17.73-146.62-37.75-218-57.29-128.74-35.24-261.86-71.68-395.58-94.23-281.58-47.46-517.7-20.21-701.8,81l-1.92-3.51c98.71-54.27,213.92-87.68,342.42-99.29,110.67-10,232.44-4,362,17.84,133.93,22.58,267.14,59,396,94.31,74.71,20.45,151.33,41.43,228.28,59.75Z"/><path d="M918.61,1778.23l9.33,2.45-9.45,1.65h0c-3.09-.8-6.18-1.62-9.27-2.44h0c-38.74-10.24-77.18-20.77-115.13-31.16-128.74-35.24-261.86-71.68-395.59-94.23-281.57-47.46-517.69-20.21-701.79,81l-1.93-3.51c98.71-54.27,213.92-87.68,342.43-99.29,110.66-10,232.44-4,362,17.84,133.92,22.58,267.14,59,396,94.31C835.8,1756,877.05,1767.3,918.61,1778.23Z"/><path d="M828.85,1795.57l8.61,2.36c-2.87.59-5.74,1.18-8.62,1.79l-8.56-2.34-25-6.85c-128.74-35.24-261.86-71.68-395.59-94.23-281.58-47.46-517.69-20.21-701.79,81l-1.93-3.51c98.71-54.27,213.92-87.68,342.43-99.29,110.66-10,232.44-4,362,17.84,133.93,22.58,267.15,59.05,396,94.31l32.55,8.9Z"/><path d="M744.93,1814.13l8.2,2.23-8.27,1.89h0l-8.16-2.22h0c-110-29.83-222.71-58.85-335.85-77.93-280-47.19-515-20.52-698.66,79.31-1.05.56-2.1,1.14-3.14,1.71l-1.92-3.51,1-.57c98.48-53.93,213.33-87.15,341.38-98.72,110.66-10,232.44-4,362,17.84C517.29,1753.68,632.57,1783.6,744.93,1814.13Z"/><path d="M662.27,1833.55l8.23,2.15-8.28,2h0l-8.25-2.14c-83.11-21.56-167.42-41.37-252-55.63C141.66,1736-79.81,1756-257.24,1839.27q-2.31,1.08-4.61,2.19-17.08,8.14-33.61,17.09c-1.37.74-2.74,1.48-4.1,2.24h0l-.24.13-.23-.42-1.7-3.09,2.27-1.24q16.26-8.87,33.12-17h0q2.26-1.11,4.56-2.18c89.41-42.32,190.93-68.82,302.47-78.9,110.66-10,232.44-4,362,17.84,87.18,14.7,174.05,35.28,259.61,57.59Z"/><path d="M577.08,1853.68c2.89.69,5.78,1.38,8.67,2.09l-8.66,2-8.72-2.08h0c-54.79-13-109.94-24.69-165.21-34-237.72-40.07-443-26.89-612,39.12h0q-2.73,1-5.43,2.14-20.62,8.22-40.5,17.51h0l-4.62,2.18q-17.1,8.13-33.65,17-2.06,1.11-4.1,2.23l-1.46.8-1.37-2.49-.56-1,3.48-1.9q16.29-8.83,33.17-16.92c1.52-.74,3.05-1.46,4.58-2.18q19.53-9.2,39.83-17.39l5.36-2.15c77.62-30.68,163.36-50.38,256-58.75,110.65-10,232.44-4,362,17.84C461.8,1827.54,519.65,1839.92,577.08,1853.68Z"/><path d="M484.33,1874.47c3.23.66,6.45,1.34,9.68,2l-9.67,2.08h0l-9.81-2h0q-35.06-7.08-70.19-13C193.85,1828,8.78,1834.29-148.15,1882c-2.32.69-4.64,1.41-6.95,2.14q-26.15,8.19-51.23,17.94-2.73,1.05-5.46,2.14-20.65,8.19-40.58,17.46c-1.55.71-3.09,1.44-4.63,2.17q-17.12,8.1-33.69,17-2.06,1.11-4.1,2.23l-2.69,1.46-1.92-3.51.63-.34q2-1.12,4.07-2.22,16.31-8.81,33.21-16.87c1.52-.72,3.05-1.45,4.59-2.16q19.57-9.18,39.91-17.34c1.78-.72,3.58-1.43,5.37-2.14q24.54-9.64,50.13-17.82,3.38-1.08,6.76-2.13C-93.11,1860.85-27,1848.05,43,1841.72c110.66-10,232.44-4,362,17.84q39.72,6.7,79.34,14.91Z"/><path d="M372.67,1896.05q6.21.92,12.45,1.9c-4.12.73-8.23,1.44-12.36,2.14q-6.51-1-13-1.89c-155.78-22.14-297-20.59-422.58,4.52h0q-5.28,1-10.53,2.17h0q-37,7.83-72.11,18.45h0q-3.5,1-7,2.13-26.22,8.16-51.37,17.88-2.73,1.05-5.45,2.13-20.7,8.18-40.66,17.41c-1.55.71-3.09,1.43-4.64,2.16q-17.15,8.07-33.73,16.93-2.07,1.1-4.11,2.21c-1.31.7-2.61,1.42-3.91,2.13l-1.93-3.51,1.85-1q2-1.11,4.08-2.21,16.33-8.79,33.26-16.81,2.3-1.1,4.6-2.16,19.6-9.15,40-17.28,2.68-1.08,5.38-2.13,24.58-9.62,50.24-17.76h0c2.26-.73,4.53-1.43,6.8-2.13h0q33.84-10.46,69.45-18.34h0q5-1.11,10-2.16a1008.14,1008.14,0,0,1,116.76-17.3c101.07-9.12,211.42-4.91,328.47,12.53Z"/><path d="M194.73,1921.31q-36.24,2.16-71.48,2.16-21.28,0-42.16-.79Q136.26,1919.46,194.73,1921.31Z"/><path d="M1628.89,1856.61l-1.8,3.57q-6.33-3.2-12.71-6.28c-2.15-1-4.29-2.08-6.45-3.1h0q-34.7-16.53-70.39-30.19h0q-4.45-1.71-8.93-3.36a958.37,958.37,0,0,0-118.71-35.59h-.08q-10.9-2.52-21.88-4.78a970.71,970.71,0,0,0-102.53-15.5q-44.88-4.35-89.76-4.83h0q-12.07-.13-24.18,0h0a1324.56,1324.56,0,0,0-138.07,8.91h0c-3.87.44-7.72.89-11.61,1.37h0q-46.1,5.6-93.74,13.87h0l-9.45,1.65h0q-39.78,7-81,15.6h0c-2.87.59-5.74,1.18-8.62,1.79q-37.14,7.79-75.71,16.64l-8.27,1.89h0l-2.79.65c-23.79,5.49-47.89,11.18-71.55,16.8l-8.28,2h0l-9.53,2.27q-33.3,7.92-66.93,15.83l-8.66,2c-27.55,6.41-55.25,12.7-83.08,18.69l-9.67,2.08h0c-32.91,7-66,13.56-99.2,19.39h0c-4.12.73-8.23,1.44-12.36,2.14-56.49,9.6-113.33,17-170.32,20.74l-7.71.48q-36.24,2.16-71.48,2.16-21.28,0-42.16-.79A975,975,0,0,1-72.84,1905l-.51-.1h0c-3.08-.62-6.16-1.26-9.22-1.91h0q-37.35-7.9-72.51-18.84c-2.13-.66-4.27-1.34-6.39-2q-27.1-8.68-52.81-19.16l-5.21-2.14q-21.69-9-42.34-19.36-2.25-1.12-4.49-2.26h0a633.26,633.26,0,0,1-59.78-34.61l2.19-3.35q10.95,7.17,22.08,13.8l4,2.37q17.83,10.47,36.06,19.61,2.26,1.14,4.54,2.25,21.35,10.55,43.09,19.4c1.76.73,3.52,1.44,5.28,2.15h0q26.91,10.74,54.13,19.17c2.19.68,4.39,1.35,6.58,2,25.21,7.6,50.49,13.81,75.58,18.82,3.26.66,6.5,1.29,9.75,1.9h0c96.22,18.13,189.32,19.1,265,14.11,52.69-3.47,105.28-10.06,157.6-18.63q6.45-1,12.89-2.15h0c34.09-5.8,68-12.41,101.84-19.5h0l9.8-2.08h0c28.14-6,56.16-12.31,84-18.76h0l8.71-2q37.53-8.73,74.68-17.63l2.2-.52,8.3-2h0c24.51-5.83,49.6-11.77,74.4-17.52h0l4.47-1,3.78-.87c23.9-5.5,49.12-11.18,75.35-16.75l8.56-1.81h0c25.94-5.44,52.82-10.75,80.35-15.68h0l9.4-1.66c30.16-5.28,61-10.06,92.28-14l1-.13q5.19-.66,10.34-1.27h0c45.22-5.42,88.24-8.68,129.55-9.8q10.37-.29,20.6-.38h0a1060.9,1060.9,0,0,1,113.35,4.75,973.5,973.5,0,0,1,124.08,20.26h.13q9.06,2.08,18.07,4.37h.08c11.3,2.83,22.6,5.88,33.78,9.12,25.65,7.42,51,15.9,76,25.41h0c2.88,1.09,5.74,2.2,8.6,3.32h0q34.86,13.63,68.45,29.87,3.16,1.53,6.3,3.07h0C1623.85,1854.08,1626.37,1855.34,1628.89,1856.61Z"/><path d="M1631.67,1898l-1.8,3.58q-6.19-3.12-12.42-6.13h0c-2.14-1.05-4.27-2.08-6.42-3.09q-34.53-16.47-70-30.09c-3-1.13-5.87-2.25-8.83-3.36h0a960.26,960.26,0,0,0-117-35.31h-.1q-10.58-2.46-21.21-4.69h0a972.31,972.31,0,0,0-105.56-16.12c-31.41-3-62.77-4.62-94.26-4.86h0q-11.76-.11-23.56.06h0a1335.14,1335.14,0,0,0-136.53,9.13h0c-3.86.44-7.71.91-11.58,1.38q-45.94,5.65-93.43,13.94h0l-9.44,1.65h0q-39.72,7-80.86,15.63l-8.62,1.8q-37.12,7.79-75.66,16.65l-8.26,1.9h0l-1.07.25c-24.36,5.62-49,11.46-73.23,17.21h0l-8.27,2h0l-7.84,1.86q-34.16,8.12-68.65,16.23l-8.67,2c-27.57,6.41-55.29,12.7-83.14,18.68q-4.85,1-9.71,2.07h0c-33,7-66.13,13.56-99.42,19.37q-6.21,1.1-12.42,2.13c-55.8,9.43-111.94,16.67-168.22,20.38q-6.63.43-13.23.8h0q-33.39,1.86-65.95,1.85-19.45,0-38.58-.66h0a977,977,0,0,1-157.49-17.82l-.29-.06q-4.66-.93-9.28-1.91-37.52-7.94-72.81-18.92l-6.41-2h0q-27.16-8.71-52.93-19.23l-5.2-2.14q-21.75-9.07-42.44-19.43c-1.5-.74-3-1.5-4.49-2.26q-18.25-9.3-35.64-19.6h0l-.47-.29q-11.86-7-23.32-14.54l2.2-3.35q10.76,7,21.69,13.56,2,1.21,4,2.38,17.85,10.48,36.12,19.66c1.5.76,3,1.52,4.53,2.26h0q21.39,10.58,43.18,19.47l5.29,2.14q27,10.79,54.28,19.24h0l6.56,2h0c25.32,7.63,50.71,13.87,75.93,18.9q4.91,1,9.79,1.9c96.12,18.08,189.12,19,264.7,14.06,52-3.42,103.84-9.88,155.44-18.28q6.47-1.05,12.92-2.15c34.18-5.77,68.23-12.37,102.11-19.47h0c3.29-.68,6.56-1.37,9.83-2.08,28.18-6,56.24-12.29,84.15-18.74l8.72-2h0q38.4-8.92,76.38-18l.51-.12,8.31-2h0c24.49-5.82,49.56-11.77,74.37-17.52h0l6.19-1.43,2.05-.47h0c23.87-5.51,49.07-11.19,75.29-16.77l8.56-1.81c25.89-5.44,52.73-10.77,80.23-15.71,3.11-.56,6.24-1.12,9.38-1.66h0c30.06-5.29,60.85-10.09,92-14.08h0l3.22-.41,8.07-1h0c44.82-5.43,87.46-8.76,128.42-10h0q10.14-.32,20.15-.44h0a1065.27,1065.27,0,0,1,117.21,4.71,972.55,972.55,0,0,1,126.41,20.8c5.89,1.38,11.82,2.82,17.68,4.31h.1q16.05,4,31.94,8.65,38.83,11.23,76.65,25.67h0q4.29,1.62,8.56,3.3,34.68,13.59,68.15,29.77c2.1,1,4.2,2,6.29,3.06Z"/><path d="M128.8,2006.21c-68.78,0-134.46-6.18-196.08-18.48-95.47-19.07-180.69-52.85-253.3-100.4l2.19-3.35c172.28,112.84,381.19,125.14,526.12,115.59,152.09-10,303.32-46,449.57-80.78,29.3-7,59.59-14.18,89.4-21,79.23-18.29,173.35-38.64,270.76-50.91,100.42-12.66,190-14.85,273.87-6.7a975.51,975.51,0,0,1,343.11,99.21l-1.79,3.58a965,965,0,0,0-341.7-98.81c-171.76-16.69-341.43,10.92-543.35,57.52-29.79,6.88-60.08,14.08-89.37,21-146.41,34.83-297.81,70.84-450.24,80.88Q167.79,2006.22,128.8,2006.21Z"/><path d="M131.57,2047.58c-68.77,0-134.45-6.18-196.08-18.49C-160,2010-245.2,1976.25-317.8,1928.7l2.19-3.35c172.28,112.84,381.2,125.14,526.11,115.59,152.09-10,303.32-46,449.57-80.78,29.3-7,59.6-14.18,89.41-21.05,79.23-18.29,173.35-38.64,270.75-50.91,100.43-12.66,190-14.85,273.88-6.7a975.51,975.51,0,0,1,343.11,99.21l-1.8,3.58a964.9,964.9,0,0,0-341.7-98.81C1122,1868.78,952.3,1896.4,750.38,1943c-29.8,6.88-60.09,14.08-89.38,21-146.41,34.83-297.81,70.84-450.23,80.88Q170.57,2047.59,131.57,2047.58Z"/><path d="M134.35,2089c-68.77,0-134.46-6.18-196.08-18.49-95.47-19.06-180.69-52.84-253.29-100.39l2.19-3.35c172.27,112.84,381.2,125.14,526.11,115.59,152.09-10,303.32-46,449.57-80.78,29.3-7,59.6-14.18,89.4-21.06,79.23-18.28,173.36-38.63,270.76-50.91,100.43-12.65,190-14.84,273.88-6.69A975.68,975.68,0,0,1,1640,2022.08l-1.8,3.57a965.09,965.09,0,0,0-341.7-98.8c-171.75-16.69-341.43,10.92-543.35,57.52-29.79,6.88-60.08,14.08-89.38,21.05-146.41,34.83-297.8,70.83-450.23,80.88Q173.36,2089,134.35,2089Z"/><path d="M137.13,2130.32c-68.78,0-134.46-6.18-196.08-18.49-95.47-19.06-180.69-52.84-253.3-100.4l2.19-3.34c172.28,112.84,381.2,125.13,526.12,115.59,152.09-10,303.32-46,449.58-80.79,29.29-7,59.59-14.17,89.39-21.05,79.23-18.28,173.35-38.63,270.76-50.91,100.42-12.65,190-14.85,273.88-6.7a975.28,975.28,0,0,1,343.1,99.22L1641,2067a965.37,965.37,0,0,0-341.7-98.81c-171.75-16.69-341.43,10.93-543.35,57.53-29.79,6.88-60.08,14.08-89.37,21-146.41,34.82-297.81,70.83-450.24,80.88Q176.12,2130.31,137.13,2130.32Z"/><path d="M139.91,2171.68c-68.78,0-134.46-6.18-196.09-18.48-95.47-19.06-180.69-52.84-253.29-100.4l2.19-3.34C-135,2162.29,73.91,2174.59,218.83,2165.05c152.09-10,303.32-46,449.57-80.78,29.3-7,59.6-14.18,89.41-21.06,79.23-18.28,173.35-38.63,270.76-50.91,100.42-12.65,190-14.85,273.87-6.7a975.25,975.25,0,0,1,343.11,99.22l-1.8,3.57a965.1,965.1,0,0,0-341.7-98.81c-171.75-16.69-341.42,10.93-543.34,57.53-29.8,6.88-60.09,14.08-89.38,21C522.92,2123,371.52,2159,219.1,2169Q178.9,2171.68,139.91,2171.68Z"/><path d="M142.69,2213.05c-68.78,0-134.47-6.18-196.09-18.48-95.47-19.06-180.69-52.84-253.29-100.4l2.19-3.34C-132.23,2203.66,76.69,2216,221.61,2206.42c152.09-10,303.33-46,449.58-80.79,29.3-7,59.59-14.17,89.39-21.05,79.23-18.29,173.36-38.63,270.76-50.91,100.43-12.66,190-14.85,273.88-6.7a975.41,975.41,0,0,1,343.11,99.22l-1.8,3.57a965.1,965.1,0,0,0-341.7-98.81c-171.75-16.69-341.42,10.93-543.35,57.53-29.79,6.87-60.07,14.08-89.36,21-146.42,34.83-297.82,70.84-450.24,80.89Q181.68,2213.05,142.69,2213.05Z"/><path d="M145.46,2254.42c-68.78,0-134.46-6.18-196.08-18.48-95.47-19.06-180.69-52.84-253.3-100.4l2.19-3.35c172.28,112.84,381.2,125.14,526.12,115.59,152.09-10,303.31-46,449.56-80.78,29.3-7,59.6-14.17,89.41-21.05,79.23-18.29,173.35-38.63,270.76-50.91,100.42-12.66,190-14.85,273.88-6.7a975.41,975.41,0,0,1,343.11,99.22l-1.8,3.57a965.16,965.16,0,0,0-341.7-98.81c-171.76-16.69-341.43,10.93-543.35,57.53-29.8,6.87-60.09,14.08-89.38,21.05-146.41,34.82-297.81,70.83-450.23,80.88Q184.45,2254.42,145.46,2254.42Z"/><path d="M148.24,2295.79c-68.78,0-134.46-6.18-196.09-18.48-95.47-19.07-180.69-52.85-253.29-100.4l2.19-3.35c172.28,112.84,381.2,125.14,526.12,115.59,152.08-10,303.31-46,449.57-80.78,29.29-7,59.59-14.17,89.4-21,79.23-18.29,173.35-38.63,270.76-50.91,100.42-12.66,190-14.85,273.87-6.7a975.51,975.51,0,0,1,343.11,99.21l-1.79,3.58a965,965,0,0,0-341.7-98.81C1138.63,2117,969,2144.62,767,2191.22c-29.8,6.87-60.09,14.08-89.38,21-146.41,34.83-297.81,70.84-450.23,80.88Q187.23,2295.8,148.24,2295.79Z"/><path d="M151,2337.16c-68.78,0-134.47-6.18-196.09-18.49-95.47-19.06-180.69-52.84-253.29-100.39l2.19-3.35C-123.9,2327.77,85,2340.07,229.94,2330.52c152.09-10,303.32-46,449.58-80.78,29.29-7,59.59-14.18,89.4-21,79.22-18.29,173.35-38.64,270.75-50.91,100.43-12.66,190-14.85,273.88-6.7a975.68,975.68,0,0,1,343.11,99.21l-1.8,3.58a964.9,964.9,0,0,0-341.7-98.81c-171.75-16.69-341.42,10.92-543.34,57.52-29.8,6.88-60.09,14.08-89.38,21.05-146.41,34.83-297.81,70.84-450.23,80.88Q190,2337.17,151,2337.16Z"/><path d="M153.79,2378.53c-68.78,0-134.46-6.18-196.08-18.49C-137.76,2341-223,2307.2-295.59,2259.65l2.2-3.35c172.27,112.84,381.2,125.14,526.11,115.59,152.09-10,303.32-46,449.57-80.78,29.3-7,59.59-14.18,89.4-21.06,79.23-18.28,173.36-38.63,270.76-50.9,100.42-12.66,190-14.85,273.88-6.7a975.68,975.68,0,0,1,343.11,99.21l-1.8,3.58a965,965,0,0,0-341.7-98.81c-171.75-16.69-341.43,10.92-543.35,57.52-29.79,6.88-60.08,14.08-89.38,21.05-146.41,34.83-297.8,70.84-450.23,80.88Q192.78,2378.54,153.79,2378.53Z"/><path d="M156.57,2419.9c-68.78,0-134.46-6.18-196.08-18.49-95.48-19.06-180.7-52.84-253.3-100.39l2.19-3.35c172.28,112.84,381.2,125.14,526.12,115.59,152.08-10,303.32-46,449.57-80.78,29.3-7,59.59-14.18,89.4-21.06,79.23-18.28,173.35-38.63,270.76-50.91,100.42-12.65,190-14.84,273.87-6.69A975.51,975.51,0,0,1,1662.21,2353l-1.79,3.57a965.15,965.15,0,0,0-341.7-98.8c-171.76-16.7-341.43,10.92-543.35,57.52-29.8,6.88-60.09,14.08-89.38,21-146.41,34.82-297.81,70.84-450.23,80.88Q195.56,2419.9,156.57,2419.9Z"/><path d="M159.35,2461.27c-68.78,0-134.46-6.18-196.09-18.49-95.47-19.06-180.69-52.84-253.29-100.4l2.19-3.34c172.27,112.84,381.19,125.13,526.11,115.59,152.09-10,303.32-46,449.57-80.78,29.3-7,59.6-14.18,89.41-21.06,79.22-18.28,173.35-38.63,270.75-50.91,100.43-12.65,190-14.85,273.88-6.7A976,976,0,0,1,1665,2394.4l-1.8,3.57a965.31,965.31,0,0,0-341.7-98.81c-171.75-16.69-341.42,10.93-543.34,57.53-29.8,6.88-60.09,14.08-89.38,21-146.42,34.82-297.81,70.83-450.23,80.88Q198.34,2461.26,159.35,2461.27Z"/><path d="M162.12,2502.63c-68.77,0-134.46-6.17-196.08-18.48-95.47-19.06-180.69-52.84-253.3-100.4l2.2-3.34C-112.79,2493.24,96.12,2505.54,241.05,2496c152.09-10,303.32-46,449.57-80.78,29.3-7,59.59-14.18,89.4-21.06,79.23-18.28,173.35-38.63,270.76-50.91,100.43-12.66,190-14.85,273.88-6.7a975.41,975.41,0,0,1,343.11,99.22l-1.8,3.57a965.16,965.16,0,0,0-341.7-98.81c-171.76-16.69-341.43,10.93-543.35,57.53-29.79,6.88-60.08,14.08-89.38,21.05-146.41,34.82-297.8,70.83-450.23,80.88Q201.11,2502.63,162.12,2502.63Z"/><path d="M164.9,2544c-68.78,0-134.46-6.18-196.08-18.48-95.47-19.06-180.7-52.84-253.3-100.4l2.19-3.34C-110,2534.61,98.9,2546.91,243.83,2537.37c152.09-10,303.32-46,449.58-80.79,29.29-7,59.59-14.17,89.39-21,79.23-18.28,173.35-38.63,270.76-50.91,100.42-12.66,190-14.85,273.87-6.7a975.25,975.25,0,0,1,343.11,99.22l-1.79,3.57a965.16,965.16,0,0,0-341.7-98.81c-171.76-16.69-341.43,10.93-543.35,57.53-29.79,6.87-60.08,14.08-89.37,21-146.41,34.83-297.81,70.84-450.24,80.89Q203.89,2544,164.9,2544Z"/><path d="M167.67,2585.37c-68.77,0-134.45-6.18-196.08-18.48-95.47-19.06-180.69-52.84-253.29-100.4l2.19-3.35c172.27,112.84,381.2,125.14,526.11,115.59,152.09-10,303.32-46,449.57-80.78,29.3-7,59.6-14.17,89.41-21,79.22-18.29,173.35-38.63,270.75-50.91,100.43-12.66,190-14.85,273.88-6.7a975.41,975.41,0,0,1,343.11,99.22l-1.8,3.57a965.1,965.1,0,0,0-341.7-98.81c-171.74-16.69-341.42,10.93-543.34,57.53-29.8,6.87-60.09,14.08-89.38,21-146.41,34.83-297.81,70.84-450.23,80.88Q206.67,2585.38,167.67,2585.37Z"/><path d="M170.45,2626.74c-68.77,0-134.46-6.18-196.08-18.48-95.47-19.07-180.69-52.84-253.29-100.4l2.19-3.35c172.27,112.84,381.19,125.14,526.11,115.59,152.09-10,303.32-46,449.57-80.78,29.3-7,59.59-14.17,89.4-21.05,79.23-18.29,173.36-38.63,270.76-50.91,100.43-12.66,190-14.85,273.88-6.7a975.68,975.68,0,0,1,343.11,99.21l-1.8,3.58a964.9,964.9,0,0,0-341.7-98.81c-171.75-16.69-341.43,10.93-543.35,57.53-29.79,6.87-60.08,14.08-89.37,21-146.42,34.83-297.81,70.84-450.24,80.88Q209.44,2626.75,170.45,2626.74Z"/><path d="M173.23,2668.11c-68.78,0-134.46-6.18-196.08-18.48-95.47-19.07-180.69-52.85-253.3-100.4l2.19-3.35c172.28,112.84,381.19,125.14,526.12,115.59,152.09-10,303.31-46,449.57-80.78,29.3-7,59.59-14.17,89.4-21.05,79.23-18.29,173.35-38.64,270.76-50.91,100.42-12.66,190-14.85,273.87-6.7a975.51,975.51,0,0,1,343.11,99.21l-1.79,3.58a965,965,0,0,0-341.7-98.81C1163.63,2489.32,994,2516.93,792,2563.53c-29.8,6.88-60.09,14.08-89.38,21-146.41,34.83-297.81,70.84-450.23,80.88Q212.22,2668.12,173.23,2668.11Z"/><path d="M176,2709.48c-68.78,0-134.46-6.18-196.09-18.49-95.47-19.06-180.69-52.84-253.29-100.39l2.19-3.35C-98.9,2700.09,110,2712.39,254.93,2702.84c152.09-10,303.32-46,449.57-80.78,29.3-7,59.6-14.18,89.41-21,79.22-18.29,173.35-38.64,270.76-50.91,100.42-12.66,190-14.85,273.87-6.7a975.51,975.51,0,0,1,343.11,99.21l-1.8,3.58a964.84,964.84,0,0,0-341.7-98.81c-171.75-16.69-341.43,10.92-543.34,57.52-29.8,6.88-60.09,14.08-89.38,21-146.41,34.83-297.81,70.84-450.23,80.88Q215,2709.48,176,2709.48Z"/><path d="M178.78,2750.85c-68.77,0-134.46-6.18-196.08-18.49C-112.77,2713.3-198,2679.52-270.59,2632l2.19-3.34c172.27,112.84,381.19,125.14,526.11,115.59,152.09-10,303.33-46,449.58-80.78,29.3-7,59.59-14.18,89.39-21.06,79.23-18.28,173.36-38.63,270.76-50.91,100.43-12.65,190-14.84,273.88-6.7A976,976,0,0,1,1684.43,2684l-1.8,3.57a965.15,965.15,0,0,0-341.7-98.8c-171.75-16.69-341.42,10.92-543.35,57.52-29.79,6.88-60.07,14.08-89.36,21.05C561.8,2702.14,410.4,2738.15,258,2748.2Q217.79,2750.85,178.78,2750.85Z"/><path d="M181.56,2792.22c-68.78,0-134.46-6.18-196.08-18.49-95.47-19.06-180.69-52.84-253.3-100.4l2.19-3.34c172.28,112.84,381.2,125.14,526.12,115.59,152.09-10,303.31-46,449.56-80.78,29.3-7,59.6-14.18,89.41-21.06,79.23-18.28,173.35-38.63,270.76-50.91,100.42-12.65,190-14.85,273.87-6.7a975.94,975.94,0,0,1,343.12,99.22l-1.8,3.57a965.37,965.37,0,0,0-341.7-98.81c-171.76-16.69-341.43,10.93-543.35,57.53-29.79,6.88-60.09,14.08-89.38,21.05-146.41,34.82-297.81,70.83-450.23,80.88Q220.55,2792.21,181.56,2792.22Z"/><path d="M184.34,2833.58c-68.78,0-134.46-6.17-196.09-18.48C-107.22,2796-192.44,2762.26-265,2714.7l2.19-3.34C-90.57,2824.2,118.35,2836.5,263.26,2827c152.09-10,303.32-46,449.57-80.78,29.3-7,59.6-14.18,89.41-21.06,79.22-18.28,173.35-38.63,270.76-50.91,100.42-12.66,190-14.85,273.87-6.7A975.25,975.25,0,0,1,1690,2766.72l-1.8,3.57a965.11,965.11,0,0,0-341.69-98.81c-171.76-16.69-341.43,10.93-543.35,57.53-29.8,6.88-60.09,14.08-89.38,21-146.41,34.82-297.81,70.83-450.23,80.88Q223.33,2833.58,184.34,2833.58Z"/><path d="M187.12,2875c-68.78,0-134.47-6.18-196.09-18.48-95.47-19.06-180.69-52.84-253.29-100.4l2.19-3.34C-87.8,2865.56,121.12,2877.86,266,2868.32c152.09-10,303.32-46,449.57-80.78,29.3-7,59.6-14.18,89.41-21.06,79.22-18.28,173.35-38.63,270.75-50.91,100.43-12.66,190-14.85,273.88-6.7a975.41,975.41,0,0,1,343.11,99.22l-1.8,3.57a965.16,965.16,0,0,0-341.7-98.81c-171.75-16.69-341.42,10.93-543.34,57.53-29.8,6.87-60.09,14.08-89.39,21-146.41,34.82-297.8,70.83-450.23,80.88Q226.11,2875,187.12,2875Z"/><path d="M189.89,2916.32c-68.78,0-134.46-6.18-196.08-18.48-95.47-19.07-180.69-52.84-253.3-100.4l2.2-3.35C-85,2906.93,123.9,2919.23,268.82,2909.68c152.09-10,303.32-46,449.57-80.78,29.3-7,59.59-14.17,89.4-21.05,79.23-18.29,173.35-38.63,270.76-50.91,100.42-12.66,190-14.85,273.88-6.7a975.41,975.41,0,0,1,343.11,99.22l-1.8,3.57a965.16,965.16,0,0,0-341.7-98.81c-171.76-16.69-341.43,10.93-543.35,57.53-29.79,6.87-60.08,14.08-89.38,21-146.41,34.83-297.8,70.84-450.23,80.88Q228.88,2916.33,189.89,2916.32Z"/><path d="M192.67,2957.69c-68.78,0-134.46-6.18-196.09-18.48-95.47-19.07-180.69-52.85-253.29-100.4l2.19-3.35c172.27,112.84,381.2,125.14,526.12,115.59,152.09-10,303.32-46,449.57-80.78,29.3-7,59.59-14.17,89.4-21.05,79.23-18.29,173.35-38.63,270.76-50.91,100.42-12.66,190-14.85,273.87-6.7a975.51,975.51,0,0,1,343.11,99.21l-1.79,3.58a965,965,0,0,0-341.7-98.81c-171.76-16.69-341.43,10.92-543.35,57.53-29.79,6.87-60.08,14.07-89.37,21C575.68,2909,424.29,2945,271.86,2955Q231.66,2957.7,192.67,2957.69Z"/><path d="M195.44,2999.06c-68.78,0-134.45-6.18-196.08-18.48-95.47-19.07-180.69-52.85-253.29-100.4l2.19-3.35c172.27,112.84,381.2,125.14,526.11,115.59,152.09-10,303.32-46,449.57-80.78,29.3-7,59.6-14.17,89.41-21,79.22-18.29,173.35-38.63,270.75-50.91,100.43-12.66,190-14.85,273.88-6.7a975.68,975.68,0,0,1,343.11,99.21l-1.8,3.58a964.9,964.9,0,0,0-341.7-98.81c-171.75-16.69-341.42,10.92-543.34,57.52-29.8,6.88-60.09,14.08-89.38,21.05-146.41,34.83-297.81,70.84-450.23,80.88Q234.44,2999.06,195.44,2999.06Z"/></g></svg>