<?xml version="1.0" encoding="utf-8"?>
<!-- Generator: Adobe Illustrator 23.0.1, SVG Export Plug-In . SVG Version: 6.00 Build 0)  -->
<svg version="1.1" id="Layer_1" xmlns="http://www.w3.org/2000/svg" xmlns:xlink="http://www.w3.org/1999/xlink" x="0px" y="0px"
	 viewBox="0 0 1354 306" style="enable-background:new 0 0 1354 306;" xml:space="preserve">
<style type="text/css">
	.st0{fill:none;}
	.st1{fill:#FFFFFF;}
	.st2{fill:url(#SVGID_1_);}
</style>
<pattern  x="-6" y="-107" width="30" height="30" patternUnits="userSpaceOnUse" id="New_Pattern_3" viewBox="0 -30 30 30" style="overflow:visible;">
	<g>
		<rect y="-30" class="st0" width="30" height="30"/>
		<path d="M7.58-6.15c0,0.57,0.12,0.7,0.67,0.7c2.12,0,4.25,0,6.37,0.01c0.37,0,0.56-0.15,0.69-0.48c1.05-2.7,2.12-5.39,3.17-8.09
			c0.19-0.5,0.13-0.65-0.35-0.88c-3.23-1.54-6.46-3.07-9.7-4.61c-0.6-0.29-0.86-0.12-0.86,0.56c0,2.12,0,4.25,0,6.37
			C7.58-10.42,7.58-8.29,7.58-6.15z M15.29-8.39c-0.23,0.58-0.44,1.16-0.69,1.72c-0.05,0.13-0.22,0.28-0.34,0.29
			c-1.86,0.02-3.72,0.01-5.58,0c-0.04,0-0.09-0.03-0.15-0.05c0-3.97,0-7.95,0-12c3.02,1.43,5.99,2.85,9.02,4.28
			C16.78-12.19,16.03-10.29,15.29-8.39z"/>
		<path class="st1" d="M8.53-18.43c0,4.05,0,8.03,0,12c0.06,0.02,0.1,0.05,0.15,0.05c1.86,0,3.72,0.01,5.58,0
			c0.12,0,0.29-0.16,0.34-0.29c0.25-0.57,0.46-1.15,0.69-1.72c0.75-1.9,1.49-3.8,2.26-5.76C14.52-15.59,11.55-17,8.53-18.43z
			 M9.89-16.23c0.38,0.17,0.74,0.31,1.07,0.5c0.1,0.06,0.15,0.25,0.16,0.38c0.01,0.93,0.02,1.86,0,2.79c0,0.28,0.07,0.41,0.35,0.49
			c0.7,0.19,1.39,0.42,2.14,0.66c0.34-0.86,0.66-1.71,1.01-2.6c0.38,0.18,0.74,0.34,1.14,0.53c-0.12,0.33-0.23,0.63-0.35,0.93
			c-0.57,1.49-1.16,2.97-1.71,4.47c-0.13,0.35-0.29,0.5-0.67,0.45c-0.26-0.03-0.52-0.01-0.86-0.01c0.33-0.88,0.65-1.71,0.97-2.57
			c-0.67-0.21-1.31-0.4-2-0.62c0,1.07,0,2.09,0,3.16c-0.45,0-0.84,0-1.26,0C9.89-10.51,9.89-13.34,9.89-16.23z"/>
		<path d="M9.89-7.68c0-2.83,0-5.66,0-8.55c0.38,0.17,0.74,0.31,1.07,0.5c0.1,0.06,0.15,0.25,0.16,0.38c0.01,0.93,0.02,1.86,0,2.79
			c0,0.28,0.07,0.41,0.35,0.49c0.7,0.19,1.39,0.42,2.14,0.66c0.34-0.86,0.66-1.71,1.01-2.6c0.38,0.18,0.74,0.34,1.14,0.53
			c-0.12,0.33-0.23,0.63-0.35,0.93c-0.57,1.49-1.16,2.97-1.71,4.47c-0.13,0.35-0.29,0.5-0.67,0.45c-0.26-0.03-0.52-0.01-0.86-0.01
			c0.33-0.88,0.65-1.71,0.97-2.57c-0.67-0.21-1.31-0.4-2-0.62c0,1.07,0,2.09,0,3.16C10.7-7.68,10.31-7.68,9.89-7.68z"/>
	</g>
</pattern>
<pattern  id="SVGID_1_" xlink:href="#New_Pattern_3" patternTransform="matrix(1 0 0 1 0 -14)">
</pattern>
<rect y="0.5" class="st2" width="1354" height="306"/>
</svg>
