<?xml version="1.0" encoding="utf-8"?>
<!-- Generator: Adobe Illustrator 23.0.2, SVG Export Plug-In . SVG Version: 6.00 Build 0)  -->
<svg version="1.1" id="Layer_1" xmlns="http://www.w3.org/2000/svg" xmlns:xlink="http://www.w3.org/1999/xlink" x="0px" y="0px"
	 viewBox="0 0 363 1277.6" style="enable-background:new 0 0 363 1277.6;" xml:space="preserve">
<style type="text/css">
	.st0{fill:none;}
	.st1{fill:#FFFFFF;}
	.st2{fill:url(#New_Pattern);}
	.st3{fill:url(#SVGID_1_);}
	.st4{fill:url(#SVGID_2_);}
</style>
<pattern  y="1277.6" width="184.3" height="170.1" patternUnits="userSpaceOnUse" id="New_Pattern" viewBox="1 -170.1 184.3 170.1" style="overflow:visible;">
	<g>
		<rect x="1" y="-170.1" class="st0" width="184.3" height="170.1"/>
		<g>
			<g>
				<path d="M211.5-26.6c-0.6,2.2-2.2,3.5-4.4,3.9c-0.1,0-0.3,0-0.3,0.1c-0.1,0-0.2-0.1-0.4-0.2c-1.3,3.1-4.4,5.3-8,5.3
					c-3.5,0-6.6-2.2-7.9-5.2v0.1c0,0-0.1-0.1-0.1-0.2c-0.7-0.2-1.3-0.3-1.7-0.6c-1.1-0.7-1.7-1.8-2-3.1c-0.2-0.9-0.3-1.8-0.5-2.6
					c-0.3-1.2-0.9-2.3-1.9-3.1c0,0-0.1-0.1-0.2-0.3c0.8-0.2,1.4-0.4,2.1-0.4c0.3,0,0.7,0.2,0.9,0.4c0.4,0.5,0.8,1,1.2,1.6
					c0.4,0.5,0.7,0.9,1.1,1.4c0.4,0.5,0.7,0.6,1,0.3c0.4-0.9,0.9-1.8,1.5-2.5h13c0.4,0.5,0.9,1.1,1.2,1.7V-30c0.2,0,0.3-0.1,0.4-0.2
					c0.4-0.3,0.7-0.6,1.1-0.9c1.2-0.9,2.3-0.6,3.2,0.5C211.9-29.4,211.9-28,211.5-26.6z M210.9-29c-0.1-0.4-0.3-0.9-0.6-1.2
					c-0.6-0.7-1.8-0.7-2.2,0.1c-0.4,0.6-0.7,1.5-0.6,2.2c0.2,1.3,0.4,2.6,0.2,4.1c0.5-0.2,0.9-0.3,1.2-0.4
					C210.4-25.2,211.4-27.3,210.9-29z"/>
			</g>
			<path d="M165.3-25.3c0,0.4-0.2,0.8-0.3,1.2c-0.1,0.4-0.3,0.8-0.4,1.2c-0.3,0.8-0.7,1.5-1.3,2.2c-0.1,0.2-0.3,0.4-0.5,0.5
				c-0.2,0.1-0.4,0.3-0.6,0.4c-0.1,0-0.3,0-0.4,0.1c-0.2,0-0.3,0-0.4,0c-0.3-0.1-0.5-0.2-0.7-0.4c0,0-0.1-0.1-0.1-0.1v2.3
				c0,0.5-0.4,0.9-0.9,0.9h-11c-0.5,0-0.9-0.4-0.9-0.9v-14.4c0-0.5,0.4-0.9,0.9-0.9h11c0.5,0,0.9,0.4,0.9,0.9v3.1
				c0.3-0.3,0.5-0.5,0.8-0.7c0.4-0.3,0.7-0.5,1.2-0.6c0.1,0,0.2-0.1,0.4-0.1c0.1,0,0.3,0,0.4,0c0.3,0,0.5,0,0.8,0.2
				c0.2,0.1,0.4,0.3,0.6,0.5s0.3,0.4,0.4,0.7c0.2,0.4,0.3,0.9,0.3,1.3C165.4-27.1,165.4-26.2,165.3-25.3z M163.9-27.9
				c0-0.3,0-0.7-0.1-0.9c0-0.1-0.1-0.3-0.1-0.4c-0.1-0.1-0.1-0.2-0.2-0.3c-0.1-0.1-0.4-0.2-0.7-0.1c-0.3,0-0.6,0.1-1,0.3
				c-0.4,0.2-0.8,0.4-1.2,0.6v7.4c0.2,0.2,0.4,0.3,0.5,0.4c0.1,0.1,0.3,0.1,0.4,0.1c0.1,0,0.2,0,0.3-0.1c0.2-0.1,0.4-0.4,0.6-0.7
				c0.4-0.5,0.6-1.3,0.9-1.9c0.2-0.7,0.4-1.4,0.5-2.2c0-0.4,0.1-0.7,0.1-1.1C163.9-27.1,163.9-27.5,163.9-27.9z"/>
			<path d="M114.5-24c-0.4,1.6-1.2,3.1-1.9,4.5c-0.4,0.8-0.9,1.6-1.3,2.4c-0.1,0.2-0.4,0.3-0.7,0.3c-0.9,0-1.8,0-2.6,0
				c-0.4,0-0.8-0.1-1-0.5c-0.8-1.7-1.7-3.4-2.5-5.1c-0.4-1-0.7-2.1-0.7-3.2c0-1,0.4-1.8,1.1-2.5c0.5-0.5,1-0.9,1.7-1.3
				c0,0,0,0,0.1-0.1c0,0,0,0-0.1,0c-0.3-0.5-0.6-1-0.8-1.6c-0.3-1.2,0.1-2.6,1.2-3.4c0.6-0.4,1.3-0.7,2.1-0.8c0.2,0,0.3,0,0.5,0
				c0.2,0,0.4,0,0.5-0.2c1.1-1.6,2.2-3.2,3.3-4.8c0.1-0.1,0.1-0.2,0.2-0.3c0.6,0.2,0.6,0.2,0.4,0.8c-0.4,1.2-0.9,2.3-1.4,3.5
				c-0.3,0.6-0.5,1.2-0.8,1.8c0,0.1,0,0.3,0.1,0.4c0.4,0.5,0.8,1.1,0.9,1.8c0.1,0.9-0.1,1.8-0.6,2.6c0,0,0,0.1-0.1,0.1
				c0,0,0,0,0,0.1c0.6,0.2,1.2,0.6,1.6,1.1C114.7-27.1,115-25.7,114.5-24z M111.4-31.4c-0.3-0.6-0.5-1.2-0.8-1.8
				c0-0.1-0.2-0.1-0.2-0.1c-0.1,0.1-0.4,0.3-0.4,0.5c0,0.3,0,0.6,0.1,0.9C110.2-31.3,110.9-31,111.4-31.4z"/>
			<path d="M68.8-23.5c0,3-1.3,5.5-3.2,6.7h-4.8c-1.9-1.2-3.2-3.7-3.2-6.6c0-3.1,1.5-5.7,3.5-6.8l-1.2-3.3h6.6l-1.2,3.3
				C67.4-29.2,68.8-26.6,68.8-23.5z"/>
		</g>
		<g>
			<g>
				<path d="M7.9-31.9c1.6-1.6,3.8-2.6,6.4-2.6s4.8,1,6.4,2.6C20.6-31.9,7.9-31.9,7.9-31.9z"/>
				<path d="M27.2-26.6c-0.6,2.2-2.2,3.5-4.4,3.9c-0.1,0-0.3,0-0.3,0.1c-0.1,0-0.2-0.1-0.4-0.2c-1.3,3.1-4.4,5.3-8,5.3
					c-3.5,0-6.6-2.2-7.9-5.2v0.1c0,0-0.1-0.1-0.1-0.2C5.5-23,5-23,4.6-23.3c-1.1-0.7-1.7-1.8-2-3.1c-0.2-0.9-0.3-1.8-0.5-2.6
					c-0.3-1.2-0.9-2.3-1.9-3.1c0,0-0.1-0.1-0.2-0.3c0.8-0.2,1.4-0.4,2.1-0.4c0.3,0,0.7,0.2,0.9,0.4c0.4,0.5,0.8,1,1.2,1.6
					c0.4,0.5,0.7,0.9,1.1,1.4c0.4,0.5,0.7,0.6,1,0.3c0.4-0.9,0.9-1.8,1.5-2.5h13c0.4,0.5,0.9,1.1,1.2,1.7V-30c0.2,0,0.3-0.1,0.4-0.2
					c0.4-0.3,0.7-0.6,1.1-0.9c1.2-0.9,2.3-0.6,3.2,0.5C27.6-29.4,27.7-28,27.2-26.6z M26.6-29c-0.1-0.4-0.3-0.9-0.6-1.2
					c-0.6-0.7-1.8-0.7-2.2,0.1c-0.4,0.6-0.7,1.5-0.6,2.2c0.2,1.3,0.4,2.6,0.2,4.1c0.5-0.2,0.9-0.3,1.2-0.4
					C26.2-25.2,27.1-27.3,26.6-29z"/>
				<circle cx="14.2" cy="-35.2" r="0.9"/>
			</g>
		</g>
		<g>
			<g>
				<path d="M146.1-74.4c1.6-1.6,3.8-2.6,6.4-2.6c2.6,0,4.8,1,6.4,2.6C158.8-74.4,146.1-74.4,146.1-74.4z"/>
				<path d="M165.4-69.2c-0.6,2.2-2.2,3.5-4.4,3.9c-0.1,0-0.3,0-0.3,0.1c-0.1,0-0.2-0.1-0.4-0.2c-1.3,3.1-4.4,5.3-8,5.3
					c-3.5,0-6.6-2.2-7.9-5.2v0.1c0,0-0.1-0.1-0.1-0.2c-0.7-0.2-1.3-0.3-1.7-0.6c-1.1-0.7-1.7-1.8-2-3.1c-0.2-0.9-0.3-1.8-0.5-2.6
					c-0.3-1.2-0.9-2.3-1.9-3.1c0,0-0.1-0.1-0.2-0.3c0.8-0.2,1.4-0.4,2.1-0.4c0.3,0,0.7,0.2,0.9,0.4c0.4,0.5,0.8,1,1.2,1.6
					c0.4,0.5,0.7,0.9,1.1,1.4c0.4,0.5,0.7,0.6,1,0.3c0.4-0.9,0.9-1.8,1.5-2.5h13c0.4,0.5,0.9,1.1,1.2,1.7v-0.1
					c0.2,0,0.3-0.1,0.4-0.2c0.4-0.3,0.7-0.6,1.1-0.9c1.2-0.9,2.3-0.6,3.2,0.5C165.8-71.9,165.9-70.5,165.4-69.2z M164.8-71.5
					c-0.1-0.4-0.3-0.9-0.6-1.2c-0.6-0.7-1.8-0.7-2.2,0.1c-0.4,0.6-0.7,1.5-0.6,2.2c0.2,1.3,0.4,2.6,0.2,4.1c0.5-0.2,0.9-0.3,1.2-0.4
					C164.4-67.7,165.3-69.8,164.8-71.5z"/>
				<circle cx="152.4" cy="-77.8" r="0.9"/>
			</g>
			<path d="M119.2-67.8c0,0.4-0.2,0.8-0.3,1.2c-0.1,0.4-0.3,0.8-0.4,1.2c-0.3,0.8-0.7,1.5-1.3,2.2c-0.1,0.2-0.3,0.4-0.5,0.5
				c-0.2,0.1-0.4,0.3-0.6,0.4c-0.1,0-0.3,0-0.4,0.1c-0.2,0-0.3,0-0.4,0c-0.3-0.1-0.5-0.2-0.7-0.4c0,0-0.1-0.1-0.1-0.1v2.3
				c0,0.5-0.4,0.9-0.9,0.9h-11c-0.5,0-0.9-0.4-0.9-0.9v-14.4c0-0.5,0.4-0.9,0.9-0.9h11c0.5,0,0.9,0.4,0.9,0.9v3.1
				c0.3-0.3,0.5-0.5,0.8-0.7c0.4-0.3,0.7-0.5,1.2-0.6c0.1,0,0.2-0.1,0.4-0.1c0.1,0,0.3,0,0.4,0c0.3,0,0.5,0,0.8,0.2
				c0.2,0.1,0.4,0.3,0.6,0.5c0.2,0.2,0.3,0.4,0.4,0.7c0.2,0.4,0.3,0.9,0.3,1.3C119.4-69.6,119.3-68.8,119.2-67.8z M117.8-70.4
				c0-0.3,0-0.7-0.1-0.9c0-0.1-0.1-0.3-0.1-0.4c-0.1-0.1-0.1-0.2-0.2-0.3c-0.1-0.1-0.4-0.2-0.7-0.1c-0.3,0-0.6,0.1-1,0.3
				c-0.4,0.2-0.8,0.4-1.2,0.6v7.4c0.2,0.2,0.4,0.3,0.5,0.4c0.1,0.1,0.3,0.1,0.4,0.1s0.2,0,0.3-0.1c0.2-0.1,0.4-0.4,0.6-0.7
				c0.4-0.5,0.6-1.3,0.9-1.9c0.2-0.7,0.4-1.4,0.5-2.2c0-0.4,0.1-0.7,0.1-1.1C117.8-69.7,117.8-70,117.8-70.4z"/>
			<path d="M68.4-66.5c-0.4,1.6-1.2,3.1-1.9,4.5c-0.4,0.8-0.9,1.6-1.3,2.4c-0.1,0.2-0.4,0.3-0.7,0.3c-0.9,0-1.8,0-2.6,0
				c-0.4,0-0.8-0.1-1-0.5c-0.8-1.7-1.7-3.4-2.5-5.1c-0.4-1-0.7-2.1-0.7-3.2c0-1,0.4-1.8,1.1-2.5c0.5-0.5,1-0.9,1.7-1.3
				c0,0,0,0,0.1-0.1c0,0,0,0-0.1,0c-0.3-0.5-0.6-1-0.8-1.6c-0.3-1.2,0.1-2.6,1.2-3.4c0.6-0.4,1.3-0.7,2.1-0.8c0.2,0,0.3,0,0.5,0
				c0.2,0,0.4,0,0.5-0.2c1.1-1.6,2.2-3.2,3.3-4.8c0.1-0.1,0.1-0.2,0.2-0.3c0.6,0.2,0.6,0.2,0.4,0.8c-0.4,1.2-0.9,2.3-1.4,3.5
				c-0.3,0.6-0.5,1.2-0.8,1.8c0,0.1,0,0.3,0.1,0.4c0.4,0.5,0.8,1.1,0.9,1.8c0.1,0.9-0.1,1.8-0.6,2.6c0,0,0,0.1-0.1,0.1
				c0,0,0,0,0,0.1c0.6,0.2,1.2,0.6,1.6,1.1C68.6-69.6,68.9-68.2,68.4-66.5z M65.3-73.9c-0.3-0.6-0.5-1.2-0.8-1.8
				c0-0.1-0.2-0.1-0.2-0.1c-0.1,0.1-0.4,0.3-0.4,0.5c0,0.3,0,0.6,0.1,0.9C64.2-73.8,64.8-73.5,65.3-73.9z"/>
			<path d="M22.7-66c0,3-1.3,5.5-3.2,6.7h-4.8c-1.9-1.2-3.2-3.7-3.2-6.6c0-3.1,1.5-5.7,3.5-6.8l-1.2-3.3h6.6l-1.2,3.3
				C21.3-71.7,22.8-69.1,22.7-66z"/>
		</g>
		<g>
			<path d="M160.9-108.6c0,3-1.3,5.5-3.2,6.7h-4.8c-1.9-1.2-3.2-3.7-3.2-6.6c0-3.1,1.5-5.7,3.5-6.8l-1.2-3.3h6.6l-1.2,3.3
				C159.5-114.2,161-111.6,160.9-108.6z"/>
		</g>
		<g>
			<g>
				<path d="M100-116.9c1.6-1.6,3.8-2.6,6.4-2.6c2.6,0,4.8,1,6.4,2.6C112.8-116.9,100-116.9,100-116.9z"/>
				<path d="M119.4-111.7c-0.6,2.2-2.2,3.5-4.4,3.9c-0.1,0-0.3,0-0.3,0.1c-0.1,0-0.2-0.1-0.4-0.2c-1.3,3.1-4.4,5.3-8,5.3
					c-3.5,0-6.6-2.2-7.9-5.2v0.1c0,0-0.1-0.1-0.1-0.2c-0.7-0.2-1.3-0.3-1.7-0.6c-1.1-0.7-1.7-1.8-2-3.1c-0.2-0.9-0.3-1.8-0.5-2.6
					c-0.3-1.2-0.9-2.3-1.9-3.1c0,0-0.1-0.1-0.2-0.3c0.8-0.2,1.4-0.4,2.1-0.4c0.3,0,0.7,0.2,0.9,0.4c0.4,0.5,0.8,1,1.2,1.6
					c0.4,0.5,0.7,0.9,1.1,1.4c0.4,0.5,0.7,0.6,1,0.3c0.4-0.9,0.9-1.8,1.5-2.5h13c0.4,0.5,0.9,1.1,1.2,1.7v-0.1
					c0.2,0,0.3-0.1,0.4-0.2c0.4-0.3,0.7-0.6,1.1-0.9c1.2-0.9,2.3-0.6,3.2,0.5C119.8-114.4,119.8-113,119.4-111.7z M118.7-114
					c-0.1-0.4-0.3-0.9-0.6-1.2c-0.6-0.7-1.8-0.7-2.2,0.1c-0.4,0.6-0.7,1.5-0.6,2.2c0.2,1.3,0.4,2.6,0.2,4.1c0.5-0.2,0.9-0.3,1.2-0.4
					C118.3-110.2,119.2-112.3,118.7-114z"/>
				<circle cx="106.4" cy="-120.3" r="0.9"/>
			</g>
			<path d="M73.1-110.3c0,0.4-0.2,0.8-0.3,1.2c-0.1,0.4-0.3,0.8-0.4,1.2c-0.3,0.8-0.7,1.5-1.3,2.2c-0.1,0.2-0.3,0.4-0.5,0.5
				c-0.2,0.1-0.4,0.3-0.6,0.4c-0.1,0-0.3,0-0.4,0.1c-0.2,0-0.3,0-0.4,0c-0.3-0.1-0.5-0.2-0.7-0.4c0,0-0.1-0.1-0.1-0.1v2.3
				c0,0.5-0.4,0.9-0.9,0.9h-11c-0.5,0-0.9-0.4-0.9-0.9v-14.4c0-0.5,0.4-0.9,0.9-0.9h11c0.5,0,0.9,0.4,0.9,0.9v3.1
				c0.3-0.3,0.5-0.5,0.8-0.7c0.4-0.3,0.7-0.5,1.2-0.6c0.1,0,0.2-0.1,0.4-0.1c0.1,0,0.3,0,0.4,0c0.3,0,0.5,0,0.8,0.2
				c0.2,0.1,0.4,0.3,0.6,0.5c0.2,0.2,0.3,0.4,0.4,0.7c0.2,0.4,0.3,0.9,0.3,1.3C73.3-112.1,73.3-111.3,73.1-110.3z M71.8-112.9
				c0-0.3,0-0.7-0.1-0.9c0-0.1-0.1-0.3-0.1-0.4c-0.1-0.1-0.1-0.2-0.2-0.3c-0.1-0.1-0.4-0.2-0.7-0.1c-0.3,0-0.6,0.1-1,0.3
				c-0.4,0.2-0.8,0.4-1.2,0.6v7.4c0.2,0.2,0.4,0.3,0.5,0.4c0.1,0.1,0.3,0.1,0.4,0.1s0.2,0,0.3-0.1c0.2-0.1,0.4-0.4,0.6-0.7
				c0.4-0.5,0.6-1.3,0.9-1.9c0.2-0.7,0.4-1.4,0.5-2.2c0-0.4,0.1-0.7,0.1-1.1C71.8-112.2,71.8-112.5,71.8-112.9z"/>
			<path d="M22.3-109.1c-0.4,1.6-1.2,3.1-1.9,4.5c-0.4,0.8-0.9,1.6-1.3,2.4c-0.1,0.2-0.4,0.3-0.7,0.3c-0.9,0-1.8,0-2.6,0
				c-0.4,0-0.8-0.1-1-0.5c-0.8-1.7-1.7-3.4-2.5-5.1c-0.4-1-0.7-2.1-0.7-3.2c0-1,0.4-1.8,1.1-2.5c0.5-0.5,1-0.9,1.7-1.3
				c0,0,0,0,0.1-0.1c0,0,0,0-0.1,0c-0.3-0.5-0.6-1-0.8-1.6c-0.3-1.2,0.1-2.6,1.2-3.4c0.6-0.4,1.3-0.7,2.1-0.8c0.2,0,0.3,0,0.5,0
				c0.2,0,0.4,0,0.5-0.2c1.1-1.6,2.2-3.2,3.3-4.8c0.1-0.1,0.1-0.2,0.2-0.3c0.6,0.2,0.6,0.2,0.4,0.8c-0.4,1.2-0.9,2.3-1.4,3.5
				c-0.3,0.6-0.5,1.2-0.8,1.8c0,0.1,0,0.3,0.1,0.4c0.4,0.5,0.8,1.1,0.9,1.8c0.1,0.9-0.1,1.8-0.6,2.6c0,0,0,0.1-0.1,0.1
				c0,0,0,0,0,0.1c0.6,0.2,1.2,0.6,1.6,1.1C22.6-112.1,22.9-110.7,22.3-109.1z M19.2-116.5c-0.3-0.6-0.5-1.2-0.8-1.8
				c0-0.1-0.2-0.1-0.2-0.1c-0.1,0.1-0.4,0.3-0.4,0.5c0,0.3,0,0.6,0.1,0.9C18.1-116.4,18.8-116.1,19.2-116.5z"/>
		</g>
		<g>
			<path d="M160.5-151.6c-0.4,1.6-1.2,3.1-1.9,4.5c-0.4,0.8-0.9,1.6-1.3,2.4c-0.1,0.2-0.4,0.3-0.7,0.3c-0.9,0-1.8,0-2.6,0
				c-0.4,0-0.8-0.1-1-0.5c-0.8-1.7-1.7-3.4-2.5-5.1c-0.4-1-0.7-2.1-0.7-3.2c0-1,0.4-1.8,1.1-2.5c0.5-0.5,1-0.9,1.7-1.3
				c0,0,0,0,0.1-0.1c0,0,0,0-0.1,0c-0.3-0.5-0.6-1-0.8-1.6c-0.3-1.2,0.1-2.6,1.2-3.4c0.6-0.4,1.3-0.7,2.1-0.8c0.2,0,0.3,0,0.5,0
				c0.2,0,0.4,0,0.5-0.2c1.1-1.6,2.2-3.2,3.3-4.8c0.1-0.1,0.1-0.2,0.2-0.3c0.6,0.2,0.6,0.2,0.4,0.8c-0.4,1.2-0.9,2.3-1.4,3.5
				c-0.3,0.6-0.5,1.2-0.8,1.8c0,0.1,0,0.3,0.1,0.4c0.4,0.5,0.8,1.1,0.9,1.8c0.1,0.9-0.1,1.8-0.6,2.6c0,0,0,0.1-0.1,0.1
				c0,0,0,0,0,0.1c0.6,0.2,1.2,0.6,1.6,1.1C160.7-154.7,161.1-153.2,160.5-151.6z M157.4-159c-0.3-0.6-0.5-1.2-0.8-1.8
				c0-0.1-0.2-0.1-0.2-0.1c-0.1,0.1-0.4,0.3-0.4,0.5c0,0.3,0,0.6,0.1,0.9C156.3-158.9,157-158.6,157.4-159z"/>
			<path d="M114.9-151.1c0,3-1.3,5.5-3.2,6.7h-4.8c-1.9-1.2-3.2-3.7-3.2-6.6c0-3.1,1.5-5.7,3.5-6.8l-1.2-3.3h6.6l-1.2,3.3
				C113.4-156.7,114.9-154.1,114.9-151.1z"/>
		</g>
		<g>
			<g>
				<path d="M54-159.4c1.6-1.6,3.8-2.6,6.4-2.6c2.6,0,4.8,1,6.4,2.6C66.7-159.4,54-159.4,54-159.4z"/>
				<path d="M73.3-154.2c-0.6,2.2-2.2,3.5-4.4,3.9c-0.1,0-0.3,0-0.3,0.1c-0.1,0-0.2-0.1-0.4-0.2c-1.3,3.1-4.4,5.3-8,5.3
					c-3.5,0-6.6-2.2-7.9-5.2v0.1c0,0-0.1-0.1-0.1-0.2c-0.7-0.2-1.3-0.3-1.7-0.6c-1.1-0.7-1.7-1.8-2-3.1c-0.2-0.9-0.3-1.8-0.5-2.6
					c-0.3-1.2-0.9-2.3-1.9-3.1c0,0-0.1-0.1-0.2-0.3c0.8-0.2,1.4-0.4,2.1-0.4c0.3,0,0.7,0.2,0.9,0.4c0.4,0.5,0.8,1,1.2,1.6
					c0.4,0.5,0.7,0.9,1.1,1.4c0.4,0.5,0.7,0.6,1,0.3c0.4-0.9,0.9-1.8,1.5-2.5h13c0.4,0.5,0.9,1.1,1.2,1.7v-0.1
					c0.2,0,0.3-0.1,0.4-0.2c0.4-0.3,0.7-0.6,1.1-0.9c1.2-0.9,2.3-0.6,3.2,0.5C73.7-156.9,73.8-155.5,73.3-154.2z M72.7-156.5
					c-0.1-0.4-0.3-0.9-0.6-1.2c-0.6-0.7-1.8-0.7-2.2,0.1c-0.4,0.6-0.7,1.5-0.6,2.2c0.2,1.3,0.4,2.6,0.2,4.1c0.5-0.2,0.9-0.3,1.2-0.4
					C72.2-152.7,73.2-154.9,72.7-156.5z"/>
				<circle cx="60.3" cy="-162.8" r="0.9"/>
			</g>
			<path d="M27.1-152.9c0,0.4-0.2,0.8-0.3,1.2c-0.1,0.4-0.3,0.8-0.4,1.2c-0.3,0.8-0.7,1.5-1.3,2.2c-0.1,0.2-0.3,0.4-0.5,0.5
				c-0.2,0.1-0.4,0.3-0.6,0.4c-0.1,0-0.3,0-0.4,0.1c-0.2,0-0.3,0-0.4,0c-0.3-0.1-0.5-0.2-0.7-0.4c0,0-0.1-0.1-0.1-0.1v2.3
				c0,0.5-0.4,0.9-0.9,0.9h-11c-0.5,0-0.9-0.4-0.9-0.9v-14.4c0-0.5,0.4-0.9,0.9-0.9h11c0.5,0,0.9,0.4,0.9,0.9v3.1
				c0.3-0.3,0.5-0.5,0.8-0.7c0.4-0.3,0.7-0.5,1.2-0.6c0.1,0,0.2-0.1,0.4-0.1c0.1,0,0.3,0,0.4,0c0.3,0,0.5,0,0.8,0.2
				c0.2,0.1,0.4,0.3,0.6,0.5c0.2,0.2,0.3,0.4,0.4,0.7c0.2,0.4,0.3,0.9,0.3,1.3C27.2-154.7,27.2-153.8,27.1-152.9z M25.7-155.4
				c0-0.3,0-0.7-0.1-0.9c0-0.1-0.1-0.3-0.1-0.4c-0.1-0.1-0.1-0.2-0.2-0.3c-0.1-0.1-0.4-0.2-0.7-0.1c-0.3,0-0.6,0.1-1,0.3
				c-0.4,0.2-0.8,0.4-1.2,0.6v7.4c0.2,0.2,0.4,0.3,0.5,0.4c0.1,0.1,0.3,0.1,0.4,0.1s0.2,0,0.3-0.1c0.2-0.1,0.4-0.4,0.6-0.7
				c0.4-0.5,0.6-1.3,0.9-1.9c0.2-0.7,0.4-1.4,0.5-2.2c0-0.4,0.1-0.7,0.1-1.1C25.7-154.7,25.7-155.1,25.7-155.4z"/>
		</g>
	</g>
</pattern>
<g>
	<path d="M745.4-124.5c-3.4-3.5-8.3-5.8-13.9-5.8c-5.6,0-10.5,2.2-13.9,5.8C717.6-124.5,745.4-124.5,745.4-124.5z"/>
	<path d="M758.5-121.7c-1.9-2.4-4.4-2.9-6.9-1.1c-0.9,0.6-1.6,1.4-2.4,2c-0.3,0.2-0.6,0.4-1,0.4v0.2c-0.7-1.3-1.6-2.5-2.5-3.7h-28.3
		c-1.4,1.6-2.5,3.4-3.3,5.4c-0.6,0.7-1.2,0.5-2.2-0.6c-0.9-1-1.6-2-2.3-3c-0.9-1.2-1.6-2.3-2.5-3.4c-0.5-0.5-1.4-0.9-2-0.9
		c-1.5,0.2-2.9,0.6-4.6,1c0.2,0.3,0.3,0.5,0.4,0.6c2.3,1.8,3.5,4.2,4.2,6.8c0.5,1.9,0.7,3.8,1.1,5.7c0.6,2.7,2,5.1,4.3,6.7
		c0.9,0.6,2.1,0.8,3.6,1.3c0,0.1,0.1,0.3,0.2,0.4v-0.2c2.8,6.7,9.5,11.3,17.2,11.3c7.8,0,14.6-4.8,17.4-11.6
		c0.3,0.2,0.5,0.4,0.8,0.5c0.1-0.2,0.4-0.3,0.7-0.3c4.8-1.1,8.1-3.7,9.5-8.6C760.7-116,760.6-119,758.5-121.7z M754-108
		c-0.8,0.4-1.6,0.6-2.6,1c0.3-3.2,0-6.1-0.5-8.9c-0.3-1.5,0.5-3.3,1.3-4.7c1-1.8,3.5-1.8,4.9-0.2c0.7,0.7,1.2,1.7,1.4,2.6
		C759.5-114.5,757.4-109.8,754-108z"/>
	<circle cx="731.4" cy="-131.8" r="1.9"/>
</g>
<path d="M671.4-116.3c-0.1-1-0.3-1.9-0.7-2.8c-0.2-0.5-0.5-1-0.9-1.5s-0.9-0.9-1.4-1.2c-0.6-0.3-1.2-0.4-1.8-0.4
	c-0.3,0-0.6,0-0.9,0.1c-0.3,0-0.5,0.1-0.8,0.2c-1,0.3-1.8,0.8-2.5,1.4c-0.7,0.5-1.2,1-1.8,1.6v-6.8c0-1.1-0.9-2-2-2h-24.1
	c-1.1,0-2,0.9-2,2v31.3c0,1.1,0.9,2,2,2h24.1c1.1,0,2-0.9,2-2v-5.1c0.1,0.1,0.2,0.2,0.3,0.3c0.4,0.4,1,0.6,1.6,0.8
	c0.3,0.1,0.6,0,1,0c0.3-0.1,0.6-0.1,0.9-0.2c0.6-0.2,1-0.5,1.4-0.8c0.4-0.3,0.8-0.7,1.1-1.1c1.3-1.5,2.2-3.1,2.8-4.8
	c0.3-0.8,0.6-1.7,0.9-2.5c0.2-0.9,0.5-1.8,0.6-2.6C671.5-112.5,671.6-114.4,671.4-116.3z M668.1-113.7c-0.1,0.8-0.2,1.6-0.3,2.3
	c-0.3,1.6-0.7,3.1-1.2,4.7c-0.5,1.5-1.1,3-1.9,4.2c-0.4,0.6-0.9,1.2-1.3,1.5c-0.2,0.2-0.5,0.3-0.7,0.3s-0.5,0-0.8-0.2
	c-0.4-0.2-0.8-0.5-1.2-0.9v-16.1c0.9-0.5,1.7-0.9,2.5-1.3c0.8-0.3,1.5-0.6,2.2-0.6c0.7-0.1,1.3,0,1.6,0.3c0.2,0.1,0.3,0.3,0.5,0.6
	c0.1,0.2,0.3,0.5,0.3,0.8c0.2,0.6,0.3,1.4,0.3,2.1C668.2-115.3,668.2-114.5,668.1-113.7z"/>
<path d="M590.8-117.8c-1-1.1-2.2-1.9-3.5-2.3c0-0.1,0-0.1,0-0.2c0.1-0.1,0.1-0.2,0.2-0.3c1.2-1.7,1.6-3.5,1.4-5.6
	c-0.2-1.6-1-2.7-1.9-3.9c-0.2-0.2-0.2-0.6-0.2-0.8c0.5-1.4,1.1-2.7,1.7-4c1.1-2.5,2.2-5.1,3.1-7.6c0.5-1.2,0.5-1.2-0.8-1.7
	c-0.2,0.2-0.3,0.4-0.5,0.6c-2.3,3.5-4.8,6.9-7.1,10.5c-0.3,0.4-0.6,0.6-1.1,0.5c-0.4,0-0.7-0.1-1.1-0.1c-1.7,0.1-3.1,0.7-4.5,1.7
	c-2.3,1.8-3.3,4.8-2.6,7.4c0.3,1.3,1.1,2.3,1.7,3.5c0.1,0,0.1,0,0.2-0.1c-0.1,0.1-0.1,0.1-0.2,0.2c-1.4,0.7-2.5,1.6-3.6,2.7
	c-1.4,1.6-2.2,3.2-2.3,5.4c-0.1,2.4,0.5,4.8,1.5,7c1.8,3.7,3.6,7.3,5.4,11.1c0.5,0.9,1.2,1.2,2.2,1.2c2,0,3.9,0,5.8,0
	c0.6,0,1.2-0.2,1.5-0.7c1-1.8,2-3.5,2.9-5.3c1.7-3.1,3.2-6.4,4.2-9.8C594.1-112.1,593.4-115.2,590.8-117.8z M583.3-125.8
	c-0.2-0.6-0.3-1.3-0.2-1.9c0.1-0.4,0.7-0.8,1-1.1c0,0,0.3,0.1,0.4,0.3c0.6,1.3,1.1,2.5,1.7,3.8C585.2-123.7,583.7-124.4,583.3-125.8
	z"/>
<path d="M522.5-122.1l2.5-7.2h-14.3l2.5,7.2c-4.5,2.3-7.7,8.1-7.7,14.9c0,6.5,2.9,11.9,7,14.5H523c4.2-2.5,7-8.1,7-14.6
	C530.1-114,526.9-119.7,522.5-122.1z"/>
<rect class="st1" width="363" height="1277.6"/>
<rect y="0" class="st2" width="363" height="1277.6"/>
<g>
	
		<linearGradient id="SVGID_1_" gradientUnits="userSpaceOnUse" x1="943.9816" y1="135.8708" x2="1431.6079" y2="135.8708" gradientTransform="matrix(-1.1331 -0.1835 0.3375 -1.4442 1639.2463 821.1842)">
		<stop  offset="0" style="stop-color:#00FF66"/>
		<stop  offset="1" style="stop-color:#FF90FF"/>
	</linearGradient>
	<path class="st3" d="M248.9,338.5c-0.1,0.5-0.1,0.9-0.1,1.4c-0.2,3.8-1.8,7.4-4.8,9.8c-0.1,0.1-0.3,0.2-0.4,0.3
		c-1.7,1.4-4.1,1.6-6,0.5c-3.6-2-6-5.6-6.4-9.6c-0.4-3.5-1.3-7-2.7-10.2c-2.1-4.9-2.2-10.3-0.4-15c0.5-1.3,1.4-4.1-0.9-6.9
		c-3.1-3.6-8-5.3-12.5-7.3c-4.6-2.1-9.2-4.1-14.3-4.7c-4.3-0.5-8.6,0.2-12.1,1.9c-4.2,2-7.4,5.2-9.9,8.6c-3.2,4.5-5,9.5-7.3,14.4
		c-2.3,4.9-5.4,9.3-10.1,12.7c-3,2.1-6.2,4-9.8,5.3l2.8,1.6c3.1,1.7,5.3,4.6,6.1,7.9c3.2,13.5,14.2,24.8,29,28
		c8.9,1.9,14.7-9.8,24.8-3.4c16.5,10.3-8.4,28.3-1.5,41.2c10.6,20,22.8-4.5,46,0.5c10.7,2.3,9.7,28.1,39.5,13.2
		c6.5-3.3,64.4,62.6,92.2,72c14.2,4.8,23.6-6.5,35.7-12.3c4.2-2,7.5,0.9,11.3,3.9c2.5,2,7.7,4,10.6,4.6c2.1,0.5,6.4-0.2,8.5,0.1
		c3,0.5,4.3,3.1,3.8,5.6l0,0.1c-1.6,9.2-0.9,11.5-1.5,17.4c0.9,0.3,1.8,0.6,2.7,1c9.7,3.5,19.2,7.5,28.6,11.5
		c9.4,4,18.7,8,28.2,11.8c5.8,2.3,11.7,4.5,17.6,6.6c0-0.4,0-0.7,0-1c0-5.1,14.4,3.1,18.3-8.1c7.6-21.9-8.8-38.1-9.8-44.8
		c-1.1-7.1,5.3-6.3,8.1-7.4c5.1-2,7.4-5.9,7.9-9.4c1.4-10-6.5-25.2-19-21.6c-7.6,2.2-8.5,14-15.2,17c-8,3.6-9.6,3.7-11.2,1.8
		c-1.2-1.4-1.9-3.1-2.1-4.9c-0.9-7-1.9-23.8-16.4-27.7c-13.1-3.5-21.6-1.3-26.5,1.2c-4.3,2.2-9.9-0.2-11-4.9
		c-0.1-0.6-0.2-1.1-0.2-1.7c0.2-3.4,0.4-7.2,0.1-9.8c-0.6-6.5,1.9-12.7,6.7-16.9c3-2.6,5.1-6.2,5.9-10.4c1.6-9.2,0.2-16-6.2-22.7
		c-2.7-2.9-41.7-13.7-33.6-55.7c1.7-9.2-5-14.2-12.6-16.1c-9-2.3-17.8,3.1-19.3,11.8c-0.1,0.6-0.2,1.1-0.2,1.7
		c-0.3,4.3-2.6,8.1-6.3,10.3c-9.3,5.4-16.2,14.6-18.2,26c-0.1,0.9-0.3,1.8-0.4,2.7c-0.8,8-5.7,14.9-12.6,18.9
		c-2.3,1.3-7.6,2.2-10.2,2c-10-0.8-28.1-13.2-26.6-20.7c1-5.1,8.2-9.7,9.3-15.2c2.4-12.9-6.2-25.6-19.5-28.8
		c-13.6-3.2-26.7,5-29.1,18.1c-0.1,0.6-0.2,1.2-0.2,1.8c-0.2,2.3-2.3,3.9-4.7,3.6l-0.1,0c-3.9-0.5-7.5-2.6-9.8-5.8
		c-1.9-2.5-4.7-4.3-8-5C256.2,328.1,250,332.2,248.9,338.5z"/>
</g>
<g>
	
		<linearGradient id="SVGID_2_" gradientUnits="userSpaceOnUse" x1="1743.937" y1="327.1026" x2="2231.5632" y2="327.1026" gradientTransform="matrix(1.1062 0.3065 -0.4937 1.3985 -2001.1853 -902.0932)">
		<stop  offset="0" style="stop-color:#00FF66"/>
		<stop  offset="1" style="stop-color:#FF90FF"/>
	</linearGradient>
	<path class="st4" d="M118.4,242.7c0.1-0.5,0.2-0.9,0.3-1.4c0.6-3.8,2.6-7.1,5.8-9.2c0.1-0.1,0.3-0.2,0.4-0.3
		c1.8-1.2,4.2-1.1,6.1,0.2c3.4,2.4,5.4,6.2,5.4,10.2c0,3.5,0.5,7.1,1.6,10.4c1.5,5.1,1.1,10.5-1.3,15c-0.7,1.3-1.8,4,0.2,6.9
		c2.6,3.9,7.4,6.2,11.6,8.7c4.3,2.6,8.7,5.1,13.7,6.2c4.3,1,8.5,0.7,12.3-0.6c4.4-1.6,7.9-4.4,10.7-7.5c3.7-4.1,6-8.9,8.9-13.5
		c2.8-4.6,6.4-8.7,11.4-11.5c3.2-1.8,6.6-3.3,10.3-4.2l-2.6-1.9c-2.8-2-4.8-5.1-5.2-8.5c-1.7-13.8-11.4-26.2-25.7-31
		c-8.6-2.9-15.7,8.1-25.1,0.6c-15.3-12,11.4-27.2,6-40.8c-8.3-21-23.1,2-45.7-5.5c-10.4-3.5-6.6-29-37.9-17.4
		C72.8,150.2,22.5,78.4-4.1,66c-13.6-6.3-24.2,3.9-36.8,8.3c-4.4,1.6-7.4-1.7-10.8-5.1c-2.3-2.3-7.2-4.8-10-5.8
		c-2-0.7-6.3-0.5-8.5-1.1c-2.9-0.8-4-3.5-3.2-6l0-0.1c2.6-8.9,2.1-11.4,3.4-17.1c-0.9-0.4-1.7-0.8-2.6-1.3
		c-9.2-4.5-18.2-9.5-27.2-14.6c-8.9-5-17.7-10-26.7-14.8c-5.5-3-11.2-5.8-16.8-8.4c0,0.4-0.1,0.7-0.1,1c-0.6,5.1-14-4.7-19.1,6
		c-10,20.9,4.6,38.8,4.8,45.6c0.3,7.2-5.9,5.7-8.9,6.5c-5.2,1.4-8,5-8.9,8.5c-2.5,9.8,3.7,25.8,16.5,23.6c7.8-1.3,10-13,16.9-15.2
		c8.3-2.7,9.9-2.6,11.3-0.6c1,1.5,1.6,3.3,1.6,5.1c0.1,7.1-0.7,23.9,13.3,29.3c12.7,4.9,21.3,3.7,26.4,1.8c4.5-1.7,9.8,1.3,10.4,6.1
		c0.1,0.6,0.1,1.2,0,1.7c-0.6,3.3-1.1,7.2-1.2,9.7c-0.1,6.5-3.2,12.4-8.5,16.1c-3.3,2.3-5.7,5.6-7,9.7c-2.6,8.9-2,15.8,3.7,23.3
		c2.4,3.2,39.9,18.2,27.3,59.1c-2.7,8.9,3.4,14.6,10.7,17.4c8.7,3.2,18-1.2,20.5-9.6c0.1-0.5,0.3-1.1,0.4-1.6
		c0.8-4.3,3.4-7.8,7.4-9.5c9.9-4.4,17.7-12.7,20.9-23.8c0.2-0.9,0.5-1.8,0.7-2.7c1.7-7.8,7.3-14.2,14.6-17.4
		c2.4-1.1,7.8-1.4,10.4-0.9c9.8,1.9,26.5,16.2,24.2,23.5c-1.6,5-9.2,8.7-10.9,14.1c-3.8,12.5,3.4,26.1,16.2,30.7
		c13.2,4.7,27.1-2,30.9-14.8c0.2-0.6,0.3-1.2,0.4-1.8c0.5-2.3,2.7-3.6,5.1-3l0.1,0c3.8,1,7.1,3.4,9.1,6.8c1.6,2.7,4.2,4.8,7.4,5.8
		C110.1,252.3,116.7,248.8,118.4,242.7z"/>
</g>
</svg>
