<?xml version="1.0" encoding="utf-8"?>
<!-- Generator: Adobe Illustrator 23.0.2, SVG Export Plug-In . SVG Version: 6.00 Build 0)  -->
<svg version="1.1" id="Layer_1" xmlns="http://www.w3.org/2000/svg" xmlns:xlink="http://www.w3.org/1999/xlink" x="0px" y="0px"
	 viewBox="0 0 1409 1017" style="enable-background:new 0 0 1409 1017;" xml:space="preserve">
<style type="text/css">
	.st0{fill:none;}
	.st1{fill:#231F20;}
	.st2{fill:#FFFFFF;}
	.st3{fill:url(#SVGID_2_);}
	.st4{fill:url(#SVGID_3_);}
	.st5{fill:url(#SVGID_4_);}
</style>
<pattern  y="1017" width="235" height="134" patternUnits="userSpaceOnUse" id="SVGID_1_" viewBox="0 -159.2 235 134" style="overflow:visible;">
	<g>
		<rect y="-159.2" class="st0" width="235" height="134"/>
		<g>
			<rect y="-159.2" class="st0" width="235" height="134"/>
			<g>
				<g>
					<path class="st1" d="M208.3-143.9c-0.6,2.2-1.6,4.2-2.6,6.2c-0.6,1.1-1.2,2.2-1.8,3.3c-0.2,0.4-0.6,0.4-0.9,0.4
						c-1.2,0-2.4,0-3.7,0c-0.6,0-1.1-0.2-1.3-0.7c-1.1-2.3-2.3-4.6-3.4-7c-0.6-1.4-1-2.9-0.9-4.4c0.1-1.3,0.6-2.4,1.5-3.4
						c0.6-0.7,1.4-1.3,2.3-1.7c0.1,0,0.1-0.1,0.1-0.1h-0.1c-0.4-0.7-0.8-1.4-1-2.2c-0.4-1.7,0.1-3.6,1.6-4.7c0.9-0.6,1.8-1,2.8-1.1
						c0.2,0,0.4,0,0.7,0.1c0.3,0,0.5,0,0.7-0.3c1.5-2.2,3-4.4,4.5-6.6c0.1-0.1,0.2-0.3,0.3-0.4c0.8,0.3,0.8,0.3,0.5,1.1
						c-0.6,1.6-1.3,3.2-2,4.8c-0.4,0.8-0.7,1.7-1,2.5c-0.1,0.1,0,0.4,0.1,0.5c0.6,0.7,1.1,1.5,1.2,2.5c0.1,1.3-0.1,2.5-0.9,3.5
						c-0.1,0.1-0.1,0.1-0.1,0.2v0.1c0.8,0.4,1.6,0.9,2.2,1.5C208.5-148.1,208.9-146.1,208.3-143.9z M203.9-154
						c-0.4-0.8-0.7-1.6-1-2.4c0-0.1-0.2-0.2-0.2-0.2c-0.2,0.2-0.6,0.4-0.6,0.7c-0.1,0.4,0,0.8,0.1,1.2
						C202.3-153.9,203.2-153.5,203.9-154z"/>
					<circle class="st2" cx="84.3" cy="-158.6" r="1.2"/>
				</g>
			</g>
			<g>
				<g>
					<rect y="-159.2" class="st0" width="235" height="134"/>
					<path class="st1" d="M208.3-9.9c-0.6,2.2-1.6,4.2-2.6,6.2c-0.6,1.1-1.2,2.2-1.8,3.3C203.7,0,203.3,0,203,0c-1.2,0-2.4,0-3.7,0
						c-0.6,0-1.1-0.2-1.3-0.7c-1.1-2.3-2.3-4.6-3.4-7c-0.6-1.4-1-2.9-0.9-4.4c0.1-1.3,0.6-2.4,1.5-3.4c0.6-0.7,1.4-1.3,2.3-1.7
						c0.1,0,0.1-0.1,0.1-0.1h-0.1c-0.4-0.7-0.8-1.4-1-2.2c-0.4-1.7,0.1-3.6,1.6-4.7c0.9-0.6,1.8-1,2.8-1.1c0.2,0,0.4,0,0.7,0.1
						c0.3,0,0.5,0,0.7-0.3c1.5-2.2,3-4.4,4.5-6.6c0.1-0.1,0.2-0.3,0.3-0.4c0.8,0.3,0.8,0.3,0.5,1.1c-0.6,1.6-1.3,3.2-2,4.8
						c-0.4,0.8-0.7,1.7-1,2.5c-0.1,0.1,0,0.4,0.1,0.5c0.6,0.7,1.1,1.5,1.2,2.5c0.1,1.3-0.1,2.5-0.9,3.5c-0.1,0.1-0.1,0.1-0.1,0.2
						v0.1c0.8,0.4,1.6,0.9,2.2,1.5C208.5-14.1,208.9-12.1,208.3-9.9z M203.9-20c-0.4-0.8-0.7-1.6-1-2.4c0-0.1-0.2-0.2-0.2-0.2
						c-0.2,0.2-0.6,0.4-0.6,0.7c-0.1,0.4,0,0.8,0.1,1.2C202.3-19.9,203.2-19.5,203.9-20z"/>
					<circle class="st2" cx="84.3" cy="-24.6" r="1.2"/>
					<g>
						<g>
							<path class="st1" d="M210.6-87c-2.2-2.3-5.3-3.7-8.8-3.7s-6.6,1.4-8.8,3.7H210.6z"/>
							<path class="st1" d="M219.8-79.6c-0.8,3.1-3,4.8-6,5.4c-0.1,0-0.3,0.1-0.4,0.2c-0.2-0.1-0.4-0.2-0.5-0.3
								c-1.8,4.3-6,7.4-11,7.4c-4.9,0-9.1-3-10.9-7.2v0.1c0-0.1-0.1-0.2-0.1-0.3c-0.9-0.3-1.7-0.4-2.3-0.8c-1.5-1-2.3-2.5-2.7-4.2
								c-0.3-1.2-0.4-2.4-0.7-3.6c-0.4-1.7-1.2-3.3-2.7-4.4c-0.1-0.1-0.1-0.2-0.3-0.4c1-0.2,1.9-0.5,2.9-0.6c0.4,0,0.9,0.2,1.2,0.5
								c0.6,0.7,1.1,1.4,1.6,2.2c0.5,0.6,0.9,1.3,1.5,1.9c0.6,0.7,0.9,0.8,1.3,0.3c0.5-1.3,1.2-2.4,2.1-3.4h17.9
								c0.6,0.7,1.1,1.5,1.6,2.3v-0.1c0.2,0,0.4-0.2,0.6-0.3c0.5-0.4,1-0.9,1.5-1.3c1.6-1.2,3.2-0.9,4.4,0.7
								C220.2-83.5,220.3-81.6,219.8-79.6z M218.9-83c-0.2-0.6-0.5-1.2-0.9-1.7c-0.9-1-2.5-1-3.1,0.2c-0.5,0.9-1,2.1-0.8,3
								c0.3,1.8,0.5,3.6,0.3,5.6c0.7-0.2,1.2-0.3,1.7-0.6C218.2-77.7,219.5-80.7,218.9-83z"/>
							<circle class="st1" cx="201.8" cy="-91.6" r="1.2"/>
						</g>
						<path class="st1" d="M151.9-78.3c-0.1,0.6-0.2,1.1-0.4,1.7c-0.2,0.5-0.3,1.1-0.6,1.6c-0.4,1.1-1,2.1-1.8,3
							c-0.2,0.2-0.4,0.4-0.7,0.7c-0.3,0.2-0.5,0.4-0.9,0.5c-0.2,0.1-0.4,0.1-0.5,0.2c-0.2,0-0.4,0-0.6,0c-0.4-0.1-0.7-0.2-1-0.5
							c-0.1-0.1-0.1-0.1-0.1-0.2v3.2c0,0.7-0.5,1.2-1.2,1.2h-15.2c-0.7,0-1.2-0.5-1.2-1.2v-19.8c0-0.7,0.5-1.2,1.2-1.2h15.2
							c0.7,0,1.2,0.5,1.2,1.2v4.3c0.3-0.3,0.7-0.7,1.1-1c0.5-0.3,1-0.7,1.6-0.8c0.1-0.1,0.3-0.1,0.5-0.1s0.4,0,0.5,0
							c0.4,0,0.8,0.1,1.1,0.3c0.4,0.2,0.7,0.4,0.9,0.7c0.2,0.3,0.4,0.6,0.5,0.9c0.3,0.6,0.4,1.2,0.4,1.8
							C152.2-80.6,152.1-79.5,151.9-78.3z M150-81.6c0-0.5-0.1-0.9-0.2-1.3c-0.1-0.2-0.1-0.4-0.2-0.5c-0.1-0.2-0.2-0.3-0.3-0.3
							c-0.2-0.2-0.6-0.3-1-0.2c-0.4,0.1-0.9,0.2-1.4,0.4c-0.5,0.2-1.1,0.5-1.6,0.8v10.2c0.2,0.3,0.5,0.5,0.7,0.6s0.4,0.1,0.5,0.1
							s0.3-0.1,0.4-0.2c0.3-0.2,0.6-0.6,0.8-0.9c0.5-0.8,0.9-1.7,1.2-2.7s0.6-1.9,0.7-2.9c0.1-0.5,0.2-1,0.2-1.5
							C150-80.7,150-81.2,150-81.6z"/>
						<path class="st1" d="M90.8-76.9c-0.6,2.2-1.6,4.2-2.6,6.2c-0.6,1.1-1.2,2.2-1.8,3.3C86.2-67,85.8-67,85.5-67
							c-1.2,0-2.5,0-3.7,0c-0.6,0-1.1-0.2-1.3-0.7c-1.1-2.3-2.3-4.6-3.4-7c-0.6-1.4-1-2.9-0.9-4.4c0.1-1.3,0.6-2.4,1.5-3.4
							c0.7-0.7,1.4-1.3,2.3-1.7c0.1,0,0.1-0.1,0.1-0.1H80c-0.3-0.7-0.8-1.4-1-2.2c-0.4-1.7,0.2-3.6,1.6-4.7c0.9-0.6,1.8-1,2.8-1.1
							c0.2,0,0.4,0.1,0.7,0.1c0.3,0,0.5,0,0.7-0.3c1.5-2.2,3-4.4,4.5-6.6c0.1-0.1,0.2-0.3,0.3-0.4c0.8,0.3,0.8,0.3,0.5,1.1
							c-0.7,1.6-1.3,3.2-2,4.8c-0.3,0.8-0.7,1.7-1,2.6c-0.1,0.1,0,0.4,0.1,0.5c0.6,0.7,1.1,1.5,1.2,2.5c0.1,1.3-0.1,2.5-0.9,3.5
							c-0.1,0.1-0.1,0.1-0.1,0.2v0.1c0.8,0.3,1.6,0.9,2.2,1.5C91-81.1,91.4-79.1,90.8-76.9z M86.4-87c-0.3-0.8-0.7-1.6-1-2.4
							c0-0.1-0.2-0.2-0.2-0.2c-0.2,0.2-0.6,0.4-0.6,0.7c-0.1,0.4,0,0.8,0.1,1.2C84.8-86.9,85.7-86.5,86.4-87z"/>
						<path class="st1" d="M22.9-85.5l1.6-4.6h-9l1.6,4.6c-2.9,1.5-4.9,5.1-4.9,9.4c0,4.1,1.8,7.6,4.5,9.2h6.6
							c2.6-1.6,4.5-5.2,4.5-9.2C27.8-80.3,25.7-84,22.9-85.5z"/>
					</g>
					<g>
						<path class="st1" d="M208.3-143.9c-0.6,2.2-1.6,4.2-2.6,6.2c-0.6,1.1-1.2,2.2-1.8,3.3c-0.2,0.4-0.6,0.4-0.9,0.4
							c-1.2,0-2.4,0-3.7,0c-0.6,0-1.1-0.2-1.3-0.7c-1.1-2.3-2.3-4.6-3.4-7c-0.6-1.4-1-2.9-0.9-4.4c0.1-1.3,0.6-2.4,1.5-3.4
							c0.6-0.7,1.4-1.3,2.3-1.7c0.1,0,0.1-0.1,0.1-0.1h-0.1c-0.4-0.7-0.8-1.4-1-2.2c-0.4-1.7,0.1-3.6,1.6-4.7c0.9-0.6,1.8-1,2.8-1.1
							c0.2,0,0.4,0.1,0.7,0.1s0.5,0,0.7-0.3c1.5-2.2,3-4.4,4.5-6.6c0.1-0.1,0.2-0.3,0.3-0.4c0.8,0.3,0.8,0.3,0.5,1.1
							c-0.6,1.6-1.3,3.2-2,4.8c-0.4,0.9-0.7,1.7-1,2.6c-0.1,0.1,0,0.4,0.1,0.5c0.6,0.7,1.1,1.5,1.2,2.5c0.1,1.3-0.1,2.5-0.9,3.5
							c-0.1,0.1-0.1,0.1-0.1,0.2v0.1c0.8,0.4,1.6,0.9,2.2,1.5C208.5-148.1,208.9-146.1,208.3-143.9z M203.9-154
							c-0.4-0.8-0.7-1.6-1-2.4c0-0.1-0.2-0.2-0.2-0.2c-0.2,0.2-0.6,0.4-0.6,0.7c-0.1,0.4,0,0.8,0.1,1.2
							C202.3-153.9,203.2-153.5,203.9-154z"/>
						<path class="st1" d="M140.4-152.5l1.6-4.6h-9l1.6,4.6c-2.9,1.5-4.9,5.1-4.9,9.4c0,4.1,1.8,7.6,4.5,9.2h6.6
							c2.6-1.6,4.5-5.1,4.5-9.2C145.3-147.3,143.2-151,140.4-152.5z"/>
					</g>
					<g>
						<g>
							<path class="st1" d="M93.1-154c-2.2-2.3-5.3-3.7-8.8-3.7s-6.6,1.4-8.8,3.7H93.1z"/>
							<path class="st1" d="M102.3-146.6c-0.8,3.1-3,4.8-6,5.4c-0.2,0-0.3,0.1-0.4,0.2c-0.2-0.1-0.4-0.2-0.5-0.3
								c-1.8,4.3-6,7.4-11,7.4c-4.9,0-9.1-3-10.9-7.2v0.1c0-0.1-0.1-0.2-0.1-0.3c-0.9-0.3-1.7-0.4-2.3-0.8c-1.5-1-2.3-2.5-2.7-4.2
								c-0.3-1.2-0.4-2.4-0.7-3.6c-0.4-1.7-1.2-3.3-2.7-4.4c-0.1-0.1-0.1-0.2-0.3-0.4c1-0.2,1.9-0.5,2.9-0.6c0.4,0,0.9,0.2,1.2,0.5
								c0.6,0.6,1.1,1.4,1.6,2.1c0.5,0.6,0.9,1.3,1.5,1.9c0.6,0.7,0.9,0.8,1.3,0.4c0.5-1.3,1.2-2.4,2.1-3.4h17.9
								c0.6,0.7,1.2,1.5,1.6,2.3v-0.1c0.2,0,0.4-0.2,0.6-0.3c0.5-0.4,1-0.9,1.5-1.3c1.6-1.1,3.2-0.9,4.4,0.7
								C102.7-150.5,102.8-148.6,102.3-146.6z M101.4-150c-0.2-0.6-0.5-1.2-0.9-1.7c-0.9-1-2.5-1-3.1,0.1c-0.5,0.9-1,2.1-0.8,3
								c0.3,1.8,0.5,3.6,0.3,5.6c0.7-0.2,1.2-0.3,1.7-0.6C100.7-144.7,102-147.7,101.4-150z"/>
							<circle class="st1" cx="84.3" cy="-158.6" r="1.2"/>
						</g>
						<path class="st1" d="M34.4-145.3c-0.1,0.6-0.2,1.1-0.4,1.7c-0.2,0.5-0.3,1.1-0.6,1.6c-0.4,1.1-1,2.1-1.8,3
							c-0.2,0.2-0.4,0.4-0.7,0.6c-0.3,0.2-0.5,0.4-0.9,0.5c-0.2,0.1-0.4,0.1-0.5,0.1c-0.2,0-0.4,0-0.6,0c-0.4-0.1-0.7-0.2-1-0.5
							c-0.1-0.1-0.1-0.1-0.2-0.2v3.2c0,0.7-0.5,1.2-1.2,1.2H11.4c-0.7,0-1.2-0.5-1.2-1.2v-19.8c0-0.7,0.5-1.2,1.2-1.2h15.2
							c0.7,0,1.2,0.5,1.2,1.2v4.3c0.3-0.4,0.7-0.7,1.1-1c0.5-0.3,1-0.6,1.6-0.8c0.1-0.1,0.3-0.1,0.5-0.1s0.4,0,0.5,0
							c0.4,0,0.8,0.1,1.1,0.3c0.4,0.2,0.7,0.4,0.9,0.7s0.4,0.6,0.5,0.9c0.3,0.6,0.4,1.2,0.5,1.8C34.7-147.6,34.6-146.5,34.4-145.3z
							 M32.5-148.6c0-0.5-0.1-0.9-0.2-1.3c-0.1-0.2-0.1-0.4-0.2-0.5c-0.1-0.1-0.2-0.3-0.3-0.3c-0.2-0.2-0.6-0.3-1-0.2
							c-0.4,0.1-0.9,0.2-1.4,0.4s-1.1,0.5-1.6,0.8v10.2c0.2,0.3,0.5,0.5,0.7,0.6c0.2,0.1,0.4,0.1,0.5,0.1s0.3-0.1,0.4-0.2
							c0.3-0.2,0.6-0.6,0.8-0.9c0.5-0.8,0.9-1.7,1.2-2.7c0.3-1,0.6-1.9,0.7-2.9c0.1-0.5,0.2-1,0.2-1.5
							C32.5-147.7,32.5-148.2,32.5-148.6z"/>
					</g>
				</g>
			</g>
			<g>
				<g>
					<g>
						<path class="st1" d="M208.3-9.9c-0.6,2.2-1.6,4.2-2.6,6.2c-0.6,1.1-1.2,2.2-1.8,3.3C203.7,0,203.3,0,203,0c-1.2,0-2.4,0-3.7,0
							c-0.6,0-1.1-0.2-1.3-0.7c-1.1-2.3-2.3-4.6-3.4-7c-0.6-1.4-1-2.9-0.9-4.4c0.1-1.3,0.6-2.4,1.5-3.4c0.6-0.7,1.4-1.3,2.3-1.7
							c0.1,0,0.1-0.1,0.1-0.1h-0.1c-0.4-0.7-0.8-1.4-1-2.2c-0.4-1.7,0.1-3.6,1.6-4.7c0.9-0.6,1.8-1,2.8-1.1c0.2,0,0.4,0.1,0.7,0.1
							s0.5,0,0.7-0.3c1.5-2.2,3-4.4,4.5-6.6c0.1-0.1,0.2-0.3,0.3-0.4c0.8,0.3,0.8,0.3,0.5,1.1c-0.6,1.6-1.3,3.2-2,4.8
							c-0.4,0.9-0.7,1.7-1,2.6c-0.1,0.1,0,0.4,0.1,0.5c0.6,0.7,1.1,1.5,1.2,2.5c0.1,1.3-0.1,2.5-0.9,3.5c-0.1,0.1-0.1,0.1-0.1,0.2
							v0.1c0.8,0.4,1.6,0.9,2.2,1.5C208.5-14.1,208.9-12.1,208.3-9.9z M203.9-20c-0.4-0.8-0.7-1.6-1-2.4c0-0.1-0.2-0.2-0.2-0.2
							c-0.2,0.2-0.6,0.4-0.6,0.7c-0.1,0.4,0,0.8,0.1,1.2C202.3-19.9,203.2-19.5,203.9-20z"/>
					</g>
					<g>
						<g>
							<circle class="st1" cx="84.3" cy="-24.6" r="1.2"/>
						</g>
					</g>
				</g>
			</g>
		</g>
	</g>
</pattern>
<pattern  id="SVGID_2_" xlink:href="#SVGID_1_" patternTransform="matrix(-1 0 0 1 -29936.5 16621.8203)">
</pattern>
<rect x="3.2" y="0" class="st3" width="1405.8" height="1017"/>
<g>
	<path d="M748.4-36.1c-3.5-3.6-8.5-5.9-14.2-5.9s-10.7,2.3-14.2,5.9H748.4z"/>
	<path d="M761.8-33.3c-1.9-2.5-4.5-3-7.1-1.1c-0.9,0.6-1.6,1.4-2.5,2c-0.3,0.2-0.6,0.4-1,0.4v0.2c-0.7-1.3-1.6-2.6-2.6-3.8h-28.9
		c-1.4,1.6-2.6,3.5-3.4,5.5c-0.6,0.7-1.2,0.5-2.2-0.6c-0.9-1-1.6-2-2.4-3.1c-0.9-1.2-1.6-2.4-2.6-3.5c-0.5-0.5-1.4-0.9-2-0.9
		c-1.5,0.2-3,0.6-4.7,1c0.2,0.3,0.3,0.5,0.4,0.6c2.4,1.8,3.6,4.3,4.3,7c0.5,1.9,0.7,3.9,1.1,5.8c0.6,2.8,2,5.2,4.4,6.8
		c0.9,0.6,2.1,0.8,3.7,1.3c0,0.1,0.1,0.3,0.2,0.4v-0.2c2.9,6.8,9.7,11.6,17.6,11.6c8,0,14.9-4.9,17.8-11.9c0.3,0.2,0.5,0.4,0.8,0.5
		c0.1-0.2,0.4-0.3,0.7-0.3c4.9-1.1,8.3-3.8,9.7-8.8C764.1-27.4,764-30.5,761.8-33.3z M757.2-19.2c-0.8,0.4-1.6,0.6-2.7,1
		c0.3-3.3,0-6.2-0.5-9.1c-0.3-1.5,0.5-3.4,1.3-4.8c1-1.8,3.6-1.8,5-0.2c0.7,0.7,1.2,1.7,1.4,2.7C762.8-25.9,760.7-21.1,757.2-19.2z"
		/>
	<circle cx="734.1" cy="-43.6" r="1.9"/>
</g>
<path d="M672.7-27.7c-0.1-1-0.3-1.9-0.7-2.9c-0.2-0.5-0.5-1-0.9-1.5c-0.4-0.5-0.9-0.9-1.4-1.2c-0.6-0.3-1.2-0.4-1.8-0.4
	c-0.3,0-0.6,0-0.9,0.1c-0.3,0-0.5,0.1-0.8,0.2c-1,0.3-1.8,0.8-2.6,1.4c-0.7,0.5-1.2,1-1.8,1.6v-7c0-1.1-0.9-2-2-2h-24.6
	c-1.1,0-2,0.9-2,2v32c0,1.1,0.9,2,2,2h24.6c1.1,0,2-0.9,2-2v-5.2c0.1,0.1,0.2,0.2,0.3,0.3c0.4,0.4,1,0.6,1.6,0.8c0.3,0.1,0.6,0,1,0
	c0.3-0.1,0.6-0.1,0.9-0.2c0.6-0.2,1-0.5,1.4-0.8s0.8-0.7,1.1-1.1c1.3-1.5,2.2-3.2,2.9-4.9c0.3-0.8,0.6-1.7,0.9-2.6
	c0.2-0.9,0.5-1.8,0.6-2.7C672.8-23.9,672.9-25.8,672.7-27.7z M669.4-25.1c-0.1,0.8-0.2,1.6-0.3,2.4c-0.3,1.6-0.7,3.2-1.2,4.8
	c-0.5,1.5-1.1,3.1-1.9,4.3c-0.4,0.6-0.9,1.2-1.3,1.5c-0.2,0.2-0.5,0.3-0.7,0.3s-0.5,0-0.8-0.2c-0.4-0.2-0.8-0.5-1.2-0.9v-16.5
	c0.9-0.5,1.7-0.9,2.6-1.3c0.8-0.3,1.5-0.6,2.2-0.6c0.7-0.1,1.3,0,1.6,0.3c0.2,0.1,0.3,0.3,0.5,0.6c0.1,0.2,0.3,0.5,0.3,0.8
	c0.2,0.6,0.3,1.4,0.3,2.1C669.5-26.7,669.5-25.9,669.4-25.1z"/>
<path d="M590.3-29.3c-1-1.1-2.2-1.9-3.6-2.4c0-0.1,0-0.1,0-0.2c0.1-0.1,0.1-0.2,0.2-0.3c1.2-1.7,1.6-3.6,1.4-5.7
	c-0.2-1.6-1-2.8-1.9-4c-0.2-0.2-0.2-0.6-0.2-0.8c0.5-1.4,1.1-2.8,1.7-4.1c1.1-2.6,2.2-5.2,3.2-7.8c0.5-1.2,0.5-1.2-0.8-1.7
	c-0.2,0.2-0.3,0.4-0.5,0.6c-2.4,3.6-4.9,7.1-7.3,10.7c-0.3,0.4-0.6,0.6-1.1,0.5c-0.4,0-0.7-0.1-1.1-0.1c-1.7,0.1-3.2,0.7-4.6,1.7
	c-2.4,1.8-3.4,4.9-2.7,7.6c0.3,1.3,1.1,2.4,1.7,3.6c0.1,0,0.1,0,0.2-0.1c-0.1,0.1-0.1,0.1-0.2,0.2c-1.4,0.7-2.6,1.6-3.7,2.8
	c-1.4,1.6-2.3,3.3-2.4,5.5c-0.1,2.5,0.5,4.9,1.5,7.2c1.8,3.8,3.7,7.5,5.5,11.3c0.5,0.9,1.2,1.2,2.2,1.2c2,0,4,0,5.9,0
	c0.6,0,1.2-0.2,1.5-0.7c1-1.8,2-3.6,3-5.4c1.7-3.2,3.3-6.5,4.3-10C593.7-23.4,593-26.6,590.3-29.3z M582.7-37.4
	c-0.2-0.6-0.3-1.3-0.2-1.9c0.1-0.4,0.7-0.8,1-1.1c0,0,0.3,0.1,0.4,0.3c0.6,1.3,1.1,2.6,1.7,3.9C584.6-35.3,583.1-36,582.7-37.4z"/>
<path d="M520.5-33.7l2.6-7.4h-14.6l2.6,7.4c-4.6,2.4-7.9,8.3-7.9,15.2c0,6.6,3,12.2,7.2,14.8H521c4.3-2.6,7.2-8.3,7.2-14.9
	C528.3-25.4,525-31.2,520.5-33.7z"/>
<g>
	
		<linearGradient id="SVGID_3_" gradientUnits="userSpaceOnUse" x1="489.9132" y1="95.0298" x2="1788.2296" y2="95.0298" gradientTransform="matrix(0.9473 -0.3118 -0.3088 -1.2724 -1039.5812 838.2552)">
		<stop  offset="0" style="stop-color:#00FF66"/>
		<stop  offset="1" style="stop-color:#FF90FF"/>
	</linearGradient>
	<path class="st4" d="M271.6,400.5c-0.4-1.2-0.7-2.4-1.2-3.5c-3.7-9.4-4-19.8-0.4-29.2c0.1-0.4,0.3-0.8,0.4-1.2
		c1.9-5.3,6.8-8.8,12-8.6c9.7,0.4,18.5,6,23.5,14.9c4.5,7.9,10,15,16.4,21.1c9.5,9,9.4,15.4,10.5,29.1c0.3,3.9,4.3,21.5,12,25.2
		c10.2,4.9,25.6-3.8,39,1.4c18.2,6.9,24,18.2,48.1,5.4c30.9-16.4,35-23.1,35.6-51.4c0.4-20.3-22.6-21.5-16.4-58.7
		c2.5-15.1,10.9-18.3,14.4-33.3c5.7-24.2-15.5-38.9-20.7-45.9c-20.8-28.2-51.9-48.5-86.5-41.7c-38.3,7.4-23.4,51.8-51.2,49
		c-45.1-4.3-12.5-77.7-40.3-100.2c-43.1-34.6-42.6,38.7-96.1,55.3c-24.7,7.6-49.8-55-96.1,17.1c-10.1,15.7-199.8-70.2-267.7-58.5
		c-34.5,6-42.3,44.5-61.2,73.1c-6.6,10-16.7,7.1-27.6,4.5c-7.4-1.7-20.3-0.1-26.8,1.9c-4.9,1.5-13,8.4-17.9,10.2
		c-6.6,2.5-12.3-2.1-14-8.7v-0.1c-6.2-23.9-10.4-28.6-15.2-43.3c-2.2,0.4-4.5,0.6-6.6,1c-23.8,3.5-47.7,5.7-71.6,7.7
		c-23.7,2-47.5,3.8-71.1,6.3c-14.6,1.6-29.2,3.5-43.7,6.1c0.4,0.8,0.7,1.6,1.1,2.5c5.3,12-33.2,10.3-29.6,41.6
		c7.2,61.6,58.4,80.1,67.6,94.8c9.7,15.6-4.3,21.4-9.1,27.6c-8.5,10.9-9.2,23.1-6.5,32.2c7.6,25.6,40.2,52.1,62.3,28.3
		c13.6-14.6,2.9-43.8,13.6-59.1c12.8-18.3,16-20.5,21.4-18c4,1.9,7.3,5,9.7,9.1c9.2,15.8,29.1,54.5,63.3,45.9
		c31-7.8,46.4-23.3,53.8-35.2c6.6-10.5,20.6-11.6,28.1-1.7c0.9,1.2,1.7,2.5,2.2,3.8c3.1,8.3,6.9,17.7,10.1,23.5
		c8.1,14.6,9.5,32.6,4,48.6c-3.4,10-4,21.1-1.2,32.1c6.2,23.9,16.4,38.4,37,46.6c8.7,3.5,101.2-18.5,128.7,91.7
		c6,24,25.3,27.7,43.2,23c21.2-5.6,33.7-29.2,27.8-51.9c-0.4-1.4-0.8-2.9-1.3-4.3c-3.9-10.6-3.2-22.5,2.2-32.2
		c13.6-24.4,18.2-54.6,10.5-84.2c-0.6-2.3-1.3-4.6-2-6.9c-6.6-20.1-4-42.4,6.3-60.5c3.4-5.9,13.5-14.6,19.1-17.4
		c21.6-10.2,72.3-3.2,77.2,16.6c3.3,13.5-6.9,33.1-3.2,47.6c8.6,33.7,39.9,53.4,70.9,44.7c31.8-9,50.4-44.6,41.4-79
		c-0.4-1.6-0.9-3.2-1.4-4.7c-1.9-5.8,0.8-12.1,6-14.2l0.2-0.1c8.7-3.5,18.2-2.9,26.5,1.7c6.5,3.6,14.3,4.5,21.9,1.9
		C267.5,434.4,276,416.9,271.6,400.5z"/>
</g>
<g>
	
		<linearGradient id="SVGID_4_" gradientUnits="userSpaceOnUse" x1="473.1194" y1="-448.3055" x2="2273.085" y2="-448.3055" gradientTransform="matrix(-0.9473 0.3118 0.3088 1.2724 3012.9607 584.6716)">
		<stop  offset="0" style="stop-color:#00FF66"/>
		<stop  offset="1" style="stop-color:#FF90FF"/>
	</linearGradient>
	<path class="st5" d="M1194.8,370.6c0.5,1.1,1,2.2,1.6,3.2c5.1,8.6,5.6,18.1,0.6,26.7c-0.2,0.4-0.4,0.7-0.6,1.1
		c-2.7,4.9-9.4,8-16.7,7.8c-13.4-0.4-25.6-5.5-32.6-13.6c-6.3-7.2-13.9-13.7-22.7-19.2c-13.2-8.2-13-14-14.6-26.6
		c-0.4-3.6-6-19.6-16.7-23c-14.1-4.5-35.5,3.4-54.1-1.3c-25.2-6.3-33.3-16.6-66.7-4.9c-42.8,15-48.5,21.1-49.3,46.9
		c-0.5,18.6,31.4,19.6,22.8,53.6c-3.5,13.8-15.1,16.7-20,30.4c-7.9,22.1,21.5,35.5,28.7,41.9c28.9,25.8,72,44.3,120,38.1
		c53.1-6.8,32.4-47.3,71-44.8c62.5,4,17.3,71,55.9,91.5c59.7,31.6,59-35.4,133.3-50.5c34.3-7,69.1,50.3,133.3-15.6
		c14-14.4,277.1,64.1,371.2,53.4c47.9-5.5,58.6-40.7,84.9-66.8c9.2-9.1,23.1-6.5,38.3-4.1c10.3,1.6,28.1,0.1,37.2-1.7
		c6.8-1.4,18-7.6,24.8-9.3c9.2-2.3,17,1.9,19.4,8v0.1c8.6,21.8,14.4,26.1,21.1,39.6c3.1-0.3,6.2-0.6,9.2-0.9
		c33-3.2,66.1-5.2,99.3-7.1c32.9-1.8,65.8-3.4,98.6-5.8c20.2-1.4,40.5-3.2,60.6-5.5c-0.5-0.7-1-1.4-1.5-2.2c-7.4-11,46.1-9.4,41-38
		c-10-56.3-81-73.1-93.8-86.6c-13.5-14.2,6-19.6,12.6-25.2c11.8-10,12.8-21.1,9-29.4c-10.5-23.4-55.7-47.6-86.4-25.8
		c-18.8,13.3-4,40-18.9,54c-17.7,16.7-22.2,18.7-29.7,16.4c-5.5-1.7-10.1-4.6-13.4-8.3c-12.8-14.4-40.3-49.8-87.8-41.9
		c-43,7.1-64.3,21.3-74.6,32.2c-9.1,9.6-28.6,10.6-38.9,1.6c-1.3-1.1-2.3-2.2-3-3.5c-4.3-7.6-9.5-16.1-14-21.5
		c-11.3-13.4-13.2-29.8-5.5-44.4c4.7-9.1,5.6-19.3,1.7-29.3c-8.6-21.8-22.8-35.1-51.3-42.6c-12.1-3.2-140.3,16.9-178.5-83.8
		c-8.3-21.9-35.1-25.3-59.9-21c-29.4,5.1-46.7,26.7-38.5,47.4c0.5,1.3,1.1,2.6,1.8,3.9c5.4,9.7,4.5,20.6-3.1,29.5
		c-18.9,22.3-25.3,49.9-14.6,77c0.8,2.1,1.8,4.2,2.8,6.3c9.2,18.4,5.5,38.7-8.8,55.3c-4.7,5.4-18.7,13.4-26.5,15.9
		c-29.9,9.4-100.3,2.9-107-15.2c-4.6-12.3,9.6-30.2,4.4-43.5c-11.9-30.8-55.3-48.8-98.3-40.9c-44.1,8.2-69.9,40.8-57.4,72.2
		c0.6,1.4,1.2,2.9,1.9,4.3c2.7,5.3-1.1,11.1-8.3,13l-0.3,0.1c-12,3.2-25.3,2.6-36.8-1.5c-9-3.3-19.8-4.2-30.3-1.8
		C1200.5,339.5,1188.7,355.5,1194.8,370.6z"/>
</g>
</svg>
