<?xml version="1.0" encoding="utf-8"?>
<!-- Generator: Adobe Illustrator 23.0.2, SVG Export Plug-In . SVG Version: 6.00 Build 0)  -->
<svg version="1.1" id="Layer_1" xmlns="http://www.w3.org/2000/svg" xmlns:xlink="http://www.w3.org/1999/xlink" x="0px" y="0px"
	 viewBox="0 0 1409 1017" style="enable-background:new 0 0 1409 1017;" xml:space="preserve">
<style type="text/css">
	.st0{fill:none;}
	.st1{fill:#231F20;}
	.st2{fill:#FFFFFF;}
	.st3{fill:url(#SVGID_1_);}
	.st4{fill:url(#SVGID_2_);}
</style>
<pattern  y="733.3" width="235" height="134" patternUnits="userSpaceOnUse" id="SVGID_1" viewBox="0 -141.3 235 134" style="overflow:visible;">
	<g>
		<rect y="-141.3" class="st0" width="235" height="134"/>
		<g>
			<g>
				<path class="st1" d="M208.3-22.6c-0.6-2.2-1.6-4.2-2.6-6.2c-0.6-1.1-1.2-2.2-1.8-3.3c-0.2-0.4-0.6-0.4-0.9-0.4
					c-1.2,0-2.4,0-3.7,0c-0.6,0-1.1,0.2-1.3,0.7c-1.1,2.3-2.3,4.6-3.4,7c-0.6,1.4-1,2.9-0.9,4.4c0.1,1.3,0.6,2.4,1.5,3.4
					c0.6,0.7,1.4,1.3,2.3,1.7c0.1,0,0.1,0.1,0.1,0.1h-0.1c-0.4,0.7-0.8,1.4-1,2.2c-0.4,1.7,0.1,3.6,1.6,4.7c0.9,0.6,1.8,1,2.8,1.1
					c0.2,0,0.4,0,0.7-0.1c0.3,0,0.5,0,0.7,0.3c1.5,2.2,3,4.4,4.5,6.6c0.1,0.1,0.2,0.3,0.3,0.4c0.8-0.3,0.8-0.3,0.5-1.1
					c-0.6-1.6-1.3-3.2-2-4.8c-0.4-0.8-0.7-1.7-1-2.5c-0.1-0.1,0-0.4,0.1-0.5c0.6-0.7,1.1-1.5,1.2-2.5c0.1-1.3-0.1-2.5-0.9-3.5
					c-0.1-0.1-0.1-0.1-0.1-0.2v-0.1c0.8-0.4,1.6-0.9,2.2-1.5C208.5-18.4,208.9-20.4,208.3-22.6z M203.9-12.5c-0.4,0.8-0.7,1.6-1,2.4
					c0,0.1-0.2,0.2-0.2,0.2c-0.2-0.2-0.6-0.4-0.6-0.7c-0.1-0.4,0-0.8,0.1-1.2C202.3-12.6,203.2-13,203.9-12.5z"/>
				<circle class="st2" cx="84.3" cy="-7.9" r="1.2"/>
			</g>
		</g>
		<g>
			<g>
				<rect y="-141.3" class="st0" width="235" height="134"/>
				<path class="st1" d="M208.3-156.6c-0.6-2.2-1.6-4.2-2.6-6.2c-0.6-1.1-1.2-2.2-1.8-3.3c-0.2-0.4-0.6-0.4-0.9-0.4
					c-1.2,0-2.4,0-3.7,0c-0.6,0-1.1,0.2-1.3,0.7c-1.1,2.3-2.3,4.6-3.4,7c-0.6,1.4-1,2.9-0.9,4.4c0.1,1.3,0.6,2.4,1.5,3.4
					c0.6,0.7,1.4,1.3,2.3,1.7c0.1,0,0.1,0.1,0.1,0.1h-0.1c-0.4,0.7-0.8,1.4-1,2.2c-0.4,1.7,0.1,3.6,1.6,4.7c0.9,0.6,1.8,1,2.8,1.1
					c0.2,0,0.4,0,0.7-0.1c0.3,0,0.5,0,0.7,0.3c1.5,2.2,3,4.4,4.5,6.6c0.1,0.1,0.2,0.3,0.3,0.4c0.8-0.3,0.8-0.3,0.5-1.1
					c-0.6-1.6-1.3-3.2-2-4.8c-0.4-0.8-0.7-1.7-1-2.5c-0.1-0.1,0-0.4,0.1-0.5c0.6-0.7,1.1-1.5,1.2-2.5c0.1-1.3-0.1-2.5-0.9-3.5
					c-0.1-0.1-0.1-0.1-0.1-0.2v-0.1c0.8-0.4,1.6-0.9,2.2-1.5C208.5-152.4,208.9-154.4,208.3-156.6z M203.9-146.5
					c-0.4,0.8-0.7,1.6-1,2.4c0,0.1-0.2,0.2-0.2,0.2c-0.2-0.2-0.6-0.4-0.6-0.7c-0.1-0.4,0-0.8,0.1-1.2
					C202.3-146.6,203.2-147,203.9-146.5z"/>
				<circle class="st2" cx="84.3" cy="-141.9" r="1.2"/>
				<g>
					<g>
						<path class="st1" d="M210.6-79.5c-2.2,2.3-5.3,3.7-8.8,3.7s-6.6-1.4-8.8-3.7H210.6z"/>
						<path class="st1" d="M219.8-86.9c-0.8-3.1-3-4.8-6-5.4c-0.1,0-0.3-0.1-0.4-0.2c-0.2,0.1-0.4,0.2-0.5,0.3
							c-1.8-4.3-6-7.4-11-7.4c-4.9,0-9.1,3-10.9,7.2v-0.1c0,0.1-0.1,0.2-0.1,0.3c-0.9,0.3-1.7,0.4-2.3,0.8c-1.5,1-2.3,2.5-2.7,4.2
							c-0.3,1.2-0.4,2.4-0.7,3.6c-0.4,1.7-1.2,3.3-2.7,4.4c-0.1,0.1-0.1,0.2-0.3,0.4c1,0.2,1.9,0.5,2.9,0.6c0.4,0,0.9-0.2,1.2-0.5
							c0.6-0.7,1.1-1.4,1.6-2.2c0.5-0.6,0.9-1.3,1.5-1.9c0.6-0.7,0.9-0.8,1.3-0.3c0.5,1.3,1.2,2.4,2.1,3.4h17.9
							c0.6-0.7,1.1-1.5,1.6-2.3v0.1c0.2,0,0.4,0.2,0.6,0.3c0.5,0.4,1,0.9,1.5,1.3c1.6,1.2,3.2,0.9,4.4-0.7
							C220.2-83,220.3-84.9,219.8-86.9z M218.9-83.5c-0.2,0.6-0.5,1.2-0.9,1.7c-0.9,1-2.5,1-3.1-0.2c-0.5-0.9-1-2.1-0.8-3
							c0.3-1.8,0.5-3.6,0.3-5.6c0.7,0.2,1.2,0.3,1.7,0.6C218.2-88.8,219.5-85.8,218.9-83.5z"/>
						<circle class="st1" cx="201.8" cy="-74.9" r="1.2"/>
					</g>
					<path class="st1" d="M151.9-88.2c-0.1-0.6-0.2-1.1-0.4-1.7c-0.2-0.5-0.3-1.1-0.6-1.6c-0.4-1.1-1-2.1-1.8-3
						c-0.2-0.2-0.4-0.4-0.7-0.7c-0.3-0.2-0.5-0.4-0.9-0.5c-0.2-0.1-0.4-0.1-0.5-0.2c-0.2,0-0.4,0-0.6,0c-0.4,0.1-0.7,0.2-1,0.5
						c-0.1,0.1-0.1,0.1-0.1,0.2v-3.2c0-0.7-0.5-1.2-1.2-1.2h-15.2c-0.7,0-1.2,0.5-1.2,1.2v19.8c0,0.7,0.5,1.2,1.2,1.2h15.2
						c0.7,0,1.2-0.5,1.2-1.2v-4.3c0.3,0.3,0.7,0.7,1.1,1c0.5,0.3,1,0.7,1.6,0.8c0.1,0.1,0.3,0.1,0.5,0.1s0.4,0,0.5,0
						c0.4,0,0.8-0.1,1.1-0.3c0.4-0.2,0.7-0.4,0.9-0.7c0.2-0.3,0.4-0.6,0.5-0.9c0.3-0.6,0.4-1.2,0.4-1.8
						C152.2-85.9,152.1-87,151.9-88.2z M150-84.9c0,0.5-0.1,0.9-0.2,1.3c-0.1,0.2-0.1,0.4-0.2,0.5c-0.1,0.2-0.2,0.3-0.3,0.3
						c-0.2,0.2-0.6,0.3-1,0.2c-0.4-0.1-0.9-0.2-1.4-0.4c-0.5-0.2-1.1-0.5-1.6-0.8V-94c0.2-0.3,0.5-0.5,0.7-0.6s0.4-0.1,0.5-0.1
						s0.3,0.1,0.4,0.2c0.3,0.2,0.6,0.6,0.8,0.9c0.5,0.8,0.9,1.7,1.2,2.7s0.6,1.9,0.7,2.9c0.1,0.5,0.2,1,0.2,1.5
						C150-85.8,150-85.3,150-84.9z"/>
					<path class="st1" d="M90.8-89.6c-0.6-2.2-1.6-4.2-2.6-6.2c-0.6-1.1-1.2-2.2-1.8-3.3c-0.2-0.4-0.6-0.4-0.9-0.4
						c-1.2,0-2.5,0-3.7,0c-0.6,0-1.1,0.2-1.3,0.7c-1.1,2.3-2.3,4.6-3.4,7c-0.6,1.4-1,2.9-0.9,4.4c0.1,1.3,0.6,2.4,1.5,3.4
						c0.7,0.7,1.4,1.3,2.3,1.7c0.1,0,0.1,0.1,0.1,0.1H80c-0.3,0.7-0.8,1.4-1,2.2c-0.4,1.7,0.2,3.6,1.6,4.7c0.9,0.6,1.8,1,2.8,1.1
						c0.2,0,0.4-0.1,0.7-0.1c0.3,0,0.5,0,0.7,0.3c1.5,2.2,3,4.4,4.5,6.6c0.1,0.1,0.2,0.3,0.3,0.4c0.8-0.3,0.8-0.3,0.5-1.1
						c-0.7-1.6-1.3-3.2-2-4.8c-0.3-0.8-0.7-1.7-1-2.6c-0.1-0.1,0-0.4,0.1-0.5c0.6-0.7,1.1-1.5,1.2-2.5c0.1-1.3-0.1-2.5-0.9-3.5
						c-0.1-0.1-0.1-0.1-0.1-0.2v-0.1c0.8-0.3,1.6-0.9,2.2-1.5C91-85.4,91.4-87.4,90.8-89.6z M86.4-79.5c-0.3,0.8-0.7,1.6-1,2.4
						c0,0.1-0.2,0.2-0.2,0.2c-0.2-0.2-0.6-0.4-0.6-0.7c-0.1-0.4,0-0.8,0.1-1.2C84.8-79.6,85.7-80,86.4-79.5z"/>
					<path class="st1" d="M22.9-81l1.6,4.6h-9l1.6-4.6c-2.9-1.5-4.9-5.1-4.9-9.4c0-4.1,1.8-7.6,4.5-9.2h6.6c2.6,1.6,4.5,5.2,4.5,9.2
						C27.8-86.2,25.7-82.5,22.9-81z"/>
				</g>
				<g>
					<path class="st1" d="M208.3-22.6c-0.6-2.2-1.6-4.2-2.6-6.2c-0.6-1.1-1.2-2.2-1.8-3.3c-0.2-0.4-0.6-0.4-0.9-0.4
						c-1.2,0-2.4,0-3.7,0c-0.6,0-1.1,0.2-1.3,0.7c-1.1,2.3-2.3,4.6-3.4,7c-0.6,1.4-1,2.9-0.9,4.4c0.1,1.3,0.6,2.4,1.5,3.4
						c0.6,0.7,1.4,1.3,2.3,1.7c0.1,0,0.1,0.1,0.1,0.1h-0.1c-0.4,0.7-0.8,1.4-1,2.2c-0.4,1.7,0.1,3.6,1.6,4.7c0.9,0.6,1.8,1,2.8,1.1
						c0.2,0,0.4-0.1,0.7-0.1s0.5,0,0.7,0.3c1.5,2.2,3,4.4,4.5,6.6c0.1,0.1,0.2,0.3,0.3,0.4c0.8-0.3,0.8-0.3,0.5-1.1
						c-0.6-1.6-1.3-3.2-2-4.8c-0.4-0.9-0.7-1.7-1-2.6c-0.1-0.1,0-0.4,0.1-0.5c0.6-0.7,1.1-1.5,1.2-2.5c0.1-1.3-0.1-2.5-0.9-3.5
						c-0.1-0.1-0.1-0.1-0.1-0.2v-0.1c0.8-0.4,1.6-0.9,2.2-1.5C208.5-18.4,208.9-20.4,208.3-22.6z M203.9-12.5
						c-0.4,0.8-0.7,1.6-1,2.4c0,0.1-0.2,0.2-0.2,0.2c-0.2-0.2-0.6-0.4-0.6-0.7c-0.1-0.4,0-0.8,0.1-1.2
						C202.3-12.6,203.2-13,203.9-12.5z"/>
					<path class="st1" d="M140.4-14l1.6,4.6h-9l1.6-4.6c-2.9-1.5-4.9-5.1-4.9-9.4c0-4.1,1.8-7.6,4.5-9.2h6.6
						c2.6,1.6,4.5,5.1,4.5,9.2C145.3-19.2,143.2-15.5,140.4-14z"/>
				</g>
				<g>
					<g>
						<path class="st1" d="M93.1-12.5c-2.2,2.3-5.3,3.7-8.8,3.7s-6.6-1.4-8.8-3.7H93.1z"/>
						<path class="st1" d="M102.3-19.9c-0.8-3.1-3-4.8-6-5.4c-0.2,0-0.3-0.1-0.4-0.2c-0.2,0.1-0.4,0.2-0.5,0.3
							c-1.8-4.3-6-7.4-11-7.4c-4.9,0-9.1,3-10.9,7.2v-0.1c0,0.1-0.1,0.2-0.1,0.3c-0.9,0.3-1.7,0.4-2.3,0.8c-1.5,1-2.3,2.5-2.7,4.2
							c-0.3,1.2-0.4,2.4-0.7,3.6c-0.4,1.7-1.2,3.3-2.7,4.4c-0.1,0.1-0.1,0.2-0.3,0.4c1,0.2,1.9,0.5,2.9,0.6c0.4,0,0.9-0.2,1.2-0.5
							c0.6-0.6,1.1-1.4,1.6-2.1c0.5-0.6,0.9-1.3,1.5-1.9c0.6-0.7,0.9-0.8,1.3-0.4c0.5,1.3,1.2,2.4,2.1,3.4h17.9
							c0.6-0.7,1.2-1.5,1.6-2.3v0.1c0.2,0,0.4,0.2,0.6,0.3c0.5,0.4,1,0.9,1.5,1.3c1.6,1.1,3.2,0.9,4.4-0.7
							C102.7-16,102.8-17.9,102.3-19.9z M101.4-16.5c-0.2,0.6-0.5,1.2-0.9,1.7c-0.9,1-2.5,1-3.1-0.1c-0.5-0.9-1-2.1-0.8-3
							c0.3-1.8,0.5-3.6,0.3-5.6c0.7,0.2,1.2,0.3,1.7,0.6C100.7-21.8,102-18.8,101.4-16.5z"/>
						<circle class="st1" cx="84.3" cy="-7.9" r="1.2"/>
					</g>
					<path class="st1" d="M34.4-21.2c-0.1-0.6-0.2-1.1-0.4-1.7c-0.2-0.5-0.3-1.1-0.6-1.6c-0.4-1.1-1-2.1-1.8-3
						c-0.2-0.2-0.4-0.4-0.7-0.6c-0.3-0.2-0.5-0.4-0.9-0.5c-0.2-0.1-0.4-0.1-0.5-0.1c-0.2,0-0.4,0-0.6,0c-0.4,0.1-0.7,0.2-1,0.5
						c-0.1,0.1-0.1,0.1-0.2,0.2v-3.2c0-0.7-0.5-1.2-1.2-1.2H11.4c-0.7,0-1.2,0.5-1.2,1.2v19.8c0,0.7,0.5,1.2,1.2,1.2h15.2
						c0.7,0,1.2-0.5,1.2-1.2v-4.3c0.3,0.4,0.7,0.7,1.1,1c0.5,0.3,1,0.6,1.6,0.8c0.1,0.1,0.3,0.1,0.5,0.1s0.4,0,0.5,0
						c0.4,0,0.8-0.1,1.1-0.3c0.4-0.2,0.7-0.4,0.9-0.7s0.4-0.6,0.5-0.9c0.3-0.6,0.4-1.2,0.5-1.8C34.7-18.9,34.6-20,34.4-21.2z
						 M32.5-17.9c0,0.5-0.1,0.9-0.2,1.3c-0.1,0.2-0.1,0.4-0.2,0.5c-0.1,0.1-0.2,0.3-0.3,0.3c-0.2,0.2-0.6,0.3-1,0.2
						s-0.9-0.2-1.4-0.4s-1.1-0.5-1.6-0.8V-27c0.2-0.3,0.5-0.5,0.7-0.6s0.4-0.1,0.5-0.1s0.3,0.1,0.4,0.2c0.3,0.2,0.6,0.6,0.8,0.9
						c0.5,0.8,0.9,1.7,1.2,2.7c0.3,1,0.6,1.9,0.7,2.9c0.1,0.5,0.2,1,0.2,1.5C32.5-18.8,32.5-18.3,32.5-17.9z"/>
				</g>
			</g>
		</g>
		<g>
			<g>
				<g>
					<path class="st1" d="M208.3-156.6c-0.6-2.2-1.6-4.2-2.6-6.2c-0.6-1.1-1.2-2.2-1.8-3.3c-0.2-0.4-0.6-0.4-0.9-0.4
						c-1.2,0-2.4,0-3.7,0c-0.6,0-1.1,0.2-1.3,0.7c-1.1,2.3-2.3,4.6-3.4,7c-0.6,1.4-1,2.9-0.9,4.4c0.1,1.3,0.6,2.4,1.5,3.4
						c0.6,0.7,1.4,1.3,2.3,1.7c0.1,0,0.1,0.1,0.1,0.1h-0.1c-0.4,0.7-0.8,1.4-1,2.2c-0.4,1.7,0.1,3.6,1.6,4.7c0.9,0.6,1.8,1,2.8,1.1
						c0.2,0,0.4-0.1,0.7-0.1s0.5,0,0.7,0.3c1.5,2.2,3,4.4,4.5,6.6c0.1,0.1,0.2,0.3,0.3,0.4c0.8-0.3,0.8-0.3,0.5-1.1
						c-0.6-1.6-1.3-3.2-2-4.8c-0.4-0.9-0.7-1.7-1-2.6c-0.1-0.1,0-0.4,0.1-0.5c0.6-0.7,1.1-1.5,1.2-2.5c0.1-1.3-0.1-2.5-0.9-3.5
						c-0.1-0.1-0.1-0.1-0.1-0.2v-0.1c0.8-0.4,1.6-0.9,2.2-1.5C208.5-152.4,208.9-154.4,208.3-156.6z M203.9-146.5
						c-0.4,0.8-0.7,1.6-1,2.4c0,0.1-0.2,0.2-0.2,0.2c-0.2-0.2-0.6-0.4-0.6-0.7c-0.1-0.4,0-0.8,0.1-1.2
						C202.3-146.6,203.2-147,203.9-146.5z"/>
				</g>
				<g>
					<g>
						<circle class="st1" cx="84.3" cy="-141.9" r="1.2"/>
					</g>
				</g>
			</g>
		</g>
	</g>
</pattern>
<pattern  id="SVGID_1_" xlink:href="#SVGID_1" patternTransform="matrix(-1 -8.979319e-11 8.979319e-11 -1 -14790.5 -16741.5293)">
</pattern>
<rect x="3.2" class="st3" width="1405.8" height="1017"/>
<g>
	<path d="M748.4-36.1c-3.5-3.6-8.5-5.9-14.2-5.9s-10.7,2.3-14.2,5.9H748.4z"/>
	<path d="M761.8-33.3c-1.9-2.5-4.5-3-7.1-1.1c-0.9,0.6-1.6,1.4-2.5,2c-0.3,0.2-0.6,0.4-1,0.4v0.2c-0.7-1.3-1.6-2.6-2.6-3.8h-28.9
		c-1.4,1.6-2.6,3.5-3.4,5.5c-0.6,0.7-1.2,0.5-2.2-0.6c-0.9-1-1.6-2-2.4-3.1c-0.9-1.2-1.6-2.4-2.6-3.5c-0.5-0.5-1.4-0.9-2-0.9
		c-1.5,0.2-3,0.6-4.7,1c0.2,0.3,0.3,0.5,0.4,0.6c2.4,1.8,3.6,4.3,4.3,7c0.5,1.9,0.7,3.9,1.1,5.8c0.6,2.8,2,5.2,4.4,6.8
		c0.9,0.6,2.1,0.8,3.7,1.3c0,0.1,0.1,0.3,0.2,0.4v-0.2c2.9,6.8,9.7,11.6,17.6,11.6c8,0,14.9-4.9,17.8-11.9c0.3,0.2,0.5,0.4,0.8,0.5
		c0.1-0.2,0.4-0.3,0.7-0.3c4.9-1.1,8.3-3.8,9.7-8.8C764.1-27.4,764-30.5,761.8-33.3z M757.2-19.2c-0.8,0.4-1.6,0.6-2.7,1
		c0.3-3.3,0-6.2-0.5-9.1c-0.3-1.5,0.5-3.4,1.3-4.8c1-1.8,3.6-1.8,5-0.2c0.7,0.7,1.2,1.7,1.4,2.7C762.8-25.9,760.7-21.1,757.2-19.2z"
		/>
	<circle cx="734.1" cy="-43.6" r="1.9"/>
</g>
<path d="M672.7-27.7c-0.1-1-0.3-1.9-0.7-2.9c-0.2-0.5-0.5-1-0.9-1.5c-0.4-0.5-0.9-0.9-1.4-1.2c-0.6-0.3-1.2-0.4-1.8-0.4
	c-0.3,0-0.6,0-0.9,0.1c-0.3,0-0.5,0.1-0.8,0.2c-1,0.3-1.8,0.8-2.6,1.4c-0.7,0.5-1.2,1-1.8,1.6v-7c0-1.1-0.9-2-2-2h-24.6
	c-1.1,0-2,0.9-2,2v32c0,1.1,0.9,2,2,2h24.6c1.1,0,2-0.9,2-2v-5.2c0.1,0.1,0.2,0.2,0.3,0.3c0.4,0.4,1,0.6,1.6,0.8c0.3,0.1,0.6,0,1,0
	c0.3-0.1,0.6-0.1,0.9-0.2c0.6-0.2,1-0.5,1.4-0.8s0.8-0.7,1.1-1.1c1.3-1.5,2.2-3.2,2.9-4.9c0.3-0.8,0.6-1.7,0.9-2.6
	c0.2-0.9,0.5-1.8,0.6-2.7C672.8-23.9,672.9-25.8,672.7-27.7z M669.4-25.1c-0.1,0.8-0.2,1.6-0.3,2.4c-0.3,1.6-0.7,3.2-1.2,4.8
	c-0.5,1.5-1.1,3.1-1.9,4.3c-0.4,0.6-0.9,1.2-1.3,1.5c-0.2,0.2-0.5,0.3-0.7,0.3s-0.5,0-0.8-0.2c-0.4-0.2-0.8-0.5-1.2-0.9v-16.5
	c0.9-0.5,1.7-0.9,2.6-1.3c0.8-0.3,1.5-0.6,2.2-0.6c0.7-0.1,1.3,0,1.6,0.3c0.2,0.1,0.3,0.3,0.5,0.6c0.1,0.2,0.3,0.5,0.3,0.8
	c0.2,0.6,0.3,1.4,0.3,2.1C669.5-26.7,669.5-25.9,669.4-25.1z"/>
<path d="M590.3-29.3c-1-1.1-2.2-1.9-3.6-2.4c0-0.1,0-0.1,0-0.2c0.1-0.1,0.1-0.2,0.2-0.3c1.2-1.7,1.6-3.6,1.4-5.7
	c-0.2-1.6-1-2.8-1.9-4c-0.2-0.2-0.2-0.6-0.2-0.8c0.5-1.4,1.1-2.8,1.7-4.1c1.1-2.6,2.2-5.2,3.2-7.8c0.5-1.2,0.5-1.2-0.8-1.7
	c-0.2,0.2-0.3,0.4-0.5,0.6c-2.4,3.6-4.9,7.1-7.3,10.7c-0.3,0.4-0.6,0.6-1.1,0.5c-0.4,0-0.7-0.1-1.1-0.1c-1.7,0.1-3.2,0.7-4.6,1.7
	c-2.4,1.8-3.4,4.9-2.7,7.6c0.3,1.3,1.1,2.4,1.7,3.6c0.1,0,0.1,0,0.2-0.1c-0.1,0.1-0.1,0.1-0.2,0.2c-1.4,0.7-2.6,1.6-3.7,2.8
	c-1.4,1.6-2.3,3.3-2.4,5.5c-0.1,2.5,0.5,4.9,1.5,7.2c1.8,3.8,3.7,7.5,5.5,11.3c0.5,0.9,1.2,1.2,2.2,1.2c2,0,4,0,5.9,0
	c0.6,0,1.2-0.2,1.5-0.7c1-1.8,2-3.6,3-5.4c1.7-3.2,3.3-6.5,4.3-10C593.7-23.4,593-26.6,590.3-29.3z M582.7-37.4
	c-0.2-0.6-0.3-1.3-0.2-1.9c0.1-0.4,0.7-0.8,1-1.1c0,0,0.3,0.1,0.4,0.3c0.6,1.3,1.1,2.6,1.7,3.9C584.6-35.3,583.1-36,582.7-37.4z"/>
<path d="M520.5-33.7l2.6-7.4h-14.6l2.6,7.4c-4.6,2.4-7.9,8.3-7.9,15.2c0,6.6,3,12.2,7.2,14.8H521c4.3-2.6,7.2-8.3,7.2-14.9
	C528.3-25.4,525-31.2,520.5-33.7z"/>
<g>
	
		<linearGradient id="SVGID_2_" gradientUnits="userSpaceOnUse" x1="85.5177" y1="1128.0901" x2="1885.7086" y2="1128.0901" gradientTransform="matrix(0.9473 -0.3118 0.3088 1.2724 -1347.8713 -557.567)">
		<stop  offset="0" style="stop-color:#00FF66"/>
		<stop  offset="1" style="stop-color:#FF90FF"/>
	</linearGradient>
	<path class="st4" d="M296.8,623.7c-0.5-1.7-1-3.3-1.6-4.8c-5.1-13-5.6-27.5-0.6-40.5c0.2-0.6,0.4-1.1,0.6-1.7
		c2.7-7.4,9.4-12.2,16.7-11.9c13.4,0.6,25.6,8.3,32.6,20.7c6.3,11,13.9,20.8,22.7,29.2c13.2,12.5,13,21.3,14.6,40.3
		c0.4,5.4,6,29.8,16.7,34.9c14.1,6.8,35.5-5.2,54.1,1.9c25.2,9.6,33.3,25.2,66.7,7.5c42.8-22.7,48.5-32,49.3-71.2
		c0.5-28.2-31.4-29.8-22.8-81.4c3.5-20.9,15.1-25.4,20-46.2c7.9-33.5-21.5-53.9-28.7-63.6c-28.9-39.1-72-67.2-120-57.8
		c-53.1,10.3-32.4,71.8-71,68c-62.5-6-17.3-107.8-55.9-138.9c-59.7-48-59,53.7-133.3,76.7c-34.3,10.6-69.1-76.3-133.3,23.7
		c-14,21.8-277.1-97.3-371.2-81.1c-47.9,8.3-58.6,61.7-84.9,101.4c-9.2,13.8-23.1,9.8-38.3,6.2c-10.3-2.4-28.1-0.2-37.2,2.6
		c-6.8,2.1-18,11.6-24.8,14.1c-9.2,3.5-17-2.9-19.4-12.1l0-0.2c-8.6-33.1-14.4-39.6-21.1-60.1c-3.1,0.5-6.2,0.9-9.2,1.4
		c-33,4.8-66.1,7.9-99.3,10.7c-32.9,2.8-65.8,5.2-98.6,8.8c-20.2,2.2-40.5,4.9-60.6,8.4c0.5,1.1,1,2.2,1.5,3.4
		c7.4,16.7-46.1,14.3-41,57.7c10,85.4,81,111,93.8,131.4c13.5,21.6-6,29.7-12.6,38.2c-11.8,15.1-12.8,32-9,44.6
		c10.5,35.5,55.7,72.3,86.4,39.2c18.8-20.2,4-60.7,18.9-82c17.7-25.4,22.2-28.4,29.7-24.9c5.5,2.6,10.1,7,13.4,12.6
		c12.8,21.9,40.3,75.6,87.8,63.6c43-10.8,64.3-32.3,74.6-48.8c9.1-14.6,28.6-16.1,38.9-2.4c1.3,1.7,2.3,3.4,3,5.3
		c4.3,11.5,9.5,24.5,14,32.6c11.3,20.3,13.2,45.2,5.5,67.4c-4.7,13.8-5.6,29.3-1.7,44.5c8.6,33.1,22.8,53.2,51.3,64.6
		c12.1,4.8,140.3-25.7,178.5,127.1c8.3,33.3,35.1,38.4,59.9,31.9c29.4-7.8,46.7-40.5,38.5-71.9c-0.5-2-1.1-4-1.8-5.9
		c-5.4-14.7-4.5-31.2,3.1-44.7c18.9-33.8,25.3-75.7,14.6-116.8c-0.8-3.2-1.8-6.4-2.8-9.6c-9.2-27.9-5.5-58.8,8.8-83.9
		c4.7-8.2,18.7-20.3,26.5-24.1c29.9-14.2,100.3-4.4,107,23c4.6,18.7-9.6,45.9-4.4,66c11.9,46.7,55.3,74.1,98.3,62
		c44.1-12.5,69.9-61.9,57.4-109.5c-0.6-2.2-1.2-4.4-1.9-6.5c-2.7-8,1.1-16.8,8.3-19.7l0.3-0.1c12-4.9,25.3-4,36.8,2.3
		c9,5,19.8,6.3,30.3,2.7C291.1,670.8,302.9,646.5,296.8,623.7z"/>
</g>
</svg>
