<?xml version="1.0" encoding="utf-8"?>
<!-- Generator: Adobe Illustrator 23.0.1, SVG Export Plug-In . SVG Version: 6.00 Build 0)  -->
<svg version="1.1" id="Layer_1" xmlns="http://www.w3.org/2000/svg" xmlns:xlink="http://www.w3.org/1999/xlink" x="0px" y="0px"
	 viewBox="0 0 1409 672.4" style="enable-background:new 0 0 1409 672.4;" xml:space="preserve">
<style type="text/css">
	.st0{fill:none;}
	.st1{fill:#FF90FF;}
	.st2{fill:url(#SVGID_1_);}
</style>
<pattern  y="681.8" width="235" height="134" patternUnits="userSpaceOnUse" id="New_Pattern" viewBox="0 -141.3 235 134" style="overflow:visible;">
	<g>
		<rect y="-141.3" class="st0" width="235" height="134"/>
		<g>
			<rect y="-141.3" class="st0" width="235" height="134"/>
			<g>
				<path d="M208.3-156.6c-0.6-2.2-1.6-4.2-2.6-6.2c-0.6-1.1-1.2-2.2-1.8-3.3c-0.2-0.4-0.6-0.4-0.9-0.4c-1.2,0-2.4,0-3.7,0
					c-0.6,0-1.1,0.2-1.3,0.7c-1.1,2.3-2.3,4.6-3.4,7c-0.6,1.4-1,2.9-0.9,4.4c0.1,1.3,0.6,2.4,1.5,3.4c0.6,0.7,1.4,1.3,2.3,1.7
					c0.1,0,0.1,0.1,0.1,0.1c0,0-0.1,0-0.1,0c-0.4,0.7-0.8,1.4-1,2.2c-0.4,1.7,0.1,3.6,1.6,4.7c0.9,0.6,1.8,1,2.8,1.1
					c0.2,0,0.4,0,0.7-0.1c0.3,0,0.5,0,0.7,0.3c1.5,2.2,3,4.4,4.5,6.6c0.1,0.1,0.2,0.3,0.3,0.4c0.8-0.3,0.8-0.3,0.5-1.1
					c-0.6-1.6-1.3-3.2-2-4.8c-0.4-0.8-0.7-1.7-1-2.5c-0.1-0.1,0-0.4,0.1-0.5c0.6-0.7,1.1-1.5,1.2-2.5c0.1-1.3-0.1-2.5-0.9-3.5
					c-0.1-0.1-0.1-0.1-0.1-0.2c0,0,0-0.1,0-0.1c0.8-0.4,1.6-0.9,2.2-1.5C208.5-152.4,208.9-154.4,208.3-156.6z M203.9-146.5
					c-0.4,0.8-0.7,1.6-1,2.4c0,0.1-0.2,0.2-0.2,0.2c-0.2-0.2-0.6-0.4-0.6-0.7c-0.1-0.4,0-0.8,0.1-1.2
					C202.3-146.6,203.2-147,203.9-146.5z"/>
			</g>
			<g>
				<g>
					<circle cx="84.3" cy="-141.9" r="1.2"/>
				</g>
			</g>
			<g>
				<g>
					<path d="M210.6-79.5c-2.2,2.3-5.3,3.7-8.8,3.7s-6.6-1.4-8.8-3.7H210.6z"/>
					<path d="M219.8-86.9c-0.8-3.1-3-4.8-6-5.4c-0.1,0-0.3-0.1-0.4-0.2c-0.2,0.1-0.4,0.2-0.5,0.3c-1.8-4.3-6-7.4-11-7.4
						c-4.9,0-9.1,3-10.9,7.2v-0.1c0,0.1-0.1,0.2-0.1,0.3c-0.9,0.3-1.7,0.4-2.3,0.8c-1.5,1-2.3,2.5-2.7,4.2c-0.3,1.2-0.4,2.4-0.7,3.6
						c-0.4,1.7-1.2,3.3-2.7,4.4c-0.1,0.1-0.1,0.2-0.3,0.4c1,0.2,1.9,0.5,2.9,0.6c0.4,0,0.9-0.2,1.2-0.5c0.6-0.7,1.1-1.4,1.6-2.2
						c0.5-0.6,0.9-1.3,1.5-1.9c0.6-0.7,0.9-0.8,1.3-0.3c0.5,1.3,1.2,2.4,2.1,3.4h17.9c0.6-0.7,1.1-1.5,1.6-2.3v0.1
						c0.2,0,0.4,0.2,0.6,0.3c0.5,0.4,1,0.9,1.5,1.3c1.6,1.2,3.2,0.9,4.4-0.7C220.2-83,220.3-84.9,219.8-86.9z M218.9-83.5
						c-0.2,0.6-0.5,1.2-0.9,1.7c-0.9,1-2.5,1-3.1-0.2c-0.5-0.9-1-2.1-0.8-3c0.3-1.8,0.5-3.6,0.3-5.6c0.7,0.2,1.2,0.3,1.7,0.6
						C218.2-88.8,219.5-85.8,218.9-83.5z"/>
					<circle cx="201.8" cy="-74.9" r="1.2"/>
				</g>
				<path d="M151.9-88.2c-0.1-0.6-0.2-1.1-0.4-1.7c-0.2-0.5-0.3-1.1-0.6-1.6c-0.4-1.1-1-2.1-1.8-3c-0.2-0.2-0.4-0.4-0.7-0.7
					c-0.3-0.2-0.5-0.4-0.9-0.5c-0.2-0.1-0.4-0.1-0.5-0.2c-0.2,0-0.4,0-0.6,0c-0.4,0.1-0.7,0.2-1,0.5c-0.1,0.1-0.1,0.1-0.1,0.2v-3.2
					c0-0.7-0.5-1.2-1.2-1.2h-15.2c-0.7,0-1.2,0.5-1.2,1.2v19.8c0,0.7,0.5,1.2,1.2,1.2h15.2c0.7,0,1.2-0.5,1.2-1.2v-4.3
					c0.3,0.3,0.7,0.7,1.1,1c0.5,0.3,1,0.7,1.6,0.8c0.1,0.1,0.3,0.1,0.5,0.1c0.2,0,0.4,0,0.5,0c0.4,0,0.8-0.1,1.1-0.3
					c0.4-0.2,0.7-0.4,0.9-0.7c0.2-0.3,0.4-0.6,0.5-0.9c0.3-0.6,0.4-1.2,0.4-1.8C152.2-85.9,152.1-87,151.9-88.2z M150-84.9
					c0,0.5-0.1,0.9-0.2,1.3c-0.1,0.2-0.1,0.4-0.2,0.5c-0.1,0.2-0.2,0.3-0.3,0.3c-0.2,0.2-0.6,0.3-1,0.2c-0.4-0.1-0.9-0.2-1.4-0.4
					c-0.5-0.2-1.1-0.5-1.6-0.8v-10.2c0.2-0.3,0.5-0.5,0.7-0.6c0.2-0.1,0.4-0.1,0.5-0.1s0.3,0.1,0.4,0.2c0.3,0.2,0.6,0.6,0.8,0.9
					c0.5,0.8,0.9,1.7,1.2,2.7c0.3,1,0.6,1.9,0.7,2.9c0.1,0.5,0.2,1,0.2,1.5C150-85.8,150-85.3,150-84.9z"/>
				<path d="M90.8-89.6c-0.6-2.2-1.6-4.2-2.6-6.2c-0.6-1.1-1.2-2.2-1.8-3.3c-0.2-0.4-0.6-0.4-0.9-0.4c-1.2,0-2.5,0-3.7,0
					c-0.6,0-1.1,0.2-1.3,0.7c-1.1,2.3-2.3,4.6-3.4,7c-0.6,1.4-1,2.9-0.9,4.4c0.1,1.3,0.6,2.4,1.5,3.4c0.7,0.7,1.4,1.3,2.3,1.7
					c0.1,0,0.1,0.1,0.1,0.1c0,0-0.1,0-0.1,0c-0.3,0.7-0.8,1.4-1,2.2c-0.4,1.7,0.2,3.6,1.6,4.7c0.9,0.6,1.8,1,2.8,1.1
					c0.2,0,0.4-0.1,0.7-0.1c0.3,0,0.5,0,0.7,0.3c1.5,2.2,3,4.4,4.5,6.6c0.1,0.1,0.2,0.3,0.3,0.4c0.8-0.3,0.8-0.3,0.5-1.1
					c-0.7-1.6-1.3-3.2-2-4.8c-0.3-0.8-0.7-1.7-1-2.6c-0.1-0.1,0-0.4,0.1-0.5c0.6-0.7,1.1-1.5,1.2-2.5c0.1-1.3-0.1-2.5-0.9-3.5
					c-0.1-0.1-0.1-0.1-0.1-0.2c0,0,0-0.1,0-0.1c0.8-0.3,1.6-0.9,2.2-1.5C91-85.4,91.4-87.4,90.8-89.6z M86.4-79.5
					c-0.3,0.8-0.7,1.6-1,2.4c0,0.1-0.2,0.2-0.2,0.2c-0.2-0.2-0.6-0.4-0.6-0.7c-0.1-0.4,0-0.8,0.1-1.2C84.8-79.6,85.7-80,86.4-79.5z"
					/>
				<path d="M22.9-81l1.6,4.6h-9l1.6-4.6c-2.9-1.5-4.9-5.1-4.9-9.4c0-4.1,1.8-7.6,4.5-9.2h6.6c2.6,1.6,4.5,5.2,4.5,9.2
					C27.8-86.2,25.7-82.5,22.9-81z"/>
			</g>
			<g>
				<path d="M208.3-22.6c-0.6-2.2-1.6-4.2-2.6-6.2c-0.6-1.1-1.2-2.2-1.8-3.3c-0.2-0.4-0.6-0.4-0.9-0.4c-1.2,0-2.4,0-3.7,0
					c-0.6,0-1.1,0.2-1.3,0.7c-1.1,2.3-2.3,4.6-3.4,7c-0.6,1.4-1,2.9-0.9,4.4c0.1,1.3,0.6,2.4,1.5,3.4c0.6,0.7,1.4,1.3,2.3,1.7
					c0.1,0,0.1,0.1,0.1,0.1c0,0-0.1,0-0.1,0c-0.4,0.7-0.8,1.4-1,2.2c-0.4,1.7,0.1,3.6,1.6,4.7c0.9,0.6,1.8,1,2.8,1.1
					c0.2,0,0.4-0.1,0.7-0.1c0.3,0,0.5,0,0.7,0.3c1.5,2.2,3,4.4,4.5,6.6c0.1,0.1,0.2,0.3,0.3,0.4c0.8-0.3,0.8-0.3,0.5-1.1
					c-0.6-1.6-1.3-3.2-2-4.8c-0.4-0.9-0.7-1.7-1-2.6c-0.1-0.1,0-0.4,0.1-0.5c0.6-0.7,1.1-1.5,1.2-2.5c0.1-1.3-0.1-2.5-0.9-3.5
					c-0.1-0.1-0.1-0.1-0.1-0.2c0,0,0-0.1,0-0.1c0.8-0.4,1.6-0.9,2.2-1.5C208.5-18.4,208.9-20.4,208.3-22.6z M203.9-12.5
					c-0.4,0.8-0.7,1.6-1,2.4c0,0.1-0.2,0.2-0.2,0.2c-0.2-0.2-0.6-0.4-0.6-0.7c-0.1-0.4,0-0.8,0.1-1.2
					C202.3-12.6,203.2-13,203.9-12.5z"/>
				<path d="M140.4-14l1.6,4.6h-9l1.6-4.6c-2.9-1.5-4.9-5.1-4.9-9.4c0-4.1,1.8-7.6,4.5-9.2h6.6c2.6,1.6,4.5,5.1,4.5,9.2
					C145.3-19.2,143.2-15.5,140.4-14z"/>
			</g>
			<g>
				<g>
					<path d="M93.1-12.5c-2.2,2.3-5.3,3.7-8.8,3.7s-6.6-1.4-8.8-3.7H93.1z"/>
					<path d="M102.3-19.9c-0.8-3.1-3-4.8-6-5.4c-0.2,0-0.3-0.1-0.4-0.2c-0.2,0.1-0.4,0.2-0.5,0.3c-1.8-4.3-6-7.4-11-7.4
						c-4.9,0-9.1,3-10.9,7.2v-0.1c0,0.1-0.1,0.2-0.1,0.3c-0.9,0.3-1.7,0.4-2.3,0.8c-1.5,1-2.3,2.5-2.7,4.2c-0.3,1.2-0.4,2.4-0.7,3.6
						c-0.4,1.7-1.2,3.3-2.7,4.4c-0.1,0.1-0.1,0.2-0.3,0.4c1,0.2,1.9,0.5,2.9,0.6c0.4,0,0.9-0.2,1.2-0.5c0.6-0.6,1.1-1.4,1.6-2.1
						c0.5-0.6,0.9-1.3,1.5-1.9c0.6-0.7,0.9-0.8,1.3-0.4c0.5,1.3,1.2,2.4,2.1,3.4h17.9c0.6-0.7,1.2-1.5,1.6-2.3v0.1
						c0.2,0,0.4,0.2,0.6,0.3c0.5,0.4,1,0.9,1.5,1.3c1.6,1.1,3.2,0.9,4.4-0.7C102.7-16,102.8-17.9,102.3-19.9z M101.4-16.5
						c-0.2,0.6-0.5,1.2-0.9,1.7c-0.9,1-2.5,1-3.1-0.1c-0.5-0.9-1-2.1-0.8-3c0.3-1.8,0.5-3.6,0.3-5.6c0.7,0.2,1.2,0.3,1.7,0.6
						C100.7-21.8,102-18.8,101.4-16.5z"/>
					<circle cx="84.3" cy="-7.9" r="1.2"/>
				</g>
				<path d="M34.4-21.2c-0.1-0.6-0.2-1.1-0.4-1.7c-0.2-0.5-0.3-1.1-0.6-1.6c-0.4-1.1-1-2.1-1.8-3c-0.2-0.2-0.4-0.4-0.7-0.6
					c-0.3-0.2-0.5-0.4-0.9-0.5c-0.2-0.1-0.4-0.1-0.5-0.1c-0.2,0-0.4,0-0.6,0c-0.4,0.1-0.7,0.2-1,0.5c-0.1,0.1-0.1,0.1-0.2,0.2v-3.2
					c0-0.7-0.5-1.2-1.2-1.2H11.4c-0.7,0-1.2,0.5-1.2,1.2v19.8c0,0.7,0.5,1.2,1.2,1.2h15.2c0.7,0,1.2-0.5,1.2-1.2v-4.3
					c0.3,0.4,0.7,0.7,1.1,1c0.5,0.3,1,0.6,1.6,0.8c0.1,0.1,0.3,0.1,0.5,0.1c0.2,0,0.4,0,0.5,0c0.4,0,0.8-0.1,1.1-0.3
					c0.4-0.2,0.7-0.4,0.9-0.7c0.2-0.3,0.4-0.6,0.5-0.9c0.3-0.6,0.4-1.2,0.5-1.8C34.7-18.9,34.6-20,34.4-21.2z M32.5-17.9
					c0,0.5-0.1,0.9-0.2,1.3c-0.1,0.2-0.1,0.4-0.2,0.5c-0.1,0.1-0.2,0.3-0.3,0.3c-0.2,0.2-0.6,0.3-1,0.2c-0.4-0.1-0.9-0.2-1.4-0.4
					c-0.5-0.2-1.1-0.5-1.6-0.8v-10.2c0.2-0.3,0.5-0.5,0.7-0.6c0.2-0.1,0.4-0.1,0.5-0.1s0.3,0.1,0.4,0.2c0.3,0.2,0.6,0.6,0.8,0.9
					c0.5,0.8,0.9,1.7,1.2,2.7c0.3,1,0.6,1.9,0.7,2.9c0.1,0.5,0.2,1,0.2,1.5C32.5-18.8,32.5-18.3,32.5-17.9z"/>
			</g>
		</g>
	</g>
</pattern>
<rect y="-0.2" class="st1" width="1409" height="673"/>
<g>
	<path d="M748.4-97c-3.5-3.6-8.5-5.9-14.2-5.9s-10.7,2.3-14.2,5.9H748.4z"/>
	<path d="M761.8-94.2c-1.9-2.5-4.5-3-7.1-1.1c-0.9,0.6-1.6,1.4-2.5,2c-0.3,0.2-0.6,0.4-1,0.4v0.2c-0.7-1.3-1.6-2.6-2.6-3.8h-28.9
		c-1.4,1.6-2.6,3.5-3.4,5.5c-0.6,0.7-1.2,0.5-2.2-0.6c-0.9-1-1.6-2-2.4-3.1c-0.9-1.2-1.6-2.4-2.6-3.5c-0.5-0.5-1.4-0.9-2-0.9
		c-1.5,0.2-3,0.6-4.7,1c0.2,0.3,0.3,0.5,0.4,0.6c2.4,1.8,3.6,4.3,4.3,7c0.5,1.9,0.7,3.9,1.1,5.8c0.6,2.8,2,5.2,4.4,6.8
		c0.9,0.6,2.1,0.8,3.7,1.3c0,0.1,0.1,0.3,0.2,0.4v-0.2c2.9,6.8,9.7,11.6,17.6,11.6c8,0,14.9-4.9,17.8-11.9c0.3,0.2,0.5,0.4,0.8,0.5
		c0.1-0.2,0.4-0.3,0.7-0.3c4.9-1.1,8.3-3.8,9.7-8.8C764.1-88.3,764-91.4,761.8-94.2z M757.2-80.1c-0.8,0.4-1.6,0.6-2.7,1
		c0.3-3.3,0-6.2-0.5-9.1c-0.3-1.5,0.5-3.4,1.3-4.8c1-1.8,3.6-1.8,5-0.2c0.7,0.7,1.2,1.7,1.4,2.7C762.8-86.8,760.7-82,757.2-80.1z"/>
	<circle cx="734.1" cy="-104.5" r="1.9"/>
</g>
<path d="M672.7-88.6c-0.1-1-0.3-1.9-0.7-2.9c-0.2-0.5-0.5-1-0.9-1.5c-0.4-0.5-0.9-0.9-1.4-1.2c-0.6-0.3-1.2-0.4-1.8-0.4
	c-0.3,0-0.6,0-0.9,0.1c-0.3,0-0.5,0.1-0.8,0.2c-1,0.3-1.8,0.8-2.6,1.4c-0.7,0.5-1.2,1-1.8,1.6v-7c0-1.1-0.9-2-2-2h-24.6
	c-1.1,0-2,0.9-2,2v32c0,1.1,0.9,2,2,2h24.6c1.1,0,2-0.9,2-2v-5.2c0.1,0.1,0.2,0.2,0.3,0.3c0.4,0.4,1,0.6,1.6,0.8c0.3,0.1,0.6,0,1,0
	c0.3-0.1,0.6-0.1,0.9-0.2c0.6-0.2,1-0.5,1.4-0.8c0.4-0.3,0.8-0.7,1.1-1.1c1.3-1.5,2.2-3.2,2.9-4.9c0.3-0.8,0.6-1.7,0.9-2.6
	c0.2-0.9,0.5-1.8,0.6-2.7C672.8-84.8,672.9-86.7,672.7-88.6z M669.4-86c-0.1,0.8-0.2,1.6-0.3,2.4c-0.3,1.6-0.7,3.2-1.2,4.8
	c-0.5,1.5-1.1,3.1-1.9,4.3c-0.4,0.6-0.9,1.2-1.3,1.5c-0.2,0.2-0.5,0.3-0.7,0.3c-0.2,0-0.5,0-0.8-0.2c-0.4-0.2-0.8-0.5-1.2-0.9v-16.5
	c0.9-0.5,1.7-0.9,2.6-1.3c0.8-0.3,1.5-0.6,2.2-0.6c0.7-0.1,1.3,0,1.6,0.3c0.2,0.1,0.3,0.3,0.5,0.6c0.1,0.2,0.3,0.5,0.3,0.8
	c0.2,0.6,0.3,1.4,0.3,2.1C669.5-87.6,669.5-86.8,669.4-86z"/>
<path d="M590.3-90.2c-1-1.1-2.2-1.9-3.6-2.4c0-0.1,0-0.1,0-0.2c0.1-0.1,0.1-0.2,0.2-0.3c1.2-1.7,1.6-3.6,1.4-5.7
	c-0.2-1.6-1-2.8-1.9-4c-0.2-0.2-0.2-0.6-0.2-0.8c0.5-1.4,1.1-2.8,1.7-4.1c1.1-2.6,2.2-5.2,3.2-7.8c0.5-1.2,0.5-1.2-0.8-1.7
	c-0.2,0.2-0.3,0.4-0.5,0.6c-2.4,3.6-4.9,7.1-7.3,10.7c-0.3,0.4-0.6,0.6-1.1,0.5c-0.4,0-0.7-0.1-1.1-0.1c-1.7,0.1-3.2,0.7-4.6,1.7
	c-2.4,1.8-3.4,4.9-2.7,7.6c0.3,1.3,1.1,2.4,1.7,3.6c0.1,0,0.1,0,0.2-0.1c-0.1,0.1-0.1,0.1-0.2,0.2c-1.4,0.7-2.6,1.6-3.7,2.8
	c-1.4,1.6-2.3,3.3-2.4,5.5c-0.1,2.5,0.5,4.9,1.5,7.2c1.8,3.8,3.7,7.5,5.5,11.3c0.5,0.9,1.2,1.2,2.2,1.2c2,0,4,0,5.9,0
	c0.6,0,1.2-0.2,1.5-0.7c1-1.8,2-3.6,3-5.4c1.7-3.2,3.3-6.5,4.3-10C593.7-84.3,593-87.5,590.3-90.2z M582.7-98.3
	c-0.2-0.6-0.3-1.3-0.2-1.9c0.1-0.4,0.7-0.8,1-1.1c0,0,0.3,0.1,0.4,0.3c0.6,1.3,1.1,2.6,1.7,3.9C584.6-96.2,583.1-96.9,582.7-98.3z"
	/>
<path d="M520.5-94.6l2.6-7.4h-14.6l2.6,7.4c-4.6,2.4-7.9,8.3-7.9,15.2c0,6.6,3,12.2,7.2,14.8h10.6c4.3-2.6,7.2-8.3,7.2-14.9
	C528.3-86.3,525-92.1,520.5-94.6z"/>
<pattern  id="SVGID_1_" xlink:href="#New_Pattern" patternTransform="matrix(1 0 0 -1 -11 -16387.6777)">
</pattern>
<rect y="-0.2" class="st2" width="1409" height="673"/>
</svg>
