<?xml version="1.0" encoding="utf-8"?>
<!-- Generator: Adobe Illustrator 23.0.1, SVG Export Plug-In . SVG Version: 6.00 Build 0)  -->
<svg version="1.1" id="Layer_1" xmlns="http://www.w3.org/2000/svg" xmlns:xlink="http://www.w3.org/1999/xlink" x="0px" y="0px"
	 viewBox="0 0 363 1277.6" style="enable-background:new 0 0 363 1277.6;" xml:space="preserve">
<style type="text/css">
	.st0{fill:none;}
	.st1{fill:#FF90FF;}
	.st2{fill:url(#New_Pattern_2);}
</style>
<pattern  x="2.4" y="644.2" width="143" height="80" patternUnits="userSpaceOnUse" id="New_Pattern_2" viewBox="2.3 -80 143 80" style="overflow:visible;">
	<g>
		<rect x="2.3" y="-80" class="st0" width="143" height="80"/>
		<g>
			<g>
				<path d="M112.1-28.9c1.6-1.7,4-2.8,6.6-2.8c2.7,0,5,1.1,6.6,2.8H112.1z"/>
				<path d="M132.3-23.5c-0.7,2.3-2.2,3.6-4.5,4.1c-0.1,0-0.3,0-0.3,0.1c-0.1,0-0.2-0.1-0.4-0.2c-1.4,3.3-4.6,5.6-8.3,5.6
					c-3.7,0-6.9-2.2-8.2-5.4v0.1c0,0-0.1-0.1-0.1-0.2c-0.7-0.2-1.3-0.3-1.7-0.6c-1.1-0.7-1.8-1.9-2.1-3.2c-0.2-0.9-0.3-1.8-0.5-2.7
					c-0.3-1.3-0.9-2.4-2-3.3c0,0-0.1-0.1-0.2-0.3c0.8-0.2,1.5-0.4,2.2-0.5c0.3,0,0.7,0.2,0.9,0.4c0.5,0.5,0.8,1.1,1.2,1.6
					c0.4,0.5,0.7,1,1.1,1.5c0.5,0.5,0.7,0.6,1,0.3c0.4-0.9,0.9-1.8,1.6-2.6h13.5c0.5,0.6,0.9,1.2,1.2,1.8V-27c0.2,0,0.3-0.1,0.5-0.2
					c0.4-0.3,0.7-0.7,1.2-0.9c1.2-0.9,2.4-0.7,3.3,0.5C132.7-26.3,132.8-24.9,132.3-23.5z M131.6-25.9c-0.1-0.5-0.3-0.9-0.7-1.3
					c-0.7-0.7-1.9-0.7-2.3,0.1c-0.4,0.7-0.7,1.5-0.6,2.2c0.2,1.4,0.4,2.7,0.2,4.3c0.5-0.2,0.9-0.3,1.3-0.5
					C131.2-21.9,132.2-24.2,131.6-25.9z"/>
				<circle cx="118.7" cy="-32.4" r="0.9"/>
			</g>
			<path d="M89.9-22.2c0,0.4-0.2,0.8-0.3,1.3c-0.1,0.4-0.3,0.8-0.4,1.2c-0.3,0.8-0.7,1.6-1.4,2.3c-0.1,0.2-0.3,0.4-0.5,0.5
				c-0.2,0.1-0.4,0.3-0.7,0.4c-0.1,0-0.3,0-0.4,0.1c-0.2,0-0.3,0-0.5,0c-0.3-0.1-0.6-0.2-0.7-0.4c0,0-0.1-0.1-0.1-0.1v2.4
				c0,0.5-0.4,0.9-0.9,0.9H72.4c-0.5,0-0.9-0.4-0.9-0.9v-15c0-0.5,0.4-0.9,0.9-0.9H84c0.5,0,0.9,0.4,0.9,0.9v3.3
				c0.3-0.3,0.5-0.5,0.8-0.7c0.4-0.3,0.7-0.5,1.2-0.7c0.1,0,0.2-0.1,0.4-0.1c0.1,0,0.3,0,0.4,0c0.3,0,0.6,0,0.8,0.2
				c0.2,0.1,0.5,0.3,0.7,0.6c0.2,0.2,0.3,0.5,0.4,0.7c0.2,0.5,0.3,0.9,0.3,1.4C90.1-24.1,90-23.2,89.9-22.2z M88.5-24.9
				c0-0.3,0-0.7-0.1-1c0-0.1-0.1-0.3-0.1-0.4c-0.1-0.1-0.1-0.2-0.2-0.3c-0.1-0.1-0.4-0.2-0.7-0.1c-0.3,0-0.7,0.1-1,0.3
				c-0.4,0.2-0.8,0.4-1.2,0.6v7.7c0.2,0.2,0.4,0.3,0.6,0.4c0.1,0.1,0.3,0.1,0.4,0.1s0.2,0,0.3-0.1c0.2-0.1,0.4-0.4,0.6-0.7
				c0.4-0.6,0.7-1.3,0.9-2c0.2-0.7,0.4-1.5,0.6-2.2c0-0.4,0.1-0.7,0.1-1.1S88.5-24.5,88.5-24.9z"/>
			<path d="M52.4-21.3c-0.5,1.6-1.2,3.2-2,4.7C50-15.7,49.5-14.9,49-14c-0.1,0.2-0.4,0.3-0.7,0.3c-0.9,0-1.8,0-2.8,0
				c-0.5,0-0.8-0.1-1-0.6c-0.8-1.8-1.7-3.5-2.6-5.3c-0.5-1.1-0.7-2.2-0.7-3.4c0-1,0.5-1.8,1.1-2.6c0.5-0.6,1.1-1,1.7-1.3
				c0,0,0,0,0.1-0.1c0,0,0,0-0.1,0c-0.3-0.6-0.7-1.1-0.8-1.7c-0.3-1.3,0.1-2.7,1.3-3.6c0.7-0.5,1.4-0.7,2.2-0.8c0.2,0,0.3,0,0.5,0
				c0.2,0,0.4,0,0.5-0.2c1.1-1.7,2.3-3.3,3.4-5c0.1-0.1,0.1-0.2,0.2-0.3c0.6,0.2,0.6,0.2,0.4,0.8c-0.5,1.2-1,2.4-1.5,3.7
				c-0.3,0.6-0.6,1.3-0.8,1.9c0,0.1,0,0.3,0.1,0.4c0.4,0.6,0.8,1.1,0.9,1.9c0.1,1-0.1,1.9-0.7,2.7c0,0,0,0.1-0.1,0.1c0,0,0,0,0,0.1
				c0.7,0.2,1.2,0.6,1.7,1.1C52.7-24.5,53-23,52.4-21.3z M49.2-29c-0.3-0.6-0.5-1.2-0.8-1.8c0-0.1-0.2-0.1-0.2-0.1
				c-0.1,0.1-0.4,0.3-0.5,0.5c0,0.3,0,0.6,0.1,0.9C48-28.9,48.8-28.6,49.2-29z"/>
			<path d="M14.3-21.3c0,3.1-1.4,5.8-3.4,7H6c-2-1.2-3.4-3.8-3.4-6.9c0-3.2,1.5-6,3.7-7.1l-1.2-3.5h6.8l-1.2,3.5
				C12.8-27.2,14.4-24.5,14.3-21.3z"/>
		</g>
		<g>
			<path d="M161.4-62.2c0,0.4-0.2,0.8-0.3,1.3c-0.1,0.4-0.3,0.8-0.4,1.2c-0.3,0.8-0.7,1.6-1.4,2.3c-0.1,0.2-0.3,0.4-0.5,0.5
				s-0.4,0.3-0.7,0.4c-0.1,0-0.3,0-0.4,0.1c-0.2,0-0.3,0-0.5,0c-0.3-0.1-0.6-0.2-0.7-0.4c0,0-0.1-0.1-0.1-0.1v2.4
				c0,0.5-0.4,0.9-0.9,0.9h-11.5c-0.5,0-0.9-0.4-0.9-0.9v-15c0-0.5,0.4-0.9,0.9-0.9h11.5c0.5,0,0.9,0.4,0.9,0.9v3.3
				c0.3-0.3,0.5-0.5,0.8-0.7c0.4-0.3,0.7-0.5,1.2-0.7c0.1,0,0.2-0.1,0.4-0.1c0.1,0,0.3,0,0.4,0c0.3,0,0.6,0,0.8,0.2
				c0.2,0.1,0.5,0.3,0.7,0.6s0.3,0.5,0.4,0.7c0.2,0.5,0.3,0.9,0.3,1.4C161.6-64.1,161.5-63.2,161.4-62.2z M160-64.9
				c0-0.3,0-0.7-0.1-1c0-0.1-0.1-0.3-0.1-0.4c-0.1-0.1-0.1-0.2-0.2-0.3c-0.1-0.1-0.4-0.2-0.7-0.1c-0.3,0-0.7,0.1-1,0.3
				c-0.4,0.2-0.8,0.4-1.2,0.6v7.7c0.2,0.2,0.4,0.3,0.6,0.4c0.1,0.1,0.3,0.1,0.4,0.1c0.1,0,0.2,0,0.3-0.1c0.2-0.1,0.4-0.4,0.6-0.7
				c0.4-0.6,0.7-1.3,0.9-2c0.2-0.7,0.4-1.5,0.6-2.2c0-0.4,0.1-0.7,0.1-1.1C160-64.2,160-64.5,160-64.9z"/>
			<path d="M123.9-61.3c-0.5,1.6-1.2,3.2-2,4.7c-0.5,0.8-0.9,1.7-1.4,2.5c-0.1,0.2-0.4,0.3-0.7,0.3c-0.9,0-1.8,0-2.8,0
				c-0.5,0-0.8-0.1-1-0.6c-0.8-1.8-1.7-3.5-2.6-5.3c-0.5-1.1-0.7-2.2-0.7-3.4c0-1,0.5-1.8,1.1-2.6c0.5-0.6,1.1-1,1.7-1.3
				c0,0,0,0,0.1-0.1c0,0,0,0-0.1,0c-0.3-0.6-0.7-1.1-0.8-1.7c-0.3-1.3,0.1-2.7,1.3-3.6c0.7-0.5,1.4-0.7,2.2-0.8c0.2,0,0.3,0,0.5,0
				c0.2,0,0.4,0,0.5-0.2c1.1-1.7,2.3-3.3,3.4-5c0.1-0.1,0.1-0.2,0.2-0.3c0.6,0.2,0.6,0.2,0.4,0.8c-0.5,1.2-1,2.4-1.5,3.7
				c-0.3,0.6-0.6,1.3-0.8,1.9c0,0.1,0,0.3,0.1,0.4c0.4,0.6,0.8,1.1,0.9,1.9c0.1,1-0.1,1.9-0.7,2.7c0,0,0,0.1-0.1,0.1c0,0,0,0,0,0.1
				c0.7,0.2,1.2,0.6,1.7,1.1C124.2-64.5,124.5-63,123.9-61.3z M120.7-69c-0.3-0.6-0.5-1.2-0.8-1.8c0-0.1-0.2-0.1-0.2-0.1
				c-0.1,0.1-0.4,0.3-0.5,0.5c0,0.3,0,0.6,0.1,0.9C119.5-68.9,120.3-68.6,120.7-69z"/>
			<path d="M85.8-61.3c0,3.1-1.4,5.8-3.4,7h-5c-2-1.2-3.4-3.8-3.4-6.9c0-3.2,1.5-6,3.7-7.1l-1.2-3.5h6.8l-1.2,3.5
				C84.3-67.2,85.9-64.5,85.8-61.3z"/>
		</g>
		<g>
			<g>
				<path d="M40.6-68.9c1.6-1.7,4-2.8,6.6-2.8s5,1.1,6.6,2.8H40.6z"/>
				<path d="M60.8-63.5c-0.7,2.3-2.2,3.6-4.5,4.1c-0.1,0-0.3,0-0.3,0.1c-0.1,0-0.2-0.1-0.4-0.2c-1.4,3.3-4.6,5.6-8.3,5.6
					c-3.7,0-6.9-2.2-8.2-5.4v0.1c0,0-0.1-0.1-0.1-0.2c-0.7-0.2-1.3-0.3-1.7-0.6c-1.1-0.7-1.8-1.9-2.1-3.2c-0.2-0.9-0.3-1.8-0.5-2.7
					c-0.3-1.3-0.9-2.4-2-3.3c0,0-0.1-0.1-0.2-0.3c0.8-0.2,1.5-0.4,2.2-0.5c0.3,0,0.7,0.2,0.9,0.4c0.5,0.5,0.8,1.1,1.2,1.6
					c0.4,0.5,0.7,1,1.1,1.5c0.5,0.5,0.7,0.6,1,0.3c0.4-0.9,0.9-1.8,1.6-2.6H54c0.5,0.6,0.9,1.2,1.2,1.8V-67c0.2,0,0.3-0.1,0.5-0.2
					c0.4-0.3,0.7-0.7,1.2-0.9c1.2-0.9,2.4-0.7,3.3,0.5C61.2-66.3,61.3-64.9,60.8-63.5z M60.1-65.9c-0.1-0.5-0.3-0.9-0.7-1.3
					c-0.7-0.7-1.9-0.7-2.3,0.1c-0.4,0.7-0.7,1.5-0.6,2.2c0.2,1.4,0.4,2.7,0.2,4.3c0.5-0.2,0.9-0.3,1.3-0.5
					C59.7-61.9,60.7-64.2,60.1-65.9z"/>
				<circle cx="47.2" cy="-72.4" r="0.9"/>
			</g>
			<path d="M18.4-62.2c0,0.4-0.2,0.8-0.3,1.3c-0.1,0.4-0.3,0.8-0.4,1.2c-0.3,0.8-0.7,1.6-1.4,2.3c-0.1,0.2-0.3,0.4-0.5,0.5
				s-0.4,0.3-0.7,0.4c-0.1,0-0.3,0-0.4,0.1c-0.2,0-0.3,0-0.5,0c-0.3-0.1-0.6-0.2-0.7-0.4c0,0-0.1-0.1-0.1-0.1v2.4
				c0,0.5-0.4,0.9-0.9,0.9H0.9C0.4-53.6,0-54,0-54.6v-15c0-0.5,0.4-0.9,0.9-0.9h11.5c0.5,0,0.9,0.4,0.9,0.9v3.3
				c0.3-0.3,0.5-0.5,0.8-0.7c0.4-0.3,0.7-0.5,1.2-0.7c0.1,0,0.2-0.1,0.4-0.1c0.1,0,0.3,0,0.4,0c0.3,0,0.6,0,0.8,0.2
				c0.2,0.1,0.5,0.3,0.7,0.6s0.3,0.5,0.4,0.7c0.2,0.5,0.3,0.9,0.3,1.4C18.6-64.1,18.5-63.2,18.4-62.2z M17-64.9c0-0.3,0-0.7-0.1-1
				c0-0.1-0.1-0.3-0.1-0.4c-0.1-0.1-0.1-0.2-0.2-0.3c-0.1-0.1-0.4-0.2-0.7-0.1c-0.3,0-0.7,0.1-1,0.3c-0.4,0.2-0.8,0.4-1.2,0.6v7.7
				c0.2,0.2,0.4,0.3,0.6,0.4c0.1,0.1,0.3,0.1,0.4,0.1s0.2,0,0.3-0.1c0.2-0.1,0.4-0.4,0.6-0.7c0.4-0.6,0.7-1.3,0.9-2
				c0.2-0.7,0.4-1.5,0.6-2.2c0-0.4,0.1-0.7,0.1-1.1C17-64.2,17-64.5,17-64.9z"/>
		</g>
	</g>
</pattern>
<rect y="0.3" class="st1" width="363" height="1277.3"/>
<g>
	<path d="M750.8-125.2c-3.5-3.6-8.5-5.9-14.2-5.9s-10.7,2.3-14.2,5.9H750.8z"/>
	<path d="M764.2-122.4c-1.9-2.5-4.5-3-7.1-1.1c-0.9,0.6-1.6,1.4-2.5,2c-0.3,0.2-0.6,0.4-1,0.4v0.2c-0.7-1.3-1.6-2.6-2.6-3.8h-28.9
		c-1.4,1.6-2.6,3.5-3.4,5.5c-0.6,0.7-1.2,0.5-2.2-0.6c-0.9-1-1.6-2-2.4-3.1c-0.9-1.2-1.6-2.4-2.6-3.5c-0.5-0.5-1.4-0.9-2-0.9
		c-1.5,0.2-3,0.6-4.7,1c0.2,0.3,0.3,0.5,0.4,0.6c2.4,1.8,3.6,4.3,4.3,7c0.5,1.9,0.7,3.9,1.1,5.8c0.6,2.8,2,5.2,4.4,6.8
		c0.9,0.6,2.1,0.8,3.7,1.3c0,0.1,0.1,0.3,0.2,0.4v-0.2c2.9,6.8,9.7,11.6,17.6,11.6c8,0,14.9-4.9,17.8-11.9c0.3,0.2,0.5,0.4,0.8,0.5
		c0.1-0.2,0.4-0.3,0.7-0.3c4.9-1.1,8.3-3.8,9.7-8.8C766.5-116.5,766.4-119.6,764.2-122.4z M759.6-108.3c-0.8,0.4-1.6,0.6-2.7,1
		c0.3-3.3,0-6.2-0.5-9.1c-0.3-1.5,0.5-3.4,1.3-4.8c1-1.8,3.6-1.8,5-0.2c0.7,0.7,1.2,1.7,1.4,2.7C765.2-115,763.1-110.2,759.6-108.3z
		"/>
	<circle cx="736.5" cy="-132.7" r="1.9"/>
</g>
<path d="M675.1-116.8c-0.1-1-0.3-1.9-0.7-2.9c-0.2-0.5-0.5-1-0.9-1.5s-0.9-0.9-1.4-1.2c-0.6-0.3-1.2-0.4-1.8-0.4
	c-0.3,0-0.6,0-0.9,0.1c-0.3,0-0.5,0.1-0.8,0.2c-1,0.3-1.8,0.8-2.6,1.4c-0.7,0.5-1.2,1-1.8,1.6v-7c0-1.1-0.9-2-2-2h-24.6
	c-1.1,0-2,0.9-2,2v32c0,1.1,0.9,2,2,2h24.6c1.1,0,2-0.9,2-2v-5.2c0.1,0.1,0.2,0.2,0.3,0.3c0.4,0.4,1,0.6,1.6,0.8c0.3,0.1,0.6,0,1,0
	c0.3-0.1,0.6-0.1,0.9-0.2c0.6-0.2,1-0.5,1.4-0.8s0.8-0.7,1.1-1.1c1.3-1.5,2.2-3.2,2.9-4.9c0.3-0.8,0.6-1.7,0.9-2.6
	c0.2-0.9,0.5-1.8,0.6-2.7C675.2-113,675.3-114.9,675.1-116.8z M671.8-114.2c-0.1,0.8-0.2,1.6-0.3,2.4c-0.3,1.6-0.7,3.2-1.2,4.8
	c-0.5,1.5-1.1,3.1-1.9,4.3c-0.4,0.6-0.9,1.2-1.3,1.5c-0.2,0.2-0.5,0.3-0.7,0.3s-0.5,0-0.8-0.2c-0.4-0.2-0.8-0.5-1.2-0.9v-16.5
	c0.9-0.5,1.7-0.9,2.6-1.3c0.8-0.3,1.5-0.6,2.2-0.6c0.7-0.1,1.3,0,1.6,0.3c0.2,0.1,0.3,0.3,0.5,0.6c0.1,0.2,0.3,0.5,0.3,0.8
	c0.2,0.6,0.3,1.4,0.3,2.1C671.9-115.8,671.9-115,671.8-114.2z"/>
<path d="M592.7-118.4c-1-1.1-2.2-1.9-3.6-2.4c0-0.1,0-0.1,0-0.2c0.1-0.1,0.1-0.2,0.2-0.3c1.2-1.7,1.6-3.6,1.4-5.7
	c-0.2-1.6-1-2.8-1.9-4c-0.2-0.2-0.2-0.6-0.2-0.8c0.5-1.4,1.1-2.8,1.7-4.1c1.1-2.6,2.2-5.2,3.2-7.8c0.5-1.2,0.5-1.2-0.8-1.7
	c-0.2,0.2-0.3,0.4-0.5,0.6c-2.4,3.6-4.9,7.1-7.3,10.7c-0.3,0.4-0.6,0.6-1.1,0.5c-0.4,0-0.7-0.1-1.1-0.1c-1.7,0.1-3.2,0.7-4.6,1.7
	c-2.4,1.8-3.4,4.9-2.7,7.6c0.3,1.3,1.1,2.4,1.7,3.6c0.1,0,0.1,0,0.2-0.1c-0.1,0.1-0.1,0.1-0.2,0.2c-1.4,0.7-2.6,1.6-3.7,2.8
	c-1.4,1.6-2.3,3.3-2.4,5.5c-0.1,2.5,0.5,4.9,1.5,7.2c1.8,3.8,3.7,7.5,5.5,11.3c0.5,0.9,1.2,1.2,2.2,1.2c2,0,4,0,5.9,0
	c0.6,0,1.2-0.2,1.5-0.7c1-1.8,2-3.6,3-5.4c1.7-3.2,3.3-6.5,4.3-10C596.1-112.5,595.4-115.7,592.7-118.4z M585.1-126.5
	c-0.2-0.6-0.3-1.3-0.2-1.9c0.1-0.4,0.7-0.8,1-1.1c0,0,0.3,0.1,0.4,0.3c0.6,1.3,1.1,2.6,1.7,3.9C587-124.4,585.5-125.1,585.1-126.5z"
	/>
<path d="M522.9-122.8l2.6-7.4h-14.6l2.6,7.4c-4.6,2.4-7.9,8.3-7.9,15.2c0,6.6,3,12.2,7.2,14.8h10.6c4.3-2.6,7.2-8.3,7.2-14.9
	C530.7-114.5,527.4-120.3,522.9-122.8z"/>
<rect y="0.3" class="st2" width="363" height="1277.3"/>
</svg>
