<?xml version="1.0" encoding="utf-8"?>
<!-- Generator: Adobe Illustrator 23.0.1, SVG Export Plug-In . SVG Version: 6.00 Build 0)  -->
<svg version="1.1" id="Layer_1" xmlns="http://www.w3.org/2000/svg" xmlns:xlink="http://www.w3.org/1999/xlink" x="0px" y="0px"
	 viewBox="0 0 1409 669" style="enable-background:new 0 0 1409 669;" xml:space="preserve">
<style type="text/css">
	.st0{fill:none;}
	.st1{fill:url(#New_Pattern);}
</style>
<pattern  x="54" y="-58" width="235" height="134" patternUnits="userSpaceOnUse" id="New_Pattern" viewBox="0 -159.33 235 134" style="overflow:visible;">
	<g>
		<rect y="-159.33" class="st0" width="235" height="134"/>
		<g>
			<path d="M208.3-9.98c-0.56,2.2-1.57,4.21-2.63,6.19c-0.6,1.11-1.21,2.22-1.83,3.32c-0.2,0.36-0.55,0.45-0.92,0.45
				C201.7,0,200.47,0,199.25,0c-0.58,0-1.06-0.17-1.34-0.74c-1.14-2.33-2.33-4.63-3.42-6.99c-0.64-1.39-1.02-2.87-0.95-4.45
				c0.06-1.34,0.6-2.44,1.47-3.4c0.65-0.71,1.39-1.32,2.28-1.72c0.05-0.02,0.08-0.06,0.12-0.09c-0.04,0.01-0.08,0.02-0.11,0.04
				c-0.35-0.74-0.81-1.44-1.02-2.22c-0.45-1.66,0.15-3.57,1.64-4.68c0.86-0.64,1.77-1.01,2.82-1.07c0.22-0.01,0.45,0.05,0.67,0.07
				c0.28,0.03,0.48-0.04,0.66-0.31c1.49-2.22,3.01-4.42,4.52-6.63c0.1-0.14,0.21-0.27,0.31-0.4c0.75,0.31,0.77,0.32,0.47,1.07
				c-0.65,1.6-1.32,3.2-1.98,4.79c-0.35,0.85-0.71,1.69-1.03,2.55c-0.05,0.13,0.01,0.36,0.1,0.48c0.58,0.74,1.08,1.52,1.18,2.49
				c0.13,1.27-0.13,2.46-0.89,3.51c-0.05,0.06-0.09,0.13-0.13,0.2c-0.01,0.02-0.02,0.05-0.03,0.09c0.84,0.35,1.57,0.86,2.21,1.51
				C208.46-14.21,208.87-12.21,208.3-9.98z M203.92-20.14c-0.35-0.84-0.69-1.64-1.04-2.44c-0.04-0.08-0.23-0.18-0.24-0.17
				c-0.24,0.22-0.58,0.43-0.64,0.71c-0.08,0.37,0,0.8,0.11,1.18C202.34-20.01,203.23-19.58,203.92-20.14z"/>
		</g>
		<g>
			<g>
				<circle cx="84.27" cy="-24.71" r="1.16"/>
			</g>
		</g>
		<g>
			<g>
				<path d="M210.62-87.07c-2.17-2.25-5.29-3.67-8.76-3.67s-6.59,1.41-8.76,3.67H210.62z"/>
				<path d="M219.79-79.68c-0.84,3.07-2.97,4.76-6,5.43c-0.15,0.03-0.33,0.1-0.42,0.21c-0.19-0.08-0.36-0.19-0.53-0.32
					c-1.78,4.32-6.02,7.36-10.98,7.36c-4.89,0-9.09-2.96-10.91-7.18v0.13c-0.03-0.09-0.07-0.17-0.1-0.25
					c-0.95-0.33-1.69-0.45-2.26-0.82c-1.5-0.98-2.32-2.47-2.71-4.18c-0.27-1.19-0.4-2.41-0.69-3.59c-0.42-1.72-1.19-3.26-2.66-4.36
					c-0.09-0.07-0.14-0.19-0.26-0.36c1.02-0.22,1.95-0.5,2.9-0.6c0.4-0.04,0.95,0.22,1.24,0.53c0.61,0.65,1.09,1.43,1.63,2.15
					c0.48,0.64,0.94,1.31,1.47,1.91c0.6,0.66,0.95,0.77,1.33,0.35c0.5-1.26,1.22-2.41,2.1-3.42h17.86c0.62,0.71,1.15,1.49,1.59,2.32
					v-0.13c0.2-0.03,0.43-0.16,0.59-0.27c0.53-0.39,1-0.88,1.53-1.26c1.59-1.15,3.2-0.88,4.41,0.69
					C220.24-83.61,220.34-81.68,219.79-79.68z M218.88-83.14c-0.16-0.59-0.47-1.2-0.88-1.66c-0.87-0.98-2.46-0.96-3.09,0.15
					c-0.5,0.89-0.98,2.07-0.81,3c0.33,1.8,0.49,3.56,0.31,5.62c0.66-0.23,1.21-0.34,1.67-0.6C218.19-77.8,219.49-80.8,218.88-83.14z
					"/>
				<circle cx="201.77" cy="-91.71" r="1.16"/>
			</g>
			<path d="M151.88-78.43c-0.1,0.56-0.23,1.11-0.38,1.66c-0.16,0.54-0.34,1.08-0.56,1.61c-0.44,1.05-0.96,2.09-1.77,3.01
				c-0.2,0.23-0.42,0.45-0.68,0.65c-0.25,0.2-0.54,0.39-0.88,0.52c-0.16,0.07-0.36,0.11-0.54,0.15c-0.2,0.02-0.39,0.03-0.59-0.01
				c-0.38-0.07-0.74-0.24-0.99-0.46c-0.06-0.05-0.1-0.1-0.15-0.16v3.24c0,0.67-0.54,1.21-1.21,1.21h-15.21
				c-0.67,0-1.21-0.54-1.21-1.21v-19.78c0-0.67,0.54-1.21,1.21-1.21h15.21c0.67,0,1.21,0.54,1.21,1.21v4.32
				c0.34-0.35,0.7-0.68,1.1-0.97c0.47-0.33,0.97-0.65,1.59-0.84c0.15-0.05,0.31-0.1,0.48-0.12c0.17-0.03,0.35-0.04,0.53-0.04
				c0.36,0.01,0.77,0.08,1.12,0.28c0.36,0.18,0.66,0.45,0.89,0.74c0.24,0.29,0.39,0.6,0.53,0.91c0.26,0.61,0.38,1.23,0.45,1.82
				C152.16-80.7,152.07-79.55,151.88-78.43z M150.02-81.74c-0.02-0.47-0.08-0.93-0.19-1.33c-0.06-0.19-0.13-0.37-0.22-0.51
				c-0.08-0.15-0.18-0.26-0.29-0.34c-0.2-0.18-0.56-0.25-0.99-0.21c-0.43,0.05-0.91,0.2-1.38,0.39c-0.54,0.22-1.08,0.5-1.62,0.8
				v10.2c0.24,0.25,0.49,0.46,0.74,0.58c0.18,0.1,0.35,0.11,0.5,0.1c0.15-0.01,0.28-0.07,0.43-0.17c0.29-0.19,0.58-0.55,0.83-0.93
				c0.5-0.79,0.89-1.73,1.2-2.68c0.31-0.96,0.56-1.95,0.73-2.94c0.09-0.5,0.16-0.99,0.2-1.49
				C150.03-80.77,150.04-81.26,150.02-81.74z"/>
			<path d="M90.8-76.98c-0.56,2.2-1.57,4.21-2.63,6.19c-0.6,1.11-1.21,2.22-1.83,3.32c-0.2,0.36-0.55,0.45-0.92,0.45
				C84.2-67,82.97-67,81.75-67c-0.58,0-1.06-0.17-1.34-0.74c-1.14-2.33-2.33-4.63-3.42-6.99c-0.64-1.39-1.02-2.87-0.95-4.45
				c0.06-1.34,0.6-2.44,1.47-3.4c0.65-0.71,1.39-1.32,2.28-1.72c0.05-0.02,0.08-0.06,0.12-0.09c-0.04,0.01-0.08,0.02-0.11,0.04
				c-0.35-0.74-0.81-1.44-1.02-2.22c-0.45-1.66,0.15-3.57,1.64-4.68c0.86-0.64,1.77-1.01,2.82-1.07c0.22-0.01,0.45,0.05,0.67,0.07
				c0.28,0.03,0.48-0.04,0.66-0.31c1.49-2.22,3.01-4.42,4.52-6.63c0.1-0.14,0.21-0.27,0.31-0.4c0.75,0.31,0.77,0.32,0.47,1.07
				c-0.65,1.6-1.32,3.2-1.98,4.79c-0.35,0.85-0.71,1.69-1.03,2.55c-0.05,0.13,0.01,0.36,0.1,0.48c0.58,0.74,1.08,1.52,1.18,2.49
				c0.13,1.27-0.13,2.46-0.89,3.51c-0.05,0.06-0.09,0.13-0.13,0.2c-0.01,0.02-0.02,0.05-0.03,0.09c0.84,0.35,1.57,0.86,2.21,1.51
				C90.96-81.21,91.37-79.21,90.8-76.98z M86.42-87.14c-0.35-0.84-0.69-1.64-1.04-2.44c-0.04-0.08-0.23-0.18-0.24-0.17
				c-0.24,0.22-0.58,0.43-0.64,0.71c-0.08,0.37,0,0.8,0.11,1.18C84.84-87.01,85.73-86.58,86.42-87.14z"/>
			<path d="M22.9-85.57l1.64-4.58H15.5l1.63,4.58c-2.85,1.5-4.86,5.14-4.86,9.4c0,4.06,1.83,7.57,4.47,9.18h6.56
				c2.65-1.62,4.48-5.15,4.47-9.23C27.75-80.43,25.72-84.06,22.9-85.57z"/>
		</g>
		<g>
			<path d="M208.3-143.98c-0.56,2.2-1.57,4.21-2.63,6.19c-0.6,1.11-1.21,2.22-1.83,3.32c-0.2,0.36-0.55,0.45-0.92,0.45
				c-1.23,0.01-2.45,0.01-3.68,0.01c-0.58,0-1.06-0.17-1.34-0.74c-1.14-2.33-2.33-4.63-3.42-6.99c-0.64-1.39-1.02-2.87-0.95-4.45
				c0.06-1.34,0.6-2.44,1.47-3.4c0.65-0.71,1.39-1.32,2.28-1.72c0.05-0.02,0.08-0.06,0.12-0.09c-0.04,0.01-0.08,0.02-0.11,0.04
				c-0.35-0.74-0.81-1.44-1.02-2.22c-0.45-1.66,0.15-3.57,1.64-4.68c0.86-0.64,1.77-1.01,2.82-1.07c0.22-0.01,0.45,0.05,0.67,0.07
				c0.28,0.03,0.48-0.04,0.66-0.31c1.49-2.22,3.01-4.42,4.52-6.63c0.1-0.14,0.21-0.27,0.31-0.4c0.75,0.31,0.77,0.32,0.47,1.07
				c-0.65,1.6-1.32,3.2-1.98,4.79c-0.35,0.85-0.71,1.69-1.03,2.55c-0.05,0.13,0.01,0.36,0.1,0.48c0.58,0.74,1.08,1.52,1.18,2.49
				c0.13,1.27-0.13,2.46-0.89,3.51c-0.05,0.06-0.09,0.13-0.13,0.2c-0.01,0.02-0.02,0.05-0.03,0.09c0.84,0.35,1.57,0.86,2.21,1.51
				C208.46-148.21,208.87-146.21,208.3-143.98z M203.92-154.14c-0.35-0.84-0.69-1.64-1.04-2.44c-0.04-0.08-0.23-0.18-0.24-0.17
				c-0.24,0.22-0.58,0.43-0.64,0.71c-0.08,0.37,0,0.8,0.11,1.18C202.34-154.01,203.23-153.58,203.92-154.14z"/>
			<path d="M140.4-152.57l1.64-4.58H133l1.63,4.58c-2.85,1.5-4.86,5.14-4.86,9.4c0,4.06,1.83,7.57,4.47,9.18h6.56
				c2.65-1.62,4.48-5.15,4.47-9.23C145.25-147.43,143.22-151.06,140.4-152.57z"/>
		</g>
		<g>
			<g>
				<path d="M93.12-154.07c-2.17-2.25-5.29-3.67-8.76-3.67s-6.59,1.41-8.76,3.67H93.12z"/>
				<path d="M102.29-146.68c-0.84,3.07-2.97,4.76-6,5.43c-0.15,0.03-0.33,0.1-0.42,0.21c-0.19-0.08-0.36-0.19-0.53-0.32
					c-1.78,4.32-6.02,7.36-10.98,7.36c-4.89,0-9.09-2.96-10.91-7.18v0.13c-0.03-0.09-0.07-0.17-0.1-0.25
					c-0.95-0.33-1.69-0.45-2.26-0.82c-1.5-0.98-2.32-2.47-2.71-4.18c-0.27-1.19-0.4-2.41-0.69-3.59c-0.42-1.72-1.19-3.26-2.66-4.36
					c-0.09-0.07-0.14-0.19-0.26-0.36c1.02-0.22,1.95-0.5,2.9-0.6c0.4-0.04,0.95,0.22,1.24,0.53c0.61,0.65,1.09,1.43,1.63,2.15
					c0.48,0.64,0.94,1.31,1.47,1.91c0.6,0.66,0.95,0.77,1.33,0.35c0.5-1.26,1.22-2.41,2.1-3.42h17.86c0.62,0.71,1.15,1.49,1.59,2.32
					v-0.13c0.2-0.03,0.43-0.16,0.59-0.27c0.53-0.39,1-0.88,1.53-1.26c1.59-1.15,3.2-0.88,4.41,0.69
					C102.74-150.61,102.84-148.68,102.29-146.68z M101.38-150.14c-0.16-0.59-0.47-1.2-0.88-1.66c-0.87-0.98-2.46-0.96-3.09,0.15
					c-0.5,0.89-0.98,2.07-0.81,3c0.33,1.8,0.49,3.56,0.31,5.62c0.66-0.23,1.21-0.34,1.67-0.6
					C100.69-144.8,101.99-147.8,101.38-150.14z"/>
				<circle cx="84.27" cy="-158.71" r="1.16"/>
			</g>
			<path d="M34.38-145.43c-0.1,0.56-0.23,1.11-0.38,1.66c-0.16,0.54-0.34,1.08-0.56,1.61c-0.44,1.05-0.96,2.09-1.77,3.01
				c-0.2,0.23-0.42,0.45-0.68,0.65c-0.25,0.2-0.54,0.39-0.88,0.52c-0.16,0.07-0.36,0.11-0.54,0.15c-0.2,0.02-0.39,0.03-0.59-0.01
				c-0.38-0.07-0.74-0.24-0.99-0.46c-0.06-0.05-0.1-0.1-0.16-0.16v3.24c0,0.67-0.54,1.21-1.21,1.21H11.41
				c-0.67,0-1.21-0.54-1.21-1.21v-19.78c0-0.67,0.54-1.21,1.21-1.21h15.21c0.67,0,1.21,0.54,1.21,1.21v4.32
				c0.34-0.35,0.7-0.68,1.1-0.97c0.47-0.33,0.97-0.65,1.59-0.84c0.15-0.05,0.31-0.1,0.48-0.12c0.17-0.03,0.35-0.04,0.53-0.04
				c0.36,0.01,0.77,0.08,1.12,0.28c0.36,0.18,0.66,0.45,0.89,0.74c0.24,0.29,0.39,0.6,0.53,0.91c0.26,0.61,0.38,1.23,0.45,1.82
				C34.66-147.7,34.57-146.55,34.38-145.43z M32.52-148.74c-0.02-0.47-0.08-0.93-0.19-1.33c-0.06-0.19-0.13-0.37-0.22-0.51
				c-0.08-0.15-0.18-0.26-0.29-0.34c-0.2-0.18-0.56-0.25-0.99-0.21c-0.43,0.05-0.91,0.2-1.38,0.39c-0.54,0.22-1.08,0.5-1.62,0.8
				v10.2c0.24,0.25,0.49,0.46,0.74,0.58c0.18,0.1,0.35,0.11,0.5,0.1c0.15-0.01,0.28-0.07,0.43-0.17c0.29-0.19,0.58-0.55,0.83-0.93
				c0.5-0.79,0.89-1.73,1.2-2.68c0.31-0.96,0.56-1.95,0.73-2.94c0.09-0.5,0.16-0.99,0.2-1.49
				C32.53-147.77,32.54-148.26,32.52-148.74z"/>
		</g>
	</g>
</pattern>
<g>
	<path d="M748.42-109.78c-3.51-3.64-8.55-5.93-14.16-5.93c-5.61,0-10.65,2.29-14.16,5.93H748.42z"/>
	<path d="M761.81-106.99c-1.94-2.53-4.55-2.97-7.12-1.11c-0.86,0.62-1.61,1.41-2.47,2.04c-0.26,0.19-0.64,0.39-0.95,0.44v0.21
		c-0.71-1.35-1.57-2.61-2.57-3.75h-28.86c-1.42,1.62-2.57,3.49-3.39,5.52c-0.62,0.69-1.18,0.5-2.15-0.57
		c-0.87-0.96-1.6-2.04-2.38-3.08c-0.87-1.16-1.64-2.42-2.63-3.47c-0.46-0.5-1.36-0.92-2.01-0.86c-1.53,0.15-3.04,0.6-4.68,0.96
		c0.2,0.28,0.28,0.48,0.43,0.58c2.38,1.77,3.62,4.26,4.3,7.04c0.47,1.91,0.68,3.89,1.12,5.81c0.63,2.77,1.95,5.19,4.38,6.76
		c0.92,0.6,2.11,0.78,3.65,1.32c0.05,0.12,0.1,0.26,0.16,0.4v-0.22c2.94,6.82,9.72,11.6,17.63,11.6c8.02,0,14.88-4.92,17.75-11.9
		c0.26,0.21,0.54,0.39,0.85,0.52c0.14-0.17,0.44-0.28,0.68-0.33c4.9-1.08,8.35-3.82,9.7-8.77
		C764.12-101.05,763.96-104.19,761.81-106.99z M757.24-92.89c-0.75,0.42-1.64,0.59-2.7,0.96c0.29-3.32,0.03-6.17-0.51-9.08
		c-0.28-1.5,0.5-3.41,1.31-4.84c1.02-1.8,3.59-1.83,5-0.24c0.65,0.74,1.17,1.72,1.42,2.68C762.75-99.63,760.65-94.79,757.24-92.89z"
		/>
	<circle cx="734.1" cy="-117.27" r="1.87"/>
</g>
<path d="M672.73-101.41c-0.11-0.96-0.3-1.95-0.72-2.94c-0.22-0.49-0.47-1-0.86-1.46c-0.36-0.47-0.86-0.9-1.44-1.19
	c-0.57-0.32-1.22-0.43-1.81-0.45c-0.3,0-0.59,0.01-0.86,0.06c-0.28,0.03-0.53,0.11-0.78,0.19c-1,0.31-1.81,0.82-2.57,1.36
	c-0.65,0.48-1.23,1.02-1.78,1.57v-6.99c0-1.08-0.88-1.96-1.96-1.96h-24.59c-1.08,0-1.96,0.88-1.96,1.96v31.97
	c0,1.08,0.88,1.96,1.96,1.96h24.59c1.08,0,1.96-0.88,1.96-1.96v-5.24c0.08,0.08,0.16,0.17,0.25,0.25c0.4,0.36,0.97,0.64,1.6,0.75
	c0.32,0.06,0.63,0.04,0.95,0.02c0.3-0.06,0.61-0.12,0.88-0.24c0.56-0.21,1.02-0.52,1.43-0.84c0.42-0.33,0.77-0.68,1.1-1.06
	c1.3-1.49,2.15-3.16,2.86-4.86c0.35-0.85,0.64-1.73,0.9-2.61c0.24-0.88,0.45-1.78,0.61-2.69
	C672.79-97.62,672.93-99.48,672.73-101.41z M669.41-98.8c-0.07,0.8-0.17,1.6-0.32,2.4c-0.28,1.6-0.68,3.2-1.18,4.75
	c-0.51,1.54-1.13,3.06-1.94,4.34c-0.41,0.62-0.87,1.2-1.35,1.51c-0.24,0.17-0.46,0.26-0.69,0.28c-0.24,0.02-0.51,0-0.81-0.16
	c-0.42-0.18-0.82-0.53-1.2-0.93v-16.49c0.87-0.48,1.74-0.93,2.62-1.29c0.76-0.31,1.53-0.55,2.22-0.62c0.7-0.07,1.27,0.04,1.6,0.33
	c0.18,0.14,0.33,0.31,0.46,0.56c0.14,0.22,0.25,0.52,0.35,0.83c0.18,0.64,0.28,1.38,0.31,2.14
	C669.51-100.39,669.49-99.6,669.41-98.8z"/>
<path d="M590.35-103.01c-1.04-1.05-2.22-1.88-3.58-2.44c0.02-0.07,0.02-0.11,0.04-0.15c0.07-0.11,0.14-0.22,0.22-0.32
	c1.23-1.7,1.64-3.61,1.44-5.67c-0.16-1.56-0.96-2.82-1.9-4.02c-0.15-0.19-0.24-0.56-0.16-0.78c0.53-1.39,1.1-2.75,1.67-4.12
	c1.07-2.58,2.15-5.16,3.2-7.75c0.49-1.22,0.46-1.23-0.76-1.73c-0.16,0.21-0.34,0.42-0.5,0.65c-2.44,3.57-4.89,7.13-7.3,10.71
	c-0.29,0.43-0.61,0.55-1.07,0.5c-0.36-0.04-0.73-0.14-1.08-0.12c-1.7,0.1-3.17,0.7-4.56,1.73c-2.41,1.79-3.37,4.88-2.65,7.56
	c0.34,1.25,1.09,2.4,1.65,3.59c0.06-0.02,0.12-0.04,0.18-0.06c-0.07,0.05-0.13,0.11-0.2,0.15c-1.44,0.65-2.63,1.63-3.68,2.78
	c-1.42,1.55-2.29,3.34-2.38,5.5c-0.11,2.54,0.49,4.94,1.54,7.19c1.76,3.8,3.69,7.53,5.53,11.29c0.45,0.93,1.22,1.2,2.16,1.2
	c1.98,0,3.96,0,5.94-0.02c0.6-0.01,1.17-0.16,1.49-0.73c0.99-1.79,1.99-3.57,2.95-5.37c1.72-3.21,3.35-6.46,4.26-10.01
	C593.7-97.07,593.03-100.3,590.35-103.01z M582.74-111.05c-0.18-0.61-0.31-1.31-0.17-1.91c0.1-0.44,0.66-0.78,1.04-1.14
	c0.03-0.03,0.34,0.14,0.39,0.27c0.57,1.29,1.11,2.59,1.68,3.94C584.58-108.98,583.14-109.68,582.74-111.05z"/>
<path d="M520.47-107.35l2.64-7.41H508.5l2.64,7.4c-4.6,2.42-7.86,8.3-7.86,15.19c0,6.57,2.95,12.23,7.22,14.84h10.61
	c4.28-2.62,7.24-8.32,7.22-14.92C528.3-99.05,525.03-104.91,520.47-107.35z"/>
<rect class="st1" width="1409" height="669"/>
</svg>
