<?xml version="1.0" encoding="utf-8"?>
<!-- Generator: Adobe Illustrator 22.1.0, SVG Export Plug-In . SVG Version: 6.00 Build 0)  -->
<svg version="1.1" id="Layer_1" xmlns="http://www.w3.org/2000/svg" xmlns:xlink="http://www.w3.org/1999/xlink" x="0px" y="0px"
	 viewBox="0 0 177 100" style="enable-background:new 0 0 177 100;" xml:space="preserve">
<style type="text/css">
	.st0{enable-background:new    ;}
	.st1{fill:none;}
</style>
<g class="st0">
	<path d="M75.4,75.9c0.1,0.2,0.2,0.4,0.2,0.6c0,0.3,0,0.6-0.1,0.7c-0.1,0.2-0.2,0.3-0.5,0.5c-1.2,0.8-2,1.4-2.6,1.8l-1.3,0.9
		c-0.5,2.8-1.2,5.1-2,6.7c-0.8,1.6-1.9,2.4-3.2,2.4c-0.7,0-1.3-0.2-1.7-0.6c-0.4-0.4-0.7-1-0.7-1.7c0-1,0.4-2,1.2-3.1
		c0.8-1.1,2.2-2.5,4.3-4.1l0.1-0.8c-0.2,0.4-0.5,0.7-0.9,0.9c-0.4,0.2-0.8,0.3-1.1,0.3c-0.9,0-1.5-0.3-2-0.9
		c-0.5-0.6-0.8-1.4-0.8-2.4c0-1.1,0.3-2.1,0.8-3.1c0.5-1,1.2-1.8,2-2.4c0.8-0.6,1.7-0.9,2.7-0.9c0.3,0,0.5,0.1,0.6,0.2
		c0.1,0.1,0.2,0.3,0.3,0.6c0.3-0.1,0.6-0.1,0.9-0.1c0.3,0,0.6,0.1,0.7,0.2c0.1,0.1,0.2,0.3,0.2,0.6c0,0.2,0,0.3,0,0.4
		c-0.1,0.4-0.2,1.5-0.5,3.2c-0.1,0.3-0.1,0.7-0.2,1.1c-0.1,0.4-0.1,0.8-0.2,1.2c1.1-0.8,2.1-1.5,3-2.2c0.2-0.1,0.3-0.2,0.5-0.2
		C75.2,75.6,75.3,75.7,75.4,75.9z M67.2,86.3c0.4-0.8,0.8-2.1,1.2-3.9c-1.1,0.9-1.8,1.7-2.3,2.4c-0.5,0.7-0.7,1.4-0.7,1.9
		c0,0.2,0,0.4,0.1,0.6c0.1,0.2,0.2,0.2,0.4,0.2C66.4,87.5,66.8,87.1,67.2,86.3z M68.7,77.6c0.3-0.4,0.5-0.9,0.6-1.6l0.7-3.5
		c-0.6,0-1.1,0.2-1.6,0.6c-0.5,0.4-0.9,1-1.2,1.7c-0.3,0.7-0.4,1.4-0.4,2.2c0,0.4,0.1,0.7,0.3,0.9c0.2,0.2,0.4,0.3,0.7,0.3
		C68.1,78.2,68.4,78,68.7,77.6z"/>
	<path d="M74.6,79.3c-0.5-0.6-0.8-1.4-0.8-2.4c0-1.1,0.3-2.1,0.8-3.1c0.5-1,1.2-1.8,2-2.4c0.8-0.6,1.7-0.9,2.7-0.9
		c0.3,0,0.5,0.1,0.6,0.2c0.1,0.1,0.2,0.3,0.3,0.6c0.3-0.1,0.6-0.1,0.9-0.1c0.7,0,1,0.2,1,0.7c0,0.3-0.1,1-0.3,2.1
		c-0.3,1.6-0.5,2.7-0.5,3.3c0,0.2,0.1,0.4,0.2,0.5c0.1,0.1,0.2,0.2,0.4,0.2c0.3,0,0.6-0.2,0.9-0.5s0.9-0.9,1.5-1.6
		c0.2-0.2,0.3-0.3,0.6-0.3c0.2,0,0.3,0.1,0.4,0.2c0.1,0.2,0.2,0.4,0.2,0.7c0,0.5-0.1,1-0.4,1.3c-0.6,0.7-1.2,1.3-1.8,1.8
		c-0.6,0.5-1.2,0.7-1.8,0.7c-0.5,0-0.9-0.2-1.2-0.5c-0.4-0.3-0.7-0.7-0.9-1.3c-0.7,1.2-1.6,1.7-2.7,1.7
		C75.8,80.2,75.1,79.9,74.6,79.3z M78.3,77.6c0.3-0.4,0.5-0.8,0.6-1.4l0.8-3.8c-0.6,0-1.1,0.2-1.6,0.6c-0.5,0.4-0.9,1-1.2,1.7
		c-0.3,0.7-0.4,1.4-0.4,2.2c0,0.4,0.1,0.7,0.3,0.9c0.2,0.2,0.4,0.3,0.7,0.3C77.7,78.2,78,78,78.3,77.6z"/>
	<path d="M84.3,79.3c-0.5-0.6-0.8-1.4-0.8-2.4c0-1.1,0.3-2.1,0.8-3.1c0.5-1,1.2-1.8,2-2.4c0.8-0.6,1.7-0.9,2.7-0.9
		c0.3,0,0.5,0.1,0.6,0.2c0.1,0.1,0.2,0.3,0.3,0.6c0.3-0.1,0.6-0.1,0.9-0.1c0.7,0,1,0.2,1,0.7c0,0.3-0.1,1-0.3,2.1
		c-0.3,1.6-0.5,2.7-0.5,3.3c0,0.2,0.1,0.4,0.2,0.5c0.1,0.1,0.2,0.2,0.4,0.2c0.3,0,0.6-0.2,0.9-0.5s0.9-0.9,1.5-1.6
		c0.2-0.2,0.3-0.3,0.6-0.3c0.2,0,0.3,0.1,0.4,0.2c0.1,0.2,0.2,0.4,0.2,0.7c0,0.5-0.1,1-0.4,1.3c-0.6,0.7-1.2,1.3-1.8,1.8
		c-0.6,0.5-1.2,0.7-1.8,0.7c-0.5,0-0.9-0.2-1.2-0.5c-0.4-0.3-0.7-0.7-0.9-1.3c-0.7,1.2-1.6,1.7-2.7,1.7
		C85.5,80.2,84.8,79.9,84.3,79.3z M87.9,77.6c0.3-0.4,0.5-0.8,0.6-1.4l0.8-3.8c-0.6,0-1.1,0.2-1.6,0.6c-0.5,0.4-0.9,1-1.2,1.7
		c-0.3,0.7-0.4,1.4-0.4,2.2c0,0.4,0.1,0.7,0.3,0.9c0.2,0.2,0.4,0.3,0.7,0.3C87.3,78.2,87.6,78,87.9,77.6z"/>
	<path d="M93.8,79.4c-0.2-0.5-0.3-1.4-0.3-2.6c0-1.8,0.3-3.5,0.8-5.1c0.1-0.4,0.3-0.7,0.6-0.9c0.3-0.2,0.7-0.3,1.2-0.3
		c0.3,0,0.5,0,0.6,0.1s0.2,0.2,0.2,0.4c0,0.2-0.1,0.7-0.3,1.5c-0.1,0.5-0.2,1-0.3,1.4s-0.2,0.9-0.2,1.5c0.5-1.2,1-2.1,1.5-2.9
		c0.6-0.7,1.1-1.3,1.7-1.6s1-0.5,1.5-0.5c0.9,0,1.3,0.4,1.3,1.3c0,0.2-0.1,0.6-0.2,1.3c-0.1,0.5-0.2,0.9-0.2,1
		c0,0.5,0.2,0.7,0.5,0.7c0.4,0,0.9-0.3,1.5-0.9c0.2-0.2,0.4-0.3,0.6-0.3c0.2,0,0.3,0.1,0.4,0.2s0.2,0.4,0.2,0.6
		c0,0.5-0.1,0.9-0.4,1.2c-0.4,0.4-0.8,0.7-1.3,1c-0.5,0.3-1.1,0.4-1.6,0.4c-0.7,0-1.3-0.2-1.7-0.6c-0.4-0.4-0.6-0.9-0.6-1.5
		c0-0.2,0-0.4,0.1-0.6c0-0.3,0-0.5,0-0.6c0-0.2-0.1-0.3-0.2-0.3c-0.2,0-0.5,0.2-0.8,0.7s-0.7,1.1-1,1.8c-0.3,0.8-0.6,1.5-0.8,2.4
		c-0.2,0.6-0.3,1.1-0.5,1.3c-0.2,0.2-0.5,0.3-0.9,0.3C94.4,80.2,94,80,93.8,79.4z"/>
	<path d="M114.9,75.8c0.1,0.2,0.2,0.4,0.2,0.7c0,0.5-0.1,1-0.4,1.3c-0.6,0.7-1.2,1.3-1.8,1.8c-0.7,0.5-1.3,0.7-2,0.7
		c-1,0-1.8-0.6-2.4-1.8c-0.6,0.7-1.1,1.2-1.5,1.5c-0.4,0.2-0.9,0.4-1.5,0.4c-0.8,0-1.5-0.3-2.1-0.9c-0.5-0.6-0.8-1.4-0.8-2.4
		c0-1.1,0.2-2.1,0.7-3.1c0.5-0.9,1.1-1.7,1.9-2.3c0.8-0.6,1.7-0.9,2.7-1.1c0.3-2.7,0.8-4.9,1.5-6.8c0.7-1.9,1.7-2.8,2.9-2.8
		c0.6,0,1.1,0.3,1.5,0.8s0.6,1.3,0.6,2.4c0,1.5-0.4,3.3-1.1,5.4c-0.8,2.1-1.8,4.2-3,6.3c0.1,0.8,0.2,1.4,0.4,1.7
		c0.2,0.3,0.4,0.5,0.7,0.5c0.4,0,0.7-0.2,1.1-0.5c0.4-0.3,0.9-0.9,1.5-1.6c0.2-0.2,0.3-0.3,0.6-0.3
		C114.6,75.6,114.8,75.6,114.9,75.8z M106.9,77.8c0.3-0.2,0.6-0.6,1-1.2c-0.1-0.7-0.2-1.6-0.2-2.5c0-0.3,0-0.9,0-1.6
		c-0.8,0.2-1.4,0.7-1.9,1.5c-0.5,0.8-0.8,1.6-0.8,2.6c0,1,0.3,1.5,1,1.5C106.4,78.2,106.6,78.1,106.9,77.8z M111.3,64.2
		c-0.3,0.9-0.5,2.1-0.7,3.6c-0.2,1.5-0.3,3.1-0.4,4.7c1.5-3.3,2.3-6,2.3-8.1c0-0.5,0-0.9-0.1-1.2c-0.1-0.3-0.2-0.4-0.3-0.4
		C111.8,62.8,111.5,63.3,111.3,64.2z"/>
</g>
<g>
	<path d="M29.1,56.9h-3.6V41.2h3.6l6.2,9.7l0,0v-9.7H39v15.7h-3.6l-6.2-9.7l0,0v9.7H29.1z"/>
	<path d="M42.5,54.5c-1.2-1.4-1.9-3.3-1.9-5.4c0-4.6,3.6-8.1,7.9-8.1c1.4,0,2.7,0.4,3.9,1l1-1.3l2.1,1.6l-1.1,1.4
		c1.2,1.4,1.9,3.3,1.9,5.3c0,4.6-3.4,8.1-7.9,8.1c-1.5,0-2.8-0.4-4-1l-1,1.2l-2.1-1.6L42.5,54.5z M44.9,51.5l5.3-6.7
		c-0.5-0.2-1-0.4-1.7-0.4c-2.8,0-4,2.3-4,4.7C44.4,49.9,44.6,50.7,44.9,51.5z M52,46.7l-5.3,6.7c0.5,0.2,1.1,0.3,1.7,0.3
		c2.9,0,4-2.3,4-4.7C52.5,48.3,52.4,47.5,52,46.7z"/>
	<path d="M63.6,41.2c2.9,0,5.1,1.6,5.1,4.7c0,2.4-1.3,3.9-3.2,4.5l5.4,6.5h-4.5l-4.8-6.2v6.2H58V41.2H63.6z M61.9,48.2
		c1.4,0,3-0.1,3-2.1s-1.6-2.1-3-2.1h-0.4v4.1L61.9,48.2L61.9,48.2z"/>
	<path d="M77.2,41.2c2.9,0,5.1,1.6,5.1,4.7c0,2.4-1.3,3.9-3.2,4.5l5.4,6.5H80l-4.8-6.2v6.2h-3.6V41.2H77.2z M75.6,48.2
		c1.4,0,3-0.1,3-2.1S77,44,75.6,44h-0.4v4.1L75.6,48.2L75.6,48.2z"/>
	<path d="M94.2,44.4h-5.4v3.1H94v3.1h-5.2v3.2h5.4v3.1h-9V41.2h9V44.4z"/>
	<path d="M108.4,47.6L108.4,47.6l-3.3,9.2H103l-3.2-9.2h-0.1L99,56.9h-3.6l1.4-15.7h3.8l3.5,9l3.5-9h3.8l1.4,15.7h-3.6L108.4,47.6z"
		/>
	<path d="M128.5,56.9h-3.8l-1.2-3.1h-6l-1.2,3.1h-3.8l6.3-15.7h3.3L128.5,56.9z M120.5,46.1L120.5,46.1l-1.8,4.6h3.5L120.5,46.1z"/>
	<path d="M133.7,41.2c4.3,0,7.9,3.3,7.9,7.8c0,4.6-3.6,7.9-7.9,7.9h-4.5V41.2H133.7z M133.2,53.7c2.6,0,4.4-2,4.5-4.6
		c0-2.6-1.8-4.7-4.5-4.7h-0.6v9.3H133.2z"/>
	<path d="M152.1,44.4h-5.4v3.1h5.2v3.1h-5.2v3.2h5.4v3.1h-9V41.2h9V44.4z"/>
</g>
<path d="M93.8,30.9c0-0.1,0.1-0.2,0.1-0.2c0-0.1,0.1-0.2,0.1-0.2c0.1-0.1,0.1-0.2,0.2-0.4V30c0.2-0.6,0.4-1.1,0.6-1.7
	c0-0.1,0-0.1,0-0.2c0.2-1.2,0.7-3,1.1-4.5c0-0.1,0-0.1,0.1-0.2c0.1-0.2,0.2-0.3,0.3-0.5c0-0.1,0.1-0.2,0.1-0.3
	c0.7-1.7,2-2.9,3.2-4.3l0.1-0.1c0.3-0.4,0.3-0.8,0.2-1.4v-0.1v-0.1c-0.1,0-0.1-0.1-0.2-0.1s-0.1-0.1-0.2-0.1s-0.1,0-0.2,0
	c-1,0.2-1.5,0.9-1.9,1.7c0,0.1-0.1,0.1-0.1,0.2c-0.4,1.3-0.9,2.2-2.3,3.1c-0.1,0-0.1,0-0.2,0c-0.3,0.1-0.7-0.1-1-0.7
	c0-0.1,0-0.1,0-0.2c-0.2-1.8,1.1-3.4,2-5c0-0.1,0.1-0.2,0.1-0.2c0.5-0.8,0.5-2-0.5-2.5c-0.1,0-0.2,0-0.2,0c-0.5,0-1,0.3-1.2,0.8
	c0,0.1-0.1,0.2-0.1,0.2c-0.3,1.5-0.7,2.8-1.1,4.1c0,0.1,0,0.2-0.1,0.2c0,0.1-0.1,0.2-0.1,0.2c0,0.1-0.1,0.1-0.1,0.2
	c-0.3,0.6-0.6,1.2-1.2,1.6c-0.1,0-0.1,0-0.2,0.1c-1,0.3-1.5-0.4-1.7-1.3c0-0.2-0.1-0.4-0.1-0.5c-0.1-0.2-0.1-0.4-0.1-0.7
	c0-0.1,0-0.2,0-0.3c-0.1-1.3,0-2.6,0.3-3.9c0-0.1,0-0.2,0.1-0.3c0.1-0.4,0.2-0.8,0.2-1.2c0-0.1,0-0.2,0-0.3
	c-0.1-0.9-0.7-1.9-1.8-1.4c-0.1,0-0.1,0.1-0.2,0.1c-0.6,0.4-0.4,1.5-0.3,2.2c0,0.1,0,0.2,0.1,0.3c0.3,1.3,0.4,2.5,0.3,3.9
	c0,0.1,0,0.2,0,0.3c0,0.2-0.1,0.3-0.1,0.5c0,0.1,0,0.2,0,0.2c0,0.7-0.2,1.2-0.8,1.8c-0.1,0-0.1,0.1-0.2,0.1c-0.3,0.2-0.7,0.3-1,0.1
	c-0.1,0-0.1,0-0.2-0.1c-0.1,0-0.1-0.1-0.2-0.1c-1.8-1.9-1.8-4.6-2.4-7.1c0-0.1,0-0.1-0.1-0.2c0.1,0,0.1-0.1,0-0.3
	c-0.1-0.1-0.1-0.1-0.2-0.1c-1-0.6-1.8,0.3-1.8,1.3c0,0.1,0,0.2,0,0.2c0.8,2.6,2.4,4.9,2.8,7.6c0,0.2,0.1,0.5,0.1,0.7
	c0.3,1.9-0.8,4.9-3.1,3.3c-0.1-0.1-0.3-0.2-0.4-0.3c-0.7-0.5-1.3-1.1-1.8-1.7c0-0.1-0.1-0.1-0.1-0.2c-0.4-0.5-1-1.1-1.7-0.9
	c-0.1,0-0.2,0-0.2,0.1c-0.1,0-0.2,0.1-0.3,0.1c-0.1,0-0.2,0.1-0.2,0.2c-0.7,0.5-0.3,1.5,0.4,1.9c0.1,0.1,0.1,0.1,0.2,0.2
	c0.3,0.2,0.5,0.4,0.8,0.6c0.1,0,0.2,0.1,0.2,0.1c1.5,0.9,3,1.8,4.2,3.1c0.1,0.1,0.1,0.1,0.2,0.2c0.4,0.3,0.7,0.7,1.1,1.1
	c0.1,0.1,0.1,0.1,0.2,0.2c0.2,0.2,0.3,0.5,0.5,0.7c0.1,0.1,0.1,0.1,0.2,0.2c0.7,0.8,1.4,1.5,2.5,1.7c0.1,0,0.2,0,0.3,0
	c0.2,0,0.4-0.1,0.6-0.2c0.1,0,0.2-0.1,0.2-0.1c0.1,0,0.2-0.1,0.3-0.1c0.7-0.2,1.2-0.4,1.9-0.3c0.1,0,0.2,0,0.3,0.1
	c1,0.5,2.5,1.1,3.4,0c0.1-0.1,0.1-0.1,0.2-0.2C93.6,31.3,93.7,31.1,93.8,30.9L93.8,30.9z"/>
<rect x="-53" class="st1" width="283.5" height="283.5"/>
</svg>
