<?xml version="1.0" encoding="utf-8"?>
<!-- Generator: Adobe Illustrator 22.1.0, SVG Export Plug-In . SVG Version: 6.00 Build 0)  -->
<svg version="1.1" id="Layer_1" xmlns="http://www.w3.org/2000/svg" xmlns:xlink="http://www.w3.org/1999/xlink" x="0px" y="0px"
	 viewBox="0 0 513 97" style="enable-background:new 0 0 513 97;" xml:space="preserve">
<style type="text/css">
	.st0{fill:#161616;}
	.st1{enable-background:new    ;}
	.st2{fill:#FFFFFF;}
	.st3{fill:#FFFFFF;stroke:#FFFFFF;stroke-miterlimit:10;}
	.st4{fill:none;stroke:#FFFFFF;stroke-miterlimit:10;}
	.st5{stroke:#000000;stroke-miterlimit:10;}
	.st6{fill:none;stroke:#000000;stroke-miterlimit:10;}
</style>
<title>logo-res</title>
<rect y="0.5" class="st0" width="242" height="97"/>
<g class="st1">
	<path class="st2" d="M35,51.8c0-0.7-0.2-1.3-0.5-1.8c-0.3-0.5-0.7-0.9-1.3-1.2c-0.5-0.3-1.1-0.6-1.7-0.8s-1.2-0.4-1.8-0.6
		c-0.8-0.3-1.7-0.6-2.5-1C26.4,46,25.7,45.5,25,45s-1.3-1.2-1.7-1.9s-0.7-1.6-0.7-2.6c0-1,0.2-1.9,0.7-2.7c0.4-0.8,1-1.5,1.7-2
		c0.7-0.5,1.5-1,2.4-1.2c0.9-0.3,1.8-0.4,2.7-0.4c1,0,2,0.2,2.9,0.5c0.9,0.3,1.8,0.8,2.5,1.4c0.7,0.6,1.3,1.3,1.8,2.2
		s0.7,1.8,0.7,2.9H35c-0.1-0.7-0.3-1.3-0.5-1.8c-0.2-0.6-0.6-1-1-1.4c-0.4-0.4-0.9-0.7-1.5-0.9c-0.6-0.2-1.2-0.3-1.9-0.3
		c-0.6,0-1.1,0.1-1.7,0.2c-0.5,0.2-1,0.4-1.4,0.7s-0.8,0.7-1,1.2c-0.3,0.5-0.4,1-0.4,1.6c0,0.7,0.2,1.2,0.5,1.7
		c0.3,0.5,0.8,0.9,1.3,1.2c0.5,0.3,1.1,0.6,1.7,0.8s1.2,0.4,1.7,0.6c0.6,0.2,1.2,0.4,1.8,0.6c0.6,0.2,1.2,0.5,1.7,0.8
		c0.5,0.3,1.1,0.6,1.5,1s0.9,0.8,1.2,1.3c0.4,0.5,0.6,1,0.8,1.6c0.2,0.6,0.3,1.2,0.3,1.9c0,1-0.2,2-0.7,2.7c-0.5,0.8-1.1,1.4-1.8,2
		c-0.7,0.5-1.6,0.9-2.5,1.2c-0.9,0.3-1.9,0.4-2.8,0.4c-1,0-2.1-0.2-3.1-0.5c-1-0.3-1.9-0.8-2.7-1.4c-0.8-0.6-1.4-1.3-1.9-2.2
		c-0.5-0.9-0.8-1.9-0.8-3h3c0.1,0.7,0.3,1.4,0.6,1.9c0.3,0.6,0.7,1,1.2,1.4c0.5,0.4,1,0.7,1.6,0.9c0.6,0.2,1.3,0.3,2,0.3
		c0.6,0,1.1-0.1,1.7-0.2s1.1-0.4,1.5-0.7c0.4-0.3,0.8-0.7,1.1-1.2C34.9,53,35,52.5,35,51.8z"/>
	<path class="st2" d="M48.1,46.9l-2.6,3v7.9h-3V34.4h3v11.4l2.3-2.8l6.9-8.6h3.6l-8.2,10.2l8.7,13.2h-3.6L48.1,46.9z"/>
	<path class="st2" d="M73.4,51.7h-7.8l-1.9,6.1h-3l7.5-23.4h2.5l7.4,23.4h-3L73.4,51.7z M66.4,49.1h6.2L69.6,39L66.4,49.1z"/>
	<path class="st2" d="M96.7,57.7h-3l-9.1-17.5l0,17.5h-3V34.4h3l9.1,17.4l0-17.4h3V57.7z"/>
	<path class="st2" d="M114,51.8c0-0.7-0.2-1.3-0.5-1.8c-0.3-0.5-0.7-0.9-1.3-1.2c-0.5-0.3-1.1-0.6-1.7-0.8s-1.2-0.4-1.8-0.6
		c-0.8-0.3-1.7-0.6-2.5-1c-0.9-0.4-1.6-0.8-2.3-1.4s-1.3-1.2-1.7-1.9s-0.7-1.6-0.7-2.6c0-1,0.2-1.9,0.7-2.7c0.4-0.8,1-1.5,1.7-2
		c0.7-0.5,1.5-1,2.4-1.2c0.9-0.3,1.8-0.4,2.7-0.4c1,0,2,0.2,2.9,0.5c0.9,0.3,1.8,0.8,2.5,1.4c0.7,0.6,1.3,1.3,1.8,2.2
		s0.7,1.8,0.7,2.9H114c-0.1-0.7-0.3-1.3-0.5-1.8c-0.2-0.6-0.6-1-1-1.4c-0.4-0.4-0.9-0.7-1.5-0.9c-0.6-0.2-1.2-0.3-1.9-0.3
		c-0.6,0-1.1,0.1-1.7,0.2c-0.5,0.2-1,0.4-1.4,0.7s-0.8,0.7-1,1.2c-0.3,0.5-0.4,1-0.4,1.6c0,0.7,0.2,1.2,0.5,1.7
		c0.3,0.5,0.8,0.9,1.3,1.2c0.5,0.3,1.1,0.6,1.7,0.8s1.2,0.4,1.7,0.6c0.6,0.2,1.2,0.4,1.8,0.6c0.6,0.2,1.2,0.5,1.7,0.8
		c0.5,0.3,1.1,0.6,1.5,1s0.9,0.8,1.2,1.3c0.4,0.5,0.6,1,0.8,1.6c0.2,0.6,0.3,1.2,0.3,1.9c0,1-0.2,2-0.7,2.7c-0.5,0.8-1.1,1.4-1.8,2
		c-0.7,0.5-1.6,0.9-2.5,1.2c-0.9,0.3-1.9,0.4-2.8,0.4c-1,0-2.1-0.2-3.1-0.5c-1-0.3-1.9-0.8-2.7-1.4c-0.8-0.6-1.4-1.3-1.9-2.2
		c-0.5-0.9-0.8-1.9-0.8-3h3c0.1,0.7,0.3,1.4,0.6,1.9c0.3,0.6,0.7,1,1.2,1.4c0.5,0.4,1,0.7,1.6,0.9c0.6,0.2,1.3,0.3,2,0.3
		c0.6,0,1.1-0.1,1.7-0.2s1.1-0.4,1.5-0.7c0.4-0.3,0.8-0.7,1.1-1.2C113.8,53,114,52.5,114,51.8z"/>
	<path class="st2" d="M121.5,34.4h14.1v2.6H130v18.2h5.6v2.6h-14.1v-2.6h5.5V36.9h-5.5V34.4z"/>
	<path class="st2" d="M155.9,57.7h-3l-9.1-17.5l0,17.5h-3V34.4h3l9.1,17.4l0-17.4h3V57.7z"/>
	<path class="st2" d="M176.1,54.7c-1,1.2-2.1,2-3.4,2.6c-1.3,0.6-2.7,0.8-4.2,0.8c-1,0-1.8-0.2-2.7-0.4c-0.8-0.3-1.5-0.7-2.2-1.2
		c-0.6-0.5-1.2-1.1-1.7-1.8c-0.5-0.7-0.9-1.4-1.2-2.2c-0.3-0.8-0.6-1.6-0.7-2.5c-0.2-0.9-0.3-1.7-0.3-2.6v-2.7
		c0-0.9,0.1-1.7,0.2-2.6c0.1-0.9,0.4-1.7,0.7-2.5c0.3-0.8,0.7-1.5,1.1-2.2s1-1.3,1.6-1.8c0.6-0.5,1.3-0.9,2.1-1.2
		c0.8-0.3,1.7-0.4,2.7-0.4c1.1,0,2.1,0.2,3,0.5c0.9,0.3,1.7,0.8,2.4,1.4c0.7,0.6,1.2,1.4,1.7,2.3s0.7,1.9,0.8,3h-2.9
		c-0.1-0.7-0.3-1.3-0.5-1.9c-0.2-0.6-0.6-1.1-1-1.5c-0.4-0.4-0.9-0.7-1.4-1c-0.6-0.2-1.2-0.3-1.9-0.3c-0.7,0-1.3,0.1-1.9,0.4
		c-0.5,0.2-1,0.6-1.4,1c-0.4,0.4-0.7,0.9-1,1.4c-0.3,0.5-0.5,1.1-0.7,1.7s-0.3,1.2-0.4,1.8c-0.1,0.6-0.1,1.2-0.1,1.8v2.7
		c0,0.6,0.1,1.2,0.2,1.8c0.1,0.6,0.2,1.2,0.4,1.8c0.2,0.6,0.4,1.2,0.7,1.7c0.3,0.5,0.7,1,1.1,1.4c0.4,0.4,0.9,0.7,1.5,1
		c0.6,0.2,1.2,0.4,1.9,0.4c0.4,0,0.8,0,1.3,0c0.4,0,0.9-0.1,1.3-0.3c0.4-0.1,0.8-0.3,1.2-0.5c0.4-0.2,0.7-0.5,0.9-0.9l0-5.3h-4.8
		v-2.5h7.6L176.1,54.7z"/>
	<path class="st2" d="M216.2,36.9H209v20.8h-2.9V36.9h-7.2v-2.5h17.3V36.9z"/>
</g>
<circle class="st3" cx="190.9" cy="53.8" r="3.8"/>
<circle class="st4" cx="190.9" cy="37.8" r="3.8"/>
<line class="st4" x1="190.9" y1="55.8" x2="190.9" y2="41.2"/>
<circle class="st2" cx="190.9" cy="37.8" r="1.1"/>
<g class="st1">
	<path d="M293.1,50.2c0-0.4-0.1-0.8-0.2-1.2c-0.1-0.4-0.4-0.7-0.7-1c-0.3-0.3-0.8-0.6-1.4-0.9c-0.6-0.3-1.3-0.5-2.1-0.7
		c-1-0.3-2-0.6-2.9-1c-0.9-0.4-1.7-0.9-2.4-1.5s-1.3-1.3-1.7-2.1c-0.4-0.8-0.6-1.7-0.6-2.7c0-1,0.2-1.9,0.6-2.7
		c0.4-0.8,1-1.5,1.7-2.1c0.7-0.6,1.6-1,2.6-1.3c1-0.3,2.1-0.5,3.3-0.5c1.2,0,2.3,0.2,3.3,0.5s1.9,0.8,2.6,1.5
		c0.7,0.6,1.3,1.4,1.7,2.3c0.4,0.9,0.6,1.8,0.6,2.9h-4.4c0-0.5-0.1-1-0.3-1.4c-0.2-0.4-0.4-0.8-0.7-1.1c-0.3-0.3-0.7-0.6-1.2-0.7
		s-1.1-0.3-1.7-0.3c-0.6,0-1.1,0.1-1.6,0.2s-0.9,0.3-1.2,0.6s-0.6,0.6-0.7,0.9c-0.2,0.4-0.2,0.7-0.2,1.2c0,0.4,0.1,0.8,0.3,1.2
		s0.5,0.7,1,1c0.4,0.3,0.9,0.5,1.5,0.8c0.6,0.2,1.3,0.5,2,0.7c1.1,0.3,2.1,0.7,3,1.1c0.9,0.4,1.7,1,2.3,1.6c0.6,0.6,1.2,1.3,1.5,2.1
		c0.4,0.8,0.5,1.7,0.5,2.6c0,1-0.2,1.9-0.6,2.7s-1,1.5-1.7,2c-0.7,0.6-1.6,1-2.6,1.3c-1,0.3-2.1,0.4-3.3,0.4c-0.7,0-1.5-0.1-2.2-0.2
		s-1.4-0.3-2.1-0.6s-1.3-0.6-1.9-1c-0.6-0.4-1.1-0.9-1.5-1.5c-0.4-0.6-0.8-1.2-1-1.9c-0.2-0.7-0.4-1.5-0.4-2.3h4.4
		c0,0.7,0.1,1.3,0.4,1.8c0.2,0.5,0.5,0.9,0.9,1.2c0.4,0.3,0.9,0.6,1.4,0.7c0.6,0.2,1.2,0.2,1.9,0.2c0.6,0,1.1-0.1,1.6-0.2
		c0.5-0.1,0.9-0.3,1.2-0.6c0.3-0.2,0.6-0.5,0.7-0.9C293,51,293.1,50.6,293.1,50.2z"/>
	<path d="M307.7,46.7l-2.5,2.7v6.9h-4.5V32.9h4.5v10.7l2.1-2.9l5.7-7.9h5.5l-7.9,10.3l8.2,13h-5.4L307.7,46.7z"/>
	<path d="M332,51.4h-7l-1.4,4.9h-4.8l7.7-23.4h4.1l7.5,23.4h-4.8L332,51.4z M326,47.6h4.9l-2.4-8.6L326,47.6z"/>
	<path d="M355.6,56.3h-4.5l-6.5-15.1v15.1h-4.5V32.9h4.5l6.5,15l0-15h4.5V56.3z"/>
	<path d="M372.1,50.2c0-0.4-0.1-0.8-0.2-1.2c-0.1-0.4-0.4-0.7-0.7-1c-0.3-0.3-0.8-0.6-1.4-0.9c-0.6-0.3-1.3-0.5-2.1-0.7
		c-1-0.3-2-0.6-2.9-1s-1.7-0.9-2.4-1.5c-0.7-0.6-1.3-1.3-1.7-2.1c-0.4-0.8-0.6-1.7-0.6-2.7c0-1,0.2-1.9,0.6-2.7
		c0.4-0.8,1-1.5,1.7-2.1c0.7-0.6,1.6-1,2.6-1.3c1-0.3,2.1-0.5,3.3-0.5c1.2,0,2.3,0.2,3.3,0.5s1.9,0.8,2.6,1.5
		c0.7,0.6,1.3,1.4,1.7,2.3c0.4,0.9,0.6,1.8,0.6,2.9h-4.4c0-0.5-0.1-1-0.3-1.4c-0.2-0.4-0.4-0.8-0.7-1.1c-0.3-0.3-0.7-0.6-1.2-0.7
		s-1.1-0.3-1.7-0.3c-0.6,0-1.1,0.1-1.6,0.2s-0.9,0.3-1.2,0.6c-0.3,0.3-0.6,0.6-0.7,0.9c-0.2,0.4-0.2,0.7-0.2,1.2
		c0,0.4,0.1,0.8,0.3,1.2c0.2,0.4,0.5,0.7,1,1c0.4,0.3,0.9,0.5,1.5,0.8c0.6,0.2,1.3,0.5,2,0.7c1.1,0.3,2.1,0.7,3,1.1
		c0.9,0.4,1.7,1,2.3,1.6c0.6,0.6,1.2,1.3,1.5,2.1c0.4,0.8,0.5,1.7,0.5,2.6c0,1-0.2,1.9-0.6,2.7c-0.4,0.8-1,1.5-1.7,2
		c-0.7,0.6-1.6,1-2.6,1.3c-1,0.3-2.1,0.4-3.3,0.4c-0.7,0-1.5-0.1-2.2-0.2s-1.4-0.3-2.1-0.6s-1.3-0.6-1.9-1c-0.6-0.4-1.1-0.9-1.5-1.5
		c-0.4-0.6-0.8-1.2-1-1.9c-0.2-0.7-0.4-1.5-0.4-2.3h4.4c0,0.7,0.1,1.3,0.4,1.8c0.2,0.5,0.5,0.9,0.9,1.2c0.4,0.3,0.9,0.6,1.4,0.7
		c0.6,0.2,1.2,0.2,1.9,0.2c0.6,0,1.1-0.1,1.6-0.2c0.5-0.1,0.9-0.3,1.2-0.6c0.3-0.2,0.6-0.5,0.7-0.9C372,51,372.1,50.6,372.1,50.2z"
		/>
	<path d="M380.7,32.9h13.5v3.6h-4.6v16.1h4.6v3.6h-13.5v-3.6h4.4V36.6h-4.4V32.9z"/>
	<path d="M414.8,56.3h-4.5l-6.5-15.1v15.1h-4.5V32.9h4.5l6.5,15l0-15h4.5V56.3z"/>
	<path d="M435.2,53.6c-0.3,0.4-0.7,0.7-1.2,1.1c-0.5,0.4-1.1,0.7-1.8,1c-0.7,0.3-1.5,0.5-2.3,0.7c-0.9,0.2-1.8,0.3-2.8,0.3
		c-1.3,0-2.5-0.2-3.6-0.7c-1.1-0.5-2-1.2-2.7-2c-0.8-0.9-1.3-2-1.8-3.3c-0.4-1.3-0.6-2.8-0.6-4.4v-3.2c0-1.6,0.2-3.1,0.7-4.4
		s1-2.4,1.8-3.3s1.7-1.6,2.7-2.1c1-0.5,2.2-0.7,3.4-0.7c1.3,0,2.5,0.2,3.4,0.5s1.8,0.8,2.5,1.4c0.7,0.6,1.2,1.4,1.6,2.3
		s0.6,1.9,0.7,3h-4.4c-0.2-1.2-0.5-2.1-1.1-2.7c-0.6-0.6-1.5-0.9-2.7-0.9c-0.6,0-1.1,0.1-1.6,0.4c-0.5,0.3-0.9,0.7-1.3,1.3
		c-0.4,0.6-0.7,1.3-0.9,2.1c-0.2,0.8-0.3,1.8-0.3,2.9v3.2c0,2.2,0.4,3.9,1.1,5c0.7,1.2,1.8,1.7,3.3,1.8c0.4,0,0.7,0,1-0.1
		s0.7-0.1,1-0.2s0.6-0.2,0.8-0.3s0.4-0.3,0.5-0.4l0-4.2h-3.9v-3.4h8.4L435.2,53.6z"/>
	<path d="M475.8,36.6h-7.2v19.7h-4.5V36.6h-7.1v-3.7h18.9V36.6z"/>
</g>
<g>
	<circle class="st5" cx="450.8" cy="52.4" r="3.8"/>
	<circle class="st6" cx="450.8" cy="36.4" r="3.8"/>
	<line class="st6" x1="450.8" y1="54.4" x2="450.8" y2="39.8"/>
	<circle class="st5" cx="450.8" cy="36.4" r="1.1"/>
</g>
</svg>
