<?xml version="1.0" encoding="utf-8"?>
<!-- Generator: Adobe Illustrator 22.0.1, SVG Export Plug-In . SVG Version: 6.00 Build 0)  -->
<svg version="1.1" id="Layer_1" xmlns="http://www.w3.org/2000/svg" xmlns:xlink="http://www.w3.org/1999/xlink" x="0px" y="0px"
	 viewBox="0 0 432.6 89.9" style="enable-background:new 0 0 432.6 89.9;" xml:space="preserve">
<g>
	<path d="M49.7,4.6c4.2,2.6,7.5,6.2,9.9,10.9c2.4,4.7,3.7,10,3.7,15.9c0,5.9-1.2,11.2-3.7,15.9c-2.4,4.7-5.7,8.3-9.9,10.8
		c-4.2,2.6-8.8,3.9-13.7,3.9c-7.4,0-13.3-3.2-17.6-9.5v37.3H0V1.4h18.4v7.8c4.1-5.7,10-8.5,17.6-8.5C40.9,0.7,45.5,2,49.7,4.6z
		 M25.1,18.3c-2,1.1-3.6,2.8-4.9,4.9c-1.3,2.2-1.9,4.9-1.9,8.1c0,3.2,0.6,5.9,1.9,8.2c1.3,2.2,2.9,3.9,4.9,5c2,1.1,4.1,1.7,6.3,1.7
		c2.2,0,4.3-0.6,6.3-1.7c2-1.1,3.6-2.8,4.9-4.9c1.3-2.2,1.9-4.9,1.9-8.1s-0.6-5.9-1.9-8.2c-1.3-2.2-2.9-3.9-4.9-5
		c-2-1.1-4.1-1.7-6.3-1.7C29.3,16.6,27.1,17.2,25.1,18.3z"/>
	<path d="M115.5,9.2V1.4h18.4v59.9h-18.4v-8.7c-4.4,6.3-10.3,9.5-17.6,9.5c-4.9,0-9.5-1.3-13.7-3.9c-4.2-2.6-7.5-6.2-9.9-10.8
		c-2.4-4.7-3.7-10-3.7-15.9c0-5.9,1.2-11.2,3.7-15.9c2.4-4.7,5.7-8.3,9.9-10.9c4.2-2.6,8.8-3.9,13.7-3.9
		C105.5,0.7,111.4,3.6,115.5,9.2z M96.1,18.3c-2,1.1-3.7,2.8-4.9,5c-1.3,2.2-1.9,4.9-1.9,8.2s0.6,5.9,1.9,8.1
		c1.3,2.2,2.9,3.8,4.9,4.9c2,1.1,4.1,1.7,6.3,1.7c2.1,0,4.2-0.6,6.3-1.7c2-1.1,3.7-2.8,4.9-5c1.3-2.2,1.9-4.9,1.9-8.2
		c0-3.2-0.6-5.9-1.9-8.1c-1.3-2.2-2.9-3.8-4.9-4.9c-2-1.1-4.1-1.7-6.3-1.7C100.2,16.6,98.1,17.2,96.1,18.3z"/>
	<path d="M191.1,1.3v29.6c0,4.5-1.1,8-3.4,10.4c-2.3,2.4-5.6,3.7-9.9,3.7c-4.3,0-7.6-1.2-9.8-3.7c-2.2-2.4-3.3-5.9-3.3-10.4V1.3
		h-18.4v29.6c0,6.7,1.4,12.3,4.2,17c2.8,4.7,6.6,8.2,11.4,10.6c4.8,2.4,9.9,3.5,15.5,3.5s10.8-1.2,15.7-3.5
		c4.9-2.4,8.8-5.9,11.8-10.6c3-4.7,4.5-10.4,4.5-17V1.3H191.1z"/>
	<polygon points="238.6,47.3 238.6,1.3 220.2,1.3 220.2,61.3 261.4,61.3 261.4,47.3 	"/>
	<path d="M313,9.2V1.4h18.4v59.9H313v-8.7c-4.4,6.3-10.3,9.5-17.6,9.5c-4.9,0-9.5-1.3-13.7-3.9c-4.2-2.6-7.5-6.2-9.9-10.8
		c-2.4-4.7-3.7-10-3.7-15.9c0-5.9,1.2-11.2,3.7-15.9c2.4-4.7,5.7-8.3,9.9-10.9c4.2-2.6,8.8-3.9,13.7-3.9C303,0.7,308.9,3.6,313,9.2z
		 M293.6,18.3c-2,1.1-3.7,2.8-4.9,5c-1.3,2.2-1.9,4.9-1.9,8.2s0.6,5.9,1.9,8.1c1.3,2.2,2.9,3.8,4.9,4.9c2,1.1,4.1,1.7,6.3,1.7
		c2.1,0,4.2-0.6,6.3-1.7c2-1.1,3.7-2.8,4.9-5c1.3-2.2,1.9-4.9,1.9-8.2c0-3.2-0.6-5.9-1.9-8.1c-1.3-2.2-2.9-3.8-4.9-4.9
		c-2-1.1-4.1-1.7-6.3-1.7C297.7,16.6,295.6,17.2,293.6,18.3z"/>
	<path d="M353.3,28.5v41.6c0,1.4-0.4,2.5-1.3,3.2c-0.9,0.7-2.3,1-4.3,1h-4.4v15.6h7.2c6.7,0,11.9-1.5,15.6-4.5
		c3.7-3,5.5-8.1,5.5-15.3V28.5H353.3z"/>
	<path d="M362.4,21.6c3,0,5.5-1,7.6-3.1c2.1-2.1,3.1-4.6,3.1-7.6c0-3.1-1-5.7-3.1-7.7C367.9,1,365.4,0,362.4,0c-3,0-5.6,1-7.6,3.1
		c-2.1,2.1-3.1,4.7-3.1,7.7c0,3,1,5.5,3.1,7.6C356.8,20.6,359.4,21.6,362.4,21.6z"/>
	<path d="M424.9,6c4.7,3.5,7.2,8.3,7.5,14.4h-18.8c-0.2-2.1-0.9-3.5-2.1-4.2c-1.2-0.8-3-1.1-5.5-1.1c-2.3,0-4.1,0.4-5.3,1.1
		c-1.3,0.8-1.9,1.8-1.9,3.3c0,1.6,0.9,2.8,2.7,3.6c1.8,0.8,4.8,1.6,9,2.5c4.5,0.9,8.3,1.9,11.2,3c3,1,5.5,2.7,7.7,5
		c2.1,2.3,3.2,5.5,3.2,9.5c0,3.7-1.1,7-3.3,9.9c-2.2,2.9-5.2,5.1-9,6.7c-3.8,1.6-8.1,2.4-12.8,2.4c-7.4,0-13.6-1.7-18.5-5
		c-4.9-3.3-7.5-8.3-7.9-14.8h18.8c0.3,1.9,1.1,3.3,2.4,4.2c1.3,0.9,3.1,1.3,5.4,1.3c2.1,0,3.9-0.5,5.3-1.5c1.4-1,2.1-2.2,2.1-3.7
		c0-1.7-1-3-2.9-3.8c-1.9-0.8-5-1.7-9.1-2.5c-4.5-0.9-8.2-1.9-11.1-2.9c-2.9-1-5.4-2.6-7.5-4.9c-2.1-2.3-3.2-5.3-3.2-9.1
		c0-3.4,1-6.6,3-9.4c2-2.8,4.9-5.1,8.8-6.8c3.9-1.7,8.6-2.5,14.1-2.5C414.2,0.7,420.2,2.5,424.9,6z"/>
</g>
</svg>
