<svg id="Layer_1" data-name="Layer 1" xmlns="http://www.w3.org/2000/svg" viewBox="0 0 436.6 96.51"><title>logo_1</title><rect x="356.09" y="6.47" width="18.34" height="16.34"/><path d="M62.34,20.8a26.84,26.84,0,0,0-9.9-10.9A25.63,25.63,0,0,0,38.74,6c-7.6,0-13.5,2.8-17.6,8.5V6.7H2.74V87.16h18.4V57.8c4.3,6.3,10.2,9.5,17.6,9.5a25.63,25.63,0,0,0,13.7-3.9,26,26,0,0,0,9.9-10.8A33.3,33.3,0,0,0,66,36.7,34.5,34.5,0,0,0,62.34,20.8Zm-17,24.1a13.53,13.53,0,0,1-4.9,4.9,12.52,12.52,0,0,1-12.6,0,13.09,13.09,0,0,1-4.9-5A16.3,16.3,0,0,1,21,36.6a15.67,15.67,0,0,1,1.9-8.1,13.53,13.53,0,0,1,4.9-4.9,13.24,13.24,0,0,1,6.3-1.7,13,13,0,0,1,6.3,1.7,13.09,13.09,0,0,1,4.9,5,16.3,16.3,0,0,1,1.9,8.2A15.67,15.67,0,0,1,45.34,44.9Z"/><path d="M118.24,14.5V6.7h18.4V66.6h-18.4V57.9c-4.4,6.3-10.3,9.5-17.6,9.5a25.63,25.63,0,0,1-13.7-3.9A27.21,27.21,0,0,1,77,52.7a34.5,34.5,0,0,1-3.7-15.9A33.3,33.3,0,0,1,77,20.9,26.84,26.84,0,0,1,86.94,10a25.63,25.63,0,0,1,13.7-3.9C108.24,6,114.14,8.9,118.24,14.5Zm-19.4,9.1a12.42,12.42,0,0,0-4.9,5A15.8,15.8,0,0,0,92,36.8a15.42,15.42,0,0,0,1.9,8.1,12.8,12.8,0,0,0,4.9,4.9,13,13,0,0,0,6.3,1.7,13.55,13.55,0,0,0,6.3-1.7,12.42,12.42,0,0,0,4.9-5,15.8,15.8,0,0,0,1.9-8.2,15.67,15.67,0,0,0-1.9-8.1,12.8,12.8,0,0,0-4.9-4.9,12.52,12.52,0,0,0-12.6,0Z"/><path d="M193.84,6.6V36.2c0,4.5-1.1,8-3.4,10.4s-5.6,3.7-9.9,3.7-7.6-1.2-9.8-3.7-3.3-5.9-3.3-10.4V6.6H149V36.2c0,6.7,1.4,12.3,4.2,17a27.09,27.09,0,0,0,11.4,10.6,33.9,33.9,0,0,0,15.5,3.5,36.42,36.42,0,0,0,15.7-3.5,28.69,28.69,0,0,0,11.8-10.6c3-4.7,4.5-10.4,4.5-17V6.6Z"/><polygon points="241.34 52.6 241.34 6.6 222.94 6.6 222.94 66.6 264.14 66.6 264.14 52.6 241.34 52.6"/><path d="M315.74,14.5V6.7h18.4V66.6h-18.4V57.9c-4.4,6.3-10.3,9.5-17.6,9.5a25.63,25.63,0,0,1-13.7-3.9,27.21,27.21,0,0,1-9.9-10.8,34.5,34.5,0,0,1-3.7-15.9,33.3,33.3,0,0,1,3.7-15.9,26.84,26.84,0,0,1,9.9-10.9,25.63,25.63,0,0,1,13.7-3.9C305.74,6,311.64,8.9,315.74,14.5Zm-19.4,9.1a12.42,12.42,0,0,0-4.9,5,15.8,15.8,0,0,0-1.9,8.2,15.42,15.42,0,0,0,1.9,8.1,12.8,12.8,0,0,0,4.9,4.9,13,13,0,0,0,6.3,1.7,13.55,13.55,0,0,0,6.3-1.7,12.42,12.42,0,0,0,4.9-5,15.8,15.8,0,0,0,1.9-8.2,15.67,15.67,0,0,0-1.9-8.1,12.8,12.8,0,0,0-4.9-4.9,12.52,12.52,0,0,0-12.6,0Z"/><path d="M356,33.8V75.4a3.82,3.82,0,0,1-1.3,3.2c-.9.7-2.3,1-4.3,1H346V95.2h7.2q10,0,15.6-4.5c3.7-3,5.5-8.1,5.5-15.3V33.8Z"/><path d="M427.64,11.3a18.17,18.17,0,0,1,7.5,14.4h-18.8q-.3-3.15-2.1-4.2c-1.2-.8-3-1.1-5.5-1.1a10.74,10.74,0,0,0-5.3,1.1,3.55,3.55,0,0,0-1.9,3.3q0,2.4,2.7,3.6a51.5,51.5,0,0,0,9,2.5,73.23,73.23,0,0,1,11.2,3,18.7,18.7,0,0,1,7.7,5c2.1,2.3,3.2,5.5,3.2,9.5a16,16,0,0,1-3.3,9.9,21.35,21.35,0,0,1-9,6.7,32.81,32.81,0,0,1-12.8,2.4c-7.4,0-13.6-1.7-18.5-5s-7.5-8.3-7.9-14.8h18.8a6,6,0,0,0,2.4,4.2,9.39,9.39,0,0,0,5.4,1.3,9,9,0,0,0,5.3-1.5,4.39,4.39,0,0,0,2.1-3.7c0-1.7-1-3-2.9-3.8a49.61,49.61,0,0,0-9.1-2.5,86.77,86.77,0,0,1-11.1-2.9,17.82,17.82,0,0,1-7.5-4.9,12.94,12.94,0,0,1-3.2-9.1,15.94,15.94,0,0,1,3-9.4,20.61,20.61,0,0,1,8.8-6.8A35.21,35.21,0,0,1,409.94,6C416.94,6,422.94,7.8,427.64,11.3Z"/></svg>