<?xml version="1.0" encoding="utf-8"?>
<!-- Generator: Adobe Illustrator 23.0.2, SVG Export Plug-In . SVG Version: 6.00 Build 0)  -->
<svg version="1.1" id="Layer_1" xmlns="http://www.w3.org/2000/svg" xmlns:xlink="http://www.w3.org/1999/xlink" x="0px" y="0px"
	 viewBox="0 0 1381 992.2" style="enable-background:new 0 0 1381 992.2;" xml:space="preserve">
<style type="text/css">
	.st0{fill:none;}
	.st1{fill:url(#SVGID_2_);}
	.st2{fill:url(#SVGID_3_);}
	.st3{fill:url(#SVGID_4_);}
</style>
<pattern  y="687" width="173" height="210" patternUnits="userSpaceOnUse" id="SVGID_1_" viewBox="5.2 -210 173 210" style="overflow:visible;">
	<g>
		<rect x="5.2" y="-210" class="st0" width="173" height="210"/>
		<g>
			<rect x="5.2" y="-210" class="st0" width="173" height="210"/>
			<g>
				<rect x="5.2" y="-210" class="st0" width="173" height="210"/>
				<g>
					<g>
						<path d="M118.2-43.5c0.1,0.5,0.2,1,0.2,1.6v0.1h10c0-0.3,0-0.7,0.1-1c0.1-1.3,0.3-2.5,0.4-3.8c0.1-0.9,0.2-1.7,0.3-2.6
							c0.1-1.1,0.3-2.2,0.4-3.3c0.1-1,0.2-2,0.3-3s0.2-1.9,0.3-2.9c0.2-1.6,0.3-3.3,0.5-4.9c0.1-0.6,0.2-1.3,0.2-1.9
							c0.1-0.9,0.1-1.8,0.3-2.6c0.1-0.8,0-0.9-0.8-0.9c-3.7,0-7.4,0-11.1,0c-1.1,0-2.2-0.1-3.3-0.1c-0.4,0-0.6,0.2-0.7,0.6
							c0,0.2,0,0.4,0,0.6c0.2,1.6,0.5,3.2,0.7,4.8c0.3,2.2,0.6,4.3,0.8,6.5c0.1,0.7,0.2,1.4,0.2,2.1c0.2,1.5,0.3,3,0.4,4.5
							C117.8-47.6,118-45.6,118.2-43.5z"/>
						<path d="M128.4-40.1h-10c0.1,1.4,0.1,2.8,0.2,4.1c0,0.6,0.5,1,1.1,1c1.4,0,6.2,0,7.2,0c0.8,0,1.1-0.4,1.4-1.2
							c0.1-0.2,0-0.5,0-0.7C128.4-37.9,128.4-39,128.4-40.1z"/>
					</g>
					<g>
						<path d="M189-63.3C189-63.3,189-63.4,189-63.3h-10.7l0,0c-2,1.6-2.1,6.6-2.1,6.6c-0.1,12.3,2.7,22.9,2.7,22.9h9.4
							c2.5-9.4,2.7-22.3,2.5-25.2C190.6-62,189-63.3,189-63.3z"/>
					</g>
				</g>
				<g>
					<g>
						<path d="M16-65.1c-0.1-0.7-0.7-4-1-4.4c-0.4-0.5-7.9-0.2-8.5,0c-0.5,0.2-1.1,3.7-1.2,4.4H16z"/>
						<path d="M16-63.3C16-63.3,16-63.4,16-63.3H5.3l0,0c-2,1.6-2.1,6.6-2.1,6.6C3.1-44.4,5.9-33.8,5.9-33.8h9.4
							c2.5-9.4,2.7-22.3,2.5-25.2C17.6-62,16-63.3,16-63.3z"/>
					</g>
					<g>
						<path d="M76.9-56.3v-0.4c0-0.6-0.4-1.1-0.9-1.1H62c-0.5,0-0.9,0.5-0.9,1.1v0.4H76.9z"/>
						<path d="M61.2-55.6v9.3c0,0.4,0.4,0.8,0.9,0.8h0.7l0,0c0,0.4,0.4,0.7,0.8,0.7h10.6c0.4,0,0.8-0.3,0.8-0.7l0,0h1
							c0.5,0,0.9-0.3,0.9-0.8v-9.3H61.2z"/>
					</g>
				</g>
				<g>
					<g>
						<path d="M175.9-113.5c0.1,0.5,0.2,1,0.2,1.6v0.1h10c0-0.3,0-0.7,0.1-1c0.1-1.3,0.3-2.5,0.4-3.8c0.1-0.8,0.2-1.7,0.3-2.6
							c0.1-1.1,0.3-2.2,0.4-3.3c0.1-1,0.2-2,0.3-3c0.1-0.9,0.2-1.9,0.3-2.9c0.2-1.6,0.3-3.3,0.5-4.9c0.1-0.6,0.2-1.3,0.2-1.9
							c0.1-0.9,0.1-1.8,0.3-2.6c0.1-0.8,0-0.9-0.8-0.9c-3.7,0-7.4,0-11.1,0c-1.1,0-2.2-0.1-3.3-0.1c-0.4,0-0.6,0.2-0.7,0.6
							c0,0.2,0,0.4,0,0.6c0.2,1.6,0.5,3.2,0.7,4.8c0.3,2.2,0.6,4.3,0.8,6.5c0.1,0.7,0.2,1.4,0.2,2.1c0.1,1.5,0.3,3,0.4,4.5
							C175.4-117.6,175.7-115.6,175.9-113.5z"/>
						<path d="M186.1-110.1h-10c0.1,1.4,0.1,2.8,0.2,4.2c0,0.6,0.5,1,1.1,1c1.4,0,6.2,0,7.2,0c0.8,0,1.1-0.4,1.4-1.2
							c0.1-0.2,0-0.5,0-0.7C186-107.9,186-109,186.1-110.1z"/>
					</g>
				</g>
				<g>
					<g>
						<path d="M2.9-113.5c0.1,0.5,0.2,1,0.2,1.6v0.1h10c0-0.3,0-0.7,0.1-1c0.1-1.3,0.3-2.5,0.4-3.8c0.1-0.8,0.2-1.7,0.3-2.6
							c0.1-1.1,0.3-2.2,0.4-3.3c0.1-1,0.2-2,0.3-3c0.1-0.9,0.2-1.9,0.3-2.9c0.2-1.6,0.3-3.3,0.5-4.9c0.1-0.6,0.2-1.3,0.2-1.9
							c0.1-0.9,0.1-1.8,0.3-2.6c0.1-0.8,0-0.9-0.8-0.9c-3.7,0-7.4,0-11.1,0c-1.1,0-2.2-0.1-3.3-0.1c-0.4,0-0.6,0.2-0.7,0.6
							c0,0.2,0,0.4,0,0.6c0.2,1.6,0.5,3.2,0.7,4.8c0.3,2.2,0.5,4.3,0.8,6.5c0.1,0.7,0.2,1.4,0.2,2.1c0.1,1.5,0.3,3,0.5,4.5
							C2.4-117.6,2.7-115.6,2.9-113.5z"/>
						<path d="M13.1-110.1h-10c0.1,1.4,0.1,2.8,0.2,4.2c0,0.6,0.5,1,1.1,1c1.4,0,6.2,0,7.2,0c0.8,0,1.1-0.4,1.4-1.2
							c0.1-0.2,0-0.5,0-0.7C13-107.9,13-109,13.1-110.1z"/>
					</g>
					<g>
						<path d="M73.7-135.1c-0.1-0.7-0.7-4-1-4.4c-0.3-0.5-7.9-0.2-8.5,0c-0.5,0.2-1.1,3.7-1.2,4.4H73.7z"/>
						<path d="M73.7-133.3L73.7-133.3H63l0,0c-2,1.6-2.1,6.6-2.1,6.6c-0.1,12.3,2.7,22.8,2.7,22.8H73c2.5-9.4,2.7-22.3,2.5-25.2
							C75.2-132,73.7-133.3,73.7-133.3z"/>
					</g>
					<g>
						<path d="M134.6-126.3v-0.4c0-0.6-0.4-1.1-0.9-1.1h-14c-0.5,0-0.9,0.5-0.9,1.1v0.4H134.6z"/>
						<path d="M118.8-125.6v9.3c0,0.4,0.4,0.8,0.9,0.8h0.7l0,0c0,0.4,0.4,0.7,0.8,0.7h10.6c0.4,0,0.8-0.3,0.8-0.7l0,0h1
							c0.5,0,0.9-0.3,0.9-0.8v-9.3H118.8z"/>
					</g>
				</g>
				<g>
					<g>
						<path d="M60.6-183.5c0.1,0.5,0.2,1,0.2,1.6v0.1h10c0-0.3,0-0.6,0.1-1c0.1-1.3,0.3-2.5,0.4-3.8c0.1-0.9,0.2-1.7,0.3-2.6
							c0.1-1.1,0.3-2.2,0.4-3.3c0.1-1,0.2-2,0.3-3c0.1-0.9,0.2-1.9,0.3-2.9c0.2-1.6,0.3-3.3,0.5-4.9c0.1-0.6,0.2-1.3,0.2-1.9
							c0.1-0.9,0.2-1.8,0.3-2.6c0.1-0.8,0-0.9-0.8-0.9c-3.7,0-7.4,0-11.1,0c-1.1,0-2.2-0.1-3.3-0.1c-0.4,0-0.6,0.2-0.7,0.6
							c0,0.2,0,0.4,0,0.6c0.2,1.6,0.5,3.2,0.7,4.8c0.3,2.2,0.5,4.3,0.8,6.5c0.1,0.7,0.2,1.4,0.2,2.1c0.2,1.5,0.3,3,0.5,4.5
							C60.1-187.6,60.3-185.6,60.6-183.5z"/>
						<path d="M70.8-180.1h-10c0.1,1.4,0.1,2.8,0.2,4.1c0,0.6,0.5,1,1.1,1c1.4,0,6.2,0,7.2,0c0.8,0,1.1-0.4,1.4-1.2
							c0.1-0.2,0-0.5,0-0.7C70.7-177.9,70.7-179,70.8-180.1z"/>
					</g>
					<g>
						<path d="M131.3-205.1c-0.1-0.7-0.7-4-1-4.4c-0.4-0.5-7.9-0.2-8.5,0c-0.5,0.2-1.1,3.7-1.2,4.4H131.3z"/>
						<path d="M131.4-203.3L131.4-203.3h-10.7l0,0c-2,1.6-2.1,6.6-2.1,6.6c-0.1,12.3,2.7,22.9,2.7,22.9h9.4
							c2.5-9.4,2.7-22.3,2.5-25.2C132.9-202,131.4-203.3,131.4-203.3z"/>
					</g>
					<g>
						<path d="M192.3-196.3v-0.4c0-0.6-0.4-1.1-0.9-1.1h-14c-0.5,0-0.9,0.5-0.9,1.1v0.4H192.3z"/>
						<path d="M176.5-195.6v9.3c0,0.4,0.4,0.8,0.9,0.8h0.7l0,0c0,0.4,0.4,0.7,0.8,0.7h10.6c0.4,0,0.8-0.3,0.8-0.7l0,0h1
							c0.5,0,0.9-0.3,0.9-0.8v-9.3C192.2-195.6,176.5-195.6,176.5-195.6z"/>
					</g>
				</g>
				<g>
					<g>
						<path d="M19.3-196.3v-0.4c0-0.6-0.4-1.1-0.9-1.1h-14c-0.5,0-0.9,0.5-0.9,1.1v0.4H19.3z"/>
						<path d="M3.5-195.6v9.3c0,0.4,0.4,0.8,0.9,0.8h0.7l0,0c0,0.4,0.4,0.7,0.8,0.7h10.6c0.5,0,0.8-0.3,0.8-0.7l0,0h1
							c0.5,0,0.9-0.3,0.9-0.8v-9.3C19.2-195.6,3.5-195.6,3.5-195.6z"/>
					</g>
				</g>
			</g>
		</g>
	</g>
</pattern>
<pattern  id="SVGID_2_" xlink:href="#SVGID_1_" patternTransform="matrix(1 0 0 1.1647 -91.37 20472.1328)">
</pattern>
<rect class="st1" width="1381" height="992.2"/>
<g>
	<path d="M449.7-62.6c0.1,1,0.3,2,0.4,3c0,0.1,0,0.1,0,0.2h19.4c0-0.6,0.1-1.3,0.1-1.9c0.2-2.5,0.6-4.9,0.8-7.4
		c0.2-1.6,0.3-3.3,0.5-4.9c0.2-2.1,0.5-4.2,0.7-6.3c0.2-1.9,0.4-3.9,0.6-5.8c0.2-1.8,0.4-3.7,0.6-5.5c0.3-3.2,0.6-6.3,1-9.5
		c0.1-1.2,0.3-2.4,0.5-3.6c0.2-1.7,0.3-3.4,0.5-5.1c0.2-1.6,0.1-1.8-1.5-1.8c-7.1,0-14.3,0-21.4,0c-2.1,0-4.3-0.1-6.4-0.2
		c-0.8,0-1.2,0.4-1.3,1.2c0,0.4,0,0.8,0,1.2c0.4,3.1,0.9,6.2,1.3,9.3c0.5,4.2,1.1,8.4,1.6,12.6c0.2,1.4,0.3,2.8,0.4,4.2
		c0.3,2.9,0.6,5.8,0.9,8.7C448.8-70.5,449.2-66.6,449.7-62.6z"/>
	<path d="M469.5-56.1h-19.4c0.2,2.7,0.3,5.4,0.4,8c0.1,1.1,1,2,2.1,2c2.7,0,12,0,13.9,0c1.5,0,2.2-0.8,2.6-2.2
		c0.1-0.4,0.1-0.9,0.1-1.4C469.3-51.8,469.4-53.9,469.5-56.1z"/>
</g>
<g>
	<path d="M548.1-104.4c-0.3-1.4-1.4-7.8-2-8.6c-0.7-0.9-15.3-0.5-16.4,0c-1,0.4-2,7.2-2.2,8.6H548.1z"/>
	<path d="M548.2-101.1L548.2-101.1l-20.8-0.1v0.1c-3.9,3.2-4.1,12.8-4.1,12.8C523-64.6,528.5-44,528.5-44h18.3
		c4.8-18.3,5.3-43.2,4.8-48.8C551.1-98.6,548.2-101.1,548.2-101.1z"/>
</g>
<g>
	<path d="M627.4-89.4v-0.8c0-1.2-0.8-2.1-1.7-2.1h-27.1c-1,0-1.7,0.9-1.7,2.1v0.8H627.4z"/>
	<path d="M596.9-86.1v18c0,0.8,0.8,1.5,1.7,1.5h1.3l0,0c0,0.7,0.7,1.3,1.6,1.3h20.6c0.9,0,1.6-0.6,1.6-1.3l0,0h2
		c1,0,1.7-0.7,1.7-1.5v-18H596.9z"/>
</g>
<g>
	
		<linearGradient id="SVGID_3_" gradientUnits="userSpaceOnUse" x1="-506.5478" y1="552.9177" x2="1314.8511" y2="552.9177" gradientTransform="matrix(1.085 -0.3314 0.3866 1.2657 -710.4967 -51.3323)">
		<stop  offset="0" style="stop-color:#00FF66"/>
		<stop  offset="1" style="stop-color:#FF90FF"/>
	</linearGradient>
	<path class="st2" d="M351.3,563.4c-0.6-1.7-1.2-3.3-2-4.8c-6.2-12.9-7.1-27.4-1.7-40.5c0.2-0.6,0.5-1.1,0.7-1.7
		c3-7.4,10.6-12.4,19-12.2c15.4,0.3,29.7,7.8,38.1,20c7.5,10.9,16.6,20.5,26.9,28.7c15.5,12.3,25.5,29.7,27.8,48.6
		c0.6,5.4,2.7,16,15.2,20.9c16.4,6.5,35.8,3.3,53.9,2.1c18.8-1.2,37.6-2.8,55.3-9.9c15.1-6.1,27.7-15.7,36.5-27.6
		c10.2-14,15.1-30.1,17.1-45.7c2.6-20.3-0.5-40.1-1.4-60.1c-1-20.1,1.4-40,10.8-59.4c5.9-12.2,13.3-24,22.6-34.7l-12-0.2
		c-13.1-0.3-25.6-5.7-34-15.2c-34.3-38.5-90.7-56.2-144.6-40.7c-32.7,9.4-30.9,57.8-75.6,54.8c-72.3-4.7-22.5-107.4-67.8-137.7
		c-70-46.8-66.8,54.9-151.9,79.4c-39.3,11.3-81.5-74.8-153.2,26.5c-15.6,22.1-322-91.6-430-73.4c-55.1,9.3-66.1,62.9-95.5,103.2
		c-10.2,14-26.4,10.3-44,7c-11.9-2.2-32.4,0.4-42.8,3.4c-7.8,2.2-20.5,11.9-28.3,14.6c-10.5,3.7-19.6-2.5-22.6-11.7l-0.1-0.2
		c-10.8-32.9-17.5-39.3-25.8-59.7c-3.5,0.5-7.1,1.1-10.6,1.6c-37.9,5.5-76.1,9.3-114.3,12.7c-37.8,3.4-75.7,6.6-113.5,10.9
		c-23.3,2.6-46.5,5.8-69.6,9.6c0.6,1.1,1.2,2.2,1.8,3.4c9,16.6-52.8,15.2-45.9,58.6c13.6,85.2,96.1,109.3,111.3,129.4
		c16.1,21.3-6.2,29.9-13.6,38.5c-13.2,15.3-13.9,32.2-9.3,44.8c13,35.3,66,71.2,100.6,37.4c21.1-20.6,3.2-60.7,19.8-82.3
		c19.8-25.8,24.9-28.9,33.6-25.5c6.4,2.5,11.9,6.8,15.7,12.3c15.3,21.6,48.3,74.7,102.8,61.8c49.4-11.7,73.4-33.7,84.9-50.4
		c10.1-14.8,32.7-16.7,44.8-3.2c1.5,1.7,2.7,3.4,3.5,5.2c5.2,11.4,11.6,24.3,16.9,32.3c13.5,20.1,16.3,44.9,8,67.2
		c-5.1,13.9-5.8,29.4-0.8,44.5c10.8,32.9,27.5,52.7,60.7,63.5c14,4.6,161.1-28.6,208.9,123.4c10.4,33.1,41.4,37.7,69.8,30.6
		c33.7-8.4,52.9-41.5,42.6-72.7c-0.7-2-1.4-3.9-2.3-5.8c-6.6-14.6-5.9-31.1,2.5-44.8c21-34.2,27.4-76.3,14-117.1
		c-1.1-3.2-2.2-6.4-3.5-9.5c-11.3-27.7-7.7-58.6,8.2-84.1c5.2-8.3,21-20.7,30-24.6c34.1-14.9,115.6-6.4,124,20.8
		c5.8,18.6-9.9,46.1-3.6,66.1c14.8,46.5,65.5,72.9,114.8,59.9c50.5-13.4,79.1-63.4,63.6-110.6c-0.7-2.2-1.5-4.3-2.4-6.4
		c-3.3-7.9,0.8-16.8,9.2-19.9l0.4-0.1c13.7-5.1,29.1-4.5,42.4,1.6c10.5,4.8,23,5.9,35.1,2.1C345.9,610.5,359,586,351.3,563.4z"/>
</g>
<g>
	
		<linearGradient id="SVGID_4_" gradientUnits="userSpaceOnUse" x1="-1923.6145" y1="181.8853" x2="-102.2157" y2="181.8853" gradientTransform="matrix(-1.085 -0.3314 -0.3866 1.2657 369.6651 -51.3323)">
		<stop  offset="0" style="stop-color:#00FF66"/>
		<stop  offset="1" style="stop-color:#FF90FF"/>
	</linearGradient>
	<path class="st3" d="M988.8,563.4c0.6-1.7,1.2-3.3,2-4.8c6.2-12.9,7.1-27.4,1.7-40.5c-0.2-0.6-0.5-1.1-0.7-1.7
		c-3-7.4-10.6-12.4-19-12.2c-15.4,0.3-29.7,7.8-38.1,20c-7.5,10.9-16.6,20.5-26.9,28.7c-15.5,12.3-25.5,29.7-27.8,48.6
		c-0.6,5.4-2.7,16-15.2,20.9c-16.4,6.5-35.8,3.3-53.9,2.1c-18.8-1.2-37.6-2.8-55.3-9.9c-15.1-6.1-27.7-15.7-36.5-27.6
		c-10.2-14-15.1-30.1-17.1-45.7c-2.6-20.3,0.5-40.1,1.4-60.1c1-20.1-1.4-40-10.8-59.4c-5.9-12.2-13.3-24-22.6-34.7l12-0.2
		c13.1-0.3,25.6-5.7,34-15.2c34.3-38.5,90.7-56.2,144.6-40.7c32.7,9.4,30.9,57.8,75.6,54.8c72.3-4.7,22.5-107.4,67.8-137.7
		c70-46.8,66.8,54.9,151.9,79.4c39.3,11.3,81.5-74.8,153.2,26.5c15.6,22.1,322-91.6,430-73.4c55.1,9.3,66.1,62.9,95.5,103.2
		c10.2,14,26.4,10.3,44,7c11.9-2.2,32.4,0.4,42.8,3.4c7.8,2.2,20.5,11.9,28.3,14.6c10.5,3.7,19.6-2.5,22.6-11.7l0.1-0.2
		c10.8-32.9,17.5-39.3,25.8-59.7c3.5,0.5,7.1,1.1,10.6,1.6c37.9,5.5,76.1,9.3,114.3,12.7c37.8,3.4,75.7,6.6,113.5,10.9
		c23.3,2.6,46.5,5.8,69.6,9.6c-0.6,1.1-1.2,2.2-1.8,3.4c-9,16.6,52.8,15.2,45.9,58.6c-13.6,85.2-96.1,109.3-111.3,129.4
		c-16.1,21.3,6.2,29.9,13.6,38.5c13.2,15.3,13.9,32.2,9.3,44.8c-13,35.3-66,71.2-100.6,37.4c-21.1-20.6-3.2-60.7-19.8-82.3
		c-19.8-25.8-24.9-28.9-33.6-25.5c-6.4,2.5-11.9,6.8-15.7,12.3c-15.3,21.6-48.3,74.7-102.8,61.8c-49.4-11.7-73.4-33.7-84.9-50.4
		c-10.1-14.8-32.7-16.7-44.8-3.2c-1.5,1.7-2.7,3.4-3.5,5.2c-5.2,11.4-11.6,24.3-16.9,32.3c-13.5,20.1-16.3,44.9-8,67.2
		c5.1,13.9,5.8,29.4,0.8,44.5c-10.8,32.9-27.5,52.7-60.7,63.5c-14,4.6-161.1-28.6-208.9,123.4c-10.4,33.1-41.4,37.7-69.8,30.6
		c-33.7-8.4-52.9-41.5-42.6-72.7c0.7-2,1.4-3.9,2.3-5.8c6.6-14.6,5.9-31.1-2.5-44.8c-21-34.2-27.4-76.3-14-117.1
		c1.1-3.2,2.2-6.4,3.5-9.5c11.3-27.7,7.7-58.6-8.2-84.1c-5.2-8.3-21-20.7-30-24.6c-34.1-14.9-115.6-6.4-124,20.8
		c-5.8,18.6,9.9,46.1,3.6,66.1c-14.8,46.5-65.5,72.9-114.8,59.9c-50.5-13.4-79.1-63.4-63.6-110.6c0.7-2.2,1.5-4.3,2.4-6.4
		c3.3-7.9-0.8-16.8-9.2-19.9l-0.4-0.1c-13.7-5.1-29.1-4.5-42.4,1.6c-10.5,4.8-23,5.9-35.1,2.1C994.2,610.5,981.2,586,988.8,563.4z"
		/>
</g>
</svg>
