<?xml version="1.0" encoding="utf-8"?>
<!-- Generator: Adobe Illustrator 23.0.2, SVG Export Plug-In . SVG Version: 6.00 Build 0)  -->
<svg version="1.1" id="Layer_1" xmlns="http://www.w3.org/2000/svg" xmlns:xlink="http://www.w3.org/1999/xlink" x="0px" y="0px"
	 viewBox="0 0 1381 855.1" style="enable-background:new 0 0 1381 855.1;" xml:space="preserve">
<style type="text/css">
	.st0{fill:none;}
	.st1{fill:url(#New_Pattern_2);}
	.st2{fill:url(#SVGID_1_);}
	.st3{fill:url(#SVGID_2_);}
</style>
<pattern  y="992.2" width="109" height="123" patternUnits="userSpaceOnUse" id="New_Pattern_2" viewBox="0 -123 109 123" style="overflow:visible;">
	<g>
		<rect y="-123" class="st0" width="109" height="123"/>
		<g>
			<g>
				<path d="M87.1-19.1c-0.1-0.9-0.2-1.8-0.3-2.8c0-0.4-0.1-0.9-0.1-1.3c-0.2-1.3-0.3-2.7-0.5-4c-0.1-1-0.3-2-0.4-2.9
					c0-0.1,0-0.3,0-0.4c0-0.3,0.2-0.4,0.4-0.4c0.7,0,1.4,0.1,2,0.1c2.3,0,4.5,0,6.8,0c0.5,0,0.5,0.1,0.5,0.6
					c-0.1,0.5-0.1,1.1-0.2,1.6c-0.1,0.4-0.1,0.8-0.2,1.1c-0.1,1-0.2,2-0.3,3c-0.1,0.6-0.1,1.2-0.2,1.7c-0.1,0.6-0.1,1.2-0.2,1.8
					c-0.1,0.7-0.2,1.3-0.2,2c-0.1,0.5-0.1,1-0.2,1.6c-0.1,0.8-0.2,1.6-0.3,2.3c0,0.2,0,0.4,0,0.6h-6.1c0,0,0,0,0-0.1
					c0-0.3-0.1-0.6-0.1-1C87.3-16.6,87.2-17.9,87.1-19.1z"/>
				<path d="M93.7-11.3c0,0.2,0,0.3,0,0.4c-0.1,0.4-0.3,0.7-0.8,0.7c-0.6,0-3.6,0-4.4,0c-0.3,0-0.6-0.3-0.7-0.6
					c0-0.8-0.1-1.7-0.1-2.5h6.1C93.7-12.6,93.7-12,93.7-11.3z"/>
			</g>
		</g>
		<g>
			<g>
				<path d="M15.5-28.6c0.1-0.4,0.4-2.6,0.7-2.7c0.3-0.2,5-0.3,5.2,0c0.2,0.3,0.5,2.3,0.6,2.7H15.5z"/>
				<path d="M23.2-24.9c0.2,1.8,0,9.7-1.5,15.5h-5.8c0,0-1.7-6.5-1.6-14c0,0,0.1-3,1.3-4.1v0l6.6,0l0,0C22.1-27.6,23-26.8,23.2-24.9
					z"/>
			</g>
			<g>
				<path d="M49.9-23.9v-0.3c0-0.4,0.2-0.7,0.5-0.7h8.6c0.3,0,0.5,0.3,0.5,0.7v0.3H49.9z"/>
				<path d="M59.6-22.8v5.7c0,0.3-0.2,0.5-0.5,0.5h-0.6l0,0c0,0.2-0.2,0.4-0.5,0.4h-6.5c-0.3,0-0.5-0.2-0.5-0.4l0,0h-0.4
					c-0.3,0-0.5-0.2-0.5-0.5v-5.7H59.6z"/>
			</g>
		</g>
		<g>
			<g>
				<path d="M14.4-60.1c-0.1-0.9-0.2-1.8-0.3-2.8c0-0.4-0.1-0.9-0.1-1.3c-0.2-1.3-0.3-2.7-0.5-4c-0.1-1-0.3-2-0.4-2.9
					c0-0.1,0-0.3,0-0.4c0-0.3,0.2-0.4,0.4-0.4c0.7,0,1.4,0.1,2,0.1c2.3,0,4.5,0,6.8,0c0.5,0,0.5,0.1,0.5,0.6
					c-0.1,0.5-0.1,1.1-0.2,1.6c-0.1,0.4-0.1,0.8-0.2,1.1c-0.1,1-0.2,2-0.3,3c-0.1,0.6-0.1,1.2-0.2,1.7c-0.1,0.6-0.1,1.2-0.2,1.8
					c-0.1,0.7-0.2,1.3-0.2,2c-0.1,0.5-0.1,1-0.2,1.6c-0.1,0.8-0.2,1.6-0.3,2.3c0,0.2,0,0.4,0,0.6h-6.1c0,0,0,0,0-0.1
					c0-0.3-0.1-0.6-0.1-1C14.7-57.6,14.5-58.9,14.4-60.1z"/>
				<path d="M21-52.3c0,0.2,0,0.3,0,0.4c-0.1,0.4-0.3,0.7-0.8,0.7c-0.6,0-3.6,0-4.4,0c-0.3,0-0.6-0.3-0.7-0.6c0-0.8-0.1-1.7-0.1-2.5
					h6.1C21.1-53.6,21-53,21-52.3z"/>
			</g>
			<g>
				<path d="M51.9-69.6c0.1-0.4,0.4-2.6,0.7-2.7c0.3-0.2,5-0.3,5.2,0c0.2,0.3,0.5,2.3,0.6,2.7H51.9z"/>
				<path d="M59.5-65.9c0.2,1.8,0,9.7-1.5,15.5h-5.8c0,0-1.7-6.5-1.6-14c0,0,0.1-3,1.3-4.1v0l6.6,0l0,0
					C58.4-68.6,59.3-67.8,59.5-65.9z"/>
			</g>
			<g>
				<path d="M86.3-64.9v-0.3c0-0.4,0.2-0.7,0.5-0.7h8.6c0.3,0,0.5,0.3,0.5,0.7v0.3H86.3z"/>
				<path d="M95.9-63.8v5.7c0,0.3-0.2,0.5-0.5,0.5h-0.6l0,0c0,0.2-0.2,0.4-0.5,0.4h-6.5c-0.3,0-0.5-0.2-0.5-0.4l0,0h-0.4
					c-0.3,0-0.5-0.2-0.5-0.5v-5.7H95.9z"/>
			</g>
		</g>
		<g>
			<g>
				<path d="M50.7-101.1c-0.1-0.9-0.2-1.8-0.3-2.8c0-0.4-0.1-0.9-0.1-1.3c-0.2-1.3-0.3-2.7-0.5-4c-0.1-1-0.3-2-0.4-2.9
					c0-0.1,0-0.3,0-0.4c0-0.3,0.2-0.4,0.4-0.4c0.7,0,1.4,0.1,2,0.1c2.3,0,4.5,0,6.8,0c0.5,0,0.5,0.1,0.5,0.6
					c-0.1,0.5-0.1,1.1-0.2,1.6c-0.1,0.4-0.1,0.8-0.2,1.1c-0.1,1-0.2,2-0.3,3c-0.1,0.6-0.1,1.2-0.2,1.7c-0.1,0.6-0.1,1.2-0.2,1.8
					c-0.1,0.7-0.2,1.3-0.2,2c-0.1,0.5-0.1,1-0.2,1.6c-0.1,0.8-0.2,1.6-0.3,2.3c0,0.2,0,0.4,0,0.6h-6.1c0,0,0,0,0-0.1
					c0-0.3-0.1-0.6-0.1-1C51-98.6,50.9-99.9,50.7-101.1z"/>
				<path d="M57.3-93.3c0,0.2,0,0.3,0,0.4c-0.1,0.4-0.3,0.7-0.8,0.7c-0.6,0-3.6,0-4.4,0c-0.3,0-0.6-0.3-0.7-0.6
					c0-0.8-0.1-1.7-0.1-2.5h6.1C57.4-94.6,57.4-94,57.3-93.3z"/>
			</g>
			<g>
				<path d="M88.2-110.6c0.1-0.4,0.4-2.6,0.7-2.7c0.3-0.2,5-0.3,5.2,0c0.2,0.3,0.5,2.3,0.6,2.7H88.2z"/>
				<path d="M95.8-106.9c0.2,1.8,0,9.7-1.5,15.5h-5.8c0,0-1.7-6.5-1.6-14c0,0,0.1-3,1.3-4.1v0l6.6,0l0,0
					C94.8-109.6,95.7-108.8,95.8-106.9z"/>
			</g>
		</g>
		<g>
			<g>
				<path d="M13.6-105.9v-0.3c0-0.4,0.2-0.7,0.5-0.7h8.6c0.3,0,0.5,0.3,0.5,0.7v0.3H13.6z"/>
				<path d="M23.3-104.8v5.7c0,0.3-0.2,0.5-0.5,0.5h-0.6l0,0c0,0.2-0.2,0.4-0.5,0.4h-6.5c-0.3,0-0.5-0.2-0.5-0.4l0,0h-0.4
					c-0.3,0-0.5-0.2-0.5-0.5v-5.7H23.3z"/>
			</g>
		</g>
	</g>
</pattern>
<rect class="st1" width="1381" height="855.1"/>
<g>
	<path d="M456.1-34.8c0,0.3,0.1,0.6,0.1,1c0,0,0,0,0,0.1h6.1c0-0.2,0-0.4,0-0.6c0.1-0.8,0.2-1.6,0.3-2.3c0.1-0.5,0.1-1,0.2-1.6
		c0.1-0.7,0.2-1.3,0.2-2c0.1-0.6,0.1-1.2,0.2-1.8c0.1-0.6,0.1-1.2,0.2-1.7c0.1-1,0.2-2,0.3-3c0-0.4,0.1-0.8,0.2-1.1
		c0.1-0.5,0.1-1.1,0.2-1.6c0.1-0.5,0-0.6-0.5-0.6c-2.3,0-4.5,0-6.8,0c-0.7,0-1.4,0-2-0.1c-0.3,0-0.4,0.1-0.4,0.4c0,0.1,0,0.3,0,0.4
		c0.1,1,0.3,2,0.4,2.9c0.2,1.3,0.3,2.7,0.5,4c0.1,0.4,0.1,0.9,0.1,1.3c0.1,0.9,0.2,1.8,0.3,2.8C455.8-37.3,455.9-36.1,456.1-34.8z"
		/>
	<path d="M462.4-32.8h-6.1c0.1,0.9,0.1,1.7,0.1,2.5c0,0.3,0.3,0.6,0.7,0.6c0.9,0,3.8,0,4.4,0c0.5,0,0.7-0.3,0.8-0.7
		c0-0.1,0-0.3,0-0.4C462.3-31.4,462.3-32.1,462.4-32.8z"/>
</g>
<g>
	<path d="M499.7-48.1c-0.1-0.4-0.4-2.5-0.6-2.7c-0.2-0.3-4.8-0.2-5.2,0c-0.3,0.1-0.6,2.3-0.7,2.7H499.7z"/>
	<path d="M499.7-47L499.7-47l-6.6,0v0c-1.2,1-1.3,4.1-1.3,4.1c-0.1,7.5,1.6,14,1.6,14h5.8c1.5-5.8,1.7-13.7,1.5-15.5
		C500.6-46.2,499.7-47,499.7-47z"/>
</g>
<g>
	<path d="M537.2-43.3v-0.3c0-0.4-0.3-0.7-0.5-0.7h-8.6c-0.3,0-0.5,0.3-0.5,0.7v0.3H537.2z"/>
	<path d="M527.5-42.3v5.7c0,0.3,0.3,0.5,0.5,0.5h0.4l0,0c0,0.2,0.2,0.4,0.5,0.4h6.5c0.3,0,0.5-0.2,0.5-0.4l0,0h0.6
		c0.3,0,0.5-0.2,0.5-0.5v-5.7H527.5z"/>
</g>
<g>
	
		<linearGradient id="SVGID_1_" gradientUnits="userSpaceOnUse" x1="-368.2244" y1="528.3536" x2="1181.3411" y2="528.3536" gradientTransform="matrix(1.1031 -0.3176 -0.3111 -1.4501 -409.2881 1227.1406)">
		<stop  offset="0" style="stop-color:#00FF66"/>
		<stop  offset="1" style="stop-color:#FF90FF"/>
	</linearGradient>
	<path class="st2" d="M227,406.3c-0.4-1.5-0.9-2.9-1.5-4.2c-4.7-11.3-4.8-23.7,0.4-34.6c0.2-0.5,0.5-0.9,0.7-1.4
		c2.9-6.2,9.6-10.1,16.7-9.6c13.1,0.9,24.9,8,31.5,18.8c5.9,9.6,13.2,18.2,21.6,25.7c12.6,11.2,20.4,26.5,21.5,42.7
		c0.3,4.6,1.6,13.8,12,18.5c13.7,6.3,30.3,4.4,45.8,4.2c16-0.2,32.1-0.7,47.5-6c13.1-4.5,24.3-12.2,32.3-21.9
		c9.3-11.5,14.2-25,16.6-38.2c3.1-17.2,1.4-34.2,1.5-51.4c0-17.2,3-34.1,11.8-50.2c5.6-10.1,12.4-19.9,20.8-28.6l-10.2-0.7
		c-11.1-0.8-21.5-6-28.2-14.5c-27.5-34.4-74.6-52-121.2-41.2c-28.2,6.6-28.9,48-66.8,43.4c-61.3-7.2-14.3-92.7-51.5-120.5
		c-57.5-43.1-59.3,43.9-132.8,61c-33.9,7.9-66-67.5-131.5,15.8c-14.3,18.2-269.8-92.5-362.5-81.8c-47.3,5.5-59,50.7-85.9,83.8
		c-9.3,11.5-22.9,7.6-37.7,4c-10-2.4-27.6-1.1-36.6,1c-6.7,1.5-18,9.2-24.7,11.2c-9.1,2.7-16.6-3-18.7-11l-0.1-0.2
		c-7.7-28.6-13.1-34.3-19.3-52.1c-3,0.3-6.1,0.6-9.1,0.9c-32.5,3-65.2,4.5-97.8,5.7c-32.3,1.2-64.7,2.3-97,4.2
		c-19.9,1.2-39.8,2.9-59.6,5.1c0.5,1,0.9,1.9,1.4,3c6.9,14.6-45.6,10.6-41.7,48c7.8,73.3,76.9,97.6,88.9,115.4
		c12.7,18.9-6.6,25.2-13.3,32.3c-11.9,12.5-13.3,26.9-9.9,37.8c9.5,30.7,53,63.7,83.9,36.4c18.9-16.6,5.4-51.7,20.5-69.4
		c18-21.1,22.5-23.6,29.7-20.3c5.3,2.4,9.8,6.3,12.8,11.2c12,19.1,37.7,65.9,84.7,57.3c42.5-7.8,63.9-25.5,74.5-39.2
		c9.3-12.2,28.6-12.8,38.3-0.7c1.2,1.5,2.1,3,2.7,4.6c3.9,10,8.8,21.3,12.9,28.3c10.6,17.8,11.9,39,3.8,57.7
		c-5,11.6-6.2,24.8-2.7,37.9c7.7,28.6,21,46.2,48.8,56.9c11.7,4.6,138.3-17.2,172.2,114.6c7.4,28.7,33.5,34,58,29.2
		c29-5.7,46.9-33.1,39.5-60.1c-0.5-1.7-1-3.4-1.7-5.1c-5-12.8-3.6-26.8,4.1-38.1c19.4-28.3,26.7-63.9,17.1-99.3
		c-0.8-2.8-1.6-5.6-2.6-8.3c-8.4-24.1-3.9-50.4,10.7-71.4c4.8-6.9,18.8-16.7,26.6-19.7c29.7-11.2,98.6-0.3,104.6,23.3
		c4.1,16.1-10.5,38.9-6,56.3c10.5,40.3,52.5,65.1,95,56.2c43.6-9.2,70.1-50.6,59.1-91.6c-0.5-1.9-1.1-3.7-1.8-5.6
		c-2.5-6.9,1.4-14.3,8.7-16.6l0.3-0.1c11.9-3.7,25-2.5,36,3.3c8.7,4.6,19.3,6.1,29.8,3.4C220.3,446.2,232.5,425.9,227,406.3z"/>
</g>
<g>
	
		<linearGradient id="SVGID_2_" gradientUnits="userSpaceOnUse" x1="-1611.0206" y1="853.9882" x2="-53.2303" y2="853.9882" gradientTransform="matrix(-1.0959 -0.2933 0.3422 -1.2784 312.4777 1222.8466)">
		<stop  offset="0" style="stop-color:#00FF66"/>
		<stop  offset="1" style="stop-color:#FF90FF"/>
	</linearGradient>
	<path class="st3" d="M1187,478.3c10.5,2.5,21.1,1.3,30-2.6c11.2-5,24.4-5.9,36.2-2.5l0.3,0.1c7.3,2.1,11,8.7,8.4,14.7
		c-0.7,1.6-1.3,3.2-1.9,4.9c-12,36.1,13.8,73,57.4,81.6c42.5,8.3,85.2-13.1,96.7-48.7c4.9-15.3-9.3-35.6-4.8-49.8
		c6.5-20.8,76-29.6,105.6-19.4c7.8,2.7,21.7,11.6,26.3,17.7c14.3,18.8,7.3,68.1,6.5,70.5c-10.4,31.2-3.8,62.8,15.1,88
		c7.6,10.1,8.6,22.5,3.3,33.7c-0.7,1.5-1.3,2.9-1.8,4.4c-8,23.9,9.3,48.3,38.4,53.6c24.5,4.5,50.9,0.1,58.9-25.2
		c36.9-116.2,163.7-95.5,175.5-99.4c28.1-9.1,41.9-24.6,50.3-49.8c3.9-11.5,2.9-23.2-1.9-33.6c-7.7-16.6-5.9-35.4,5.1-51
		c4.3-6.2,9.5-16.1,13.6-24.9c0.6-1.4,1.6-2.7,2.9-4c10-10.6,29.4-9.8,38.4,1.1c10.3,12.3,31.4,28.2,74,35.5
		c47,8.1,73.8-33,86.4-49.7c3.1-4.3,7.7-7.7,13.1-9.8c7.4-2.8,11.8-0.6,29.4,18.2c14.8,15.8,0.5,46.6,19.1,61.5
		c30.5,24.5,74.9-4.2,85.1-31.2c3.6-9.7,2.6-22.4-9.1-33.5c-6.6-6.3-25.9-12.1-12.7-28.7c12.5-15.6,82.5-36.3,91.8-101
		c4.8-33-48.1-30.1-40.8-42.9c0.5-0.9,1-1.8,1.5-2.6c-19.9-2.2-39.8-3.9-59.8-5.2c-32.5-2.1-65-3.4-97.4-4.8
		c-32.8-1.4-65.6-3.2-98.2-6.2c-3-0.3-6.1-0.6-9.1-0.9c-6.6,15.6-12.1,20.7-20.5,45.8l-0.1,0.2c-2.3,7-10,12-19,9.5
		c-6.7-1.8-17.9-8.7-24.6-10.2c-9-2-26.6-3.3-36.7-1.3c-15,3-28.7,6.3-37.8-4c-26.2-29.5-37.1-69.7-84.5-75.1
		c-92.9-10.5-352.2,84.5-366.1,68.3c-64-74.3-97.9-8.1-131.8-15.4c-73.5-16-73.4-92.8-132.1-55.4c-38,24.2,7.4,100.3-54.4,106
		c-38.2,3.6-37.9-33-66.2-39.1c-46.5-10.1-94.3,5-122.7,35c-6.9,7.4-17.5,11.9-28.7,12.5l-10.3,0.5c8.2,7.8,14.9,16.5,20.3,25.5
		c8.6,14.4,11.1,29.3,10.8,44.5c-0.2,15.1-2.4,30.2,0.4,45.4c2.1,11.7,6.7,23.7,15.8,34c7.8,8.7,18.9,15.6,32,19.7
		c15.3,4.8,31.5,5.5,47.6,5.8c15.5,0.4,32.2,2.2,46.1-3.2c10.6-4.1,12.1-12.1,12.5-16.2c1.5-14.3,9.6-27.8,22.5-37.5
		c8.6-6.5,16.1-14,22.3-22.5c6.9-9.5,18.9-15.6,32.1-16.2c7.2-0.4,13.8,3.1,16.6,8.6c0.2,0.4,0.5,0.8,0.6,1.3
		c5,9.7,4.6,20.7-0.4,30.6c-0.6,1.2-1.1,2.4-1.6,3.7C1154.8,454.9,1166.7,473,1187,478.3z"/>
</g>
</svg>
