<?xml version="1.0" encoding="utf-8"?>
<!-- Generator: Adobe Illustrator 23.0.1, SVG Export Plug-In . SVG Version: 6.00 Build 0)  -->
<svg version="1.1" id="Layer_1" xmlns="http://www.w3.org/2000/svg" xmlns:xlink="http://www.w3.org/1999/xlink" x="0px" y="0px"
	 viewBox="0 0 1381 682" style="enable-background:new 0 0 1381 682;" xml:space="preserve">
<style type="text/css">
	.st0{fill:none;}
	.st1{fill:url(#New_Pattern);}
</style>
<pattern  x="-22" y="8" width="173" height="210" patternUnits="userSpaceOnUse" id="New_Pattern" viewBox="5.17 -210 173 210" style="overflow:visible;">
	<g>
		<rect x="5.17" y="-210" class="st0" width="173" height="210"/>
		<g>
			<g>
				<path d="M118.21-43.51c0.06,0.52,0.17,1.04,0.2,1.57c0,0.03,0,0.07,0.01,0.1h10.01c0.02-0.32,0.04-0.65,0.06-0.97
					c0.09-1.27,0.29-2.54,0.43-3.81c0.09-0.85,0.16-1.7,0.25-2.55c0.12-1.09,0.25-2.17,0.36-3.25c0.1-1,0.19-2,0.29-3.01
					c0.1-0.95,0.22-1.9,0.32-2.85c0.17-1.63,0.32-3.27,0.49-4.9c0.06-0.63,0.17-1.25,0.23-1.88c0.09-0.88,0.15-1.77,0.26-2.64
					c0.11-0.84,0.04-0.94-0.79-0.94c-3.69,0-7.37,0.01-11.06-0.01c-1.1,0-2.19-0.06-3.29-0.1c-0.43-0.01-0.64,0.2-0.66,0.61
					c-0.01,0.2-0.01,0.41,0.02,0.62c0.22,1.59,0.46,3.18,0.67,4.77c0.28,2.17,0.55,4.34,0.81,6.51c0.09,0.71,0.16,1.43,0.23,2.14
					c0.15,1.5,0.29,3,0.45,4.49C117.74-47.59,117.98-45.55,118.21-43.51z"/>
				<path d="M128.41-40.12h-9.99c0.08,1.38,0.13,2.77,0.21,4.15c0.03,0.59,0.5,1.02,1.08,1.03c1.4,0.01,6.2,0.01,7.19,0.02
					c0.78,0.01,1.14-0.43,1.36-1.16c0.07-0.22,0.03-0.48,0.04-0.72C128.34-37.9,128.36-39.01,128.41-40.12z"/>
			</g>
			<g>
				<path d="M189.01-63.34c0,0,0-0.01,0-0.03H178.3c0,0.01,0,0.03,0,0.03c-2,1.65-2.12,6.59-2.12,6.59
					c-0.12,12.25,2.71,22.85,2.71,22.85h9.42c2.47-9.42,2.71-22.26,2.47-25.2C190.54-62.04,189.01-63.34,189.01-63.34z"/>
			</g>
		</g>
		<g>
			<g>
				<path d="M15.99-65.07c-0.13-0.74-0.72-4.03-1.03-4.45c-0.35-0.47-7.89-0.24-8.48,0c-0.52,0.21-1.05,3.69-1.16,4.45H15.99z"/>
				<path d="M16.01-63.34c0,0,0-0.01,0-0.03H5.3c0,0.01,0,0.03,0,0.03c-2,1.65-2.12,6.59-2.12,6.59C3.06-44.49,5.88-33.9,5.88-33.9
					h9.42c2.47-9.42,2.71-22.26,2.47-25.2C17.54-62.04,16.01-63.34,16.01-63.34z"/>
			</g>
			<g>
				<path d="M76.91-56.33v-0.4c0-0.61-0.4-1.1-0.89-1.1H62.05c-0.49,0-0.89,0.49-0.89,1.1v0.4H76.91z"/>
				<path d="M61.16-55.62v9.31c0,0.41,0.4,0.75,0.89,0.75h0.7v0.02c0,0.38,0.37,0.69,0.82,0.69H74.2c0.45,0,0.82-0.31,0.82-0.69
					v-0.02h1.01c0.49,0,0.89-0.34,0.89-0.75v-9.31H61.16z"/>
			</g>
		</g>
		<g>
			<g>
				<path d="M175.88-113.51c0.06,0.52,0.17,1.04,0.2,1.57c0,0.03,0,0.07,0.01,0.1h10.01c0.02-0.32,0.04-0.65,0.06-0.97
					c0.09-1.27,0.29-2.54,0.43-3.81c0.09-0.85,0.16-1.7,0.25-2.55c0.12-1.09,0.25-2.17,0.36-3.25c0.1-1,0.19-2,0.29-3.01
					c0.1-0.95,0.22-1.9,0.32-2.85c0.17-1.63,0.32-3.27,0.49-4.9c0.06-0.63,0.17-1.25,0.23-1.88c0.09-0.88,0.15-1.77,0.26-2.64
					c0.11-0.84,0.04-0.94-0.79-0.94c-3.69,0-7.37,0.01-11.06-0.01c-1.1,0-2.19-0.06-3.29-0.1c-0.43-0.01-0.64,0.2-0.66,0.61
					c-0.01,0.2-0.01,0.41,0.02,0.62c0.22,1.59,0.46,3.18,0.67,4.77c0.28,2.17,0.55,4.34,0.81,6.51c0.09,0.71,0.16,1.43,0.23,2.14
					c0.15,1.5,0.29,3,0.45,4.49C175.41-117.59,175.64-115.55,175.88-113.51z"/>
				<path d="M186.08-110.12h-9.99c0.08,1.38,0.13,2.77,0.21,4.15c0.03,0.59,0.5,1.02,1.08,1.03c1.4,0.01,6.2,0.01,7.19,0.02
					c0.78,0.01,1.14-0.43,1.36-1.16c0.07-0.22,0.03-0.48,0.04-0.72C186-107.9,186.03-109.01,186.08-110.12z"/>
			</g>
		</g>
		<g>
			<g>
				<path d="M2.88-113.51c0.06,0.52,0.17,1.04,0.2,1.57c0,0.03,0,0.07,0.01,0.1h10.01c0.02-0.32,0.04-0.65,0.06-0.97
					c0.09-1.27,0.29-2.54,0.43-3.81c0.09-0.85,0.16-1.7,0.25-2.55c0.12-1.09,0.25-2.17,0.36-3.25c0.1-1,0.19-2,0.29-3.01
					c0.1-0.95,0.22-1.9,0.32-2.85c0.17-1.63,0.32-3.27,0.49-4.9c0.06-0.63,0.17-1.25,0.23-1.88c0.09-0.88,0.15-1.77,0.26-2.64
					c0.11-0.84,0.04-0.94-0.79-0.94c-3.69,0-7.37,0.01-11.06-0.01c-1.1,0-2.19-0.06-3.29-0.1c-0.43-0.01-0.64,0.2-0.66,0.61
					c-0.01,0.2-0.01,0.41,0.02,0.62c0.22,1.59,0.46,3.18,0.67,4.77c0.28,2.17,0.55,4.34,0.81,6.51c0.09,0.71,0.16,1.43,0.23,2.14
					c0.15,1.5,0.29,3,0.45,4.49C2.41-117.59,2.64-115.55,2.88-113.51z"/>
				<path d="M13.08-110.12H3.09c0.08,1.38,0.13,2.77,0.21,4.15c0.03,0.59,0.5,1.02,1.08,1.03c1.4,0.01,6.2,0.01,7.19,0.02
					c0.78,0.01,1.14-0.43,1.36-1.16c0.07-0.22,0.03-0.48,0.04-0.72C13-107.9,13.03-109.01,13.08-110.12z"/>
			</g>
			<g>
				<path d="M73.65-135.07c-0.13-0.74-0.72-4.03-1.03-4.45c-0.35-0.47-7.89-0.24-8.48,0c-0.52,0.21-1.05,3.69-1.16,4.45H73.65z"/>
				<path d="M73.68-133.34c0,0,0-0.01,0-0.03H62.96c0,0.01,0,0.03,0,0.03c-2,1.65-2.12,6.59-2.12,6.59
					c-0.12,12.25,2.71,22.85,2.71,22.85h9.42c2.47-9.42,2.71-22.26,2.47-25.2C75.21-132.04,73.68-133.34,73.68-133.34z"/>
			</g>
			<g>
				<path d="M134.58-126.33v-0.4c0-0.61-0.4-1.1-0.89-1.1h-13.97c-0.49,0-0.89,0.49-0.89,1.1v0.4H134.58z"/>
				<path d="M118.83-125.62v9.31c0,0.41,0.4,0.75,0.89,0.75h0.7v0.02c0,0.38,0.37,0.69,0.82,0.69h10.63c0.45,0,0.82-0.31,0.82-0.69
					v-0.02h1.01c0.49,0,0.89-0.34,0.89-0.75v-9.31H118.83z"/>
			</g>
		</g>
		<g>
			<g>
				<path d="M60.54-183.51c0.06,0.52,0.17,1.04,0.2,1.57c0,0.03,0,0.07,0.01,0.1h10.01c0.02-0.32,0.04-0.65,0.06-0.97
					c0.09-1.27,0.29-2.54,0.43-3.81c0.09-0.85,0.16-1.7,0.25-2.55c0.12-1.09,0.25-2.17,0.36-3.25c0.1-1,0.19-2,0.29-3.01
					c0.1-0.95,0.22-1.9,0.32-2.85c0.17-1.63,0.32-3.27,0.49-4.9c0.06-0.63,0.17-1.25,0.23-1.88c0.09-0.88,0.15-1.77,0.26-2.64
					c0.11-0.84,0.04-0.94-0.79-0.94c-3.69,0-7.37,0.01-11.06-0.01c-1.1,0-2.19-0.06-3.29-0.1c-0.43-0.01-0.64,0.2-0.66,0.61
					c-0.01,0.2-0.01,0.41,0.02,0.62c0.22,1.59,0.46,3.18,0.67,4.77c0.28,2.17,0.55,4.34,0.81,6.51c0.09,0.71,0.16,1.43,0.23,2.14
					c0.15,1.5,0.29,3,0.45,4.49C60.08-187.59,60.31-185.55,60.54-183.51z"/>
				<path d="M70.75-180.12h-9.99c0.08,1.38,0.13,2.77,0.21,4.15c0.03,0.59,0.5,1.02,1.08,1.03c1.4,0.01,6.2,0.01,7.19,0.02
					c0.78,0.01,1.14-0.43,1.36-1.16c0.07-0.22,0.03-0.48,0.04-0.72C70.67-177.9,70.69-179.01,70.75-180.12z"/>
			</g>
			<g>
				<path d="M131.32-205.07c-0.13-0.74-0.72-4.03-1.03-4.45c-0.35-0.47-7.89-0.24-8.48,0c-0.52,0.21-1.05,3.69-1.16,4.45H131.32z"/>
				<path d="M131.34-203.34c0,0,0-0.01,0-0.03h-10.71c0,0.01,0,0.03,0,0.03c-2,1.65-2.12,6.59-2.12,6.59
					c-0.12,12.25,2.71,22.85,2.71,22.85h9.42c2.47-9.42,2.71-22.26,2.47-25.2C132.88-202.04,131.34-203.34,131.34-203.34z"/>
			</g>
			<g>
				<path d="M192.25-196.33v-0.4c0-0.61-0.4-1.1-0.89-1.1h-13.97c-0.49,0-0.89,0.49-0.89,1.1v0.4H192.25z"/>
				<path d="M176.5-195.62v9.31c0,0.41,0.4,0.75,0.89,0.75h0.7v0.02c0,0.38,0.37,0.69,0.82,0.69h10.63c0.45,0,0.82-0.31,0.82-0.69
					v-0.02h1.01c0.49,0,0.89-0.34,0.89-0.75v-9.31H176.5z"/>
			</g>
		</g>
		<g>
			<g>
				<path d="M19.25-196.33v-0.4c0-0.61-0.4-1.1-0.89-1.1H4.39c-0.49,0-0.89,0.49-0.89,1.1v0.4H19.25z"/>
				<path d="M3.5-195.62v9.31c0,0.41,0.4,0.75,0.89,0.75h0.7v0.02c0,0.38,0.37,0.69,0.82,0.69h10.63c0.45,0,0.82-0.31,0.82-0.69
					v-0.02h1.01c0.49,0,0.89-0.34,0.89-0.75v-9.31H3.5z"/>
			</g>
		</g>
	</g>
</pattern>
<g>
	<path d="M449.67-37.64c0.12,1.01,0.33,2.02,0.39,3.04c0,0.06,0.01,0.13,0.01,0.19h19.4c0.03-0.63,0.07-1.26,0.12-1.89
		c0.18-2.47,0.57-4.92,0.84-7.39c0.18-1.65,0.32-3.3,0.49-4.95c0.22-2.1,0.48-4.2,0.7-6.31c0.2-1.94,0.36-3.89,0.57-5.83
		c0.19-1.85,0.43-3.69,0.62-5.53c0.33-3.17,0.62-6.34,0.95-9.5c0.13-1.22,0.32-2.43,0.45-3.64c0.18-1.71,0.3-3.42,0.51-5.13
		c0.2-1.62,0.08-1.82-1.53-1.82c-7.15,0-14.29,0.01-21.44-0.01c-2.12-0.01-4.25-0.12-6.37-0.19c-0.83-0.03-1.24,0.38-1.27,1.18
		c-0.01,0.4-0.01,0.8,0.04,1.19c0.43,3.08,0.9,6.16,1.3,9.25c0.55,4.2,1.06,8.41,1.58,12.62c0.17,1.38,0.31,2.76,0.44,4.15
		c0.29,2.9,0.56,5.81,0.87,8.71C448.77-45.54,449.22-41.59,449.67-37.64z"/>
	<path d="M469.46-31.07h-19.37c0.16,2.68,0.26,5.36,0.41,8.04c0.06,1.13,0.96,1.98,2.09,1.99c2.72,0.02,12.01,0.03,13.93,0.04
		c1.52,0.01,2.2-0.84,2.63-2.24c0.13-0.43,0.07-0.92,0.09-1.39C469.31-26.77,469.35-28.92,469.46-31.07z"/>
</g>
<g>
	<path d="M548.1-79.44c-0.25-1.43-1.4-7.81-2-8.62c-0.68-0.91-15.3-0.46-16.44,0c-1.02,0.41-2.03,7.15-2.24,8.62H548.1z"/>
	<path d="M548.15-76.07c0,0,0-0.02-0.01-0.05h-20.76c0,0.03-0.01,0.05-0.01,0.05c-3.88,3.2-4.11,12.78-4.11,12.78
		C523.04-39.55,528.52-19,528.52-19h18.26c4.79-18.26,5.25-43.15,4.79-48.85C551.12-73.56,548.15-76.07,548.15-76.07z"/>
</g>
<g>
	<path d="M627.44-64.44v-0.77c0-1.17-0.77-2.13-1.72-2.13h-27.08c-0.95,0-1.72,0.95-1.72,2.13v0.77H627.44z"/>
	<path d="M596.91-61.12v18.04c0,0.8,0.77,1.45,1.72,1.45h1.35v0.04c0,0.74,0.71,1.33,1.58,1.33h20.61c0.87,0,1.58-0.6,1.58-1.33
		v-0.04h1.95c0.95,0,1.72-0.65,1.72-1.45v-18.04H596.91z"/>
</g>
<rect class="st1" width="1381" height="682"/>
</svg>
