<?xml version="1.0" encoding="utf-8"?>
<!-- Generator: Adobe Illustrator 23.0.2, SVG Export Plug-In . SVG Version: 6.00 Build 0)  -->
<svg version="1.1" id="Layer_1" xmlns="http://www.w3.org/2000/svg" xmlns:xlink="http://www.w3.org/1999/xlink" x="0px" y="0px"
	 viewBox="0 0 364.5 950.8" style="enable-background:new 0 0 364.5 950.8;" xml:space="preserve">
<style type="text/css">
	.st0{fill:none;}
	.st1{fill:url(#New_Pattern);}
	.st2{fill:url(#SVGID_1_);}
	.st3{fill:url(#SVGID_2_);}
</style>
<pattern  y="1450.6" width="130.4" height="153.1" patternUnits="userSpaceOnUse" id="New_Pattern" viewBox="0 -153.1 130.4 153.1" style="overflow:visible;">
	<g>
		<rect y="-153.1" class="st0" width="130.4" height="153.1"/>
		<g>
			<g>
				<path d="M61-23.5c-0.1-1.3-0.3-2.5-0.4-3.8c0-0.6-0.1-1.2-0.2-1.8c-0.2-1.8-0.5-3.6-0.7-5.5c-0.2-1.3-0.4-2.7-0.6-4
					c0-0.2,0-0.3,0-0.5c0-0.3,0.2-0.5,0.6-0.5c0.9,0,1.9,0.1,2.8,0.1c3.1,0,6.2,0,9.3,0c0.7,0,0.7,0.1,0.6,0.8
					c-0.1,0.7-0.1,1.5-0.2,2.2C72.1-36,72-35.5,72-35c-0.2,1.4-0.3,2.7-0.4,4.1c-0.1,0.8-0.2,1.6-0.3,2.4c-0.1,0.8-0.2,1.7-0.3,2.5
					c-0.1,0.9-0.2,1.8-0.3,2.7c-0.1,0.7-0.1,1.4-0.2,2.1c-0.1,1.1-0.3,2.1-0.3,3.2c0,0.3,0,0.6,0,0.8h-8.4c0,0,0,0,0-0.1
					c0-0.4-0.1-0.9-0.2-1.3C61.3-20.3,61.1-21.9,61-23.5z"/>
				<path d="M70-12.9c0,0.2,0,0.4,0,0.6c-0.2,0.6-0.5,1-1.1,1c-0.8,0-4.8,0-6,0c-0.5,0-0.9-0.4-0.9-0.9c0-1.1-0.1-2.3-0.2-3.5h8.4
					C70.1-14.8,70-13.9,70-12.9z"/>
			</g>
			<g>
				<path d="M105.1-36.6c0.1-0.6,0.5-3.5,1-3.7c0.5-0.2,6.8-0.4,7.1,0c0.3,0.3,0.7,3.1,0.9,3.7H105.1z"/>
				<path d="M115.5-31.6c0.2,2.4,0,13.2-2.1,21.1h-7.9c0,0-2.4-8.9-2.2-19.2c0,0,0.1-4.2,1.8-5.5v0l9,0l0,0
					C114-35.2,115.3-34.1,115.5-31.6z"/>
			</g>
		</g>
		<g>
			<g>
				<path d="M15.1-30.1v-0.3c0-0.5,0.3-0.9,0.7-0.9h11.7c0.4,0,0.7,0.4,0.7,0.9v0.3H15.1z"/>
				<path d="M28.3-28.7v7.8c0,0.3-0.3,0.6-0.7,0.6h-0.9l0,0c0,0.3-0.3,0.6-0.7,0.6h-8.9c-0.4,0-0.7-0.3-0.7-0.6l0,0h-0.6
					c-0.4,0-0.7-0.3-0.7-0.6v-7.8H28.3z"/>
			</g>
		</g>
		<g>
			<g>
				<path d="M17.5-74.6c-0.1-1.3-0.3-2.5-0.4-3.8c0-0.6-0.1-1.2-0.2-1.8c-0.2-1.8-0.5-3.6-0.7-5.5c-0.2-1.3-0.4-2.7-0.6-4
					c0-0.2,0-0.3,0-0.5c0-0.3,0.2-0.5,0.6-0.5c0.9,0,1.9,0.1,2.8,0.1c3.1,0,6.2,0,9.3,0c0.7,0,0.7,0.1,0.6,0.8
					c-0.1,0.7-0.1,1.5-0.2,2.2c-0.1,0.5-0.2,1-0.2,1.6c-0.2,1.4-0.3,2.7-0.4,4.1c-0.1,0.8-0.2,1.6-0.3,2.4c-0.1,0.8-0.2,1.7-0.3,2.5
					c-0.1,0.9-0.2,1.8-0.3,2.7c-0.1,0.7-0.1,1.4-0.2,2.1c-0.1,1.1-0.3,2.1-0.3,3.2c0,0.3,0,0.6,0,0.8h-8.4c0,0,0,0,0-0.1
					c0-0.4-0.1-0.9-0.2-1.3C17.9-71.3,17.7-73,17.5-74.6z"/>
				<path d="M26.5-64c0,0.2,0,0.4,0,0.6c-0.2,0.6-0.5,1-1.1,1c-0.8,0-4.8,0-6,0c-0.5,0-0.9-0.4-0.9-0.9c0-1.1-0.1-2.3-0.2-3.5h8.4
					C26.6-65.8,26.6-64.9,26.5-64z"/>
			</g>
			<g>
				<path d="M61.6-87.6c0.1-0.6,0.5-3.5,1-3.7c0.5-0.2,6.8-0.4,7.1,0c0.3,0.3,0.7,3.1,0.9,3.7H61.6z"/>
				<path d="M72-82.6c0.2,2.4,0,13.2-2.1,21.1H62c0,0-2.4-8.9-2.2-19.2c0,0,0.1-4.2,1.8-5.5v0l9,0l0,0C70.6-86.2,71.8-85.1,72-82.6z
					"/>
			</g>
			<g>
				<path d="M102.1-81.1v-0.3c0-0.5,0.3-0.9,0.7-0.9h11.7c0.4,0,0.7,0.4,0.7,0.9v0.3H102.1z"/>
				<path d="M115.2-79.7v7.8c0,0.3-0.3,0.6-0.7,0.6h-0.9l0,0c0,0.3-0.3,0.6-0.7,0.6H104c-0.4,0-0.7-0.3-0.7-0.6l0,0h-0.6
					c-0.4,0-0.7-0.3-0.7-0.6v-7.8H115.2z"/>
			</g>
		</g>
		<g>
			<g>
				<path d="M104.4-125.6c-0.1-1.3-0.3-2.5-0.4-3.8c0-0.6-0.1-1.2-0.2-1.8c-0.2-1.8-0.5-3.6-0.7-5.5c-0.2-1.3-0.4-2.7-0.6-4
					c0-0.2,0-0.3,0-0.5c0-0.3,0.2-0.5,0.6-0.5c0.9,0,1.9,0.1,2.8,0.1c3.1,0,6.2,0,9.3,0c0.7,0,0.7,0.1,0.6,0.8
					c-0.1,0.7-0.1,1.5-0.2,2.2c-0.1,0.5-0.2,1-0.2,1.6c-0.2,1.4-0.3,2.7-0.4,4.1c-0.1,0.8-0.2,1.6-0.3,2.4c-0.1,0.8-0.2,1.7-0.3,2.5
					c-0.1,0.9-0.2,1.8-0.3,2.7c-0.1,0.7-0.1,1.4-0.2,2.1c-0.1,1.1-0.3,2.1-0.3,3.2c0,0.3,0,0.6,0,0.8h-8.4c0,0,0,0,0-0.1
					c0-0.4-0.1-0.9-0.2-1.3C104.8-122.3,104.6-124,104.4-125.6z"/>
				<path d="M113.4-115c0,0.2,0,0.4,0,0.6c-0.2,0.6-0.5,1-1.1,1c-0.8,0-4.8,0-6,0c-0.5,0-0.9-0.4-0.9-0.9c0-1.1-0.1-2.3-0.2-3.5h8.4
					C113.5-116.8,113.5-115.9,113.4-115z"/>
			</g>
		</g>
		<g>
			<g>
				<path d="M18.1-138.6c0.1-0.6,0.5-3.5,1-3.7c0.5-0.2,6.8-0.4,7.1,0c0.3,0.3,0.7,3.1,0.9,3.7H18.1z"/>
				<path d="M28.6-133.6c0.2,2.4,0,13.2-2.1,21.1h-7.9c0,0-2.4-8.9-2.2-19.2c0,0,0.1-4.2,1.8-5.5v0l9,0l0,0
					C27.1-137.2,28.3-136.1,28.6-133.6z"/>
			</g>
			<g>
				<path d="M58.6-132.1v-0.3c0-0.5,0.3-0.9,0.7-0.9H71c0.4,0,0.7,0.4,0.7,0.9v0.3H58.6z"/>
				<path d="M71.8-130.7v7.8c0,0.3-0.3,0.6-0.7,0.6h-0.9l0,0c0,0.3-0.3,0.6-0.7,0.6h-8.9c-0.4,0-0.7-0.3-0.7-0.6l0,0h-0.6
					c-0.4,0-0.7-0.3-0.7-0.6v-7.8H71.8z"/>
			</g>
		</g>
	</g>
</pattern>
<g>
	<path d="M-76.7-67.5c0,0.4,0.1,0.9,0.2,1.3c0,0,0,0,0,0.1h8.4c0-0.3,0-0.6,0-0.8c0.1-1.1,0.3-2.1,0.3-3.2c0.1-0.7,0.1-1.4,0.2-2.1
		c0.1-0.9,0.2-1.8,0.3-2.7c0.1-0.8,0.2-1.7,0.3-2.5c0.1-0.8,0.2-1.6,0.3-2.4c0.1-1.4,0.3-2.7,0.4-4.1c0-0.5,0.1-1,0.2-1.6
		c0.1-0.7,0.1-1.5,0.2-2.2c0.1-0.7,0-0.8-0.6-0.8c-3.1,0-6.2,0-9.3,0c-0.9,0-1.9,0-2.8-0.1c-0.3,0-0.5,0.2-0.6,0.5
		c0,0.2,0,0.3,0,0.5c0.2,1.3,0.4,2.7,0.6,4c0.2,1.8,0.5,3.6,0.7,5.5c0.1,0.6,0.1,1.2,0.2,1.8c0.1,1.3,0.3,2.5,0.4,3.8
		C-77.1-70.9-76.9-69.2-76.7-67.5z"/>
	<path d="M-68.2-64.7h-8.4c0.1,1.2,0.1,2.3,0.2,3.5c0,0.5,0.4,0.9,0.9,0.9c1.2,0,5.2,0,6,0c0.6,0,1-0.3,1.1-1c0-0.2,0-0.4,0-0.6
		C-68.2-62.8-68.2-63.7-68.2-64.7z"/>
</g>
<g>
	<path d="M-34.2-85.6c-0.1-0.6-0.6-3.4-0.9-3.7c-0.3-0.4-6.6-0.2-7.1,0c-0.4,0.2-0.9,3.1-1,3.7H-34.2z"/>
	<path d="M-34.1-84.2L-34.1-84.2l-9,0v0c-1.7,1.4-1.8,5.5-1.8,5.5c-0.1,10.3,2.2,19.2,2.2,19.2h7.9c2.1-7.9,2.3-18.7,2.1-21.1
		C-32.9-83.1-34.1-84.2-34.1-84.2z"/>
</g>
<g>
	<path d="M0.2-79.1v-0.3c0-0.5-0.3-0.9-0.7-0.9h-11.7c-0.4,0-0.7,0.4-0.7,0.9v0.3H0.2z"/>
	<path d="M-13-77.7v7.8c0,0.3,0.3,0.6,0.7,0.6h0.6l0,0c0,0.3,0.3,0.6,0.7,0.6h8.9c0.4,0,0.7-0.3,0.7-0.6l0,0h0.9
		c0.4,0,0.7-0.3,0.7-0.6v-7.8H-13z"/>
</g>
<rect class="st1" width="364.5" height="950.8"/>
<g>
	
		<linearGradient id="SVGID_1_" gradientUnits="userSpaceOnUse" x1="266.9019" y1="84.3114" x2="901.1874" y2="84.3114" gradientTransform="matrix(0.8993 0.7134 -0.9996 1.0956 -359.9965 -490.8964)">
		<stop  offset="0" style="stop-color:#00FF66"/>
		<stop  offset="1" style="stop-color:#FF90FF"/>
	</linearGradient>
	<path class="st2" d="M139.9,153.2c0.4-0.5,0.8-1,1-1.5c2.6-4.3,6.8-7.2,11.6-8.1c0.2-0.1,0.4,0,0.6-0.1c2.8-0.5,5.6,0.8,7.2,3.3
		c2.8,4.6,3.3,10.2,1.2,15c-1.8,4.2-2.9,8.7-3.4,13.3c-0.7,6.9-4,13.1-9.1,17.3c-1.5,1.2-4.2,3.8-3.3,8.4c1.2,6.1,5.7,11.1,9.5,16.3
		c3.9,5.3,7.9,10.5,13.3,14.4c4.6,3.3,9.8,5.2,15,5.6c6,0.4,11.7-1.2,16.7-3.6c6.5-3.1,11.7-7.7,17.5-11.7c5.7-4.1,12.1-7.1,19.5-8
		c4.7-0.5,9.6-0.6,14.5,0.1l-2.2-3.6c-2.4-3.9-3.1-8.6-1.9-12.8c4.9-17.3-0.4-37.2-15.1-50.2c-8.9-7.8-22.9,1.8-30.3-11.9
		c-12.2-22.1,27.5-26.8,27.9-45.8c0.7-29.4-28.7-9.3-51.9-29.7c-10.7-9.4,6.8-38-36.5-40.1c-9.5-0.4-33.3-111.9-58.9-140.2
		c-13.1-14.5-30.9-7.6-48.3-8.7c-6-0.4-8-5.8-10.3-11.6c-1.6-3.9-6.2-9.5-9-12c-2.1-1.9-7.3-3.8-9.6-5.6c-3.1-2.4-2.9-6.2-0.8-8.8
		l0-0.1c7.7-9.4,8.3-12.5,12.8-18.8c-0.8-0.9-1.7-1.9-2.5-2.8c-8.7-10.1-17-20.7-25.2-31.2c-8.1-10.5-16.2-21-24.5-31.3
		c-5.1-6.3-10.4-12.6-15.9-18.6c-0.2,0.4-0.4,0.8-0.7,1.2c-3.2,5.8-14.4-12.7-25.9-2.5c-22.6,20-14.2,48.8-17.3,57.1
		c-3.3,8.7-10,3.8-13.9,3.2c-7-1-12.1,2-14.9,5.7c-8,10.5-8.6,32.8,7.8,36.6c10,2.3,18.5-10.5,28-9.7c11.3,1,13.2,1.9,13.8,5.1
		c0.5,2.3,0.2,4.8-0.7,6.9c-3.5,8.5-13,28.2,1.1,41.8c12.7,12.3,23.7,15.2,30.8,15.5c6.3,0.2,11.1,6.5,9.3,12.6
		c-0.2,0.8-0.5,1.4-0.9,2c-2.4,3.7-5,8-6.4,11c-3.4,7.8-10.2,13.2-18.3,15c-5.1,1.1-9.7,3.8-13.3,8.1c-7.7,9.4-10.4,18-7.4,29.8
		c1.2,5,38.6,42,2.8,84.6c-7.8,9.3-3.4,19.2,4.1,26.3c8.8,8.3,22.2,7.8,29.4-1.1c0.4-0.6,0.9-1.1,1.3-1.8c3.1-4.7,8.1-7.6,13.7-7.7
		c14-0.3,27.6-6.3,37.2-17.9c0.7-0.9,1.5-1.9,2.1-2.8c6-8.5,15.9-13.3,26.3-13.4c3.4,0,10,2.3,12.9,4.2C61.2,46.9,73.9,72.4,67.5,80
		c-4.4,5.2-15.5,5.8-20.2,11.4c-10.9,13.1-9.2,33,3.9,45c13.4,12.3,33.5,11.3,44.6-2.1c0.5-0.6,1-1.2,1.4-1.9c1.7-2.5,5.1-2.9,7.6-1
		l0.1,0.1c4.1,3.1,6.8,7.7,7.5,12.8c0.5,4,2.6,7.9,6,10.7C125,160.4,134.7,159.7,139.9,153.2z"/>
</g>
<g>
	
		<linearGradient id="SVGID_2_" gradientUnits="userSpaceOnUse" x1="941.912" y1="249.8494" x2="1429.5382" y2="249.8494" gradientTransform="matrix(-1.0361 -0.4942 0.7293 -1.2914 1408.8201 1300.9801)">
		<stop  offset="0" style="stop-color:#00FF66"/>
		<stop  offset="1" style="stop-color:#FF90FF"/>
	</linearGradient>
	<path class="st3" d="M295.1,301.3c-0.2,0.4-0.4,0.9-0.5,1.3c-1.3,3.6-3.8,6.6-7.3,8.1c-0.2,0.1-0.3,0.1-0.5,0.2
		c-2,0.9-4.4,0.4-5.9-1.2c-2.9-2.9-4.2-7.1-3.5-11c0.6-3.5,0.7-7,0.3-10.6c-0.6-5.3,0.7-10.5,3.9-14.5c0.9-1.1,2.5-3.6,1-6.9
		c-1.9-4.3-6.2-7.4-9.9-10.6c-3.8-3.3-7.7-6.5-12.4-8.5c-4-1.7-8.3-2.2-12.2-1.6c-4.6,0.8-8.6,2.9-11.9,5.5
		c-4.3,3.4-7.5,7.8-11.1,11.8c-3.6,4-7.8,7.4-13.3,9.4c-3.4,1.2-7.1,2.1-10.9,2.4l2.3,2.3c2.4,2.5,3.8,5.9,3.6,9.3
		c-0.7,13.8,6.7,27.8,19.9,35c8,4.3,16.8-5.3,24.8,3.7c12.9,14.5-16,24.8-13,39.1c4.5,22.2,23.1,2,44,13.4
		c9.6,5.2,1.4,29.7,34.3,23.7c7.2-1.3,44.2,78.1,68.3,94.9c12.3,8.6,24.5,0.4,37.7-1.8c4.6-0.8,7,3,9.7,6.9c1.9,2.7,6.3,6,8.8,7.4
		c1.9,1,6.2,1.6,8.2,2.5c2.7,1.3,3.3,4.2,2.1,6.5l0,0.1c-4.2,8.3-4.1,10.8-6.3,16.3c0.8,0.6,1.6,1.1,2.3,1.7
		c8.3,6.1,16.3,12.6,24.2,19.1c7.9,6.5,15.7,13,23.7,19.3c4.9,3.9,10,7.6,15.1,11.2c0.1-0.3,0.2-0.6,0.3-1c1.4-4.9,12.9,7,19.8-2.6
		c13.5-18.9,2.3-39,3.2-45.7c1-7.1,6.8-4.6,9.9-4.8c5.4-0.5,8.7-3.6,10.2-6.8c4.2-9.2,0.8-26.1-12.2-26.1c-7.9,0-12.1,11-19.3,12.1
		c-8.6,1.2-10.2,0.9-11.2-1.4c-0.7-1.7-1-3.5-0.7-5.3c1.2-7,4.9-23.4-8-31.2c-11.6-7-20.4-7.3-25.7-6.3c-4.7,0.9-9.4-3-9.2-7.8
		c0-0.6,0.1-1.1,0.3-1.6c1.2-3.2,2.4-6.9,2.9-9.4c1.2-6.4,5.3-11.7,11.2-14.4c3.6-1.7,6.6-4.5,8.5-8.4c4.2-8.3,4.7-15.3,0.4-23.6
		c-1.8-3.5-36.2-24.8-16.6-62.9c4.2-8.3-0.8-15-7.6-19c-8-4.7-18-2-21.8,5.9c-0.2,0.5-0.5,1-0.7,1.6c-1.5,4.1-4.7,7.1-8.9,8.1
		c-10.5,2.6-19.6,9.5-24.8,19.8c-0.4,0.8-0.8,1.7-1.1,2.5c-3.1,7.4-9.6,12.7-17.4,14.6c-2.6,0.6-7.9,0-10.4-0.9
		c-9.3-3.6-23.3-20.5-19.8-27.3c2.4-4.6,10.6-7,13.2-12c5.9-11.7,1.2-26.3-10.6-33.1c-12.2-6.9-27.1-2.7-33,9.2
		c-0.3,0.6-0.5,1.1-0.7,1.7c-0.9,2.1-3.3,3.1-5.5,2.1l-0.1,0c-3.6-1.6-6.4-4.6-7.8-8.3c-1.1-2.9-3.3-5.5-6.3-7
		C305,293.3,297.9,295.5,295.1,301.3z"/>
</g>
</svg>
