<?xml version="1.0" encoding="utf-8"?>
<!-- Generator: Adobe Illustrator 23.0.1, SVG Export Plug-In . SVG Version: 6.00 Build 0)  -->
<svg version="1.1" id="Layer_1" xmlns="http://www.w3.org/2000/svg" xmlns:xlink="http://www.w3.org/1999/xlink" x="0px" y="0px"
	 viewBox="0 0 1381 687" style="enable-background:new 0 0 1381 687;" xml:space="preserve">
<style type="text/css">
	.st0{fill:none;}
	.st1{fill:#FF90FF;}
	.st2{fill:url(#SVGID_1_);}
</style>
<pattern  y="711" width="173" height="210" patternUnits="userSpaceOnUse" id="New_Pattern" viewBox="5.2 -210 173 210" style="overflow:visible;">
	<g>
		<rect x="5.2" y="-210" class="st0" width="173" height="210"/>
		<g>
			<rect x="5.2" y="-210" class="st0" width="173" height="210"/>
			<g>
				<g>
					<path d="M118.2-166.5c0.1-0.5,0.2-1,0.2-1.6c0,0,0-0.1,0-0.1h10c0,0.3,0,0.7,0.1,1c0.1,1.3,0.3,2.5,0.4,3.8
						c0.1,0.9,0.2,1.7,0.3,2.6c0.1,1.1,0.3,2.2,0.4,3.3c0.1,1,0.2,2,0.3,3c0.1,1,0.2,1.9,0.3,2.9c0.2,1.6,0.3,3.3,0.5,4.9
						c0.1,0.6,0.2,1.3,0.2,1.9c0.1,0.9,0.1,1.8,0.3,2.6c0.1,0.8,0,0.9-0.8,0.9c-3.7,0-7.4,0-11.1,0c-1.1,0-2.2,0.1-3.3,0.1
						c-0.4,0-0.6-0.2-0.7-0.6c0-0.2,0-0.4,0-0.6c0.2-1.6,0.5-3.2,0.7-4.8c0.3-2.2,0.6-4.3,0.8-6.5c0.1-0.7,0.2-1.4,0.2-2.1
						c0.2-1.5,0.3-3,0.4-4.5C117.8-162.4,118-164.4,118.2-166.5z"/>
					<path d="M128.4-169.9h-10c0.1-1.4,0.1-2.8,0.2-4.1c0-0.6,0.5-1,1.1-1c1.4,0,6.2,0,7.2,0c0.8,0,1.1,0.4,1.4,1.2
						c0.1,0.2,0,0.5,0,0.7C128.4-172.1,128.4-171,128.4-169.9z"/>
				</g>
				<g>
					<path d="M189-146.7C189-146.7,189-146.6,189-146.7l-10.7,0c0,0,0,0,0,0c-2-1.6-2.1-6.6-2.1-6.6c-0.1-12.3,2.7-22.9,2.7-22.9
						h9.4c2.5,9.4,2.7,22.3,2.5,25.2C190.6-148,189-146.7,189-146.7z"/>
				</g>
			</g>
			<g>
				<g>
					<path d="M16-144.9c-0.1,0.7-0.7,4-1,4.4c-0.4,0.5-7.9,0.2-8.5,0c-0.5-0.2-1.1-3.7-1.2-4.4H16z"/>
					<path d="M16-146.7C16-146.7,16-146.6,16-146.7l-10.7,0c0,0,0,0,0,0c-2-1.6-2.1-6.6-2.1-6.6c-0.1-12.3,2.7-22.9,2.7-22.9h9.4
						c2.5,9.4,2.7,22.3,2.5,25.2C17.6-148,16-146.7,16-146.7z"/>
				</g>
				<g>
					<path d="M76.9-153.7v0.4c0,0.6-0.4,1.1-0.9,1.1h-14c-0.5,0-0.9-0.5-0.9-1.1v-0.4H76.9z"/>
					<path d="M61.2-154.4v-9.3c0-0.4,0.4-0.8,0.9-0.8h0.7v0c0-0.4,0.4-0.7,0.8-0.7h10.6c0.4,0,0.8,0.3,0.8,0.7v0h1
						c0.5,0,0.9,0.3,0.9,0.8v9.3H61.2z"/>
				</g>
			</g>
			<g>
				<g>
					<path d="M175.9-96.5c0.1-0.5,0.2-1,0.2-1.6c0,0,0-0.1,0-0.1h10c0,0.3,0,0.7,0.1,1c0.1,1.3,0.3,2.5,0.4,3.8
						c0.1,0.8,0.2,1.7,0.3,2.6c0.1,1.1,0.3,2.2,0.4,3.3c0.1,1,0.2,2,0.3,3c0.1,0.9,0.2,1.9,0.3,2.9c0.2,1.6,0.3,3.3,0.5,4.9
						c0.1,0.6,0.2,1.3,0.2,1.9c0.1,0.9,0.1,1.8,0.3,2.6c0.1,0.8,0,0.9-0.8,0.9c-3.7,0-7.4,0-11.1,0c-1.1,0-2.2,0.1-3.3,0.1
						c-0.4,0-0.6-0.2-0.7-0.6c0-0.2,0-0.4,0-0.6c0.2-1.6,0.5-3.2,0.7-4.8c0.3-2.2,0.6-4.3,0.8-6.5c0.1-0.7,0.2-1.4,0.2-2.1
						c0.1-1.5,0.3-3,0.4-4.5C175.4-92.4,175.7-94.4,175.9-96.5z"/>
					<path d="M186.1-99.9h-10c0.1-1.4,0.1-2.8,0.2-4.2c0-0.6,0.5-1,1.1-1c1.4,0,6.2,0,7.2,0c0.8,0,1.1,0.4,1.4,1.2
						c0.1,0.2,0,0.5,0,0.7C186-102.1,186-101,186.1-99.9z"/>
				</g>
			</g>
			<g>
				<g>
					<path d="M2.9-96.5c0.1-0.5,0.2-1,0.2-1.6c0,0,0-0.1,0-0.1h10c0,0.3,0,0.7,0.1,1c0.1,1.3,0.3,2.5,0.4,3.8
						c0.1,0.8,0.2,1.7,0.3,2.6c0.1,1.1,0.3,2.2,0.4,3.3c0.1,1,0.2,2,0.3,3c0.1,0.9,0.2,1.9,0.3,2.9c0.2,1.6,0.3,3.3,0.5,4.9
						c0.1,0.6,0.2,1.3,0.2,1.9c0.1,0.9,0.1,1.8,0.3,2.6c0.1,0.8,0,0.9-0.8,0.9c-3.7,0-7.4,0-11.1,0c-1.1,0-2.2,0.1-3.3,0.1
						c-0.4,0-0.6-0.2-0.7-0.6c0-0.2,0-0.4,0-0.6c0.2-1.6,0.5-3.2,0.7-4.8c0.3-2.2,0.5-4.3,0.8-6.5c0.1-0.7,0.2-1.4,0.2-2.1
						c0.1-1.5,0.3-3,0.5-4.5C2.4-92.4,2.7-94.4,2.9-96.5z"/>
					<path d="M13.1-99.9h-10c0.1-1.4,0.1-2.8,0.2-4.2c0-0.6,0.5-1,1.1-1c1.4,0,6.2,0,7.2,0c0.8,0,1.1,0.4,1.4,1.2
						c0.1,0.2,0,0.5,0,0.7C13-102.1,13-101,13.1-99.9z"/>
				</g>
				<g>
					<path d="M73.7-74.9c-0.1,0.7-0.7,4-1,4.4c-0.3,0.5-7.9,0.2-8.5,0c-0.5-0.2-1.1-3.7-1.2-4.4H73.7z"/>
					<path d="M73.7-76.7C73.7-76.7,73.7-76.7,73.7-76.7l-10.7,0c0,0,0,0,0,0c-2-1.6-2.1-6.6-2.1-6.6c-0.1-12.3,2.7-22.8,2.7-22.8H73
						c2.5,9.4,2.7,22.3,2.5,25.2C75.2-78,73.7-76.7,73.7-76.7z"/>
				</g>
				<g>
					<path d="M134.6-83.7v0.4c0,0.6-0.4,1.1-0.9,1.1h-14c-0.5,0-0.9-0.5-0.9-1.1v-0.4H134.6z"/>
					<path d="M118.8-84.4v-9.3c0-0.4,0.4-0.8,0.9-0.8h0.7v0c0-0.4,0.4-0.7,0.8-0.7h10.6c0.4,0,0.8,0.3,0.8,0.7v0h1
						c0.5,0,0.9,0.3,0.9,0.8v9.3H118.8z"/>
				</g>
			</g>
			<g>
				<g>
					<path d="M60.6-26.5c0.1-0.5,0.2-1,0.2-1.6c0,0,0-0.1,0-0.1h10c0,0.3,0,0.6,0.1,1c0.1,1.3,0.3,2.5,0.4,3.8
						c0.1,0.9,0.2,1.7,0.3,2.6c0.1,1.1,0.3,2.2,0.4,3.3c0.1,1,0.2,2,0.3,3c0.1,0.9,0.2,1.9,0.3,2.9c0.2,1.6,0.3,3.3,0.5,4.9
						c0.1,0.6,0.2,1.3,0.2,1.9c0.1,0.9,0.2,1.8,0.3,2.6c0.1,0.8,0,0.9-0.8,0.9c-3.7,0-7.4,0-11.1,0c-1.1,0-2.2,0.1-3.3,0.1
						c-0.4,0-0.6-0.2-0.7-0.6c0-0.2,0-0.4,0-0.6c0.2-1.6,0.5-3.2,0.7-4.8c0.3-2.2,0.5-4.3,0.8-6.5c0.1-0.7,0.2-1.4,0.2-2.1
						c0.2-1.5,0.3-3,0.5-4.5C60.1-22.4,60.3-24.4,60.6-26.5z"/>
					<path d="M70.8-29.9h-10c0.1-1.4,0.1-2.8,0.2-4.1c0-0.6,0.5-1,1.1-1c1.4,0,6.2,0,7.2,0c0.8,0,1.1,0.4,1.4,1.2
						c0.1,0.2,0,0.5,0,0.7C70.7-32.1,70.7-31,70.8-29.9z"/>
				</g>
				<g>
					<path d="M131.3-4.9c-0.1,0.7-0.7,4-1,4.4c-0.4,0.5-7.9,0.2-8.5,0c-0.5-0.2-1.1-3.7-1.2-4.4H131.3z"/>
					<path d="M131.4-6.7C131.4-6.7,131.4-6.7,131.4-6.7l-10.7,0c0,0,0,0,0,0c-2-1.6-2.1-6.6-2.1-6.6c-0.1-12.3,2.7-22.9,2.7-22.9
						h9.4c2.5,9.4,2.7,22.3,2.5,25.2C132.9-8,131.4-6.7,131.4-6.7z"/>
				</g>
				<g>
					<path d="M192.3-13.7v0.4c0,0.6-0.4,1.1-0.9,1.1h-14c-0.5,0-0.9-0.5-0.9-1.1v-0.4H192.3z"/>
					<path d="M176.5-14.4v-9.3c0-0.4,0.4-0.8,0.9-0.8h0.7v0c0-0.4,0.4-0.7,0.8-0.7h10.6c0.4,0,0.8,0.3,0.8,0.7v0h1
						c0.5,0,0.9,0.3,0.9,0.8v9.3H176.5z"/>
				</g>
			</g>
			<g>
				<g>
					<path d="M19.3-13.7v0.4c0,0.6-0.4,1.1-0.9,1.1h-14c-0.5,0-0.9-0.5-0.9-1.1v-0.4H19.3z"/>
					<path d="M3.5-14.4v-9.3c0-0.4,0.4-0.8,0.9-0.8h0.7v0c0-0.4,0.4-0.7,0.8-0.7h10.6c0.5,0,0.8,0.3,0.8,0.7v0h1
						c0.5,0,0.9,0.3,0.9,0.8v9.3H3.5z"/>
				</g>
			</g>
		</g>
	</g>
</pattern>
<rect class="st1" width="1381" height="687"/>
<g>
	<path d="M449.7-62.6c0.1,1,0.3,2,0.4,3c0,0.1,0,0.1,0,0.2h19.4c0-0.6,0.1-1.3,0.1-1.9c0.2-2.5,0.6-4.9,0.8-7.4
		c0.2-1.6,0.3-3.3,0.5-4.9c0.2-2.1,0.5-4.2,0.7-6.3c0.2-1.9,0.4-3.9,0.6-5.8c0.2-1.8,0.4-3.7,0.6-5.5c0.3-3.2,0.6-6.3,1-9.5
		c0.1-1.2,0.3-2.4,0.5-3.6c0.2-1.7,0.3-3.4,0.5-5.1c0.2-1.6,0.1-1.8-1.5-1.8c-7.1,0-14.3,0-21.4,0c-2.1,0-4.3-0.1-6.4-0.2
		c-0.8,0-1.2,0.4-1.3,1.2c0,0.4,0,0.8,0,1.2c0.4,3.1,0.9,6.2,1.3,9.3c0.5,4.2,1.1,8.4,1.6,12.6c0.2,1.4,0.3,2.8,0.4,4.2
		c0.3,2.9,0.6,5.8,0.9,8.7C448.8-70.5,449.2-66.6,449.7-62.6z"/>
	<path d="M469.5-56.1h-19.4c0.2,2.7,0.3,5.4,0.4,8c0.1,1.1,1,2,2.1,2c2.7,0,12,0,13.9,0c1.5,0,2.2-0.8,2.6-2.2
		c0.1-0.4,0.1-0.9,0.1-1.4C469.3-51.8,469.4-53.9,469.5-56.1z"/>
</g>
<g>
	<path d="M548.1-104.4c-0.3-1.4-1.4-7.8-2-8.6c-0.7-0.9-15.3-0.5-16.4,0c-1,0.4-2,7.2-2.2,8.6H548.1z"/>
	<path d="M548.2-101.1C548.2-101.1,548.2-101.1,548.2-101.1l-20.8-0.1c0,0,0,0.1,0,0.1c-3.9,3.2-4.1,12.8-4.1,12.8
		C523-64.6,528.5-44,528.5-44h18.3c4.8-18.3,5.3-43.2,4.8-48.8C551.1-98.6,548.2-101.1,548.2-101.1z"/>
</g>
<g>
	<path d="M627.4-89.4v-0.8c0-1.2-0.8-2.1-1.7-2.1h-27.1c-1,0-1.7,0.9-1.7,2.1v0.8H627.4z"/>
	<path d="M596.9-86.1v18c0,0.8,0.8,1.5,1.7,1.5h1.3v0c0,0.7,0.7,1.3,1.6,1.3h20.6c0.9,0,1.6-0.6,1.6-1.3v0h2c1,0,1.7-0.7,1.7-1.5
		v-18H596.9z"/>
</g>
<pattern  id="SVGID_1_" xlink:href="#New_Pattern" patternTransform="matrix(1 0 0 -1 -78.17 -16556)">
</pattern>
<rect class="st2" width="1381" height="687"/>
</svg>
