<?xml version="1.0" encoding="utf-8"?>
<!-- Generator: Adobe Illustrator 23.0.2, SVG Export Plug-In . SVG Version: 6.00 Build 0)  -->
<svg version="1.1" id="Layer_1" xmlns="http://www.w3.org/2000/svg" xmlns:xlink="http://www.w3.org/1999/xlink" x="0px" y="0px"
	 viewBox="0 0 364.5 1481.4" style="enable-background:new 0 0 364.5 1481.4;" xml:space="preserve">
<style type="text/css">
	.st0{fill:none;}
	.st1{clip-path:url(#SVGID_2_);}
	.st2{fill:#FFFFFF;}
	.st3{fill:#FF90FF;}
	.st4{fill:url(#SVGID_3_);}
</style>
<pattern  y="1481.4" width="98" height="135" patternUnits="userSpaceOnUse" id="New_Pattern_2" viewBox="0 -154.5 98 135" style="overflow:visible;">
	<g>
		<rect y="-154.5" class="st0" width="98" height="135"/>
		<g>
			<defs>
				<rect id="SVGID_1_" y="-154.5" width="98" height="135"/>
			</defs>
			<clipPath id="SVGID_2_">
				<use xlink:href="#SVGID_1_"  style="overflow:visible;"/>
			</clipPath>
			<g class="st1">
				<g>
					<path class="st2" d="M43.9-146.6c-0.1,1.3-0.3,2.5-0.4,3.8c0,0.6-0.1,1.2-0.2,1.8c-0.2,1.8-0.5,3.6-0.7,5.4
						c-0.2,1.3-0.4,2.7-0.6,4c0,0.2,0,0.3,0,0.5c0,0.3,0.2,0.5,0.6,0.5c0.9,0,1.9-0.1,2.8-0.1c3.1,0,6.2,0,9.2,0
						c0.7,0,0.7-0.1,0.6-0.8c-0.1-0.7-0.1-1.5-0.2-2.2c-0.1-0.5-0.2-1-0.2-1.6c-0.2-1.4-0.3-2.7-0.4-4.1c-0.1-0.8-0.2-1.6-0.3-2.4
						s-0.2-1.7-0.3-2.5c-0.1-0.9-0.2-1.8-0.3-2.7c-0.1-0.7-0.1-1.4-0.2-2.1c-0.1-1.1-0.3-2.1-0.3-3.2c0-0.3,0-0.6,0-0.8h-8.4
						c0,0,0,0,0,0.1c0,0.4-0.1,0.9-0.2,1.3C44.3-149.8,44.1-148.2,43.9-146.6z"/>
					<path class="st2" d="M52.9-157.1c0-0.2,0-0.4,0-0.6c-0.2-0.6-0.5-0.9-1.1-0.9c-0.8,0-4.8,0-6,0c-0.5,0-0.9,0.4-0.9,0.9
						c0,1.1-0.1,2.3-0.2,3.5H53C53-155.3,53-156.2,52.9-157.1z"/>
				</g>
				<g>
					<path class="st2" d="M78.1-133.5c0.1,0.6,0.5,3.5,0.9,3.7c0.5,0.2,6.8,0.4,7.1,0c0.3-0.3,0.7-3.1,0.9-3.7H78.1z"/>
					<path class="st2" d="M88.5-138.5c0.2-2.4,0-13.2-2.1-21.1h-7.9c0,0-2.4,8.9-2.2,19.1c0,0,0.1,4.1,1.8,5.5l0,0h9l0,0
						C87-134.9,88.3-136,88.5-138.5z"/>
				</g>
			</g>
			<g class="st1">
				<path class="st2" d="M10-140v0.3c0,0.5,0.3,0.9,0.7,0.9h11.7c0.4,0,0.7-0.4,0.7-0.9v-0.3H10z"/>
				<path class="st2" d="M23.2-141.4v-7.8c0-0.3-0.3-0.6-0.7-0.6h-0.9l0,0c0-0.3-0.3-0.6-0.7-0.6H12c-0.4,0-0.7,0.3-0.7,0.6l0,0
					h-0.6c-0.4,0-0.7,0.3-0.7,0.6v7.8H23.2z"/>
			</g>
			<g class="st1">
				<g>
					<path class="st2" d="M11.3-101.6c-0.1,1.3-0.3,2.5-0.4,3.8c0,0.6-0.1,1.2-0.2,1.8c-0.2,1.8-0.5,3.6-0.7,5.4
						c-0.2,1.3-0.4,2.7-0.6,4c0,0.2,0,0.3,0,0.5c0,0.3,0.2,0.5,0.6,0.5c0.9,0,1.9-0.1,2.8-0.1c3.1,0,6.2,0,9.2,0
						c0.7,0,0.7-0.1,0.6-0.8c-0.1-0.7-0.1-1.5-0.2-2.2c-0.1-0.5-0.2-1-0.2-1.6c-0.2-1.4-0.3-2.7-0.4-4.1c-0.1-0.8-0.2-1.6-0.3-2.4
						c-0.1-0.8-0.2-1.7-0.3-2.5c-0.1-0.9-0.2-1.8-0.3-2.7c-0.1-0.7-0.1-1.4-0.2-2.1c-0.1-1.1-0.3-2.1-0.3-3.2c0-0.3,0-0.6,0-0.8H12
						c0,0,0,0,0,0.1c0,0.4-0.1,0.9-0.2,1.3C11.6-104.8,11.4-103.2,11.3-101.6z"/>
					<path class="st2" d="M20.2-112.1c0-0.2,0-0.4,0-0.6c-0.2-0.6-0.5-0.9-1.1-0.9c-0.8,0-4.8,0-6,0c-0.5,0-0.9,0.4-0.9,0.9
						c0,1.1-0.1,2.3-0.2,3.5h8.4C20.3-110.3,20.3-111.2,20.2-112.1z"/>
				</g>
				<g>
					<path class="st2" d="M45.4-88.5c0.1,0.6,0.5,3.5,0.9,3.7c0.5,0.2,6.8,0.4,7.1,0c0.3-0.3,0.7-3.1,0.9-3.7H45.4z"/>
					<path class="st2" d="M55.8-93.5c0.2-2.4,0-13.2-2.1-21.1h-7.9c0,0-2.4,8.9-2.2,19.1c0,0,0.1,4.1,1.8,5.5l0,0h9l0,0
						C54.4-89.9,55.6-91,55.8-93.5z"/>
				</g>
				<g>
					<path class="st2" d="M75.4-95v0.3c0,0.5,0.3,0.9,0.7,0.9h11.7c0.4,0,0.7-0.4,0.7-0.9V-95H75.4z"/>
					<path class="st2" d="M88.5-96.4v-7.8c0-0.3-0.3-0.6-0.7-0.6h-0.9l0,0c0-0.3-0.3-0.6-0.7-0.6h-8.9c-0.4,0-0.7,0.3-0.7,0.6l0,0
						H76c-0.4,0-0.7,0.3-0.7,0.6v7.8H88.5z"/>
				</g>
			</g>
			<g class="st1">
				<path class="st2" d="M76.6-56.6c-0.1,1.3-0.3,2.5-0.4,3.8c0,0.6-0.1,1.2-0.2,1.8c-0.2,1.8-0.5,3.6-0.7,5.4
					c-0.2,1.3-0.4,2.7-0.6,4c0,0.2,0,0.3,0,0.5c0,0.3,0.2,0.5,0.6,0.5c0.9,0,1.9-0.1,2.8-0.1c3.1,0,6.2,0,9.2,0
					c0.7,0,0.7-0.1,0.6-0.8c-0.1-0.7-0.1-1.5-0.2-2.2c-0.1-0.5-0.2-1-0.2-1.6c-0.2-1.4-0.3-2.7-0.4-4.1c-0.1-0.8-0.2-1.6-0.3-2.4
					c-0.1-0.8-0.2-1.7-0.3-2.5c-0.1-0.9-0.2-1.8-0.3-2.7c-0.1-0.7-0.1-1.4-0.2-2.1c-0.1-1.1-0.3-2.1-0.3-3.2c0-0.3,0-0.6,0-0.8h-8.4
					c0,0,0,0,0,0.1c0,0.4-0.1,0.9-0.2,1.3C76.9-59.8,76.8-58.2,76.6-56.6z"/>
				<path class="st2" d="M85.6-67.1c0-0.2,0-0.4,0-0.6c-0.2-0.6-0.5-0.9-1.1-0.9c-0.8,0-4.8,0-6,0c-0.5,0-0.9,0.4-0.9,0.9
					c0,1.1-0.1,2.3-0.2,3.5h8.4C85.7-65.3,85.6-66.2,85.6-67.1z"/>
			</g>
			<g class="st1">
				<g>
					<path class="st2" d="M12.8-43.5c0.1,0.6,0.5,3.5,0.9,3.7c0.5,0.2,6.8,0.4,7.1,0c0.3-0.3,0.7-3.1,0.9-3.7H12.8z"/>
					<path class="st2" d="M23.2-48.5c0.2-2.4,0-13.2-2.1-21.1h-7.9c0,0-2.4,8.9-2.2,19.1c0,0,0.1,4.1,1.8,5.5l0,0h9l0,0
						C21.7-44.9,22.9-46,23.2-48.5z"/>
				</g>
				<g>
					<path class="st2" d="M42.7-50v0.3c0,0.5,0.3,0.9,0.7,0.9h11.7c0.4,0,0.7-0.4,0.7-0.9V-50H42.7z"/>
					<path class="st2" d="M55.9-51.4v-7.8c0-0.3-0.3-0.6-0.7-0.6h-0.9l0,0c0-0.3-0.3-0.6-0.7-0.6h-8.9c-0.4,0-0.7,0.3-0.7,0.6l0,0
						h-0.6c-0.4,0-0.7,0.3-0.7,0.6v7.8H55.9z"/>
				</g>
			</g>
			<g class="st1">
				<path class="st2" d="M52.9-22.1c0-0.2,0-0.4,0-0.6c-0.2-0.6-0.5-0.9-1.1-0.9c-0.8,0-4.8,0-6,0c-0.5,0-0.9,0.4-0.9,0.9
					c0,1.1-0.1,2.3-0.2,3.5H53C53-20.3,53-21.2,52.9-22.1z"/>
				<path class="st2" d="M88.5-3.5c0.2-2.4,0-13.2-2.1-21.1h-7.9c0,0-2.4,8.9-2.2,19.1c0,0,0.1,4.1,1.8,5.5l0,0h9l0,0
					C87,0.1,88.3-1,88.5-3.5z"/>
			</g>
		</g>
	</g>
</pattern>
<rect y="-19.1" class="st3" width="364.5" height="1500.5"/>
<g>
	<path d="M-73.6-47.3c0.1,1,0.3,2,0.4,3c0,0.1,0,0.1,0,0.2h19.4c0-0.6,0.1-1.3,0.1-1.9c0.2-2.5,0.6-4.9,0.8-7.4
		c0.2-1.6,0.3-3.3,0.5-4.9c0.2-2.1,0.5-4.2,0.7-6.3c0.2-1.9,0.4-3.9,0.6-5.8c0.2-1.8,0.4-3.7,0.6-5.5c0.3-3.2,0.6-6.3,1-9.5
		c0.1-1.2,0.3-2.4,0.5-3.6c0.2-1.7,0.3-3.4,0.5-5.1c0.2-1.6,0.1-1.8-1.5-1.8c-7.1,0-14.3,0-21.4,0c-2.1,0-4.3-0.1-6.4-0.2
		c-0.8,0-1.2,0.4-1.3,1.2c0,0.4,0,0.8,0,1.2c0.4,3.1,0.9,6.2,1.3,9.3c0.5,4.2,1.1,8.4,1.6,12.6c0.2,1.4,0.3,2.8,0.4,4.2
		c0.3,2.9,0.6,5.8,0.9,8.7C-74.5-55.2-74.1-51.3-73.6-47.3z"/>
	<path d="M-53.8-40.8h-19.4c0.2,2.7,0.3,5.4,0.4,8c0.1,1.1,1,2,2.1,2c2.7,0,12,0,13.9,0c1.5,0,2.2-0.8,2.6-2.2
		c0.1-0.4,0.1-0.9,0.1-1.4C-54-36.5-53.9-38.6-53.8-40.8z"/>
</g>
<g>
	<path d="M24.8-89.1c-0.3-1.4-1.4-7.8-2-8.6c-0.7-0.9-15.3-0.5-16.4,0c-1,0.4-2,7.2-2.2,8.6H24.8z"/>
	<path d="M24.9-85.8L24.9-85.8L4.1-85.9v0.1C0.2-82.6,0-73,0-73c-0.3,23.7,5.2,44.3,5.2,44.3h18.3c4.8-18.3,5.3-43.2,4.8-48.8
		C27.8-83.3,24.9-85.8,24.9-85.8z"/>
</g>
<g>
	<path d="M104.1-74.1v-0.8c0-1.2-0.8-2.1-1.7-2.1H75.3c-1,0-1.7,0.9-1.7,2.1v0.8H104.1z"/>
	<path d="M73.6-70.8v18c0,0.8,0.8,1.5,1.7,1.5h1.3l0,0c0,0.7,0.7,1.3,1.6,1.3h20.6c0.9,0,1.6-0.6,1.6-1.3l0,0h2c1,0,1.7-0.7,1.7-1.5
		v-18H73.6z"/>
</g>
<pattern  id="SVGID_3_" xlink:href="#New_Pattern_2" patternTransform="matrix(-1 -8.979319e-11 8.979319e-11 -1 -16001.5 -18125.4121)">
</pattern>
<rect y="0" class="st4" width="364.5" height="1481.4"/>
</svg>
