<svg id="Layer_1" data-name="Layer 1" xmlns="http://www.w3.org/2000/svg" xmlns:xlink="http://www.w3.org/1999/xlink" viewBox="0 0 360 611"><defs><style>.cls-1{fill:url(#linear-gradient);}</style><linearGradient id="linear-gradient" x1="-1300.3" y1="1020.68" x2="-596.78" y2="1020.68" gradientTransform="matrix(0.16, 1.12, -1.49, 0.21, 1832.14, 1034.17)" gradientUnits="userSpaceOnUse"><stop offset="0" stop-color="#0f6"/><stop offset="1" stop-color="#ff90ff"/></linearGradient></defs><title>mobile-header-background</title><path class="cls-1" d="M328.05,45.53c-7.46-5.37-3.37-12.43.61-20.17,2.69-5.25,3.34-14.59,2.65-19.44-.28-2-1.75-4.73-3.16-7.42H198.51a44.28,44.28,0,0,0,4.78,3.73c7.94,5.37,6.63,15.59-3,20.32a16.83,16.83,0,0,1-3.58,1.31,210.59,210.59,0,0,0-21.67,5.82c-13.81,5-29.32,4.86-42.12-.1a54.63,54.63,0,0,0-27.21-2.82c-21.38,3-30,15.71-45.67,23.79C-11.5,87.46-52.5,8.46-38.74,137.66c2.29,21.52-27.68,16.55-26.5,29.7,1.4,15.61,19.57,26,39.87,23.16,1.3-.19,2.58-.42,3.82-.7,9.67-2.18,19.74-1,27.19,3.55,18.63,11.3,43.73,16.47,70.26,12.71q3.15-.44,6.22-1c18.23-3.54,36.82-.26,50.65,8.29A130.48,130.48,0,0,0,147.06,221c16.5,7.62,24.43,22.57,20.27,37.74l-2.66,9.69c-.79,2.89-3.19,5.45-6.52,7.05q-4.11,2-8,4.18c-11.13,6.37-25.54,7.19-36.78,2.29a66.88,66.88,0,0,0-35.46-4.43c-30.12,4.11-52,25.45-49.45,48.31,2.6,23.44,30.11,39,60.81,34.66,1.41-.2,2.82-.44,4.2-.72,5.2-1,10.2,1.3,11.18,5.21l0,.18c1.63,6.46-.45,13.33-5.67,19-4.13,4.48-6.19,10-5.16,15.65,2,11.07,15.61,18.27,30.32,16.08,1.07-.16,2.13-.36,3.16-.61,8.56-2.06,17.59-1.69,25,1.46.32.14.64.28,1,.41l.17.08a15.72,15.72,0,0,1,9.92,3.87c3.27,3.05,4.77,7.49,5.41,11.8,1.42,9.47-.39,19.34-2,28.67-2.51,14.59-5.63,29.23-5.65,44.1,0,13.42,2.81,27.72,13.92,36.4,8.27,6.46,18.65,9.44,28.63,12.55a27.63,27.63,0,0,1,7.89-5.65c27.41-13.29,44.49-37.66,40.94-62.74-2.16-15.21-32-17.06-25.27-37,10.88-32.21,68.36-4.21,92-22.94,36.44-28.9-26.26-33-31.87-72.64-2.6-18.28,54.89-32.51.71-70.29-11.8-8.22-20-5.62-26.29-22.53-5.74-15.33-12.05-11.15-12.94-17.45-2.22-15.65,30.74-13.76,28.2-31.7-2.76-19.47-61.58-51.73-21.3-67.21,54.69-21,124.13-.78,125-50.36C381.18,68.87,349.52,61,328.05,45.53Z"/></svg>