<svg xmlns="http://www.w3.org/2000/svg" viewBox="0 0 1365 4220"><defs><style>.cls-1{fill:#fff;}.cls-2{fill:none;stroke:#000;stroke-miterlimit:10;stroke-width:3px;}</style></defs><title>nmg-background</title><g id="flow-backgr"><rect class="cls-1" x="-97" y="-47" width="1590" height="4363"/></g><g id="flow"><path class="cls-2" d="M-7.24-11.88V63.9c0,12.29.36,26,0,41-.48,20.34,18.88,30.62,23.06,49,1.13,5,1.07,10.1-1,14.11-7.29,14.38-22.1,25.5-22.1,43.23V699.62q0,11.16,0,22.42-.63,45.11,0,92.1,0,11.46,0,23.05c0,48.8-1.93,99.07,0,150.51a169.13,169.13,0,0,0,2.75,25.08c9.74,25.48,10.7,51.65-.09,75.83A108.49,108.49,0,0,0-7.24,1114c0,3.66,0,7.33,0,11q0,18.88,0,37.94c0,20.43.59,41,.23,61.68-.39,23.17.2,46.51.32,69.84.19,33.4-.67,67.07-.56,101.08V1930q0,13.11,0,26.24c0,9,.05,18,.07,27,0,3.47.1,6.93.29,10.37,1.63,28.39,9.32,55.71,14.43,83.69,1.34,7.36,2.71,14.76,3.59,22.25a125,125,0,0,1,.14,29.19c-3.66,33.23-15.15,65.11-18,97.81a201.23,201.23,0,0,0-.53,22.27c.42,17.45,0,34.89,0,52.32V2768c0,30.07.85,60-.44,89.36-.91,20.69-4,41.28-4.47,62-1.8,77.78-19.62,159.52-23.55,238.45-.65,13.16-.75,26.27-.58,39.36.27,21.36,4.15,43.12,7.5,64.3,2.81,17.78,5.06,35.13,4.25,51.49-.35,7.12-.85,14.4-1.5,21.8s-1,15-2.17,22.54a44.37,44.37,0,0,0-.76,8.34c.47,14.33,9.93,26.51,14,40.73,3.08,10.85-2.61,19.71-8.26,28.62-3.12,4.92-6.23,9.85-7.84,15.15,3.37,27.15,8,54.09,13.57,80.8,2.8,13.36,5.51,26.76,9,39.92,4.35,16.44,9,32.81,13.08,49.29,19.1,77.71,12.21,157.16-11.13,232.29-3.85,12.41-8,24.75-12.77,36.82-2.8,7-3,14.89-2,21.85,8,55,13.48,107.89,13.06,162.59-.1,12.63,0,24.81.09,36.5.1,54.8.47,98.81.78,130.33.33,33.9,0,52.36.17,53"/><path class="cls-2" d="M12.68-12.73v76c0,12.31.36,26,0,41.08-.47,20.33,18.62,30.78,22.74,49.21,1.12,5,1.06,10.11-1,14.15-7.18,14.43-21.79,25.66-21.79,43.43V700.61q0,11.17,0,22.47-.83,45.21,0,92.29,0,11.49,0,23.11c0,48.91-1.9,99.29,0,150.85a172.5,172.5,0,0,0,2.71,25.14c9.61,25.54,10.56,51.77-.09,76a110.69,110.69,0,0,0-2.62,25.44c0,3.67,0,7.34,0,11q0,18.91,0,38c0,20.48.78,41.1.31,61.81-.53,23.24.26,46.64.42,70,.26,33.47-.81,67.2-.74,101.29,0,13,0,26,0,39.14v496.54q0,13.15,0,26.31c0,9,.05,18.06.07,27.09,0,3.49.11,6.95.3,10.4,1.64,28.46,9.26,55.84,14.25,83.9,1.3,7.39,2.67,14.8,3.55,22.3a124.52,124.52,0,0,1,.19,29.26c-3.64,33.15-15,65-17.85,97.58a202.86,202.86,0,0,0-.51,22.22c.4,17.36,0,34.73,0,52.08v465.75c0,30,.84,59.83-.43,89.14-.9,20.64-3.94,41.18-4.41,61.83-1.78,77.64-19.35,159.17-23.23,237.89-.64,13.13-.74,26.21-.58,39.26.27,21.31,4.11,43,7.41,64.15,2.76,17.74,5,35.06,4.19,51.39Q-4.88,3325-5.85,3336c-.63,7.39-1,15-2.14,22.49a44,44,0,0,0-.75,8.31C-8.29,3381.15,1,3393.32,5,3407.5c3,10.82-2.59,19.68-8.16,28.58-3.08,4.92-6.15,9.85-7.75,15.13,3.31,27.09,7.82,54,13.34,80.62,2.76,13.33,5.43,26.7,8.86,39.83,4.28,16.41,8.9,32.74,12.89,49.19,18.81,77.52,12,156.77-11,231.75C9.33,3865,5.27,3877.31.51,3889.36c-2.75,7-2.92,14.85-1.93,21.8,7.8,54.94,13.15,107.85,12.75,162.52-.09,12.63.06,24.8.11,36.49.14,54.62.62,98.6,1,130.26.44,33.66,0,52.1.23,53"/><path class="cls-2" d="M32.61-13.58V62.55c0,12.34.34,26.09,0,41.18C32.14,124.05,51,134.65,55,153.15c1.1,5,1,10.13-.94,14.18C47,181.82,32.61,193.16,32.61,211V701.6q0,11.21,0,22.52c-.7,30.2-.7,61.09,0,92.48q0,11.52,0,23.16c0,49-1.88,99.53,0,151.2a176,176,0,0,0,2.66,25.2c9.48,25.6,10.41,51.89-.08,76.24a112.24,112.24,0,0,0-2.58,25.5c0,3.68,0,7.36,0,11v38.11c0,20.52,1,41.2.39,61.94-.66,23.3.33,46.76.53,70.11.33,33.56-1,67.35-.92,101.51,0,13,0,26.11,0,39.22v524.05q0,13.57.08,27.16c0,3.49.1,7,.29,10.42,1.65,28.52,9.22,56,14.07,84.11,1.27,7.41,2.64,14.84,3.53,22.36a125,125,0,0,1,.24,29.32c-3.63,33.06-14.93,64.81-17.7,97.35a204.28,204.28,0,0,0-.51,22.16c.39,17.29,0,34.58,0,51.85v464.61c0,29.93.82,59.69-.44,88.93-.88,20.59-3.88,41.09-4.35,61.68-1.75,77.5-19.07,158.81-22.9,237.32-.63,13.1-.73,26.15-.57,39.18.27,21.26,4.05,42.92,7.3,64,2.73,17.69,4.92,35,4.14,51.29-.34,7.08-.83,14.33-1.46,21.69s-.93,14.92-2.11,22.44a42.84,42.84,0,0,0-.74,8.29c.43,14.27,9.61,26.43,13.51,40.59,3,10.78-2.56,19.63-8.06,28.53-3,4.91-6.08,9.84-7.66,15.12,3.24,27,7.68,53.83,13.11,80.43,2.72,13.3,5.34,26.64,8.72,39.74,4.22,16.37,8.76,32.67,12.7,49.09,18.52,77.34,11.8,156.38-10.95,231.22-3.76,12.36-7.76,24.66-12.46,36.69-2.72,7-2.88,14.82-1.92,21.75,7.64,54.9,12.84,107.82,12.46,162.46-.09,12.61.06,24.78.12,36.47.17,54.44.77,98.38,1.29,130.18.55,33.43,0,51.85.29,53"/><path class="cls-2" d="M52.53-14.43v76.3c0,12.37.34,26.15,0,41.27-.46,20.31,18.09,31.08,22.1,49.64,1.08,5,1,10.14-.92,14.22-7,14.54-21.18,26-21.18,43.84V702.59q0,11.22,0,22.57c-.84,30.27-.84,61.23,0,92.67,0,7.7,0,15.43,0,23.22,0,49.14-1.85,99.75,0,151.54a176.66,176.66,0,0,0,2.63,25.26c9.34,25.66,10.26,52-.09,76.45a114.47,114.47,0,0,0-2.54,25.56c0,3.68,0,7.37,0,11.07v38.19c0,20.57,1.18,41.29.47,62.06-.79,23.37.4,46.9.63,70.26.4,33.63-1.22,67.48-1.1,101.72,0,13.06,0,26.17,0,39.31V1941.3q0,13.2,0,26.42c0,9.07,0,18.14.07,27.22q0,5.25.3,10.44c1.66,28.59,9.16,56.1,13.89,84.33,1.23,7.42,2.59,14.87,3.5,22.4a125.63,125.63,0,0,1,.28,29.39c-3.61,33-14.81,64.66-17.55,97.12a205.92,205.92,0,0,0-.5,22.11c.39,17.21,0,34.42,0,51.61v463.48c0,29.85.81,59.54-.43,88.71-.87,20.54-3.83,41-4.29,61.53-1.73,77.36-18.81,158.46-22.58,236.76-.62,13.07-.72,26.09-.56,39.08.26,21.22,4,42.82,7.2,63.85,2.69,17.66,4.85,34.9,4.08,51.19-.34,7.07-.82,14.3-1.44,21.64s-.92,14.89-2.08,22.38a45.23,45.23,0,0,0-.74,8.28c.45,14.23,9.46,26.39,13.3,40.51,2.93,10.76-2.54,19.6-8,28.49-3,4.91-6,9.83-7.56,15.1,3.17,27,7.53,53.71,12.87,80.25,2.67,13.27,5.26,26.57,8.58,39.65,4.16,16.34,8.63,32.61,12.5,49,18.24,77.15,11.61,156-10.85,230.69-3.71,12.33-7.66,24.61-12.3,36.62-2.69,7-2.84,14.78-1.9,21.7,7.47,54.86,12.51,107.78,12.15,162.4-.09,12.6.08,24.76.14,36.45.21,54.26.93,98.16,1.55,130.1.65,33.2,0,51.6.34,53"/><path class="cls-2" d="M72.45-15.28V61.19c0,12.4.34,26.21,0,41.37-.46,20.3,17.83,31.22,21.79,49.85,1.06,5,1,10.15-.91,14.26-6.86,14.59-20.88,26.16-20.88,44V703.58c0,7.5,0,15,0,22.62-1,30.34-1,61.37,0,92.86,0,7.71,0,15.47,0,23.27,0,49.25-1.82,100,0,151.89A181.78,181.78,0,0,0,75,1019.54c9.21,25.72,10.12,52.12-.08,76.66a116.17,116.17,0,0,0-2.51,25.62c0,3.69,0,7.39,0,11.09v38.28c0,20.62,1.38,41.39.55,62.19-.92,23.44.46,47,.74,70.4.46,33.7-1.43,67.61-1.29,101.93,0,13.09,0,26.23,0,39.4v500q0,13.23,0,26.48,0,13.64.08,27.29c0,3.5.1,7,.29,10.46,1.67,28.66,9.11,56.23,13.71,84.54,1.2,7.44,2.56,14.9,3.47,22.46a124.54,124.54,0,0,1,.33,29.45c-3.59,32.89-14.7,64.5-17.39,96.89a207.54,207.54,0,0,0-.5,22.05c.38,17.13,0,34.26,0,51.37v462.35c0,29.78.8,59.39-.42,88.5-.86,20.49-3.78,40.89-4.23,61.39-1.71,77.22-18.54,158.1-22.26,236.19-.61,13-.7,26-.55,39,.26,21.17,3.93,42.72,7.09,63.7,2.66,17.62,4.79,34.83,4,51.09-.34,7.06-.81,14.27-1.42,21.59s-.91,14.85-2.06,22.33a45.73,45.73,0,0,0-.72,8.25c.44,14.2,9.3,26.36,13.08,40.45,2.88,10.72-2.51,19.55-7.87,28.44-3,4.91-5.92,9.83-7.46,15.09,3.11,26.89,7.39,53.57,12.64,80.05,2.63,13.24,5.17,26.52,8.44,39.57,4.09,16.3,8.5,32.54,12.31,48.89,18,77,11.41,155.6-10.76,230.15-3.66,12.31-7.56,24.57-12.14,36.56-2.65,6.95-2.81,14.74-1.89,21.65,7.32,54.82,12.2,107.75,11.85,162.33-.08,12.59.09,24.75.16,36.45.24,54.07,1.08,97.94,1.81,130,.75,33,0,51.35.4,52.92"/><path class="cls-2" d="M92.37-16.13V60.51c0,12.43.33,26.27,0,41.47-.45,20.29,17.57,31.36,21.47,50.06,1,5,1,10.17-.89,14.29-6.76,14.65-20.58,26.33-20.58,44.24v494c0,7.52,0,15.07,0,22.67-1.12,30.41-1.12,61.51,0,93,.05,7.73.05,15.5.05,23.32,0,49.37-1.8,100.21,0,152.24a185.57,185.57,0,0,0,2.55,25.38c9.08,25.78,10,52.24-.08,76.86a118.68,118.68,0,0,0-2.47,25.69c0,3.7,0,7.4,0,11.12v38.36c0,20.67,1.58,41.49.63,62.32-1,23.5.53,47.15.84,70.53.53,33.79-1.63,67.75-1.47,102.15.06,13.12,0,26.29,0,39.49v501.1q0,13.26,0,26.54,0,13.66.08,27.34c0,3.52.11,7,.3,10.49,1.68,28.72,9,56.36,13.53,84.75,1.16,7.46,2.52,14.94,3.44,22.52a125,125,0,0,1,.38,29.51c-3.58,32.8-14.59,64.35-17.25,96.66a212,212,0,0,0-.49,22c.38,17.05,0,34.1,0,51.13V2781c0,29.7.79,59.24-.41,88.28-.85,20.44-3.73,40.8-4.17,61.24-1.68,77.08-18.27,157.74-21.93,235.63-.61,13-.7,26-.55,38.89.25,21.12,3.87,42.61,7,63.55,2.62,17.57,4.72,34.75,4,51-.32,7-.79,14.23-1.39,21.53s-.9,14.82-2,22.28a46.32,46.32,0,0,0-.71,8.23C72.55,3385.79,81.28,3398,85,3412c2.84,10.69-2.48,19.52-7.76,28.4-2.93,4.9-5.85,9.82-7.37,15.07,3.05,26.83,7.25,53.45,12.41,79.87,2.59,13.21,5.08,26.46,8.31,39.48,4,16.27,8.35,32.47,12.11,48.79,17.66,76.78,11.21,155.2-10.67,229.62-3.62,12.28-7.47,24.51-12,36.48-2.62,6.94-2.77,14.71-1.87,21.61C85.31,3966.11,90,4019,89.7,4073.59c-.07,12.58.1,24.73.18,36.43.27,53.89,1.23,97.72,2.07,129.94.85,32.73,0,51.09.46,52.89"/><path class="cls-2" d="M112.29-17V59.84c0,12.45.33,26.33,0,41.55-.44,20.28,17.31,31.52,21.16,50.28,1,5,1,10.18-.88,14.33-6.66,14.7-20.28,26.49-20.28,44.44V705.55c0,7.54,0,15.11-.05,22.73-1.25,30.48-1.25,61.65,0,93.24.05,7.75.05,15.54.05,23.38,0,49.48-1.77,100.43,0,152.58a187.91,187.91,0,0,0,2.52,25.44c8.94,25.85,9.82,52.36-.08,77.07a121.09,121.09,0,0,0-2.44,25.74c0,3.71,0,7.43,0,11.15v38.45c0,20.72,1.78,41.58.71,62.45-1.18,23.56.59,47.28,1,70.67.59,33.86-1.84,67.88-1.66,102.36.07,13.15,0,26.35,0,39.58v502.23q0,13.31,0,26.6,0,13.71.08,27.41c0,3.52.1,7,.3,10.51,1.63,28.79,9,56.49,13.36,85,1.12,7.48,2.47,15,3.4,22.57a124.59,124.59,0,0,1,.43,29.58c-3.56,32.72-14.48,64.2-17.09,96.43a211,211,0,0,0-.49,22c.37,17,0,33.94,0,50.89v460.09c0,29.63.78,59.09-.41,88.06-.83,20.39-3.66,40.7-4.1,61.09-1.66,76.94-18,157.39-21.61,235.07-.6,13-.69,25.89-.54,38.79.25,21.08,3.82,42.52,6.89,63.4,2.57,17.53,4.64,34.68,3.9,50.89q-.48,10.55-1.38,21.48c-.59,7.31-.88,14.78-2,22.22a46.18,46.18,0,0,0-.7,8.22c.41,14.12,9,26.27,12.63,40.3,2.79,10.65-2.46,19.48-7.66,28.35-2.89,4.9-5.77,9.81-7.28,15.06,3,26.76,7.11,53.32,12.19,79.68,2.54,13.18,5,26.39,8.16,39.39,4,16.23,8.22,32.41,11.91,48.69,17.38,76.59,11,154.81-10.57,229.08-3.57,12.26-7.37,24.47-11.82,36.42-2.59,6.93-2.74,14.67-1.86,21.56,7,54.75,11.55,107.68,11.24,162.21-.07,12.56.11,24.71.2,36.41.31,53.71,1.38,97.5,2.33,129.86s0,50.84.51,52.87"/><path class="cls-2" d="M132.21-17.84v77c0,12.48.33,26.39,0,41.65-.43,20.27,17,31.66,20.84,50.49,1,5,1,10.19-.87,14.37-6.54,14.75-20,26.66-20,44.64V706.54c0,7.56,0,15.15-.05,22.78-1.4,30.55-1.4,61.79,0,93.43.06,7.77.06,15.57.06,23.43,0,49.6-1.74,100.67,0,152.92a193.58,193.58,0,0,0,2.48,25.51c8.81,25.91,9.68,52.48-.08,77.28a123.62,123.62,0,0,0-2.4,25.8c0,3.72,0,7.44,0,11.17q0,19.19,0,38.55c0,20.76,2,41.67.78,62.56-1.32,23.64.66,47.42,1.05,70.82.66,33.93-2,68-1.84,102.57.08,13.18,0,26.41,0,39.67V1956.4q0,13.32,0,26.66,0,13.73.09,27.47c0,3.53.1,7,.3,10.54,1.63,28.85,8.94,56.61,13.17,85.17,1.09,7.49,2.44,15,3.38,22.62a124.57,124.57,0,0,1,.47,29.64c-3.53,32.63-14.36,64.05-16.94,96.2a215.56,215.56,0,0,0-.48,21.89c.37,16.9,0,33.79,0,50.66V2786.2c0,29.56.77,59-.4,87.85-.82,20.34-3.61,40.6-4,60.94-1.64,76.8-17.74,157-21.29,234.51-.59,12.94-.68,25.83-.53,38.69.24,21,3.76,42.42,6.78,63.25,2.54,17.5,4.58,34.6,3.85,50.79-.32,7-.77,14.17-1.36,21.43s-.86,14.75-2,22.17a46.76,46.76,0,0,0-.69,8.19c.39,14.1,8.83,26.24,12.41,40.23,2.74,10.62-2.43,19.44-7.56,28.31-2.86,4.9-5.7,9.81-7.18,15,2.91,26.7,7,53.2,12,79.5,2.49,13.15,4.9,26.33,8,39.3,3.89,16.2,8.08,32.34,11.72,48.59,17.1,76.41,10.81,154.42-10.48,228.55-3.52,12.24-7.27,24.42-11.66,36.35-2.55,6.91-2.7,14.63-1.84,21.51,6.83,54.71,11.23,107.64,10.94,162.15-.07,12.55.11,24.69.21,36.39.34,53.53,1.53,97.29,2.58,129.78,1,32.27,0,50.6.58,52.84"/><path class="cls-2" d="M152.13-18.69V58.48c0,12.51.32,26.45,0,41.74-.43,20.27,16.79,31.81,20.53,50.71,1,5,1,10.21-.86,14.4-6.44,14.81-19.67,26.83-19.67,44.85V707.53c0,7.57,0,15.18,0,22.83-1.54,30.61-1.54,61.93,0,93.62.06,7.78.06,15.61.06,23.48,0,49.71-1.71,100.9,0,153.27a197.47,197.47,0,0,0,2.44,25.56c8.68,26,9.54,52.61-.07,77.5a125.54,125.54,0,0,0-2.37,25.86c0,3.73,0,7.46,0,11.2q0,19.22,0,38.63c0,20.81,2.16,41.76.86,62.69-1.45,23.7.72,47.55,1.16,70.95.72,34-2.25,68.16-2,102.79.08,13.21,0,26.47,0,39.76v504.5q0,13.36,0,26.73,0,13.75.09,27.53c0,3.53.1,7,.3,10.56,1.64,28.92,8.95,56.74,13,85.38,1.06,7.51,2.4,15.05,3.35,22.67a125.17,125.17,0,0,1,.51,29.71c-3.51,32.55-14.25,63.9-16.78,96a217.51,217.51,0,0,0-.48,21.84c.36,16.81,0,33.62,0,50.42V2788.8c0,29.48.76,58.8-.39,87.63-.81,20.29-3.56,40.51-4,60.79-1.61,76.66-17.46,156.68-21,234-.58,12.91-.67,25.77-.52,38.6.24,21,3.7,42.31,6.68,63.09,2.5,17.46,4.51,34.53,3.79,50.7-.31,7-.76,14.13-1.34,21.37s-.85,14.71-1.93,22.11a47.59,47.59,0,0,0-.68,8.18c.38,14.06,8.67,26.2,12.19,40.16,2.69,10.58-2.41,19.4-7.47,28.26-2.81,4.89-5.61,9.8-7.08,15,2.85,26.63,6.82,53.06,11.72,79.31,2.45,13.12,4.82,26.27,7.88,39.21,3.83,16.16,7.95,32.27,11.53,48.48,16.81,76.23,10.61,154-10.4,228-3.46,12.22-7.16,24.38-11.5,36.29-2.51,6.9-2.66,14.59-1.82,21.45,6.67,54.69,10.91,107.61,10.64,162.09-.06,12.54.12,24.68.23,36.38.38,53.35,1.68,97.07,2.84,129.71,1.14,32,0,50.34.63,52.81"/><path class="cls-2" d="M172.05-19.54V57.8c0,12.54.32,26.51,0,41.84-.42,20.25,16.53,32,20.21,50.92,1,5.05,1,10.22-.84,14.44-6.34,14.86-19.37,27-19.37,45V708.52c0,7.59,0,15.21-.06,22.88a878.84,878.84,0,0,0,0,93.81c.06,7.8.06,15.64.06,23.54,0,49.82-1.69,101.12,0,153.61a201.86,201.86,0,0,0,2.41,25.62c8.54,26,9.38,52.73-.08,77.7a128.38,128.38,0,0,0-2.33,25.93c0,3.74,0,7.48,0,11.22q0,19.26,0,38.72c0,20.86,2.36,41.86.94,62.82-1.58,23.76.79,47.67,1.26,71.09.79,34.09-2.44,68.29-2.21,103,.09,13.24,0,26.53,0,39.85V1964q0,13.38,0,26.78,0,13.8.09,27.59c0,3.55.11,7.07.31,10.59,1.64,29,8.89,56.87,12.81,85.59,1,7.53,2.36,15.09,3.32,22.73a124.63,124.63,0,0,1,.57,29.77c-3.5,32.46-14.14,63.74-16.64,95.74a216.32,216.32,0,0,0-.46,21.78c.35,16.74,0,33.47,0,50.19v456.68c0,29.41.75,58.66-.39,87.42-.79,20.24-3.5,40.41-3.92,60.64-1.59,76.53-17.19,156.32-20.64,233.39-.57,12.87-.66,25.7-.51,38.5.23,20.94,3.64,42.21,6.58,62.95,2.46,17.41,4.43,34.45,3.72,50.59-.3,7-.74,14.1-1.31,21.32s-.84,14.67-1.91,22.06a49.25,49.25,0,0,0-.66,8.15c.37,14,8.51,26.16,12,40.09,2.65,10.56-2.38,19.37-7.36,28.22-2.78,4.89-5.54,9.79-7,15,2.79,26.57,6.68,52.94,11.49,79.12,2.41,13.09,4.73,26.21,7.74,39.13,3.76,16.13,7.82,32.21,11.33,48.38,16.53,76,10.42,153.65-10.3,227.49-3.42,12.19-7.06,24.33-11.34,36.22-2.47,6.89-2.62,14.55-1.8,21.4,6.5,54.65,10.58,107.58,10.33,162-.06,12.53.13,24.66.25,36.36.41,53.17,1.83,96.85,3.1,129.63,1.24,31.8,0,50.09.69,52.79"/><path class="cls-2" d="M192-20.39V57.13c0,12.56.32,26.56,0,41.93-.41,20.24,16.27,32.1,19.9,51.13,1,5.06.94,10.23-.83,14.48C204.81,179.58,192,191.83,192,209.91v499.6c0,7.6,0,15.24-.06,22.93a812,812,0,0,0,0,94c.07,7.82.07,15.68.07,23.59,0,49.94-1.66,101.35,0,154a204.5,204.5,0,0,0,2.37,25.68c8.41,26.1,9.24,52.85-.07,77.91a131.91,131.91,0,0,0-2.3,26c0,3.74,0,7.49,0,11.25q0,19.29,0,38.8c0,20.9,2.56,42,1,63-1.71,23.83.86,47.8,1.37,71.23.85,34.16-2.65,68.42-2.4,103.21.1,13.27,0,26.59,0,39.94v506.77q0,13.42,0,26.85,0,13.82.1,27.65c0,3.55.1,7.09.3,10.61,1.65,29.05,8.85,57,12.64,85.81,1,7.54,2.32,15.12,3.29,22.78a124.62,124.62,0,0,1,.61,29.83c-3.48,32.37-14,63.59-16.48,95.52-.56,7.2-.61,14.43-.46,21.72.34,16.66,0,33.31,0,49.94V2794c0,29.34.74,58.51-.38,87.2-.78,20.19-3.45,40.31-3.86,60.49-1.57,76.39-16.93,156-20.32,232.82-.56,12.85-.65,25.65-.5,38.41.23,20.89,3.58,42.11,6.47,62.8,2.42,17.38,4.37,34.37,3.67,50.49q-.45,10.46-1.29,21.27c-.56,7.25-.83,14.64-1.88,22a49.93,49.93,0,0,0-.66,8.13c.36,14,8.36,26.12,11.75,40,2.6,10.52-2.34,19.33-7.26,28.17-2.73,4.89-5.46,9.79-6.9,15,2.73,26.5,6.54,52.81,11.26,78.93,2.36,13.06,4.65,26.15,7.61,39.05,3.69,16.08,7.67,32.13,11.13,48.27C217.05,3702.91,211,3780.31,190.6,3854c-3.37,12.17-7,24.28-11.18,36.16-2.44,6.87-2.57,14.51-1.79,21.35,6.44,54.6,10.27,107.54,10,162,0,12.51.14,24.63.27,36.34.45,53,2,96.64,3.36,129.55,1.33,31.57,0,49.84.74,52.76"/><path class="cls-2" d="M211.89-21.24V56.45c0,12.59.32,26.62,0,42-.4,20.23,16,32.25,19.58,51.35.95,5.07.93,10.25-.81,14.51-6.13,15-18.77,27.33-18.77,45.45V710.5c0,7.62,0,15.28-.07,23a759,759,0,0,0,0,94.19c.07,7.84.07,15.71.07,23.64,0,50.06-1.63,101.58,0,154.31a211.08,211.08,0,0,0,2.33,25.74c8.28,26.16,9.1,53-.07,78.12a134.75,134.75,0,0,0-2.26,26c0,3.75,0,7.51,0,11.27q0,19.35,0,38.89c0,21,2.76,42,1.1,63.07-1.84,23.9.92,47.94,1.47,71.37.92,34.25-2.85,68.57-2.58,103.43.11,13.3,0,26.65,0,40V1971.5q0,13.44,0,26.9,0,13.86.1,27.72c0,3.56.11,7.1.31,10.63,1.64,29.11,8.8,57.12,12.45,86,1,7.56,2.29,15.16,3.26,22.83a124.19,124.19,0,0,1,.66,29.9c-3.46,32.29-13.91,63.44-16.33,95.29-.55,7.18-.6,14.39-.45,21.67.34,16.57,0,33.15,0,49.7v454.42c0,29.27.73,58.36-.37,87-.77,20.14-3.39,40.21-3.8,60.34-1.55,76.25-16.66,155.61-20,232.26-.55,12.82-.64,25.58-.5,38.31.23,20.85,3.54,42,6.38,62.65,2.38,17.34,4.3,34.3,3.61,50.39-.3,6.95-.72,14-1.27,21.22s-.82,14.6-1.85,22a50.91,50.91,0,0,0-.65,8.12c.35,14,8.2,26.08,11.53,39.94,2.55,10.49-2.31,19.3-7.17,28.13-2.68,4.89-5.38,9.78-6.79,15,2.65,26.44,6.39,52.68,11,78.75,2.32,13,4.56,26.09,7.47,39,3.62,16,7.54,32.06,10.94,48.17,15.95,75.67,10,152.87-10.12,226.42-3.32,12.14-6.86,24.23-11,36.09-2.41,6.86-2.54,14.47-1.77,21.3,6.24,54.57,9.94,107.51,9.73,161.9,0,12.51.14,24.62.28,36.33.48,52.81,2.12,96.42,3.62,129.47,1.42,31.34,0,49.59.8,52.74"/><path class="cls-2" d="M231.82-22.09V55.77c0,12.62.3,26.69,0,42.12-.41,20.22,15.74,32.4,19.26,51.56.93,5.08.92,10.26-.8,14.55-6,15-18.46,27.49-18.46,45.65V711.48c0,7.65,0,15.32-.08,23a709.36,709.36,0,0,0,0,94.38c.08,7.85.09,15.75.09,23.7,0,50.17-1.61,101.81,0,154.65a211.89,211.89,0,0,0,2.29,25.8c8.14,26.23,8.94,53.09-.07,78.33a136.1,136.1,0,0,0-2.22,26.1c0,3.77,0,7.53,0,11.31v39c0,21,3,42.14,1.18,63.2-2,24,1,48.07,1.58,71.51,1,34.32-3.06,68.7-2.76,103.64.11,13.33,0,26.71,0,40.12v536q0,13.88.1,27.78c0,3.56.11,7.11.31,10.65,1.65,29.18,8.75,57.25,12.28,86.23.92,7.59,2.24,15.2,3.23,22.89a125.21,125.21,0,0,1,.71,30c-3.45,32.2-13.81,63.29-16.19,95.06-.54,7.16-.59,14.36-.44,21.61.33,16.5,0,33,0,49.47v453.29c0,29.19.7,58.21-.37,86.76-.76,20.1-3.34,40.13-3.74,60.2-1.52,76.11-16.39,155.26-19.68,231.7-.55,12.79-.62,25.52-.49,38.22.23,20.8,3.48,41.91,6.27,62.5,2.35,17.29,4.23,34.22,3.56,50.29-.29,6.93-.72,14-1.25,21.16s-.81,14.57-1.82,21.9a50.6,50.6,0,0,0-.64,8.09c.33,13.93,8,26.05,11.31,39.88,2.5,10.45-2.29,19.26-7.07,28.08-2.65,4.89-5.31,9.77-6.7,15,2.59,26.37,6.25,52.55,10.79,78.56,2.28,13,4.47,26,7.33,38.87,3.56,16,7.41,32,10.74,48.07,15.67,75.49,9.82,152.48-10,225.88-3.27,12.12-6.76,24.19-10.86,36-2.37,6.85-2.51,14.44-1.76,21.25,6.05,54.54,9.63,107.47,9.43,161.84,0,12.49.15,24.6.3,36.31.51,52.63,2.27,96.2,3.88,129.4,1.5,31.1,0,49.33.85,52.7"/><path class="cls-2" d="M251.74-22.94v78c0,12.65.3,26.75,0,42.21-.4,20.22,15.48,32.55,18.94,51.78.92,5.08.91,10.27-.79,14.59-5.91,15.06-18.15,27.65-18.15,45.85v503c0,7.66,0,15.35-.08,23.09a667.71,667.71,0,0,0,0,94.57c.08,7.87.09,15.78.09,23.75,0,50.28-1.58,102,0,155a216.78,216.78,0,0,0,2.25,25.86c8,26.29,8.8,53.2-.07,78.53a139.34,139.34,0,0,0-2.18,26.17c0,3.77,0,7.55,0,11.33q0,19.43,0,39.06c0,21.05,3.14,42.24,1.25,63.33-2.11,24,1.05,48.19,1.68,71.64,1.06,34.4-3.26,68.84-2.94,103.86.12,13.36,0,26.77,0,40.21v537.2q0,13.92.11,27.84c0,3.58.1,7.14.31,10.68,1.65,29.25,8.7,57.38,12.1,86.44.89,7.61,2.2,15.24,3.19,22.94a124.27,124.27,0,0,1,.76,30c-3.43,32.12-13.69,63.13-16,94.83-.53,7.15-.58,14.32-.44,21.56.33,16.42,0,32.83,0,49.23v452.16c0,29.11.69,58.06-.37,86.54-.74,20.06-3.28,40-3.67,60.06-1.5,76-16.13,154.89-19.36,231.13-.54,12.75-.61,25.45-.48,38.12.22,20.75,3.42,41.81,6.17,62.35,2.31,17.26,4.16,34.15,3.5,50.19-.29,6.92-.71,14-1.24,21.11s-.78,14.53-1.78,21.84a50.43,50.43,0,0,0-.63,8.08c.32,13.89,7.88,26,11.09,39.8,2.45,10.42-2.26,19.22-7,28-2.61,4.88-5.23,9.77-6.61,14.95,2.53,26.3,6.11,52.43,10.56,78.38,2.23,13,4.39,26,7.19,38.78,3.5,16,7.27,31.93,10.55,48,15.39,75.3,9.62,152.09-9.93,225.35-3.23,12.1-6.66,24.14-10.7,36-2.34,6.83-2.48,14.4-1.74,21.2,5.85,54.51,9.3,107.44,9.12,161.78,0,12.48.16,24.58.32,36.29.55,52.45,2.41,96,4.13,129.32,1.6,30.87,0,49.09.92,52.68"/><path class="cls-2" d="M271.66-23.79v78.2c0,12.68.3,26.81,0,42.31-.39,20.2,15.22,32.69,18.63,52,.9,5.09.89,10.29-.78,14.62-5.81,15.12-17.85,27.83-17.85,46V713.46c0,7.68,0,15.38-.09,23.14a633.64,633.64,0,0,0,0,94.76c.1,7.89.1,15.82.1,23.8,0,50.4-1.56,102.27,0,155.35a221.86,221.86,0,0,0,2.21,25.92c7.88,26.35,8.66,53.32-.07,78.74a143.39,143.39,0,0,0-2.14,26.23c0,3.78,0,7.56,0,11.35q0,19.49,0,39.16c0,21.09,3.34,42.32,1.33,63.45-2.24,24.09,1.12,48.32,1.79,71.78,1.12,34.48-3.47,69-3.13,104.07.13,13.39,0,26.83,0,40.3v511.31q0,13.54,0,27.09,0,14,.1,27.9c0,3.58.11,7.15.31,10.7,1.66,29.31,8.65,57.51,11.92,86.66.86,7.62,2.17,15.27,3.17,23,1.34,10.27,1.9,19.81.8,30.09-3.41,32-13.58,63-15.88,94.6-.52,7.13-.57,14.29-.43,21.5.32,16.34,0,32.68,0,49v451c0,29.05.68,57.92-.36,86.33-.73,20-3.23,39.93-3.62,59.91-1.47,75.83-15.85,154.54-19,230.57-.53,12.72-.6,25.39-.47,38,.22,20.71,3.36,41.71,6.07,62.2,2.26,17.22,4.09,34.07,3.43,50.09q-.42,10.37-1.21,21.06c-.52,7.18-.77,14.5-1.76,21.79a52.33,52.33,0,0,0-.61,8.06c.3,13.85,7.72,26,10.86,39.73,2.41,10.39-2.22,19.18-6.86,28-2.57,4.88-5.16,9.76-6.52,14.94,2.47,26.23,6,52.3,10.34,78.18,2.18,12.94,4.29,25.91,7,38.7,3.43,15.95,7.14,31.86,10.36,47.87,15.1,75.12,9.42,151.7-9.84,224.82-3.18,12.07-6.57,24.09-10.55,35.89-2.3,6.82-2.44,14.36-1.72,21.15,5.65,54.48,9,107.4,8.82,161.71,0,12.47.17,24.57.34,36.29.58,52.26,2.55,95.75,4.39,129.23,1.69,30.64,0,48.84,1,52.66"/><path class="cls-2" d="M291.58-24.64V53.74c0,12.7.29,26.86,0,42.4-.38,20.19,15,32.84,18.31,52.2.89,5.1.88,10.3-.76,14.66-5.71,15.17-17.55,28-17.55,46.25v505.2c0,7.69,0,15.42-.09,23.19a598.35,598.35,0,0,0,0,95c.1,7.91.1,15.85.1,23.86,0,50.51-1.53,102.49,0,155.68a227.17,227.17,0,0,0,2.18,26c7.74,26.41,8.5,53.44-.07,79a145.82,145.82,0,0,0-2.11,26.29c0,3.79,0,7.58,0,11.38q0,19.52,0,39.24c0,21.14,3.54,42.42,1.41,63.57-2.37,24.16,1.18,48.46,1.89,71.93,1.19,34.55-3.67,69.1-3.31,104.28.13,13.42,0,26.89,0,40.39V1986.6q0,13.58,0,27.15,0,14,.1,28c0,3.59.11,7.16.32,10.73,1.66,29.37,8.6,57.63,11.74,86.86.82,7.64,2.12,15.3,3.14,23,1.35,10.3,1.94,19.86.85,30.16-3.39,31.94-13.48,62.83-15.73,94.37-.52,7.11-.57,14.25-.43,21.45.32,16.26,0,32.52,0,48.76V2807c0,29,.67,57.77-.35,86.11-.73,20-3.18,39.84-3.56,59.76-1.45,75.69-15.58,154.18-18.7,230-.53,12.69-.6,25.32-.47,37.93.22,20.66,3.3,41.6,6,62,2.23,17.17,4,34,3.38,50q-.42,10.33-1.19,21c-.51,7.17-.76,14.46-1.73,21.74a51.91,51.91,0,0,0-.6,8c.29,13.82,7.56,25.93,10.64,39.66,2.37,10.36-2.2,19.15-6.77,27.95-2.53,4.88-5.07,9.75-6.41,14.92,2.39,26.17,5.82,52.17,10.1,78,2.14,12.91,4.21,25.84,6.91,38.61,3.36,15.91,7,31.8,10.15,47.77,14.82,74.93,9.22,151.31-9.74,224.28-3.13,12-6.47,24-10.39,35.83-2.26,6.81-2.4,14.32-1.71,21.1,5.46,54.45,8.67,107.37,8.53,161.65,0,12.46.17,24.55.35,36.27.62,52.08,2.7,95.53,4.65,129.16,1.77,30.4,0,48.58,1,52.62"/><path class="cls-2" d="M311.5-25.5V53.06c0,12.73.29,26.92,0,42.49-.38,20.18,14.7,33,18,52.42.87,5.11.86,10.31-.75,14.69-5.61,15.23-17.25,28.16-17.25,46.46V715.44c0,7.71,0,15.45-.1,23.24a571.31,571.31,0,0,0,0,95.14c.11,7.92.11,15.89.11,23.91,0,50.63-1.5,102.72,0,156a230.33,230.33,0,0,0,2.14,26c7.61,26.47,8.36,53.56-.07,79.15a149.44,149.44,0,0,0-2.07,26.36c0,3.79,0,7.6,0,11.4q0,19.56,0,39.33c0,21.19,3.74,42.52,1.49,63.7-2.5,24.23,1.2,48.59,2,72.06,1.18,34.63-3.87,69.25-3.5,104.5.14,13.45,0,27,0,40.48v513.59q0,13.59,0,27.2,0,14,.11,28c0,3.59.11,7.18.31,10.75,1.67,29.44,8.56,57.76,11.56,87.07.79,7.66,2.09,15.34,3.11,23.1,1.36,10.31,2,19.9.9,30.22-3.37,31.86-13.36,62.68-15.58,94.14-.5,7.1-.55,14.22-.42,21.4.31,16.18,0,32.36,0,48.51v448.76c0,28.9.66,57.63-.35,85.9-.71,19.91-3.11,39.74-3.49,59.61-1.43,75.55-15.31,153.83-18.38,229.45-.52,12.65-.59,25.26-.46,37.83.21,20.61,3.25,41.51,5.86,61.9,2.19,17.14,3.95,33.92,3.32,49.89-.27,6.87-.67,13.87-1.17,21s-.75,14.43-1.7,21.68a54.38,54.38,0,0,0-.6,8c.29,13.78,7.41,25.89,10.43,39.59,2.32,10.32-2.17,19.1-6.67,27.9-2.49,4.87-5,9.75-6.32,14.9,2.33,26.11,5.68,52.05,9.87,77.82,2.09,12.88,4.12,25.78,6.77,38.52,3.29,15.88,6.86,31.73,10,47.67,14.53,74.75,9,150.92-9.65,223.75-3.09,12-6.37,24-10.23,35.76-2.23,6.79-2.36,14.28-1.69,21.05a1594.78,1594.78,0,0,1,8.22,161.59c0,12.44.18,24.53.37,36.25.65,51.89,2.84,95.32,4.91,129.08,1.85,30.17,0,48.33,1.09,52.6"/><path class="cls-2" d="M331.42-26.35V52.38c0,12.76.29,27,0,42.59-.37,20.17,14.44,33.13,17.69,52.63.85,5.11.85,10.33-.74,14.73-5.51,15.28-16.95,28.33-16.95,46.66V716.42c0,7.73,0,15.49-.1,23.3a544.86,544.86,0,0,0,0,95.33c.11,7.94.11,15.92.11,24,0,50.74-1.47,103,0,156.38a238.41,238.41,0,0,0,2.1,26.11c7.48,26.53,8.22,53.68-.06,79.36a152,152,0,0,0-2,26.42c0,3.8,0,7.61,0,11.43q0,19.59,0,39.41c0,21.23,3.94,42.61,1.57,63.83-2.63,24.29,1.27,48.72,2.11,72.2,1.24,34.71-4.08,69.38-3.69,104.71.15,13.48,0,27,0,40.57v514.72q0,13.63,0,27.27c0,9.36,0,18.72.11,28.08,0,3.61.11,7.2.31,10.78,1.67,29.5,8.51,57.89,11.39,87.29.75,7.67,2.05,15.37,3.08,23.15,1.37,10.32,2,20,.94,30.28-3.35,31.77-13.25,62.53-15.42,93.91-.5,7.08-.55,14.18-.41,21.34.3,16.11,0,32.2,0,48.28v447.63c0,28.82.65,57.48-.34,85.68-.7,19.86-3.06,39.64-3.43,59.46-1.41,75.41-15,153.47-18.06,228.88-.51,12.63-.58,25.21-.45,37.74.21,20.57,3.19,41.41,5.75,61.75,2.16,17.1,3.89,33.85,3.27,49.79-.27,6.86-.66,13.84-1.15,20.9s-.74,14.39-1.67,21.63a54,54,0,0,0-.59,8c.27,13.76,7.23,25.86,10.21,39.52,2.24,10.3-2.15,19.07-6.57,27.86-2.45,4.87-4.92,9.74-6.23,14.89,2.27,26,5.54,51.92,9.64,77.63,2.05,12.85,4,25.72,6.63,38.43,3.23,15.84,6.73,31.66,9.77,47.57,14.24,74.56,8.82,150.53-9.56,223.21-3,12-6.27,23.95-10.07,35.7-2.19,6.78-2.32,14.24-1.68,21,5.21,54.37,8,107.3,7.92,161.52,0,12.44.2,24.52.4,36.24.68,51.71,3,95.1,5.16,129,1.93,29.93,0,48.08,1.14,52.58"/><path class="cls-2" d="M351.34-27.2V51.7c0,12.79.28,27.05,0,42.68-.36,20.17,14.18,33.28,17.37,52.85.84,5.12.84,10.34-.72,14.77-5.41,15.33-16.65,28.49-16.65,46.86V717.41c0,7.75,0,15.52-.1,23.35a520.06,520.06,0,0,0,0,95.52c.12,8,.12,16,.12,24,0,50.85-1.45,103.18,0,156.72a241.48,241.48,0,0,0,2.07,26.16c7.34,26.61,8.06,53.81-.07,79.58a156.71,156.71,0,0,0-2,26.47c0,3.82,0,7.64,0,11.46q0,19.65,0,39.5c0,21.28,4.14,42.71,1.65,64-2.76,24.37,1.33,48.85,2.21,72.35,1.31,34.78-4.28,69.51-3.87,104.92.16,13.51,0,27.07,0,40.66v515.86q0,13.65,0,27.32c0,9.38,0,18.76.11,28.15,0,3.61.12,7.21.32,10.8,1.67,29.57,8.46,58,11.2,87.5.72,7.69,2,15.41,3,23.2,1.39,10.35,2.09,20,1,30.35-3.34,31.69-13.14,62.37-15.28,93.68-.49,7.06-.53,14.15-.4,21.29.29,16,0,32,0,48v446.5c0,28.75.64,57.32-.33,85.46-.69,19.81-3,39.55-3.37,59.31-1.38,75.27-14.78,153.12-17.74,228.32-.5,12.6-.57,25.14-.44,37.65.2,20.52,3.13,41.3,5.65,61.59,2.12,17.06,3.82,33.77,3.21,49.7-.27,6.84-.65,13.8-1.13,20.84s-.72,14.36-1.64,21.58a55,55,0,0,0-.58,8c.26,13.72,7.07,25.82,10,39.45,2.19,10.26-2.12,19-6.47,27.81-2.42,4.87-4.85,9.73-6.13,14.87,2.2,26,5.39,51.8,9.4,77.44,2,12.83,3.95,25.66,6.49,38.35,3.17,15.81,6.6,31.6,9.58,47.47,14,74.38,8.62,150.14-9.47,222.68-3,12-6.17,23.9-9.91,35.63-2.16,6.76-2.29,14.2-1.66,20.95,5,54.34,7.7,107.26,7.61,161.46,0,12.42.23,24.5.42,36.22.81,51.53,3.11,94.88,5.42,128.93,2,29.69,0,47.82,1.2,52.54"/><path class="cls-2" d="M371.26-28V51c0,12.81.28,27.1,0,42.77-.35,20.15,13.92,33.43,17.06,53.06.81,5.13.82,10.35-.71,14.8-5.3,15.39-16.35,28.66-16.35,47.06V718.4c0,7.77,0,15.56-.11,23.4a499.24,499.24,0,0,0,0,95.71c.12,8,.12,16,.12,24.07,0,51-1.42,103.41,0,157.07a247.59,247.59,0,0,0,2,26.22c7.21,26.67,7.92,53.93-.06,79.79a159.51,159.51,0,0,0-2,26.53c0,3.83,0,7.65,0,11.49q0,19.68,0,39.58c0,21.33,4.33,42.8,1.72,64.08-2.89,24.43,1.39,49,2.32,72.48,1.36,34.87-4.49,69.65-4.06,105.14.17,13.54,0,27.13,0,40.75v517q0,13.69,0,27.39c0,9.4,0,18.8.12,28.21,0,3.62.11,7.23.31,10.82,1.68,29.64,8.42,58.16,11,87.71.68,7.71,2,15.45,3,23.26,1.4,10.36,2.13,20,1,30.41-3.32,31.6-13,62.22-15.12,93.45-.49,7.05-.53,14.12-.4,21.24.29,15.94,0,31.88,0,47.8v445.36c0,28.68.63,57.18-.32,85.25-.68,19.76-3,39.45-3.31,59.16-1.36,75.14-14.51,152.76-17.42,227.76-.49,12.57-.56,25.08-.43,37.55.2,20.47,3.07,41.2,5.55,61.45,2.07,17,3.74,33.69,3.14,49.59q-.37,10.24-1.11,20.79c-.47,7.1-.7,14.32-1.61,21.52a56.13,56.13,0,0,0-.56,8c.24,13.68,6.91,25.78,9.76,39.37,2.15,10.23-2.09,19-6.37,27.77-2.37,4.86-4.77,9.72-6,14.86,2.13,25.91,5.25,51.66,9.17,77.25,2,12.79,3.86,25.6,6.35,38.26,3.1,15.77,6.46,31.53,9.38,47.37,13.68,74.19,8.43,149.75-9.37,222.14-2.94,11.95-6.07,23.86-9.75,35.57-2.13,6.75-2.25,14.16-1.65,20.9,4.88,54.31,7.38,107.23,7.32,161.4,0,12.41.23,24.48.43,36.2.85,51.35,3.25,94.66,5.68,128.85,2.09,29.46,0,47.57,1.25,52.52"/><path class="cls-2" d="M391.18-28.9V50.35c0,12.84.28,27.16,0,42.86-.34,20.15,13.66,33.58,16.74,53.28.8,5.14.81,10.37-.7,14.84-5.19,15.44-16,28.82-16,47.26v510.8c0,7.78,0,15.59-.11,23.45a480.17,480.17,0,0,0,0,95.9c.13,8,.13,16,.13,24.13,0,51.08-1.39,103.63,0,157.41a251.26,251.26,0,0,0,2,26.28c7.07,26.73,7.77,54-.07,80a163.71,163.71,0,0,0-1.93,26.6c0,3.83,0,7.67,0,11.51q0,19.72,0,39.67c0,21.38,4.48,42.89,1.8,64.21-3.08,24.49,1.46,49.11,2.42,72.62,1.43,34.94-4.69,69.78-4.24,105.34.18,13.58,0,27.2,0,40.85v518.13q0,13.71,0,27.45c0,9.41,0,18.84.12,28.27,0,3.62.12,7.24.32,10.84,1.68,29.7,8.37,58.29,10.85,87.92.64,7.73,1.93,15.49,3,23.31,1.4,10.38,2.17,20.09,1.08,30.48-3.3,31.51-12.91,62.07-15,93.22-.47,7-.52,14.08-.39,21.18.28,15.87,0,31.73,0,47.57V2820c0,28.6.62,57-.32,85-.66,19.71-2.9,39.35-3.25,59-1.33,75-14.24,152.41-17.09,227.2-.48,12.53-.55,25-.43,37.45.2,20.43,3,41.1,5.45,61.3,2,17,3.68,33.62,3.09,49.49q-.37,10.23-1.09,20.74c-.47,7.09-.69,14.28-1.58,21.47a57.18,57.18,0,0,0-.55,7.93c.23,13.65,6.75,25.74,9.54,39.31,2.1,10.19-2.06,18.95-6.27,27.72-2.33,4.86-4.69,9.72-5.94,14.84,2.07,25.85,5.11,51.54,8.94,77.07,1.92,12.76,3.78,25.54,6.21,38.17,3,15.74,6.33,31.46,9.19,47.26,13.39,74,8.22,149.37-9.29,221.62-2.89,11.93-6,23.81-9.58,35.49-2.09,6.75-2.22,14.14-1.63,20.86,4.72,54.27,7.06,107.19,7,161.33,0,12.4.24,24.47.45,36.19.89,51.17,3.38,94.44,5.93,128.77,2.17,29.23,0,47.33,1.32,52.5"/><path class="cls-2" d="M411.11-29.75V49.67c0,12.87.26,27.22,0,43-.35,20.14,13.39,33.72,16.42,53.49.78,5.14.79,10.38-.69,14.88-5.09,15.49-15.73,29-15.73,47.46V720.38c0,7.8,0,15.62-.13,23.5a461.38,461.38,0,0,0,0,96.1c.13,8,.14,16,.14,24.17,0,51.19-1.37,103.87,0,157.76a257.74,257.74,0,0,0,1.95,26.34c6.94,26.79,7.62,54.17-.06,80.2a165.48,165.48,0,0,0-1.89,26.66c0,3.84,0,7.68,0,11.53q0,19.78,0,39.77c0,21.42,4.67,43,1.88,64.33-3.21,24.55,1.52,49.24,2.53,72.76,1.49,35-4.9,69.92-4.42,105.55.18,13.61,0,27.26,0,40.94v546.77c0,9.44,0,18.88.13,28.33,0,3.64.11,7.26.31,10.87,1.69,29.77,8.32,58.42,10.67,88.14.61,7.75,1.89,15.52,3,23.36,1.42,10.39,2.22,20.14,1.14,30.54-3.29,31.43-12.81,61.92-14.82,93-.47,7-.51,14-.39,21.12.28,15.78,0,31.56,0,47.33v443.09c0,28.53.6,56.89-.32,84.82-.65,19.66-2.84,39.25-3.19,58.86-1.31,74.86-14,152.05-16.77,226.64-.47,12.5-.53,24.95-.42,37.36.2,20.38,3,41,5.35,61.14,2,16.94,3.61,33.54,3,49.4-.25,6.79-.61,13.7-1.07,20.68s-.68,14.25-1.55,21.41a58.57,58.57,0,0,0-.54,7.92c.21,13.61,6.59,25.7,9.32,39.23,2.05,10.17-2,18.92-6.17,27.68-2.3,4.86-4.62,9.71-5.85,14.83,2,25.78,5,51.41,8.72,76.88,1.87,12.73,3.68,25.48,6.07,38.08,3,15.71,6.19,31.4,9,47.16,13.1,73.83,8,149-9.2,221.08-2.84,11.91-5.86,23.76-9.43,35.43-2.05,6.73-2.17,14.1-1.61,20.81,4.56,54.24,6.74,107.16,6.71,161.27,0,12.39.25,24.45.47,36.17.92,51,3.52,94.22,6.19,128.69,2.25,29,0,47.08,1.37,52.47"/><path class="cls-2" d="M431-30.6V49c0,12.9.26,27.28,0,43.06-.34,20.12,13.13,33.86,16.1,53.7.77,5.15.78,10.39-.67,14.91-5,15.55-15.43,29.16-15.43,47.67v513c0,7.81,0,15.65-.13,23.55a444.7,444.7,0,0,0,0,96.29c.13,8,.14,16.09.14,24.22,0,51.31-1.35,104.1,0,158.1a264.55,264.55,0,0,0,1.91,26.41c6.81,26.85,7.48,54.29-.06,80.41a169.72,169.72,0,0,0-1.85,26.72c0,3.85,0,7.7,0,11.56q0,19.81,0,39.85c0,21.47,4.87,43.07,2,64.45-3.35,24.62,1.59,49.37,2.63,72.9,1.56,35.1-5.1,70.06-4.6,105.77.18,13.64,0,27.32,0,41v548c0,9.46,0,18.92.13,28.39,0,3.64.11,7.27.32,10.89,1.69,29.84,8.27,58.55,10.49,88.35.58,7.77,1.85,15.56,2.93,23.42,1.43,10.41,2.26,20.18,1.18,30.6-3.27,31.34-12.69,61.76-14.67,92.77-.46,7-.5,14-.38,21.06.27,15.71,0,31.41,0,47.09v442c0,28.46.59,56.74-.31,84.6-.64,19.61-2.79,39.16-3.13,58.72-1.29,74.71-13.7,151.69-16.45,226.07-.46,12.47-.52,24.88-.41,37.26.19,20.33,2.91,40.9,5.25,61,2,16.9,3.53,33.46,3,49.29-.25,6.78-.6,13.67-1.05,20.63s-.67,14.21-1.52,21.36a58.13,58.13,0,0,0-.53,7.9c.2,13.58,6.43,25.66,9.1,39.16,2,10.13-2,18.87-6.07,27.63-2.26,4.85-4.54,9.7-5.75,14.81,1.94,25.72,4.82,51.28,8.48,76.7,1.83,12.7,3.6,25.41,5.93,38,2.9,15.67,6,31.33,8.79,47.06,12.83,73.64,7.83,148.59-9.1,220.55-2.79,11.88-5.77,23.71-9.27,35.36-2,6.72-2.14,14.06-1.59,20.76,4.39,54.21,6.42,107.12,6.4,161.21,0,12.38.26,24.43.49,36.15,1,50.81,3.66,94,6.45,128.62,2.32,28.76,0,46.82,1.43,52.44"/><path class="cls-2" d="M451-31.45V48.31c0,12.94.26,27.34,0,43.15-.33,20.12,12.87,34,15.79,53.92.75,5.16.76,10.41-.66,15C461.19,175.92,451,189.65,451,208.19V722.35c0,7.84,0,15.7-.13,23.61a428.72,428.72,0,0,0,0,96.48c.14,8,.15,16.12.15,24.28,0,51.42-1.32,104.32,0,158.44.21,8.76.78,17.52,1.88,26.47,6.67,26.91,7.33,54.4-.06,80.62A174.15,174.15,0,0,0,451,1159c0,3.85,0,7.72,0,11.58q0,19.86,0,39.94c0,21.52,5.06,43.17,2,64.58-3.48,24.68,1.65,49.5,2.74,73,1.62,35.17-5.31,70.19-4.79,106,.19,13.67,0,27.38,0,41.12v549.16c0,9.48,0,19,.13,28.46,0,3.65.12,7.29.32,10.92,1.69,29.89,8.23,58.67,10.31,88.55.55,7.79,1.81,15.6,2.9,23.47,1.45,10.43,2.32,20.23,1.23,30.67-3.25,31.26-12.58,61.61-14.51,92.54-.45,7-.49,14-.38,21,.27,15.63,0,31.25,0,46.85v440.84c0,28.38.58,56.59-.31,84.38-.62,19.56-2.73,39.06-3.06,58.57-1.26,74.57-13.43,151.34-16.13,225.51-.45,12.43-.51,24.82-.4,37.16.19,20.29,2.85,40.8,5.14,60.85,1.92,16.86,3.47,33.39,2.92,49.19q-.36,10.16-1,20.58c-.45,7-.66,14.18-1.49,21.31a61.08,61.08,0,0,0-.53,7.87c.19,13.55,6.28,25.63,8.88,39.09,2,10.1-2,18.84-6,27.59-2.21,4.85-4.46,9.7-5.65,14.8,1.88,25.65,4.68,51.15,8.25,76.5,1.78,12.68,3.51,25.36,5.79,37.91,2.84,15.64,5.92,31.26,8.6,47,12.54,73.46,7.63,148.2-9,220-2.74,11.86-5.67,23.67-9.11,35.3-2,6.71-2.1,14-1.58,20.71,4.23,54.17,6.1,107.09,6.1,161.14,0,12.37.28,24.42.51,36.14,1,50.63,3.79,93.78,6.71,128.54,2.4,28.53,0,46.57,1.49,52.41"/><path class="cls-2" d="M470.87-32.3V47.64c0,13,.25,27.4,0,43.24C470.55,111,483.48,125,486.34,145c.74,5.17.76,10.42-.64,15-4.79,15.64-14.83,29.48-14.83,48.06V723.34c0,7.86,0,15.73-.14,23.66a415.07,415.07,0,0,0,0,96.67c.14,8.05.15,16.16.15,24.33,0,51.54-1.29,104.55,0,158.79.21,8.77.77,17.57,1.84,26.53,6.54,27,7.18,54.52-.06,80.82a179,179,0,0,0-1.78,26.85c0,3.86,0,7.73,0,11.61q0,19.89,0,40c0,21.57,5.26,43.26,2.12,64.71-3.62,24.75,1.72,49.63,2.84,73.18,1.69,35.24-5.5,70.32-5,106.19.2,13.7,0,27.44,0,41.21v550.36c0,9.5,0,19,.14,28.52,0,3.65.11,7.3.32,10.94,1.69,30,8.17,58.8,10.13,88.76.51,7.81,1.77,15.64,2.87,23.53,1.45,10.44,2.36,20.27,1.28,30.73-3.23,31.17-12.47,61.46-14.37,92.31-.44,7-.48,13.93-.37,21,.26,15.55,0,31.09,0,46.61v439.7c0,28.31.57,56.45-.3,84.17-.61,19.52-2.68,39-3,58.42-1.24,74.44-13.17,151-15.81,224.94-.44,12.41-.5,24.76-.39,37.08.18,20.24,2.79,40.69,5,60.69,1.88,16.82,3.4,33.32,2.85,49.1q-.35,10.13-1,20.52c-.44,7-.64,14.14-1.46,21.25a60.88,60.88,0,0,0-.52,7.86c.18,13.51,6.11,25.58,8.66,39,1.91,10.06-1.95,18.8-5.87,27.54-2.18,4.85-4.38,9.69-5.56,14.78,1.81,25.59,4.54,51,8,76.32,1.74,12.64,3.43,25.3,5.65,37.82,2.77,15.6,5.79,31.2,8.41,46.86,12.25,73.27,7.43,147.81-8.92,219.48-2.7,11.83-5.57,23.62-8.95,35.23-2,6.69-2.06,14-1.56,20.66,4.06,54.14,5.77,107,5.8,161.08,0,12.36.28,24.4.52,36.13,1,50.44,3.92,93.55,7,128.45,2.47,28.3,0,46.32,1.54,52.39"/><path class="cls-2" d="M490.79-33.15V47c0,13,.25,27.46,0,43.33-.32,20.1,12.35,34.31,15.16,54.35.72,5.17.74,10.43-.63,15-4.69,15.7-14.53,29.66-14.53,48.27v516.4c0,7.87,0,15.76-.14,23.71a402.37,402.37,0,0,0,0,96.86c.16,8.07.16,16.19.16,24.38,0,51.65-1.26,104.78,0,159.14.2,8.79.75,17.61,1.8,26.59,6.41,27,7,54.64,0,81a182.43,182.43,0,0,0-1.75,26.9c0,3.88,0,7.76,0,11.64q0,20,0,40.11c0,21.61,5.44,43.36,2.19,64.84-3.76,24.81,1.78,49.76,2.95,73.31,1.75,35.33-5.71,70.46-5.16,106.41.21,13.73,0,27.5,0,41.3v523.8q0,13.88,0,27.75c0,9.53,0,19.05.13,28.58,0,3.67.12,7.32.32,11,1.7,30,8.13,58.93,9.95,89,.48,7.82,1.74,15.66,2.85,23.57,1.46,10.47,2.4,20.33,1.32,30.8-3.21,31.08-12.36,61.31-14.21,92.08-.44,6.94-.48,13.9-.36,20.9.25,15.47,0,30.93,0,46.38v438.57c0,28.23.56,56.29-.29,84-.6,19.47-2.63,38.86-2.94,58.27-1.22,74.3-12.9,150.63-15.49,224.38-.43,12.38-.49,24.7-.38,37,.18,20.19,2.73,40.6,4.93,60.55,1.85,16.77,3.34,33.23,2.8,49-.23,6.73-.56,13.57-1,20.47s-.62,14.11-1.43,21.2a64.09,64.09,0,0,0-.5,7.83c.17,13.48,5.95,25.55,8.44,38.95,1.86,10-1.93,18.76-5.77,27.5-2.14,4.85-4.31,9.68-5.47,14.77,1.75,25.52,4.4,50.9,7.79,76.13,1.7,12.61,3.34,25.23,5.51,37.73,2.71,15.57,5.65,31.13,8.21,46.76,12,73.09,7.23,147.42-8.82,218.94-2.65,11.81-5.47,23.58-8.79,35.17-1.91,6.68-2,13.94-1.55,20.61,3.9,54.11,5.46,107,5.5,161,0,12.34.29,24.38.54,36.11,1.07,50.26,4.05,93.33,7.23,128.38,2.54,28.06,0,46.06,1.6,52.36"/><path class="cls-2" d="M510.71-34V46.28c0,13,.25,27.52,0,43.43-.31,20.09,12.09,34.45,14.84,54.56.71,5.18.73,10.45-.62,15.06-4.58,15.75-14.22,29.82-14.22,48.47V725.32c0,7.89,0,15.79-.15,23.76a389.58,389.58,0,0,0,0,97c.16,8.09.16,16.23.16,24.44,0,51.76-1.23,105,0,159.48.2,8.81.74,17.65,1.77,26.65,6.27,27.1,6.89,54.76-.06,81.24a187.44,187.44,0,0,0-1.71,27c0,3.88,0,7.77,0,11.67q0,20,0,40.19c0,21.66,5.64,43.45,2.27,65-3.89,24.88,1.85,49.89,3,73.46,1.82,35.4-5.91,70.59-5.34,106.62.22,13.76,0,27.56,0,41.39v524.94q0,13.9,0,27.81c0,9.54,0,19.09.13,28.64,0,3.67.12,7.34.33,11,1.7,30.09,8.08,59.06,9.77,89.19.44,7.84,1.69,15.7,2.81,23.63,1.48,10.48,2.45,20.37,1.37,30.86-3.19,31-12.24,61.16-14.06,91.85-.42,6.92-.46,13.86-.35,20.85.24,15.39,0,30.77,0,46.14v437.43c0,28.17.55,56.15-.28,83.74-.59,19.42-2.57,38.77-2.89,58.12-1.19,74.16-12.62,150.27-15.15,223.82-.43,12.35-.49,24.63-.38,36.88.17,20.15,2.68,40.5,4.83,60.4,1.81,16.74,3.26,33.16,2.74,48.89-.22,6.72-.55,13.54-1,20.42s-.61,14.07-1.4,21.14a63.88,63.88,0,0,0-.49,7.82c.15,13.44,5.8,25.51,8.22,38.88,1.81,10-1.9,18.72-5.68,27.45-2.09,4.84-4.22,9.68-5.36,14.75,1.68,25.46,4.25,50.77,7.55,76,1.65,12.58,3.26,25.17,5.38,37.64,2.64,15.54,5.51,31.06,8,46.66,11.69,72.9,7,147-8.73,218.41-2.6,11.78-5.37,23.52-8.63,35.1-1.88,6.67-2,13.91-1.53,20.56,3.73,54.08,5.13,107,5.19,160.95,0,12.34.3,24.37.56,36.1,1.1,50.08,4.18,93.12,7.48,128.3,2.61,27.82,0,45.82,1.66,52.33"/><path class="cls-2" d="M530.63-34.86V45.6c0,13,.24,27.58,0,43.53-.3,20.07,11.84,34.59,14.53,54.77a37.85,37.85,0,0,1-.61,15.1c-4.48,15.8-13.92,30-13.92,48.67V726.31c0,7.9,0,15.83-.15,23.8a378.64,378.64,0,0,0,0,97.25c.17,8.1.17,16.26.17,24.49,0,51.88-1.21,105.24,0,159.83.2,8.83.72,17.69,1.73,26.71,6.14,27.16,6.74,54.88-.05,81.45a192.7,192.7,0,0,0-1.68,27c0,3.89,0,7.79,0,11.69q0,20,0,40.28c0,21.71,5.83,43.54,2.35,65.09-4,24.94,1.91,50,3.16,73.6,1.88,35.47-6.12,70.73-5.53,106.83.23,13.79,0,27.62,0,41.48V2031.9q0,13.93,0,27.88c0,9.56,0,19.12.14,28.7,0,3.68.12,7.35.32,11,1.71,30.16,8,59.19,9.6,89.4.4,7.86,1.65,15.74,2.78,23.68,1.49,10.5,2.49,20.42,1.41,30.93-3.17,30.91-12.13,61-13.91,91.62-.41,6.9-.45,13.83-.34,20.79.24,15.32,0,30.62,0,45.9v436.31c0,28.09.54,56-.28,83.52-.57,19.37-2.51,38.67-2.82,58-1.16,74-12.36,149.92-14.83,223.26-.42,12.31-.48,24.57-.37,36.79.17,20.1,2.62,40.39,4.73,60.24,1.77,16.7,3.19,33.09,2.68,48.8-.22,6.7-.54,13.5-1,20.36s-.6,14-1.37,21.09a65.29,65.29,0,0,0-.48,7.8c.14,13.41,5.64,25.47,8,38.8,1.76,10-1.88,18.69-5.58,27.41-2.06,4.84-4.15,9.67-5.27,14.74,1.62,25.39,4.11,50.64,7.32,75.76,1.61,12.55,3.17,25.11,5.24,37.55,2.57,15.5,5.38,31,7.82,46.56,11.4,72.72,6.83,146.64-8.64,217.88-2.56,11.76-5.27,23.47-8.47,35-1.85,6.65-2,13.87-1.52,20.51,3.57,54,4.82,106.94,4.89,160.89,0,12.32.31,24.35.58,36.08,1.14,49.9,4.31,92.9,7.74,128.22,2.68,27.59,0,45.57,1.72,52.31"/><path class="cls-2" d="M550.55-35.71V44.93c0,13.07.24,27.63,0,43.61-.29,20.07,11.58,34.74,14.21,55a38.77,38.77,0,0,1-.59,15.13c-4.38,15.86-13.62,30.16-13.62,48.87V727.3c0,7.92,0,15.86-.15,23.85a367.91,367.91,0,0,0,0,97.44c.17,8.12.17,16.3.17,24.54,0,52-1.18,105.47,0,160.18.19,8.85.71,17.73,1.69,26.76,6,27.23,6.6,55,0,81.66a200.06,200.06,0,0,0-1.64,27.09c0,3.9,0,7.8,0,11.71q0,20.07,0,40.38c0,21.75,6,43.63,2.43,65.21-4.17,25,2,50.15,3.26,73.73,2,35.56-6.32,70.87-5.71,107.05.24,13.82,0,27.68,0,41.57v527.21q0,14,0,27.93c0,9.59,0,19.17.14,28.77,0,3.68.12,7.36.33,11,1.71,30.23,8,59.32,9.41,89.62.37,7.87,1.62,15.77,2.75,23.73,1.5,10.52,2.55,20.47,1.47,31-3.16,30.83-12,60.85-13.76,91.39-.41,6.89-.45,13.79-.34,20.74.23,15.23,0,30.46,0,45.66v435.18c0,28,.53,55.85-.27,83.3-.56,19.32-2.46,38.57-2.76,57.82-1.14,73.89-12.09,149.56-14.51,222.7-.41,12.28-.47,24.51-.36,36.69.16,20.05,2.56,40.29,4.62,60.1,1.73,16.65,3.13,33,2.62,48.69q-.32,10-.92,20.31c-.4,7-.59,14-1.34,21a64.75,64.75,0,0,0-.47,7.77c.12,13.38,5.48,25.43,7.77,38.74,1.72,9.93-1.84,18.64-5.47,27.36-2,4.84-4.08,9.66-5.18,14.72,1.55,25.33,4,50.52,7.09,75.57,1.57,12.53,3.08,25.06,5.1,37.48,2.51,15.46,5.24,30.92,7.62,46.45,11.12,72.53,6.64,146.25-8.54,217.34-2.51,11.74-5.17,23.43-8.32,35-1.8,6.64-1.91,13.83-1.49,20.45,3.4,54,4.49,106.92,4.59,160.84,0,12.31.31,24.33.59,36.06,1.17,49.71,4.44,92.68,8,128.15,2.75,27.35,0,45.31,1.77,52.28"/><path class="cls-2" d="M570.47-36.56V44.25c0,13.1.23,27.69,0,43.71-.29,20.06,11.32,34.88,13.9,55.21a39.93,39.93,0,0,1-.58,15.16c-4.28,15.91-13.32,30.32-13.32,49.07V728.28c0,7.94,0,15.9-.16,23.91a357.85,357.85,0,0,0,0,97.63c.18,8.14.18,16.33.18,24.6,0,52.11-1.15,105.69,0,160.52.19,8.87.69,17.77,1.66,26.82,5.87,27.29,6.45,55.13-.06,81.87a205.84,205.84,0,0,0-1.6,27.15c0,3.91,0,7.82,0,11.74q0,20.12,0,40.46c0,21.8,6.22,43.72,2.51,65.34-4.3,25.07,2,50.28,3.37,73.87,2,35.63-6.53,71-5.9,107.26.24,13.85,0,27.74,0,41.66v528.35q0,14,0,28c0,9.6,0,19.21.14,28.82,0,3.7.12,7.39.33,11.06,1.71,30.29,7.94,59.45,9.24,89.83a237.38,237.38,0,0,0,2.72,23.79c1.51,10.53,2.59,20.51,1.51,31.05-3.14,30.74-11.91,60.7-13.61,91.16-.39,6.87-.43,13.76-.33,20.69.23,15.15,0,30.29,0,45.42v434c0,27.94.51,55.71-.26,83.09-.55,19.27-2.41,38.48-2.7,57.67-1.12,73.75-11.82,149.21-14.19,222.14-.4,12.25-.45,24.44-.35,36.59.16,20,2.5,40.19,4.52,59.95,1.69,16.62,3,32.93,2.56,48.59q-.31,10-.9,20.26c-.39,6.94-.58,14-1.31,21a69.13,69.13,0,0,0-.47,7.76c.12,13.34,5.33,25.39,7.56,38.66,1.67,9.9-1.81,18.61-5.37,27.32a88.63,88.63,0,0,0-5.09,14.71c1.49,25.26,3.83,50.38,6.87,75.38,1.51,12.49,3,25,4.95,37.39,2.45,15.42,5.11,30.85,7.43,46.35,10.84,72.35,6.44,145.86-8.45,216.81-2.46,11.71-5.08,23.38-8.16,34.9-1.77,6.62-1.88,13.79-1.48,20.4,3.24,54,4.17,106.88,4.29,160.77,0,12.3.32,24.32.61,36,1.21,49.53,4.57,92.46,8.26,128.07,2.81,27.12,0,45.06,1.83,52.25"/><path class="cls-2" d="M590.39-37.41v81c0,13.13.23,27.76,0,43.8-.28,20,11.06,35,13.58,55.43a41,41,0,0,1-.56,15.2c-4.19,16-13,30.48-13,49.27v522c0,8,0,15.93-.16,24a348.4,348.4,0,0,0,0,97.82c.18,8.16.18,16.37.18,24.65,0,52.22-1.12,105.93,0,160.86.19,8.9.68,17.82,1.62,26.89,5.74,27.36,6.31,55.25,0,82.08a210.24,210.24,0,0,0-1.57,27.21v11.76q0,20.16,0,40.55c0,21.85,6.41,43.82,2.59,65.46-4.44,25.14,2.11,50.41,3.47,74,2.07,35.7-6.73,71.13-6.08,107.47.25,13.88,0,27.8,0,41.75v529.48q0,14,0,28.05c0,9.63,0,19.25.15,28.89,0,3.7.12,7.4.33,11.08,1.71,30.36,7.89,59.58,9,90a229.47,229.47,0,0,0,2.7,23.84c1.52,10.55,2.61,20.56,1.55,31.12-3.17,30.65-11.79,60.55-13.45,90.93-.39,6.85-.43,13.72-.33,20.63.22,15.08,0,30.14,0,45.19v432.91c0,27.87.5,55.56-.26,82.87-.53,19.22-2.35,38.38-2.63,57.53-1.1,73.6-11.56,148.84-13.87,221.57-.39,12.21-.44,24.38-.35,36.5.16,20,2.45,40.09,4.42,59.79,1.66,16.58,3,32.86,2.51,48.5-.2,6.65-.5,13.4-.88,20.2s-.56,13.93-1.29,20.93a71,71,0,0,0-.45,7.74c.1,13.3,5.17,25.35,7.34,38.59,1.62,9.86-1.79,18.57-5.28,27.27a89.19,89.19,0,0,0-5,14.69c1.42,25.2,3.68,50.26,6.63,75.2,1.47,12.46,2.9,24.93,4.81,37.3,2.38,15.39,5,30.79,7.24,46.25,10.55,72.16,6.23,145.47-8.36,216.27-2.41,11.69-5,23.34-8,34.84-1.74,6.61-1.84,13.75-1.47,20.35,3.08,54,3.86,106.85,4,160.71,0,12.29.33,24.3.63,36,1.24,49.35,4.69,92.24,8.52,128,2.88,26.89,0,44.81,1.89,52.23"/><path class="cls-2" d="M610.32-38.26V42.89c0,13.16.22,27.82,0,43.9-.28,20,10.79,35.18,13.26,55.64a42.26,42.26,0,0,1-.55,15.23c-4.09,16-12.71,30.65-12.71,49.48V730.26c0,8,0,16-.18,24a339.53,339.53,0,0,0,0,98c.19,8.17.2,16.4.2,24.7,0,52.34-1.11,106.16,0,161.21.17,8.92.65,17.86,1.57,27,5.61,27.42,6.16,55.37,0,82.28a216.76,216.76,0,0,0-1.52,27.27c0,3.93,0,7.86,0,11.8q0,20.19,0,40.63c0,21.9,6.6,43.91,2.66,65.59-4.58,25.2,2.17,50.54,3.58,74.15,2.13,35.79-6.94,71.27-6.26,107.69.25,13.91,0,27.86,0,41.84v558.73c0,9.64,0,19.29.15,29,0,3.71.12,7.41.33,11.11,1.72,30.42,7.85,59.7,8.88,90.24.27,7.94,1.5,15.89,2.66,23.9,1.54,10.56,2.67,20.6,1.61,31.18-3.15,30.56-11.69,60.39-13.31,90.71-.38,6.83-.41,13.68-.32,20.57.22,15,0,30,0,44.95V2848.5c0,27.8.48,55.42-.26,82.66-.52,19.17-2.29,38.28-2.57,57.38-1.07,73.46-11.29,148.49-13.55,221-.38,12.18-.43,24.31-.34,36.4.16,19.91,2.4,40,4.32,59.64,1.62,16.54,2.92,32.79,2.45,48.4-.2,6.64-.49,13.37-.87,20.15S599,3388,598.25,3395a70.36,70.36,0,0,0-.44,7.71c.09,13.27,5,25.31,7.12,38.52,1.57,9.83-1.76,18.53-5.18,27.23a91.6,91.6,0,0,0-4.89,14.68c1.36,25.13,3.54,50.13,6.4,75,1.43,12.43,2.82,24.87,4.68,37.21,2.31,15.36,4.84,30.72,7,46.15,10.26,72,6,145.08-8.27,215.74-2.37,11.66-4.88,23.28-7.84,34.77-1.7,6.6-1.81,13.71-1.45,20.3,2.91,53.93,3.53,106.81,3.68,160.65,0,12.27.34,24.28.65,36,1.28,49.17,4.81,92,8.78,127.91,2.94,26.66,0,44.56,1.94,52.2"/><path class="cls-2" d="M630.24-39.11V42.21c0,13.19.21,27.88,0,44-.27,20,10.53,35.32,12.94,55.85a43.2,43.2,0,0,1-.54,15.27c-4,16.07-12.4,30.82-12.4,49.68V731.25c0,8,0,16-.18,24.06a331.16,331.16,0,0,0,0,98.2c.19,8.19.2,16.44.2,24.76,0,52.45-1.08,106.38,0,161.55.17,8.94.64,17.9,1.54,27,5.47,27.48,6,55.49,0,82.49a221.56,221.56,0,0,0-1.49,27.33c0,3.94,0,7.88,0,11.82q0,20.25,0,40.72c0,21.94,6.79,44,2.74,65.72-4.71,25.26,2.24,50.67,3.68,74.29,2.2,35.86-7.13,71.4-6.44,107.9.26,13.94,0,27.92,0,41.93V2079c0,9.67,0,19.34.15,29,0,3.71.13,7.42.34,11.13,1.72,30.48,7.79,59.83,8.7,90.46.23,8,1.45,15.92,2.63,23.94,1.55,10.59,2.71,20.65,1.65,31.25-3.12,30.48-11.57,60.24-13.15,90.48-.37,6.81-.41,13.64-.31,20.51.2,14.92,0,29.83,0,44.72V2851.1c0,27.72.47,55.27-.25,82.43-.51,19.13-2.24,38.19-2.51,57.24-1.05,73.32-11,148.13-13.23,220.44-.37,12.16-.42,24.26-.33,36.31.16,19.87,2.34,39.89,4.22,59.5,1.57,16.5,2.84,32.7,2.39,48.29q-.3,9.95-.85,20.1c-.36,6.89-.53,13.86-1.22,20.82a72.54,72.54,0,0,0-.43,7.7c.08,13.24,4.85,25.27,6.9,38.45,1.52,9.8-1.74,18.49-5.08,27.17a93.82,93.82,0,0,0-4.8,14.67q2,37.61,6.17,74.83c1.38,12.4,2.73,24.8,4.54,37.12,2.25,15.32,4.7,30.65,6.84,46,10,71.8,5.84,144.7-8.17,215.21-2.32,11.64-4.78,23.24-7.68,34.71-1.67,6.58-1.77,13.68-1.44,20.25,2.75,53.9,3.21,106.78,3.39,160.58,0,12.27.34,24.27.66,36,1.31,49,4.94,91.8,9,127.84,3,26.42,0,44.31,2,52.17"/><path class="cls-2" d="M650.16-40v81.5c0,13.21.21,27.93,0,44.08-.27,20,10.28,35.47,12.63,56.07a44.66,44.66,0,0,1-.53,15.31c-3.88,16.12-12.1,31-12.1,49.87V732.24c0,8,0,16-.18,24.11a323.59,323.59,0,0,0,0,98.39c.2,8.21.21,16.47.21,24.81,0,52.57-1,106.61,0,161.9.17,9,.62,17.94,1.5,27.07,5.34,27.54,5.87,55.6,0,82.7a228.59,228.59,0,0,0-1.45,27.39c0,3.94,0,7.89,0,11.85q0,20.28,0,40.8c0,22,7,44.1,2.82,65.85-4.85,25.33,2.3,50.8,3.79,74.43,2.26,35.93-7.34,71.54-6.63,108.11.27,14,0,28,0,42v561.12c0,9.69,0,19.37.16,29.07,0,3.73.12,7.45.33,11.16,1.73,30.55,7.75,60,8.52,90.67.2,8,1.42,16,2.6,24,1.56,10.6,2.76,20.7,1.7,31.31-3.09,30.4-11.46,60.09-13,90.25-.36,6.8-.4,13.61-.3,20.46.2,14.84,0,29.67,0,44.47v429.51c0,27.65.46,55.12-.24,82.22-.5,19.08-2.19,38.1-2.46,57.09-1,73.19-10.74,147.78-12.9,219.88-.36,12.12-.41,24.19-.32,36.22.15,19.82,2.28,39.78,4.11,59.34,1.54,16.46,2.78,32.63,2.33,48.19q-.28,9.93-.82,20c-.35,6.88-.52,13.83-1.19,20.77a74.66,74.66,0,0,0-.42,7.67c.06,13.21,4.69,25.24,6.67,38.38,1.48,9.77-1.7,18.46-5,27.13a96.56,96.56,0,0,0-4.71,14.66c1.23,25,3.26,49.87,5.94,74.63,1.34,12.38,2.65,24.75,4.4,37,2.18,15.29,4.57,30.59,6.65,45.94,9.7,71.62,5.64,144.31-8.09,214.68-2.26,11.61-4.67,23.19-7.51,34.64-1.64,6.57-1.74,13.64-1.42,20.2,2.58,53.87,2.89,106.74,3.08,160.52,0,12.25.36,24.25.68,36,1.35,48.81,5.06,91.58,9.29,127.76,3.07,26.19,0,44.06,2.06,52.15"/><path class="cls-2" d="M670.08-40.81V40.86c0,13.24.21,28,0,44.18-.26,20,10,35.61,12.31,56.28a45.87,45.87,0,0,1-.51,15.34c-3.78,16.18-11.8,31.15-11.8,50.08V733.23c0,8,0,16.06-.19,24.16a315.81,315.81,0,0,0,0,98.58c.2,8.23.21,16.51.21,24.86,0,52.68-1,106.85,0,162.25.16,9,.61,18,1.46,27.13,5.21,27.6,5.72,55.72,0,82.91a233.85,233.85,0,0,0-1.42,27.45c0,4,0,7.91,0,11.87q0,20.32,0,40.89c0,22,7.18,44.19,2.9,66-5,25.4,2.37,50.93,3.89,74.57,2.33,36-7.54,71.68-6.81,108.33.28,14,0,28,0,42.11v562.32c0,9.7,0,19.41.16,29.13,0,3.73.13,7.46.34,11.18,1.72,30.62,7.7,60.09,8.34,90.88.16,8,1.38,16,2.57,24,1.57,10.62,2.81,20.75,1.75,31.38-3.07,30.31-11.36,59.94-12.85,90-.36,6.78-.39,13.58-.3,20.41.19,14.76,0,29.5,0,44.23v428.38c0,27.58.45,55-.24,82-.48,19-2.13,38-2.39,56.94-1,73.05-10.48,147.42-12.58,219.32-.35,12.09-.4,24.13-.31,36.12.15,19.77,2.22,39.68,4,59.19,1.5,16.42,2.71,32.56,2.27,48.1q-.27,9.9-.8,20c-.35,6.86-.51,13.79-1.16,20.71-.25,2.62-.42,5.16-.41,7.66,0,13.17,4.53,25.2,6.45,38.31,1.43,9.73-1.68,18.41-4.88,27.08a97.34,97.34,0,0,0-4.6,14.64c1.16,24.94,3.11,49.75,5.7,74.45,1.3,12.35,2.56,24.69,4.26,36.95,2.12,15.26,4.44,30.52,6.46,45.84,9.41,71.43,5.44,143.92-8,214.14-2.21,11.6-4.57,23.15-7.36,34.57-1.59,6.57-1.69,13.61-1.4,20.16,2.42,53.84,2.57,106.71,2.78,160.46,0,12.24.37,24.23.7,36,1.38,48.63,5.18,91.37,9.55,127.68,3.13,26,0,43.81,2.12,52.12"/><path class="cls-2" d="M690-41.66V40.18c0,13.27.2,28.05,0,44.27-.25,20,9.76,35.76,12,56.5a47.49,47.49,0,0,1-.5,15.38c-3.68,16.23-11.5,31.32-11.5,50.28v527.6c0,8,0,16.11-.19,24.22a308.76,308.76,0,0,0,0,98.77c.2,8.24.21,16.54.21,24.92,0,52.79-1,107.07,0,162.59.16,9,.6,18,1.43,27.19,5.07,27.66,5.57,55.84,0,83.11a244.19,244.19,0,0,0-1.38,27.52c0,4,0,7.92,0,11.89q0,20.37,0,41c0,22.08,7.37,44.28,3,66.09-5.13,25.46,2.43,51.06,4,74.71,2.39,36.09-7.75,71.81-7,108.54.29,14,0,28.1,0,42.2v563.51c0,9.73,0,19.46.16,29.2.05,3.74.13,7.47.34,11.2,1.73,30.68,7.66,60.23,8.16,91.09.13,8,1.34,16,2.55,24.11,1.58,10.64,2.85,20.79,1.79,31.44-3,30.23-11.24,59.79-12.7,89.79-.34,6.76-.38,13.54-.29,20.35.19,14.68,0,29.35,0,44v427.25c0,27.5.44,54.82-.23,81.78-.47,19-2.08,37.9-2.33,56.79-1,72.91-10.21,147.07-12.26,218.76-.34,12.06-.39,24.06-.3,36,.14,19.73,2.16,39.59,3.91,59.05,1.46,16.38,2.63,32.48,2.21,48-.18,6.58-.44,13.24-.78,19.94-.34,6.85-.5,13.76-1.14,20.66-.24,2.61-.4,5.14-.4,7.64,0,13.13,4.38,25.15,6.24,38.23,1.38,9.7-1.65,18.38-4.78,27a99.18,99.18,0,0,0-4.51,14.63c1.1,24.87,3,49.62,5.47,74.26,1.25,12.31,2.48,24.63,4.12,36.86,2.06,15.22,4.3,30.46,6.26,45.74,9.14,71.25,5.24,143.53-7.9,213.61-2.17,11.57-4.47,23.1-7.2,34.5-1.56,6.55-1.66,13.57-1.38,20.11,2.25,53.81,2.25,106.67,2.47,160.39,0,12.23.38,24.22.72,36,1.41,48.44,5.29,91.14,9.81,127.6,3.19,25.72,0,43.55,2.17,52.09"/><path class="cls-2" d="M709.92-42.51v82c0,13.3.2,28.12,0,44.37-.24,20,9.5,35.9,11.68,56.71a48.92,48.92,0,0,1-.48,15.42c-3.59,16.28-11.2,31.48-11.2,50.48V735.2c0,8.07,0,16.14-.2,24.27a302.61,302.61,0,0,0,0,99c.21,8.26.22,16.58.22,25,0,52.91-1,107.3,0,162.94.16,9,.58,18.06,1.39,27.25,4.94,27.73,5.43,56,0,83.32a255.08,255.08,0,0,0-1.35,27.58v11.92q0,20.41,0,41.07c0,22.13,7.57,44.37,3.06,66.22-5.26,25.52,2.5,51.19,4.11,74.85,2.46,36.17-8,71.94-7.19,108.75.29,14.06,0,28.16,0,42.29v536.29q0,14.2,0,28.42c0,9.75,0,19.5.16,29.25,0,3.75.12,7.5.34,11.23,1.73,30.75,7.61,60.36,8,91.31.09,8,1.3,16.06,2.51,24.16,1.6,10.65,2.91,20.84,1.84,31.5-3,30.14-11.13,59.63-12.54,89.56-.34,6.75-.38,13.51-.29,20.3.18,14.6,0,29.19,0,43.76v426.11c0,27.43.43,54.68-.22,81.57-.46,18.94-2,37.8-2.27,56.64-.95,72.77-9.94,146.71-11.94,218.2-.33,12-.38,24-.29,35.93.14,19.68,2.11,39.48,3.8,58.89,1.42,16.34,2.6,32.4,2.16,47.89-.16,6.57-.44,13.21-.76,19.89-.33,6.83-.48,13.72-1.11,20.61-.23,2.59-.39,5.12-.39,7.61,0,13.11,4.22,25.12,6,38.17,1.33,9.66-1.63,18.34-4.68,27a102.66,102.66,0,0,0-4.42,14.61q1.56,37.2,5.24,74.08c1.21,12.28,2.39,24.56,4,36.77,2,15.19,4.16,30.39,6.06,45.64,8.85,71.06,5,143.14-7.81,213.07-2.12,11.55-4.38,23.06-7,34.44-1.53,6.54-1.62,13.53-1.37,20.06,2.09,53.78,1.93,106.64,2.17,160.33.06,12.22.39,24.2.74,35.94,1.45,48.26,5.41,90.92,10.07,127.52,3.24,25.49,0,43.3,2.23,52.07"/><path class="cls-2" d="M729.84-43.37v82.2c0,13.32.2,28.17,0,44.45-.24,20,9.24,36.05,11.37,56.93a50.66,50.66,0,0,1-.47,15.45c-3.49,16.34-10.9,31.65-10.9,50.69V736.19c0,8.08,0,16.17-.2,24.32a295.71,295.71,0,0,0,0,99.15c.22,8.28.22,16.61.22,25,0,53-.94,107.53,0,163.29.15,9,.57,18.1,1.35,27.31,4.81,27.79,5.28,56.08,0,83.53a264.06,264.06,0,0,0-1.31,27.63v12q0,20.46,0,41.16c0,22.18,7.75,44.47,3.13,66.34-5.4,25.59,2.56,51.33,4.21,75,2.53,36.25-8.16,72.08-7.37,109,.3,14.09,0,28.22,0,42.38v537.43q0,14.24,0,28.47c0,9.77,0,19.54.16,29.32,0,3.76.13,7.51.34,11.25,1.74,30.81,7.56,60.49,7.8,91.52.07,8.05,1.27,16.1,2.49,24.21,1.6,10.67,3,20.89,1.89,31.57-3,30.06-11,59.48-12.4,89.33-.33,6.73-.36,13.47-.28,20.25.18,14.52,0,29,0,43.52v425c0,27.35.42,54.53-.22,81.35-.44,18.89-2,37.71-2.2,56.49-.93,72.63-9.68,146.36-11.61,217.64-.33,12-.37,23.93-.29,35.83.13,19.63,2.05,39.38,3.7,58.74,1.38,16.3,2.53,32.33,2.1,47.8-.16,6.55-.43,13.17-.74,19.83s-.47,13.69-1.08,20.55c-.23,2.59-.38,5.11-.38,7.6,0,13.07,4.06,25.08,5.79,38.09,1.29,9.64-1.59,18.3-4.58,26.95a104.75,104.75,0,0,0-4.32,14.6c1,24.73,2.69,49.36,5,73.88,1.16,12.26,2.29,24.51,3.84,36.69,1.92,15.15,4,30.32,5.87,45.54,8.56,70.88,4.84,142.75-7.72,212.54-2.07,11.52-4.28,23-6.88,34.37-1.49,6.53-1.59,13.49-1.35,20,1.92,53.75,1.6,106.6,1.87,160.27.06,12.2.39,24.18.75,35.92,1.48,48.08,5.52,90.7,10.33,127.44,3.3,25.26,0,43.05,2.28,52"/><path class="cls-2" d="M749.76-44.22V38.15c0,13.35.19,28.23,0,44.55-.23,20,9,36.19,11.06,57.14a52.25,52.25,0,0,1-.47,15.49c-3.38,16.39-10.59,31.81-10.59,50.88v531c0,8.1,0,16.2-.21,24.37a290.18,290.18,0,0,0,0,99.34c.23,8.3.23,16.65.23,25.08,0,53.13-.91,107.76,0,163.62.15,9.07.55,18.16,1.32,27.37,4.67,27.86,5.13,56.21,0,83.75a270.81,270.81,0,0,0-1.28,27.69v12q0,20.49,0,41.24c0,22.23,7.94,44.56,3.21,66.47-5.54,25.66,2.63,51.45,4.32,75.13,2.59,36.32-8.37,72.21-7.56,109.18.31,14.12,0,28.28,0,42.47v538.56q0,14.28,0,28.54c0,9.79,0,19.58.16,29.38.05,3.76.13,7.52.34,11.27,1.75,30.88,7.52,60.62,7.63,91.73,0,8.07,1.22,16.14,2.45,24.27,1.62,10.69,3,20.93,1.94,31.63-3,30-10.91,59.33-12.24,89.1-.32,6.71-.36,13.44-.28,20.19.17,14.44,0,28.87,0,43.29v423.84c0,27.29.41,54.39-.21,81.14-.44,18.84-1.91,37.61-2.14,56.34-.9,72.5-9.41,146-11.29,217.08-.32,12-.36,23.87-.28,35.73.13,19.59,2,39.28,3.59,58.6,1.35,16.26,2.46,32.25,2,47.69-.15,6.54-.41,13.14-.72,19.78-.31,6.8-.45,13.65-1,20.5-.22,2.58-.37,5.09-.37,7.58,0,13,3.9,25,5.57,38,1.24,9.6-1.56,18.26-4.48,26.9a107.26,107.26,0,0,0-4.22,14.58c.9,24.67,2.54,49.24,4.78,73.7,1.12,12.23,2.21,24.45,3.7,36.6,1.85,15.12,3.89,30.26,5.67,45.44,8.29,70.7,4.65,142.36-7.62,212-2,11.49-4.18,22.95-6.72,34.3-1.46,6.51-1.55,13.46-1.34,20,1.76,53.72,1.29,106.57,1.57,160.21.06,12.19.4,24.16.77,35.9a1253.26,1253.26,0,0,0,10.59,127.37c3.35,25,0,42.79,2.34,52"/><path class="cls-2" d="M769.68-45.07V37.47c0,13.38.19,28.29,0,44.65-.22,20,8.73,36.33,10.74,57.35A53.94,53.94,0,0,1,780,155c-3.28,16.44-10.29,32-10.29,51.08V738.17c0,8.11,0,16.24-.21,24.42a284.42,284.42,0,0,0,0,99.53c.23,8.31.23,16.68.23,25.13,0,53.25-.89,108,0,164,.15,9.09.54,18.2,1.28,27.43,4.54,27.92,5,56.33,0,83.95-.94,9.16-1.2,18.45-1.24,27.76v12q0,20.55,0,41.33c0,22.28,8.13,44.65,3.29,66.6-5.68,25.72,2.69,51.58,4.42,75.27,2.66,36.4-8.56,72.34-7.74,109.39.32,14.15,0,28.33,0,42.56v539.7q0,14.29,0,28.59c0,9.82,0,19.63.17,29.45,0,3.77.13,7.54.34,11.29,1.75,30.95,7.47,60.75,7.45,91.95,0,8.08,1.18,16.17,2.42,24.31,1.63,10.71,3,21,2,31.7-2.93,29.89-10.79,59.18-12.09,88.87-.31,6.7-.34,13.4-.27,20.14.17,14.36,0,28.71,0,43v422.72c0,27.21.4,54.24-.2,80.92-.43,18.79-1.86,37.51-2.09,56.2-.87,72.35-9.13,145.64-11,216.5-.31,11.94-.35,23.82-.28,35.65.13,19.54,1.94,39.17,3.5,58.44,1.31,16.22,2.39,32.18,2,47.59-.15,6.52-.4,13.11-.7,19.73-.3,6.78-.44,13.62-1,20.45-.22,2.57-.36,5.07-.36,7.55,0,13,3.74,25,5.35,37.95,1.19,9.57-1.54,18.22-4.38,26.86a109.68,109.68,0,0,0-4.13,14.57c.84,24.6,2.4,49.11,4.55,73.51,1.07,12.2,2.12,24.39,3.56,36.51,1.79,15.09,3.76,30.19,5.48,45.34,8,70.51,4.45,142-7.53,211.47-2,11.47-4.08,22.91-6.56,34.24-1.43,6.5-1.52,13.42-1.32,19.91,1.59,53.69,1,106.53,1.26,160.14.07,12.18.41,24.15.79,35.89A1222.88,1222.88,0,0,0,767.47,4236c3.42,24.79,0,42.55,2.41,52"/><path class="cls-2" d="M789.61-45.92V36.79c0,13.41.17,28.35,0,44.74-.22,20,8.46,36.48,10.42,57.57a56,56,0,0,1-.44,15.56c-3.19,16.5-10,32.15-10,51.29V739.16c0,8.13,0,16.27-.22,24.47a278.7,278.7,0,0,0,0,99.72c.24,8.33.25,16.72.25,25.19,0,53.36-.87,108.21,0,164.31.14,9.11.51,18.24,1.23,27.49,4.41,28,4.84,56.45,0,84.16-.92,9.18-1.17,18.49-1.2,27.82v12q0,20.58,0,41.41c0,22.32,8.33,44.75,3.37,66.73-5.82,25.78,2.76,51.71,4.53,75.4,2.72,36.48-8.77,72.49-7.92,109.61.32,14.17,0,28.39,0,42.65v569.49c0,9.83,0,19.66.17,29.5.05,3.78.13,7.56.34,11.33,1.75,31,7.43,60.87,7.27,92.15,0,8.1,1.15,16.21,2.39,24.37,1.65,10.72,3.11,21,2,31.76-2.91,29.8-10.69,59-12,88.64-.3,6.68-.33,13.37-.25,20.08.16,14.29,0,28.56,0,42.81v421.59c0,27.13.38,54.09-.21,80.7-.41,18.74-1.8,37.41-2,56-.85,72.21-8.86,145.29-10.64,215.94-.3,11.9-.34,23.75-.27,35.55.13,19.49,1.88,39.08,3.4,58.29,1.27,16.18,2.32,32.1,1.92,47.5-.15,6.5-.39,13.07-.68,19.67-.29,6.76-.43,13.58-1,20.39-.21,2.57-.34,5.07-.34,7.54,0,13,3.58,25,5.13,37.88,1.14,9.53-1.51,18.18-4.28,26.81a112.55,112.55,0,0,0-4,14.55q1.17,36.81,4.32,73.33c1,12.16,2,24.33,3.42,36.42,1.73,15.05,3.63,30.12,5.29,45.24,7.72,70.33,4.24,141.58-7.44,210.94-1.93,11.44-4,22.86-6.4,34.17-1.39,6.49-1.48,13.38-1.31,19.86,1.43,53.66.65,106.49,1,160.08.08,12.17.42,24.13.81,35.87a1191.67,1191.67,0,0,0,11.1,127.21c3.47,24.56,0,42.3,2.46,52"/><path class="cls-2" d="M809.53-46.77V36.11c0,13.44.17,28.41,0,44.84-.21,19.94,8.2,36.62,10.1,57.78a57.9,57.9,0,0,1-.42,15.6c-3.09,16.55-9.68,32.31-9.68,51.49V740.14c0,8.15,0,16.31-.23,24.53a273.69,273.69,0,0,0,0,99.91c.24,8.35.25,16.75.25,25.24,0,53.48-.84,108.44,0,164.66.13,9.13.5,18.28,1.2,27.55,4.27,28,4.69,56.57,0,84.37-.89,9.2-1.13,18.53-1.16,27.88v12q0,20.63,0,41.5c0,22.37,8.52,44.84,3.45,66.85-6,25.85,2.82,51.85,4.63,75.55,2.79,36.55-9,72.62-8.1,109.82.33,14.2,0,28.45,0,42.74v570.69c0,9.85,0,19.7.18,29.56,0,3.79.13,7.57.34,11.35,1.75,31.07,7.38,61,7.09,92.36-.08,8.12,1.1,16.25,2.36,24.43,1.65,10.73,3.15,21.07,2.08,31.82-2.88,29.72-10.57,58.87-11.79,88.41-.29,6.66-.33,13.33-.25,20,.15,14.2,0,28.4,0,42.57v420.45c0,27.06.37,53.94-.2,80.49-.4,18.69-1.75,37.32-2,55.9-.82,72.07-8.6,144.93-10.32,215.38-.29,11.87-.33,23.69-.26,35.45.12,19.45,1.83,39,3.29,58.14,1.23,16.15,2.25,32,1.87,47.4-.14,6.49-.38,13-.66,19.62-.28,6.75-.42,13.55-1,20.34-.2,2.55-.33,5.05-.33,7.51,0,12.94,3.42,24.93,4.91,37.81,1.09,9.5-1.49,18.15-4.19,26.77a116.51,116.51,0,0,0-3.94,14.54c.71,24.47,2.12,48.85,4.09,73.14,1,12.13,2,24.26,3.29,36.33,1.65,15,3.49,30.06,5.08,45.14,7.44,70.14,4,141.19-7.34,210.4-1.88,11.43-3.88,22.82-6.25,34.11-1.35,6.47-1.44,13.34-1.28,19.81,1.26,53.64.32,106.46.66,160,.07,12.15.42,24.11.82,35.85a1162.33,1162.33,0,0,0,11.36,127.13c3.52,24.33,0,42.05,2.52,51.94"/><path class="cls-2" d="M829.45-47.62V35.44c0,13.46.17,28.47,0,44.92-.21,19.94,7.95,36.78,9.79,58a60.37,60.37,0,0,1-.41,15.64c-3,16.6-9.38,32.47-9.38,51.69V741.13c0,8.17,0,16.34-.23,24.58a268.48,268.48,0,0,0,0,100.1c.25,8.37.26,16.79.26,25.29,0,53.59-.81,108.68,0,165,.13,9.14.48,18.32,1.16,27.61,4.14,28.11,4.55,56.69,0,84.58-.86,9.22-1.09,18.56-1.12,27.94v12.08q0,20.65,0,41.59c0,22.41,8.71,44.92,3.53,67-6.09,25.91,2.89,52,4.74,75.69,2.85,36.63-9.18,72.75-8.29,110,.34,14.23,0,28.51,0,42.83v571.88c0,9.87,0,19.75.18,29.63,0,3.79.13,7.59.34,11.37,1.76,31.14,7.33,61.13,6.91,92.57-.11,8.14,1.07,16.29,2.34,24.48,1.66,10.76,3.2,21.12,2.12,31.89-2.85,29.63-10.46,58.72-11.64,88.19-.28,6.64-.31,13.29-.24,20,.15,14.12,0,28.23,0,42.33v419.32c0,27,.36,53.79-.19,80.27-.39,18.64-1.69,37.22-1.9,55.75-.8,71.94-8.33,144.58-10,214.82-.28,11.84-.32,23.62-.25,35.36.12,19.4,1.77,38.87,3.19,58,1.19,16.1,2.18,31.95,1.8,47.29-.13,6.48-.36,13-.63,19.57-.28,6.73-.41,13.51-.93,20.28-.2,2.55-.32,5-.33,7.5-.05,12.9,3.27,24.88,4.69,37.74,1.05,9.46-1.45,18.1-4.08,26.72a118.5,118.5,0,0,0-3.84,14.52c.64,24.41,2,48.73,3.85,73,.94,12.11,1.87,24.21,3.15,36.25,1.59,15,3.35,30,4.89,45,7.16,70,3.85,140.8-7.25,209.87-1.84,11.4-3.79,22.77-6.09,34-1.32,6.46-1.4,13.3-1.27,19.76,1.09,53.61,0,106.42.36,159.95.08,12.15.43,24.1.84,35.84a1135.11,1135.11,0,0,0,11.62,127.06c3.57,24.09,0,41.79,2.57,51.9"/><path class="cls-2" d="M849.37-48.47V34.76c0,13.49.16,28.53,0,45-.2,19.92,7.69,36.92,9.47,58.21a62.45,62.45,0,0,1-.39,15.67c-2.89,16.66-9.08,32.65-9.08,51.89V742.12c0,8.19,0,16.38-.24,24.63a263.92,263.92,0,0,0,0,100.29c.25,8.38.26,16.82.26,25.35,0,53.7-.79,108.9,0,165.35.13,9.16.47,18.36,1.13,27.67,4,28.17,4.39,56.8,0,84.78-.83,9.25-1.06,18.61-1.09,28v12.11q0,20.71,0,41.68c0,22.46,8.91,45,3.61,67.1-6.23,26,3,52.1,4.84,75.82,2.92,36.71-9.38,72.89-8.47,110.25.34,14.26,0,28.57,0,42.92v573.08c0,9.89,0,19.78.18,29.69.06,3.8.13,7.6.35,11.39,1.76,31.2,7.28,61.27,6.73,92.79-.15,8.15,1,16.32,2.3,24.53,1.68,10.77,3.23,21.16,2.18,31.95-2.89,29.54-10.35,58.57-11.49,88-.28,6.62-.31,13.25-.24,19.91.14,14.05,0,28.08,0,42.1v418.18c0,26.92.35,53.65-.18,80.06-.38,18.6-1.64,37.12-1.84,55.6-.78,71.8-8.06,144.22-9.68,214.26-.27,11.81-.31,23.56-.24,35.26.11,19.35,1.71,38.77,3.08,57.84,1.16,16.06,2.11,31.88,1.75,47.2-.13,6.46-.35,13-.61,19.51-.27,6.72-.39,13.48-.9,20.23-.19,2.54-.31,5-.32,7.48-.06,12.86,3.11,24.84,4.47,37.66,1,9.44-1.43,18.07-4,26.68a123.6,123.6,0,0,0-3.75,14.51c.58,24.34,1.83,48.6,3.62,72.76.9,12.08,1.78,24.15,3,36.16,1.53,14.95,3.22,29.92,4.7,44.94,6.87,69.77,3.65,140.41-7.16,209.33-1.79,11.38-3.69,22.72-5.93,34a93.36,93.36,0,0,0-1.25,19.71c.92,53.58-.32,106.39.05,159.89.09,12.13.44,24.08.86,35.82a1106.77,1106.77,0,0,0,11.88,127c3.62,23.86,0,41.54,2.63,51.88"/><path class="cls-2" d="M869.29-49.32v83.4c0,13.52.16,28.59,0,45.12-.19,19.91,7.43,37.06,9.16,58.42a65.24,65.24,0,0,1-.38,15.71c-2.8,16.71-8.78,32.81-8.78,52.09V743.11c0,8.2,0,16.41-.24,24.68a259.6,259.6,0,0,0,0,100.49c.26,8.39.27,16.85.27,25.39,0,53.82-.76,109.13,0,165.7.12,9.18.45,18.4,1.09,27.73,3.87,28.23,4.25,56.92,0,85-.8,9.27-1,18.65-1.05,28.06v12.13q0,20.76,0,41.77c0,22.51,9.09,45.11,3.68,67.23-6.37,26,3,52.23,5,76,3,36.78-9.59,73-8.66,110.46.35,14.29,0,28.63,0,43V2125c0,9.92,0,19.83.19,29.75,0,3.81.13,7.62.34,11.42,1.77,31.27,7.24,61.4,6.55,93-.17,8.18,1,16.36,2.28,24.58,1.69,10.79,3.27,21.22,2.22,32-2.87,29.45-10.24,58.41-11.34,87.73-.26,6.6-.29,13.22-.23,19.86.14,14,0,27.92,0,41.86v417.05c0,26.84.34,53.5-.18,79.84-.36,18.55-1.58,37-1.77,55.45-.75,71.66-7.8,143.87-9.36,213.7-.26,11.77-.3,23.49-.23,35.16.11,19.31,1.65,38.67,3,57.69,1.12,16,2,31.8,1.69,47.1-.13,6.44-.34,12.94-.6,19.46-.25,6.7-.37,13.44-.86,20.18-.19,2.53-.29,5-.31,7.45-.08,12.83,3,24.81,4.25,37.6,1,9.4-1.4,18-3.88,26.63a124.9,124.9,0,0,0-3.66,14.49q.78,36.42,3.39,72.58c.86,12.05,1.7,24.09,2.87,36.07,1.46,14.92,3.09,29.86,4.5,44.84,6.59,69.59,3.46,140-7.06,208.8-1.74,11.35-3.59,22.67-5.77,33.91-1.25,6.43-1.33,13.23-1.24,19.66.76,53.55-.64,106.35-.25,159.83.09,12.12.45,24.06.88,35.8a1079.87,1079.87,0,0,0,12.14,126.9c3.67,23.63,0,41.29,2.68,51.86"/><path class="cls-2" d="M889.21-50.17V33.4c0,13.55.15,28.65,0,45.21-.18,19.91,7.18,37.21,8.84,58.64a67.2,67.2,0,0,1-.37,15.75c-2.69,16.76-8.47,33-8.47,52.29V744.1c0,8.22,0,16.44-.24,24.73a254.85,254.85,0,0,0,0,100.68c.26,8.41.27,16.88.27,25.44,0,53.94-.73,109.36,0,166,.12,9.2.44,18.44,1,27.79,3.74,28.29,4.11,57,0,85.2-.78,9.29-1,18.69-1,28.12v12.16q0,20.79,0,41.85c0,22.56,9.28,45.2,3.76,67.35-6.51,26.1,3.09,52.37,5,76.11,3.05,36.86-9.79,73.15-8.84,110.67.36,14.32,0,28.69,0,43.09v575.48c0,9.93,0,19.87.19,29.81.06,3.82.13,7.63.35,11.44,1.77,31.34,7.19,61.53,6.37,93.21-.21,8.2,1,16.4,2.24,24.64,1.7,10.81,3.32,21.26,2.27,32.08-2.85,29.37-10.12,58.26-11.18,87.5-.26,6.59-.29,13.18-.23,19.8.13,13.89,0,27.77,0,41.62v415.93c0,26.76.33,53.35-.17,79.62-.35,18.5-1.53,36.93-1.72,55.3-.72,71.52-7.52,143.51-9,213.14-.25,11.74-.28,23.43-.22,35.07.1,19.26,1.59,38.57,2.88,57.54,1.07,16,2,31.72,1.63,47-.12,6.43-.33,12.91-.58,19.41-.25,6.68-.36,13.41-.84,20.12-.17,2.53-.27,5-.29,7.44-.09,12.8,2.8,24.77,4,37.52.9,9.37-1.37,18-3.79,26.59a133.54,133.54,0,0,0-3.56,14.48q.69,36.32,3.17,72.39c.8,12,1.6,24,2.72,36,1.4,14.89,2.95,29.79,4.31,44.73,6.31,69.42,3.25,139.64-7,208.27-1.68,11.33-3.48,22.63-5.6,33.85A99.42,99.42,0,0,0,874,3912.9c.59,53.52-1,106.32-.55,159.76.09,12.11.45,24.05.89,35.8a1059.34,1059.34,0,0,0,12.39,126.82c3.73,23.4,0,41,2.75,51.82"/><path class="cls-2" d="M909.13-51V32.73c0,13.57.15,28.7,0,45.3-.18,19.89,6.92,37.35,8.53,58.85a70.3,70.3,0,0,1-.36,15.78c-2.6,16.82-8.17,33.15-8.17,52.5V745.09c0,8.23,0,16.47-.25,24.78a251,251,0,0,0,0,100.87c.27,8.43.28,16.92.28,25.5,0,54-.71,109.59,0,166.38.12,9.23.42,18.49,1,27.86,3.6,28.35,4,57.16,0,85.4-.75,9.32-1,18.74-1,28.19v12.18q0,20.85,0,41.94c0,22.61,9.47,45.3,3.84,67.48-6.65,26.16,3.15,52.5,5.16,76.24,3.11,36.94-10,73.29-9,110.89.37,14.35,0,28.75,0,43.18v576.68c0,10,0,19.9.19,29.87.06,3.82.14,7.65.35,11.46,1.77,31.4,7.15,61.66,6.2,93.43-.25,8.21.91,16.43,2.21,24.68,1.71,10.83,3.36,21.31,2.31,32.15-2.83,29.28-10,58.11-11,87.27-.25,6.57-.28,13.15-.22,19.75.13,13.81,0,27.6,0,41.38v414.79c0,26.7.31,53.21-.16,79.41-.34,18.45-1.48,36.83-1.66,55.15-.7,71.38-7.25,143.16-8.71,212.58-.24,11.71-.27,23.36-.21,35,.1,19.21,1.54,38.47,2.77,57.39,1,15.94,1.9,31.65,1.58,46.9-.12,6.41-.32,12.87-.56,19.35-.24,6.67-.35,13.37-.81,20.07q-.25,3.76-.28,7.42c-.1,12.76,2.64,24.72,3.81,37.45.85,9.33-1.35,17.95-3.69,26.54a135.71,135.71,0,0,0-3.46,14.46c.38,24.15,1.4,48.22,2.93,72.21.76,12,1.52,24,2.59,35.9,1.33,14.84,2.81,29.72,4.11,44.62,6,69.23,3,139.24-6.89,207.74-1.64,11.3-3.38,22.58-5.44,33.78a104.46,104.46,0,0,0-1.21,19.56c.43,53.5-1.28,106.28-.85,159.7.1,12.1.46,24,.91,35.78a1035.16,1035.16,0,0,0,12.65,126.74c3.77,23.17,0,40.79,2.8,51.8"/><path class="cls-2" d="M929.05-51.88V32.05c0,13.61.15,28.76,0,45.39-.17,19.89,6.66,37.5,8.21,59.07a73.14,73.14,0,0,1-.34,15.82c-2.5,16.87-7.87,33.31-7.87,52.7v541c0,8.26,0,16.52-.25,24.84a247,247,0,0,0,0,101.06c.27,8.44.28,16.95.28,25.55,0,54.16-.68,109.82,0,166.73.11,9.25.41,18.53,1,27.92,3.47,28.41,3.81,57.28,0,85.61-.72,9.34-.92,18.78-1,28.25v12.21q0,20.88,0,42c0,22.65,9.67,45.39,3.92,67.61-6.78,26.23,3.22,52.62,5.26,76.38,3.19,37-10.19,73.42-9.21,111.1.38,14.38,0,28.81,0,43.27v548.79q0,14.55,0,29.08c0,10,0,20,.19,29.94,0,3.83.13,7.66.35,11.48,1.77,31.47,7.09,61.79,6,93.64-.28,8.23.87,16.47,2.19,24.74,1.72,10.84,3.4,21.36,2.36,32.21-2.82,29.2-9.9,58-10.88,87-.24,6.55-.27,13.11-.22,19.7.12,13.73,0,27.44,0,41.14V2890c0,26.62.3,53.06-.16,79.19-.32,18.4-1.42,36.73-1.59,55-.67,71.24-7,142.79-8.38,212-.24,11.68-.27,23.31-.21,34.88.09,19.17,1.48,38.37,2.67,57.24,1,15.9,1.83,31.57,1.51,46.8-.11,6.4-.3,12.84-.53,19.31-.23,6.64-.34,13.33-.78,20-.16,2.51-.25,5-.27,7.4-.12,12.73,2.48,24.69,3.58,37.38.81,9.3-1.31,17.91-3.58,26.5a139.56,139.56,0,0,0-3.37,14.45q.48,36.12,2.7,72c.72,12,1.43,23.91,2.45,35.82,1.26,14.81,2.68,29.65,3.92,44.52,5.74,69,2.85,138.85-6.8,207.2-1.59,11.29-3.28,22.54-5.28,33.72a108.3,108.3,0,0,0-1.2,19.51c.26,53.47-1.6,106.25-1.15,159.64.1,12.08.47,24,.93,35.76A1012.48,1012.48,0,0,0,926.42,4235c3.82,22.94,0,40.54,2.86,51.77"/><path class="cls-2" d="M949-52.73v84.1c0,13.64.14,28.83,0,45.49-.16,19.88,6.41,37.64,7.9,59.28a76.78,76.78,0,0,1-.33,15.85c-2.4,16.93-7.57,33.48-7.57,52.9V747.06c0,8.27,0,16.55-.26,24.89a243,243,0,0,0,0,101.25c.28,8.46.28,17,.28,25.6,0,54.28-.65,110.05,0,167.08.11,9.27.4,18.57.94,28,3.34,28.49,3.67,57.41,0,85.83-.69,9.36-.88,18.82-.91,28.31v12.23q0,20.92,0,42.11c0,22.7,9.86,45.48,4,67.74-6.92,26.29,3.29,52.75,5.37,76.52,3.25,37.09-10.4,73.55-9.4,111.31.39,14.41,0,28.87,0,43.36v549.93q0,14.57,0,29.14c0,10,0,20,.19,30,.06,3.85.14,7.68.35,11.52,1.78,31.53,7.05,61.91,5.84,93.84-.32,8.25.83,16.5,2.15,24.8,1.74,10.86,3.46,21.4,2.41,32.27-2.8,29.11-9.79,57.81-10.73,86.81-.23,6.54-.26,13.08-.2,19.64.11,13.65,0,27.29,0,40.91v412.52c0,26.55.29,52.92-.15,79-.31,18.35-1.36,36.63-1.53,54.86-.65,71.1-6.72,142.44-8.06,211.44-.23,11.65-.26,23.24-.2,34.79.09,19.12,1.42,38.26,2.57,57.09,1,15.86,1.75,31.49,1.45,46.69q-.16,9.57-.51,19.26c-.22,6.63-.33,13.29-.75,20-.16,2.5-.24,4.95-.27,7.38-.12,12.69,2.33,24.65,3.37,37.31.76,9.26-1.29,17.87-3.49,26.45-1.22,4.78-2.53,9.54-3.27,14.43q.39,36,2.47,71.83c.67,11.93,1.34,23.85,2.31,35.73,1.2,14.78,2.55,29.58,3.72,44.42,5.46,68.87,2.66,138.46-6.7,206.67-1.54,11.26-3.19,22.49-5.13,33.65a113.53,113.53,0,0,0-1.17,19.46c.09,53.44-1.92,106.21-1.46,159.57.11,12.08.48,24,1,35.75a989.37,989.37,0,0,0,13.17,126.59c3.86,22.7,0,40.28,2.92,51.74"/><path class="cls-2" d="M968.89-53.58V30.69c0,13.67.14,28.89,0,45.58-.15,19.87,6.15,37.79,7.58,59.5a79.38,79.38,0,0,1-.31,15.89c-2.31,17-7.27,33.64-7.27,53.1V748.05c0,8.29,0,16.58-.26,24.94a239.43,239.43,0,0,0,0,101.44c.29,8.48.29,17,.29,25.66,0,54.39-.62,110.28,0,167.42.11,9.29.38,18.61.91,28a366.84,366.84,0,0,1,0,86c-.67,9.38-.85,18.86-.88,28.36v12.27q0,21,0,42.2c0,22.74,10.05,45.57,4.08,67.85-7.06,26.36,3.35,52.89,5.47,76.66,3.32,37.17-10.6,73.7-9.58,111.53.4,14.44,0,28.93,0,43.45V2115q0,14.61,0,29.2c0,10,0,20,.19,30.06.06,3.85.14,7.7.36,11.54,1.78,31.59,7,62,5.65,94-.35,8.27.8,16.54,2.13,24.85,1.74,10.88,3.5,21.45,2.45,32.34-2.77,29-9.67,57.65-10.57,86.58-.23,6.52-.26,13-.2,19.59.11,13.57,0,27.13,0,40.67v411.39c0,26.47.28,52.77-.14,78.76-.3,18.3-1.31,36.54-1.47,54.71-.63,71-6.45,142.08-7.74,210.88-.22,11.62-.25,23.18-.2,34.69.09,19.07,1.37,38.16,2.47,56.94.92,15.82,1.69,31.42,1.4,46.6q-.16,9.54-.49,19.2c-.22,6.61-.32,13.26-.72,19.9-.16,2.49-.23,4.93-.26,7.35-.14,12.67,2.17,24.61,3.15,37.24.72,9.24-1.26,17.84-3.39,26.41-1.18,4.78-2.46,9.53-3.18,14.41q.3,35.94,2.24,71.65c.63,11.9,1.26,23.79,2.17,35.64,1.14,14.75,2.41,29.52,3.53,44.32,5.18,68.68,2.45,138.07-6.61,206.13-1.5,11.24-3.09,22.45-5,33.58a119.37,119.37,0,0,0-1.16,19.41c-.07,53.42-2.24,106.19-1.75,159.52.11,12.06.48,24,1,35.73a967.17,967.17,0,0,0,13.43,126.51c3.91,22.48,0,40,3,51.72"/><path class="cls-2" d="M988.82-54.43V30c0,13.7.12,29,0,45.68-.16,19.86,5.88,37.93,7.26,59.71a83.72,83.72,0,0,1-.3,15.93c-2.21,17-7,33.81-7,53.3V749c0,8.31,0,16.61-.27,25a235.56,235.56,0,0,0,0,101.63c.29,8.5.3,17.05.3,25.71,0,54.51-.61,110.51,0,167.77.09,9.31.36,18.65.86,28.09a384.38,384.38,0,0,1,0,86.24c-.64,9.41-.81,18.91-.83,28.43v12.29q0,21,0,42.29c0,22.79,10.23,45.66,4.15,68-7.2,26.42,3.42,53,5.58,76.8,3.38,37.24-10.81,73.83-9.76,111.74.39,14.47,0,29,0,43.54V2148c0,10,0,20.07.2,30.12.06,3.86.13,7.71.35,11.56,1.79,31.66,7,62.18,5.48,94.27-.38,8.29.75,16.57,2.09,24.9,1.76,10.89,3.55,21.49,2.51,32.4-2.76,28.94-9.57,57.5-10.43,86.35-.21,6.5-.24,13-.19,19.54.1,13.49,0,27,0,40.42v410.27c0,26.4.26,52.61-.14,78.54-.29,18.25-1.26,36.44-1.41,54.56-.6,70.82-6.18,141.73-7.42,210.32-.21,11.59-.24,23.12-.19,34.59.09,19,1.31,38.07,2.37,56.79.88,15.78,1.61,31.35,1.34,46.5q-.15,9.52-.48,19.15c-.2,6.59-.29,13.22-.68,19.84-.15,2.48-.22,4.92-.25,7.34-.15,12.63,2,24.57,2.93,37.17.67,9.2-1.23,17.79-3.29,26.36-1.15,4.77-2.38,9.52-3.08,14.4.12,23.89.83,47.71,2,71.46.59,11.86,1.17,23.72,2,35.55,1.07,14.71,2.28,29.45,3.34,44.22,4.89,68.5,2.25,137.68-6.52,205.6-1.45,11.21-3,22.39-4.81,33.51a124.6,124.6,0,0,0-1.14,19.36c-.25,53.4-2.57,106.15-2.06,159.46.11,12,.49,23.95,1,35.71A948,948,0,0,0,986,4234.69c4,22.25,0,39.78,3,51.69"/><path class="cls-2" d="M1008.74-55.28V29.34c0,13.72.12,29,0,45.77-.15,19.84,5.63,38.07,6.94,59.92a86.62,86.62,0,0,1-.29,16c-2.11,17.09-6.65,34-6.65,53.51V750c0,8.32,0,16.65-.28,25a232.44,232.44,0,0,0,0,101.82c.3,8.51.31,17.09.31,25.76,0,54.62-.58,110.74,0,168.12.09,9.33.34,18.69.82,28.15a403.62,403.62,0,0,1,0,86.45c-.61,9.43-.78,19-.8,28.49v12.31q0,21.06,0,42.38c0,22.84,10.43,45.75,4.23,68.11-7.34,26.48,3.49,53.14,5.68,76.94,3.45,37.32-11,74-9.94,112,.4,14.5,0,29,0,43.63v582.65c0,10.06,0,20.12.2,30.19.06,3.86.14,7.72.36,11.58,1.79,31.73,6.91,62.31,5.29,94.48-.41,8.31.72,16.61,2.07,25,1.77,10.92,3.59,21.55,2.55,32.47-2.74,28.85-9.45,57.35-10.27,86.12-.21,6.49-.24,13-.19,19.48.1,13.41,0,26.81,0,40.19v409.13c0,26.33.25,52.47-.14,78.33-.27,18.21-1.2,36.34-1.35,54.41-.57,70.68-5.91,141.37-7.09,209.76-.2,11.55-.23,23-.18,34.5.08,19,1.26,38,2.26,56.63.85,15.75,1.55,31.27,1.29,46.4q-.15,9.51-.46,19.1c-.19,6.58-.28,13.19-.66,19.79-.14,2.47-.2,4.91-.23,7.32-.17,12.59,1.85,24.53,2.71,37.09.62,9.17-1.21,17.76-3.19,26.32-1.11,4.77-2.31,9.52-3,14.38q.09,35.75,1.77,71.28c.54,11.83,1.09,23.66,1.89,35.46,1,14.68,2.15,29.38,3.14,44.12,4.62,68.32,2.06,137.29-6.42,205.07-1.4,11.18-2.89,22.34-4.65,33.44a130.39,130.39,0,0,0-1.13,19.31c-.41,53.37-2.88,106.11-2.36,159.39.12,12,.5,23.94,1,35.7a928,928,0,0,0,13.94,126.35c4,22,0,39.54,3.09,51.67"/><path class="cls-2" d="M1028.66-56.13V28.66c0,13.75.11,29.06,0,45.86-.14,19.84,5.37,38.22,6.63,60.14a91.73,91.73,0,0,1-.28,16c-2,17.14-6.35,34.14-6.35,53.71V751c0,8.35,0,16.69-.28,25.1a229.14,229.14,0,0,0,0,102c.3,8.53.31,17.12.31,25.82,0,54.73-.55,111,0,168.46.09,9.35.33,18.73.79,28.21a424.68,424.68,0,0,1,0,86.66c-.58,9.45-.74,19-.76,28.55v12.34q0,21.09,0,42.46c0,22.89,10.62,45.85,4.31,68.24-7.48,26.54,3.55,53.27,5.79,77.07,3.51,37.4-11.22,74.1-10.13,112.17.41,14.53,0,29.11,0,43.72v583.85c0,10.08,0,20.15.2,30.24.07,3.88.14,7.75.36,11.61,1.79,31.79,6.87,62.44,5.12,94.69-.45,8.33.68,16.65,2,25,1.78,10.93,3.63,21.59,2.59,32.53-2.72,28.77-9.34,57.2-10.12,85.9-.2,6.46-.22,12.93-.18,19.42.09,13.33,0,26.65,0,39.95v408c0,26.25.24,52.32-.13,78.1-.26,18.17-1.15,36.25-1.29,54.27-.55,70.55-5.64,141-6.77,209.2-.19,11.52-.22,23-.17,34.4.08,18.93,1.2,37.86,2.16,56.49.81,15.7,1.48,31.19,1.22,46.3q-.13,9.48-.43,19c-.18,6.56-.27,13.15-.63,19.74-.13,2.46-.19,4.89-.22,7.29-.18,12.56,1.7,24.5,2.48,37,.58,9.13-1.17,17.71-3.09,26.27-1.06,4.77-2.22,9.51-2.89,14.37q0,35.64,1.55,71.08c.49,11.81,1,23.61,1.75,35.38.94,14.65,2,29.32,2.94,44,4.33,68.13,1.86,136.9-6.33,204.53-1.35,11.16-2.79,22.3-4.49,33.38a138.24,138.24,0,0,0-1.11,19.26c-.58,53.34-3.21,106.08-2.67,159.33.12,12,.51,23.92,1,35.68a909.37,909.37,0,0,0,14.2,126.28c4,21.79,0,39.28,3.15,51.64"/><path class="cls-2" d="M1048.58-57V28c0,13.78.11,29.12,0,46-.13,19.83,5.12,38.36,6.31,60.35a97.44,97.44,0,0,1-.26,16c-1.92,17.19-6.05,34.31-6.05,53.9V752c0,8.36,0,16.72-.29,25.15a226,226,0,0,0,0,102.2c.31,8.55.32,17.16.32,25.87,0,54.85-.52,111.2,0,168.81.08,9.37.31,18.78.75,28.27a448.65,448.65,0,0,1,0,86.87c-.56,9.47-.71,19-.73,28.61v12.36q0,21.13,0,42.55c0,22.94,10.81,45.94,4.39,68.36-7.62,26.61,3.62,53.41,5.89,77.22,3.59,37.47-11.42,74.23-10.31,112.38.42,14.56,0,29.17,0,43.81v585.05c0,10.09,0,20.19.21,30.3.06,3.88.14,7.76.36,11.63,1.79,31.86,6.82,62.57,4.94,94.9-.49,8.35.63,16.69,2,25.06,1.79,10.95,3.68,21.64,2.65,32.6-2.71,28.68-9.23,57-10,85.67-.2,6.44-.22,12.9-.18,19.36.09,13.26,0,26.5,0,39.72v406.86c0,26.18.23,52.18-.12,77.89-.25,18.12-1.09,36.16-1.23,54.12-.52,70.41-5.37,140.66-6.45,208.64-.18,11.49-.2,22.92-.16,34.3.08,18.89,1.14,37.76,2.06,56.34.77,15.66,1.4,31.12,1.16,46.2q-.13,9.45-.41,19c-.18,6.55-.26,13.12-.6,19.68-.13,2.46-.18,4.88-.21,7.28-.19,12.53,1.54,24.45,2.26,36.95.53,9.1-1.15,17.68-3,26.23-1,4.76-2.15,9.5-2.8,14.35q-.09,35.55,1.32,70.9c.45,11.78.91,23.55,1.61,35.29.87,14.61,1.87,29.25,2.75,43.92a1163.34,1163.34,0,0,1-6.24,204c-1.31,11.13-2.7,22.25-4.33,33.31a145.68,145.68,0,0,0-1.1,19.21c-.75,53.32-3.53,106-3,159.27.13,12,.5,23.9,1,35.66a876.92,876.92,0,0,0,14.46,126.2c4.08,21.56,0,39,3.2,51.61"/><path class="cls-2" d="M1068.5-57.83V27.3c0,13.81.11,29.19,0,46.05-.13,19.82,4.86,38.5,6,60.57a103.71,103.71,0,0,1-.25,16.07c-1.82,17.25-5.75,34.48-5.75,54.11V753c0,8.38,0,16.75-.29,25.2a222.9,222.9,0,0,0,0,102.39c.31,8.57.32,17.19.32,25.92,0,55-.5,111.43,0,169.15.08,9.4.3,18.83.71,28.34a473.35,473.35,0,0,1,0,87.07c-.53,9.5-.67,19.07-.69,28.68v12.39q0,21.18,0,42.63c0,23,11,46,4.47,68.49-7.76,26.67,3.69,53.54,6,77.35,3.65,37.56-11.63,74.37-10.5,112.6.43,14.59,0,29.23,0,43.9v586.24c0,10.12,0,20.24.21,30.37.07,3.89.14,7.77.36,11.65,1.8,31.93,6.77,62.71,4.76,95.12-.52,8.36.6,16.72,2,25.11,1.8,11,3.72,21.68,2.69,32.66-2.69,28.6-9.12,56.89-9.82,85.44-.18,6.43-.21,12.86-.17,19.31.08,13.18,0,26.34,0,39.48v405.73c0,26.11.22,52-.12,77.67-.23,18.07-1,36.06-1.16,54-.5,70.27-5.11,140.31-6.13,208.07-.17,11.46-.19,22.87-.15,34.22.07,18.84,1.08,37.65,2,56.18.73,15.63,1.34,31,1.11,46.1q-.12,9.43-.39,18.94c-.17,6.53-.25,13.08-.57,19.63-.12,2.45-.17,4.86-.21,7.26-.2,12.49,1.39,24.41,2.05,36.88.48,9.07-1.12,17.64-2.89,26.18-1,4.76-2.07,9.5-2.7,14.34q-.19,35.45,1.08,70.71c.4,11.75.82,23.49,1.47,35.2.81,14.58,1.74,29.19,2.55,43.82a1216,1216,0,0,1-6.14,203.46c-1.26,11.12-2.6,22.21-4.17,33.25a154,154,0,0,0-1.08,19.16c-.92,53.29-3.85,106-3.27,159.2q.19,18,1,35.65a860.28,860.28,0,0,0,14.72,126.12c4.12,21.33,0,38.78,3.26,51.59"/><path class="cls-2" d="M1088.42-58.68V26.63c0,13.83.1,29.24,0,46.14-.12,19.81,4.6,38.64,5.68,60.78a109.51,109.51,0,0,1-.23,16.11c-1.73,17.3-5.45,34.64-5.45,54.31V754c0,8.4,0,16.79-.29,25.25a220.08,220.08,0,0,0,0,102.58c.32,8.58.33,17.23.33,26,0,55.07-.47,111.65,0,169.49.08,9.42.28,18.87.68,28.4a502.78,502.78,0,0,1,0,87.28c-.5,9.52-.64,19.11-.66,28.73v12.42q0,21.23,0,42.73c0,23,11.2,46.11,4.55,68.61-7.9,26.73,3.75,53.66,6.11,77.49,3.71,37.63-11.83,74.5-10.69,112.81.44,14.62,0,29.29,0,44v587.44c0,10.14,0,20.27.21,30.43.07,3.89.15,7.79.37,11.67,1.8,32,6.72,62.84,4.58,95.33-.56,8.38.55,16.76,1.94,25.17,1.82,11,3.77,21.73,2.74,32.72-2.67,28.51-9,56.74-9.67,85.21-.17,6.41-.19,12.83-.16,19.26.08,13.09,0,26.17,0,39.24V2910.8c0,26,.21,51.89-.11,77.46-.22,18-1,36-1.1,53.82-.47,70.13-4.84,140-5.81,207.51q-.24,17.14-.14,34.12c0,18.79,1,37.56,1.85,56,.69,15.58,1.26,31,1.05,46q-.12,9.42-.37,18.89c-.16,6.51-.24,13-.54,19.57-.12,2.44-.16,4.85-.2,7.24-.21,12.46,1.23,24.38,1.83,36.81.43,9-1.1,17.6-2.79,26.14-.95,4.76-2,9.49-2.61,14.32-.2,23.57.13,47.07.85,70.53.36,11.71.74,23.42,1.33,35.11.74,14.55,1.61,29.12,2.36,43.72a1273.39,1273.39,0,0,1-6,202.93c-1.21,11.09-2.5,22.16-4,33.18a167.66,167.66,0,0,0-1.06,19.11c-1.09,53.27-4.17,106-3.57,159.14.13,12,.51,23.87,1.07,35.64a843.44,843.44,0,0,0,15,126c4.16,21.1,0,38.52,3.32,51.56"/><path class="cls-2" d="M1108.34-59.53V26c0,13.86.1,29.3,0,46.24-.11,19.8,4.35,38.78,5.37,61a117.51,117.51,0,0,1-.22,16.15c-1.63,17.35-5.15,34.8-5.15,54.51V755c0,8.41,0,16.82-.3,25.3A217.1,217.1,0,0,0,1108,883c.32,8.6.33,17.26.33,26,0,55.19-.44,111.89,0,169.84.07,9.44.27,18.91.64,28.46a534.69,534.69,0,0,1,0,87.49c-.47,9.54-.6,19.15-.62,28.79v12.45q0,21.26,0,42.81c0,23.07,11.38,46.21,4.62,68.73-8,26.8,3.82,53.8,6.21,77.64,3.78,37.7-12,74.63-10.87,113,.45,14.65,0,29.35,0,44.08V2171c0,10.16,0,20.32.22,30.49.07,3.91.14,7.81.36,11.71,1.81,32.05,6.68,63,4.4,95.53-.59,8.41.52,16.8,1.92,25.22,1.83,11,3.81,21.78,2.79,32.79-2.66,28.43-8.9,56.59-9.52,85-.17,6.39-.19,12.79-.15,19.2.07,13,0,26,0,39V2913.4c0,26,.2,51.74-.1,77.24-.21,18-.93,35.86-1,53.68-.45,70-4.57,139.59-5.49,206.94q-.23,17.1-.13,34c0,18.75,1,37.46,1.74,55.89.66,15.54,1.2,30.89,1,45.9q-.12,9.39-.35,18.83c-.16,6.5-.23,13-.52,19.52-.1,2.43-.13,4.83-.18,7.22-.23,12.42,1.07,24.34,1.6,36.74.39,9-1.06,17.56-2.69,26.09-.9,4.75-1.92,9.48-2.51,14.31-.26,23.5,0,46.94.62,70.33.32,11.69.65,23.37,1.19,35,.68,14.52,1.47,29.05,2.17,43.62a1337,1337,0,0,1-6,202.39c-1.16,11.07-2.4,22.12-3.86,33.12a176.41,176.41,0,0,0-1,19.06c-1.26,53.24-4.49,105.94-3.88,159.08q.21,18,1.09,35.62a825.84,825.84,0,0,0,15.24,126c4.2,20.87,0,38.27,3.37,51.53"/><path class="cls-2" d="M1128.26-60.38V25.27c0,13.89.09,29.36,0,46.33-.1,19.79,4.09,38.93,5.06,61.21a124.71,124.71,0,0,1-.22,16.18c-1.53,17.42-4.84,35-4.84,54.71V756c0,8.43,0,16.85-.3,25.35a214.47,214.47,0,0,0,0,103c.33,8.62.34,17.3.34,26.09,0,55.3-.42,112.11,0,170.18.07,9.46.25,19,.6,28.52a569.31,569.31,0,0,1,0,87.7c-.44,9.55-.56,19.19-.58,28.85v12.47q0,21.32,0,42.9c0,23.12,11.57,46.3,4.7,68.86-8.18,26.86,3.89,53.93,6.32,77.77,3.85,37.79-12.24,74.77-11.06,113.24.45,14.68,0,29.41,0,44.17v589.83c0,10.18,0,20.36.22,30.55.07,3.91.14,7.82.36,11.73,1.82,32.12,6.64,63.09,4.23,95.75-.62,8.42.48,16.83,1.89,25.27,1.83,11,3.85,21.82,2.83,32.85-2.64,28.34-8.73,56.44-9.37,84.75-.14,6.38-.17,12.76-.14,19.15.06,12.94,0,25.86,0,38.76V2916c0,25.88.19,51.59-.09,77-.2,17.92-.88,35.77-1,53.53-.43,69.85-4.3,139.23-5.17,206.38q-.21,17.06-.12,33.93c0,18.7.91,37.35,1.64,55.73.62,15.51,1.13,30.82.93,45.8q-.1,9.38-.33,18.78c-.14,6.48-.2,13-.48,19.47-.1,2.42-.12,4.82-.17,7.19-.24,12.4.91,24.3,1.38,36.67.34,9-1,17.52-2.59,26.05-.87,4.75-1.84,9.48-2.42,14.29-.32,23.44-.15,46.82.39,70.15.28,11.66.57,23.31,1.06,34.94.61,14.48,1.33,29,2,43.51a1407,1407,0,0,1-5.87,201.87c-1.11,11-2.29,22.06-3.69,33.05-.8,6.27-.86,12.74-1,19-1.43,53.22-4.81,105.9-4.18,159q.23,18,1.12,35.61a809,809,0,0,0,15.49,125.88c4.24,20.65,0,38,3.43,51.51"/><path class="cls-2" d="M1148.18-61.24V24.59c0,13.92.09,29.42,0,46.43-.09,19.78,3.84,39.07,4.74,61.42a132.93,132.93,0,0,1-.2,16.22c-1.43,17.47-4.54,35.14-4.54,54.91V756.94c0,8.45,0,16.89-.31,25.41a211.93,211.93,0,0,0,0,103.15c.33,8.64.34,17.33.34,26.14,0,55.42-.39,112.34,0,170.53.07,9.48.24,19,.57,28.57a611.24,611.24,0,0,1,0,87.91c-.42,9.58-.53,19.24-.55,28.92v12.49q0,21.36,0,43c0,23.17,11.76,46.39,4.78,69-8.32,26.92,4,54,6.42,77.91,3.92,37.86-12.44,74.9-11.24,113.45.46,14.71,0,29.47,0,44.26v561.28q0,14.88,0,29.74c0,10.21,0,20.4.22,30.62.07,3.92.14,7.83.36,11.75,1.81,32.18,6.59,63.23,4,96-.65,8.44.44,16.87,1.86,25.32,1.85,11,3.91,21.87,2.88,32.92-2.61,28.25-8.61,56.28-9.21,84.52-.14,6.36-.17,12.72-.14,19.09.06,12.86,0,25.71,0,38.53v401.2c0,25.82.18,51.45-.09,76.81-.18,17.88-.82,35.67-.92,53.38-.39,69.71-4,138.88-4.83,205.82q-.21,17-.12,33.83c0,18.65.85,37.25,1.54,55.59.57,15.46,1,30.73.87,45.69q-.09,9.35-.31,18.73c-.13,6.47-.19,12.94-.45,19.41-.1,2.42-.11,4.81-.16,7.18-.25,12.36.76,24.26,1.16,36.6.29,8.93-1,17.48-2.49,26-.83,4.74-1.77,9.47-2.32,14.28-.39,23.37-.3,46.68.15,70,.23,11.63.48,23.25.92,34.85.54,14.45,1.2,28.92,1.77,43.41a1486.94,1486.94,0,0,1-5.78,201.33c-1.06,11-2.2,22-3.53,33-.76,6.25-.83,12.71-1,19-1.6,53.19-5.14,105.87-4.48,159q.21,17.94,1.13,35.59A794.53,794.53,0,0,0,1145,4233.76c4.28,20.41,0,37.77,3.49,51.47"/><path class="cls-2" d="M1168.1-62.09v86c0,14,.08,29.48,0,46.52-.09,19.78,3.58,39.22,4.43,61.64a144.56,144.56,0,0,1-.19,16.26c-1.34,17.52-4.24,35.3-4.24,55.11V757.93c0,8.47,0,16.93-.31,25.45a209.28,209.28,0,0,0,0,103.35c.35,8.65.35,17.37.35,26.19,0,55.53-.36,112.57,0,170.88.06,9.5.22,19,.53,28.63a657.69,657.69,0,0,1,0,88.12c-.38,9.6-.49,19.28-.51,29v12.52q0,21.39,0,43.07c0,23.22,11.95,46.48,4.86,69.12-8.46,27,4,54.18,6.53,78,4,37.93-12.65,75-11.43,113.66.47,14.74,0,29.53,0,44.35v562.42q0,14.9,0,29.8c0,10.22,0,20.44.22,30.68.07,3.92.14,7.85.36,11.77,1.82,32.25,6.55,63.36,3.87,96.17-.69,8.46.4,16.91,1.83,25.38,1.86,11.05,3.95,21.92,2.93,33-2.6,28.17-8.51,56.13-9.07,84.29q-.18,9.51-.13,19c.05,12.78,0,25.54,0,38.29v400.07c0,25.74.17,51.29-.08,76.59-.17,17.83-.76,35.57-.86,53.23-.37,69.57-3.76,138.53-4.51,205.26q-.2,17-.12,33.73c0,18.61.8,37.15,1.44,55.44.54,15.42,1,30.66.82,45.6q-.09,9.32-.29,18.67c-.12,6.45-.18,12.91-.42,19.36-.09,2.41-.1,4.79-.15,7.16-.27,12.32.6,24.22.94,36.52.24,8.9-1,17.44-2.4,26-.78,4.74-1.68,9.46-2.22,14.26-.46,23.31-.44,46.56-.08,69.78.19,11.6.39,23.19.78,34.76.48,14.42,1.07,28.86,1.58,43.31a1581.58,1581.58,0,0,1-5.69,200.8c-1,11-2.1,22-3.37,32.92-.73,6.24-.79,12.67-1,18.91-1.77,53.17-5.35,105.83-4.78,158.89q.25,17.91,1.15,35.57a779.32,779.32,0,0,0,16,125.73c4.32,20.19,0,37.52,3.55,51.45"/><path class="cls-2" d="M1188-62.94V23.24c0,14,.07,29.54,0,46.61-.09,19.76,3.32,39.36,4.1,61.85A155.29,155.29,0,0,1,1192,148c-1.24,17.58-3.93,35.47-3.93,55.32V758.92c0,8.48,0,17-.32,25.5a206.79,206.79,0,0,0,0,103.54c.35,8.67.36,17.4.36,26.25,0,55.64-.34,112.8,0,171.22q.08,14.28.48,28.69a711.27,711.27,0,0,1,0,88.33c-.36,9.62-.46,19.32-.47,29V1244q0,21.43,0,43.16c0,23.27,12.14,46.58,4.94,69.24-8.6,27,4.09,54.32,6.63,78.19,4,38-12.85,75.18-11.6,113.88.47,14.77,0,29.59,0,44.44v593.42c0,10.24,0,20.48.22,30.73.08,3.94.15,7.87.37,11.8,1.82,32.32,6.5,63.49,3.69,96.38-.73,8.48.36,16.94,1.79,25.44,1.88,11.06,4,22,3,33-2.58,28.08-8.39,56-8.91,84.06-.12,6.33-.15,12.65-.13,19,0,12.7,0,25.38,0,38v398.93c0,25.67.15,51.15-.08,76.38-.16,17.78-.71,35.47-.8,53.08-.34,69.43-3.49,138.17-4.19,204.7q-.18,16.91-.11,33.64c0,18.56.74,37.05,1.34,55.28.5,15.39.91,30.59.76,45.5q-.09,9.3-.27,18.62c-.12,6.43-.17,12.87-.39,19.31-.09,2.39-.09,4.77-.14,7.13-.28,12.29.44,24.18.72,36.46.2,8.87-1,17.4-2.3,25.91-.75,4.74-1.61,9.46-2.13,14.25-.52,23.23-.58,46.43-.3,69.59.14,11.56.3,23.13.63,34.67.42,14.39.93,28.79,1.39,43.21a1685.85,1685.85,0,0,1-5.6,200.26c-1,11-2,21.93-3.21,32.86-.7,6.23-.76,12.63-1,18.86-1.94,53.14-5.68,105.79-5.09,158.82q.27,17.91,1.17,35.56a764.68,764.68,0,0,0,16.26,125.65c4.35,20,0,37.27,3.6,51.43"/><path class="cls-2" d="M1208-63.79V22.56c0,14,.07,29.6,0,46.71-.08,19.75,3.06,39.5,3.79,62.06.17,5.41.19,10.91-.16,16.33-1.15,17.63-3.63,35.64-3.63,55.52V759.91c0,8.5,0,17-.33,25.55a204.28,204.28,0,0,0,0,103.73c.35,8.69.36,17.44.36,26.3,0,55.76-.32,113,0,171.56,0,9.55.18,19.12.45,28.76a773.75,773.75,0,0,1,0,88.54c-.33,9.64-.42,19.36-.43,29.1V1246q0,21.48,0,43.24c0,23.32,12.34,46.67,5,69.37-8.74,27.11,4.15,54.45,6.74,78.33,4.12,38.09-13.06,75.31-11.79,114.08.48,14.81,0,29.66,0,44.54v594.61c0,10.27,0,20.53.23,30.8.07,3.94.14,7.88.36,11.82,1.83,32.38,6.45,63.62,3.51,96.6-.76,8.49.32,17,1.77,25.48,1.88,11.09,4,22,3,33.11-2.56,28-8.28,55.83-8.76,83.83q-.16,9.47-.12,18.93c0,12.62,0,25.23,0,37.82v397.8c0,25.59.14,51-.08,76.16-.15,17.73-.65,35.38-.73,52.93-.32,69.3-3.23,137.82-3.87,204.13q-.16,16.86-.1,33.55c0,18.51.69,36.95,1.24,55.13.46,15.35.84,30.52.69,45.4q-.07,9.29-.24,18.57c-.11,6.42-.16,12.84-.37,19.25-.07,2.39-.07,4.76-.13,7.12-.29,12.26.32,24.14.5,36.38.17,8.84-.92,17.37-2.19,25.87-.71,4.73-1.53,9.45-2,14.23q-.87,34.76-.53,69.4c.09,11.54.21,23.07.49,34.59.35,14.35.8,28.72,1.19,43.11a1806.54,1806.54,0,0,1-5.5,199.73c-.92,11-1.9,21.88-3.06,32.79-.65,6.22-.71,12.59-1,18.81-2.11,53.12-6,105.76-5.39,158.76q.27,17.88,1.19,35.54a749.67,749.67,0,0,0,16.52,125.57c4.39,19.74,0,37,3.66,51.4"/><path class="cls-2" d="M1227.87-64.64V21.88c0,14,.06,29.66,0,46.8-.07,19.74,2.81,39.65,3.47,62.28.16,5.42.18,10.92-.14,16.37-1,17.68-3.33,35.8-3.33,55.71V760.9c0,8.52,0,17-.33,25.6a202.06,202.06,0,0,0,0,103.92c.36,8.71.37,17.47.37,26.35,0,55.88-.29,113.26,0,171.91,0,9.57.17,19.16.41,28.82a850.07,850.07,0,0,1,0,88.74c-.31,9.67-.39,19.4-.4,29.16V1248q0,21.52,0,43.34c0,23.35,12.52,46.75,5.09,69.49-8.88,27.17,4.22,54.57,6.84,78.47,4.19,38.16-13.26,75.44-12,114.29.49,14.84,0,29.72,0,44.63V2194c0,10.28,0,20.56.23,30.86.08,4,.15,7.9.37,11.84,1.83,32.45,6.4,63.76,3.33,96.81-.8,8.52.26,17,1.74,25.54,1.87,11.1,4.08,22.05,3.07,33.17-2.55,27.91-8.17,55.68-8.61,83.6q-.15,9.43-.12,18.88c0,12.54,0,25.07,0,37.57V2929c0,25.52.13,50.85-.07,75.94-.14,17.68-.6,35.28-.67,52.78-.29,69.16-3,137.46-3.55,203.57q-.15,16.82-.09,33.45c0,18.47.63,36.85,1.13,55,.42,15.3.77,30.43.64,45.3q-.08,9.24-.22,18.51c-.1,6.4-.15,12.8-.34,19.2-.07,2.38-.06,4.75-.12,7.09-.3,12.23.16,24.11.28,36.32a167.18,167.18,0,0,1-2.09,25.82c-.67,4.73-1.46,9.44-1.94,14.22q-1,34.65-.77,69.21c0,11.51.13,23,.36,34.5.28,14.32.66,28.66,1,43a1947.55,1947.55,0,0,1-5.41,199.2c-.87,10.92-1.8,21.83-2.9,32.72-.62,6.2-.68,12.56-.95,18.76-2.27,53.09-6.33,105.72-5.68,158.7q.27,17.86,1.2,35.52a735.75,735.75,0,0,0,16.78,125.5c4.42,19.51,0,36.76,3.71,51.37"/><path class="cls-2" d="M1247.79-65.49V21.2c0,14.06.06,29.72,0,46.9-.07,19.73,2.55,39.79,3.16,62.49.14,5.42.16,10.94-.13,16.4-1,17.75-3,36-3,55.92v559c0,8.53,0,17.06-.34,25.65a199.91,199.91,0,0,0,0,104.11c.36,8.72.37,17.51.37,26.41,0,56-.26,113.48,0,172.25,0,9.59.16,19.2.37,28.88,1.34,29.42,1.47,59.2,0,89-.28,9.69-.35,19.44-.36,29.22V1250q0,21.55,0,43.42c0,23.4,12.71,46.84,5.17,69.62-9,27.23,4.29,54.7,7,78.6,4.25,38.25-13.46,75.58-12.16,114.51.5,14.87,0,29.78,0,44.72v597c0,10.31,0,20.61.23,30.93.08,3.95.15,7.91.37,11.86,1.84,32.52,6.36,63.89,3.15,97-.82,8.54.23,17,1.71,25.59,1.89,11.13,4.13,22.11,3.12,33.24-2.53,27.83-8,55.52-8.46,83.38q-.14,9.4-.11,18.81c0,12.47,0,24.92,0,37.34v395.54c0,25.45.11,50.71-.06,75.73-.13,17.63-.55,35.18-.61,52.63-.27,69-2.69,137.11-3.23,203q-.14,16.77-.08,33.36c0,18.42.57,36.74,1,54.83.38,15.26.7,30.36.58,45.2q-.06,9.23-.21,18.46c-.09,6.39-.13,12.77-.3,19.14-.06,2.38-.05,4.74-.11,7.08-.32,12.19,0,24.07.06,36.24a183.19,183.19,0,0,1-2,25.78c-.62,4.73-1.37,9.44-1.84,14.2-.72,23-1,46.05-1,69,0,11.48,0,22.95.22,34.41.22,14.29.53,28.59.8,42.91,1.24,66.13-.33,132.62-5.32,198.66-.82,10.9-1.71,21.79-2.74,32.66-.59,6.19-.64,12.52-.93,18.71-2.45,53.07-6.67,105.69-6,158.63q.27,17.85,1.22,35.51c2.24,43.37,7.74,85.19,17,125.42,4.45,19.29,0,36.51,3.77,51.35"/><path class="cls-2" d="M1267.71-66.34V20.53c0,14.08,0,29.77,0,47-.06,19.73,2.3,39.94,2.84,62.71.13,5.43.15,10.95-.12,16.44-.85,17.8-2.72,36.14-2.72,56.12V762.87c0,8.56,0,17.1-.34,25.71a197.62,197.62,0,0,0,0,104.3c.37,8.74.38,17.54.38,26.46,0,56.1-.23,113.72,0,172.6,0,9.61.14,19.24.34,28.94,1.2,29.48,1.32,59.32,0,89.16-.25,9.71-.32,19.48-.33,29.28V1252q0,21.62,0,43.51c0,23.45,12.9,46.93,5.25,69.74-9.16,27.3,4.36,54.84,7,78.75,4.33,38.32-13.66,75.71-12.34,114.72.5,14.9,0,29.84,0,44.81v598.2c0,10.32,0,20.65.24,31,.08,4,.14,7.93.37,11.9,1.83,32.57,6.31,64,3,97.23-.86,8.55.19,17.08,1.68,25.64,1.9,11.14,4.17,22.15,3.16,33.3-2.51,27.74-7.94,55.37-8.3,83.15q-.13,9.38-.1,18.76c0,12.39,0,24.75,0,37.1v394.41c0,25.37.1,50.56,0,75.51-.12,17.58-.5,35.08-.56,52.48-.24,68.88-2.41,136.75-2.9,202.45q-.12,16.72-.07,33.26c0,18.37.51,36.64.92,54.68.35,15.23.64,30.29.53,45.1q-.06,9.21-.19,18.41c-.08,6.37-.12,12.74-.27,19.09-.06,2.37,0,4.72-.1,7.06-.33,12.15-.16,24-.16,36.17a202.88,202.88,0,0,1-1.9,25.73c-.59,4.72-1.3,9.43-1.75,14.19-.78,23-1.15,45.92-1.23,68.84,0,11.45,0,22.89.08,34.33.15,14.25.39,28.52.6,42.8,1,65.95-.53,132.23-5.22,198.13-.78,10.87-1.61,21.74-2.58,32.58-.55,6.19-.61,12.49-.92,18.67-2.62,53-7,105.65-6.29,158.57q.28,17.84,1.24,35.49c2.28,43.18,7.79,85,17.29,125.34,4.49,19.07,0,36.27,3.84,51.32"/><path class="cls-2" d="M1287.63-67.19v87c0,14.11,0,29.83,0,47.08-.05,19.71,2,40.08,2.53,62.92.1,5.44.13,11-.11,16.48-.76,17.85-2.42,36.3-2.42,56.32V763.86c0,8.57,0,17.13-.34,25.76a195.51,195.51,0,0,0,0,104.49c.37,8.76.38,17.58.38,26.51,0,56.22-.21,113.95,0,172.95,0,9.63.13,19.28.3,29,1.07,29.55,1.17,59.44,0,89.36-.22,9.74-.28,19.53-.29,29.35V1254q0,21.66,0,43.6c0,23.5,13.09,47,5.33,69.87-9.3,27.36,4.42,55,7.16,78.89,4.39,38.39-13.87,75.84-12.53,114.93.51,14.93,0,29.9,0,44.9v599.39c0,10.35,0,20.69.24,31,.08,4,.15,8,.37,11.92,1.84,32.64,6.27,64.14,2.79,97.44-.89,8.57.16,17.12,1.65,25.69,1.92,11.16,4.22,22.2,3.21,33.37-2.49,27.66-7.82,55.22-8.15,82.92q-.1,9.35-.09,18.71c0,12.3,0,24.59,0,36.86v393.27c0,25.3.09,50.42-.05,75.3-.1,17.54-.43,35-.49,52.34-.21,68.73-2.15,136.39-2.58,201.88q-.1,16.66-.06,33.16c0,18.33.45,36.55.82,54.54.31,15.18.56,30.2.47,45q-.06,9.18-.17,18.35c-.07,6.35-.1,12.7-.24,19-.06,2.36,0,4.7-.09,7-.34,12.13-.32,24-.38,36.1a229.56,229.56,0,0,1-1.8,25.69c-.55,4.72-1.23,9.42-1.66,14.17q-1.26,34.36-1.46,68.66c-.08,11.41-.13,22.83-.06,34.24.09,14.22.29,28.45.41,42.7.8,65.77-.73,131.84-5.13,197.59-.73,10.85-1.51,21.7-2.42,32.52-.52,6.17-.58,12.45-.9,18.62-2.79,53-7.32,105.62-6.6,158.51q.29,17.81,1.26,35.48c2.31,43,7.84,84.78,17.55,125.26,4.53,18.84,0,36,3.89,51.29"/><path class="cls-2" d="M1307.55-68V19.17c0,14.14,0,29.9,0,47.17,0,19.71,1.75,40.23,2.21,63.14.09,5.44.12,11-.09,16.51-.67,17.91-2.12,36.47-2.12,56.53V764.85c0,8.59,0,17.16-.35,25.81a193.68,193.68,0,0,0,0,104.69c.38,8.77.39,17.6.39,26.56,0,56.33-.18,114.17,0,173.29q0,14.46.26,29.06c.94,29.61,1,59.56,0,89.57-.2,9.76-.25,19.57-.26,29.41v12.7q0,21.69,0,43.68c0,23.55,13.28,47.12,5.41,70-9.44,27.42,4.49,55.09,7.26,79,4.46,38.48-14.07,76-12.71,115.15.52,15,0,30,0,45v600.59c0,10.37,0,20.73.24,31.11.09,4,.15,8,.38,11.94,1.84,32.71,6.22,64.28,2.61,97.65-.93,8.59.12,17.16,1.62,25.75,1.93,11.17,4.26,22.25,3.26,33.43-2.48,27.57-7.72,55.07-8,82.69q-.11,9.33-.09,18.65c0,12.23,0,24.44,0,36.63v392.14c0,25.23.08,50.27,0,75.08-.09,17.49-.38,34.89-.43,52.19-.19,68.6-1.88,136-2.26,201.32q-.09,16.62,0,33.07c0,18.28.4,36.44.72,54.38.27,15.14.49,30.13.4,44.9q0,9.16-.14,18.3c-.06,6.34-.09,12.67-.22,19,0,2.35,0,4.69-.07,7-.36,12.09-.48,24-.61,36-.07,8.67-.78,17.16-1.69,25.64-.51,4.71-1.15,9.41-1.56,14.16q-1.36,34.26-1.7,68.46c-.12,11.39-.21,22.78-.2,34.16,0,14.18.15,28.38.22,42.6.5,65.59-.93,131.45-5,197.06q-1,16.23-2.26,32.45c-.5,6.16-.54,12.41-.89,18.57-3,53-7.65,105.58-6.89,158.44q.29,17.8,1.27,35.47c2.35,42.81,7.85,84.59,17.81,125.18,4.54,18.62,0,35.76,3.95,51.26"/><path class="cls-2" d="M1327.47-68.89V18.49c0,14.17,0,30,0,47.27,0,19.7,1.5,40.37,1.9,63.35.08,5.45.1,11-.08,16.55-.57,18-1.82,36.63-1.82,56.72V765.84c0,8.61,0,17.2-.35,25.86a191.5,191.5,0,0,0,0,104.88c.38,8.78.39,17.64.39,26.61,0,56.45-.15,114.41,0,173.64q0,14.49.23,29.12c.8,29.67.88,59.68,0,89.78-.17,9.78-.21,19.61-.22,29.47v12.72q0,21.74,0,43.77c0,23.6,13.48,47.21,5.49,70.13-9.58,27.47,4.56,55.22,7.37,79.16,4.53,38.55-14.28,76.11-12.9,115.36.53,15,0,30,0,45.08v601.79c0,10.38,0,20.77.25,31.17.08,4,.15,8,.37,12,1.85,32.77,6.18,64.41,2.44,97.86-1,8.62.07,17.2,1.59,25.81,1.94,11.19,4.3,22.29,3.3,33.49-2.45,27.48-7.6,54.91-7.85,82.46q-.09,9.3-.08,18.6c0,12.15,0,24.28,0,36.38v391c0,25.15.07,50.12,0,74.86-.08,17.44-.33,34.79-.37,52-.16,68.46-1.61,135.68-1.94,200.76q-.08,16.58,0,33c0,18.23.34,36.34.61,54.23.23,15.11.42,30.06.35,44.8q0,9.14-.12,18.25c-.06,6.32-.08,12.63-.19,18.93,0,2.34,0,4.67-.07,7-.36,12-.63,23.91-.82,35.95-.12,8.64-.75,17.13-1.6,25.6-.47,4.71-1.07,9.41-1.46,14.14q-1.45,34.17-1.93,68.28c-.17,11.36-.3,22.72-.33,34.07,0,14.15,0,28.32,0,42.5.21,65.41-1.12,131.06-4.94,196.52q-.94,16.2-2.1,32.39c-.46,6.15-.51,12.38-.87,18.52-3.14,53-8,105.54-7.2,158.38q.28,17.79,1.29,35.45c2.38,42.63,8,84.38,18.07,125.1,4.6,18.39,0,35.51,4,51.24"/><path class="cls-2" d="M1347.39-69.75V65.18c-.06,19.68,1.25,40.51,1.58,63.56.07,5.46.08,11-.06,16.59-.48,18-1.52,36.8-1.52,56.92V766.83c0,8.62,0,17.23-.36,25.91a189.75,189.75,0,0,0,0,105.07c.39,8.8.4,17.67.4,26.66,0,56.56-.13,114.64,0,174q0,14.52.19,29.17c.67,29.74.74,59.81,0,90-.14,9.8-.18,19.65-.19,29.52v12.76q0,21.78,0,43.85c0,23.65,13.66,47.3,5.56,70.25-9.72,27.54,4.67,55.35,7.47,79.31,4.67,38.61-14.48,76.24-13.08,115.57.54,15,0,30.08,0,45.17v603c0,10.41,0,20.81.25,31.23.09,4,.15,8,.38,12,1.85,32.84,6.13,64.54,2.25,98.08-1,8.63,0,17.23,1.56,25.85,2,11.21,4.35,22.34,3.35,33.56-2.43,27.4-7.49,54.76-7.69,82.23,0,6.18-.09,12.36-.08,18.55q0,18.09,0,36.14v389.88c0,25.08.06,50,0,74.65-.06,17.39-.27,34.69-.3,51.89-.14,68.32-1.35,135.32-1.62,200.2q-.06,16.52,0,32.87c0,18.19.29,36.24.52,54.09.19,15.06.35,30,.29,44.7q0,9.11-.1,18.19c0,6.3-.07,12.6-.16,18.87,0,2.34,0,4.67-.06,7-.38,12-.79,23.87-1,35.89-.16,8.6-.73,17.08-1.5,25.55-.43,4.71-1,9.4-1.37,14.13q-1.56,34.07-2.15,68.09-.33,17-.48,34c-.11,14.12-.13,28.25-.18,42.4-.08,65.23-1.32,130.67-4.85,196q-.88,16.17-2,32.32c-.42,6.13-.46,12.34-.85,18.47-3.31,53-8.3,105.51-7.5,158.32q.3,17.76,1.31,35.43c2.42,42.45,8,84.2,18.33,125,4.61,18.17,0,35.25,4.06,51.21"/><path class="cls-2" d="M1367.32-70.6V64.59c-.06,19.68,1,40.66,1.26,63.78.05,5.46.06,11,0,16.62-.38,18.08-1.21,37-1.21,57.13v565.7c0,8.64,0,17.26-.37,26a187.69,187.69,0,0,0,0,105.26c.39,8.82.41,17.71.41,26.72v174.32c0,9.71.06,19.46.15,29.24.53,29.8.58,59.93,0,90.2-.11,9.83-.14,19.7-.14,29.59v12.78q0,21.83,0,43.95c0,23.69,13.85,47.38,5.64,70.37-9.86,27.6,4.74,55.48,7.58,79.44,4.74,38.7-14.69,76.38-13.26,115.79.54,15,0,30.14,0,45.26v604.18c0,10.43,0,20.85.24,31.29.09,4,.16,8,.38,12,1.85,32.91,6.08,64.68,2.08,98.29-1,8.65,0,17.27,1.53,25.91,2,11.22,4.39,22.38,3.4,33.62-2.42,27.31-7.38,54.61-7.55,82,0,6.17-.08,12.33-.07,18.49q0,18,0,35.91v388.75q0,37.5,0,74.43c-.08,17.34-.22,34.59-.24,51.74-.11,68.18-1.08,135-1.29,199.63q-.06,16.49,0,32.79c0,18.14.23,36.13.41,53.93.16,15,.29,29.9.24,44.6q0,9.09-.09,18.14c0,6.29,0,12.56-.12,18.82,0,2.33,0,4.65-.05,7-.39,12-.95,23.83-1.26,35.81-.21,8.57-.7,17.05-1.4,25.51-.39,4.7-.92,9.39-1.28,14.11q-1.65,34-2.38,67.91-.39,16.95-.62,33.89-.23,21.14-.37,42.29c-.38,65.06-1.53,130.29-4.76,195.46q-.81,16.14-1.79,32.26c-.38,6.12-.43,12.3-.83,18.41-3.48,52.94-8.64,105.48-7.81,158.26q.3,17.76,1.33,35.42c2.45,42.27,8,84,18.59,124.95,4.64,17.95,0,35,4.11,51.18"/><path class="cls-2" d="M1387.24-71.45V64c0,19.67.75,40.79.94,64,0,5.47,0,11,0,16.66-.31,18.13-.9,37.13-.9,57.33V768.8c0,8.66,0,17.3-.37,26a186,186,0,0,0,0,105.45c.4,8.84.42,17.74.42,26.77v174.67c0,9.73,0,19.5.11,29.3.4,29.86.44,60,0,90.41-.09,9.85-.11,19.74-.11,29.65v12.81q0,21.86,0,44c0,23.73,14,47.47,5.72,70.5-10,27.66,4.8,55.61,7.68,79.58,4.81,38.77-14.89,76.51-13.44,116,.55,15.07,0,30.2,0,45.35v605.37c0,10.45,0,20.9.25,31.36.09,4,.15,8,.38,12,1.85,33,6,64.81,1.89,98.5-1.06,8.67,0,17.31,1.5,26,2,11.25,4.44,22.44,3.45,33.69-2.4,27.23-7.27,54.46-7.4,81.77,0,6.15-.06,12.3-.06,18.44q0,17.86,0,35.67v387.61q0,37.41,0,74.22c-.06,17.29-.17,34.49-.19,51.59-.08,68-.8,134.61-1,199.07q0,16.44,0,32.69c0,18.09.17,36,.31,53.78.12,15,.21,29.83.18,44.5q0,9.07-.07,18.09,0,9.41-.09,18.77c0,2.32,0,4.63,0,6.93-.41,12-1.11,23.8-1.49,35.75-.25,8.54-.67,17-1.3,25.46-.34,4.7-.83,9.39-1.17,14.1q-1.75,33.87-2.62,67.72-.46,16.89-.76,33.8-.33,21.09-.57,42.19c-.67,64.87-1.72,129.9-4.67,194.93q-.72,16.1-1.62,32.19c-.35,6.11-.4,12.26-.82,18.36-3.65,52.91-9,105.45-8.11,158.2q.32,17.73,1.35,35.4c2.48,42.09,8,83.81,18.84,124.87,4.68,17.73,0,34.76,4.18,51.16"/></g></svg>