<svg xmlns="http://www.w3.org/2000/svg" viewBox="0 0 1365 4220"><defs><style>.cls-1{fill:#fff;}</style></defs><title>nmg-background</title><g id="flow-backgr"><rect class="cls-1" x="-38" y="-52" width="1435" height="4312"/></g><g id="flow"><path d="M-433.51,162.17a662.61,662.61,0,0,1-93.39-6.65,653.52,653.52,0,0,1-181.18-53.07c-58.56-26.93-111.39-62-157-104.21l2.71-2.94c183.43,169.78,478.79,211.82,702.31,100C-.31,15.32,115.07-127.71,226.65-266c62.77-77.8,127.67-158.26,200.17-227.44C629.74-687.11,907-800.81,1187.42-805.42l.07,4C908-796.83,631.78-683.53,429.58-490.57c-72.31,69-137.13,149.35-199.81,227.05-56,69.39-113.85,141.14-176.51,204C-17,11-86.22,62.78-158.27,98.84c-55.58,27.82-116.09,46.75-179.85,56.27A644.89,644.89,0,0,1-433.51,162.17Z"/><path d="M-420.55,201.84a661.37,661.37,0,0,1-93.4-6.65,653.68,653.68,0,0,1-181.17-53.06c-58.57-26.94-111.39-62-157-104.22l2.72-2.93c183.43,169.77,478.79,211.81,702.3,100C12.65,55,128-88,239.61-226.36c62.76-77.8,127.66-158.25,200.16-227.44,202.92-193.64,480.15-307.34,760.61-311.95l.06,4C921-757.15,644.74-643.86,442.53-450.9c-72.31,69-137.13,149.35-199.81,227.05-56,69.39-113.85,141.14-176.51,204C-4.07,50.65-73.26,102.46-145.32,138.51c-55.58,27.82-116.09,46.75-179.85,56.27A644.76,644.76,0,0,1-420.55,201.84Z"/><path d="M-407.6,241.51a662.84,662.84,0,0,1-93.4-6.64A653.79,653.79,0,0,1-682.17,181.8c-58.57-26.93-111.39-62-157-104.22l2.72-2.93c183.43,169.77,478.79,211.81,702.31,100C25.6,94.66,141-48.37,252.56-186.68c62.76-77.81,127.66-158.26,200.16-227.45,202.93-193.63,480.16-307.34,760.61-312l.07,4c-279.46,4.6-555.71,117.9-757.91,310.85-72.32,69-137.13,149.35-199.82,227.06-56,69.38-113.85,141.13-176.5,204C8.88,90.32-60.31,142.13-132.36,178.19c-55.59,27.81-116.1,46.74-179.85,56.26A644.89,644.89,0,0,1-407.6,241.51Z"/><path d="M-394.65,281.18A662.81,662.81,0,0,1-488,274.54a653.69,653.69,0,0,1-181.17-53.07c-58.57-26.93-111.4-62-157-104.22l2.72-2.93c183.43,169.77,478.79,211.81,702.3,100C38.56,134.33,153.93-8.69,265.51-147c62.77-77.81,127.67-158.26,200.17-227.44C668.6-568.09,945.83-681.79,1226.29-686.4l.06,4c-279.46,4.59-555.7,117.89-757.91,310.84-72.31,69-137.13,149.35-199.81,227.06-56,69.38-113.85,141.13-176.51,204C21.84,130-47.35,181.8-119.41,217.86-175,245.67-235.5,264.6-299.26,274.13A646.14,646.14,0,0,1-394.65,281.18Z"/><path d="M-381.69,320.86a662.86,662.86,0,0,1-93.4-6.65,653.79,653.79,0,0,1-181.17-53.07c-58.57-26.93-111.39-62-157-104.21l2.72-2.94C-627.12,323.77-331.76,365.8-108.24,254,51.51,174,166.89,31,278.47-107.34c62.76-77.81,127.66-158.26,200.16-227.44,202.93-193.64,480.16-307.34,760.61-312l.07,4C959.85-638.14,683.6-524.84,481.39-331.89c-72.31,69-137.12,149.35-199.81,227.06-56,69.38-113.85,141.13-176.5,204C34.79,169.67-34.4,221.47-106.45,257.53-162,285.34-222.55,304.28-286.3,313.8A646.25,646.25,0,0,1-381.69,320.86Z"/><path d="M-368.74,360.53a662.82,662.82,0,0,1-93.39-6.65,653.52,653.52,0,0,1-181.18-53.07c-58.56-26.93-111.39-62-157-104.21l2.71-2.94c183.43,169.78,478.8,211.81,702.31,100,159.75-79.94,275.13-223,386.71-361.29,62.77-77.81,127.67-158.26,200.17-227.44,202.92-193.64,480.15-307.34,760.6-311.95l.07,4C972.8-598.47,696.55-485.17,494.35-292.22,422-223.21,357.22-142.86,294.54-65.16,238.57,4.23,180.69,76,118,138.83,47.75,209.34-21.45,261.14-93.5,297.2-149.08,325-209.59,344-273.35,353.47A646.25,646.25,0,0,1-368.74,360.53Z"/><path d="M-355.78,400.2a662.86,662.86,0,0,1-93.4-6.65,653.78,653.78,0,0,1-181.17-53.06c-58.57-26.94-111.39-62-157-104.22l2.72-2.94c183.43,169.78,478.79,211.82,702.31,100,159.75-80,275.13-223,386.71-361.3C367.14-105.8,432-186.26,504.54-255.44,707.47-449.08,984.7-562.78,1265.15-567.39l.06,4C985.76-558.8,709.51-445.5,507.3-252.54,435-183.54,370.18-103.19,307.49-25.49c-56,69.39-113.85,141.14-176.5,204C60.7,249-8.49,300.81-80.54,336.87c-55.59,27.82-116.1,46.75-179.85,56.27A645,645,0,0,1-355.78,400.2Z"/><path d="M-342.83,439.87a662.6,662.6,0,0,1-93.39-6.64A654.2,654.2,0,0,1-617.4,380.16c-58.56-26.94-111.39-62-157-104.22l2.71-2.93C-588.26,442.78-292.9,484.82-69.38,373,90.37,293,205.75,150,317.33,11.67,380.1-66.13,445-146.58,517.5-215.77c202.92-193.64,480.15-307.34,760.6-312l.07,4c-279.46,4.6-555.71,117.89-757.91,310.85C448-143.87,383.13-63.52,320.45,14.18c-56,69.39-113.85,141.14-176.51,204C73.66,288.68,4.46,340.49-67.59,376.54c-55.58,27.82-116.09,46.75-179.85,56.27A644.89,644.89,0,0,1-342.83,439.87Z"/><path d="M-329.88,479.54a662.81,662.81,0,0,1-93.39-6.64,653.69,653.69,0,0,1-181.17-53.07c-58.57-26.93-111.39-62-157-104.22l2.72-2.93c183.43,169.77,478.79,211.81,702.3,100,159.76-79.95,275.14-223,386.72-361.3C393.05-26.46,458-106.91,530.45-176.09c202.93-193.64,480.16-307.34,760.61-312l.06,4c-279.45,4.59-555.7,117.89-757.91,310.84C460.9-104.2,396.08-23.85,333.4,53.85c-56,69.39-113.85,141.14-176.51,204C86.61,328.35,17.42,380.16-54.64,416.21-110.22,444-170.73,463-234.49,472.49A646.14,646.14,0,0,1-329.88,479.54Z"/><path d="M-316.92,519.21a662.84,662.84,0,0,1-93.4-6.64A653.79,653.79,0,0,1-591.49,459.5c-58.57-26.93-111.39-62-157-104.21l2.72-2.94C-562.35,522.13-267,564.16-43.47,452.31,116.28,372.37,231.66,229.34,343.24,91,406,13.21,470.91-67.24,543.4-136.42c202.93-193.64,480.16-307.34,760.61-312l.07,4c-279.46,4.59-555.71,117.89-757.91,310.84C473.85-64.53,409,15.82,346.35,93.53c-56,69.38-113.85,141.13-176.5,204C99.56,368,30.37,419.83-41.68,455.89c-55.59,27.81-116.1,46.74-179.85,56.27A646.34,646.34,0,0,1-316.92,519.21Z"/><path d="M-304,558.89a662.72,662.72,0,0,1-93.39-6.65,653.35,653.35,0,0,1-181.17-53.07c-58.57-26.93-111.4-62-157-104.21l2.71-2.94C-549.4,561.8-254,603.84-30.52,492,129.24,412,244.62,269,356.2,130.69,419,52.88,483.86-27.57,556.36-96.75,759.28-290.39,1036.51-404.09,1317-408.7l.07,4c-279.46,4.59-555.7,117.89-757.91,310.84C486.81-24.85,422,55.5,359.31,133.2c-56,69.39-113.85,141.13-176.51,204C112.52,407.7,43.33,459.5-28.73,495.56c-55.58,27.82-116.09,46.75-179.85,56.27A646.15,646.15,0,0,1-304,558.89Z"/><path d="M-291,598.56a662.86,662.86,0,0,1-93.4-6.65,653.45,653.45,0,0,1-181.17-53.07c-58.57-26.93-111.39-62-157-104.21l2.72-2.94c183.43,169.78,478.79,211.82,702.31,100,159.75-79.94,275.13-223,386.71-361.29C431.91,92.56,496.81,12.1,569.31-57.08,772.24-250.72,1049.47-364.42,1329.92-369l.07,4c-279.46,4.59-555.71,117.89-757.92,310.85C499.76,14.82,435,95.17,372.26,172.87c-56,69.39-113.85,141.14-176.5,204C125.47,447.37,56.28,499.17-15.77,535.23-71.36,563.05-131.87,582-195.62,591.5A645,645,0,0,1-291,598.56Z"/><path d="M-278.06,638.23a661.12,661.12,0,0,1-93.39-6.65,653.84,653.84,0,0,1-181.18-53.06c-58.56-26.94-111.39-62-157-104.22l2.71-2.93c183.43,169.77,478.8,211.81,702.31,100,159.75-80,275.13-223,386.71-361.3,62.77-77.8,127.67-158.25,200.17-227.44C785.19-211,1062.42-324.75,1342.87-329.36l.07,4C1063.48-320.76,787.23-207.47,585-14.51c-72.31,69-137.13,149.35-199.81,227.05-56,69.39-113.85,141.14-176.51,204C138.43,487,69.23,538.84-2.82,574.9c-55.58,27.82-116.09,46.75-179.85,56.27A644.89,644.89,0,0,1-278.06,638.23Z"/><path d="M-265.1,677.9a662.84,662.84,0,0,1-93.4-6.64,653.79,653.79,0,0,1-181.17-53.07c-58.57-26.94-111.39-62-157-104.22L-694,511C-510.53,680.81-215.17,722.85,8.35,611c159.75-80,275.13-223,386.71-361.3C457.82,171.9,522.72,91.45,595.22,22.26c202.93-193.63,480.16-307.34,760.61-311.95l.06,4c-279.46,4.6-555.7,117.9-757.91,310.85-72.31,69-137.12,149.35-199.81,227.05-56,69.39-113.85,141.14-176.5,204C151.38,526.71,82.19,578.52,10.14,614.57c-55.59,27.82-116.1,46.75-179.85,56.27A645,645,0,0,1-265.1,677.9Z"/><path d="M-252.15,717.57a662.6,662.6,0,0,1-93.39-6.64,653.76,653.76,0,0,1-181.18-53.07c-58.57-26.93-111.39-62-157-104.22l2.71-2.93c183.43,169.77,478.79,211.81,702.31,100C181.05,570.72,296.43,427.7,408,289.38c62.77-77.81,127.67-158.26,200.16-227.44C811.1-131.7,1088.33-245.4,1368.78-250l.07,4c-279.46,4.59-555.71,117.89-757.91,310.84-72.31,69-137.13,149.35-199.81,227.06-56,69.38-113.86,141.13-176.51,204C164.33,566.39,95.14,618.19,23.09,654.25-32.49,682.06-93,701-156.76,710.52A646.24,646.24,0,0,1-252.15,717.57Z"/><path d="M-239.2,757.25a662.82,662.82,0,0,1-93.39-6.65,653.69,653.69,0,0,1-181.17-53.07c-58.57-26.93-111.4-62-157-104.21l2.72-2.94c183.43,169.78,478.79,211.81,702.3,100C194,610.4,309.39,467.37,421,329.05c62.76-77.81,127.66-158.26,200.16-227.44C824.05-92,1101.28-205.73,1381.74-210.34l.06,4C1102.34-201.75,826.1-88.45,623.89,104.5c-72.31,69-137.13,149.35-199.81,227.06-56,69.39-113.85,141.13-176.51,204C177.29,606.06,108.1,657.86,36,693.92-19.54,721.73-80,740.67-143.81,750.19A646.15,646.15,0,0,1-239.2,757.25Z"/><path d="M-226.24,796.92a662.86,662.86,0,0,1-93.4-6.65A653.45,653.45,0,0,1-500.81,737.2c-58.57-26.93-111.39-62-157-104.21l2.72-2.94C-471.67,799.83-176.31,841.87,47.21,730,207,650.07,322.34,507,433.92,368.72c62.76-77.8,127.66-158.26,200.16-227.44C837-52.36,1114.24-166.06,1394.69-170.67l.07,4C1115.3-162.08,839.05-48.78,636.84,144.17c-72.31,69-137.12,149.36-199.81,227.06-56,69.39-113.85,141.14-176.5,204C190.24,645.73,121.05,697.53,49,733.59c-55.59,27.82-116.1,46.75-179.85,56.27A646.35,646.35,0,0,1-226.24,796.92Z"/><path d="M-213.29,836.59a662.72,662.72,0,0,1-93.39-6.65,653.84,653.84,0,0,1-181.18-53.06c-58.56-26.94-111.39-62-157-104.22l2.71-2.94c183.44,169.78,478.8,211.82,702.31,100,159.76-80,275.13-223,386.72-361.3C509.64,330.59,574.54,250.13,647,181,850-12.69,1127.19-126.39,1407.64-131l.07,4C1128.25-122.41,852-9.11,649.8,183.85,577.49,252.85,512.67,333.2,450,410.9c-56,69.39-113.85,141.14-176.51,204C203.2,685.4,134,737.21,62,773.26,6.37,801.08-54.14,820-117.9,829.53A644.89,644.89,0,0,1-213.29,836.59Z"/><path d="M-200.33,876.26a662.84,662.84,0,0,1-93.4-6.64A654.13,654.13,0,0,1-474.9,816.55c-58.57-26.94-111.39-62-157-104.22l2.72-2.93c183.43,169.77,478.79,211.81,702.31,100,159.75-80,275.13-223,386.71-361.3C522.59,370.26,587.49,289.81,660,220.62,862.92,27,1140.15-86.72,1420.6-91.33l.07,4C1141.21-82.73,865,30.56,662.75,223.52c-72.31,69-137.12,149.35-199.81,227.06-56,69.38-113.85,141.13-176.51,204C216.15,725.07,147,776.88,74.91,812.93c-55.59,27.82-116.1,46.75-179.85,56.27A645,645,0,0,1-200.33,876.26Z"/><path d="M-187.38,915.93a662.6,662.6,0,0,1-93.39-6.64,653.86,653.86,0,0,1-181.18-53.07c-58.56-26.93-111.39-62-157-104.22l2.71-2.93C-432.81,918.84-137.45,960.88,86.07,849c159.75-79.95,275.13-223,386.71-361.29C535.55,409.93,600.45,329.48,673,260.3,875.87,66.66,1153.1-47,1433.55-51.66l.07,4c-279.46,4.6-555.71,117.9-757.91,310.85-72.31,69-137.13,149.35-199.81,227.06-56,69.38-113.86,141.13-176.51,204C229.1,764.75,159.91,816.55,87.86,852.61,32.28,880.42-28.23,899.35-92,908.88A646.24,646.24,0,0,1-187.38,915.93Z"/><path d="M-174.42,955.6a662.84,662.84,0,0,1-93.4-6.64A653.69,653.69,0,0,1-449,895.89c-58.57-26.93-111.39-62-157-104.21l2.72-2.94c183.43,169.77,478.79,211.81,702.3,100,159.76-80,275.14-223,386.72-361.29C548.5,449.6,613.4,369.15,685.9,300,888.82,106.33,1166.05-7.37,1446.51-12l.06,4c-279.46,4.59-555.7,117.89-757.91,310.84-72.31,69-137.13,149.35-199.81,227.06-56,69.38-113.85,141.13-176.51,204-70.28,70.51-139.47,122.31-211.53,158.37C45.23,920.09-15.28,939-79,948.55A646.1,646.1,0,0,1-174.42,955.6Z"/><path d="M-161.47,995.28a662.86,662.86,0,0,1-93.4-6.65A653.79,653.79,0,0,1-436,935.56c-58.57-26.93-111.39-62-157-104.21l2.71-2.94c183.43,169.78,478.79,211.81,702.31,100,159.75-79.94,275.13-223,386.71-361.29,62.76-77.8,127.67-158.26,200.16-227.44C901.78,146,1179,32.3,1459.46,27.69l.07,4c-279.46,4.59-555.71,117.89-757.91,310.84-72.32,69-137.13,149.36-199.82,227.06-56,69.39-113.85,141.13-176.5,204C255,844.09,185.82,895.89,113.77,932,58.18,959.77-2.33,978.7-66.08,988.22A646.25,646.25,0,0,1-161.47,995.28Z"/><path d="M-148.51,1035a662.86,662.86,0,0,1-93.4-6.65,653.35,653.35,0,0,1-181.17-53.07c-58.57-26.93-111.4-62-157-104.21l2.72-2.94c183.43,169.78,478.79,211.82,702.3,100,159.76-79.94,275.13-223,386.71-361.29C574.41,529,639.31,448.49,711.81,379.31,914.73,185.67,1192,72,1472.42,67.36l.06,4C1193,76,916.78,189.25,714.57,382.21c-72.31,69-137.13,149.35-199.81,227.05-56,69.39-113.85,141.14-176.51,204C268,883.76,198.78,935.56,126.72,971.62c-55.58,27.82-116.09,46.75-179.85,56.27A644.76,644.76,0,0,1-148.51,1035Z"/><path d="M-135.56,1074.62A661.37,661.37,0,0,1-229,1068a653.78,653.78,0,0,1-181.17-53.06c-58.57-26.94-111.39-62-157-104.22l2.72-2.94c183.43,169.78,478.79,211.82,702.31,100,159.75-80,275.13-223,386.71-361.3C587.36,568.62,652.26,488.16,724.76,419c202.93-193.64,480.16-307.34,760.61-312l.07,4C1206,115.63,929.73,228.92,727.52,421.88c-72.31,69-137.12,149.35-199.81,227-56,69.39-113.85,141.14-176.5,204-70.29,70.51-139.48,122.32-211.53,158.37-55.59,27.82-116.1,46.75-179.85,56.27A645,645,0,0,1-135.56,1074.62Z"/><path d="M-122.61,1114.29a662.7,662.7,0,0,1-93.39-6.64,654.2,654.2,0,0,1-181.18-53.07c-58.56-26.93-111.39-62-157-104.22l2.71-2.93c183.43,169.77,478.8,211.81,702.31,100,159.75-80,275.13-223,386.71-361.3,62.77-77.8,127.67-158.25,200.17-227.44C940.64,265,1217.87,151.31,1498.32,146.7l.07,4c-279.46,4.6-555.71,117.9-757.91,310.85-72.31,69-137.13,149.35-199.81,227.05-56,69.39-113.85,141.14-176.51,204C293.88,963.1,224.68,1014.91,152.63,1051c-55.58,27.81-116.09,46.74-179.85,56.26A644.89,644.89,0,0,1-122.61,1114.29Z"/><path d="M-109.65,1154a662.84,662.84,0,0,1-93.4-6.64,653.79,653.79,0,0,1-181.17-53.07c-58.57-26.93-111.39-62-157-104.22l2.72-2.93c183.43,169.77,478.79,211.81,702.31,100,159.75-79.95,275.13-223,386.71-361.3C613.27,648,678.17,567.51,750.67,498.33,953.6,304.69,1230.83,191,1511.28,186.38l.06,4C1231.89,195,955.64,308.27,753.43,501.22c-72.31,69-137.12,149.35-199.81,227.06-56,69.38-113.85,141.13-176.5,204-70.29,70.51-139.48,122.31-211.54,158.37-55.58,27.81-116.09,46.74-179.84,56.27A646.34,646.34,0,0,1-109.65,1154Z"/><path d="M-96.7,1193.63a662.6,662.6,0,0,1-93.39-6.64,653.86,653.86,0,0,1-181.18-53.07c-58.56-26.93-111.39-62-157-104.21l2.71-2.94c183.43,169.78,478.79,211.81,702.31,100,159.75-79.94,275.13-223,386.71-361.29C626.23,687.63,691.13,607.18,763.63,538c202.92-193.64,480.15-307.34,760.6-311.95l.07,4c-279.46,4.59-555.71,117.89-757.91,310.84-72.31,69-137.13,149.35-199.81,227.06-56,69.38-113.85,141.13-176.51,204-70.28,70.51-139.48,122.31-211.53,158.37C123,1158.12,62.45,1177.06-1.31,1186.58A646.24,646.24,0,0,1-96.7,1193.63Z"/><path d="M-83.75,1233.31a662.82,662.82,0,0,1-93.39-6.65,653.35,653.35,0,0,1-181.17-53.07c-58.57-26.93-111.4-62-157-104.21l2.72-2.94c183.43,169.78,478.79,211.81,702.3,100,159.76-79.94,275.14-223,386.72-361.29,62.76-77.81,127.66-158.26,200.16-227.44C979.5,384,1256.74,270.33,1537.19,265.72l.06,4c-279.46,4.59-555.7,117.89-757.91,310.84-72.31,69-137.13,149.36-199.81,227.06-56,69.39-113.85,141.13-176.51,204-70.28,70.51-139.47,122.31-211.53,158.37-55.58,27.82-116.09,46.75-179.85,56.27A646.15,646.15,0,0,1-83.75,1233.31Z"/><path d="M-70.79,1273a662.86,662.86,0,0,1-93.4-6.65,653.78,653.78,0,0,1-181.17-53.06c-58.57-26.94-111.39-62-157-104.22l2.72-2.94c183.43,169.78,478.79,211.82,702.31,100,159.75-79.95,275.13-223,386.71-361.3C652.13,767,717,686.52,789.53,617.34c202.93-193.64,480.16-307.34,760.61-312l.07,4C1270.75,314,994.5,427.28,792.3,620.24c-72.32,69-137.13,149.35-199.82,227-56,69.39-113.85,141.14-176.5,204-70.29,70.51-139.48,122.31-211.53,158.37-55.59,27.82-116.1,46.75-179.85,56.27A645,645,0,0,1-70.79,1273Z"/><path d="M1563.16,349.06c-279.46,4.6-555.7,117.9-757.91,310.85-72.31,69-137.13,149.35-199.81,227.05-56,69.39-113.85,141.14-176.51,204-70.28,70.51-139.47,122.32-211.53,158.37q-12,6-24.33,11.47-5.92,2.63-11.93,5.13-7.2.69-14.4,1.43,6.69-2.58,13.3-5.34,18.06-7.5,35.57-16.26c159.76-80,275.14-223,386.72-361.3C665.09,806.65,730,726.2,802.49,657c202.92-193.63,480.15-307.34,760.6-311.95Z"/><path d="M1576.12,388.74c-279.46,4.59-555.71,117.89-757.92,310.84-72.31,69-137.12,149.35-199.81,227.06-56,69.38-113.85,141.13-176.5,204-50.18,50.33-99.81,91.14-150.31,123.49h0q-3.39,2.18-6.78,4.29l-8.28.4c2.35-1.43,4.68-2.88,7-4.34h0c132.07-82.81,233.39-208.41,331.75-330.35C678,846.32,742.94,765.87,815.44,696.69c202.93-193.64,480.16-307.34,760.61-312Z"/><path d="M1589.07,428.41C1309.61,433,1033.36,546.3,831.16,739.25,758.85,808.25,694,888.6,631.35,966.31c-56,69.38-113.85,141.13-176.51,204a990.28,990.28,0,0,1-92.36,82.37h0l-5.16,4h0c-2.23,0-4.47,0-6.7,0q2.64-2,5.25-4h0c104.07-80.23,189.27-185.86,272.37-288.87C691,886,755.9,805.54,828.4,736.36,1031.32,542.72,1308.55,429,1589,424.41Z"/><path d="M1602,468.08c-279.46,4.59-555.7,117.89-757.91,310.84C771.8,847.92,707,928.28,644.3,1006c-56,69.39-113.85,141.13-176.51,204q-23.34,23.41-46.56,44.1h0q-2.14,1.93-4.29,3.82h0c-2-.09-3.95-.17-5.94-.24,1.46-1.28,2.91-2.55,4.36-3.84,83.58-74,155.47-163.1,225.85-250.34C704,925.66,768.85,845.21,841.35,776,1044.27,582.39,1321.5,468.69,1602,464.08Z"/><path d="M1615,507.75c-279.46,4.59-555.71,117.89-757.91,310.85-72.31,69-137.13,149.35-199.81,227.05-56,69.39-113.85,141.14-176.51,204q-4,4-7.95,7.9c-1.26,1.24-2.51,2.47-3.77,3.69l-5.47-.46q1.9-1.85,3.8-3.7c67.36-65.9,127.61-140.57,186.78-213.93,62.77-77.8,127.67-158.26,200.16-227.44,202.93-193.64,480.16-307.34,760.61-312Z"/><path d="M1627.93,547.42C1348.47,552,1072.23,665.31,870,858.27c-72.31,69-137.13,149.35-199.81,227-48.2,59.76-97.82,121.26-150.69,177.33-1.13,1.2-2.26,2.4-3.41,3.6-1.68-.22-3.38-.44-5.07-.63q1.73-1.8,3.44-3.62c53.9-56.81,103.63-118.46,152.62-179.19,62.76-77.8,127.66-158.26,200.16-227.44,202.92-193.64,480.15-307.34,760.61-312Z"/><path d="M1640.89,587.09C1361.43,591.69,1085.18,705,883,897.94c-72.31,69-137.12,149.35-199.81,227.06-38.87,48.18-78.66,97.51-120.34,144.21q-1.56,1.77-3.15,3.52c-1.58-.27-3.17-.54-4.76-.79q1.59-1.76,3.17-3.53h0c42.33-47.22,82.39-96.87,122-145.93,62.76-77.8,127.66-158.25,200.16-227.44,202.93-193.63,480.16-307.34,760.61-311.95Z"/><path d="M1653.84,626.77c-279.46,4.59-555.71,117.89-757.91,310.84-72.31,69-137.13,149.35-199.81,227.06-30.16,37.38-60.87,75.45-92.59,112.45l-3,3.46-4.52-.95c1-1.16,2-2.31,3-3.47,32.18-37.41,63.21-75.88,94-114,62.77-77.81,127.67-158.26,200.17-227.44,202.92-193.64,480.15-307.34,760.6-312Z"/><path d="M1666.79,666.44c-279.45,4.59-555.7,117.89-757.91,310.84-72.31,69-137.13,149.36-199.81,227.06-22,27.21-44.18,54.77-66.9,82-.93,1.13-1.88,2.27-2.84,3.4-1.42-.38-2.85-.74-4.28-1.11l2.84-3.39c23.06-27.63,45.64-55.63,68.07-83.43,62.76-77.81,127.66-158.26,200.16-227.44,202.93-193.64,480.16-307.34,760.61-311.95Z"/><path d="M1679.75,706.11C1400.29,710.7,1124,824,921.84,1017c-72.31,69-137.13,149.35-199.81,227-14.15,17.54-28.43,35.23-42.87,52.9-.91,1.11-1.82,2.23-2.74,3.34l-4.14-1.26c.92-1.12,1.83-2.24,2.75-3.35q22.13-27,43.88-54.14c62.77-77.8,127.67-158.26,200.17-227.44,202.92-193.64,480.15-307.34,760.6-311.95Z"/><path d="M1692.7,745.78c-279.46,4.6-555.7,117.89-757.91,310.85-72.31,69-137.13,149.35-199.81,227q-10.1,12.51-20.27,25.11l-2.67,3.29c-1.33-.48-2.66-.95-4-1.41l2.67-3.3q10.6-13.11,21.16-26.2c62.76-77.8,127.66-158.25,200.16-227.44,202.92-193.64,480.15-307.34,760.61-312Z"/><path d="M1705.66,785.45C1426.2,790.05,1150,903.34,947.75,1096.3,875.85,1164.9,811.36,1244.73,749,1322l-1.08,1.34-1.54,1.91c-1.28-.53-2.57-1.06-3.87-1.58l2.3-2.85.32-.4h0c62.65-77.68,127.45-158,199.83-227,202.93-193.63,480.16-307.34,760.61-312Z"/><path d="M1718.61,825.12C1439.15,829.72,1162.91,943,960.7,1136c-64.16,61.22-122.42,131.37-178.52,200.69l-2.59,3.21c-1.24-.59-2.49-1.17-3.74-1.74l2.6-3.2c56.37-69.67,114.92-140.23,179.49-201.85,202.92-193.64,480.15-307.34,760.6-312Z"/><path d="M1731.57,864.8c-279.46,4.59-555.71,117.89-757.92,310.84-56.89,54.29-109.14,115.6-159.37,177.13l-2.58,3.16c-1.2-.64-2.39-1.28-3.6-1.91l2.58-3.17c50.46-61.83,103-123.48,160.21-178.1,202.93-193.64,480.16-307.34,760.61-312Z"/><path d="M1744.52,904.47c-279.46,4.59-555.71,117.89-757.91,310.84-50.07,47.79-96.56,101-141.23,155l-2.58,3.13c-1.16-.7-2.32-1.39-3.49-2.07l2.59-3.13c44.87-54.28,91.57-107.79,142-155.86,202.92-193.64,480.15-307.34,760.6-312Z"/><path d="M1757.47,944.14C1478,948.73,1201.77,1062,999.56,1255c-43.67,41.67-84.6,87.47-124,134.34-.87,1-1.74,2.06-2.59,3.09l-3.38-2.21c.86-1,1.72-2.06,2.59-3.08,39.54-47.09,80.67-93.13,124.59-135,202.93-193.64,480.16-307.34,760.61-311.95Z"/><path d="M1770.43,983.81c-279.46,4.6-555.71,117.89-757.91,310.85-37.62,35.89-73.21,74.86-107.52,114.93-.88,1-1.75,2-2.62,3.05-1.08-.79-2.17-1.56-3.26-2.34l2.61-3c34.46-40.25,70.21-79.4,108-115.49,202.93-193.64,480.16-307.34,760.61-312Z"/><path d="M1783.38,1023.48c-279.46,4.6-555.7,117.9-757.91,310.85-31.87,30.42-62.3,63-91.72,96.67q-1.34,1.51-2.64,3c-1.06-.83-2.11-1.64-3.17-2.44l2.63-3c29.54-33.77,60.1-66.56,92.14-97.13,202.92-193.63,480.16-307.34,760.61-312Z"/><path d="M1796.34,1063.16c-279.46,4.59-555.71,117.89-757.91,310.84-26.42,25.2-51.83,51.92-76.49,79.47-.9,1-1.79,2-2.67,3l-3.1-2.53c.88-1,1.77-2,2.67-3,24.77-27.66,50.29-54.5,76.82-79.82,202.93-193.64,480.16-307.34,760.61-311.95Z"/><path d="M1809.29,1102.83c-279.46,4.59-555.71,117.89-757.91,310.84-21.18,20.21-41.71,41.39-61.73,63.19-.91,1-1.81,2-2.7,3l-3-2.62,2.71-2.94c20.09-21.89,40.71-43.17,62-63.47,202.92-193.64,480.15-307.34,760.6-312Z"/><path d="M1822.25,1142.5c-279.46,4.59-555.71,117.89-757.92,310.84q-24.19,23.1-47.34,47.73c-.91,1-1.83,1.94-2.73,2.91l-3-2.68c.9-1,1.82-1.94,2.73-2.91q23.26-24.66,47.55-47.94c202.93-193.64,480.16-307.34,760.61-312Z"/><path d="M1835.2,1182.17c-279.46,4.59-555.71,117.89-757.91,310.85q-16.87,16.1-33.22,33l-2.77,2.87-2.93-2.73,2.77-2.88q16.45-16.92,33.39-33.13c202.92-193.64,480.15-307.34,760.6-311.95Z"/><path d="M1848.15,1221.84c-279.45,4.6-555.7,117.89-757.91,310.85q-9.72,9.27-19.26,18.8l-2.82,2.84-2.88-2.77c.93-1,1.88-1.9,2.82-2.83q9.6-9.62,19.38-18.94c202.93-193.63,480.16-307.34,760.61-312Z"/><path d="M1861.11,1261.51c-279.46,4.6-555.71,117.9-757.91,310.85q-2.68,2.55-5.34,5.14c-1,.92-1.92,1.84-2.87,2.78-1-.94-1.91-1.87-2.87-2.79,1-.94,1.91-1.87,2.87-2.78q2.71-2.64,5.44-5.24c202.93-193.64,480.16-307.35,760.61-312Z"/><path d="M1874.06,1301.19c-275.49,4.52-547.85,114.69-749.25,302.66l-2.92,2.74-2.85-2.8c1-.91,1.94-1.83,2.92-2.73,202.12-188.72,475.51-299.32,752-303.87Z"/><path d="M1887,1340.86c-269,4.42-535.13,109.6-735,289.61l-3,2.69-2.86-2.8c1-.9,2-1.8,3-2.68,200.63-180.77,467.73-286.38,737.81-290.82Z"/><path d="M1900,1380.53c-262.55,4.31-522.27,104.58-720.41,276.71l-3,2.63-2.89-2.79c1-.88,2-1.76,3-2.63,198.88-172.88,459.63-273.59,723.22-277.92Z"/><path d="M1912.92,1420.2c-255.91,4.21-509.13,99.57-705.26,263.8-1,.85-2.06,1.72-3.08,2.59l-2.94-2.77,3.08-2.59c196.88-165,451.16-260.81,708.14-265Z"/><path d="M1925.88,1459.87c-249.07,4.1-495.59,94.54-689.41,250.76l-3.15,2.55-3-2.72,3.14-2.54c194.58-157,442.17-247.94,692.33-252.05Z"/><path d="M1938.83,1499.55c-241.93,4-481.45,89.42-672.61,237.49-1.08.83-2.15,1.66-3.21,2.5-1-.88-2.06-1.77-3.08-2.67,1.06-.84,2.13-1.67,3.21-2.51,191.94-148.88,432.57-234.81,675.63-238.81Z"/><path d="M1951.79,1539.22c-234.41,3.85-466.56,84.18-654.64,223.86-1.11.81-2.21,1.63-3.31,2.46l-3.18-2.61c1.1-.82,2.2-1.65,3.31-2.46,188.89-140.54,422.18-221.38,657.75-225.25Z"/><path d="M1964.74,1578.89c-226.39,3.72-450.66,78.78-635.17,209.73-1.14.8-2.28,1.61-3.41,2.43l-3.33-2.54c1.13-.82,2.27-1.62,3.4-2.43,185.36-131.86,410.84-207.45,638.44-211.19Z"/><path d="M1977.7,1618.56c-217.71,3.58-433.48,73.13-613.81,194.94-1.18.79-2.37,1.59-3.55,2.4-1.17-.81-2.34-1.62-3.51-2.45l3.54-2.4c181.23-122.77,398.26-192.89,617.26-196.49Z"/><path d="M2021.09,1894.8q-4.92,2-9.88,3.91h0c-78.78,30.46-163.1,45.58-247.4,45.61h-.22q-6.46,0-12.94-.12h0a704.53,704.53,0,0,1-91.28-7.61c-2.59-.38-5.17-.78-7.76-1.2q-32.16-5.16-63.73-13.32-3-.78-6.06-1.59-26.19-7-51.78-16.1c-1.71-.61-3.43-1.22-5.13-1.85q-22.56-8.2-44.49-18c-1.51-.67-3-1.34-4.5-2h0q-13.34-6.08-26.4-12.76-6.51-3.33-12.93-6.8c-1.36-.72-2.72-1.46-4.07-2.2q-18.11-9.9-35.59-20.78c-1.25-.77-2.51-1.55-3.75-2.34q-16.65-10.46-32.8-21.69c-1.17-.81-2.34-1.62-3.51-2.45q-15.54-10.89-30.67-22.4l-3.33-2.54q-14.67-11.23-29-23l-3.18-2.61q-14-11.49-27.65-23.39c-1-.88-2.06-1.77-3.08-2.67q-13.42-11.7-26.61-23.69l-3-2.72q-13-11.84-25.76-23.87l-2.94-2.77q-12.63-11.91-25.1-24l-2.89-2.79q-12.37-11.94-24.62-23.92l-2.86-2.8q-10.35-10.11-20.64-20.21l-3.64-3.56-2.85-2.8q-12-11.74-24-23.51c-1-.94-1.91-1.87-2.87-2.79q-11.92-11.61-24-23.16l-2.88-2.77q-11.92-11.4-24-22.7l-2.93-2.73q-12-11.16-24.11-22.15l-3-2.68q-12.07-10.86-24.34-21.49l-3-2.62q-12.21-10.51-24.65-20.74l-3.1-2.53q-12.4-10.14-25.06-19.89c-1.06-.83-2.11-1.64-3.17-2.44q-12.65-9.69-25.56-18.95c-1.08-.79-2.17-1.56-3.26-2.34q-12.92-9.16-26.12-17.88l-3.38-2.21q-13.25-8.62-26.82-16.73c-1.16-.7-2.32-1.39-3.49-2.07Q826.8,1364,814,1357.15l-2.3-1.22c-1.2-.64-2.39-1.28-3.6-1.91q-14-7.35-28.51-14.15c-1.24-.59-2.49-1.17-3.74-1.74q-14.49-6.7-29.46-12.86c-1.28-.53-2.57-1.06-3.87-1.58q-15-6.07-30.48-11.61c-1.33-.48-2.66-.95-4-1.41h0q-15.59-5.51-31.61-10.42l-4.14-1.26q-16.24-4.9-32.95-9.23c-1.42-.38-2.85-.74-4.28-1.11q-17-4.32-34.48-8.07l-4.52-.95q-18-3.77-36.38-6.9c-1.58-.27-3.17-.54-4.76-.79q-19.14-3.2-38.8-5.69c-1.68-.22-3.38-.44-5.07-.63h0q-20.73-2.58-42-4.39l-5.47-.46q-23-1.87-46.63-2.88h0c-2-.09-3.95-.17-5.94-.24q-16.73-.66-33.76-.87-10-.13-19.91-.12h0c-2.23,0-4.47,0-6.7,0q-32.89.16-65.81,1.72l-8.28.4c-31.83,1.61-63.64,4.06-95.37,7.11q-7.2.69-14.4,1.43c-80.9,8.22-161.25,20.13-240.17,31.82l-.58-4c83.42-12.36,168.45-25,254.05-33.2q6.51-.63,13-1.22c30.11-2.74,60.27-4.91,90.45-6.32h0q4-.2,8-.35h0q32.13-1.36,64.27-1.45h6.63q7.39,0,14.79.11,19.23.24,38.07,1l5.88.26h0q23.38,1.08,46.13,3c1.82.15,3.63.3,5.44.47q21.1,1.86,41.68,4.46l5,.65q19.53,2.55,38.56,5.76h0c1.58.25,3.16.52,4.73.8q18.34,3.16,36.22,7l4.49,1q17.41,3.78,34.36,8.14c1.43.35,2.86.72,4.28,1.1q16.67,4.35,32.86,9.28l4.13,1.27q16,4.93,31.55,10.46c1.34.46,2.67.93,4,1.42q15.45,5.54,30.43,11.65h0L749,1322q15,6.18,29.44,12.91l3.73,1.73q14.49,6.83,28.5,14.19,1.8.95,3.6,1.92l1.61.85q13.17,7.07,26,14.66l3.48,2.07q13.59,8.12,26.83,16.78l3.38,2.2q13.23,8.73,26.14,17.92l3.27,2.34q12.93,9.27,25.57,19l3.18,2.44q12.68,9.78,25.09,19.93l3.1,2.54q12.46,10.23,24.69,20.78c1,.86,2,1.73,3,2.61q12.29,10.64,24.37,21.53l3,2.68q12.16,11,24.15,22.18l2.93,2.74q12.09,11.31,24,22.74l2.88,2.76q12.06,11.58,24,23.22c1,.92,1.91,1.85,2.87,2.79q12.11,11.77,24.1,23.56l2.85,2.79,3.52,3.45q10.38,10.17,20.81,20.38l2.86,2.79q12.29,12,24.68,24l2.88,2.79q12.51,12,25.16,24l2.94,2.77q12.81,12,25.82,23.92l3,2.71q13.21,12,26.67,23.73c1,.9,2,1.79,3.08,2.68q13.74,11.89,27.75,23.43,1.58,1.32,3.18,2.61,14.37,11.73,29.08,23l3.34,2.54q15.2,11.52,30.8,22.43c1.17.82,2.34,1.64,3.52,2.45q16.23,11.24,33,21.7,1.88,1.18,3.77,2.34,17.61,10.88,35.82,20.77,2,1.11,4.09,2.21,5.35,2.87,10.77,5.63,14.28,7.3,28.88,13.9h0c1.51.68,3,1.36,4.54,2q22.15,9.81,45,18,2.6.93,5.2,1.83,25.95,9.06,52.57,16,3.08.81,6.15,1.57h0q32.28,8.1,65.22,13.07,4,.6,8,1.16a702.29,702.29,0,0,0,96.33,6.69q7.29,0,14.57-.15h0a683.84,683.84,0,0,0,219.12-40.38h0q6.72-2.43,13.41-5h0c3.1-1.19,6.17-2.42,9.25-3.67l1.21,3Z"/><path d="M2015.18,1936.21q-4.52,1.83-9.07,3.59h0c-74.79,29-154.55,44.23-234.61,45.8q-6.89.14-13.78.14h0a704.06,704.06,0,0,1-93.48-6.22c-2.62-.34-5.23-.71-7.85-1.09h0q-32.53-4.71-64.52-12.48c-2-.49-4.09-1-6.13-1.51h0q-26.42-6.66-52.23-15.41h0c-1.73-.58-3.44-1.18-5.16-1.78q-22.71-7.89-44.84-17.41-2.28-1-4.56-2-17.88-7.84-35.29-16.75-2.17-1.11-4.33-2.24h0q-2.06-1.07-4.09-2.16-18.21-9.62-35.8-20.26c-1.26-.75-2.52-1.52-3.77-2.29q-16.74-10.22-33-21.24c-1.18-.79-2.36-1.6-3.54-2.41q-15.58-10.66-30.75-22c-1.12-.83-2.24-1.66-3.35-2.5q-14.7-11-29-22.59-1.6-1.28-3.21-2.58-14-11.33-27.67-23l-3.09-2.64q-13.41-11.54-26.57-23.37l-3-2.7q-12.95-11.68-25.7-23.59l-2.93-2.74q-12.6-11.77-25-23.7l-2.89-2.77q-12.31-11.82-24.49-23.69l-2.87-2.79q-12.1-11.79-24.11-23.58l-2.85-2.8-1.92-1.88-21.94-21.49-2.86-2.79q-11.82-11.54-23.75-23.06l-2.88-2.78q-11.81-11.37-23.74-22.66l-2.91-2.74q-11.85-11.14-23.84-22.15l-3-2.69q-11.94-10.89-24.05-21.56l-3-2.63q-12.06-10.58-24.34-20.87l-3.07-2.56q-12.24-10.2-24.72-20.06c-1-.84-2.1-1.67-3.15-2.48q-12.46-9.8-25.18-19.18l-3.23-2.37q-12.72-9.32-25.75-18.18c-1.1-.76-2.21-1.51-3.32-2.25q-13-8.8-26.41-17.1c-1.14-.72-2.29-1.42-3.44-2.12q-13.41-8.25-27.18-15.91l-3.56-2q-3.12-1.73-6.25-3.4-10.77-5.77-21.84-11.23l-3.69-1.8q-14.28-7-29-13.35l-3.8-1.64q-14.84-6.33-30.13-12.1h0c-1.31-.5-2.62-1-3.94-1.48q-15.39-5.74-31.27-10.91c-1.36-.45-2.73-.89-4.1-1.32q-16.07-5.16-32.6-9.74c-1.42-.4-2.83-.79-4.26-1.17h0q-16.86-4.59-34.18-8.58c-1.48-.35-3-.69-4.45-1q-17.79-4-36.09-7.42c-1.57-.3-3.13-.59-4.71-.87q-19-3.45-38.49-6.22l-5-.71q-20.58-2.84-41.72-4.93l-5.41-.53q-22.83-2.16-46.29-3.46-2.94-.18-5.89-.31h0q-24.56-1.27-49.79-1.59c-1.15,0-2.29,0-3.44,0h0l-6.6-.06h0q-32.58-.19-65.16,1h0c-2.73.09-5.45.2-8.17.31-31.3,1.28-62.58,3.4-93.81,6.16q-7,.62-14,1.28C92.69,1315.08,5.83,1328-79.34,1340.58l-.59-4c89.55-13.26,181-26.8,272.94-34.94q6.36-.57,12.71-1.09c29.67-2.46,59.39-4.33,89.12-5.42,2.66-.1,5.31-.2,8-.28q31.85-1,63.67-.75l4.88,0,1.64,0h0q26.6.36,52.42,1.78h0q2.93.15,5.84.33,23.22,1.35,45.8,3.57c1.8.17,3.58.35,5.37.54q21,2.13,41.39,5l5,.72h0q19.39,2.82,38.26,6.28l4.69.88q18.19,3.42,35.92,7.47l4.44,1q17.26,4,34.06,8.63c1.42.38,2.84.77,4.25,1.17q16.49,4.61,32.52,9.78l4.08,1.33q15.84,5.19,31.21,11c1.32.48,2.63,1,3.94,1.48q15.28,5.8,30.09,12.15l3.8,1.64q14.75,6.4,29,13.38c1.23.59,2.46,1.2,3.68,1.81q10.71,5.28,21.16,10.89,3.46,1.86,6.92,3.77c1.19.65,2.37,1.31,3.55,2h0q13.77,7.68,27.18,15.94c1.15.7,2.29,1.41,3.43,2.13q13.38,8.29,26.42,17.13l3.33,2.25q13,8.87,25.76,18.21c1.08.78,2.16,1.57,3.23,2.37q12.75,9.4,25.22,19.21c1.05.82,2.1,1.64,3.14,2.48q12.5,9.87,24.75,20.09l3.06,2.56q12.3,10.3,24.38,20.89l3,2.64q12.15,10.68,24.09,21.59l2.95,2.7q12,11,23.88,22.18l2.91,2.75q12,11.29,23.78,22.69l2.88,2.77q12,11.54,23.79,23.11l2.86,2.79q11,10.74,21.9,21.46l2,2,2.85,2.8q12,11.79,24.16,23.63l2.87,2.79q12.21,11.89,24.55,23.74l2.89,2.77q12.45,11.94,25.07,23.75l3,2.74q12.78,11.92,25.76,23.63l3,2.7q13.2,11.85,26.64,23.41l3.09,2.65Q1282,1797,1296,1808.36c1.06.87,2.13,1.73,3.2,2.59q14.4,11.55,29.14,22.61l3.36,2.5q15.24,11.32,30.88,22c1.18.81,2.36,1.61,3.55,2.4q16.3,11,33.12,21.25,1.89,1.17,3.8,2.29,17.7,10.63,36,20.26l4.13,2.15,2.19,1.13q18.61,9.53,37.77,17.83l4.6,2q22.35,9.5,45.32,17.34h0l5.23,1.77h0q26.2,8.7,53.05,15.27,3.11.77,6.22,1.5,32.72,7.69,66.08,12.19,4,.55,8.09,1a700.69,700.69,0,0,0,99.06,5.14h0q7.73-.13,15.44-.46h0a681.79,681.79,0,0,0,204.7-40h0q7.14-2.57,14.2-5.33,4.24-1.65,8.46-3.36l1,2.57Z"/><path d="M1751.75,2027.16c-108.59,0-217.18-25.05-314.09-74.63-123.85-63.37-225.58-163.1-324-259.56-95.07-93.21-193.38-189.6-311.53-253-120-64.42-267-98.19-436.77-100.37C214,1337.65,61.89,1360.19-85.25,1382l-.59-4c147.3-21.82,299.62-44.37,451.29-42.43,170.43,2.19,318,36.12,438.62,100.85,118.64,63.67,217.16,160.26,312.43,253.67,98.17,96.24,199.67,195.76,323,258.85,174.35,89.2,386.79,98.53,568.28,24.94l1.51,3.71C1927.59,2010.73,1839.67,2027.15,1751.75,2027.16Z"/><path d="M1745.84,2068.57c-108.59,0-217.18-25.05-314.09-74.63-123.85-63.37-225.58-163.1-324-259.56-95.07-93.21-193.38-189.59-311.53-253-120-64.42-267-98.19-436.77-100.37-151.38-2-303.51,20.59-450.65,42.39l-.59-4c147.3-21.82,299.63-44.39,451.29-42.43,170.43,2.19,318,36.12,438.62,100.85,118.64,63.67,217.16,160.26,312.43,253.67,98.17,96.24,199.67,195.76,323,258.85,174.35,89.2,386.79,98.53,568.28,24.94l1.51,3.71C1921.68,2052.14,1833.76,2068.56,1745.84,2068.57Z"/><path d="M1739.93,2110c-108.59,0-217.18-25.05-314.09-74.63-123.85-63.37-225.58-163.1-324-259.55-95.07-93.22-193.38-189.6-311.53-253-120-64.42-267-98.19-436.77-100.37-151.38-2-303.51,20.59-450.65,42.39l-.59-4C49.64,1439,202,1416.47,353.63,1418.42c170.43,2.19,318,36.12,438.61,100.85,118.65,63.67,217.17,160.26,312.44,253.67,98.17,96.24,199.67,195.76,323,258.85,174.35,89.2,386.79,98.53,568.28,24.94l1.51,3.71C1915.77,2093.55,1827.85,2110,1739.93,2110Z"/><path d="M1734,2151.39c-108.59,0-217.18-25-314.09-74.63-123.85-63.37-225.58-163.1-324-259.55-95.07-93.22-193.39-189.6-311.53-253-120-64.42-267-98.19-436.77-100.37-151.4-2-303.51,20.6-450.65,42.39l-.59-4c147.3-21.83,299.62-44.38,451.29-42.44,170.43,2.19,318,36.12,438.61,100.85,118.65,63.67,217.17,160.26,312.44,253.67,98.16,96.24,199.67,195.76,323,258.85,174.35,89.2,386.79,98.52,568.28,24.94l1.51,3.71C1909.86,2135,1821.94,2151.38,1734,2151.39Z"/><path d="M1728.11,2192.8c-108.59,0-217.18-25.05-314.09-74.63-123.86-63.37-225.58-163.1-324-259.55-95.07-93.22-193.39-189.6-311.53-253-120-64.42-267-98.19-436.77-100.37-151.39-1.94-303.51,20.59-450.65,42.39l-.59-4c147.3-21.82,299.6-44.39,451.29-42.44,170.43,2.19,318,36.12,438.61,100.85,118.65,63.67,217.16,160.26,312.44,253.67,98.16,96.24,199.67,195.76,323,258.85,174.35,89.2,386.79,98.53,568.28,24.94l1.51,3.71C1904,2176.37,1816,2192.8,1728.11,2192.8Z"/><path d="M1722.2,2234.21c-108.59,0-217.18-25-314.09-74.63-123.86-63.37-225.58-163.1-324-259.55-95.07-93.21-193.39-189.6-311.53-253-120-64.42-267-98.19-436.77-100.37-151.38-2-303.51,20.6-450.65,42.39l-.59-4c147.3-21.82,299.62-44.38,451.29-42.44,170.43,2.19,318,36.12,438.61,100.85,118.65,63.67,217.17,160.26,312.44,253.67,98.16,96.24,199.67,195.76,323,258.85,174.35,89.2,386.79,98.53,568.28,24.94l1.5,3.71C1898,2217.78,1810.12,2234.21,1722.2,2234.21Z"/><path d="M1716.29,2275.62c-108.59,0-217.18-25-314.09-74.63-123.86-63.36-225.58-163.1-324-259.55-95.08-93.22-193.39-189.6-311.53-253-120-64.42-267-98.19-436.77-100.37-151.37-2-303.51,20.6-450.65,42.39l-.59-4C26,1604.68,178.31,1582.11,330,1584.06c170.43,2.19,318,36.12,438.61,100.85,118.65,63.67,217.16,160.26,312.44,253.67,98.16,96.24,199.67,195.76,323,258.85,174.34,89.2,386.79,98.53,568.28,25l1.5,3.7C1892.13,2259.2,1804.2,2275.62,1716.29,2275.62Z"/><path d="M1710.38,2317c-108.6,0-217.19-25-314.1-74.63-123.85-63.36-225.57-163.1-324-259.55-95.08-93.21-193.39-189.6-311.53-253-120-64.42-267-98.19-436.77-100.37-151.37-1.94-303.51,20.6-450.66,42.4l-.58-4c147.3-21.82,299.63-44.38,451.29-42.44,170.43,2.19,318,36.12,438.61,100.85C881.34,1790,979.85,1886.58,1075.13,1980c98.16,96.25,199.67,195.76,323,258.85,174.34,89.2,386.79,98.53,568.28,24.95l1.5,3.7C1886.22,2300.61,1798.29,2317,1710.38,2317Z"/><path d="M1704.47,2358.44c-108.6,0-217.18-25-314.1-74.63-123.85-63.36-225.58-163.1-323.95-259.55-95.08-93.21-193.39-189.6-311.53-253-120-64.43-267-98.2-436.77-100.38-151.38-2-303.51,20.6-450.66,42.4l-.58-4c147.3-21.82,299.61-44.38,451.29-42.44,170.42,2.19,318,36.12,438.61,100.85,118.64,63.68,217.16,160.26,312.44,253.67,98.16,96.25,199.67,195.76,323,258.85,174.34,89.21,386.79,98.53,568.28,24.95l1.5,3.7C1880.31,2342,1792.38,2358.44,1704.47,2358.44Z"/><path d="M1698.55,2399.85c-108.59,0-217.18-25-314.09-74.62-123.85-63.37-225.58-163.11-324-259.56-95.08-93.21-193.39-189.6-311.53-253-120-64.43-267-98.2-436.77-100.38-151.38-1.94-303.51,20.6-450.66,42.4l-.58-4c147.3-21.82,299.61-44.39,451.29-42.44,170.42,2.19,318,36.12,438.61,100.85,118.64,63.68,217.16,160.27,312.44,253.68,98.16,96.24,199.67,195.76,323,258.85,174.34,89.2,386.78,98.52,568.28,24.94l1.5,3.7C1874.4,2383.43,1786.47,2399.85,1698.55,2399.85Z"/><path d="M1692.65,2441.26c-108.6,0-217.19-25-314.1-74.62-123.85-63.37-225.58-163.11-324-259.56-95.08-93.21-193.39-189.6-311.53-253-120-64.43-267-98.2-436.78-100.38-151.4-2-303.5,20.6-450.65,42.4l-.58-4c147.3-21.82,299.61-44.38,451.29-42.44,170.42,2.19,318,36.12,438.61,100.85,118.64,63.68,217.16,160.27,312.44,253.67,98.16,96.25,199.67,195.77,323,258.86,174.34,89.2,386.79,98.52,568.28,24.94l1.5,3.7C1868.49,2424.84,1780.56,2441.26,1692.65,2441.26Z"/><path d="M1686.73,2482.67c-108.59,0-217.18-25-314.09-74.62-123.85-63.37-225.58-163.11-324-259.56-95.07-93.21-193.38-189.6-311.52-253-120-64.43-267-98.2-436.78-100.38-151.39-1.93-303.51,20.6-450.65,42.4l-.58-4c147.29-21.82,299.58-44.4,451.28-42.44,170.43,2.19,318,36.12,438.62,100.85,118.64,63.68,217.16,160.27,312.44,253.68,98.16,96.24,199.66,195.76,323,258.85,174.35,89.2,386.79,98.52,568.29,24.94l1.5,3.7C1862.58,2466.25,1774.65,2482.67,1686.73,2482.67Z"/><path d="M1680.82,2524.08c-108.59,0-217.18-25-314.09-74.62-123.85-63.37-225.58-163.1-324-259.56-95.08-93.21-193.39-189.6-311.53-253-120-64.42-267-98.19-436.78-100.37-151.38-2-303.51,20.59-450.65,42.39l-.58-4c147.29-21.82,299.61-44.38,451.28-42.43,170.43,2.18,318,36.11,438.62,100.84,118.64,63.68,217.16,160.27,312.44,253.68,98.16,96.24,199.66,195.76,323,258.85,174.35,89.2,386.79,98.52,568.29,24.94l1.5,3.71C1856.67,2507.66,1768.74,2524.08,1680.82,2524.08Z"/><path d="M1674.91,2565.5c-108.59,0-217.18-25.05-314.09-74.63-123.85-63.37-225.58-163.11-324-259.56-95.07-93.21-193.38-189.6-311.53-253-120-64.42-267-98.19-436.77-100.37-151.37-2-303.51,20.59-450.65,42.39l-.59-4c147.3-21.82,299.63-44.37,451.29-42.43,170.43,2.19,318,36.12,438.62,100.84,118.64,63.68,217.16,160.27,312.43,253.68,98.17,96.24,199.67,195.76,323,258.85,174.35,89.2,386.79,98.53,568.28,24.94l1.51,3.71C1850.76,2549.07,1762.83,2565.49,1674.91,2565.5Z"/><path d="M1669,2606.91c-108.59,0-217.18-25-314.09-74.63-123.85-63.37-225.58-163.1-324-259.56-95.07-93.21-193.38-189.6-311.53-253-120-64.42-267-98.19-436.77-100.37-151.37-1.94-303.51,20.59-450.65,42.39l-.59-4C-21.29,1936,131,1913.39,282.7,1915.35c170.43,2.19,318,36.12,438.62,100.85,118.64,63.67,217.16,160.26,312.43,253.67,98.17,96.24,199.67,195.76,323,258.85,174.35,89.2,386.79,98.53,568.28,24.94l1.51,3.71C1844.84,2590.48,1756.92,2606.9,1669,2606.91Z"/><path d="M1663.09,2648.32c-108.59,0-217.18-25.05-314.09-74.63-123.85-63.37-225.58-163.1-324-259.56-95.07-93.21-193.38-189.59-311.53-253-120-64.42-267-98.19-436.77-100.37-151.38-2-303.51,20.59-450.65,42.39l-.59-4c147.3-21.82,299.61-44.38,451.29-42.43,170.43,2.19,318,36.12,438.62,100.85,118.64,63.67,217.16,160.26,312.43,253.67,98.17,96.24,199.67,195.76,323,258.85,174.35,89.2,386.79,98.53,568.28,24.94l1.51,3.71C1838.93,2631.89,1751,2648.31,1663.09,2648.32Z"/><path d="M1657.18,2689.73c-108.59,0-217.18-25.05-314.09-74.63-123.85-63.37-225.58-163.1-324-259.55-95.07-93.22-193.38-189.6-311.53-253-120-64.42-267-98.19-436.77-100.37-151.38-1.94-303.51,20.59-450.65,42.39l-.59-4c147.3-21.81,299.61-44.37,451.29-42.43,170.43,2.19,318,36.12,438.61,100.85,118.65,63.67,217.17,160.26,312.44,253.67,98.17,96.24,199.67,195.76,323,258.85,174.35,89.2,386.79,98.53,568.28,24.94l1.51,3.71C1833,2673.3,1745.1,2689.72,1657.18,2689.73Z"/><path d="M1651.27,2731.14c-108.59,0-217.18-25-314.09-74.63-123.85-63.37-225.58-163.1-324-259.55-95.07-93.22-193.39-189.6-311.53-253-120-64.42-267-98.19-436.77-100.37-151.38-1.94-303.51,20.59-450.65,42.39l-.59-3.95C-39,2060.2,113.29,2037.63,265,2039.58c170.43,2.19,318,36.12,438.61,100.85C822.23,2204.1,920.75,2300.69,1016,2394.1c98.16,96.24,199.67,195.76,323,258.85,174.35,89.2,386.79,98.53,568.28,24.94l1.51,3.71C1827.11,2714.71,1739.19,2731.13,1651.27,2731.14Z"/><path d="M1645.36,2772.55c-108.59,0-217.18-25.05-314.09-74.63-123.86-63.37-225.58-163.1-324-259.55-95.07-93.22-193.39-189.6-311.53-253-120-64.42-267-98.19-436.77-100.37-151.39-2-303.51,20.6-450.65,42.39l-.59-4c147.3-21.82,299.6-44.4,451.29-42.44,170.43,2.19,318,36.12,438.61,100.85,118.65,63.67,217.16,160.26,312.44,253.67,98.16,96.24,199.67,195.76,323,258.85,174.35,89.2,386.79,98.53,568.28,24.94l1.51,3.71C1821.2,2756.12,1733.27,2772.55,1645.36,2772.55Z"/><path d="M1639.45,2814c-108.59,0-217.18-25-314.09-74.63-123.86-63.37-225.58-163.1-324-259.55-95.07-93.21-193.39-189.6-311.53-253-120-64.42-267-98.19-436.77-100.37-151.39-1.94-303.51,20.6-450.65,42.39l-.59-3.95c147.3-21.82,299.61-44.39,451.29-42.44,170.43,2.19,318,36.12,438.61,100.85,118.65,63.67,217.17,160.26,312.44,253.67,98.16,96.24,199.67,195.76,323,258.85,174.34,89.2,386.79,98.53,568.28,24.94l1.5,3.71C1815.29,2797.53,1727.37,2814,1639.45,2814Z"/><path d="M1633.54,2855.37c-108.59,0-217.18-25-314.09-74.63-123.86-63.36-225.58-163.1-324-259.55-95.08-93.22-193.39-189.6-311.53-253-120-64.42-267-98.19-436.77-100.37-151.35-1.95-303.51,20.6-450.65,42.39l-.59-3.95c147.3-21.82,299.62-44.39,451.29-42.44,170.43,2.19,318,36.12,438.61,100.85C804.5,2328.33,903,2424.92,998.29,2518.33c98.16,96.24,199.67,195.76,323,258.85,174.35,89.2,386.79,98.53,568.28,25l1.5,3.7C1809.38,2839,1721.45,2855.37,1633.54,2855.37Z"/><path d="M1627.63,2896.78c-108.6,0-217.19-25-314.1-74.63-123.85-63.36-225.57-163.1-323.95-259.55-95.08-93.21-193.39-189.6-311.53-253-120-64.42-267-98.19-436.77-100.37-151.37-1.93-303.51,20.6-450.66,42.4l-.58-4c147.3-21.82,299.62-44.37,451.29-42.44,170.43,2.19,318,36.12,438.61,100.85,118.65,63.67,217.16,160.26,312.44,253.67,98.16,96.25,199.67,195.76,323,258.85,174.34,89.21,386.79,98.53,568.28,24.95l1.5,3.7C1803.47,2880.36,1715.54,2896.78,1627.63,2896.78Z"/><path d="M1621.72,2938.19c-108.6,0-217.18-25-314.1-74.63C1183.77,2800.2,1082,2700.46,983.67,2604c-95.08-93.21-193.39-189.6-311.53-253-120-64.43-267-98.2-436.77-100.38-151.39-2-303.51,20.6-450.66,42.4l-.58-4c147.3-21.82,299.62-44.4,451.29-42.44,170.42,2.19,318,36.12,438.61,100.85,118.64,63.68,217.16,160.26,312.44,253.67,98.16,96.25,199.67,195.76,323,258.85,174.34,89.21,386.79,98.53,568.28,24.95l1.5,3.7C1797.56,2921.77,1709.63,2938.19,1621.72,2938.19Z"/><path d="M1615.8,2979.6c-108.59,0-217.18-25-314.09-74.62-123.85-63.37-225.58-163.11-324-259.56-95.08-93.21-193.39-189.6-311.53-253-120-64.43-267-98.2-436.77-100.38-151.39-1.95-303.51,20.6-450.66,42.4l-.58-4c147.3-21.82,299.62-44.38,451.29-42.44,170.42,2.19,318,36.12,438.61,100.85,118.64,63.68,217.16,160.27,312.44,253.68,98.16,96.24,199.67,195.76,323,258.85,174.34,89.2,386.78,98.52,568.28,24.94l1.5,3.7C1791.65,2963.18,1703.72,2979.6,1615.8,2979.6Z"/><path d="M1609.9,3021c-108.6,0-217.19-25-314.1-74.62C1172,2883,1070.22,2783.28,971.85,2686.83c-95.08-93.21-193.39-189.6-311.53-253-120-64.43-267-98.2-436.78-100.38-151.38-2-303.5,20.6-450.65,42.4l-.58-4c147.3-21.82,299.62-44.39,451.29-42.44,170.42,2.19,318,36.12,438.61,100.85C780.85,2494,879.37,2590.57,974.65,2684c98.16,96.25,199.67,195.77,323,258.86,174.34,89.2,386.79,98.52,568.28,24.94l1.5,3.7C1785.74,3004.59,1697.81,3021,1609.9,3021Z"/><path d="M1604,3062.42c-108.59,0-217.18-25-314.09-74.62-123.85-63.37-225.58-163.11-324-259.56-95.07-93.21-193.38-189.6-311.52-253-120-64.43-267-98.2-436.78-100.38-151.37-2-303.51,20.6-450.65,42.4l-.58-4c147.29-21.82,299.58-44.38,451.28-42.44,170.43,2.19,318,36.12,438.62,100.85,118.64,63.68,217.16,160.27,312.44,253.68,98.16,96.24,199.66,195.76,323,258.85,174.35,89.2,386.79,98.52,568.29,24.94l1.5,3.7C1779.83,3046,1691.9,3062.42,1604,3062.42Z"/><path d="M1598.07,3103.83c-108.59,0-217.18-25-314.09-74.62-123.85-63.37-225.58-163.1-324-259.56-95.08-93.21-193.39-189.6-311.53-253-120-64.42-267-98.19-436.78-100.37-151.38-1.94-303.51,20.59-450.65,42.39l-.58-4c147.3-21.82,299.62-44.39,451.28-42.43,170.43,2.18,318,36.11,438.62,100.84C769,2576.8,867.55,2673.39,962.83,2766.8c98.16,96.24,199.66,195.76,323,258.85,174.35,89.2,386.79,98.52,568.29,24.94l1.5,3.71C1773.92,3087.41,1686,3103.83,1598.07,3103.83Z"/><path d="M1592.16,3145.25c-108.59,0-217.18-25.05-314.09-74.63-123.85-63.37-225.58-163.11-324-259.56-95.07-93.21-193.38-189.6-311.53-253-120-64.42-267-98.19-436.77-100.37-151.35-2-303.51,20.59-450.65,42.39l-.59-4c147.3-21.82,299.62-44.39,451.29-42.43,170.43,2.19,318,36.12,438.62,100.84,118.64,63.68,217.16,160.27,312.43,253.68,98.17,96.24,199.67,195.76,323,258.85,174.35,89.2,386.79,98.53,568.28,24.94l1.51,3.71C1768,3128.82,1680.08,3145.24,1592.16,3145.25Z"/><path d="M1843.77,3137.12c-81.68,33.11-169.6,49.53-257.52,49.54q-27.3,0-54.54-2.11h0q-14-1.07-27.94-2.72h0a698.83,698.83,0,0,1-79.18-13.95h0q-14-3.3-27.81-7.19h0a672.37,672.37,0,0,1-124.5-48.64c-123.85-63.37-225.58-163.1-324-259.56-95.07-93.21-193.38-189.6-311.53-253-120-64.42-267-98.19-436.77-100.37-151.37-2-303.51,20.59-450.65,42.39l-.59-4C-104,2515.71,48.27,2493.16,200,2495.1c170.43,2.19,318,36.12,438.62,100.85,118.64,63.67,217.16,160.26,312.43,253.67,98.17,96.24,199.67,195.76,323,258.85a671.94,671.94,0,0,0,151.19,55.44h0a693.34,693.34,0,0,0,79.14,14h0c114,13.39,231.29-1.23,337.91-44.46Z"/><path d="M1280,3155.8q4.1,2,8.23,3.94c-3,0-6.08,0-9.13.07-2.64-1.27-5.27-2.57-7.89-3.88-1.64-.83-3.28-1.65-4.91-2.49-123.85-63.37-225.58-163.1-324-259.56-95.07-93.21-193.38-189.59-311.53-253-120-64.42-267-98.19-436.77-100.37-151.38-2-303.51,20.59-450.65,42.39l-.59-4c147.3-21.82,299.62-44.38,451.29-42.43,170.43,2.19,318,36.12,438.62,100.85C751.3,2701,849.82,2797.62,945.09,2891c98.17,96.24,199.67,195.76,323,258.85Q1274,3152.91,1280,3155.8Z"/><path d="M1205.44,3158.92l5.79,3.61q-3.39.21-6.8.47c-1.9-1.19-3.79-2.38-5.67-3.59-96.9-61.88-180.79-144.12-262.38-224.11-95.07-93.22-193.38-189.6-311.53-253-120-64.42-267-98.19-436.77-100.37-151.38-2-303.51,20.59-450.65,42.39l-.59-4c147.3-21.82,299.62-44.38,451.29-42.43,170.43,2.19,318,36.12,438.61,100.85,118.65,63.67,217.17,160.26,312.44,253.67C1021.89,3013.52,1107,3096.93,1205.44,3158.92Z"/><path d="M1146.83,3164.35q2.37,1.76,4.76,3.48l-5.87.67q-2.37-1.73-4.72-3.48c-75.61-56-143.84-122.93-210.53-188.31-95.07-93.22-193.39-189.6-311.53-253-120-64.42-267-98.19-436.77-100.37-151.38-2-303.51,20.6-450.65,42.39l-.59-3.95c147.3-21.82,299.62-44.4,451.29-42.44,170.43,2.19,318,36.12,438.61,100.85,118.65,63.67,217.17,160.26,312.44,253.67C1000.86,3040.12,1070,3107.94,1146.83,3164.35Z"/><path d="M1096.11,3171l4.21,3.43-5.38.79c-1.4-1.14-2.79-2.27-4.18-3.42-58.39-47.95-112.79-101.28-166.2-153.65-95.07-93.22-193.39-189.6-311.53-253-120-64.42-267-98.19-436.77-100.37-151.37-1.95-303.51,20.6-450.65,42.39l-.59-4c147.3-21.82,299.6-44.4,451.29-42.44,170.43,2.19,318,36.12,438.61,100.85,118.65,63.67,217.16,160.26,312.44,253.67C981.55,3068.39,1036.77,3122.52,1096.11,3171Z"/><path d="M1050.16,3178.39l3.87,3.39-5.06.88c-1.29-1.12-2.57-2.24-3.84-3.38-43.67-38.55-85.36-79.44-126.48-119.75-95.07-93.21-193.39-189.6-311.53-253-120-64.42-267-98.19-436.77-100.37-151.39-1.93-303.51,20.6-450.65,42.39l-.59-3.95c147.3-21.82,299.62-44.38,451.29-42.44,170.43,2.19,318,36.12,438.61,100.85,118.65,63.67,217.17,160.26,312.44,253.67C963.27,3097.67,1005.7,3139.27,1050.16,3178.39Z"/><path d="M1007.27,3186.35l3.63,3.36-4.87.95-3.61-3.36c-30.53-28.37-60.25-57.52-89.68-86.36-95.08-93.22-193.39-189.6-311.53-253-120-64.42-267-98.19-436.77-100.37-151.35-1.95-303.51,20.6-450.65,42.39l-.59-3.95c147.3-21.82,299.63-44.38,451.29-42.44,170.43,2.19,318,36.12,438.61,100.85,118.65,63.67,217.16,160.26,312.44,253.67,30.08,29.49,60.48,59.29,91.72,88.27Z"/><path d="M966.36,3194.72l3.49,3.34-4.73,1-3.48-3.34c-18.46-17.74-36.69-35.62-54.81-53.38-95.08-93.21-193.39-189.6-311.53-253-120-64.42-267-98.19-436.77-100.37C7.15,2787-145,2809.57-292.12,2831.37l-.59-4C-145.41,2805.59,6.92,2783,158.58,2785c170.43,2.19,318,36.12,438.61,100.85,118.65,63.67,217.16,160.26,312.44,253.67C928.37,3157.87,947.24,3176.37,966.36,3194.72Z"/><path d="M930.16,3206.78l-4.64,1.06c-1.14-1.1-2.27-2.21-3.41-3.33q-10.64-10.38-21.19-20.75c-95.08-93.21-193.39-189.6-311.53-253-120-64.43-267-98.2-436.77-100.38C1.23,2828.44-150.89,2851-298,2872.78l-.58-4C-151.32,2847,1,2824.43,152.67,2826.38c170.42,2.19,318,36.12,438.61,100.85,118.64,63.68,217.16,160.26,312.44,253.67q11.47,11.25,23,22.55Z"/><path d="M887.82,3212.53l3.38,3.32-4.58,1.09-3.37-3.31h0c-91.45-89.56-186.49-180.67-299.76-241.46-120-64.43-267-98.2-436.77-100.38-151.39-1.94-303.51,20.6-450.66,42.4l-.58-4c147.3-21.82,299.61-44.39,451.29-42.44,170.42,2.19,318,36.12,438.61,100.85C699.87,3030.1,795.63,3122.21,887.82,3212.53Z"/><path d="M849.12,3222l3.39,3.29-4.58,1.13-3.39-3.28c-81.51-78.85-167.16-156-267-209.52-120-64.43-267-98.2-436.78-100.38-151.38-1.94-303.51,20.6-450.65,42.4l-.58-4c147.3-21.82,299.61-44.38,451.29-42.44,170.42,2.19,318,36.12,438.61,100.85C680.46,3064.26,766.87,3142.32,849.12,3222Z"/><path d="M810.16,3231.75l3.45,3.25q-2.29.57-4.59,1.17l-3.45-3.26c-71.68-67.52-147.49-131.54-233.91-177.92-120-64.43-267-98.2-436.78-100.38-151.37-1.94-303.5,20.6-450.65,42.4l-.58-4c147.29-21.82,299.58-44.38,451.28-42.44,170.43,2.19,318,36.12,438.62,100.85C661.12,3098.46,737.73,3163.4,810.16,3231.75Z"/><path d="M770.5,3241.9l3.54,3.22-4.64,1.2-3.55-3.22c-61.74-55.81-127.14-107.54-200.1-146.7C445.7,3032,298.75,2998.21,129,2996c-151.39-2-303.51,20.59-450.65,42.39l-.58-4C-175,3012.64-22.65,2990.08,129,2992c170.43,2.18,318,36.11,438.62,100.84C641.74,3132.64,708,3185.25,770.5,3241.9Z"/><path d="M729.62,3252.46l3.7,3.18-4.71,1.22-3.72-3.18c-51.42-43.89-105.74-84-165.06-115.87-120-64.42-267-98.19-436.77-100.37-151.35-2-303.51,20.59-450.65,42.39l-.59-4c147.3-21.82,299.63-44.39,451.29-42.43,170.43,2.18,318,36.12,438.62,100.84C622.17,3166.72,677.39,3207.71,729.62,3252.46Z"/><path d="M686.93,3263.45q2,1.56,3.91,3.14l-4.85,1.24c-1.31-1-2.62-2.1-3.94-3.13-40.41-32-82.81-61.16-128.13-85.48-120-64.42-267-98.19-436.77-100.37-151.38-1.95-303.51,20.59-450.65,42.39l-.59-4c147.3-21.82,299.62-44.39,451.29-42.43,170.43,2.19,318,36.12,438.62,100.85C602.27,3200.63,645.63,3230.6,686.93,3263.45Z"/><path d="M641.61,3274.94q2.11,1.51,4.22,3.06l-5.06,1.27q-2.12-1.55-4.26-3.07a806.21,806.21,0,0,0-88.5-55.57c-120-64.42-267-98.19-436.77-100.37-151.39-1.94-303.51,20.59-450.65,42.39l-.59-4c147.3-21.82,299.63-44.39,451.29-42.43,170.43,2.19,318,36.12,438.62,100.85A812.48,812.48,0,0,1,641.61,3274.94Z"/><path d="M592.46,3287q2.35,1.48,4.68,3-2.68.66-5.37,1.29l-4.73-3h0q-22-13.86-44.93-26.21c-120-64.42-267-98.19-436.77-100.37-151.39-1.94-303.51,20.59-450.65,42.39l-.59-4c147.3-21.81,299.63-44.37,451.29-42.43,170.43,2.19,318,36.12,438.61,100.85Q568.79,3271.83,592.46,3287Z"/><path d="M538.08,3299.93c1.62.87,3.24,1.74,4.85,2.63q-3,.68-5.94,1.32h0l-.79-.43-4.65-2.47c-119.18-62.81-264.53-95.75-432.12-97.9-151.39-2-303.51,20.59-450.65,42.39l-.59-3.95c147.3-21.82,299.63-44.39,451.29-42.44,170.18,2.19,317.57,36,438.08,100.57h0Z"/><path d="M473.34,3313.12l6.5,2.8-6.92,1.36-6.61-2.8c-107-44.67-232.07-68.18-372.8-70-151.38-1.94-303.51,20.59-450.65,42.39l-.59-4c147.3-21.82,299.59-44.4,451.29-42.44,143.65,1.85,271.06,26.24,379.77,72.63Z"/><path d="M393.46,3327.26q4.25,1.34,8.44,2.71l-8.73,1.39h0c-2.88-.92-5.78-1.81-8.68-2.7-88.89-27-188.21-41.36-296.88-42.76-142.13-1.83-284.95,17.94-423.66,38.4h0l-12.95,1.92h0l-14,2.07-.59-3.95,2.08-.31h0l12.7-1.88h0C-206.15,3301-58.94,3280,87.65,3281.9c112.24,1.44,214.56,16.65,305.8,45.36Z"/><path d="M280.76,3342.18q6.71,1.25,13.36,2.59-6.69.77-13.38,1.48-7.12-1.35-14.32-2.59-87.12-15.07-184.73-16.35c-89-1.14-178.38,6.19-266.79,16.86q-9.17,1.1-18.32,2.26c-44.58,5.6-88.9,12-132.83,18.44l-12.83,1.89h0L-369,3369.7l-.59-3.95,8.08-1.19,12.54-1.87c42.49-6.27,85.38-12.52,128.52-18.13q8.67-1.12,17.35-2.21c94.25-11.84,189.65-20.27,284.8-19Q187.24,3324.66,280.76,3342.18Z"/><path d="M1504.35,3177.87q13.8,3.11,27.31,6.67-14-1.07-27.94-2.72h0q-38.42-8.68-79.18-13.95h0a1027.62,1027.62,0,0,0-136.29-8.12h0c-3,0-6.08,0-9.13.07q-33.29.41-67.82,2.72-3.39.21-6.8.47-26.07,1.88-52.84,4.83l-5.87.67q-22.46,2.57-45.4,5.9l-5.38.79q-6.43.95-12.92,2-14,2.21-28,4.62l-5.06.88q-19,3.35-38.07,7.05l-4.87.95q-18.1,3.56-36.17,7.4h0l-4.73,1q-17.5,3.73-35,7.71l-4.64,1.06q-17.19,3.91-34.31,8h0l-4.58,1.09q-17.08,4.08-34.11,8.31l-4.58,1.13q-17.2,4.26-34.32,8.62-2.29.57-4.59,1.17-17.55,4.45-35,8.95l-4.64,1.2L741,3253.67l-7.64,2-4.71,1.22q-18.79,4.86-37.77,9.73l-4.85,1.24Q666,3273,645.83,3278l-5.06,1.27Q619,3284.7,597.14,3290q-2.68.66-5.37,1.29-24.37,5.82-48.84,11.31-3,.68-5.94,1.32h0q-28.56,6.35-57.14,12l-6.92,1.36-1.68.33q-34.55,6.72-69.34,12.36l-8.73,1.39h0q-49.32,7.8-99,13.41-6.69.77-13.38,1.48a2285.26,2285.26,0,0,1-242.91,12.94q-32.44,0-64.88-.92-88.45-2.51-176.37-11.84-8.51-.9-17-1.87Q-285,3337.23-349,3326.22h0c-4.18-.72-8.34-1.45-12.51-2.19h0q-81.06-14.4-160.66-34.62l1-3.88q85.34,21.69,172.38,36.62h0q6.39,1.09,12.77,2.15h0q66.18,11,133,18,9,.95,18,1.82a2292.13,2292.13,0,0,0,451.52-.51q7.17-.72,14.34-1.48,52-5.57,103.72-13.52l9-1.4h0q36.56-5.79,72.85-12.78l4.16-.8,2.86-.56h0q29.1-5.7,58.2-12.14l6-1.33h0q24.78-5.51,49.47-11.4h0c1.81-.42,3.61-.85,5.42-1.29q22.08-5.27,44-10.76l5.1-1.26q20.28-5.07,40.44-10.24l4.88-1.25q19.05-4.87,38-9.77l4.73-1.22,10.34-2.67,25.89-6.69,4.65-1.2q17.47-4.5,35.07-9l4.59-1.16q17.15-4.36,34.38-8.65l4.58-1.14q17-4.22,34.12-8.33h0l4.57-1.1q17.11-4.08,34.29-8l4.64-1.06q17.41-4,34.89-7.72c1.58-.35,3.15-.68,4.72-1q18-3.85,36.06-7.42c1.61-.33,3.23-.64,4.84-1h0q18.91-3.72,37.86-7.07l5-.89q15.61-2.73,31.24-5.18l9.36-1.44,5.35-.8q22.68-3.34,44.89-5.95c2-.23,3.89-.46,5.83-.67q26.3-3,51.93-4.94c2.23-.17,4.46-.34,6.68-.49q33.43-2.39,65.72-3,4.41-.09,8.79-.13a1062.84,1062.84,0,0,1,116.71,4.87h0q14.38,1.41,28.5,3.24h0q40.72,5.28,79.14,14Z"/><path d="M1700.45,3290.5l-1.94,3.5q-27.3-15.14-56.37-27.79h0q-3.84-1.68-7.72-3.3a731.42,731.42,0,0,0-116.18-37.58h-.06a866.89,866.89,0,0,0-108.66-18.27h0a1056.85,1056.85,0,0,0-126.2-5.44h0q-4.49.06-9,.16-33,.72-67.1,3.3c-2.25.16-4.5.34-6.76.52h0q-25.92,2.09-52.53,5.22h0l-5.85.7q-22.38,2.73-45.23,6.21c-1.78.26-3.57.54-5.36.82l-2.47.38q-19.18,3-38.34,6.44l-5.06.9q-19,3.43-38,7.23l-4.85,1q-18.08,3.63-36.1,7.54h0l-4.72,1q-17.48,3.79-34.91,7.82l-4.63,1.07q-17.15,3.95-34.23,8.08h0l-4.58,1.11q-17.06,4.11-34,8.36l-4.57,1.14q-17.16,4.29-34.23,8.64l-4.58,1.17q-17.49,4.47-34.86,9l-4.61,1.19h0l-18.75,4.85-17.2,4.45-4.72,1.22q-18.74,4.83-37.61,9.66l-4.84,1.24q-19.92,5.07-40,10.08h0l-5,1.25q-21.65,5.35-43.4,10.55l-5.37,1.28q-24.24,5.71-48.56,11.1h0l-5.91,1.3q-28.4,6.21-56.81,11.77l-.25,0-6.63,1.28h0q-35.19,6.73-70.64,12.34l-8.68,1.36q-49,7.56-98.35,13-6.63.74-13.25,1.42A2284.47,2284.47,0,0,1,44.75,3401q-32.43,0-64.87-.92-92.67-2.64-184.74-12.75h0q-8.37-.92-16.74-1.91h0q-64-7.5-127.45-18.61h0q-6.2-1.08-12.38-2.2-77.58-14-153.82-33.39l1-3.88q81.88,20.8,165.37,35.4,6.33,1.11,12.68,2.18,65.56,11.1,131.77,18.33h0q8.83,1,17.68,1.87h0a2293,2293,0,0,0,453.19,1h0q7.08-.69,14.17-1.43,51.64-5.34,103-13.06l9-1.37q36.33-5.62,72.44-12.43c2.34-.44,4.67-.88,7-1.34l5.43-1q26.22-5.1,52.44-10.81l6-1.3h0q24.6-5.4,49.17-11.2h0l5.41-1.27h0q22-5.21,43.81-10.62,2.55-.61,5.08-1.26,20.19-5,40.26-10.12h0l4.86-1.25q19-4.83,37.8-9.7h0l4.72-1.22,19.89-5.14,16.21-4.19,4.63-1.2,35-9c1.53-.38,3.05-.78,4.58-1.17h0q17.09-4.35,34.27-8.67l4.57-1.14q17-4.23,34-8.38l4.58-1.11q17.06-4.12,34.2-8.1l4.62-1.07q17.38-4,34.84-7.83c1.57-.35,3.15-.7,4.72-1q18-3.91,36-7.56l4.83-1h0q18.89-3.79,37.79-7.24c1.67-.31,3.35-.62,5-.91q20.25-3.64,40.51-6.85l1.08-.17,4.24-.66q22.59-3.48,44.71-6.25h0l5.8-.71q26.15-3.17,51.66-5.31,3.33-.28,6.66-.54,33.1-2.62,65.1-3.53h0q4.32-.13,8.62-.22a1089.63,1089.63,0,0,1,111.51,3.16h0q11.88.95,23.56,2.2a870.86,870.86,0,0,1,108.62,18.26h0q11.28,2.64,22.36,5.6h0a720.5,720.5,0,0,1,101.52,35.15c2.48,1.06,4.94,2.15,7.39,3.25Q1676,3277,1700.45,3290.5Z"/><path d="M51.69,3442.71q-32.44,0-64.88-.93a2275.39,2275.39,0,0,1-495.17-68.86l1-3.88c322.32,81.92,665.25,91.65,991.7,28.16,90.59-17.62,181.53-41.15,269.48-63.89,111.16-28.75,226.11-58.48,341.45-76.59,246-38.61,452-13.2,612.12,75.54l-1.94,3.5c-159.34-88.3-364.43-113.56-609.56-75.08-115.15,18.07-230,47.77-341.07,76.5-88,22.76-179,46.3-269.71,63.94A2273.39,2273.39,0,0,1,51.69,3442.71Z"/><path d="M58.62,3484.46q-32.44,0-64.88-.92a2275.39,2275.39,0,0,1-495.17-68.86l1-3.88c322.32,81.92,665.25,91.65,991.7,28.15,90.59-17.62,181.53-41.14,269.49-63.89,111.16-28.75,226.1-58.48,341.44-76.58,246-38.62,452-13.2,612.12,75.54l-1.94,3.49c-159.34-88.29-364.43-113.55-609.56-75.08-115.15,18.07-230,47.78-341.06,76.5-88,22.77-179,46.3-269.72,64A2272.58,2272.58,0,0,1,58.62,3484.46Z"/><path d="M65.54,3526.22q-32.43,0-64.87-.92a2276,2276,0,0,1-495.17-68.87l1-3.87c322.32,81.91,665.25,91.65,991.7,28.15,90.59-17.62,181.53-41.14,269.48-63.89,111.16-28.75,226.11-58.48,341.45-76.58,246-38.62,452-13.21,612.12,75.53l-1.94,3.5c-159.34-88.29-364.43-113.55-609.56-75.08-115.15,18.07-230,47.78-341.07,76.5-88,22.77-179,46.3-269.71,63.94A2272.61,2272.61,0,0,1,65.54,3526.22Z"/><path d="M72.48,3568q-32.45,0-64.88-.92a2275.39,2275.39,0,0,1-495.17-68.86l1-3.88c322.32,81.92,665.25,91.65,991.7,28.15,90.59-17.62,181.53-41.14,269.49-63.88,111.16-28.75,226.1-58.48,341.44-76.59,246-38.61,452-13.2,612.12,75.54l-1.94,3.5c-159.34-88.3-364.43-113.56-609.56-75.08-115.15,18.07-230,47.77-341.06,76.5-88,22.76-179,46.3-269.72,63.94A2272.58,2272.58,0,0,1,72.48,3568Z"/><path d="M79.41,3609.73q-32.44,0-64.88-.92A2275.39,2275.39,0,0,1-480.64,3540l1-3.88c322.32,81.92,665.25,91.65,991.7,28.15,90.59-17.62,181.53-41.14,269.48-63.89,111.16-28.75,226.11-58.48,341.45-76.58,246-38.61,452-13.2,612.12,75.54l-1.94,3.49c-159.34-88.29-364.43-113.56-609.56-75.08-115.15,18.08-230,47.78-341.07,76.51-88,22.76-179,46.29-269.71,63.94A2272.58,2272.58,0,0,1,79.41,3609.73Z"/><path d="M86.33,3651.49q-32.43,0-64.87-.92a2276,2276,0,0,1-495.17-68.87l1-3.87c322.32,81.91,665.25,91.65,991.7,28.15,90.59-17.62,181.53-41.14,269.49-63.89,111.16-28.75,226.1-58.48,341.44-76.58,246-38.62,452-13.21,612.12,75.53l-1.94,3.5c-159.34-88.3-364.43-113.56-609.56-75.08-115.15,18.07-230,47.78-341.06,76.5-88,22.76-179,46.3-269.72,63.94A2272.61,2272.61,0,0,1,86.33,3651.49Z"/><path d="M93.27,3693.24q-32.44,0-64.88-.92a2275.39,2275.39,0,0,1-495.17-68.86l1-3.88c322.32,81.92,665.25,91.65,991.7,28.15,90.59-17.62,181.53-41.14,269.48-63.88,111.16-28.75,226.11-58.48,341.45-76.59,246-38.61,452-13.2,612.12,75.54l-1.94,3.5c-159.34-88.3-364.43-113.56-609.56-75.09-115.15,18.08-230,47.78-341.06,76.51-88,22.76-179,46.3-269.72,63.94A2272.58,2272.58,0,0,1,93.27,3693.24Z"/><path d="M100.2,3735q-32.45,0-64.88-.92a2275.39,2275.39,0,0,1-495.17-68.86l1-3.88c322.32,81.92,665.25,91.65,991.7,28.15,90.59-17.62,181.53-41.14,269.48-63.89,111.16-28.75,226.11-58.48,341.45-76.58,246-38.62,452-13.2,612.12,75.53l-1.94,3.5c-159.34-88.29-364.43-113.56-609.56-75.08-115.15,18.07-230,47.78-341.07,76.51-88,22.76-179,46.29-269.71,63.94A2273.39,2273.39,0,0,1,100.2,3735Z"/><path d="M107.13,3776.76q-32.44,0-64.88-.92A2276,2276,0,0,1-452.92,3707l1-3.87c322.32,81.91,665.25,91.65,991.7,28.15,90.59-17.62,181.53-41.14,269.49-63.89,111.16-28.75,226.1-58.48,341.44-76.58,246-38.62,452-13.21,612.12,75.53l-1.94,3.5c-159.34-88.3-364.43-113.55-609.56-75.08-115.15,18.07-230,47.77-341.06,76.5-88,22.76-179,46.3-269.72,63.94A2273.39,2273.39,0,0,1,107.13,3776.76Z"/><path d="M114.06,3818.51q-32.44,0-64.88-.92A2275.39,2275.39,0,0,1-446,3748.73l1-3.88c322.32,81.92,665.25,91.65,991.7,28.15,90.59-17.62,181.53-41.14,269.48-63.88,111.16-28.76,226.11-58.48,341.45-76.59,246-38.62,452-13.2,612.12,75.54l-1.94,3.5c-159.34-88.3-364.43-113.56-609.56-75.09-115.15,18.08-230,47.78-341.06,76.51-88,22.76-179,46.3-269.72,63.94A2272.58,2272.58,0,0,1,114.06,3818.51Z"/><path d="M121,3860.27q-32.43,0-64.87-.92a2276,2276,0,0,1-495.17-68.86l1-3.88c322.32,81.92,665.25,91.65,991.7,28.15,90.59-17.62,181.54-41.14,269.49-63.89,111.16-28.75,226.1-58.48,341.44-76.58,246-38.61,452-13.2,612.12,75.53l-1.94,3.5c-159.34-88.29-364.43-113.56-609.56-75.08-115.15,18.07-230,47.78-341.06,76.5-88,22.77-179,46.3-269.72,64A2273.49,2273.49,0,0,1,121,3860.27Z"/><path d="M127.92,3902q-32.44,0-64.88-.92a2276,2276,0,0,1-495.17-68.87l1-3.87c322.33,81.91,665.25,91.65,991.7,28.15,90.59-17.62,181.53-41.14,269.48-63.89,111.16-28.75,226.11-58.48,341.45-76.58,246-38.62,452-13.21,612.12,75.53l-1.94,3.5c-159.34-88.3-364.43-113.56-609.56-75.08-115.15,18.07-230,47.77-341.07,76.5-88,22.76-179,46.3-269.71,63.94A2273.39,2273.39,0,0,1,127.92,3902Z"/><path d="M134.85,3943.78q-32.44,0-64.88-.92A2275.39,2275.39,0,0,1-425.2,3874l1-3.88c322.32,81.92,665.25,91.65,991.7,28.15,90.59-17.62,181.53-41.14,269.48-63.89,111.16-28.75,226.11-58.47,341.45-76.58,246-38.62,452-13.2,612.12,75.54l-1.94,3.49c-159.34-88.29-364.43-113.55-609.56-75.08-115.15,18.08-230,47.78-341.07,76.51-88,22.76-179,46.3-269.71,63.94A2272.58,2272.58,0,0,1,134.85,3943.78Z"/><path d="M141.78,3985.54q-32.44,0-64.88-.92a2275.4,2275.4,0,0,1-495.17-68.87l1-3.87C-95,3993.79,248,4003.53,574.42,3940,665,3922.41,756,3898.89,843.9,3876.14c111.16-28.75,226.11-58.48,341.45-76.58,246-38.62,452-13.2,612.12,75.53l-1.94,3.5C1636.19,3790.3,1431.1,3765,1186,3803.51c-115.15,18.07-230,47.78-341.06,76.5-88,22.77-179,46.3-269.72,63.95A2273.39,2273.39,0,0,1,141.78,3985.54Z"/><path d="M148.71,4027.29q-32.45,0-64.88-.92a2275.39,2275.39,0,0,1-495.17-68.86l1-3.88c322.32,81.92,665.25,91.66,991.7,28.16,90.59-17.62,181.54-41.15,269.49-63.89,111.16-28.75,226.1-58.48,341.44-76.58,246-38.62,452-13.21,612.12,75.53l-1.94,3.5c-159.34-88.3-364.43-113.56-609.56-75.08-115.15,18.07-230,47.77-341.06,76.5-88,22.76-179,46.3-269.72,63.94A2272.58,2272.58,0,0,1,148.71,4027.29Z"/><path d="M155.64,4069.05q-32.44,0-64.88-.92a2275.39,2275.39,0,0,1-495.17-68.86l1-3.88c322.32,81.92,665.25,91.65,991.7,28.15,90.59-17.62,181.53-41.14,269.48-63.89,111.16-28.75,226.11-58.48,341.45-76.58,246-38.61,452-13.2,612.12,75.54l-1.94,3.49c-159.34-88.29-364.43-113.55-609.56-75.08-115.15,18.08-230,47.78-341.07,76.51-88,22.76-179,46.3-269.71,63.94A2272.58,2272.58,0,0,1,155.64,4069.05Z"/><path d="M162.57,4110.81q-32.44,0-64.87-.92A2276,2276,0,0,1-397.48,4041l1-3.87c322.32,81.91,665.25,91.65,991.7,28.15,90.59-17.62,181.53-41.14,269.49-63.89,111.16-28.75,226.1-58.48,341.44-76.58,246-38.62,452-13.2,612.12,75.53l-1.94,3.5c-159.34-88.29-364.43-113.55-609.56-75.08-115.15,18.07-230,47.78-341.06,76.5-88,22.76-179,46.3-269.72,63.94A2272.59,2272.59,0,0,1,162.57,4110.81Z"/><path d="M169.5,4152.56q-32.44,0-64.87-.92a2275.4,2275.4,0,0,1-495.18-68.86l1-3.88c322.32,81.92,665.25,91.66,991.7,28.16,90.59-17.62,181.54-41.15,269.49-63.89,111.16-28.75,226.1-58.48,341.44-76.59,246-38.61,452-13.2,612.12,75.54l-1.94,3.5c-159.34-88.3-364.43-113.56-609.56-75.08-115.15,18.07-230,47.77-341.06,76.5-88,22.76-179,46.3-269.72,63.94A2272.58,2272.58,0,0,1,169.5,4152.56Z"/><path d="M176.43,4194.32q-32.44,0-64.88-.92a2275.39,2275.39,0,0,1-495.17-68.86l1-3.88c322.32,81.92,665.25,91.65,991.7,28.15,90.59-17.62,181.53-41.14,269.48-63.89,111.16-28.75,226.11-58.48,341.45-76.58,246-38.61,452-13.2,612.12,75.54l-1.94,3.49c-159.34-88.29-364.43-113.55-609.56-75.08-115.15,18.08-230,47.78-341.06,76.51-88,22.76-179,46.29-269.72,63.94A2272.58,2272.58,0,0,1,176.43,4194.32Z"/><path d="M183.36,4236.08q-32.45,0-64.87-.92a2276,2276,0,0,1-495.18-68.87l1-3.87c322.32,81.91,665.25,91.65,991.7,28.15,90.59-17.62,181.54-41.14,269.49-63.89,111.16-28.75,226.1-58.48,341.44-76.58,246-38.62,452-13.21,612.12,75.53l-1.94,3.5c-159.34-88.29-364.42-113.55-609.56-75.08-115.15,18.07-230,47.78-341.06,76.5-88,22.76-179,46.3-269.72,63.94A2272.59,2272.59,0,0,1,183.36,4236.08Z"/><path d="M190.29,4277.83q-32.44,0-64.87-.92a2275.4,2275.4,0,0,1-495.18-68.86l1-3.88c322.32,81.92,665.25,91.66,991.7,28.16,90.59-17.62,181.53-41.15,269.48-63.89,111.16-28.75,226.11-58.48,341.45-76.59,246-38.61,452-13.2,612.12,75.54l-1.94,3.5c-159.34-88.3-364.43-113.56-609.56-75.09-115.15,18.08-230,47.78-341.07,76.51-88,22.76-179,46.3-269.71,63.94A2272.58,2272.58,0,0,1,190.29,4277.83Z"/><path d="M197.22,4319.59q-32.44,0-64.87-.92a2275.4,2275.4,0,0,1-495.18-68.86l1-3.88c322.32,81.92,665.25,91.65,991.7,28.15,90.59-17.62,181.54-41.14,269.49-63.89,111.16-28.75,226.1-58.48,341.44-76.58,246-38.62,452-13.2,612.12,75.54l-1.94,3.49c-159.34-88.29-364.43-113.55-609.56-75.08-115.15,18.07-230,47.78-341.06,76.5-88,22.77-179,46.3-269.72,63.95A2273.39,2273.39,0,0,1,197.22,4319.59Z"/><path d="M204.15,4361.35q-32.44,0-64.87-.92a2276,2276,0,0,1-495.18-68.87l1-3.87c322.32,81.91,665.25,91.65,991.7,28.15,90.59-17.62,181.54-41.14,269.49-63.89,111.16-28.75,226.1-58.48,341.44-76.58,246-38.62,452-13.21,612.12,75.53l-1.94,3.5c-159.34-88.3-364.42-113.56-609.56-75.08-115.14,18.07-230,47.77-341.06,76.5-88,22.76-179,46.3-269.72,63.94A2272.59,2272.59,0,0,1,204.15,4361.35Z"/><path d="M211.08,4403.1q-32.45,0-64.87-.92A2275.4,2275.4,0,0,1-349,4333.32l1-3.88c322.32,81.92,665.25,91.65,991.7,28.15,90.59-17.62,181.53-41.14,269.48-63.88,111.16-28.75,226.11-58.48,341.45-76.59,246-38.61,452-13.2,612.12,75.54l-1.94,3.5c-159.34-88.3-364.43-113.56-609.56-75.09-115.15,18.08-230,47.78-341.07,76.51-88,22.76-179,46.3-269.71,63.94A2272.5,2272.5,0,0,1,211.08,4403.1Z"/></g></svg>