<?xml version="1.0" encoding="utf-8"?>
<!-- Generator: Adobe Illustrator 22.1.0, SVG Export Plug-In . SVG Version: 6.00 Build 0)  -->
<svg version="1.1" id="Layer_1" xmlns="http://www.w3.org/2000/svg" xmlns:xlink="http://www.w3.org/1999/xlink" x="0px" y="0px"
	 viewBox="0 0 75 43" style="enable-background:new 0 0 75 43;" xml:space="preserve">
<g>
	<path d="M28.1,37.9c-0.1,0-0.2-0.1-0.3-0.1c-0.1-0.1-0.2-0.2-0.3-0.3c-0.1-0.1-0.1-0.3-0.1-0.4c0-0.3,0.1-0.6,0.2-1
		c0.1-0.2,0.2-0.3,0.2-0.4c0-0.1,0.1-0.2,0.2-0.3c0.1-0.1,0.2-0.3,0.3-0.4c0.2-0.2,0.4-0.4,0.5-0.5c0.1-0.1,0.3-0.3,0.5-0.4l0.1-0.5
		C29,33.9,28.7,34,28.4,34c-0.2,0-0.4-0.1-0.6-0.2c-0.2-0.1-0.3-0.3-0.4-0.5c-0.2-0.4-0.2-0.8,0-1.2c0.1-0.4,0.3-0.8,0.4-1.1
		s0.3-0.5,0.6-0.8c0.3-0.3,0.7-0.5,1-0.5c0.1,0,0.3,0,0.3,0.1c0,0,0,0,0,0s0,0,0,0s0,0,0,0s0,0,0,0c0,0,0,0,0.1,0c0,0,0,0,0.1,0
		c0,0,0.1,0,0.1,0l0.2,0c0.1,0,0.2,0,0.3,0.1c0,0,0,0.1,0.1,0.1c0,0.1,0,0.4,0,0.9c0,0.2,0,0.3-0.1,0.6s-0.1,0.5-0.1,0.8
		c0,0.3-0.1,0.6-0.1,1.1c0.1,0,0.2-0.1,0.3-0.2c0.3-0.3,0.7-0.7,1.1-1.4L32,33c-0.1,0.2-0.2,0.3-0.4,0.5c-0.2,0.2-0.4,0.4-0.5,0.5
		c0,0,0,0-0.1,0c-0.3,0.2-0.5,0.3-0.6,0.4c-0.1,0.1-0.1,0.1-0.2,0.3s-0.1,0.4-0.1,0.8c0,0.1,0,0.2,0,0.2c0,0.1,0,0.3,0,0.4
		c0,0.1,0,0.3-0.1,0.4c0,0.2-0.1,0.3-0.1,0.4c-0.1,0.1-0.1,0.3-0.2,0.4c-0.1,0.1-0.2,0.2-0.3,0.3c-0.1,0.1-0.2,0.2-0.4,0.2
		S28.6,38,28.5,38C28.3,38,28.2,38,28.1,37.9z M28.7,35.8c-0.2,0.3-0.3,0.6-0.5,1c-0.1,0.3,0,0.4,0.1,0.4c0.1,0,0.1,0,0.2,0
		c0.1,0,0.1,0,0.1-0.1c0,0,0.1-0.1,0.1-0.1s0.1-0.1,0.1-0.2c0-0.1,0.1-0.2,0.1-0.3c0-0.1,0.1-0.2,0.1-0.4c0-0.1,0-0.2,0.1-0.3
		c0-0.1,0-0.2,0-0.4c0-0.1,0-0.2,0-0.3C29.1,35.3,28.9,35.5,28.7,35.8z M28.4,33c0.1,0.1,0.2,0.2,0.3,0.2c0.2,0,0.4-0.2,0.5-0.5
		c0.1-0.2,0.2-0.5,0.2-0.7l0.3-1.4c-0.3,0-0.6,0.2-0.9,0.7c-0.3,0.5-0.4,0.8-0.4,1C28.3,32.6,28.3,32.9,28.4,33z"/>
	<path d="M36.2,33c-0.1,0.1-0.2,0.2-0.3,0.3c-0.1,0.1-0.2,0.2-0.4,0.4c-0.1,0.1-0.3,0.2-0.4,0.3C35,34,34.8,34,34.7,34
		c-0.2,0-0.3-0.1-0.5-0.2s-0.2-0.3-0.3-0.5c-0.1,0.1-0.2,0.2-0.3,0.2c-0.1,0.1-0.2,0.2-0.3,0.2S33,33.9,32.9,34
		c-0.1,0-0.3,0.1-0.4,0.1c-0.1,0-0.3,0-0.4-0.1c-0.1-0.1-0.2-0.1-0.3-0.2c-0.1-0.1-0.2-0.2-0.2-0.4c-0.1-0.2-0.1-0.3-0.1-0.5
		c0-0.2,0-0.4,0.1-0.7c0.1-0.2,0.2-0.5,0.3-0.7s0.3-0.5,0.4-0.7s0.3-0.4,0.5-0.5c0.2-0.1,0.4-0.3,0.5-0.3s0.4-0.1,0.6-0.1
		c0.1,0,0.1,0,0.2,0s0.1,0.1,0.1,0.1s0,0.1,0.1,0.1s0.1,0.1,0.1,0.1c0,0,0.1,0,0.1,0c0,0,0.1,0,0.1,0c0,0,0.1,0,0.1,0
		c0,0,0.1,0,0.1,0c0,0,0.1,0,0.1,0c0,0,0.1,0,0.1,0.1c0,0,0.1,0.1,0.1,0.1s0,0.1,0,0.2c0,0.1,0,0.3,0,0.5c0,0.2-0.1,0.3-0.1,0.5
		s-0.1,0.4-0.1,0.6c0,0.2-0.1,0.4-0.1,0.6c0,0.1,0,0.2,0,0.3c0,0.1,0.1,0.1,0.2,0.1c0.1,0,0.1,0,0.2,0c0.1,0,0.1-0.1,0.2-0.1
		c0.1,0,0.1-0.1,0.2-0.2c0.1-0.1,0.1-0.1,0.2-0.2c0.1-0.2,0.3-0.3,0.4-0.5L36.2,33z M32.5,32.6c0,0.1,0,0.1,0,0.2
		c0,0.1,0,0.1,0.1,0.2s0.1,0.1,0.1,0.1c0,0,0.1,0.1,0.2,0.1c0.1,0,0.2,0,0.3-0.1c0.1-0.1,0.2-0.2,0.2-0.3c0.1-0.1,0.1-0.3,0.2-0.4
		s0.1-0.3,0.1-0.3l0.3-1.4c-0.1,0-0.2,0-0.3,0.1c-0.1,0.1-0.2,0.1-0.3,0.2c-0.1,0.1-0.2,0.2-0.3,0.3c-0.1,0.1-0.2,0.3-0.2,0.5
		c-0.1,0.2-0.1,0.3-0.2,0.5S32.5,32.5,32.5,32.6z"/>
	<path d="M40.3,33c-0.1,0.1-0.2,0.2-0.3,0.3s-0.2,0.2-0.4,0.4c-0.1,0.1-0.3,0.2-0.4,0.3C39.1,34,39,34,38.8,34
		c-0.2,0-0.3-0.1-0.5-0.2s-0.2-0.3-0.3-0.5c-0.1,0.1-0.2,0.2-0.3,0.2c-0.1,0.1-0.2,0.2-0.3,0.2S37.2,33.9,37,34
		c-0.1,0-0.3,0.1-0.4,0.1c-0.1,0-0.3,0-0.4-0.1c-0.1-0.1-0.2-0.1-0.3-0.2c-0.1-0.1-0.2-0.2-0.2-0.4c-0.1-0.2-0.1-0.3-0.1-0.5
		c0-0.2,0-0.4,0.1-0.7c0.1-0.2,0.2-0.5,0.3-0.7s0.3-0.5,0.4-0.7s0.3-0.4,0.5-0.5c0.2-0.1,0.4-0.3,0.5-0.3s0.4-0.1,0.6-0.1
		c0.1,0,0.1,0,0.2,0s0.1,0.1,0.1,0.1s0,0.1,0.1,0.1s0.1,0.1,0.1,0.1c0,0,0.1,0,0.1,0c0,0,0.1,0,0.1,0c0,0,0.1,0,0.1,0
		c0,0,0.1,0,0.1,0c0,0,0.1,0,0.1,0c0,0,0.1,0,0.1,0.1c0,0,0.1,0.1,0.1,0.1s0,0.1,0,0.2c0,0.1,0,0.3,0,0.5c0,0.2-0.1,0.3-0.1,0.5
		s-0.1,0.4-0.1,0.6c0,0.2-0.1,0.4-0.1,0.6c0,0.1,0,0.2,0,0.3c0,0.1,0.1,0.1,0.2,0.1c0.1,0,0.1,0,0.2,0c0.1,0,0.1-0.1,0.2-0.1
		c0.1,0,0.1-0.1,0.2-0.2c0.1-0.1,0.1-0.1,0.2-0.2c0.1-0.2,0.3-0.3,0.4-0.5L40.3,33z M36.7,32.6c0,0.1,0,0.1,0,0.2
		c0,0.1,0,0.1,0.1,0.2s0.1,0.1,0.1,0.1c0,0,0.1,0.1,0.2,0.1c0.1,0,0.2,0,0.3-0.1c0.1-0.1,0.2-0.2,0.2-0.3c0.1-0.1,0.1-0.3,0.2-0.4
		s0.1-0.3,0.1-0.3l0.3-1.4c-0.1,0-0.2,0-0.3,0.1c-0.1,0.1-0.2,0.1-0.3,0.2c-0.1,0.1-0.2,0.2-0.3,0.3c-0.1,0.1-0.2,0.3-0.2,0.5
		c-0.1,0.2-0.1,0.3-0.2,0.5S36.7,32.5,36.7,32.6z"/>
	<path d="M40,33.1c0-0.1,0-0.3,0-0.4c0-0.2,0-0.3,0.1-0.5c0-0.2,0.1-0.4,0.1-0.6s0.1-0.4,0.1-0.6c0.1-0.2,0.1-0.4,0.1-0.5
		c0-0.1,0.1-0.3,0.1-0.4c0-0.1,0-0.1,0.1-0.1c0,0,0-0.1,0.1-0.1c0,0,0.1,0,0.1,0c0,0,0.1,0,0.2,0c0.1,0,0.1,0,0.2,0
		c0,0,0.1,0,0.1,0.1c0,0,0,0.1,0,0.1s0,0.1,0,0.2c0,0.1,0,0.3,0,0.4c0,0.2,0,0.4,0,0.5h0c0.1-0.1,0.1-0.3,0.2-0.4
		c0.1-0.2,0.2-0.3,0.3-0.5s0.2-0.2,0.3-0.3c0.1-0.1,0.3-0.1,0.4-0.1c0.1,0,0.1,0,0.2,0c0.1,0,0.1,0,0.1,0.1c0,0,0.1,0.1,0.1,0.1
		c0,0,0,0.1,0,0.2c0,0,0,0.1,0,0.2c0,0.1,0,0.2-0.1,0.3c0,0.1-0.1,0.3-0.1,0.3c0,0.1,0,0.2,0,0.2c0,0.1,0,0.2,0,0.3
		c0,0.1,0,0.1,0.1,0.2s0.1,0.1,0.1,0.1c0,0,0.1,0,0.1,0c0.1,0,0.3,0,0.4-0.1c0.1-0.1,0.3-0.1,0.4-0.2c0.1-0.1,0.3-0.2,0.4-0.3
		l-0.1,1c-0.1,0-0.2,0.1-0.3,0.2c-0.1,0.1-0.2,0.1-0.3,0.2s-0.2,0.1-0.3,0.1s-0.2,0.1-0.4,0.1c-0.2,0-0.4,0-0.5-0.1
		s-0.2-0.2-0.3-0.3S42,32,41.9,31.9s-0.1-0.4-0.1-0.5h-0.1L41,33.5c0,0.1-0.1,0.2-0.1,0.3c0,0.1-0.1,0.1-0.1,0.2
		c0,0-0.1,0.1-0.1,0.1c0,0-0.1,0-0.1,0c-0.1,0-0.2,0-0.3-0.1c-0.1,0-0.1-0.1-0.2-0.2c0-0.1-0.1-0.2-0.1-0.3C40,33.4,40,33.3,40,33.1
		z"/>
	<path d="M48.5,33.1c-0.2,0.2-0.4,0.3-0.6,0.4c-0.1,0.1-0.2,0.1-0.3,0.2c-0.1,0.1-0.2,0.1-0.3,0.1c-0.1,0-0.2,0.1-0.3,0.1
		c-0.1,0-0.2,0-0.2,0c0,0-0.1,0-0.2,0c-0.1,0-0.2-0.1-0.3-0.1c-0.1-0.1-0.2-0.1-0.3-0.2c-0.1-0.1-0.2-0.2-0.2-0.4
		c-0.1,0.1-0.2,0.2-0.3,0.3c-0.1,0.1-0.2,0.2-0.4,0.3S45,33.9,44.8,34c-0.1,0-0.3,0.1-0.4,0.1c-0.2,0-0.3,0-0.5-0.1
		s-0.2-0.2-0.3-0.3s-0.2-0.3-0.2-0.4c0-0.2-0.1-0.3-0.1-0.5c0-0.2,0-0.4,0.1-0.6s0.1-0.4,0.2-0.6s0.2-0.4,0.3-0.6s0.3-0.4,0.4-0.5
		c0.2-0.2,0.4-0.3,0.6-0.4c0.2-0.1,0.4-0.1,0.6-0.2c0-0.4,0-0.7,0.1-1s0.1-0.6,0.2-0.9c0.1-0.3,0.2-0.6,0.3-0.9s0.3-0.5,0.4-0.7
		s0.3-0.4,0.5-0.5s0.3-0.2,0.5-0.2c0.1,0,0.2,0,0.3,0.1c0.1,0.1,0.2,0.2,0.2,0.3c0.1,0.1,0.1,0.3,0.1,0.4s0,0.3,0,0.5
		c0,0.1,0,0.2,0,0.3c0,0.4-0.1,0.8-0.2,1.1c-0.1,0.4-0.2,0.7-0.4,1c-0.1,0.3-0.3,0.7-0.4,1c-0.2,0.5-0.4,0.9-0.5,1c0,0,0,0.1,0,0.1
		c0,0.1,0,0.1,0,0.2c0,0.1,0,0.1,0,0.2c0,0.1,0,0.1,0,0.2c0,0.1,0,0.2,0,0.2c0,0.1,0,0.1,0,0.2c0,0.1,0.1,0.1,0.1,0.1S47,33,47.1,33
		s0.1,0,0.2,0s0.1-0.1,0.2-0.1c0.1,0,0.1-0.1,0.2-0.1c0.1,0,0.1-0.1,0.2-0.1c0.2-0.1,0.3-0.2,0.5-0.4L48.5,33.1z M45.6,30.6
		c-0.2,0.1-0.4,0.2-0.5,0.4c-0.1,0.2-0.3,0.3-0.4,0.6c-0.1,0.2-0.2,0.5-0.2,0.6c-0.1,0.2-0.1,0.3-0.1,0.5c0,0,0,0.1,0,0.1
		c0,0,0,0.1,0.1,0.1c0,0,0.1,0.1,0.1,0.1s0.1,0,0.2,0c0.1,0,0.1,0,0.2,0c0,0,0.1-0.1,0.1-0.1c0,0,0.1-0.1,0.1-0.1
		c0,0,0.1-0.1,0.1-0.1c0.1-0.1,0.2-0.2,0.2-0.4c0,0,0-0.1,0-0.2c0-0.1,0-0.2,0-0.4c0-0.2,0-0.3,0-0.4c0-0.1,0-0.2,0-0.3
		C45.6,30.8,45.6,30.8,45.6,30.6C45.6,30.6,45.6,30.6,45.6,30.6z M47.6,27.7c0-0.2,0-0.4,0-0.5c0-0.2,0-0.3,0-0.3s-0.1-0.1-0.1-0.1
		c-0.1,0-0.2,0.1-0.3,0.2S47,27.3,47,27.4s-0.1,0.4-0.1,0.6c-0.1,0.2-0.1,0.4-0.1,0.6c0,0.2,0,0.4-0.1,0.6c0,0.2,0,0.3,0,0.4
		c0,0.1,0,0.3,0,0.4s0,0.3,0,0.4c0,0.1,0,0.2,0,0.3s0,0.1,0,0.2v0c0.2-0.4,0.3-0.8,0.4-1.1c0.1-0.2,0.1-0.3,0.2-0.5
		c0.1-0.2,0.1-0.3,0.2-0.5c0.1-0.2,0.1-0.3,0.1-0.5S47.6,27.9,47.6,27.7z"/>
</g>
<g>
	<path d="M12.4,24.2h-1.5v-6.7h1.5l2.7,4.1h0v-4.1h1.5v6.7h-1.5L12.4,20h0V24.2z"/>
	<path d="M18.1,23.1c-0.5-0.6-0.8-1.4-0.8-2.3c0-1.9,1.5-3.5,3.4-3.5c0.6,0,1.2,0.2,1.7,0.4l0.4-0.5l0.9,0.7l-0.5,0.6
		c0.5,0.6,0.8,1.4,0.8,2.3c0,1.9-1.4,3.5-3.4,3.5c-0.6,0-1.2-0.2-1.7-0.4l-0.4,0.5l-0.9-0.7L18.1,23.1z M19.1,21.8l2.3-2.8
		c-0.2-0.1-0.4-0.2-0.7-0.2c-1.2,0-1.7,1-1.7,2C18.9,21.2,19,21.5,19.1,21.8z M22.1,19.8l-2.3,2.8c0.2,0.1,0.5,0.1,0.7,0.1
		c1.2,0,1.7-1,1.7-2C22.3,20.5,22.3,20.1,22.1,19.8z"/>
	<path d="M27.1,17.5c1.2,0,2.2,0.7,2.2,2c0,1-0.5,1.7-1.4,1.9l2.3,2.8h-1.9l-2-2.6v2.6h-1.5v-6.7H27.1z M26.4,20.4
		c0.6,0,1.3,0,1.3-0.9s-0.7-0.9-1.3-0.9h-0.2v1.7H26.4z"/>
	<path d="M32.8,17.5c1.2,0,2.2,0.7,2.2,2c0,1-0.5,1.7-1.4,1.9l2.3,2.8H34l-2-2.6v2.6h-1.5v-6.7H32.8z M32.2,20.4
		c0.6,0,1.3,0,1.3-0.9s-0.7-0.9-1.3-0.9H32v1.7H32.2z"/>
	<path d="M40.1,18.8h-2.3v1.3H40v1.3h-2.2v1.3h2.3v1.3h-3.8v-6.7h3.8V18.8z"/>
	<path d="M46.1,20.2L46.1,20.2l-1.4,3.9h-0.9l-1.4-3.9h0l-0.3,4h-1.5l0.6-6.7h1.6l1.5,3.8l1.5-3.8h1.6l0.6,6.7h-1.5L46.1,20.2z"/>
	<path d="M54.7,24.2H53l-0.5-1.3H50l-0.5,1.3h-1.6l2.7-6.7H52L54.7,24.2z M51.3,19.5L51.3,19.5l-0.8,1.9H52L51.3,19.5z"/>
	<path d="M56.9,17.5c1.8,0,3.4,1.4,3.4,3.3c0,1.9-1.5,3.3-3.4,3.3h-1.9v-6.7H56.9z M56.7,22.8c1.1,0,1.9-0.9,1.9-2
		c0-1.1-0.8-2-1.9-2h-0.2v4H56.7z"/>
	<path d="M64.7,18.8h-2.3v1.3h2.2v1.3h-2.2v1.3h2.3v1.3h-3.8v-6.7h3.8V18.8z"/>
</g>
<path d="M39.9,13.1c0,0,0-0.1,0.1-0.1c0,0,0-0.1,0.1-0.1c0-0.1,0.1-0.1,0.1-0.2c0,0,0,0,0,0c0.1-0.3,0.2-0.5,0.2-0.7c0,0,0,0,0-0.1
	c0.1-0.5,0.3-1.3,0.5-1.9c0,0,0,0,0-0.1C41,9.8,41,9.8,41,9.7c0,0,0-0.1,0.1-0.1c0.3-0.7,0.9-1.2,1.3-1.8c0,0,0,0,0-0.1
	c0.1-0.2,0.1-0.3,0.1-0.6c0,0,0,0,0,0c0,0,0,0,0,0c0,0,0,0-0.1,0c0,0-0.1,0-0.1,0c0,0-0.1,0-0.1,0c-0.4,0.1-0.7,0.4-0.8,0.7
	c0,0,0,0.1,0,0.1c-0.2,0.6-0.4,0.9-1,1.3c0,0,0,0-0.1,0c-0.1,0-0.3-0.1-0.4-0.3c0,0,0-0.1,0-0.1c-0.1-0.8,0.5-1.5,0.9-2.1
	c0,0,0-0.1,0.1-0.1c0.2-0.3,0.2-0.9-0.2-1.1c0,0-0.1,0-0.1,0c-0.2,0-0.4,0.1-0.5,0.3c0,0,0,0.1,0,0.1c-0.1,0.6-0.3,1.2-0.5,1.8
	c0,0,0,0.1,0,0.1c0,0,0,0.1,0,0.1c0,0,0,0.1,0,0.1c-0.1,0.3-0.3,0.5-0.5,0.7c0,0,0,0-0.1,0c-0.4,0.1-0.6-0.2-0.7-0.6
	c0-0.1,0-0.2,0-0.2c0-0.1,0-0.2,0-0.3c0,0,0-0.1,0-0.1c0-0.5,0-1.1,0.1-1.6c0,0,0-0.1,0-0.1c0-0.2,0.1-0.3,0.1-0.5c0,0,0-0.1,0-0.1
	c0-0.4-0.3-0.8-0.8-0.6c0,0-0.1,0-0.1,0c-0.3,0.2-0.2,0.6-0.1,0.9c0,0,0,0.1,0,0.1c0.1,0.5,0.2,1.1,0.1,1.6c0,0,0,0.1,0,0.1
	c0,0.1,0,0.1,0,0.2c0,0,0,0.1,0,0.1c0,0.3-0.1,0.5-0.3,0.8c0,0,0,0-0.1,0.1c-0.1,0.1-0.3,0.1-0.4,0.1c0,0-0.1,0-0.1,0
	c0,0-0.1,0-0.1,0c-0.8-0.8-0.8-2-1-3c0,0,0,0,0-0.1c0-0.1-0.1-0.1-0.1-0.2c0,0-0.1,0-0.1-0.1c-0.4-0.2-0.8,0.1-0.8,0.5
	c0,0,0,0.1,0,0.1c0.3,1.1,1,2.1,1.2,3.2c0,0.1,0,0.2,0,0.3c0.1,0.8-0.3,2.1-1.3,1.4c-0.1,0-0.1-0.1-0.2-0.1
	c-0.3-0.2-0.5-0.5-0.7-0.7c0,0,0,0-0.1-0.1c-0.2-0.2-0.4-0.4-0.7-0.4c0,0-0.1,0-0.1,0c0,0-0.1,0-0.1,0.1c0,0-0.1,0-0.1,0.1
	c-0.3,0.2-0.1,0.6,0.2,0.8c0,0,0.1,0,0.1,0.1c0.1,0.1,0.2,0.2,0.3,0.3c0,0,0.1,0,0.1,0.1c0.6,0.4,1.3,0.8,1.8,1.3
	c0,0,0.1,0.1,0.1,0.1c0.2,0.1,0.3,0.3,0.5,0.5c0,0,0.1,0.1,0.1,0.1c0.1,0.1,0.1,0.2,0.2,0.3c0,0,0.1,0.1,0.1,0.1
	c0.3,0.3,0.6,0.6,1.1,0.7c0,0,0.1,0,0.1,0c0.1,0,0.2,0,0.3-0.1c0,0,0.1,0,0.1-0.1c0,0,0.1,0,0.1,0c0.3-0.1,0.5-0.2,0.8-0.1
	c0,0,0.1,0,0.1,0c0.4,0.2,1.1,0.5,1.4,0c0,0,0.1-0.1,0.1-0.1C39.8,13.2,39.9,13.2,39.9,13.1C39.9,13.1,39.9,13.1,39.9,13.1z"/>
</svg>
