<?xml version="1.0" encoding="utf-8"?>
<!-- Generator: Adobe Illustrator 23.0.1, SVG Export Plug-In . SVG Version: 6.00 Build 0)  -->
<svg version="1.1" id="Layer_1" xmlns="http://www.w3.org/2000/svg" xmlns:xlink="http://www.w3.org/1999/xlink" x="0px" y="0px"
	 viewBox="0 0 325.79 203.23" style="enable-background:new 0 0 325.79 203.23;" xml:space="preserve">
<style type="text/css">
	.st0{enable-background:new    ;}
	.st1{fill:#232222;}
	.st2{fill:none;}
</style>
<g class="st0">
	<path class="st1" d="M134.32,154.78c0.21,0.35,0.32,0.79,0.32,1.33c0,0.65-0.1,1.15-0.29,1.52c-0.2,0.37-0.51,0.69-0.93,0.97
		c-2.41,1.63-4.18,2.84-5.31,3.62l-2.69,1.81c-1.07,5.81-2.46,10.38-4.19,13.71c-1.73,3.33-3.92,4.99-6.59,4.99
		c-1.43,0-2.6-0.44-3.49-1.33c-0.9-0.88-1.35-2.04-1.35-3.47c0-1.99,0.79-4.13,2.36-6.42c1.57-2.29,4.52-5.1,8.84-8.44l0.25-1.64
		c-0.48,0.76-1.1,1.34-1.87,1.75c-0.77,0.41-1.54,0.61-2.29,0.61c-1.74,0-3.13-0.63-4.17-1.9c-1.04-1.26-1.56-2.92-1.56-4.97
		c0-2.25,0.52-4.37,1.56-6.38c1.04-2.01,2.42-3.62,4.15-4.84c1.73-1.22,3.56-1.83,5.49-1.83c0.62,0,1.03,0.12,1.24,0.36
		c0.21,0.24,0.39,0.67,0.53,1.28c0.53-0.11,1.15-0.17,1.85-0.17c0.7,0,1.2,0.11,1.49,0.32c0.29,0.21,0.44,0.63,0.44,1.24
		c0,0.34-0.01,0.6-0.04,0.8c-0.11,0.87-0.46,3.07-1.05,6.61c-0.11,0.67-0.23,1.41-0.36,2.21c-0.13,0.8-0.26,1.65-0.4,2.55
		c2.16-1.68,4.24-3.17,6.23-4.46c0.36-0.22,0.69-0.34,0.97-0.34C133.83,154.26,134.11,154.43,134.32,154.78z M117.48,176.11
		c0.88-1.68,1.73-4.37,2.55-8.04c-2.16,1.85-3.72,3.52-4.67,5.01c-0.95,1.49-1.43,2.79-1.43,3.92c0,0.48,0.09,0.87,0.27,1.18
		c0.18,0.31,0.48,0.46,0.91,0.46C115.8,178.64,116.6,177.79,117.48,176.11z M120.45,158.34c0.59-0.79,1.01-1.91,1.26-3.37l1.35-7.2
		c-1.15,0.03-2.22,0.47-3.2,1.33c-0.98,0.86-1.77,1.99-2.36,3.39s-0.88,2.89-0.88,4.46c0,0.87,0.17,1.52,0.53,1.94
		c0.35,0.42,0.83,0.63,1.45,0.63C119.24,159.52,119.86,159.13,120.45,158.34z"/>
	<path class="st1" d="M132.66,161.88c-1.04-1.26-1.56-2.92-1.56-4.97c0-2.25,0.52-4.37,1.56-6.38c1.04-2.01,2.42-3.62,4.15-4.84
		c1.73-1.22,3.56-1.83,5.49-1.83c0.62,0,1.03,0.12,1.24,0.36c0.21,0.24,0.39,0.67,0.53,1.28c0.59-0.11,1.21-0.17,1.85-0.17
		c1.38,0,2.06,0.49,2.06,1.47c0,0.59-0.21,1.99-0.63,4.21c-0.65,3.23-0.97,5.47-0.97,6.74c0,0.42,0.11,0.76,0.32,1.01
		c0.21,0.25,0.48,0.38,0.82,0.38c0.53,0,1.18-0.34,1.94-1.03c0.76-0.69,1.78-1.8,3.07-3.35c0.34-0.39,0.72-0.59,1.14-0.59
		c0.36,0,0.65,0.17,0.86,0.51c0.21,0.34,0.32,0.8,0.32,1.39c0,1.12-0.27,1.99-0.8,2.61c-1.15,1.43-2.37,2.64-3.66,3.62
		c-1.29,0.98-2.54,1.47-3.75,1.47c-0.93,0-1.78-0.32-2.55-0.95c-0.77-0.63-1.35-1.49-1.75-2.59c-1.46,2.36-3.3,3.54-5.52,3.54
		C135.09,163.77,133.7,163.14,132.66,161.88z M140.11,158.43c0.56-0.73,0.97-1.7,1.22-2.91l1.56-7.75
		c-1.18,0.03-2.27,0.47-3.26,1.33c-1,0.86-1.79,1.99-2.38,3.39s-0.88,2.89-0.88,4.46c0,0.87,0.17,1.52,0.53,1.94
		c0.35,0.42,0.83,0.63,1.45,0.63C138.96,159.52,139.55,159.16,140.11,158.43z"/>
	<path class="st1" d="M152.45,161.88c-1.04-1.26-1.56-2.92-1.56-4.97c0-2.25,0.52-4.37,1.56-6.38c1.04-2.01,2.42-3.62,4.15-4.84
		c1.73-1.22,3.56-1.83,5.49-1.83c0.62,0,1.03,0.12,1.24,0.36c0.21,0.24,0.39,0.67,0.53,1.28c0.59-0.11,1.21-0.17,1.85-0.17
		c1.38,0,2.06,0.49,2.06,1.47c0,0.59-0.21,1.99-0.63,4.21c-0.65,3.23-0.97,5.47-0.97,6.74c0,0.42,0.11,0.76,0.32,1.01
		c0.21,0.25,0.48,0.38,0.82,0.38c0.53,0,1.18-0.34,1.94-1.03c0.76-0.69,1.78-1.8,3.07-3.35c0.34-0.39,0.72-0.59,1.14-0.59
		c0.36,0,0.65,0.17,0.86,0.51c0.21,0.34,0.32,0.8,0.32,1.39c0,1.12-0.27,1.99-0.8,2.61c-1.15,1.43-2.37,2.64-3.66,3.62
		c-1.29,0.98-2.54,1.47-3.75,1.47c-0.93,0-1.78-0.32-2.55-0.95c-0.77-0.63-1.35-1.49-1.75-2.59c-1.46,2.36-3.3,3.54-5.52,3.54
		C154.88,163.77,153.49,163.14,152.45,161.88z M159.9,158.43c0.56-0.73,0.97-1.7,1.22-2.91l1.56-7.75
		c-1.18,0.03-2.27,0.47-3.26,1.33c-1,0.86-1.79,1.99-2.38,3.39s-0.88,2.89-0.88,4.46c0,0.87,0.17,1.52,0.53,1.94
		c0.35,0.42,0.83,0.63,1.45,0.63C158.75,159.52,159.34,159.16,159.9,158.43z"/>
	<path class="st1" d="M171.97,162.09c-0.44-1.12-0.65-2.92-0.65-5.39c0-3.65,0.52-7.12,1.56-10.4c0.25-0.81,0.67-1.41,1.24-1.79
		c0.58-0.38,1.38-0.57,2.42-0.57c0.56,0,0.95,0.07,1.18,0.21s0.34,0.41,0.34,0.8c0,0.45-0.21,1.46-0.63,3.03
		c-0.28,1.12-0.5,2.11-0.67,2.95c-0.17,0.84-0.31,1.88-0.42,3.12c0.93-2.41,1.96-4.38,3.12-5.89c1.15-1.52,2.28-2.6,3.39-3.24
		c1.11-0.65,2.13-0.97,3.05-0.97c1.82,0,2.74,0.91,2.74,2.74c0,0.36-0.13,1.25-0.38,2.65c-0.22,1.12-0.34,1.83-0.34,2.11
		c0,0.98,0.35,1.47,1.05,1.47c0.79,0,1.8-0.62,3.03-1.85c0.37-0.37,0.74-0.55,1.14-0.55c0.36,0,0.65,0.16,0.86,0.48
		c0.21,0.32,0.32,0.75,0.32,1.28c0,1.04-0.28,1.85-0.84,2.44c-0.79,0.81-1.71,1.51-2.76,2.08c-1.05,0.58-2.17,0.86-3.35,0.86
		c-1.49,0-2.62-0.38-3.39-1.14c-0.77-0.76-1.16-1.78-1.16-3.07c0-0.42,0.04-0.84,0.13-1.26c0.06-0.56,0.08-0.94,0.08-1.14
		c0-0.45-0.16-0.67-0.46-0.67c-0.42,0-0.98,0.47-1.66,1.41s-1.37,2.18-2.04,3.73s-1.22,3.17-1.64,4.88
		c-0.31,1.32-0.67,2.21-1.07,2.67s-1.05,0.7-1.92,0.7C173.15,163.77,172.4,163.21,171.97,162.09z"/>
	<path class="st1" d="M215.17,154.68c0.21,0.34,0.32,0.8,0.32,1.39c0,1.12-0.27,1.99-0.8,2.61c-1.15,1.4-2.41,2.6-3.79,3.6
		c-1.38,1-2.74,1.5-4.08,1.5c-2.13,0-3.76-1.25-4.88-3.75c-1.18,1.49-2.21,2.48-3.09,2.99c-0.88,0.51-1.92,0.76-3.09,0.76
		c-1.71,0-3.12-0.64-4.23-1.92c-1.11-1.28-1.66-2.94-1.66-4.99c0-2.25,0.48-4.33,1.43-6.25c0.95-1.92,2.27-3.5,3.94-4.72
		s3.54-1.94,5.62-2.17c0.53-5.45,1.55-10.1,3.05-13.96c1.5-3.86,3.47-5.79,5.92-5.79c1.21,0,2.21,0.55,3.01,1.64
		c0.8,1.09,1.2,2.75,1.2,4.97c0,3.14-0.77,6.82-2.32,11.03c-1.54,4.21-3.61,8.53-6.19,12.97c0.11,1.63,0.36,2.79,0.74,3.5
		c0.38,0.7,0.86,1.05,1.45,1.05c0.76,0,1.53-0.34,2.32-1.01s1.84-1.8,3.16-3.37c0.34-0.39,0.72-0.59,1.14-0.59
		C214.67,154.17,214.95,154.34,215.17,154.68z M198.81,158.87c0.53-0.44,1.21-1.24,2.02-2.42c-0.28-1.52-0.42-3.21-0.42-5.09
		c0-0.67,0.03-1.77,0.08-3.28c-1.54,0.48-2.83,1.51-3.85,3.09c-1.03,1.59-1.54,3.35-1.54,5.28c0,2.05,0.7,3.07,2.11,3.07
		C197.74,159.52,198.27,159.3,198.81,158.87z M207.73,130.95c-0.53,1.89-0.99,4.37-1.37,7.43s-0.65,6.26-0.82,9.6
		c3.14-6.85,4.72-12.35,4.72-16.5c0-1.07-0.09-1.9-0.27-2.48c-0.18-0.59-0.4-0.88-0.65-0.88
		C208.8,128.11,208.27,129.06,207.73,130.95z"/>
</g>
<rect x="-41.59" y="82.51" class="st2" width="406.35" height="87.18"/>
<g class="st0">
	<path class="st1" d="M39.52,116.01h-7.32V83.88h7.32l12.78,19.95h0.08V83.88h7.32v32.14h-7.32L39.6,96.07h-0.08V116.01z"/>
	<path class="st1" d="M66.79,111.03c-2.45-2.92-3.86-6.78-3.86-11.1c0-9.39,7.36-16.63,16.21-16.63c2.88,0,5.61,0.78,7.99,2.14
		l2.1-2.65l4.36,3.35l-2.26,2.84c2.45,2.88,3.97,6.7,3.97,10.95c0,9.39-6.93,16.67-16.17,16.67c-3.04,0-5.8-0.74-8.14-2.06
		l-1.99,2.53l-4.36-3.35L66.79,111.03z M71.73,104.8L82.6,91.08c-0.97-0.47-2.14-0.74-3.47-0.74c-5.65,0-8.3,4.79-8.3,9.58
		C70.84,101.6,71.11,103.32,71.73,104.8z M86.42,95.13l-10.87,13.67c1.01,0.47,2.18,0.7,3.58,0.7c5.84,0,8.26-4.79,8.26-9.58
		C87.39,98.29,87.08,96.61,86.42,95.13z"/>
	<path class="st1" d="M110.03,83.88c5.96,0,10.48,3.23,10.48,9.54c0,4.83-2.65,8.06-6.58,9.31l11.06,13.28h-9.31l-9.82-12.7v12.7
		h-7.32V83.88H110.03z M106.71,98.13c2.77,0,6.08-0.19,6.08-4.21s-3.31-4.21-6.08-4.21h-0.86v8.41H106.71z"/>
	<path class="st1" d="M137.92,83.88c5.96,0,10.48,3.23,10.48,9.54c0,4.83-2.65,8.06-6.58,9.31l11.06,13.28h-9.31l-9.82-12.7v12.7
		h-7.32V83.88H137.92z M134.61,98.13c2.77,0,6.08-0.19,6.08-4.21s-3.31-4.21-6.08-4.21h-0.86v8.41H134.61z"/>
	<path class="st1" d="M172.7,90.3h-11.06v6.39h10.6v6.43h-10.6v6.47h11.06v6.43h-18.39V83.88h18.39V90.3z"/>
	<path class="st1" d="M201.96,96.96h-0.2l-6.58,18.86h-4.36l-6.58-18.86h-0.2l-1.52,19.05h-7.32l2.88-32.14h7.79l7.13,18.54
		l7.13-18.54h7.79l2.88,32.14h-7.32L201.96,96.96z"/>
	<path class="st1" d="M243.06,116.01h-7.87l-2.38-6.43h-12.23l-2.38,6.43h-7.87l12.97-32.14h6.78L243.06,116.01z M226.73,93.81
		h-0.08l-3.58,9.35h7.25L226.73,93.81z"/>
	<path class="st1" d="M253.61,83.88c8.8,0,16.21,6.7,16.21,16.05c0,9.39-7.36,16.09-16.21,16.09h-9.31V83.88H253.61z M252.75,109.47
		c5.42,0,9.12-4.13,9.16-9.5c0-5.38-3.7-9.54-9.16-9.54h-1.13v19.05H252.75z"/>
	<path class="st1" d="M291.44,90.3h-11.06v6.39h10.6v6.43h-10.6v6.47h11.06v6.43h-18.39V83.88h18.39V90.3z"/>
</g>
<path class="st1" d="M172.05,62.65c0.1-0.17,0.2-0.33,0.3-0.49s0.2-0.33,0.3-0.49c0.14-0.25,0.27-0.5,0.4-0.76
	c0.03-0.07,0.06-0.13,0.08-0.19c0.41-1.24,0.85-2.32,1.18-3.42c0.04-0.11,0.07-0.22,0.1-0.33c0.46-2.43,1.39-6.14,2.27-9.15
	c0.05-0.11,0.1-0.22,0.15-0.33c0.17-0.36,0.35-0.71,0.54-1.06c0.09-0.18,0.19-0.35,0.29-0.53c1.49-3.5,4.19-5.98,6.49-8.86
	c0.08-0.1,0.16-0.2,0.24-0.3c0.68-0.75,0.68-1.67,0.49-2.8c-0.02-0.08-0.05-0.15-0.08-0.21c-0.03-0.07-0.07-0.13-0.1-0.19
	c-0.1-0.06-0.22-0.13-0.34-0.19c-0.12-0.07-0.25-0.13-0.39-0.2c-0.14-0.03-0.28-0.06-0.42-0.06c-2.1,0.45-3.15,1.87-3.92,3.48
	c-0.07,0.15-0.14,0.29-0.2,0.44c-0.85,2.71-1.77,4.56-4.77,6.38c-0.12,0.04-0.24,0.08-0.35,0.1c-0.71,0.12-1.39-0.29-2.02-1.53
	c-0.02-0.15-0.04-0.3-0.05-0.45c-0.32-3.72,2.19-7.06,4.17-10.34c0.1-0.16,0.19-0.33,0.28-0.49c1.04-1.66,1.04-4.17-0.97-5.17
	c-0.16-0.04-0.31-0.06-0.46-0.07c-1.08-0.05-2.14,0.64-2.48,1.57c-0.07,0.17-0.12,0.33-0.18,0.5c-0.7,3.01-1.48,5.67-2.25,8.46
	c-0.05,0.17-0.09,0.33-0.14,0.49c-0.05,0.17-0.11,0.34-0.17,0.51c-0.06,0.15-0.11,0.3-0.17,0.44c-0.53,1.31-1.27,2.49-2.4,3.36
	c-0.11,0.04-0.21,0.08-0.32,0.12c-2.03,0.63-3.08-0.91-3.58-2.75c-0.1-0.37-0.18-0.75-0.24-1.12c-0.12-0.46-0.12-0.74-0.19-1.33
	c-0.02-0.17-0.04-0.35-0.05-0.52c-0.22-2.6,0.08-5.26,0.68-7.92c0.05-0.18,0.08-0.35,0.13-0.53c0.17-0.78,0.33-1.68,0.32-2.55
	c0-0.17-0.01-0.35-0.03-0.52c-0.14-1.88-1.54-3.83-3.64-2.91c-0.16,0.06-0.3,0.13-0.42,0.22c-1.21,0.87-0.81,3.05-0.72,4.53
	c0.04,0.19,0.08,0.37,0.11,0.55c0.51,2.62,0.73,5.2,0.68,7.9c-0.01,0.18-0.01,0.36-0.02,0.54c-0.06,0.36-0.11,0.7-0.16,1.03
	c-0.02,0.16-0.05,0.33-0.07,0.48c-0.08,1.39-0.36,2.51-1.55,3.75c-0.11,0.09-0.22,0.17-0.34,0.25c-0.7,0.46-1.52,0.66-2.11,0.26
	c-0.13-0.04-0.26-0.09-0.38-0.14c-0.14-0.06-0.29-0.14-0.42-0.22c-3.66-3.91-3.66-9.49-4.93-14.61c-0.05-0.12-0.1-0.23-0.15-0.34
	c-0.15-0.33-0.32-0.65-0.53-0.96c-0.14-0.1-0.28-0.19-0.42-0.26c-2.09-1.13-3.77,0.54-3.63,2.62c-0.01,0.16-0.01,0.32,0,0.48
	c1.67,5.33,4.86,9.99,5.75,15.48c0.08,0.5,0.15,1.01,0.18,1.51c0.69,3.86-1.62,10.03-6.36,6.69c-0.3-0.19-0.58-0.39-0.86-0.6
	c-1.4-1.02-2.64-2.19-3.6-3.56c-0.1-0.11-0.2-0.23-0.3-0.35c-0.9-1.06-1.97-2.15-3.57-1.76c-0.17,0.04-0.35,0.1-0.51,0.17
	c-0.19,0.07-0.36,0.16-0.53,0.26s-0.32,0.21-0.47,0.33c-1.45,1.04-0.62,2.99,0.76,3.95c0.13,0.11,0.26,0.22,0.39,0.32
	c0.54,0.42,1.1,0.82,1.58,1.21c0.16,0.1,0.32,0.2,0.47,0.3c3.01,1.88,6.14,3.61,8.56,6.27c0.15,0.14,0.31,0.28,0.46,0.41
	c0.76,0.7,1.48,1.42,2.17,2.18c0.12,0.15,0.25,0.3,0.36,0.45c0.35,0.46,0.68,0.96,0.97,1.5c0.13,0.15,0.26,0.3,0.39,0.45
	c1.43,1.64,2.96,3.06,5.2,3.41c0.23,0.05,0.46,0.07,0.68,0.07c0.45-0.01,0.88-0.13,1.29-0.31c0.17-0.07,0.33-0.16,0.49-0.25
	c0.17-0.07,0.35-0.15,0.52-0.22c1.42-0.34,2.53-0.8,3.81-0.66c0.21,0.02,0.43,0.07,0.65,0.13c2.09,1.09,5.16,2.32,6.87-0.03
	c0.15-0.15,0.3-0.29,0.44-0.45c0.28-0.32,0.53-0.68,0.73-1.08C172.04,62.65,172.04,62.65,172.05,62.65z"/>
</svg>
