<?xml version="1.0" encoding="utf-8"?>
<!-- Generator: Adobe Illustrator 23.0.1, SVG Export Plug-In . SVG Version: 6.00 Build 0)  -->
<svg version="1.1" id="Layer_1" xmlns="http://www.w3.org/2000/svg" xmlns:xlink="http://www.w3.org/1999/xlink" x="0px" y="0px"
	 viewBox="0 0 325.79 203.23" style="enable-background:new 0 0 325.79 203.23;" xml:space="preserve">
<style type="text/css">
	.st0{fill:#232222;}
	.st1{font-family:'Pacifico-Regular';}
	.st2{font-size:42.1054px;}
	.st3{fill:none;}
	.st4{font-family:'LeagueSpartan-Bold';}
	.st5{font-size:38.9548px;}
</style>
<text transform="matrix(1 0 0 1 109.8824 163.5626)" class="st0 st1 st2">gaard</text>
<rect x="-41.59" y="82.51" class="st3" width="406.35" height="87.18"/>
<text transform="matrix(1 0 0 1 29.8574 116.0147)" class="st0 st4 st5">NØRREMADE</text>
<path class="st0" d="M172.05,62.65c0.1-0.17,0.2-0.33,0.3-0.49c0.1-0.16,0.2-0.33,0.3-0.49c0.14-0.25,0.27-0.5,0.4-0.76
	c0.03-0.07,0.06-0.13,0.08-0.19c0.41-1.24,0.85-2.32,1.18-3.42c0.04-0.11,0.07-0.22,0.1-0.33c0.46-2.43,1.39-6.14,2.27-9.15
	c0.05-0.11,0.1-0.22,0.15-0.33c0.17-0.36,0.35-0.71,0.54-1.06c0.09-0.18,0.19-0.35,0.29-0.53c1.49-3.5,4.19-5.98,6.49-8.86
	c0.08-0.1,0.16-0.2,0.24-0.3c0.68-0.75,0.68-1.67,0.49-2.8c-0.02-0.08-0.05-0.15-0.08-0.21c-0.03-0.07-0.07-0.13-0.1-0.19
	c-0.1-0.06-0.22-0.13-0.34-0.19c-0.12-0.07-0.25-0.13-0.39-0.2c-0.14-0.03-0.28-0.06-0.42-0.06c-2.1,0.45-3.15,1.87-3.92,3.48
	c-0.07,0.15-0.14,0.29-0.2,0.44c-0.85,2.71-1.77,4.56-4.77,6.38c-0.12,0.04-0.24,0.08-0.35,0.1c-0.71,0.12-1.39-0.29-2.02-1.53
	c-0.02-0.15-0.04-0.3-0.05-0.45c-0.32-3.72,2.19-7.06,4.17-10.34c0.1-0.16,0.19-0.33,0.28-0.49c1.04-1.66,1.04-4.17-0.97-5.17
	c-0.16-0.04-0.31-0.06-0.46-0.07c-1.08-0.05-2.14,0.64-2.48,1.57c-0.07,0.17-0.12,0.33-0.18,0.5c-0.7,3.01-1.48,5.67-2.25,8.46
	c-0.05,0.17-0.09,0.33-0.14,0.49c-0.05,0.17-0.11,0.34-0.17,0.51c-0.06,0.15-0.11,0.3-0.17,0.44c-0.53,1.31-1.27,2.49-2.4,3.36
	c-0.11,0.04-0.21,0.08-0.32,0.12c-2.03,0.63-3.08-0.91-3.58-2.75c-0.1-0.37-0.18-0.75-0.24-1.12c-0.12-0.46-0.12-0.74-0.19-1.33
	c-0.02-0.17-0.04-0.35-0.05-0.52c-0.22-2.6,0.08-5.26,0.68-7.92c0.05-0.18,0.08-0.35,0.13-0.53c0.17-0.78,0.33-1.68,0.32-2.55
	c0-0.17-0.01-0.35-0.03-0.52c-0.14-1.88-1.54-3.83-3.64-2.91c-0.16,0.06-0.3,0.13-0.42,0.22c-1.21,0.87-0.81,3.05-0.72,4.53
	c0.04,0.19,0.08,0.37,0.11,0.55c0.51,2.62,0.73,5.2,0.68,7.9c-0.01,0.18-0.01,0.36-0.02,0.54c-0.06,0.36-0.11,0.7-0.16,1.03
	c-0.02,0.16-0.05,0.33-0.07,0.48c-0.08,1.39-0.36,2.51-1.55,3.75c-0.11,0.09-0.22,0.17-0.34,0.25c-0.7,0.46-1.52,0.66-2.11,0.26
	c-0.13-0.04-0.26-0.09-0.38-0.14c-0.14-0.06-0.29-0.14-0.42-0.22c-3.66-3.91-3.66-9.49-4.93-14.61c-0.05-0.12-0.1-0.23-0.15-0.34
	c-0.15-0.33-0.32-0.65-0.53-0.96c-0.14-0.1-0.28-0.19-0.42-0.26c-2.09-1.13-3.77,0.54-3.63,2.62c-0.01,0.16-0.01,0.32,0,0.48
	c1.67,5.33,4.86,9.99,5.75,15.48c0.08,0.5,0.15,1.01,0.18,1.51c0.69,3.86-1.62,10.03-6.36,6.69c-0.3-0.19-0.58-0.39-0.86-0.6
	c-1.4-1.02-2.64-2.19-3.6-3.56c-0.1-0.11-0.2-0.23-0.3-0.35c-0.9-1.06-1.97-2.15-3.57-1.76c-0.17,0.04-0.35,0.1-0.51,0.17
	c-0.19,0.07-0.36,0.16-0.53,0.26c-0.17,0.1-0.32,0.21-0.47,0.33c-1.45,1.04-0.62,2.99,0.76,3.95c0.13,0.11,0.26,0.22,0.39,0.32
	c0.54,0.42,1.1,0.82,1.58,1.21c0.16,0.1,0.32,0.2,0.47,0.3c3.01,1.88,6.14,3.61,8.56,6.27c0.15,0.14,0.31,0.28,0.46,0.41
	c0.76,0.7,1.48,1.42,2.17,2.18c0.12,0.15,0.25,0.3,0.36,0.45c0.35,0.46,0.68,0.96,0.97,1.5c0.13,0.15,0.26,0.3,0.39,0.45
	c1.43,1.64,2.96,3.06,5.2,3.41c0.23,0.05,0.46,0.07,0.68,0.07c0.45-0.01,0.88-0.13,1.29-0.31c0.17-0.07,0.33-0.16,0.49-0.25
	c0.17-0.07,0.35-0.15,0.52-0.22c1.42-0.34,2.53-0.8,3.81-0.66c0.21,0.02,0.43,0.07,0.65,0.13c2.09,1.09,5.16,2.32,6.87-0.03
	c0.15-0.15,0.3-0.29,0.44-0.45c0.28-0.32,0.53-0.68,0.73-1.08C172.04,62.65,172.04,62.65,172.05,62.65z"/>
</svg>
