<?xml version="1.0" encoding="utf-8"?>
<!-- Generator: Adobe Illustrator 23.0.1, SVG Export Plug-In . SVG Version: 6.00 Build 0)  -->
<svg version="1.1" id="Layer_1" xmlns="http://www.w3.org/2000/svg" xmlns:xlink="http://www.w3.org/1999/xlink" x="0px" y="0px"
	 viewBox="0 0 771 446.2" style="enable-background:new 0 0 771 446.2;" xml:space="preserve">
<style type="text/css">
	.st0{enable-background:new    ;}
	.st1{fill:#232222;}
	.st2{fill:none;}
</style>
<g class="st0">
	<path class="st1" d="M313.3,356c0.5,0.9,0.8,2,0.8,3.3c0,1.6-0.2,2.9-0.7,3.8c-0.5,0.9-1.3,1.7-2.3,2.4c-6,4.1-10.4,7.1-13.2,9
		l-6.7,4.5c-2.7,14.5-6.1,25.9-10.5,34.2s-9.8,12.4-16.4,12.4c-3.6,0-6.5-1.1-8.7-3.3c-2.2-2.2-3.4-5.1-3.4-8.7c0-5,2-10.3,5.9-16
		c3.9-5.7,11.3-12.7,22.1-21.1l0.6-4.1c-1.2,1.9-2.7,3.3-4.7,4.4c-1.9,1-3.8,1.5-5.7,1.5c-4.3,0-7.8-1.6-10.4-4.7
		c-2.6-3.1-3.9-7.3-3.9-12.4c0-5.6,1.3-10.9,3.9-15.9s6-9,10.4-12.1s8.9-4.6,13.7-4.6c1.5,0,2.6,0.3,3.1,0.9s1,1.7,1.3,3.2
		c1.3-0.3,2.9-0.4,4.6-0.4s3,0.3,3.7,0.8c0.7,0.5,1.1,1.6,1.1,3.1c0,0.8,0,1.5-0.1,2c-0.3,2.2-1.1,7.7-2.6,16.5
		c-0.3,1.7-0.6,3.5-0.9,5.5c-0.3,2-0.6,4.1-1,6.4c5.4-4.2,10.6-7.9,15.5-11.1c0.9-0.5,1.7-0.8,2.4-0.8
		C312.1,354.7,312.8,355.1,313.3,356z M271.3,409.2c2.2-4.2,4.3-10.9,6.4-20.1c-5.4,4.6-9.3,8.8-11.7,12.5c-2.4,3.7-3.6,7-3.6,9.8
		c0,1.2,0.2,2.2,0.7,2.9s1.2,1.1,2.3,1.1C267.1,415.5,269.1,413.4,271.3,409.2z M278.7,364.9c1.5-2,2.5-4.8,3.1-8.4l3.4-18
		c-2.9,0.1-5.5,1.2-8,3.3c-2.4,2.1-4.4,5-5.9,8.5s-2.2,7.2-2.2,11.1c0,2.2,0.4,3.8,1.3,4.8c0.9,1,2.1,1.6,3.6,1.6
		C275.7,367.8,277.2,366.9,278.7,364.9z"/>
	<path class="st1" d="M309.1,373.7c-2.6-3.1-3.9-7.3-3.9-12.4c0-5.6,1.3-10.9,3.9-15.9c2.6-5,6-9,10.4-12.1c4.3-3,8.9-4.6,13.7-4.6
		c1.5,0,2.6,0.3,3.1,0.9s1,1.7,1.3,3.2c1.5-0.3,3-0.4,4.6-0.4c3.4,0,5.1,1.2,5.1,3.7c0,1.5-0.5,5-1.6,10.5
		c-1.6,8.1-2.4,13.6-2.4,16.8c0,1,0.3,1.9,0.8,2.5s1.2,0.9,2,0.9c1.3,0,2.9-0.8,4.8-2.6c1.9-1.7,4.4-4.5,7.7-8.4
		c0.8-1,1.8-1.5,2.8-1.5c0.9,0,1.6,0.4,2.1,1.3s0.8,2,0.8,3.5c0,2.8-0.7,5-2,6.5c-2.9,3.6-5.9,6.6-9.1,9c-3.2,2.4-6.3,3.7-9.4,3.7
		c-2.3,0-4.4-0.8-6.4-2.4c-1.9-1.6-3.4-3.7-4.4-6.5c-3.6,5.9-8.2,8.8-13.8,8.8C315.2,378.4,311.7,376.9,309.1,373.7z M327.7,365.1
		c1.4-1.8,2.4-4.2,3-7.3l3.9-19.3c-2.9,0.1-5.7,1.2-8.1,3.3c-2.5,2.1-4.5,5-5.9,8.5c-1.5,3.5-2.2,7.2-2.2,11.1
		c0,2.2,0.4,3.8,1.3,4.8c0.9,1,2.1,1.6,3.6,1.6C324.9,367.8,326.3,366.9,327.7,365.1z"/>
	<path class="st1" d="M358.5,373.7c-2.6-3.1-3.9-7.3-3.9-12.4c0-5.6,1.3-10.9,3.9-15.9c2.6-5,6-9,10.4-12.1s8.9-4.6,13.7-4.6
		c1.5,0,2.6,0.3,3.1,0.9c0.5,0.6,1,1.7,1.3,3.2c1.5-0.3,3-0.4,4.6-0.4c3.4,0,5.1,1.2,5.1,3.7c0,1.5-0.5,5-1.6,10.5
		c-1.6,8.1-2.4,13.6-2.4,16.8c0,1,0.3,1.9,0.8,2.5c0.5,0.6,1.2,0.9,2,0.9c1.3,0,2.9-0.8,4.8-2.6c1.9-1.7,4.4-4.5,7.7-8.4
		c0.8-1,1.8-1.5,2.8-1.5c0.9,0,1.6,0.4,2.1,1.3c0.5,0.8,0.8,2,0.8,3.5c0,2.8-0.7,5-2,6.5c-2.9,3.6-5.9,6.6-9.1,9
		c-3.2,2.4-6.3,3.7-9.4,3.7c-2.3,0-4.4-0.8-6.4-2.4c-1.9-1.6-3.4-3.7-4.4-6.5c-3.6,5.9-8.2,8.8-13.8,8.8
		C364.6,378.4,361.1,376.9,358.5,373.7z M377.1,365.1c1.4-1.8,2.4-4.2,3-7.3l3.9-19.3c-2.9,0.1-5.7,1.2-8.1,3.3
		c-2.5,2.1-4.5,5-5.9,8.5c-1.5,3.5-2.2,7.2-2.2,11.1c0,2.2,0.4,3.8,1.3,4.8c0.9,1,2.1,1.6,3.6,1.6
		C374.2,367.8,375.7,366.9,377.1,365.1z"/>
	<path class="st1" d="M407.2,374.2c-1.1-2.8-1.6-7.3-1.6-13.4c0-9.1,1.3-17.8,3.9-25.9c0.6-2,1.7-3.5,3.1-4.5c1.4-0.9,3.4-1.4,6-1.4
		c1.4,0,2.4,0.2,2.9,0.5c0.6,0.3,0.8,1,0.8,2c0,1.1-0.5,3.6-1.6,7.6c-0.7,2.8-1.2,5.3-1.7,7.4c-0.4,2.1-0.8,4.7-1,7.8
		c2.3-6,4.9-10.9,7.8-14.7c2.9-3.8,5.7-6.5,8.5-8.1c2.8-1.6,5.3-2.4,7.6-2.4c4.5,0,6.8,2.3,6.8,6.8c0,0.9-0.3,3.1-0.9,6.6
		c-0.5,2.8-0.8,4.6-0.8,5.3c0,2.4,0.9,3.7,2.6,3.7c2,0,4.5-1.5,7.6-4.6c0.9-0.9,1.8-1.4,2.8-1.4c0.9,0,1.6,0.4,2.1,1.2
		c0.5,0.8,0.8,1.9,0.8,3.2c0,2.6-0.7,4.6-2.1,6.1c-2,2-4.3,3.8-6.9,5.2c-2.6,1.4-5.4,2.1-8.4,2.1c-3.7,0-6.5-0.9-8.5-2.8
		s-2.9-4.4-2.9-7.7c0-1,0.1-2.1,0.3-3.1c0.1-1.4,0.2-2.3,0.2-2.8c0-1.1-0.4-1.7-1.1-1.7c-1,0-2.4,1.2-4.1,3.5s-3.4,5.4-5.1,9.3
		c-1.7,3.9-3,7.9-4.1,12.2c-0.8,3.3-1.7,5.5-2.7,6.7c-1,1.1-2.6,1.7-4.8,1.7C410.2,378.4,408.3,377,407.2,374.2z"/>
	<path class="st1" d="M515,355.7c0.5,0.8,0.8,2,0.8,3.5c0,2.8-0.7,5-2,6.5c-2.9,3.5-6,6.5-9.5,9c-3.4,2.5-6.8,3.7-10.2,3.7
		c-5.3,0-9.4-3.1-12.2-9.4c-2.9,3.7-5.5,6.2-7.7,7.5c-2.2,1.3-4.8,1.9-7.7,1.9c-4.3,0-7.8-1.6-10.6-4.8c-2.8-3.2-4.1-7.3-4.1-12.4
		c0-5.6,1.2-10.8,3.6-15.6c2.4-4.8,5.7-8.7,9.8-11.8c4.2-3,8.8-4.8,14-5.4c1.3-13.6,3.9-25.2,7.6-34.8c3.7-9.6,8.7-14.4,14.8-14.4
		c3,0,5.5,1.4,7.5,4.1c2,2.7,3,6.9,3,12.4c0,7.8-1.9,17-5.8,27.5c-3.8,10.5-9,21.3-15.4,32.4c0.3,4.1,0.9,7,1.8,8.7
		c0.9,1.7,2.1,2.6,3.6,2.6c1.9,0,3.8-0.8,5.8-2.5c2-1.7,4.6-4.5,7.9-8.4c0.8-1,1.8-1.5,2.8-1.5C513.7,354.5,514.4,354.9,515,355.7z
		 M474.2,366.2c1.3-1.1,3-3.1,5-6c-0.7-3.8-1-8-1-12.7c0-1.7,0.1-4.4,0.2-8.2c-3.8,1.2-7.1,3.8-9.6,7.7c-2.6,4-3.8,8.4-3.8,13.2
		c0,5.1,1.7,7.7,5.3,7.7C471.5,367.8,472.8,367.3,474.2,366.2z M496.4,296.5c-1.3,4.7-2.5,10.9-3.4,18.5c-0.9,7.6-1.6,15.6-2,24
		c7.8-17.1,11.8-30.8,11.8-41.2c0-2.7-0.2-4.7-0.7-6.2c-0.4-1.5-1-2.2-1.6-2.2C499.1,289.5,497.8,291.8,496.4,296.5z"/>
</g>
<rect x="-125.6" y="175.7" class="st2" width="1013.8" height="217.5"/>
<g class="st0">
	<path class="st1" d="M76.8,259.3H58.5v-80.2h18.3l31.9,49.8h0.2v-49.8h18.3v80.2h-18.3L77,209.5h-0.2
		C76.8,209.5,76.8,259.3,76.8,259.3z"/>
	<path class="st1" d="M144.8,246.8c-6.1-7.3-9.6-16.9-9.6-27.7c0-23.4,18.4-41.5,40.4-41.5c7.2,0,14,1.9,19.9,5.3l5.2-6.6l10.9,8.4
		l-5.6,7.1c6.1,7.2,9.9,16.7,9.9,27.3c0,23.4-17.3,41.6-40.3,41.6c-7.6,0-14.5-1.8-20.3-5.1l-5,6.3l-10.9-8.4L144.8,246.8z
		 M157.1,231.3l27.1-34.2c-2.4-1.2-5.3-1.8-8.7-1.8c-14.1,0-20.7,12-20.7,23.9C154.9,223.3,155.6,227.6,157.1,231.3z M193.8,207.2
		l-27.1,34.1c2.5,1.2,5.4,1.7,8.9,1.7c14.6,0,20.6-12,20.6-23.9C196.2,215.1,195.4,210.9,193.8,207.2z"/>
	<path class="st1" d="M252.7,179.1c14.9,0,26.1,8.1,26.1,23.8c0,12.1-6.6,20.1-16.4,23.2l27.6,33.1h-23.2l-24.5-31.7v31.7H224v-80.2
		H252.7z M244.4,214.7c6.9,0,15.2-0.5,15.2-10.5c0-10-8.3-10.5-15.2-10.5h-2.1v21L244.4,214.7L244.4,214.7z"/>
	<path class="st1" d="M322.3,179.1c14.9,0,26.1,8.1,26.1,23.8c0,12.1-6.6,20.1-16.4,23.2l27.6,33.1h-23.2l-24.5-31.7v31.7h-18.3
		v-80.2H322.3z M314,214.7c6.9,0,15.2-0.5,15.2-10.5c0-10-8.3-10.5-15.2-10.5h-2.1v21L314,214.7L314,214.7z"/>
	<path class="st1" d="M409,195.1h-27.6v15.9h26.4v16h-26.4v16.1H409v16h-45.9v-80.2H409V195.1z"/>
	<path class="st1" d="M482,211.7h-0.5l-16.4,47.1h-10.9l-16.4-47.1h-0.5l-3.8,47.5h-18.3l7.2-80.2h19.4l17.8,46.3l17.8-46.3h19.4
		l7.2,80.2h-18.3L482,211.7z"/>
	<path class="st1" d="M584.6,259.3h-19.6l-5.9-16h-30.5l-5.9,16h-19.6l32.4-80.2h16.9L584.6,259.3z M543.8,203.9h-0.2l-8.9,23.3
		h18.1L543.8,203.9z"/>
	<path class="st1" d="M610.9,179.1c22,0,40.4,16.7,40.4,40c0,23.4-18.4,40.1-40.4,40.1h-23.2v-80.2H610.9z M608.7,243
		c13.5,0,22.8-10.3,22.9-23.7c0-13.4-9.2-23.8-22.9-23.8h-2.8V243L608.7,243L608.7,243z"/>
	<path class="st1" d="M705.3,195.1h-27.6v15.9h26.4v16h-26.4v16.1h27.6v16h-45.9v-80.2h45.9V195.1z"/>
</g>
<path class="st1" d="M407.4,126.1c0.2-0.4,0.5-0.8,0.7-1.2c0.2-0.4,0.5-0.8,0.7-1.2c0.3-0.6,0.7-1.2,1-1.9c0.1-0.2,0.1-0.3,0.2-0.5
	c1-3.1,2.1-5.8,2.9-8.5c0.1-0.3,0.2-0.5,0.2-0.8c1.1-6.1,3.5-15.3,5.7-22.8c0.1-0.3,0.2-0.5,0.4-0.8c0.4-0.9,0.9-1.8,1.3-2.6
	c0.2-0.4,0.5-0.9,0.7-1.3c3.7-8.7,10.5-14.9,16.2-22.1c0.2-0.2,0.4-0.5,0.6-0.7c1.7-1.9,1.7-4.2,1.2-7c0-0.2-0.1-0.4-0.2-0.5
	c-0.1-0.2-0.2-0.3-0.2-0.5c-0.2-0.1-0.5-0.3-0.8-0.5c-0.3-0.2-0.6-0.3-1-0.5c-0.3-0.1-0.7-0.1-1-0.1c-5.2,1.1-7.9,4.7-9.8,8.7
	c-0.2,0.4-0.3,0.7-0.5,1.1c-2.1,6.8-4.4,11.4-11.9,15.9c-0.3,0.1-0.6,0.2-0.9,0.2c-1.8,0.3-3.5-0.7-5-3.8c0-0.4-0.1-0.7-0.1-1.1
	c-0.8-9.3,5.5-17.6,10.4-25.8c0.2-0.4,0.5-0.8,0.7-1.2c2.6-4.1,2.6-10.4-2.4-12.9c-0.4-0.1-0.8-0.1-1.1-0.2
	c-2.7-0.1-5.3,1.6-6.2,3.9c-0.2,0.4-0.3,0.8-0.4,1.2c-1.7,7.5-3.7,14.1-5.6,21.1c-0.1,0.4-0.2,0.8-0.3,1.2c-0.1,0.4-0.3,0.8-0.4,1.3
	c-0.1,0.4-0.3,0.7-0.4,1.1c-1.3,3.3-3.2,6.2-6,8.4c-0.3,0.1-0.5,0.2-0.8,0.3c-5.1,1.6-7.7-2.3-8.9-6.9c-0.2-0.9-0.4-1.9-0.6-2.8
	c-0.3-1.1-0.3-1.8-0.5-3.3c0-0.4-0.1-0.9-0.1-1.3c-0.5-6.5,0.2-13.1,1.7-19.8c0.1-0.4,0.2-0.9,0.3-1.3c0.4-1.9,0.8-4.2,0.8-6.4
	c0-0.4,0-0.9-0.1-1.3c-0.3-4.7-3.8-9.6-9.1-7.3c-0.4,0.1-0.7,0.3-1,0.5c-3,2.2-2,7.6-1.8,11.3c0.1,0.5,0.2,0.9,0.3,1.4
	c1.3,6.5,1.8,13,1.7,19.7c0,0.4,0,0.9,0,1.3c-0.1,0.9-0.3,1.7-0.4,2.6c0,0.4-0.1,0.8-0.2,1.2c-0.2,3.5-0.9,6.3-3.9,9.4
	c-0.3,0.2-0.5,0.4-0.8,0.6c-1.7,1.1-3.8,1.6-5.3,0.6c-0.3-0.1-0.6-0.2-0.9-0.3c-0.3-0.1-0.7-0.3-1-0.5c-9.1-9.8-9.1-23.7-12.3-36.5
	c-0.1-0.3-0.2-0.6-0.4-0.8c-0.4-0.8-0.8-1.6-1.3-2.4c-0.3-0.2-0.7-0.5-1-0.6c-5.2-2.8-9.4,1.3-9.1,6.5c0,0.4,0,0.8,0,1.2
	c4.2,13.3,12.1,24.9,14.3,38.6c0.2,1.2,0.4,2.5,0.4,3.8c1.7,9.6-4,25-15.9,16.7c-0.7-0.5-1.4-1-2.1-1.5c-3.5-2.5-6.6-5.5-9-8.9
	c-0.2-0.3-0.5-0.6-0.7-0.9c-2.2-2.6-4.9-5.4-8.9-4.4c-0.4,0.1-0.9,0.2-1.3,0.4c-0.5,0.2-0.9,0.4-1.3,0.6c-0.4,0.2-0.8,0.5-1.2,0.8
	c-3.6,2.6-1.5,7.5,1.9,9.9c0.3,0.3,0.6,0.5,1,0.8c1.3,1,2.7,2,3.9,3c0.4,0.2,0.8,0.5,1.2,0.7c7.5,4.7,15.3,9,21.4,15.6
	c0.4,0.3,0.8,0.7,1.1,1c1.9,1.7,3.7,3.5,5.4,5.4c0.3,0.4,0.6,0.7,0.9,1.1c0.9,1.1,1.7,2.4,2.4,3.7c0.3,0.4,0.6,0.7,1,1.1
	c3.6,4.1,7.4,7.6,13,8.5c0.6,0.1,1.1,0.2,1.7,0.2c1.1,0,2.2-0.3,3.2-0.8c0.4-0.2,0.8-0.4,1.2-0.6c0.4-0.2,0.9-0.4,1.3-0.5
	c3.5-0.8,6.3-2,9.5-1.6c0.5,0,1.1,0.2,1.6,0.3c5.2,2.7,12.9,5.8,17.1-0.1c0.4-0.4,0.7-0.7,1.1-1.1
	C406.2,128,406.8,127.1,407.4,126.1C407.4,126.1,407.4,126.1,407.4,126.1z"/>
</svg>
