<?xml version="1.0" encoding="utf-8"?>
<!-- Generator: Adobe Illustrator 23.0.1, SVG Export Plug-In . SVG Version: 6.00 Build 0)  -->
<svg version="1.1" id="Layer_1" xmlns="http://www.w3.org/2000/svg" xmlns:xlink="http://www.w3.org/1999/xlink" x="0px" y="0px"
	 viewBox="0 0 1328 397" style="enable-background:new 0 0 1328 397;" xml:space="preserve">
<style type="text/css">
	.st0{fill:none;}
	.st1{fill:#FFFFFF;}
	.st2{fill:url(#New_Pattern);}
	.st3{fill:url(#SVGID_1_);}
</style>
<pattern  x="-14" y="-7" width="43" height="45" patternUnits="userSpaceOnUse" id="New_Pattern" viewBox="0 -45 43 45" style="overflow:visible;">
	<g>
		<rect y="-45" class="st0" width="43" height="45"/>
		<circle class="st1" cx="21.56" cy="-21.94" r="6.13"/>
		<path d="M27.6-12.5c-0.27,0.27-1.1,0.24-1.44,0.27c-0.54,0.04-1.09,0.09-1.63,0.13c-1.14,0.08-2.29,0.11-3.44,0.11
			c-1.21-0.01-2.43-0.07-3.64-0.18c-0.51-0.04-1.14-0.03-1.63-0.16c-0.1-0.03-0.36-0.02-0.36-0.18c0-0.26,0.44-0.1,0.61-0.25
			c-0.11-0.22-0.27-0.08-0.4-0.18c-0.1-0.08-0.23-0.31-0.3-0.42c-0.18-0.27-0.3-0.57-0.35-0.89c-0.1-0.66,0.08-1.48,0.08-2.15
			c0-1.77,0-3.54,0-5.31c0-1.81,0.01-3.63-0.01-5.44c-0.01-0.66-0.36-1.54,0.22-2.02c0.14-0.11,0.33-0.16,0.47-0.26
			c0.26-0.18,0.22,0,0.32-0.35c0.15-0.51-0.01-0.39-0.37-0.41c0.16-0.34,0.09-0.56-0.18-0.72c-0.05-0.03-0.22,0.05-0.31-0.01
			c-0.21-0.12-0.14-0.38-0.14-0.59c0-0.42-0.06-0.67,0.3-0.91c0.2-0.14,0.51-0.32,0.75-0.38c0.64-0.18,1.32-0.04,1.94-0.12
			c0.65-0.09,1.34-0.06,2-0.07c1.74-0.01,3.48-0.04,5.22,0.06c0.7,0.04,1.34,0.09,1.97,0.41c0.35,0.18,0.51,0.19,0.59,0.59
			c0.06,0.34,0.04,0.78-0.09,1.1c-0.18-0.15-0.5-0.07-0.62,0.11c-0.19,0.29,0.08,0.38-0.3,0.44c0.18,0.17,0.02,0.51,0.25,0.73
			c0.18,0.18,0.46,0.24,0.65,0.43c0.47,0.5,0.14,1.34,0.14,1.95c-0.02,1.71,0.02,3.42,0.05,5.13c0.03,1.78,0.01,3.56,0,5.35
			c0,0.39-0.03,0.78-0.03,1.17c0,0.33,0.13,0.64,0.14,0.97c0.03,0.82-0.44,1.34-1.05,1.81C27.18-12.64,27.45-12.71,27.6-12.5z
			 M19.92-32.94c0.02,0.01,0.05,0.02,0.07,0.02C19.97-32.93,19.94-32.93,19.92-32.94z M19.57-32.97c0.01,0.01,0.02,0.02,0.04,0.02
			C19.6-32.95,19.59-32.95,19.57-32.97z M27.36-20.45c0.11-0.43,0.15-0.84,0.17-1.3c0.02-0.49,0-0.96-0.09-1.44
			c-0.05-0.3-0.1-0.65-0.24-0.93c0.03,0.07-0.22-0.34-0.21-0.32c-0.08-0.24,0-0.26-0.13-0.51c-0.06-0.11-0.14-0.26-0.21-0.36
			c-0.21-0.3-0.44-0.63-0.7-0.89c-0.56-0.56-1.07-0.85-1.8-1.14c-2.07-0.84-4.75-0.62-6.56,0.67c-2.29,1.63-2.71,5.29-1.47,7.66
			c0.09,0.18,0.23,0.4,0.34,0.55c0.08,0.11,0.26,0.17,0.31,0.23c0.03,0.04,0.05,0.16,0.02,0.12c0,0,0.2,0.31,0.28,0.38
			c0.2,0.18,0.44,0.39,0.66,0.53c0.89,0.56,1.8,0.92,2.85,1.06c0.8,0.1,1.71,0.22,2.45-0.06c0.43-0.17,0.88-0.23,1.32-0.4
			c0.59-0.22,1.03-0.56,1.49-0.99c0.21-0.2,0.39-0.41,0.55-0.65c0.15-0.23,0.5-0.47,0.52-0.76C26.94-19.45,27.24-20.01,27.36-20.45z
			"/>
	</g>
</pattern>
<pattern  x="-14" y="-7" width="137" height="116" patternUnits="userSpaceOnUse" id="New_Pattern_2" viewBox="7.19 -127.46 137 116" style="overflow:visible;">
	<g>
		<rect x="7.19" y="-127.46" class="st0" width="137" height="116"/>
		<g>
			<g>
				<path d="M139.74-7.73c1.88,0.63,3.57,0.34,4.93-1.16c1.23-1.35,1.43-3.42,0.48-5.17c-0.31-0.58-0.3-1.06-0.01-1.6
					c-0.34-0.26-0.62-0.47-0.91-0.69c-0.24,0.18-0.46,0.34-0.71,0.54c-1.99-0.86-3.91-0.71-5.38,1.01c-1.6,1.88-1.41,3.96-0.14,5.93
					c-0.15,0.31-0.27,0.54-0.39,0.8c0.33,0.23,0.62,0.44,0.94,0.67c0.23-0.15,0.46-0.29,0.74-0.47
					C139.49-7.82,139.61-7.78,139.74-7.73z M139.55-10.68c-0.63-1.16-0.45-2.49,0.37-3.26c0.67-0.63,1.47-0.7,2.31-0.14
					C141.34-12.96,140.46-11.84,139.55-10.68z M143.34-13.16c0.56,1.22,0.43,2.25-0.28,3.16c-0.64,0.81-1.51,0.88-2.65,0.54
					C141.45-10.78,142.36-11.93,143.34-13.16z"/>
				<path d="M130.59-7.57c-0.69,0-1.18,0-1.66,0c-0.3-0.9-0.38-6.74-0.1-8.51c0.33-0.03,0.68-0.05,1.02-0.09
					c0.55-0.06,0.92,0.16,1.22,0.64c0.75,1.23,1.55,2.43,2.35,3.63c0.19,0.28,0.42,0.54,0.82,1.04c0-1.9,0-3.5,0-5.21
					c0.65,0,1.2,0,1.81,0c0,2.84,0,5.61,0,8.46c-0.37,0.03-0.67,0.05-0.98,0.08c-0.61,0.08-1-0.18-1.32-0.7
					c-0.68-1.12-1.41-2.2-2.13-3.3c-0.26-0.4-0.55-0.79-1.03-1.13C130.59-10.99,130.59-9.35,130.59-7.57z"/>
			</g>
			<g>
				<circle class="st1" cx="96.29" cy="-9.95" r="6.13"/>
				<path d="M102.32-0.5c-0.27,0.27-1.1,0.24-1.44,0.27c-0.54,0.04-1.09,0.09-1.63,0.13C98.1-0.03,96.95,0.01,95.8,0
					c-1.21-0.01-2.43-0.07-3.64-0.18c-0.51-0.04-1.14-0.03-1.63-0.16c-0.1-0.03-0.36-0.02-0.36-0.18c0-0.26,0.44-0.1,0.61-0.25
					c-0.11-0.22-0.27-0.08-0.4-0.18c-0.1-0.08-0.23-0.31-0.3-0.42c-0.18-0.27-0.3-0.57-0.35-0.89c-0.1-0.66,0.08-1.48,0.08-2.15
					c0-1.77,0-3.54,0-5.31c0-1.81,0.01-3.63-0.01-5.44c-0.01-0.66-0.36-1.54,0.22-2.02c0.14-0.11,0.33-0.16,0.47-0.26
					c0.26-0.18,0.22,0,0.32-0.35c0.15-0.51-0.01-0.39-0.37-0.41c0.16-0.34,0.09-0.56-0.18-0.72c-0.05-0.03-0.22,0.05-0.31-0.01
					c-0.21-0.12-0.14-0.38-0.14-0.59c0-0.42-0.06-0.67,0.3-0.91c0.2-0.14,0.51-0.32,0.75-0.38c0.64-0.18,1.32-0.04,1.94-0.12
					c0.65-0.09,1.34-0.06,2-0.07c1.74-0.01,3.48-0.04,5.22,0.06c0.7,0.04,1.34,0.09,1.97,0.41c0.35,0.18,0.51,0.19,0.59,0.59
					c0.06,0.34,0.04,0.78-0.09,1.1c-0.18-0.15-0.5-0.07-0.62,0.11c-0.19,0.29,0.08,0.38-0.3,0.44c0.18,0.17,0.02,0.51,0.25,0.73
					c0.18,0.18,0.46,0.24,0.65,0.43c0.47,0.5,0.14,1.34,0.14,1.95c-0.02,1.71,0.02,3.42,0.05,5.13c0.03,1.78,0.01,3.56,0,5.35
					c0,0.39-0.03,0.78-0.03,1.17c0,0.33,0.13,0.64,0.14,0.97c0.03,0.82-0.44,1.34-1.05,1.81C101.91-0.64,102.17-0.71,102.32-0.5z
					 M94.64-20.94c0.02,0.01,0.05,0.02,0.07,0.02C94.69-20.93,94.67-20.93,94.64-20.94z M94.3-20.97c0.01,0.01,0.02,0.02,0.04,0.02
					C94.32-20.95,94.31-20.96,94.3-20.97z M102.08-8.46c0.11-0.43,0.15-0.84,0.17-1.3c0.02-0.49,0-0.96-0.09-1.44
					c-0.05-0.3-0.1-0.65-0.24-0.93c0.03,0.07-0.22-0.34-0.21-0.32c-0.08-0.24,0-0.26-0.13-0.51c-0.06-0.11-0.14-0.26-0.21-0.36
					c-0.21-0.3-0.44-0.63-0.7-0.89c-0.56-0.56-1.07-0.85-1.8-1.14c-2.07-0.84-4.75-0.62-6.56,0.67c-2.29,1.63-2.71,5.29-1.47,7.66
					c0.09,0.18,0.23,0.4,0.34,0.55c0.08,0.11,0.26,0.17,0.31,0.23c0.03,0.04,0.05,0.16,0.02,0.12c0,0,0.2,0.31,0.28,0.38
					c0.2,0.18,0.44,0.39,0.66,0.53c0.89,0.56,1.8,0.92,2.85,1.06c0.8,0.1,1.71,0.22,2.45-0.06c0.43-0.17,0.88-0.23,1.32-0.4
					c0.59-0.22,1.03-0.56,1.49-0.99c0.21-0.2,0.39-0.41,0.55-0.65c0.15-0.23,0.5-0.47,0.52-0.76
					C101.66-7.46,101.97-8.01,102.08-8.46z"/>
			</g>
		</g>
		<g>
			<g>
				<path d="M27.08-33.43c0.48,0.8,0.25,1.64,0.18,2.49c-0.07,0.75-0.06,1.52,0.04,2.26c0.04,0.34,0.38,0.64,0.56,0.93
					c0.87-0.24,1.08-0.85,1.26-1.45c0.21-0.69,0.37-1.39,0.57-2.08c0.12-0.41,0.31-0.79,0.84-0.67c0.39,0.09,0.6,0.64,0.38,1.12
					c-0.28,0.61-0.68,1.17-0.95,1.78c-0.26,0.59-0.66,1.23,0.02,1.87c0.74-0.05,1.07-0.58,1.37-1.13c0.15-0.28,0.22-0.6,0.38-0.86
					c0.26-0.43,0.56-0.82,1.16-0.65c0.31,0.51,0.09,0.9-0.24,1.23c-1.36,1.36-2.07,3.02-2.39,4.89c-0.1,0.57-0.34,1.13-0.6,1.64
					c-0.44,0.85-0.88,1.07-1.76,0.77c-0.64-0.22-1.2-0.24-1.83-0.01c-0.77,0.28-1.45,0.06-1.92-0.59c-1.02-1.42-2.34-2.48-3.84-3.34
					c-0.19-0.11-0.36-0.27-0.52-0.43c-0.33-0.31-0.5-0.68-0.11-1.05c0.35-0.33,0.74-0.25,1.08,0.07c0.16,0.15,0.3,0.34,0.46,0.49
					c0.26,0.25,0.5,0.52,0.79,0.73c0.97,0.72,1.75,0.46,1.91-0.76c0.1-0.72-0.07-1.51-0.27-2.23c-0.23-0.82-0.65-1.58-0.95-2.38
					c-0.14-0.37-0.24-0.78-0.23-1.17c0.01-0.2,0.27-0.52,0.46-0.56c0.18-0.04,0.52,0.17,0.62,0.35c0.17,0.3,0.18,0.69,0.29,1.03
					c0.24,0.82,0.47,1.64,0.75,2.44c0.14,0.38,0.39,0.76,0.89,0.68c0.53-0.08,0.76-0.52,0.77-0.98c0.02-0.99,0.03-1.98-0.1-2.96
					c-0.08-0.59-0.01-1.05,0.39-1.48C26.72-33.43,26.9-33.43,27.08-33.43z"/>
				<path d="M46.75-7.57c0.36,0.02,0.67,0.06,0.98,0.06c0.3,0,0.59-0.05,1.01-0.08c-1.18-2.92-2.32-5.73-3.44-8.51
					c-0.69,0-1.22,0-1.83,0c-1.07,2.63-2.13,5.23-3.19,7.83c-0.72-2.6-0.58-5.26-1.11-7.81c-0.72,0-1.33,0-1.96,0
					c-0.62,1.57-1.22,3.07-1.82,4.58c-0.09-0.01-0.18-0.01-0.27-0.02c-0.6-1.53-1.19-3.06-1.77-4.57c-0.76,0-1.37,0-2.09,0
					c-0.15,2.87-0.62,5.64-0.65,8.54c0.69,0.02,1.26,0.2,1.79-0.17c0.14-1.57,0.28-3.11,0.42-4.64c0.06-0.01,0.13-0.02,0.19-0.03
					c0.56,1.55,1.12,3.1,1.68,4.68c0.41,0,0.75,0,1.15,0c0.55-1.52,1.08-3.01,1.62-4.49c0.09,0.01,0.18,0.01,0.28,0.02
					c0.14,1.53,0.29,3.06,0.44,4.71c1.4-0.13,2.64,0.12,3.85-0.16c0.26-0.6,0.49-1.12,0.73-1.65c1.11,0,2.14,0,3.26,0
					C46.29-8.65,46.52-8.12,46.75-7.57z M45.37-11.05c-0.72,0-1.27,0-1.87,0c0.13-0.84,0.43-1.55,0.96-2.43
					C44.8-12.55,45.06-11.87,45.37-11.05z"/>
				<path d="M2.74-7.73C4.62-7.1,6.31-7.4,7.67-8.89c1.23-1.35,1.43-3.42,0.48-5.17c-0.31-0.58-0.3-1.06-0.01-1.6
					c-0.34-0.26-0.62-0.47-0.91-0.69c-0.24,0.18-0.46,0.34-0.71,0.54c-1.99-0.86-3.91-0.71-5.38,1.01c-1.6,1.88-1.41,3.96-0.14,5.93
					c-0.15,0.31-0.27,0.54-0.39,0.8c0.33,0.23,0.62,0.44,0.94,0.67C1.79-7.56,2.01-7.7,2.3-7.88C2.49-7.82,2.61-7.78,2.74-7.73z
					 M2.55-10.68c-0.63-1.16-0.45-2.49,0.37-3.26c0.67-0.63,1.47-0.7,2.31-0.14C4.34-12.96,3.46-11.84,2.55-10.68z M6.34-13.16
					c0.56,1.22,0.43,2.25-0.28,3.16C5.42-9.19,4.55-9.12,3.4-9.47C4.45-10.78,5.36-11.93,6.34-13.16z"/>
				<path d="M51.45-7.52c0.4-0.02,0.8-0.09,1.2-0.18c2-0.43,3.36-2.1,3.39-4.14c0.02-2-1.36-3.86-3.33-4.18
					c-1.13-0.19-2.31-0.03-3.53-0.03c0,2.81,0,5.58,0,8.54C50.02-7.51,50.73-7.49,51.45-7.52z M51.05-14.37
					c1.73-0.15,2.85,0.83,2.87,2.46c0.02,1.63-1.03,2.62-2.87,2.56C51.05-11.09,51.05-12.73,51.05-14.37z"/>
				<path d="M14.84-11.85c1.33-1.4,0.67-3.85-1.18-4.19c-1.27-0.24-2.58-0.22-3.89,0c0,2.85,0,5.63,0,8.47
					c0.64,0.05,1.2,0.22,1.73-0.13c0.2-0.97-0.1-1.95,0.25-3.06c0.78,1,1.42,1.86,2.12,2.68c0.21,0.25,0.54,0.5,0.85,0.55
					c0.55,0.09,1.13,0.02,1.98,0.02c-1.08-1.33-1.98-2.43-2.87-3.53C14.21-11.34,14.57-11.56,14.84-11.85z M11.64-14.57
					c1.22-0.15,1.79,0.15,1.87,0.93c0.08,0.84-0.49,1.25-1.87,1.22C11.64-13.19,11.64-13.89,11.64-14.57z"/>
				<path d="M17.37-7.59c0.61,0,1.13,0,1.78,0c0-1.05,0-2.02,0-3.23c0.34,0.32,0.52,0.45,0.65,0.62c0.53,0.67,1.08,1.34,1.57,2.04
					c0.35,0.49,0.76,0.73,1.37,0.66c0.42-0.05,0.85-0.05,1.5-0.08c-1.03-1.27-1.93-2.37-2.83-3.48c0.34-0.24,0.61-0.4,0.84-0.61
					c0.89-0.79,0.99-1.81,0.7-2.86c-0.28-1.04-1.09-1.53-2.13-1.57c-1.12-0.05-2.24-0.01-3.46-0.01
					C17.37-13.17,17.37-10.4,17.37-7.59z M21.11-13.51c-0.01,0.78-0.53,1.12-1.84,1.11c0-0.72,0-1.44,0-2.27
					C20.59-14.63,21.12-14.28,21.11-13.51z"/>
				<path d="M56.94-7.55c0-2.9,0-5.64,0-8.38c1-0.28,3.22-0.32,4.74-0.08c0,0.46,0,0.92,0,1.5c-0.95,0-1.83,0-2.81,0
					c0,0.62,0,1.14,0,1.79c0.89,0.05,1.77,0.1,2.74,0.16c0.03,0.49,0.05,0.93,0.09,1.51c-0.94,0-1.82,0-2.65,0
					c-0.26,0.85-0.26,0.85-0.09,1.78c0.86,0,1.74,0,2.71,0c0,0.63,0,1.14,0,1.74C60.05-7.49,58.51-7.48,56.94-7.55z"/>
				<path d="M26.82-10.86c0,0.48,0,0.95,0,1.56c0.92,0,1.81,0,2.79,0c0,0.64,0,1.14,0,1.72c-1.56,0-3.07,0-4.67,0
					c0-2.83,0-5.61,0-8.55c1.54-0.06,3.05-0.03,4.51-0.02c0.45,0.51,0.18,1,0.28,1.58c-1.01,0.04-1.94,0.09-2.92,0.13
					c0,0.6,0,1.12,0,1.72c0.9,0.05,1.73,0.09,2.65,0.15c0.03,0.49,0.05,0.93,0.08,1.4C28.66-10.76,27.72-11.17,26.82-10.86z"/>
			</g>
		</g>
		<g>
			<g>
				<path d="M95.58-91.43c0.48,0.8,0.25,1.64,0.18,2.49c-0.07,0.75-0.06,1.52,0.04,2.26c0.04,0.34,0.38,0.64,0.56,0.93
					c0.87-0.24,1.08-0.85,1.26-1.45c0.21-0.69,0.37-1.39,0.57-2.08c0.12-0.41,0.31-0.79,0.84-0.67c0.39,0.09,0.6,0.64,0.38,1.12
					c-0.28,0.61-0.68,1.17-0.95,1.78c-0.26,0.59-0.66,1.23,0.02,1.87c0.74-0.05,1.07-0.58,1.37-1.13c0.15-0.28,0.22-0.6,0.38-0.86
					c0.26-0.43,0.56-0.82,1.16-0.65c0.31,0.51,0.09,0.9-0.24,1.23c-1.36,1.36-2.07,3.02-2.39,4.89c-0.1,0.57-0.34,1.13-0.6,1.64
					c-0.44,0.85-0.88,1.07-1.76,0.77c-0.64-0.22-1.2-0.24-1.83-0.01c-0.77,0.28-1.45,0.06-1.92-0.59c-1.02-1.42-2.34-2.48-3.84-3.34
					c-0.19-0.11-0.36-0.27-0.52-0.43c-0.33-0.31-0.5-0.68-0.11-1.05c0.35-0.33,0.74-0.25,1.08,0.07c0.16,0.15,0.3,0.34,0.46,0.49
					c0.26,0.25,0.5,0.52,0.79,0.73c0.97,0.72,1.75,0.46,1.91-0.76c0.1-0.72-0.07-1.51-0.27-2.23c-0.23-0.82-0.65-1.58-0.95-2.38
					c-0.14-0.37-0.24-0.78-0.23-1.17c0.01-0.2,0.27-0.52,0.46-0.56c0.18-0.04,0.52,0.17,0.62,0.35c0.17,0.3,0.18,0.69,0.29,1.03
					c0.24,0.82,0.47,1.64,0.75,2.44c0.14,0.38,0.39,0.76,0.89,0.68c0.53-0.08,0.76-0.52,0.77-0.98c0.02-0.99,0.03-1.98-0.1-2.96
					c-0.08-0.59-0.01-1.05,0.39-1.48C95.22-91.43,95.4-91.43,95.58-91.43z"/>
				<path d="M103-56.06c-0.06,0.12-0.12,0.28-0.22,0.33c-0.23,0.11-0.52,0.29-0.71,0.22c-0.19-0.07-0.38-0.39-0.41-0.62
					c-0.04-0.3,0.13-0.62,0.11-0.93c-0.02-0.33-0.03-0.83-0.24-0.95c-0.46-0.29-0.83,0.07-1.11,0.47c-0.21,0.3-0.41,0.59-0.7,1
					c-0.05-0.63-0.08-1.07-0.11-1.51c-0.69,0.16-0.72,0.16-0.78,0.39c-0.18,0.69-0.35,1.4-0.51,2.1c-0.2,0.86-0.73,1.39-1.62,1.68
					c-0.57-1.3,0.54-2.49,0.1-3.73c-0.18-0.06-0.35-0.12-0.51-0.17c-1.29-0.45-1.96-0.3-2.76,0.81c-0.39,0.54-0.68,1.16-0.9,1.79
					c-0.24,0.7-0.6,1.15-1.4,1.26c-0.44-1.29,0.55-2.43,0.18-3.67c-0.2-0.07-0.43-0.1-0.61-0.21c-1.03-0.66-1.84-0.18-2.47,0.59
					c-0.47,0.58-0.84,1.28-1.1,1.98c-0.31,0.83-0.78,1.45-1.74,2.02c0.12-0.91,0.21-1.61,0.3-2.31c0.09-0.7,0.26-1.41-0.06-2.11
					c-0.29-0.08-0.59-0.1-0.8-0.24c-0.72-0.48-1.3-0.18-1.83,0.29c-0.95,0.86-1.39,2-1.51,3.23c-0.11,1.11,0.85,1.81,1.96,1.56
					c0.19-0.04,0.37-0.13,0.56-0.19c0.06,0.07,0.11,0.15,0.17,0.22c-0.31,0.35-0.65,0.68-0.92,1.06c-0.52,0.73-1.09,1.44-1.49,2.23
					c-0.37,0.73-0.1,1.52,0.43,1.8c0.63,0.34,1.64,0.18,2.1-0.39c0.22-0.27,0.4-0.6,0.53-0.93c0.14-0.38,0.31-0.79,0.28-1.18
					c-0.11-1.34,0.5-2.22,1.61-2.84c0.11-0.06,0.22-0.14,0.39-0.25c0.99,1,1.93,0.52,2.83-0.16c1.1,0.92,1.1,0.92,2.57,0.16
					c0.96,0.96,1.92,0.59,2.88-0.2c0.76,1.14,1.65,0.85,2.48,0.17c0.93,0.79,1.09,0.77,1.48-0.18c0.12-0.29,0.21-0.59,0.33-0.89
					c0.2-0.51,0.4-1.02,0.66-1.66c0.3,0.6,0.41,1.09,0.71,1.35c0.35,0.29,0.87,0.36,1.34,0.54c0.5,1.67,1.31,1.92,3.29,0.64
					c1.16,0.96,1.42,1,2.47,0.38c0.87-0.52,0.88-0.54,0.72-1.55c-0.54,0.27-1.09,0.55-1.61,0.81c-0.61-0.6-0.44-1.19-0.27-1.73
					c0.17-0.51,0.46-0.98,0.64-1.48c0.43-1.23,0.88-2.45,1.22-3.7c0.13-0.49,0.08-1.08-0.05-1.59c-0.22-0.93-0.84-1.12-1.6-0.54
					c-0.75,0.57-1.12,1.4-1.37,2.28c-0.25,0.86-0.42,1.74-0.65,2.71C104.21-57.72,103.47-57.05,103-56.06z M105.46-55.07
					c-0.01,0.28-0.19,0.59-0.37,0.82c-0.25,0.32-0.59,0.58-1.03,0.32c-0.39-0.22-0.33-0.56-0.24-0.94c0.27-1.1,0.56-1.52,1.52-2.08
					C105.38-56.29,105.48-55.68,105.46-55.07z M89.46-54.22c-0.12,0.21-0.47,0.3-0.72,0.44c-0.13-0.22-0.34-0.43-0.37-0.66
					c-0.09-0.96,0.71-2.15,1.77-2.61C90.06-56.03,89.94-55.08,89.46-54.22z M94.85-54.18c-0.11,0.19-0.51,0.44-0.59,0.38
					c-0.22-0.15-0.49-0.46-0.47-0.68c0.12-1.08,0.51-2.05,1.85-2.77C95.43-56,95.35-55.03,94.85-54.18z M106.79-57.09
					c-0.21-0.67-0.1-1.22-0.04-1.75c0.06-0.54,0.13-1.08,0.3-1.59c0.17-0.51,0.07-1.19,0.85-1.56
					C108.13-60.6,107.82-59.23,106.79-57.09z M84.41-57.02c0.22,1.23-0.19,2.61-1.06,3.32C82.59-54.88,83.03-56.18,84.41-57.02z
					 M83.96-51.05c0.2,1.37-0.2,2.21-1.21,2.47C82.77-49.6,83.29-50.33,83.96-51.05z"/>
				<path d="M115.25-65.57c0.36,0.02,0.67,0.06,0.98,0.06c0.3,0,0.59-0.05,1.01-0.08c-1.18-2.92-2.32-5.73-3.44-8.51
					c-0.69,0-1.22,0-1.83,0c-1.07,2.63-2.13,5.23-3.19,7.83c-0.72-2.6-0.58-5.26-1.11-7.81c-0.72,0-1.33,0-1.96,0
					c-0.62,1.57-1.22,3.07-1.82,4.58c-0.09-0.01-0.18-0.01-0.27-0.02c-0.6-1.53-1.19-3.06-1.77-4.57c-0.76,0-1.37,0-2.09,0
					c-0.15,2.87-0.62,5.64-0.65,8.54c0.69,0.02,1.26,0.2,1.79-0.17c0.14-1.57,0.28-3.11,0.42-4.64c0.06-0.01,0.13-0.02,0.19-0.03
					c0.56,1.55,1.12,3.1,1.68,4.68c0.41,0,0.75,0,1.15,0c0.55-1.52,1.08-3.01,1.62-4.49c0.09,0.01,0.18,0.01,0.28,0.02
					c0.14,1.53,0.29,3.06,0.44,4.71c1.4-0.13,2.64,0.12,3.85-0.16c0.26-0.6,0.49-1.12,0.73-1.65c1.11,0,2.14,0,3.26,0
					C114.79-66.65,115.02-66.12,115.25-65.57z M113.87-69.05c-0.72,0-1.27,0-1.87,0c0.13-0.84,0.43-1.55,0.96-2.43
					C113.3-70.55,113.56-69.87,113.87-69.05z"/>
				<path d="M71.24-65.73c1.88,0.63,3.57,0.34,4.93-1.16c1.23-1.35,1.43-3.42,0.48-5.17c-0.31-0.58-0.3-1.06-0.01-1.6
					c-0.34-0.26-0.62-0.47-0.91-0.69c-0.24,0.18-0.46,0.34-0.71,0.54c-1.99-0.86-3.91-0.71-5.38,1.01c-1.6,1.88-1.41,3.96-0.14,5.93
					c-0.15,0.31-0.27,0.54-0.39,0.8c0.33,0.23,0.62,0.44,0.94,0.67c0.23-0.15,0.46-0.29,0.74-0.47
					C70.99-65.82,71.11-65.78,71.24-65.73z M71.05-68.68c-0.63-1.16-0.45-2.49,0.37-3.26c0.67-0.63,1.47-0.7,2.31-0.14
					C72.84-70.96,71.96-69.84,71.05-68.68z M74.84-71.16c0.56,1.22,0.43,2.25-0.28,3.16c-0.64,0.81-1.51,0.88-2.65,0.54
					C72.95-68.78,73.86-69.93,74.84-71.16z"/>
				<path d="M62.09-65.57c-0.69,0-1.18,0-1.66,0c-0.3-0.9-0.38-6.74-0.1-8.51c0.33-0.03,0.68-0.05,1.02-0.09
					c0.55-0.06,0.92,0.16,1.22,0.64c0.75,1.23,1.55,2.43,2.35,3.63c0.19,0.28,0.42,0.54,0.82,1.04c0-1.9,0-3.5,0-5.21
					c0.65,0,1.2,0,1.81,0c0,2.84,0,5.61,0,8.46c-0.37,0.03-0.67,0.05-0.98,0.08c-0.61,0.08-1-0.18-1.32-0.7
					c-0.68-1.12-1.41-2.2-2.13-3.3c-0.26-0.4-0.55-0.79-1.03-1.13C62.09-68.99,62.09-67.35,62.09-65.57z"/>
				<path d="M119.95-65.52c0.4-0.02,0.8-0.09,1.2-0.18c2-0.43,3.36-2.1,3.39-4.14c0.02-2-1.36-3.86-3.33-4.18
					c-1.13-0.19-2.31-0.03-3.53-0.03c0,2.81,0,5.58,0,8.54C118.52-65.51,119.23-65.49,119.95-65.52z M119.55-72.37
					c1.73-0.15,2.85,0.83,2.87,2.46c0.02,1.63-1.03,2.62-2.87,2.56C119.55-69.09,119.55-70.73,119.55-72.37z"/>
				<path d="M83.34-69.85c1.33-1.4,0.67-3.85-1.18-4.19c-1.27-0.24-2.58-0.22-3.89,0c0,2.85,0,5.63,0,8.47
					c0.64,0.05,1.2,0.22,1.73-0.13c0.2-0.97-0.1-1.95,0.25-3.06c0.78,1,1.42,1.86,2.12,2.68c0.21,0.25,0.54,0.5,0.85,0.55
					c0.55,0.09,1.13,0.02,1.98,0.02c-1.08-1.33-1.98-2.43-2.87-3.53C82.71-69.34,83.07-69.56,83.34-69.85z M80.14-72.57
					c1.22-0.15,1.79,0.15,1.87,0.93c0.08,0.84-0.49,1.25-1.87,1.22C80.14-71.19,80.14-71.89,80.14-72.57z"/>
				<path d="M85.87-65.59c0.61,0,1.13,0,1.78,0c0-1.05,0-2.02,0-3.23c0.34,0.32,0.52,0.45,0.65,0.62c0.53,0.67,1.08,1.34,1.57,2.04
					c0.35,0.49,0.76,0.73,1.37,0.66c0.42-0.05,0.85-0.05,1.5-0.08c-1.03-1.27-1.93-2.37-2.83-3.48c0.34-0.24,0.61-0.4,0.84-0.61
					c0.89-0.79,0.99-1.81,0.7-2.86c-0.28-1.04-1.09-1.53-2.13-1.57c-1.12-0.05-2.24-0.01-3.46-0.01
					C85.87-71.17,85.87-68.4,85.87-65.59z M89.61-71.51c-0.01,0.78-0.53,1.12-1.84,1.11c0-0.72,0-1.44,0-2.27
					C89.09-72.63,89.62-72.28,89.61-71.51z"/>
				<path d="M125.44-65.55c0-2.9,0-5.64,0-8.38c1-0.28,3.22-0.32,4.74-0.08c0,0.46,0,0.92,0,1.5c-0.95,0-1.83,0-2.81,0
					c0,0.62,0,1.14,0,1.79c0.89,0.05,1.77,0.1,2.74,0.16c0.03,0.49,0.05,0.93,0.09,1.51c-0.94,0-1.82,0-2.65,0
					c-0.26,0.85-0.26,0.85-0.09,1.78c0.86,0,1.74,0,2.71,0c0,0.63,0,1.14,0,1.74C128.55-65.49,127.01-65.48,125.44-65.55z"/>
				<path d="M95.32-68.86c0,0.48,0,0.95,0,1.56c0.92,0,1.81,0,2.79,0c0,0.64,0,1.14,0,1.72c-1.56,0-3.07,0-4.67,0
					c0-2.83,0-5.61,0-8.55c1.54-0.06,3.05-0.03,4.51-0.02c0.45,0.51,0.18,1,0.28,1.58c-1.01,0.04-1.94,0.09-2.92,0.13
					c0,0.6,0,1.12,0,1.72c0.9,0.05,1.73,0.09,2.65,0.15c0.03,0.49,0.05,0.93,0.08,1.4C97.16-68.76,96.22-69.17,95.32-68.86z"/>
			</g>
			<g>
				<circle class="st1" cx="27.79" cy="-67.95" r="6.13"/>
				<path d="M33.82-58.5c-0.27,0.27-1.1,0.24-1.44,0.27c-0.54,0.04-1.09,0.09-1.63,0.13c-1.14,0.08-2.29,0.11-3.44,0.11
					c-1.21-0.01-2.43-0.07-3.64-0.18c-0.51-0.04-1.14-0.03-1.63-0.16c-0.1-0.03-0.36-0.02-0.36-0.18c0-0.26,0.44-0.1,0.61-0.25
					c-0.11-0.22-0.27-0.08-0.4-0.18c-0.1-0.08-0.23-0.31-0.3-0.42c-0.18-0.27-0.3-0.57-0.35-0.89c-0.1-0.66,0.08-1.48,0.08-2.15
					c0-1.77,0-3.54,0-5.31c0-1.81,0.01-3.63-0.01-5.44c-0.01-0.66-0.36-1.54,0.22-2.02c0.14-0.11,0.33-0.16,0.47-0.26
					c0.26-0.18,0.22,0,0.32-0.35c0.15-0.51-0.01-0.39-0.37-0.41c0.16-0.34,0.09-0.56-0.18-0.72c-0.05-0.03-0.22,0.05-0.31-0.01
					c-0.21-0.12-0.14-0.38-0.14-0.59c0-0.42-0.06-0.67,0.3-0.91c0.2-0.14,0.51-0.32,0.75-0.38c0.64-0.18,1.32-0.04,1.94-0.12
					c0.65-0.09,1.34-0.06,2-0.07c1.74-0.01,3.48-0.04,5.22,0.06c0.7,0.04,1.34,0.09,1.97,0.41c0.35,0.18,0.51,0.19,0.59,0.59
					c0.06,0.34,0.04,0.78-0.09,1.1c-0.18-0.15-0.5-0.07-0.62,0.11c-0.19,0.29,0.08,0.38-0.3,0.44c0.18,0.17,0.02,0.51,0.25,0.73
					c0.18,0.18,0.46,0.24,0.65,0.43c0.47,0.5,0.14,1.34,0.14,1.95c-0.02,1.71,0.02,3.42,0.05,5.13c0.03,1.78,0.01,3.56,0,5.35
					c0,0.39-0.03,0.78-0.03,1.17c0,0.33,0.13,0.64,0.14,0.97c0.03,0.82-0.44,1.34-1.05,1.81C33.41-58.64,33.67-58.71,33.82-58.5z
					 M26.14-78.94c0.02,0.01,0.05,0.02,0.07,0.02C26.19-78.93,26.17-78.93,26.14-78.94z M25.8-78.97c0.01,0.01,0.02,0.02,0.04,0.02
					C25.82-78.95,25.81-78.96,25.8-78.97z M33.58-66.46c0.11-0.43,0.15-0.84,0.17-1.3c0.02-0.49,0-0.96-0.09-1.44
					c-0.05-0.3-0.1-0.65-0.24-0.93c0.03,0.07-0.22-0.34-0.21-0.32c-0.08-0.24,0-0.26-0.13-0.51c-0.06-0.11-0.14-0.26-0.21-0.36
					c-0.21-0.3-0.44-0.63-0.7-0.89c-0.56-0.56-1.07-0.85-1.8-1.14c-2.07-0.84-4.75-0.62-6.56,0.67c-2.29,1.63-2.71,5.29-1.47,7.66
					c0.09,0.18,0.23,0.4,0.34,0.55c0.08,0.11,0.26,0.17,0.31,0.23c0.03,0.04,0.05,0.16,0.02,0.12c0,0,0.2,0.31,0.28,0.38
					c0.2,0.18,0.44,0.39,0.66,0.53c0.89,0.56,1.8,0.92,2.85,1.06c0.8,0.1,1.71,0.22,2.45-0.06c0.43-0.17,0.88-0.23,1.32-0.4
					c0.59-0.22,1.03-0.56,1.49-0.99c0.21-0.2,0.39-0.41,0.55-0.65c0.15-0.23,0.5-0.47,0.52-0.76
					C33.16-65.46,33.47-66.01,33.58-66.46z"/>
			</g>
		</g>
		<g>
			<g>
				<path d="M139.74-123.73c1.88,0.63,3.57,0.34,4.93-1.16c1.23-1.35,1.43-3.42,0.48-5.17c-0.31-0.58-0.3-1.06-0.01-1.6
					c-0.34-0.26-0.62-0.47-0.91-0.69c-0.24,0.18-0.46,0.34-0.71,0.54c-1.99-0.86-3.91-0.71-5.38,1.01c-1.6,1.88-1.41,3.96-0.14,5.93
					c-0.15,0.31-0.27,0.54-0.39,0.8c0.33,0.23,0.62,0.44,0.94,0.67c0.23-0.15,0.46-0.29,0.74-0.47
					C139.49-123.82,139.61-123.78,139.74-123.73z M139.55-126.68c-0.63-1.16-0.45-2.49,0.37-3.26c0.67-0.63,1.47-0.7,2.31-0.14
					C141.34-128.96,140.46-127.84,139.55-126.68z M143.34-129.16c0.56,1.22,0.43,2.25-0.28,3.16c-0.64,0.81-1.51,0.88-2.65,0.54
					C141.45-126.78,142.36-127.93,143.34-129.16z"/>
				<path d="M130.59-123.57c-0.69,0-1.18,0-1.66,0c-0.3-0.9-0.38-6.74-0.1-8.51c0.33-0.03,0.68-0.05,1.02-0.09
					c0.55-0.06,0.92,0.16,1.22,0.64c0.75,1.23,1.55,2.43,2.35,3.63c0.19,0.28,0.42,0.54,0.82,1.04c0-1.9,0-3.5,0-5.21
					c0.65,0,1.2,0,1.81,0c0,2.84,0,5.61,0,8.46c-0.37,0.03-0.67,0.05-0.98,0.08c-0.61,0.08-1-0.18-1.32-0.7
					c-0.68-1.12-1.41-2.2-2.13-3.3c-0.26-0.4-0.55-0.79-1.03-1.13C130.59-126.99,130.59-125.35,130.59-123.57z"/>
			</g>
			<g>
				<circle class="st1" cx="96.29" cy="-125.95" r="6.13"/>
				<path d="M102.32-116.5c-0.27,0.27-1.1,0.24-1.44,0.27c-0.54,0.04-1.09,0.09-1.63,0.13c-1.14,0.08-2.29,0.11-3.44,0.11
					c-1.21-0.01-2.43-0.07-3.64-0.18c-0.51-0.04-1.14-0.03-1.63-0.16c-0.1-0.03-0.36-0.02-0.36-0.18c0-0.26,0.44-0.1,0.61-0.25
					c-0.11-0.22-0.27-0.08-0.4-0.18c-0.1-0.08-0.23-0.31-0.3-0.42c-0.18-0.27-0.3-0.57-0.35-0.89c-0.1-0.66,0.08-1.48,0.08-2.15
					c0-1.77,0-3.54,0-5.31c0-1.81,0.01-3.63-0.01-5.44c-0.01-0.66-0.36-1.54,0.22-2.02c0.14-0.11,0.33-0.16,0.47-0.26
					c0.26-0.18,0.22,0,0.32-0.35c0.15-0.51-0.01-0.39-0.37-0.41c0.16-0.34,0.09-0.56-0.18-0.72c-0.05-0.03-0.22,0.05-0.31-0.01
					c-0.21-0.12-0.14-0.38-0.14-0.59c0-0.42-0.06-0.67,0.3-0.91c0.2-0.14,0.51-0.32,0.75-0.38c0.64-0.18,1.32-0.04,1.94-0.12
					c0.65-0.09,1.34-0.06,2-0.07c1.74-0.01,3.48-0.04,5.22,0.06c0.7,0.04,1.34,0.09,1.97,0.41c0.35,0.18,0.51,0.19,0.59,0.59
					c0.06,0.34,0.04,0.78-0.09,1.1c-0.18-0.15-0.5-0.07-0.62,0.11c-0.19,0.29,0.08,0.38-0.3,0.44c0.18,0.17,0.02,0.51,0.25,0.73
					c0.18,0.18,0.46,0.24,0.65,0.43c0.47,0.5,0.14,1.34,0.14,1.95c-0.02,1.71,0.02,3.42,0.05,5.13c0.03,1.78,0.01,3.56,0,5.35
					c0,0.39-0.03,0.78-0.03,1.17c0,0.33,0.13,0.64,0.14,0.97c0.03,0.82-0.44,1.34-1.05,1.81
					C101.91-116.64,102.17-116.71,102.32-116.5z M94.64-136.94c0.02,0.01,0.05,0.02,0.07,0.02
					C94.69-136.93,94.67-136.93,94.64-136.94z M94.3-136.97c0.01,0.01,0.02,0.02,0.04,0.02C94.32-136.95,94.31-136.96,94.3-136.97z
					 M102.08-124.46c0.11-0.43,0.15-0.84,0.17-1.3c0.02-0.49,0-0.96-0.09-1.44c-0.05-0.3-0.1-0.65-0.24-0.93
					c0.03,0.07-0.22-0.34-0.21-0.32c-0.08-0.24,0-0.26-0.13-0.51c-0.06-0.11-0.14-0.26-0.21-0.36c-0.21-0.3-0.44-0.63-0.7-0.89
					c-0.56-0.56-1.07-0.85-1.8-1.14c-2.07-0.84-4.75-0.62-6.56,0.67c-2.29,1.63-2.71,5.29-1.47,7.66c0.09,0.18,0.23,0.4,0.34,0.55
					c0.08,0.11,0.26,0.17,0.31,0.23c0.03,0.04,0.05,0.16,0.02,0.12c0,0,0.2,0.31,0.28,0.38c0.2,0.18,0.44,0.39,0.66,0.53
					c0.89,0.56,1.8,0.92,2.85,1.06c0.8,0.1,1.71,0.22,2.45-0.06c0.43-0.17,0.88-0.23,1.32-0.4c0.59-0.22,1.03-0.56,1.49-0.99
					c0.21-0.2,0.39-0.41,0.55-0.65c0.15-0.23,0.5-0.47,0.52-0.76C101.66-123.46,101.97-124.01,102.08-124.46z"/>
			</g>
		</g>
		<g>
			<g>
				<path d="M34.5-114.06c-0.06,0.12-0.12,0.28-0.22,0.33c-0.23,0.11-0.52,0.29-0.71,0.22c-0.19-0.07-0.38-0.39-0.41-0.62
					c-0.04-0.3,0.13-0.62,0.11-0.93c-0.02-0.33-0.03-0.83-0.24-0.95c-0.46-0.29-0.83,0.07-1.11,0.47c-0.21,0.3-0.41,0.59-0.7,1
					c-0.05-0.63-0.08-1.07-0.11-1.51c-0.69,0.16-0.72,0.16-0.78,0.39c-0.18,0.69-0.35,1.4-0.51,2.1c-0.2,0.86-0.73,1.39-1.62,1.68
					c-0.57-1.3,0.54-2.49,0.1-3.73c-0.18-0.06-0.35-0.12-0.51-0.17c-1.29-0.45-1.96-0.3-2.76,0.81c-0.39,0.54-0.68,1.16-0.9,1.79
					c-0.24,0.7-0.6,1.15-1.4,1.26c-0.44-1.29,0.55-2.43,0.18-3.67c-0.2-0.07-0.43-0.1-0.61-0.21c-1.03-0.66-1.84-0.18-2.47,0.59
					c-0.47,0.58-0.84,1.28-1.1,1.98c-0.31,0.83-0.78,1.45-1.74,2.02c0.12-0.91,0.21-1.61,0.3-2.31c0.09-0.7,0.26-1.41-0.06-2.11
					c-0.29-0.08-0.59-0.1-0.8-0.24c-0.72-0.48-1.3-0.18-1.83,0.29c-0.95,0.86-1.39,2-1.51,3.23c-0.11,1.11,0.85,1.81,1.96,1.56
					c0.19-0.04,0.37-0.13,0.56-0.19c0.06,0.07,0.11,0.15,0.17,0.22c-0.31,0.35-0.65,0.68-0.92,1.06c-0.52,0.73-1.09,1.44-1.49,2.23
					c-0.37,0.73-0.1,1.52,0.43,1.8c0.63,0.34,1.64,0.18,2.1-0.39c0.22-0.27,0.4-0.6,0.53-0.93c0.14-0.38,0.31-0.79,0.28-1.18
					c-0.11-1.34,0.5-2.22,1.61-2.84c0.11-0.06,0.22-0.14,0.39-0.25c0.99,1,1.93,0.52,2.83-0.16c1.1,0.92,1.1,0.92,2.57,0.16
					c0.96,0.96,1.92,0.59,2.88-0.2c0.76,1.14,1.65,0.85,2.48,0.17c0.93,0.79,1.09,0.77,1.48-0.18c0.12-0.29,0.21-0.59,0.33-0.89
					c0.2-0.51,0.4-1.02,0.66-1.66c0.3,0.6,0.41,1.09,0.71,1.35c0.35,0.29,0.87,0.36,1.34,0.54c0.5,1.67,1.31,1.92,3.29,0.64
					c1.16,0.96,1.42,1,2.47,0.38c0.87-0.52,0.88-0.54,0.72-1.55c-0.54,0.27-1.09,0.55-1.61,0.81c-0.61-0.6-0.44-1.19-0.27-1.73
					c0.17-0.51,0.46-0.98,0.64-1.48c0.43-1.23,0.88-2.45,1.22-3.7c0.13-0.49,0.08-1.08-0.05-1.59c-0.22-0.93-0.84-1.12-1.6-0.54
					c-0.75,0.57-1.12,1.4-1.37,2.28c-0.25,0.86-0.42,1.74-0.65,2.71C35.71-115.72,34.97-115.05,34.5-114.06z M36.96-113.07
					c-0.01,0.28-0.19,0.59-0.37,0.82c-0.25,0.32-0.59,0.58-1.03,0.32c-0.39-0.22-0.33-0.56-0.24-0.94c0.27-1.1,0.56-1.52,1.52-2.08
					C36.88-114.29,36.98-113.68,36.96-113.07z M20.96-112.22c-0.12,0.21-0.47,0.3-0.72,0.44c-0.13-0.22-0.34-0.43-0.37-0.66
					c-0.09-0.96,0.71-2.15,1.77-2.61C21.56-114.03,21.44-113.08,20.96-112.22z M26.35-112.18c-0.11,0.19-0.51,0.44-0.59,0.38
					c-0.22-0.15-0.49-0.46-0.47-0.68c0.12-1.08,0.51-2.05,1.85-2.77C26.93-114,26.85-113.03,26.35-112.18z M38.29-115.09
					c-0.21-0.67-0.1-1.22-0.04-1.75c0.06-0.54,0.13-1.08,0.3-1.59c0.17-0.51,0.07-1.19,0.85-1.56
					C39.63-118.6,39.32-117.23,38.29-115.09z M15.91-115.02c0.22,1.23-0.19,2.61-1.06,3.32C14.09-112.88,14.53-114.18,15.91-115.02z
					 M15.46-109.05c0.2,1.37-0.2,2.21-1.21,2.47C14.27-107.6,14.79-108.33,15.46-109.05z"/>
				<path d="M46.75-123.57c0.36,0.02,0.67,0.06,0.98,0.06c0.3,0,0.59-0.05,1.01-0.08c-1.18-2.92-2.32-5.73-3.44-8.51
					c-0.69,0-1.22,0-1.83,0c-1.07,2.63-2.13,5.23-3.19,7.83c-0.72-2.6-0.58-5.26-1.11-7.81c-0.72,0-1.33,0-1.96,0
					c-0.62,1.57-1.22,3.07-1.82,4.58c-0.09-0.01-0.18-0.01-0.27-0.02c-0.6-1.53-1.19-3.06-1.77-4.57c-0.76,0-1.37,0-2.09,0
					c-0.15,2.87-0.62,5.64-0.65,8.54c0.69,0.02,1.26,0.2,1.79-0.17c0.14-1.57,0.28-3.11,0.42-4.64c0.06-0.01,0.13-0.02,0.19-0.03
					c0.56,1.55,1.12,3.1,1.68,4.68c0.41,0,0.75,0,1.15,0c0.55-1.52,1.08-3.01,1.62-4.49c0.09,0.01,0.18,0.01,0.28,0.02
					c0.14,1.53,0.29,3.06,0.44,4.71c1.4-0.13,2.64,0.12,3.85-0.16c0.26-0.6,0.49-1.12,0.73-1.65c1.11,0,2.14,0,3.26,0
					C46.29-124.65,46.52-124.12,46.75-123.57z M45.37-127.05c-0.72,0-1.27,0-1.87,0c0.13-0.84,0.43-1.55,0.96-2.43
					C44.8-128.55,45.06-127.87,45.37-127.05z"/>
				<path d="M2.74-123.73c1.88,0.63,3.57,0.34,4.93-1.16c1.23-1.35,1.43-3.42,0.48-5.17c-0.31-0.58-0.3-1.06-0.01-1.6
					c-0.34-0.26-0.62-0.47-0.91-0.69c-0.24,0.18-0.46,0.34-0.71,0.54c-1.99-0.86-3.91-0.71-5.38,1.01c-1.6,1.88-1.41,3.96-0.14,5.93
					c-0.15,0.31-0.27,0.54-0.39,0.8c0.33,0.23,0.62,0.44,0.94,0.67c0.23-0.15,0.46-0.29,0.74-0.47
					C2.49-123.82,2.61-123.78,2.74-123.73z M2.55-126.68c-0.63-1.16-0.45-2.49,0.37-3.26c0.67-0.63,1.47-0.7,2.31-0.14
					C4.34-128.96,3.46-127.84,2.55-126.68z M6.34-129.16c0.56,1.22,0.43,2.25-0.28,3.16c-0.64,0.81-1.51,0.88-2.65,0.54
					C4.45-126.78,5.36-127.93,6.34-129.16z"/>
				<path d="M51.45-123.52c0.4-0.02,0.8-0.09,1.2-0.18c2-0.43,3.36-2.1,3.39-4.14c0.02-2-1.36-3.86-3.33-4.18
					c-1.13-0.19-2.31-0.03-3.53-0.03c0,2.81,0,5.58,0,8.54C50.02-123.51,50.73-123.49,51.45-123.52z M51.05-130.37
					c1.73-0.15,2.85,0.83,2.87,2.46c0.02,1.63-1.03,2.62-2.87,2.56C51.05-127.09,51.05-128.73,51.05-130.37z"/>
				<path d="M14.84-127.85c1.33-1.4,0.67-3.85-1.18-4.19c-1.27-0.24-2.58-0.22-3.89,0c0,2.85,0,5.63,0,8.47
					c0.64,0.05,1.2,0.22,1.73-0.13c0.2-0.97-0.1-1.95,0.25-3.06c0.78,1,1.42,1.86,2.12,2.68c0.21,0.25,0.54,0.5,0.85,0.55
					c0.55,0.09,1.13,0.02,1.98,0.02c-1.08-1.33-1.98-2.43-2.87-3.53C14.21-127.34,14.57-127.56,14.84-127.85z M11.64-130.57
					c1.22-0.15,1.79,0.15,1.87,0.93c0.08,0.84-0.49,1.25-1.87,1.22C11.64-129.19,11.64-129.89,11.64-130.57z"/>
				<path d="M17.37-123.59c0.61,0,1.13,0,1.78,0c0-1.05,0-2.02,0-3.23c0.34,0.32,0.52,0.45,0.65,0.62c0.53,0.67,1.08,1.34,1.57,2.04
					c0.35,0.49,0.76,0.73,1.37,0.66c0.42-0.05,0.85-0.05,1.5-0.08c-1.03-1.27-1.93-2.37-2.83-3.48c0.34-0.24,0.61-0.4,0.84-0.61
					c0.89-0.79,0.99-1.81,0.7-2.86c-0.28-1.04-1.09-1.53-2.13-1.57c-1.12-0.05-2.24-0.01-3.46-0.01
					C17.37-129.17,17.37-126.4,17.37-123.59z M21.11-129.51c-0.01,0.78-0.53,1.12-1.84,1.11c0-0.72,0-1.44,0-2.27
					C20.59-130.63,21.12-130.28,21.11-129.51z"/>
				<path d="M56.94-123.55c0-2.9,0-5.64,0-8.38c1-0.28,3.22-0.32,4.74-0.08c0,0.46,0,0.92,0,1.5c-0.95,0-1.83,0-2.81,0
					c0,0.62,0,1.14,0,1.79c0.89,0.05,1.77,0.1,2.74,0.16c0.03,0.49,0.05,0.93,0.09,1.51c-0.94,0-1.82,0-2.65,0
					c-0.26,0.85-0.26,0.85-0.09,1.78c0.86,0,1.74,0,2.71,0c0,0.63,0,1.14,0,1.74C60.05-123.49,58.51-123.48,56.94-123.55z"/>
				<path d="M26.82-126.86c0,0.48,0,0.95,0,1.56c0.92,0,1.81,0,2.79,0c0,0.64,0,1.14,0,1.72c-1.56,0-3.07,0-4.67,0
					c0-2.83,0-5.61,0-8.55c1.54-0.06,3.05-0.03,4.51-0.02c0.45,0.51,0.18,1,0.28,1.58c-1.01,0.04-1.94,0.09-2.92,0.13
					c0,0.6,0,1.12,0,1.72c0.9,0.05,1.73,0.09,2.65,0.15c0.03,0.49,0.05,0.93,0.08,1.4C28.66-126.76,27.72-127.17,26.82-126.86z"/>
			</g>
		</g>
	</g>
</pattern>
<rect y="0" class="st2" width="1328" height="397"/>
<pattern  id="SVGID_1_" xlink:href="#New_Pattern_2" patternTransform="matrix(1 0 0 1 0 -18)">
</pattern>
<rect x="-298" y="-549" class="st3" width="1354" height="306"/>
<g>
	<circle class="st1" cx="1479.39" cy="-32.26" r="6.13"/>
	<g>
		<path d="M1484.81-23.06c0.61-0.47,1.08-0.98,1.05-1.81c-0.01-0.34-0.14-0.64-0.14-0.97c0-0.38,0.03-0.78,0.03-1.17
			c0-1.78,0.03-3.56,0-5.35c-0.03-1.71-0.07-3.42-0.05-5.13c0.01-0.61,0.33-1.45-0.14-1.95c-0.18-0.19-0.46-0.25-0.65-0.43
			c-0.22-0.22-0.06-0.56-0.25-0.73c0.39-0.06,0.11-0.15,0.3-0.44c0.12-0.18,0.44-0.26,0.62-0.11c0.13-0.32,0.15-0.76,0.09-1.1
			c-0.07-0.4-0.23-0.41-0.59-0.59c-0.63-0.32-1.27-0.38-1.97-0.41c-1.73-0.09-3.48-0.06-5.22-0.06c-0.65,0-1.35-0.02-2,0.07
			c-0.62,0.08-1.3-0.06-1.94,0.12c-0.23,0.07-0.55,0.25-0.75,0.38c-0.35,0.24-0.29,0.49-0.3,0.91c0,0.21-0.07,0.47,0.14,0.59
			c0.09,0.05,0.26-0.02,0.31,0.01c0.27,0.16,0.33,0.38,0.18,0.72c0.36,0.01,0.52-0.1,0.37,0.41c-0.1,0.35-0.07,0.17-0.32,0.35
			c-0.14,0.1-0.33,0.15-0.47,0.26c-0.58,0.49-0.23,1.37-0.22,2.02c0.02,1.81,0.01,3.63,0.01,5.44c0,1.77,0,3.54,0,5.31
			c0,0.68-0.18,1.49-0.08,2.15c0.05,0.32,0.17,0.63,0.35,0.89c0.07,0.11,0.21,0.33,0.3,0.42c0.12,0.1,0.29-0.04,0.4,0.18
			c-0.17,0.15-0.61-0.01-0.61,0.25c0,0.16,0.26,0.15,0.36,0.18c0.49,0.13,1.12,0.11,1.63,0.16c1.2,0.1,2.43,0.17,3.64,0.18
			c1.15,0.01,2.3-0.03,3.44-0.11c0.54-0.04,1.09-0.09,1.63-0.13c0.35-0.03,1.18,0,1.44-0.27
			C1485.28-23.02,1485.01-22.95,1484.81-23.06z M1477.82-43.24c-0.02,0-0.05-0.01-0.07-0.02
			C1477.77-43.24,1477.79-43.24,1477.82-43.24z M1477.44-43.26c-0.01,0-0.02-0.01-0.04-0.02
			C1477.41-43.26,1477.43-43.26,1477.44-43.26z M1484.73-29.32c-0.02,0.29-0.37,0.53-0.52,0.76c-0.16,0.24-0.33,0.45-0.55,0.65
			c-0.46,0.42-0.9,0.77-1.49,0.99c-0.45,0.17-0.89,0.23-1.32,0.4c-0.73,0.28-1.65,0.16-2.45,0.06c-1.05-0.14-1.96-0.5-2.85-1.06
			c-0.23-0.14-0.46-0.35-0.66-0.53c-0.08-0.07-0.28-0.38-0.28-0.38c0.03,0.03,0.01-0.09-0.02-0.12c-0.05-0.06-0.23-0.12-0.31-0.23
			c-0.11-0.15-0.25-0.38-0.34-0.55c-1.24-2.37-0.82-6.03,1.47-7.66c1.82-1.29,4.49-1.51,6.56-0.67c0.72,0.29,1.23,0.58,1.8,1.14
			c0.26,0.26,0.49,0.59,0.7,0.89c0.07,0.1,0.15,0.25,0.21,0.36c0.13,0.25,0.05,0.27,0.13,0.51c-0.01-0.02,0.24,0.39,0.21,0.32
			c0.14,0.28,0.18,0.63,0.24,0.93c0.09,0.48,0.11,0.96,0.09,1.44c-0.02,0.45-0.06,0.86-0.17,1.3
			C1485.07-30.32,1484.76-29.76,1484.73-29.32z"/>
	</g>
</g>
<g>
	<path d="M1545.74,190.17c0.34,0.56,0.18,1.15,0.13,1.75c-0.05,0.53-0.04,1.06,0.03,1.59c0.03,0.24,0.27,0.45,0.39,0.65
		c0.61-0.17,0.76-0.59,0.88-1.02c0.15-0.48,0.26-0.98,0.4-1.46c0.08-0.29,0.22-0.55,0.59-0.47c0.27,0.06,0.42,0.45,0.27,0.79
		c-0.2,0.43-0.48,0.82-0.67,1.25c-0.18,0.41-0.47,0.86,0.01,1.31c0.52-0.04,0.75-0.41,0.96-0.8c0.1-0.19,0.15-0.42,0.27-0.61
		c0.18-0.3,0.39-0.58,0.82-0.46c0.22,0.36,0.06,0.63-0.17,0.86c-0.96,0.95-1.45,2.12-1.67,3.43c-0.07,0.4-0.24,0.79-0.42,1.15
		c-0.31,0.6-0.62,0.75-1.23,0.54c-0.45-0.16-0.84-0.17-1.28-0.01c-0.54,0.2-1.02,0.04-1.35-0.41c-0.72-1-1.64-1.74-2.7-2.34
		c-0.14-0.08-0.25-0.19-0.37-0.3c-0.23-0.22-0.35-0.48-0.08-0.73c0.25-0.23,0.52-0.18,0.76,0.05c0.11,0.11,0.21,0.24,0.32,0.35
		c0.18,0.18,0.35,0.37,0.55,0.52c0.68,0.51,1.23,0.32,1.34-0.53c0.07-0.51-0.05-1.06-0.19-1.57c-0.16-0.57-0.46-1.11-0.66-1.67
		c-0.1-0.26-0.17-0.55-0.16-0.82c0-0.14,0.19-0.36,0.32-0.39c0.13-0.03,0.36,0.12,0.44,0.25c0.12,0.21,0.13,0.48,0.2,0.72
		c0.17,0.57,0.33,1.15,0.53,1.71c0.1,0.26,0.28,0.53,0.62,0.48c0.37-0.06,0.54-0.37,0.54-0.69c0.02-0.69,0.02-1.39-0.07-2.08
		c-0.06-0.42-0.01-0.74,0.27-1.04C1545.49,190.17,1545.62,190.17,1545.74,190.17z"/>
	<path d="M1552.54,213.69c0.16-0.68,0.28-1.3,0.45-1.9c0.18-0.61,0.44-1.2,0.96-1.6c0.53-0.41,0.97-0.28,1.13,0.38
		c0.09,0.36,0.13,0.77,0.03,1.11c-0.24,0.88-0.55,1.74-0.86,2.6c-0.13,0.36-0.33,0.68-0.45,1.04c-0.13,0.38-0.24,0.8,0.19,1.22
		c0.37-0.19,0.75-0.38,1.13-0.57c0.12,0.71,0.11,0.72-0.5,1.09c-0.74,0.44-0.92,0.41-1.74-0.27c-1.39,0.9-1.96,0.72-2.31-0.45
		c-0.33-0.12-0.69-0.18-0.94-0.38c-0.22-0.18-0.29-0.53-0.5-0.95c-0.18,0.45-0.32,0.81-0.46,1.17c-0.08,0.21-0.14,0.42-0.23,0.62
		c-0.28,0.66-0.39,0.68-1.04,0.13c-0.58,0.47-1.21,0.68-1.74-0.12c-0.68,0.56-1.34,0.82-2.02,0.14c-1.04,0.54-1.04,0.54-1.81-0.11
		c-0.63,0.48-1.29,0.82-1.99,0.11c-0.12,0.08-0.19,0.13-0.27,0.18c-0.78,0.44-1.21,1.06-1.13,1.99c0.02,0.27-0.1,0.56-0.19,0.83
		c-0.09,0.23-0.21,0.46-0.37,0.66c-0.33,0.4-1.03,0.51-1.48,0.27c-0.37-0.2-0.56-0.75-0.3-1.26c0.28-0.56,0.68-1.06,1.04-1.57
		c0.19-0.27,0.43-0.5,0.64-0.75c-0.04-0.05-0.08-0.1-0.12-0.16c-0.13,0.05-0.26,0.1-0.39,0.14c-0.78,0.18-1.45-0.31-1.37-1.09
		c0.08-0.86,0.39-1.66,1.06-2.26c0.37-0.33,0.78-0.55,1.28-0.21c0.15,0.1,0.35,0.11,0.56,0.17c0.22,0.49,0.1,0.99,0.04,1.48
		c-0.06,0.49-0.13,0.99-0.21,1.62c0.67-0.4,1-0.83,1.22-1.42c0.19-0.49,0.44-0.98,0.77-1.39c0.44-0.54,1.01-0.88,1.73-0.42
		c0.13,0.08,0.29,0.1,0.43,0.15c0.26,0.87-0.43,1.67-0.12,2.58c0.56-0.08,0.82-0.39,0.98-0.89c0.15-0.44,0.36-0.88,0.63-1.26
		c0.56-0.78,1.03-0.89,1.94-0.57c0.12,0.04,0.23,0.08,0.36,0.12c0.3,0.87-0.47,1.71-0.07,2.62c0.63-0.21,1-0.58,1.14-1.18
		c0.11-0.49,0.23-0.98,0.36-1.47c0.04-0.17,0.07-0.16,0.55-0.28c0.02,0.31,0.05,0.62,0.08,1.06c0.2-0.29,0.35-0.5,0.49-0.71
		c0.19-0.28,0.45-0.53,0.78-0.33c0.14,0.09,0.15,0.44,0.17,0.67c0.01,0.22-0.11,0.44-0.08,0.65c0.02,0.16,0.15,0.39,0.29,0.44
		c0.13,0.05,0.34-0.07,0.5-0.15c0.07-0.04,0.11-0.15,0.15-0.23C1551.27,214.29,1551.8,213.82,1552.54,213.69z M1552.58,214.38
		c-0.67,0.39-0.87,0.69-1.06,1.46c-0.07,0.26-0.1,0.5,0.17,0.66c0.31,0.18,0.55,0,0.72-0.23c0.13-0.16,0.26-0.38,0.26-0.58
		C1552.68,215.26,1552.62,214.83,1552.58,214.38z M1541.92,214.3c-0.74,0.32-1.31,1.15-1.24,1.83c0.02,0.16,0.17,0.31,0.26,0.46
		c0.17-0.1,0.42-0.16,0.51-0.31C1541.78,215.68,1541.86,215.01,1541.92,214.3z M1545.78,214.15c-0.94,0.51-1.21,1.18-1.3,1.95
		c-0.02,0.15,0.17,0.37,0.33,0.48c0.06,0.04,0.34-0.13,0.42-0.27C1545.58,215.71,1545.64,215.03,1545.78,214.15z M1554.38,210.82
		c-0.55,0.26-0.48,0.74-0.59,1.09c-0.12,0.36-0.17,0.74-0.21,1.12c-0.04,0.37-0.12,0.76,0.02,1.23
		C1554.33,212.76,1554.55,211.81,1554.38,210.82z M1537.15,216.64c0.61-0.5,0.9-1.46,0.75-2.33
		C1536.93,214.91,1536.62,215.82,1537.15,216.64z M1536.74,220.24c0.71-0.18,0.99-0.77,0.85-1.73
		C1537.12,219.01,1536.75,219.52,1536.74,220.24z"/>
	<path d="M1559.03,207.12c-0.79,0-1.51,0-2.29,0c-0.16,0.37-0.33,0.74-0.51,1.16c-0.84,0.2-1.72,0.02-2.7,0.11
		c-0.11-1.16-0.21-2.23-0.31-3.31c-0.06,0-0.13-0.01-0.19-0.01c-0.38,1.04-0.75,2.09-1.14,3.15c-0.28,0-0.52,0-0.81,0
		c-0.4-1.11-0.79-2.2-1.18-3.29c-0.04,0.01-0.09,0.01-0.13,0.02c-0.1,1.08-0.2,2.16-0.3,3.26c-0.37,0.26-0.77,0.13-1.26,0.12
		c0.02-2.03,0.35-3.98,0.45-5.99c0.51,0,0.94,0,1.47,0c0.41,1.05,0.83,2.13,1.25,3.2c0.06,0,0.12,0.01,0.19,0.01
		c0.42-1.06,0.84-2.11,1.28-3.21c0.44,0,0.87,0,1.37,0c0.38,1.79,0.27,3.66,0.78,5.48c0.74-1.83,1.49-3.66,2.24-5.5
		c0.42,0,0.8,0,1.28,0c0.79,1.95,1.59,3.92,2.41,5.97c-0.29,0.02-0.5,0.06-0.71,0.06c-0.22,0-0.43-0.02-0.69-0.04
		C1559.38,207.93,1559.22,207.56,1559.03,207.12z M1557.93,204.17c-0.37,0.62-0.58,1.12-0.68,1.71c0.42,0,0.81,0,1.32,0
		C1558.36,205.3,1558.18,204.82,1557.93,204.17z"/>
	<path d="M1528.35,208.1c-0.2,0.13-0.36,0.22-0.52,0.33c-0.23-0.16-0.43-0.31-0.66-0.47c0.09-0.18,0.17-0.34,0.28-0.56
		c-0.89-1.38-1.02-2.84,0.1-4.16c1.03-1.21,2.38-1.32,3.77-0.71c0.18-0.14,0.33-0.25,0.5-0.38c0.21,0.16,0.4,0.31,0.64,0.49
		c-0.21,0.38-0.22,0.72,0,1.13c0.66,1.23,0.52,2.68-0.34,3.63c-0.95,1.05-2.14,1.26-3.46,0.81
		C1528.57,208.17,1528.48,208.14,1528.35,208.1z M1530.4,203.75c-0.59-0.39-1.15-0.35-1.62,0.1c-0.57,0.54-0.7,1.47-0.26,2.29
		C1529.16,205.32,1529.78,204.54,1530.4,203.75z M1529.12,206.99c0.8,0.24,1.41,0.19,1.86-0.38c0.5-0.64,0.6-1.36,0.2-2.22
		C1530.5,205.26,1529.85,206.07,1529.12,206.99z"/>
	<path d="M1522.24,208.32c-0.49,0-0.83,0-1.16,0c-0.21-0.63-0.27-4.73-0.07-5.97c0.23-0.02,0.48-0.03,0.72-0.06
		c0.39-0.04,0.64,0.11,0.85,0.45c0.53,0.86,1.09,1.71,1.65,2.55c0.13,0.2,0.3,0.38,0.57,0.73c0-1.33,0-2.46,0-3.66
		c0.46,0,0.84,0,1.27,0c0,1.99,0,3.94,0,5.94c-0.26,0.02-0.47,0.03-0.68,0.06c-0.43,0.06-0.7-0.12-0.93-0.49
		c-0.48-0.78-0.99-1.55-1.49-2.31c-0.19-0.28-0.39-0.56-0.72-0.79C1522.24,205.91,1522.24,207.06,1522.24,208.32z"/>
	<path d="M1561.24,208.36c0-2.08,0-4.02,0-6c0.86,0,1.69-0.11,2.48,0.02c1.38,0.23,2.36,1.53,2.34,2.94
		c-0.02,1.44-0.97,2.61-2.38,2.91c-0.28,0.06-0.56,0.11-0.84,0.12C1562.34,208.37,1561.84,208.36,1561.24,208.36z M1562.56,207.06
		c1.29,0.05,2.03-0.65,2.01-1.79c-0.01-1.14-0.8-1.83-2.01-1.72C1562.56,204.69,1562.56,205.85,1562.56,207.06z"/>
	<path d="M1536.44,205.88c0.63,0.77,1.26,1.55,2.02,2.48c-0.59,0-1,0.04-1.39-0.02c-0.22-0.03-0.45-0.21-0.6-0.39
		c-0.49-0.58-0.94-1.18-1.48-1.88c-0.25,0.78-0.04,1.47-0.18,2.15c-0.37,0.25-0.76,0.13-1.21,0.09c0-1.99,0-3.94,0-5.94
		c0.92-0.15,1.84-0.17,2.73,0c1.3,0.24,1.76,1.96,0.83,2.94C1536.96,205.52,1536.71,205.67,1536.44,205.88z M1534.91,204.92
		c0.97,0.02,1.37-0.27,1.31-0.86c-0.05-0.55-0.46-0.76-1.31-0.66C1534.91,203.88,1534.91,204.37,1534.91,204.92z"/>
	<path d="M1538.92,202.32c0.86,0,1.64-0.03,2.43,0.01c0.73,0.03,1.3,0.38,1.49,1.1c0.2,0.74,0.13,1.45-0.49,2.01
		c-0.16,0.15-0.36,0.26-0.59,0.43c0.63,0.78,1.26,1.55,1.98,2.45c-0.45,0.02-0.75,0.02-1.05,0.05c-0.42,0.05-0.72-0.12-0.96-0.46
		c-0.35-0.49-0.73-0.96-1.1-1.43c-0.09-0.12-0.21-0.21-0.46-0.43c0,0.84,0,1.53,0,2.26c-0.46,0-0.82,0-1.25,0
		C1538.92,206.33,1538.92,204.38,1538.92,202.32z M1540.25,203.33c0,0.58,0,1.08,0,1.59c0.92,0.01,1.29-0.23,1.29-0.78
		C1541.55,203.61,1541.19,203.36,1540.25,203.33z"/>
	<path d="M1566.69,208.33c0-2.03,0-3.96,0-5.88c0.7-0.2,2.26-0.23,3.33-0.06c0,0.32,0,0.65,0,1.05c-0.66,0-1.29,0-1.97,0
		c0,0.44,0,0.8,0,1.25c0.63,0.04,1.24,0.07,1.92,0.11c0.02,0.34,0.04,0.65,0.06,1.06c-0.66,0-1.27,0-1.86,0
		c-0.18,0.6-0.18,0.6-0.06,1.25c0.6,0,1.22,0,1.9,0c0,0.44,0,0.8,0,1.22C1568.88,208.37,1567.79,208.38,1566.69,208.33z"/>
	<path d="M1545.55,206.01c0,0.34,0,0.67,0,1.1c0.65,0,1.27,0,1.96,0c0,0.45,0,0.8,0,1.21c-1.1,0-2.16,0-3.28,0c0-1.99,0-3.93,0-6
		c1.08-0.04,2.14-0.02,3.17-0.01c0.32,0.36,0.13,0.7,0.2,1.11c-0.71,0.03-1.36,0.06-2.05,0.09c0,0.42,0,0.78,0,1.21
		c0.63,0.03,1.22,0.07,1.86,0.1c0.02,0.35,0.04,0.65,0.06,0.99C1546.85,206.08,1546.19,205.79,1545.55,206.01z"/>
</g>
</svg>
