<svg id="post_its" data-name="post its" xmlns="http://www.w3.org/2000/svg" viewBox="0 0 411.23 387.57"><defs><style>.cls-1{fill:#fff;}.cls-1,.cls-2,.cls-3{stroke:#000;stroke-miterlimit:10;}.cls-2{fill:none;}.cls-3{fill:#0f6;}</style></defs><title>postit4</title><path class="cls-1" d="M206.16,347.12H69.2S73,308.48,74.35,268s-.43-74-.17-80.5c.6-14.81,3-41.72,3-41.72S80.13,123.38,91,114.62,140.38,82.19,191.17,73s55.53-8.33,55.53-8.33h93.35c6.3,49.11-4.25,107.57-6.29,147.91s2.22,53.26,3.74,132.36l-131.34,2.21"/><path class="cls-2" d="M91,114.62s24.13-2.61,42.45,12.1c0,0,12.27-34.35,69.18-55.79"/><path class="cls-3" d="M251.74,76.8c.15.51,2.68,9.37-2.62,15.12-3.65,4-8.67,4.26-10.56,4.36a17.86,17.86,0,0,1-13.08-4.61c-4.67-4.45-7.06-12-4.27-18.37a16,16,0,0,1,8.14-7.84,18.65,18.65,0,0,1,9.53-1.15"/><line class="cls-3" x1="215.94" y1="102.93" x2="224.52" y2="90.91"/><line class="cls-3" x1="215.94" y1="102.93" x2="227.52" y2="93.31"/><path class="cls-3" d="M263.08,63.27A11.63,11.63,0,0,1,252,75.41a9,9,0,0,1-1.76-.07c-4.41-.63-10-4.8-10.2-11.2a11.53,11.53,0,1,1,23-.87Z"/><path class="cls-2" d="M227.5,70.64a11.38,11.38,0,0,0,8.1-2.1,12.43,12.43,0,0,0,4.64-7.07"/><path class="cls-2" d="M244.77,86.32c-1.62,1.61-2.08,1.73-2.24,1.62-.68-.48,1.61-7.2,7.27-10.49a35.85,35.85,0,0,1,5.91-2.76"/><path d="M120.21,202.84l-3.68-.19.06-1.2,8.79.44-.06,1.2-3.68-.18-.5,9.93-1.42-.07Z"/><path d="M127.7,201.05l1.41.07-.16,3.29-.18,2h0A4.18,4.18,0,0,1,132,204.9c1.95.1,2.8,1.3,2.69,3.47l-.26,5.13-1.41-.07.25-4.94c.08-1.56-.43-2.32-1.77-2.39-1,0-1.67.41-2.67,1.35l-.29,5.76-1.41-.07Z"/><path d="M137.07,209.48a4.15,4.15,0,0,1,4.43-4.1,3.55,3.55,0,0,1,3.57,4.06,4.52,4.52,0,0,1-.11.84l-7-.35.06-1.08,6.14.3-.37.38c.1-2-.82-3-2.34-3.05a2.92,2.92,0,0,0-3,3.07,3,3,0,0,0,3.07,3.39,4.57,4.57,0,0,0,2.55-.66l.46.94a5.71,5.71,0,0,1-3.24.83A4.18,4.18,0,0,1,137.07,209.48Z"/><path d="M157.31,210.52c.13-2.68,2-4.25,3.95-4.16a3.57,3.57,0,0,1,2.43,1.18h0V206l.16-3.18,1.4.07-.6,12.09-1.15-.06-.07-1.09h-.05a4,4,0,0,1-2.76,1.15C158.52,214.91,157.17,213.27,157.31,210.52Zm6.08,2.21.21-4.11a3.06,3.06,0,0,0-2.11-1.05c-1.43-.08-2.64,1.12-2.74,3s.76,3.18,2.27,3.26A3.11,3.11,0,0,0,163.39,212.73Z"/><path d="M167.63,211a4.16,4.16,0,0,1,4.43-4.1,3.55,3.55,0,0,1,3.57,4.06,4.64,4.64,0,0,1-.11.85l-7-.35,0-1.09,6.15.31-.38.37c.1-2-.82-3-2.33-3a2.9,2.9,0,0,0-3,3.06,3,3,0,0,0,3.06,3.39,4.49,4.49,0,0,0,2.55-.66l.46.94a5.56,5.56,0,0,1-3.24.83A4.19,4.19,0,0,1,167.63,211Z"/><path d="M177.72,214.57l.69-.9a6,6,0,0,0,3.53,1.3c1.39.07,2.1-.48,2.13-1.17s-.27-1.09-2.49-1.66-3.16-1.33-3.1-2.57,1.29-2.28,3.54-2.17a6.12,6.12,0,0,1,3.28,1.22l-.72.86a4.92,4.92,0,0,0-2.73-1c-1.39-.07-1.93.46-2,1.09s.66,1.06,2.34,1.5c2.71.73,3.33,1.44,3.27,2.71s-1.43,2.4-3.79,2.28A7.23,7.23,0,0,1,177.72,214.57Z"/><path d="M192.35,209.26l-3.82-.19.05-1.14,5.23.26-.41,8.25-1.41-.07Zm-.36-4a1.12,1.12,0,1,1,1.06,1.15A1.06,1.06,0,0,1,192,205.27Z"/><path d="M199.71,208.48l1.17.06,0,2h0a4.33,4.33,0,0,1,3.79-2,3.44,3.44,0,0,1,1.61.42l-.38,1.19a4,4,0,0,0-1.51-.35c-1.24-.06-2.44.51-3.52,2.19l-.24,4.82-1.41-.07Z"/><path d="M208.38,213a4.15,4.15,0,0,1,4.43-4.1,3.55,3.55,0,0,1,3.57,4.06,4.64,4.64,0,0,1-.11.85l-7-.35.06-1.09,6.14.31-.37.37c.1-2-.82-3-2.33-3a2.91,2.91,0,0,0-3,3.06,3,3,0,0,0,3.07,3.39,4.49,4.49,0,0,0,2.55-.66l.46.95a5.63,5.63,0,0,1-3.24.82A4.18,4.18,0,0,1,208.38,213Z"/><path d="M231.05,215.1l.2-3.9-2.35-.12L229,210l2.39,0,.32-2.64,1.17.06-.13,2.65,4,.2-.05,1.14-4-.2-.2,3.92c-.07,1.47.38,2.26,2,2.34a5.46,5.46,0,0,0,2-.27l.25,1.05a7.36,7.36,0,0,1-2.61.36C231.66,218.55,231,217.14,231.05,215.1Z"/><path d="M238.81,214.58a4.08,4.08,0,1,1,3.86,4.52A4,4,0,0,1,238.81,214.58Zm6.7.34c.1-1.9-.89-3.23-2.47-3.31s-2.7,1.15-2.79,3,.9,3.19,2.47,3.27S245.42,216.8,245.51,214.92Z"/><path d="M260,211.49l1.15,0,.07,1.06h.05a4.38,4.38,0,0,1,2.91-1.11c2.23.11,3.33,1.82,3.21,4.38-.14,2.8-2,4.36-4,4.26a3.94,3.94,0,0,1-2.41-1.19h0v1.56l-.14,2.79-1.41-.07Zm5.94,4.31c.09-1.82-.53-3.06-2.17-3.14a3.51,3.51,0,0,0-2.47,1.1l-.21,4.11a3.43,3.43,0,0,0,2.14,1.06C264.64,219,265.79,217.84,265.89,215.8Z"/><path d="M269.61,218.1c.09-1.86,1.87-2.67,6.15-2.8a2,2,0,0,0-2.09-2.18,5.88,5.88,0,0,0-2.94.84l-.51-1a7.18,7.18,0,0,1,3.74-1,3.07,3.07,0,0,1,3.2,3.56l-.26,5.06-1.17-.06-.06-1.12h-.05a5.62,5.62,0,0,1-3.31,1.16C270.77,220.5,269.53,219.57,269.61,218.1Zm6,.28.11-2.14c-3.55.09-4.65.74-4.7,1.82s.78,1.35,1.73,1.4A4.5,4.5,0,0,0,275.6,218.38Z"/><path d="M279.59,219.65l.69-.9a5.92,5.92,0,0,0,3.53,1.29c1.39.07,2.1-.47,2.13-1.17s-.27-1.08-2.49-1.65-3.16-1.33-3.1-2.57,1.29-2.29,3.55-2.17a6.19,6.19,0,0,1,3.27,1.21l-.72.87a4.89,4.89,0,0,0-2.73-1c-1.39-.07-1.93.46-2,1.09s.66,1,2.34,1.5c2.71.72,3.34,1.44,3.27,2.71s-1.43,2.4-3.79,2.28A7.31,7.31,0,0,1,279.59,219.65Z"/><path d="M289.78,220.16l.69-.91a5.84,5.84,0,0,0,3.53,1.3c1.39.07,2.1-.47,2.13-1.17s-.27-1.08-2.49-1.65-3.16-1.34-3.1-2.57,1.29-2.29,3.54-2.18a6.29,6.29,0,0,1,3.28,1.22l-.73.87a4.79,4.79,0,0,0-2.72-1c-1.39-.07-1.93.46-2,1.09s.66,1.05,2.34,1.49c2.71.73,3.33,1.45,3.27,2.72s-1.43,2.4-3.79,2.28A7.31,7.31,0,0,1,289.78,220.16Z"/><path d="M118,229.89l.19-3.9-2.34-.12,0-1.05,2.4,0,.32-2.64,1.17.06-.13,2.65,4,.2-.06,1.14-4-.2-.2,3.92c-.07,1.47.39,2.26,2,2.34a5.42,5.42,0,0,0,2-.27l.25,1a7.3,7.3,0,0,1-2.6.36C118.59,233.34,117.88,231.93,118,229.89Z"/><path d="M126.69,221.42l1.41.07-.17,3.3-.18,1.94h0a4.11,4.11,0,0,1,3.16-1.46c1.95.09,2.79,1.29,2.68,3.47l-.25,5.12L132,233.8l.24-4.94c.08-1.56-.43-2.32-1.77-2.38-1,0-1.67.41-2.67,1.35l-.28,5.75-1.41-.07Z"/><path d="M136.16,231.87c.09-1.85,1.87-2.67,6.15-2.79a2,2,0,0,0-2.09-2.18,5.69,5.69,0,0,0-2.94.84l-.51-1a7.28,7.28,0,0,1,3.74-1,3.08,3.08,0,0,1,3.2,3.57l-.26,5.06-1.17-.06-.06-1.13h-.05a5.53,5.53,0,0,1-3.31,1.16C137.32,234.27,136.09,233.34,136.16,231.87Zm6,.28.11-2.14c-3.55.1-4.65.74-4.7,1.83-.05.93.78,1.35,1.73,1.39A4.5,4.5,0,0,0,142.15,232.15Z"/><path d="M148.54,231.41l.19-3.9-2.34-.12.05-1,2.4,0,.32-2.64,1.17.06-.13,2.65,4,.2-.06,1.14-4-.2L150,231.5c-.08,1.48.38,2.27,2,2.34a5.39,5.39,0,0,0,2-.27l.26,1.05a7.13,7.13,0,0,1-2.61.37C149.15,234.86,148.44,233.45,148.54,231.41Z"/><path d="M166.48,231.4a4.09,4.09,0,1,1,3.86,4.52A4.05,4.05,0,0,1,166.48,231.4Zm6.71.34c.09-1.9-.9-3.23-2.48-3.31s-2.69,1.15-2.79,3,.9,3.19,2.48,3.27S173.09,233.62,173.19,231.74Z"/><path d="M177.43,227.8l1.16.06,0,1.39h.06a4.27,4.27,0,0,1,3.19-1.44c2,.09,2.8,1.29,2.69,3.47l-.26,5.12-1.41-.07.25-4.94c.08-1.56-.43-2.32-1.77-2.38-1-.05-1.67.41-2.67,1.34l-.29,5.76-1.41-.07Z"/><path d="M199.47,234l.2-3.9-2.34-.12,0-1.05,2.4,0,.31-2.64,1.18.06-.14,2.65,4.05.2-.06,1.14-4-.2-.2,3.92c-.07,1.48.38,2.26,2,2.34a5.46,5.46,0,0,0,2-.27l.25,1a7.33,7.33,0,0,1-2.6.36C200.08,237.4,199.37,236,199.47,234Z"/><path d="M207.23,233.44a4.09,4.09,0,1,1,3.86,4.51A4.06,4.06,0,0,1,207.23,233.44Zm6.7.33c.1-1.9-.89-3.23-2.47-3.31s-2.69,1.15-2.79,3,.9,3.19,2.48,3.27S213.84,235.65,213.93,233.77Z"/><path d="M230,235.48l.19-3.91-2.34-.12.05-1,2.4,0,.32-2.64,1.17.06-.13,2.64,4,.21-.06,1.13-4-.2-.2,3.92c-.07,1.48.39,2.27,2,2.35a5.64,5.64,0,0,0,2-.28l.25,1.05a7.1,7.1,0,0,1-2.6.37C230.65,238.93,229.94,237.51,230,235.48Z"/><path d="M238.75,227l1.41.07-.17,3.29-.18,1.95h.05a4.18,4.18,0,0,1,3.15-1.46c2,.1,2.8,1.3,2.69,3.47l-.25,5.13-1.41-.07.24-4.94c.08-1.56-.43-2.32-1.77-2.39-1-.05-1.67.41-2.67,1.35l-.29,5.76-1.4-.07Z"/><path d="M248.11,235.44a4.16,4.16,0,0,1,4.43-4.1,3.56,3.56,0,0,1,3.58,4.06,7.24,7.24,0,0,1-.11.84l-7-.34.05-1.09,6.15.3-.38.38c.1-2-.82-3-2.33-3.05a2.92,2.92,0,0,0-3,3.07,3,3,0,0,0,3.06,3.39,4.54,4.54,0,0,0,2.55-.66l.47.94a5.67,5.67,0,0,1-3.24.83A4.19,4.19,0,0,1,248.11,235.44Z"/><path d="M262.64,233.19l-3.82-.19.06-1.14,5.23.26-.41,8.25-1.41-.07Zm-.36-4a1.12,1.12,0,1,1,1.07,1.15A1.06,1.06,0,0,1,262.28,229.2Z"/><path d="M270,232.41l1.17.06,0,2h0a4.33,4.33,0,0,1,3.79-2,3.47,3.47,0,0,1,1.61.42l-.38,1.19a4,4,0,0,0-1.52-.35c-1.24-.06-2.44.51-3.51,2.19l-.24,4.82-1.41-.07Z"/><path d="M114.87,249.26c.13-2.77,2.32-4.24,4.82-4.12a4.2,4.2,0,0,1,2.94,1.36l-.74.86a3.4,3.4,0,0,0-2.21-1,3.16,3.16,0,1,0-.35,6.31,4,4,0,0,0,2.6-.91l.58.95a4.87,4.87,0,0,1-3.34,1.12C116.59,253.67,114.73,252,114.87,249.26Z"/><path d="M125.67,241.8l1.41.07-.16,3.29-.18,2h.05a4.16,4.16,0,0,1,3.15-1.46c1.95.1,2.79,1.3,2.69,3.47l-.26,5.13-1.41-.07.25-4.94c.08-1.56-.43-2.32-1.77-2.39-1,0-1.67.41-2.67,1.35l-.29,5.75-1.41-.07Z"/><path d="M139.38,247.47l-3.82-.19.06-1.14,5.23.26-.41,8.25-1.41-.07Zm-.36-4a1.12,1.12,0,1,1,1.06,1.15A1.06,1.06,0,0,1,139,243.48Z"/><path d="M148.18,252.26l.41-8.18-2.92-.15.05-1.13,4.33.21-.47,9.42a1.5,1.5,0,0,0,1.55,1.78,3.71,3.71,0,0,0,1.56-.29L153,255a5.14,5.14,0,0,1-2.23.38C149,255.28,148.08,254.21,148.18,252.26Z"/><path d="M155.28,251.27c.13-2.68,2-4.26,3.95-4.16a3.53,3.53,0,0,1,2.42,1.18h0v-1.51l.15-3.18,1.41.07-.6,12.09-1.15-.06-.07-1.09h-.05a4,4,0,0,1-2.76,1.15C156.49,255.65,155.14,254,155.28,251.27Zm6.08,2.21.21-4.11a3.06,3.06,0,0,0-2.11-1.05c-1.43-.08-2.64,1.12-2.74,3s.76,3.18,2.27,3.26A3.11,3.11,0,0,0,161.36,253.48Z"/><path d="M167.11,247.71l1.17.06,0,2h0a4.33,4.33,0,0,1,3.79-2,3.47,3.47,0,0,1,1.61.42l-.38,1.19a4,4,0,0,0-1.51-.35c-1.25-.06-2.45.51-3.52,2.19l-.24,4.82L166.7,256Z"/><path d="M175.79,252.26a4.15,4.15,0,0,1,4.42-4.1,3.55,3.55,0,0,1,3.58,4.06,7.24,7.24,0,0,1-.11.84l-7-.35.06-1.08,6.14.3-.37.38c.09-2-.83-3-2.34-3.05a2.92,2.92,0,0,0-3,3.07,3,3,0,0,0,3.07,3.39,4.57,4.57,0,0,0,2.55-.66l.46.94a5.73,5.73,0,0,1-3.24.83A4.18,4.18,0,0,1,175.79,252.26Z"/><path d="M186.6,248.68l1.16.06.05,1.4h.07a4.23,4.23,0,0,1,3.18-1.44c2,.1,2.8,1.29,2.69,3.47l-.26,5.12-1.41-.07.25-4.94c.08-1.56-.43-2.31-1.77-2.38-1-.05-1.67.41-2.67,1.35L187.6,257l-1.41-.07Z"/></svg>