<svg id="post_its" data-name="post its" xmlns="http://www.w3.org/2000/svg" viewBox="0 0 411.35 387.57"><defs><style>.cls-1{fill:#fff;}.cls-1,.cls-2,.cls-3,.cls-4{stroke:#000;stroke-miterlimit:10;}.cls-2{fill:none;}.cls-3{fill:#f0f;}.cls-4{fill:#b3b3b3;}</style></defs><title>postit1</title><path class="cls-1" d="M210.35,60.06,73.5,54.57l-3.32,71.49s-.51,73.53,0,88.34,3.24,41.7,3.24,41.7,2,22.47,12.59,31.66,48,34.38,98.39,45.62,55.15,10.55,55.15,10.55l93.27,3.75c.8-19.41,2.07-47.1,4.09-80.69.69-11.61,1.24-19.91,1.36-21.78,1.76-27.3,3.31-77.93,3.23-177.68l-96.11-5.07"/><path class="cls-2" d="M86,287.76s24,3.58,42.9-10.38c0,0,10.88,34.8,66.89,58.51"/><path class="cls-3" d="M240.73,64.71c.13.51,2.32,9.46-3.18,15-3.8,3.82-8.83,3.92-10.73,4a17.9,17.9,0,0,1-12.89-5.11c-4.5-4.62-6.61-12.28-3.58-18.51a16,16,0,0,1,8.43-7.53,18.55,18.55,0,0,1,9.56-.79"/><line class="cls-4" x1="203.97" y1="89.46" x2="213" y2="77.78"/><line class="cls-4" x1="203.97" y1="89.46" x2="215.9" y2="80.29"/><path class="cls-3" d="M252.57,51.61A11.63,11.63,0,0,1,241,63.32a8.71,8.71,0,0,1-1.75-.13c-4.39-.8-9.78-5.17-9.78-11.58a11.54,11.54,0,1,1,23.07,0Z"/><path class="cls-2" d="M216.74,57.63a11.36,11.36,0,0,0,8.17-1.78,12.46,12.46,0,0,0,4.91-6.9"/><path class="cls-2" d="M233.4,74c-1.67,1.55-2.14,1.65-2.29,1.53-.67-.51,1.88-7.14,7.66-10.21a35.21,35.21,0,0,1,6-2.53"/><path d="M100.33,201.94l1-1.28a5.79,5.79,0,0,0,4.13,1.45c1.88-.12,2.91-1.09,2.84-2.35-.09-1.46-1.19-1.82-2.61-2.32l-2-.75c-1.4-.46-3-1.33-3.18-3.36s1.66-3.76,4.28-3.93a6,6,0,0,1,4.34,1.44l-.86,1.19a4.82,4.82,0,0,0-3.45-1.07c-1.59.1-2.61.92-2.54,2.15s1.39,1.73,2.6,2.11l2,.74c1.74.57,3.14,1.45,3.27,3.48.13,2.18-1.6,4-4.62,4.22A7,7,0,0,1,100.33,201.94Z"/><path d="M113,199.07l-.4-6.33,1.74-.11.38,6.1c.12,1.91.85,2.79,2.53,2.68,1.17-.07,2-.67,3.05-2.06l-.44-7.06,1.73-.11.64,10.18-1.45.09-.25-1.77h-.09a5,5,0,0,1-3.66,2.27C114.36,203.11,113.16,201.75,113,199.07Z"/><path d="M124.77,192l1.38-.09.24,1.34h0a2.52,2.52,0,0,1,2.22-1.73c1-.07,1.67.48,2,1.64.52-1.13,1.11-1.84,2.28-1.91,1.43-.09,2.33,1,2.46,3l.46,7.29-1.72.11-.45-7.17c-.07-1.17-.45-1.76-1.2-1.71s-1.06.59-1.54,1.67l.46,7.38-1.59.1-.45-7.17c-.07-1.17-.4-1.76-1.16-1.71s-1.14.59-1.58,1.67l.47,7.38-1.72.11Z"/><path d="M137.35,191.2l1.38-.09.23,1.33h0a2.55,2.55,0,0,1,2.23-1.74c1-.06,1.67.49,2,1.64.52-1.12,1.1-1.83,2.28-1.91,1.42-.09,2.33,1,2.46,3l.45,7.3-1.72.1-.44-7.16c-.08-1.18-.45-1.76-1.21-1.72s-1.05.6-1.53,1.68L144,201l-1.59.1-.45-7.16c-.07-1.18-.41-1.77-1.16-1.72s-1.14.6-1.58,1.68l.46,7.37-1.72.11Z"/><path d="M150.45,195.47a5.13,5.13,0,0,1,4.86-5.65c2.94-.18,4.77,1.62,4.95,4.49a7.12,7.12,0,0,1,0,1.05l-8.62.54-.08-1.34,7.59-.47-.42.51c-.15-2.41-1.41-3.53-3.28-3.42s-3.43,1.65-3.27,4.18a3.69,3.69,0,0,0,4.23,3.73,5.57,5.57,0,0,0,3-1.15l.7,1.09a7,7,0,0,1-3.87,1.46A5.16,5.16,0,0,1,150.45,195.47Z"/><path d="M164.32,189.51l1.45-.09.31,2.4h0a5.38,5.38,0,0,1,4.38-2.95,4.34,4.34,0,0,1,2,.3l-.31,1.51a5,5,0,0,0-1.91-.22c-1.53.1-2.92,1-4,3.18l.38,6-1.74.11Z"/><path d="M193.12,189.12l-4.71.3-.09-1.41,6.45-.4.64,10.19-1.74.1Zm-1-4.84a1.38,1.38,0,1,1,1.46,1.26A1.31,1.31,0,0,1,192.13,184.28Z"/><path d="M201,187.23l1.42-.09.26,1.71h.08a5.28,5.28,0,0,1,3.71-2.21c2.41-.15,3.61,1.21,3.78,3.89l.39,6.33-1.74.11-.38-6.1c-.12-1.93-.84-2.79-2.5-2.69-1.21.08-2,.74-3.09,2l.44,7.1-1.74.11Z"/><path d="M225.76,182.1l3.39-.21c4.13-.26,6.53,2.05,6.8,6.41s-1.81,7.08-5.85,7.33l-3.48.22Zm4,12.1c3.12-.2,4.54-2.3,4.33-5.78s-1.89-5.27-5-5.08l-1.51.1.68,10.85Z"/><path d="M238.48,190a5.12,5.12,0,0,1,4.86-5.64c2.93-.19,4.77,1.61,4.95,4.48a6,6,0,0,1,0,1.06l-8.61.54-.08-1.35,7.58-.47-.41.51c-.15-2.41-1.42-3.53-3.28-3.41s-3.43,1.64-3.28,4.18a3.71,3.71,0,0,0,4.23,3.73,5.58,5.58,0,0,0,3.05-1.16l.69,1.1A7,7,0,0,1,244.3,195,5.16,5.16,0,0,1,238.48,190Z"/><path d="M251.26,184.09l1.42-.09.26,1.71H253a5.28,5.28,0,0,1,3.71-2.21c2.41-.15,3.61,1.21,3.78,3.89l.39,6.33-1.73.11-.39-6.1c-.12-1.93-.84-2.79-2.5-2.69-1.21.08-2,.74-3.09,2l.44,7.1-1.74.11Z"/><path d="M263.1,183.35l1.38-.09.23,1.33h.05a2.51,2.51,0,0,1,2.22-1.74c1-.06,1.67.49,2,1.64.52-1.12,1.11-1.83,2.28-1.91,1.43-.09,2.33,1,2.46,3l.45,7.3-1.71.1-.45-7.16c-.07-1.18-.45-1.76-1.2-1.72s-1.06.6-1.54,1.68l.46,7.37-1.59.1-.45-7.16c-.07-1.18-.4-1.77-1.16-1.72s-1.14.6-1.58,1.68l.46,7.37-1.71.11Z"/><path d="M276.61,190.08c-.14-2.29,1.92-3.53,7.16-4.28a2.43,2.43,0,0,0-2.87-2.39,7.19,7.19,0,0,0-3.48,1.44l-.77-1.13a8.93,8.93,0,0,1,4.46-1.75c2.79-.17,4.25,1.4,4.41,3.93l.39,6.25-1.45.09-.23-1.38h-.06a6.89,6.89,0,0,1-3.9,1.88C278.36,192.87,276.72,191.9,276.61,190.08Zm7.39-.49-.16-2.64c-4.34.61-5.61,1.55-5.52,2.89.07,1.16,1.15,1.55,2.32,1.48A5.54,5.54,0,0,0,284,189.59Z"/><path d="M290.07,181.66l1.45-.09.32,2.4h0a5.39,5.39,0,0,1,4.38-2.95,4.32,4.32,0,0,1,2,.3l-.31,1.51a5,5,0,0,0-1.9-.22c-1.53.1-2.93,1-4,3.18l.37,6-1.74.11Z"/><path d="M301.52,176.19l1.73-.1.63,10.08H304l5.13-5.69,2-.12L304,188.24l.18,2.77-1.74.1Zm4.51,9.27,1-1.19,5.26,6.23-1.92.12Z"/></svg>