<svg id="post_its" data-name="post its" xmlns="http://www.w3.org/2000/svg" viewBox="0 0 411.23 387.57"><defs><style>.cls-1{fill:#fff;}.cls-1,.cls-2,.cls-3,.cls-4{stroke:#000;stroke-miterlimit:10;}.cls-2{fill:#f0f;}.cls-3{fill:#b3b3b3;}.cls-4{fill:none;}</style></defs><title>postit3</title><path class="cls-1" d="M64,68,330.6,56.28s0,90.14,4.08,143.16S351.53,325.9,351.53,325.9s-39.54,8.77-95,14.8C186.08,345.81,87,354,87,354S46.68,233,64,68Z"/><path class="cls-2" d="M181.93,50.43c.52.07,9.64,1.46,12.67,8.67,2.08,5,.25,9.65-.44,11.42a17.85,17.85,0,0,1-9.63,10c-6,2.4-13.87,1.43-18.48-3.75a16,16,0,0,1-3.75-10.66,18.51,18.51,0,0,1,2.92-9.14"/><line class="cls-3" x1="190.8" y1="93.85" x2="183.44" y2="81.05"/><line class="cls-3" x1="190.8" y1="93.85" x2="186.87" y2="79.32"/><path class="cls-2" d="M174.34,34.49a11.63,11.63,0,0,1,6.43,15.13,8.93,8.93,0,0,1-.79,1.57c-2.41,3.75-8.52,7.07-14.43,4.63a11.54,11.54,0,1,1,8.79-21.33Z"/><path class="cls-4" d="M166.24,69.91a11.34,11.34,0,0,0,1.47-8.23,12.46,12.46,0,0,0-4.5-7.17"/><path class="cls-4" d="M187.69,60.73c.79,2.14.71,2.61.54,2.71-.72.42-5.88-4.46-6.52-11a35.59,35.59,0,0,1-.05-6.51"/><path d="M101.76,175.48l3.46-.38c2.25-.24,4,.39,4.23,2.71s-1.28,3.45-3.53,3.7l-2,.22.51,4.68-1.44.15Zm3.83,4.9c1.72-.19,2.59-1,2.44-2.42s-1.16-1.87-2.89-1.69l-1.82.2.44,4.11Zm1-.1,4,5.45-1.61.17-3.44-4.75Z"/><path d="M112.13,181.39a4.14,4.14,0,0,1,3.72-4.74,3.54,3.54,0,0,1,4.17,3.44,5.16,5.16,0,0,1,0,.85l-7,.76-.11-1.08,6.11-.67-.31.43c-.21-1.95-1.28-2.8-2.78-2.64a2.91,2.91,0,0,0-2.49,3.5,3,3,0,0,0,3.56,2.86,4.38,4.38,0,0,0,2.41-1l.61.86a5.69,5.69,0,0,1-3.07,1.33A4.19,4.19,0,0,1,112.13,181.39Z"/><path d="M121.66,176.22l1.11-.12.24,1.07h0a2.06,2.06,0,0,1,1.74-1.49c.81-.09,1.37.33,1.71,1.25.37-.93.82-1.52,1.77-1.63,1.15-.12,1.92.7,2.1,2.34l.64,5.88-1.39.15-.63-5.78c-.1-.95-.42-1.4-1-1.34s-.83.52-1.18,1.41l.65,6-1.29.14-.63-5.78c-.1-.95-.39-1.41-1-1.34s-.9.52-1.21,1.41l.65,5.95-1.39.15Z"/><path d="M136.26,175.77l-3.8.42-.12-1.14,5.2-.56.9,8.21-1.41.15Zm-1-3.87a1.13,1.13,0,0,1,2.24-.25,1.13,1.13,0,0,1-2.24.25Z"/><path d="M142.53,173.94l1.15-.12.26,1.37H144a4.3,4.3,0,0,1,2.92-1.92c1.95-.21,3,.84,3.2,3l.56,5.1-1.4.16-.54-4.92c-.17-1.55-.79-2.22-2.12-2.08-1,.11-1.59.67-2.43,1.75l.62,5.73-1.4.16Z"/><path d="M152.56,177c-.29-2.67,1.3-4.52,3.24-4.73a3.56,3.56,0,0,1,2.59.78h0l-.23-1.5-.35-3.16,1.41-.15,1.31,12-1.15.12-.24-1.06h0a4,4,0,0,1-2.55,1.58C154.45,181.16,152.85,179.76,152.56,177Zm6.35,1.22-.44-4.08a3.07,3.07,0,0,0-2.25-.72c-1.42.16-2.43,1.53-2.23,3.41s1.26,3,2.76,2.86A3.08,3.08,0,0,0,158.91,178.24Z"/><path d="M175.4,175.44l-.42-3.89-2.33.26-.12-1.05,2.38-.34-.11-2.66,1.17-.13.29,2.64,4-.44.12,1.13-4,.44.43,3.9c.16,1.47.73,2.18,2.32,2a5.48,5.48,0,0,0,1.92-.59l.41,1a7.14,7.14,0,0,1-2.51.77C176.55,178.75,175.62,177.47,175.4,175.44Z"/><path d="M182.67,165.7l1.4-.15.36,3.28.13,1.95h.05a4.12,4.12,0,0,1,2.88-1.94c1.94-.21,3,.84,3.2,3l.56,5.1-1.41.16-.53-4.92c-.17-1.56-.79-2.22-2.13-2.08-1,.11-1.58.67-2.42,1.75l.62,5.73-1.4.16Z"/><path d="M193.25,172.55A4.16,4.16,0,0,1,197,167.8a3.56,3.56,0,0,1,4.17,3.45,5.16,5.16,0,0,1,0,.85l-6.95.76-.12-1.08,6.12-.67-.31.43c-.21-1.95-1.28-2.8-2.79-2.64a2.91,2.91,0,0,0-2.49,3.5,3,3,0,0,0,3.56,2.86,4.38,4.38,0,0,0,2.42-1l.61.86a5.69,5.69,0,0,1-3.07,1.33A4.19,4.19,0,0,1,193.25,172.55Z"/><path d="M213.51,166.21l1.14-.13.24,1h.05a4.37,4.37,0,0,1,2.7-1.56c2.21-.24,3.57,1.27,3.85,3.82.31,2.79-1.27,4.62-3.25,4.84a3.88,3.88,0,0,1-2.56-.8h0l.24,1.55.3,2.77-1.4.15Zm6.55,3.32c-.2-1.81-1-2.94-2.65-2.76a3.52,3.52,0,0,0-2.26,1.48l.44,4.09a3.48,3.48,0,0,0,2.29.71C219.33,172.89,220.28,171.56,220.06,169.53Z"/><path d="M224.09,171.21c-.2-1.84,1.42-2.92,5.63-3.72a2,2,0,0,0-2.41-1.83,5.85,5.85,0,0,0-2.76,1.29l-.66-.88a7.17,7.17,0,0,1,3.54-1.58,3.07,3.07,0,0,1,3.71,3l.55,5-1.17.12-.24-1.1h-.05a5.62,5.62,0,0,1-3.08,1.67C225.61,173.4,224.25,172.68,224.09,171.21Zm6-.67-.23-2.13c-3.49.66-4.47,1.47-4.36,2.55.1.93,1,1.21,1.94,1.1A4.51,4.51,0,0,0,230.05,170.54Z"/><path d="M234.66,163.9l1.17-.12.35,1.92h0a4.37,4.37,0,0,1,3.43-2.55,3.53,3.53,0,0,1,1.66.17l-.19,1.23a4.21,4.21,0,0,0-1.55-.1c-1.23.13-2.33.88-3.12,2.71L237,172l-1.4.15Z"/><path d="M244,167a4.15,4.15,0,0,1,3.72-4.75,3.55,3.55,0,0,1,4.17,3.44,5.25,5.25,0,0,1,0,.86l-7,.75-.12-1.08,6.12-.66-.31.42c-.21-1.94-1.28-2.8-2.79-2.64a2.92,2.92,0,0,0-2.49,3.51,3,3,0,0,0,3.56,2.86,4.56,4.56,0,0,0,2.42-1.05l.61.86a5.75,5.75,0,0,1-3.07,1.32A4.18,4.18,0,0,1,244,167Z"/><path d="M254.06,161.79l1.15-.13.27,1.38h.07a4.27,4.27,0,0,1,2.92-1.93c1.94-.21,3,.84,3.2,3l.55,5.1-1.4.15-.53-4.92c-.17-1.55-.79-2.22-2.13-2.07-1,.1-1.58.67-2.42,1.75l.62,5.73L255,170Z"/><path d="M266.66,165.49l-.42-3.88-2.34.25-.11-1.05,2.37-.34-.1-2.66,1.17-.12.29,2.63,4-.44.12,1.14-4,.43.42,3.91c.16,1.47.74,2.17,2.33,2a5.48,5.48,0,0,0,1.92-.58l.41,1a6.94,6.94,0,0,1-2.51.77C267.81,168.81,266.88,167.52,266.66,165.49Z"/><path d="M274.75,166.75l.54-1a5.94,5.94,0,0,0,3.69.73c1.38-.15,2-.8,1.92-1.49s-.44-1-2.72-1.25-3.33-.81-3.47-2.05.91-2.46,3.16-2.7a6.17,6.17,0,0,1,3.43.69l-.58,1a4.92,4.92,0,0,0-2.85-.56c-1.39.15-1.83.77-1.76,1.39s.82.94,2.54,1.11c2.79.29,3.52.9,3.66,2.17s-1,2.59-3.38,2.84A7.25,7.25,0,0,1,274.75,166.75Z"/><path d="M104.07,202.83a4.09,4.09,0,1,1,4.52,3.85A4,4,0,0,1,104.07,202.83Zm6.67-.73c-.2-1.89-1.39-3-3-2.87s-2.48,1.55-2.27,3.44,1.38,3,3,2.84S111,204,110.74,202.1Z"/><path d="M114.5,197.61l2.37-.35,4.78-.52.12,1.13-7.16.78Zm2.26-1a3,3,0,0,1,2.95-3.69,6.07,6.07,0,0,1,2.42.22l-.21,1.08a4.48,4.48,0,0,0-2-.18,1.88,1.88,0,0,0-1.83,2.37l1,9-1.39.15Z"/><path d="M134.77,195.4l2.38-.35,4.78-.52.12,1.13-7.16.78Zm2.27-1a3,3,0,0,1,3-3.69,6.07,6.07,0,0,1,2.42.22L142.2,192a4.48,4.48,0,0,0-1.95-.18,1.88,1.88,0,0,0-1.83,2.37l1,9-1.38.15Z"/><path d="M145.18,200.33c-.2-1.84,1.42-2.92,5.63-3.72a2,2,0,0,0-2.41-1.83,5.77,5.77,0,0,0-2.76,1.3l-.66-.89a7.21,7.21,0,0,1,3.54-1.58,3.07,3.07,0,0,1,3.71,3l.55,5-1.17.12-.24-1.1h-.05a5.59,5.59,0,0,1-3.08,1.67C146.7,202.53,145.34,201.8,145.18,200.33Zm6-.67-.23-2.13c-3.48.66-4.47,1.47-4.36,2.55.11.93,1,1.21,1.94,1.1A4.48,4.48,0,0,0,151.14,199.66Z"/><path d="M154.29,193.18l1.11-.12.24,1.07h0a2,2,0,0,1,1.74-1.49c.81-.09,1.37.33,1.7,1.25.38-.93.83-1.53,1.78-1.63,1.14-.13,1.92.7,2.1,2.33l.64,5.88-1.39.16-.63-5.78c-.1-.95-.42-1.41-1-1.34s-.84.52-1.18,1.41l.65,5.94-1.29.15-.63-5.78c-.1-.95-.39-1.41-1-1.35s-.9.53-1.21,1.42l.64,5.94-1.38.16Z"/><path d="M168.89,192.74l-3.8.41L165,192l5.2-.57.89,8.21-1.4.16Zm-1-3.88a1.06,1.06,0,0,1,1-1.2,1.08,1.08,0,0,1,1.24,1,1.13,1.13,0,0,1-2.24.24Z"/><path d="M178.34,196.09l-.89-8.15-2.91.32-.12-1.14,4.31-.47,1,9.38a1.5,1.5,0,0,0,1.81,1.52,3.92,3.92,0,0,0,1.49-.54l.47,1a5.09,5.09,0,0,1-2.14.73C179.62,198.94,178.55,198,178.34,196.09Z"/><path d="M186.12,201.43l.16-1.15a2.73,2.73,0,0,0,.76,0,2.41,2.41,0,0,0,2.06-2l.17-.63-4.72-7.82,1.42-.15,2.49,4.31c.4.69.85,1.52,1.27,2.27h.07c.2-.81.43-1.71.62-2.48l1.28-4.72,1.35-.15-2.66,9.28c-.43,1.69-1.3,3-3.17,3.24A3.56,3.56,0,0,1,186.12,201.43Z"/><path d="M205.75,187.66l2.38-.34,4.78-.53.12,1.14-7.16.78Zm2.27-1a3,3,0,0,1,2.95-3.69,6.18,6.18,0,0,1,2.41.21l-.2,1.08a4.68,4.68,0,0,0-2-.18,1.88,1.88,0,0,0-1.82,2.38l1,8.95-1.38.15Z"/><path d="M216.16,192.6c-.2-1.84,1.42-2.93,5.63-3.73a2,2,0,0,0-2.41-1.82,5.66,5.66,0,0,0-2.76,1.29l-.66-.89a7.27,7.27,0,0,1,3.53-1.58,3.08,3.08,0,0,1,3.72,3l.55,5-1.17.13-.24-1.1h0a5.5,5.5,0,0,1-3.08,1.67C217.68,194.79,216.32,194.07,216.16,192.6Zm6-.67-.23-2.13c-3.49.65-4.47,1.46-4.36,2.54.1.93,1,1.21,1.94,1.11A4.48,4.48,0,0,0,222.12,191.93Z"/><path d="M226.73,185.29l1.17-.13.35,1.93h0a4.38,4.38,0,0,1,3.43-2.54,3.4,3.4,0,0,1,1.66.16l-.19,1.24a4,4,0,0,0-1.55-.11c-1.23.14-2.33.89-3.12,2.72l.52,4.8-1.4.15Z"/><path d="M235.4,184.34l1.12-.12.23,1.07h0a2,2,0,0,1,1.73-1.49c.82-.09,1.37.33,1.71,1.25.38-.93.83-1.53,1.78-1.63,1.14-.13,1.92.69,2.1,2.33l.64,5.88-1.39.16-.63-5.78c-.1-.95-.42-1.41-1-1.34s-.84.51-1.18,1.41l.64,5.94-1.28.14-.63-5.77c-.1-.95-.39-1.41-1-1.35s-.9.53-1.22,1.42l.65,5.94-1.38.16Z"/><path d="M106.28,223.11A4.09,4.09,0,1,1,110.8,227,4,4,0,0,1,106.28,223.11Zm6.67-.73c-.2-1.89-1.39-3-3-2.87s-2.48,1.55-2.27,3.44,1.38,3,3,2.84S113.16,224.26,113,222.38Z"/><path d="M116.81,223l-.55-5.1,1.4-.16.54,4.92c.16,1.54.78,2.23,2.14,2.08.94-.11,1.59-.62,2.38-1.79l-.62-5.69,1.41-.15.89,8.21-1.16.13L123,224h-.07a4,4,0,0,1-2.88,2C118.07,226.17,117.05,225.11,116.81,223Z"/><path d="M129.12,221.52l-.42-3.88-2.33.25-.12-1,2.38-.34-.11-2.66,1.17-.12.29,2.63,4-.44.12,1.14-4,.43.43,3.91c.16,1.47.73,2.17,2.32,2a5.48,5.48,0,0,0,1.92-.58l.41,1a6.94,6.94,0,0,1-2.51.77C130.27,224.84,129.34,223.55,129.12,221.52Z"/><path d="M140.68,216.33l-3.8.42-.12-1.14,5.2-.56.9,8.21-1.41.15Zm-1-3.88a1.06,1.06,0,0,1,1-1.2,1.08,1.08,0,0,1,1.24,1,1.12,1.12,0,0,1-2.23.24Z"/><path d="M147,214.5l1.15-.12.26,1.37h.07a4.3,4.3,0,0,1,2.92-1.92c2-.21,3,.84,3.2,3l.56,5.1-1.4.16-.54-4.92c-.17-1.56-.79-2.22-2.12-2.08-1,.11-1.59.67-2.43,1.75l.62,5.73-1.4.16Z"/><path d="M157.79,223.15a2.29,2.29,0,0,1,1.15-2v-.07a1.5,1.5,0,0,1-1-1.26,2,2,0,0,1,.82-1.64v-.07a2.65,2.65,0,0,1-1.25-2,3,3,0,0,1,2.91-3.29,3.33,3.33,0,0,1,1.24.07l3.4-.37.12,1.13-2.13.23a2.53,2.53,0,0,1,.87,1.59,2.89,2.89,0,0,1-2.87,3.16,3.56,3.56,0,0,1-1.42-.15,1.14,1.14,0,0,0-.53,1c.06.64.72.88,1.81.76l1.84-.2c2.11-.23,3.18.2,3.33,1.58.17,1.54-1.46,3.07-4.25,3.37C159.43,225.28,158,224.61,157.79,223.15Zm4.83-7.59a1.9,1.9,0,1,0-1.68,2.15A1.87,1.87,0,0,0,162.62,215.56Zm2.11,6.46c-.09-.78-.74-.93-2-.79l-1.6.17a4.49,4.49,0,0,1-1.27,0c-.73.51-1,1-.9,1.49.1.86,1.09,1.3,2.85,1.11S164.82,222.87,164.73,222Z"/><path d="M167.63,219.46l.54-1a5.87,5.87,0,0,0,3.69.72c1.38-.15,2-.8,1.92-1.49s-.43-1-2.72-1.24-3.33-.82-3.47-2.05.92-2.46,3.16-2.71a6.26,6.26,0,0,1,3.43.69l-.58,1a4.84,4.84,0,0,0-2.85-.56c-1.38.15-1.83.76-1.76,1.39s.82.93,2.55,1.11c2.78.29,3.52.89,3.65,2.16s-1,2.59-3.38,2.85A7.25,7.25,0,0,1,167.63,219.46Z"/><path d="M191.38,210.81l-3.8.41-.12-1.13,5.2-.57.89,8.21-1.4.16Zm-1-3.88a1.12,1.12,0,0,1,2.23-.24,1,1,0,0,1-1,1.2A1.06,1.06,0,0,1,190.39,206.93Z"/><path d="M197.65,209l1.14-.13.27,1.38h.07a4.31,4.31,0,0,1,2.92-1.93c1.94-.21,3,.84,3.2,3l.56,5.11-1.41.15-.53-4.92c-.17-1.55-.79-2.22-2.13-2.07-1,.1-1.58.67-2.42,1.75l.62,5.73-1.4.15Z"/><path d="M218.15,210.92a4.55,4.55,0,0,1,7.24-4l-.6,1a3.39,3.39,0,0,0-2.35-.69,3,3,0,0,0-2.85,3.51,3,3,0,0,0,3.5,2.78,3.92,3.92,0,0,0,2.42-1.31l.73.85a5,5,0,0,1-3.12,1.64C220.55,215,218.45,213.64,218.15,210.92Z"/><path d="M227.65,201.84l1.4-.15.36,3.28.13,1.95h.05a4.1,4.1,0,0,1,2.88-1.94c1.94-.21,3,.84,3.2,3l.56,5.1-1.41.16-.53-4.92c-.17-1.56-.79-2.22-2.13-2.08-1,.11-1.58.67-2.42,1.75l.62,5.73-1.4.16Z"/><path d="M242.08,205.28l-3.8.42-.13-1.14,5.21-.56.89,8.21-1.4.15Zm-1-3.88a1.12,1.12,0,0,1,2.23-.24,1.12,1.12,0,0,1-2.23.24Z"/><path d="M251.52,208.63l-.88-8.15-2.91.32-.12-1.13,4.31-.47,1,9.38a1.49,1.49,0,0,0,1.81,1.51,3.61,3.61,0,0,0,1.49-.54l.47,1a5.09,5.09,0,0,1-2.14.73C252.81,211.48,251.74,210.57,251.52,208.63Z"/><path d="M258.38,206.53c-.29-2.67,1.3-4.52,3.24-4.73a3.52,3.52,0,0,1,2.58.78h0l-.23-1.5-.35-3.16,1.4-.15,1.32,12-1.15.12-.24-1.07h-.05a4,4,0,0,1-2.55,1.58C260.26,210.67,258.67,209.27,258.38,206.53Zm6.35,1.22-.44-4.08A3,3,0,0,0,262,203c-1.42.16-2.43,1.53-2.23,3.41s1.25,3,2.76,2.86A3.11,3.11,0,0,0,264.73,207.75Z"/><path d="M268.21,197.42l1.4-.15.36,3.28.12,1.95h.05a4.14,4.14,0,0,1,2.89-1.94c1.94-.21,3,.84,3.2,3l.55,5.1-1.4.16-.53-4.92c-.17-1.56-.79-2.22-2.13-2.08-1,.11-1.58.67-2.42,1.75l.62,5.73-1.4.16Z"/><path d="M278.66,204.32a4.09,4.09,0,1,1,4.52,3.85A4,4,0,0,1,278.66,204.32Zm6.67-.73c-.21-1.89-1.39-3-3-2.87s-2.48,1.55-2.28,3.45,1.39,3,3,2.84S285.53,205.47,285.33,203.59Z"/><path d="M288.8,203.22a4.09,4.09,0,1,1,4.52,3.85A4,4,0,0,1,288.8,203.22Zm6.67-.73c-.2-1.89-1.39-3.05-3-2.88s-2.48,1.56-2.28,3.45,1.39,3,3,2.84S295.68,204.37,295.47,202.49Z"/><path d="M298.93,202.11c-.29-2.67,1.31-4.52,3.25-4.73a3.53,3.53,0,0,1,2.58.78h0l-.24-1.5-.34-3.16,1.4-.15,1.31,12-1.15.12-.23-1.07h-.05A4,4,0,0,1,303,206C300.82,206.25,299.23,204.85,298.93,202.11Zm6.36,1.22-.44-4.08a3,3,0,0,0-2.25-.72c-1.42.16-2.43,1.53-2.23,3.41s1.25,3,2.76,2.86A3.13,3.13,0,0,0,305.29,203.33Z"/></svg>