<?xml version="1.0" encoding="utf-8"?>
<!-- Generator: Adobe Illustrator 23.0.2, SVG Export Plug-In . SVG Version: 6.00 Build 0)  -->
<svg version="1.1" id="post_its" xmlns="http://www.w3.org/2000/svg" xmlns:xlink="http://www.w3.org/1999/xlink" x="0px" y="0px"
	 viewBox="0 0 411.4 387.6" style="enable-background:new 0 0 411.4 387.6;" xml:space="preserve">
<style type="text/css">
	.st0{fill:#FFFFFF;}
	.st1{fill:none;stroke:#000000;stroke-miterlimit:10;}
	.st2{fill:#FF00FF;stroke:#000000;stroke-miterlimit:10;}
</style>
<title>postit1</title>
<g>
	
		<image style="overflow:visible;opacity:0.75;" width="364" height="385" xlink:href="4377B5AC.png"  transform="matrix(1 0 0 1 39 27.57)">
	</image>
	<g>
		<g>
			<path class="st0" d="M210.4,60.1L73.5,54.6l-3.3,71.5c0,0-0.5,73.5,0,88.3s3.2,41.7,3.2,41.7s2,22.5,12.6,31.7s48,34.4,98.4,45.6
				s55.1,10.5,55.1,10.5l93.3,3.8c0.8-19.4,2.1-47.1,4.1-80.7c0.7-11.6,1.2-19.9,1.4-21.8c1.8-27.3,3.3-77.9,3.2-177.7l-96.1-5.1"/>
		</g>
		<g>
			<path d="M333.3,348.2l-0.5,0l-93.3-3.8c-0.1,0-5.3,0.6-55.2-10.6c-50.7-11.3-88.4-36.8-98.6-45.7c-10.6-9.2-12.7-31.1-12.8-32
				c0-0.3-2.7-27.1-3.2-41.7c-0.5-14.7,0-87.6,0-88.4l3.3-72l137.3,5.5l0,1L74,55.1l-3.3,71c0,0.7-0.5,73.7,0,88.3
				c0.5,14.6,3.2,41.4,3.2,41.7c0,0.2,2.1,22.4,12.4,31.3c10.2,8.8,47.7,34.2,98.2,45.5c49.1,11,54.8,10.6,55,10.5l92.9,3.7
				c1.1-26.6,2.5-53.6,4.1-80.2c0.6-9.8,1.1-17.2,1.3-20.4l0.1-1.4C340,211,341.1,151.4,341,68l-95.6-5l0.1-1l96.6,5.1v0.5
				c0.1,83.6-1,143.4-3.2,177.7l-0.1,1.4c-0.2,3.2-0.7,10.6-1.3,20.4c-1.6,26.8-3,53.9-4.1,80.7L333.3,348.2z"/>
		</g>
	</g>
	<path class="st1" d="M86,287.8c0,0,24,3.6,42.9-10.4c0,0,10.9,34.8,66.9,58.5"/>
	<path class="st2" d="M240.7,64.7c0.1,0.5,2.3,9.5-3.2,15c-3.8,3.8-8.8,3.9-10.7,4c-4.8,0.1-9.5-1.7-12.9-5.1
		c-4.5-4.6-6.6-12.3-3.6-18.5c1.8-3.5,4.8-6.1,8.4-7.5c3.1-1.1,6.4-1.4,9.6-0.8"/>
	<line class="st1" x1="204" y1="89.5" x2="213" y2="77.8"/>
	<line class="st1" x1="204" y1="89.5" x2="215.9" y2="80.3"/>
	<path class="st2" d="M252.6,51.6c0,6.4-5.1,11.7-11.5,11.7c0,0,0,0,0,0c-0.6,0-1.2,0-1.8-0.1c-4.4-0.8-9.8-5.2-9.8-11.6
		c-0.2-6.4,4.8-11.7,11.2-11.9c6.4-0.2,11.7,4.8,11.9,11.2C252.5,51.2,252.5,51.4,252.6,51.6L252.6,51.6z"/>
	<path class="st1" d="M216.7,57.6c2.9,0.5,5.8-0.2,8.2-1.8c2.4-1.7,4.1-4.1,4.9-6.9"/>
	<path class="st1" d="M233.4,74c-1.7,1.6-2.1,1.7-2.3,1.5c-0.7-0.5,1.9-7.1,7.7-10.2c1.9-1,3.9-1.9,6-2.5"/>
	<path d="M100.3,201.9l1-1.3c1.1,1,2.6,1.5,4.1,1.4c1.9-0.1,2.9-1.1,2.8-2.4c-0.1-1.5-1.2-1.8-2.6-2.3l-2-0.8
		c-1.4-0.5-3-1.3-3.2-3.4s1.7-3.8,4.3-3.9c1.6-0.1,3.1,0.4,4.3,1.4l-0.9,1.2c-1-0.8-2.2-1.2-3.4-1.1c-1.6,0.1-2.6,0.9-2.5,2.1
		s1.4,1.7,2.6,2.1l2,0.7c1.7,0.6,3.1,1.4,3.3,3.5c0.1,2.2-1.6,4-4.6,4.2C103.6,203.8,101.8,203.2,100.3,201.9z"/>
	<path d="M113,199.1l-0.4-6.3l1.7-0.1l0.4,6.1c0.1,1.9,0.8,2.8,2.5,2.7c1.2-0.1,2-0.7,3.1-2.1l-0.4-7.1l1.7-0.1l0.6,10.2l-1.4,0.1
		l-0.3-1.8h-0.1c-0.8,1.3-2.2,2.1-3.7,2.3C114.4,203.1,113.2,201.8,113,199.1z"/>
	<path d="M124.8,192l1.4-0.1l0.2,1.3l0,0c0.3-1,1.2-1.7,2.2-1.7c1-0.1,1.7,0.5,2,1.6c0.5-1.1,1.1-1.8,2.3-1.9c1.4-0.1,2.3,1,2.5,3
		l0.5,7.3l-1.7,0.1l-0.4-7.2c-0.1-1.2-0.4-1.8-1.2-1.7s-1.1,0.6-1.5,1.7l0.5,7.4l-1.6,0.1l-0.4-7.2c-0.1-1.2-0.4-1.8-1.2-1.7
		s-1.1,0.6-1.6,1.7l0.5,7.4l-1.7,0.1L124.8,192z"/>
	<path d="M137.4,191.2l1.4-0.1l0.2,1.3l0,0c0.3-1,1.2-1.7,2.2-1.7c1-0.1,1.7,0.5,2,1.6c0.5-1.1,1.1-1.8,2.3-1.9c1.4-0.1,2.3,1,2.5,3
		l0.4,7.3l-1.7,0.1l-0.4-7.2c-0.1-1.2-0.4-1.8-1.2-1.7s-1.1,0.6-1.5,1.7l0.5,7.4l-1.6,0.1l-0.4-7.2c-0.1-1.2-0.4-1.8-1.2-1.7
		s-1.1,0.6-1.6,1.7l0.5,7.4l-1.7,0.1L137.4,191.2z"/>
	<path d="M150.4,195.5c-0.3-2.8,1.8-5.3,4.6-5.6c0.1,0,0.2,0,0.3,0c2.9-0.2,4.8,1.6,4.9,4.5c0,0.3,0,0.7,0,1.1l-8.6,0.5l-0.1-1.3
		l7.6-0.5l-0.4,0.5c-0.1-2.4-1.4-3.5-3.3-3.4s-3.4,1.6-3.3,4.2c0,2,1.6,3.7,3.6,3.8c0.2,0,0.4,0,0.6,0c1.1-0.1,2.1-0.5,3-1.1
		l0.7,1.1c-1.1,0.9-2.5,1.4-3.9,1.5c-2.8,0.3-5.4-1.7-5.8-4.5C150.5,195.8,150.5,195.6,150.4,195.5z"/>
	<path d="M164.3,189.5l1.4-0.1l0.3,2.4l0,0c0.8-1.7,2.5-2.8,4.4-2.9c0.7-0.1,1.4,0,2,0.3l-0.3,1.5c-0.6-0.2-1.3-0.3-1.9-0.2
		c-1.5,0.1-2.9,1-4,3.2l0.4,6l-1.7,0.1L164.3,189.5z"/>
	<path d="M193.1,189.1l-4.7,0.3l-0.1-1.4l6.4-0.4l0.6,10.2l-1.7,0.1L193.1,189.1z M192.1,184.3c-0.1-0.8,0.5-1.4,1.3-1.5
		s1.4,0.5,1.5,1.3c0.1,0.8-0.5,1.4-1.3,1.5c0,0,0,0,0,0C192.9,185.6,192.2,185.1,192.1,184.3C192.1,184.3,192.1,184.3,192.1,184.3
		L192.1,184.3z"/>
	<path d="M201,187.2l1.4-0.1l0.3,1.7h0.1c0.9-1.2,2.2-2,3.7-2.2c2.4-0.1,3.6,1.2,3.8,3.9l0.4,6.3l-1.7,0.1l-0.4-6.1
		c-0.1-1.9-0.8-2.8-2.5-2.7c-1.2,0.1-2,0.7-3.1,2l0.4,7.1l-1.7,0.1L201,187.2z"/>
	<path d="M225.8,182.1l3.4-0.2c4.1-0.3,6.5,2.1,6.8,6.4s-1.8,7.1-5.9,7.3l-3.5,0.2L225.8,182.1z M229.8,194.2
		c3.1-0.2,4.5-2.3,4.3-5.8s-1.9-5.3-5-5.1l-1.5,0.1l0.7,10.9L229.8,194.2z"/>
	<path d="M238.5,190c-0.3-2.8,1.8-5.3,4.6-5.6c0.1,0,0.2,0,0.3,0c2.9-0.2,4.8,1.6,4.9,4.5c0,0.4,0,0.7,0,1.1l-8.6,0.5l-0.1-1.4
		l7.6-0.5l-0.4,0.5c-0.1-2.4-1.4-3.5-3.3-3.4s-3.4,1.6-3.3,4.2c0,2,1.6,3.7,3.7,3.8c0.2,0,0.4,0,0.6,0c1.1-0.1,2.2-0.5,3.1-1.2
		l0.7,1.1c-1.1,0.9-2.5,1.4-3.9,1.4c-2.8,0.4-5.4-1.6-5.8-4.5C238.5,190.4,238.5,190.2,238.5,190z"/>
	<path d="M251.3,184.1l1.4-0.1l0.3,1.7h0.1c0.9-1.2,2.2-2,3.7-2.2c2.4-0.1,3.6,1.2,3.8,3.9l0.4,6.3l-1.7,0.1l-0.4-6.1
		c-0.1-1.9-0.8-2.8-2.5-2.7c-1.2,0.1-2,0.7-3.1,2l0.4,7.1l-1.7,0.1L251.3,184.1z"/>
	<path d="M263.1,183.4l1.4-0.1l0.2,1.3h0c0.3-1,1.2-1.7,2.2-1.7c1-0.1,1.7,0.5,2,1.6c0.5-1.1,1.1-1.8,2.3-1.9c1.4-0.1,2.3,1,2.5,3
		l0.5,7.3l-1.7,0.1l-0.5-7.2c-0.1-1.2-0.5-1.8-1.2-1.7s-1.1,0.6-1.5,1.7l0.5,7.4l-1.6,0.1l-0.5-7.2c-0.1-1.2-0.4-1.8-1.2-1.7
		s-1.1,0.6-1.6,1.7l0.5,7.4l-1.7,0.1L263.1,183.4z"/>
	<path d="M276.6,190.1c-0.1-2.3,1.9-3.5,7.2-4.3c0-1.3-1.1-2.4-2.4-2.4c-0.1,0-0.3,0-0.4,0c-1.3,0.2-2.5,0.7-3.5,1.4l-0.8-1.1
		c1.3-1,2.8-1.6,4.5-1.8c2.8-0.2,4.3,1.4,4.4,3.9l0.4,6.3l-1.5,0.1l-0.2-1.4h-0.1c-1.1,1-2.4,1.7-3.9,1.9
		C278.4,192.9,276.7,191.9,276.6,190.1z M284,189.6l-0.2-2.6c-4.3,0.6-5.6,1.6-5.5,2.9c0.1,1.2,1.1,1.6,2.3,1.5
		C281.9,191.2,283.1,190.5,284,189.6z"/>
	<path d="M290.1,181.7l1.5-0.1l0.3,2.4l0,0c0.8-1.7,2.5-2.8,4.4-2.9c0.7-0.1,1.4,0,2,0.3l-0.3,1.5c-0.6-0.2-1.3-0.3-1.9-0.2
		c-1.5,0.1-2.9,1-4,3.2l0.4,6l-1.7,0.1L290.1,181.7z"/>
	<path d="M301.5,176.2l1.7-0.1l0.6,10.1h0.1l5.1-5.7l2-0.1l-7.1,7.9l0.2,2.8l-1.7,0.1L301.5,176.2z M306,185.5l1-1.2l5.3,6.2
		l-1.9,0.1L306,185.5z"/>
</g>
</svg>
