<svg id="post_its" data-name="post its" xmlns="http://www.w3.org/2000/svg" viewBox="0 0 411.23 387.57"><defs><style>.cls-1{fill:#fff;}.cls-1,.cls-2,.cls-4{stroke:#000;stroke-miterlimit:10;}.cls-2{fill:none;}.cls-3,.cls-4{fill:#0f6;}</style></defs><title>postit2</title><path class="cls-1" d="M201,65.75l136.86-5.49,3.31,71.49s.52,73.53,0,88.34-3.23,41.7-3.23,41.7-2,22.47-12.6,31.66-48,34.39-98.38,45.62-55.15,10.55-55.15,10.55l-93.27,3.75c-.8-19.41-2.07-47.09-4.09-80.68-.7-11.62-1.24-19.91-1.36-21.79C71.32,223.6,69.77,173,69.85,73.22L166,68.15"/><path class="cls-2" d="M325.33,293.45s-24,3.58-42.89-10.38c0,0-10.88,34.81-66.89,58.51"/><path class="cls-3" d="M194.92,57.74c.34.4,6.31,7.43,3.86,14.85-1.69,5.12-6.15,7.45-7.83,8.33a17.83,17.83,0,0,1-13.82,1.19c-6.08-2.12-11.39-8-11.46-15a16,16,0,0,1,4.17-10.5,18.64,18.64,0,0,1,8.2-5"/><path class="cls-2" d="M194.92,57.74c.34.4,6.31,7.43,3.86,14.85-1.69,5.12-6.15,7.45-7.83,8.33a17.83,17.83,0,0,1-13.82,1.19c-6.08-2.12-11.39-8-11.46-15a16,16,0,0,1,4.17-10.5,18.64,18.64,0,0,1,8.2-5"/><line class="cls-4" x1="173.09" y1="96.31" x2="175.95" y2="81.82"/><line class="cls-4" x1="173.09" y1="96.31" x2="179.67" y2="82.77"/><path class="cls-3" d="M199.66,40.73a11.62,11.62,0,0,1-5.09,15.63,8.26,8.26,0,0,1-1.63.67c-4.28,1.25-11.06-.26-13.92-6a11.74,11.74,0,0,1,5.09-15.63A11.62,11.62,0,0,1,199.66,40.73Z"/><path class="cls-2" d="M199.66,40.73a11.62,11.62,0,0,1-5.09,15.63,8.26,8.26,0,0,1-1.63.67c-4.28,1.25-11.06-.26-13.92-6a11.74,11.74,0,0,1,5.09-15.63A11.62,11.62,0,0,1,199.66,40.73Z"/><path class="cls-2" d="M170.29,62.13a11.34,11.34,0,0,0,6.51-5.25,12.44,12.44,0,0,0,1.32-8.36"/><path class="cls-2" d="M192.5,69.29c-.81,2.13-1.18,2.43-1.37,2.39-.82-.15-1.51-7.22,2.29-12.55a34.31,34.31,0,0,1,4.24-5"/><path d="M92.19,196.52a5,5,0,0,1,3.24-4.34l.46,1a3.82,3.82,0,0,0-2.35,3.29l.25,1.58-1-1.42a1.79,1.79,0,0,1,1.31-.56,1.37,1.37,0,0,1,1.28,1.57,1.44,1.44,0,0,1-1.6,1.41C92.76,199,92.07,198,92.19,196.52Z"/><path d="M101.86,193.56l1.69.13-.43,5.47,5.42.43.44-5.46,1.69.13-1,13.08-1.7-.13.49-6.14-5.42-.44-.49,6.14-1.7-.13Z"/><path d="M112.22,211.54l.44-1.29a3.08,3.08,0,0,0,.87.21,2.8,2.8,0,0,0,2.81-1.84l.34-.7L113,197.85l1.67.14,1.93,5.53c.31.89.65,1.94,1,2.91h.08c.42-.89.88-1.87,1.26-2.73l2.53-5.17,1.59.12-5.12,10.15c-.87,1.86-2.17,3.22-4.38,3A3.82,3.82,0,0,1,112.22,211.54Z"/><path d="M124.45,210.31a2.7,2.7,0,0,1,1.77-2v-.08a1.76,1.76,0,0,1-.87-1.68,2.35,2.35,0,0,1,1.3-1.72v-.08a3.1,3.1,0,0,1-1-2.61,3.56,3.56,0,0,1,4.09-3.16,3.89,3.89,0,0,1,1.41.35l4,.32-.11,1.33-2.51-.2a2.93,2.93,0,0,1,.66,2c-.16,2.08-1.92,3.2-4,3a4.23,4.23,0,0,1-1.61-.48,1.31,1.31,0,0,0-.84,1c-.07.76.64,1.18,1.92,1.28l2.17.17c2.5.2,3.64.93,3.51,2.57-.14,1.81-2.36,3.22-5.65,3C125.88,213.13,124.32,212,124.45,210.31Zm8.28.22c.07-.92-.65-1.24-2.12-1.35l-1.9-.15a5.82,5.82,0,0,1-1.46-.28c-1,.42-1.32,1-1.37,1.51-.08,1,1,1.75,3,1.91C131.17,212.35,132.65,211.53,132.73,210.53Zm-1-7.93a2.24,2.24,0,1,0-2.41,2.12A2.2,2.2,0,0,0,131.71,202.6Z"/><path d="M136.42,211.27a2.69,2.69,0,0,1,1.76-2v-.08a1.77,1.77,0,0,1-.87-1.68,2.37,2.37,0,0,1,1.3-1.72v-.08a3.09,3.09,0,0,1-1-2.6,3.57,3.57,0,0,1,4.09-3.17,4,4,0,0,1,1.42.35l4,.32-.1,1.34-2.52-.2a2.85,2.85,0,0,1,.66,2c-.16,2.07-1.91,3.2-4,3a4.25,4.25,0,0,1-1.61-.49,1.32,1.32,0,0,0-.84,1.06c-.06.75.65,1.17,1.92,1.27l2.18.18c2.49.2,3.63.93,3.5,2.56-.14,1.82-2.36,3.23-5.65,3C137.84,214.09,136.28,213,136.42,211.27Zm8.27.21c.07-.91-.65-1.23-2.12-1.35l-1.9-.15a5.12,5.12,0,0,1-1.46-.28c-1,.43-1.32,1-1.36,1.52-.09,1,1,1.74,3,1.91C143.14,213.31,144.61,212.48,144.69,211.48Zm-1-7.92a2.24,2.24,0,1,0-2.41,2.11A2.18,2.18,0,0,0,143.67,203.56Z"/><path d="M148.83,205.57a4.89,4.89,0,0,1,5.35-4.67,4.18,4.18,0,0,1,4.06,4.9,6.61,6.61,0,0,1-.16,1l-8.19-.65.1-1.28,7.22.58-.46.43c.19-2.3-.86-3.53-2.63-3.67s-3.46,1.09-3.66,3.51A3.54,3.54,0,0,0,154,209.8a5.28,5.28,0,0,0,3-.69l.52,1.13a6.72,6.72,0,0,1-3.84.86A4.93,4.93,0,0,1,148.83,205.57Z"/><path d="M164,203.72a3.88,3.88,0,0,0,2.36-3.29l-.27-1.59,1,1.43a1.88,1.88,0,0,1-1.29.54,1.38,1.38,0,0,1-1.3-1.55,1.46,1.46,0,0,1,1.6-1.44c1.06.09,1.72,1,1.6,2.58a5,5,0,0,1-3.21,4.32Z"/><path d="M184.77,210.81c.17-2.17,2.29-3.07,7.32-3.07a2.31,2.31,0,0,0-2.37-2.64,6.88,6.88,0,0,0-3.49.89l-.57-1.17a8.58,8.58,0,0,1,4.44-1c2.65.21,3.83,1.89,3.63,4.3l-.47,6-1.38-.11,0-1.33h-.06a6.56,6.56,0,0,1-3.94,1.26C186,213.68,184.63,212.54,184.77,210.81Zm7,.54.2-2.51c-4.18,0-5.5.7-5.6,2-.09,1.1.88,1.62,2,1.7A5.28,5.28,0,0,0,191.81,211.35Z"/><path d="M199.34,210.71l.37-4.59L197,205.9l.1-1.23,2.82.12.47-3.09,1.38.11-.25,3.11,4.74.38-.1,1.33-4.75-.37-.37,4.6c-.13,1.74.37,2.68,2.25,2.83a6.24,6.24,0,0,0,2.34-.26l.27,1.25a8.67,8.67,0,0,1-3.08.34C199.94,214.79,199.15,213.1,199.34,210.71Z"/><path d="M223.26,212.62l.37-4.59-2.75-.22.1-1.23,2.82.12.46-3.09,1.38.11-.25,3.11,4.75.38-.11,1.33-4.74-.38-.37,4.61c-.14,1.74.37,2.68,2.24,2.83a6.29,6.29,0,0,0,2.35-.26l.26,1.25a8.61,8.61,0,0,1-3.08.34C223.86,216.7,223.07,215,223.26,212.62Z"/><path d="M233.81,203l1.65.14-.31,3.86-.28,2.29h.06a4.86,4.86,0,0,1,3.76-1.61c2.29.18,3.24,1.62,3,4.17l-.48,6-1.66-.14.46-5.8c.15-1.83-.42-2.74-2-2.87-1.16-.09-2,.43-3.19,1.49l-.54,6.76-1.66-.13Z"/><path d="M244.52,213.21a4.89,4.89,0,0,1,5.35-4.67,4.19,4.19,0,0,1,4.07,4.9,6.83,6.83,0,0,1-.16,1l-8.2-.65.1-1.28,7.22.58-.45.42c.18-2.29-.87-3.52-2.64-3.66s-3.46,1.09-3.65,3.5a3.53,3.53,0,0,0,3.49,4.09,5.3,5.3,0,0,0,3-.68l.51,1.13a6.62,6.62,0,0,1-3.84.85A4.93,4.93,0,0,1,244.52,213.21Z"/><path d="M269.52,210.45l2.82.12L278,211l-.11,1.33-8.46-.67Zm2.85-.7c.18-2.35,1.55-3.83,4.22-3.61a7.2,7.2,0,0,1,2.75.78l-.48,1.21a5.07,5.07,0,0,0-2.22-.64c-1.73-.14-2.51.78-2.63,2.33l-.85,10.57-1.63-.13Z"/><path d="M280.46,218.45c.17-2.18,2.29-3.07,7.33-3.07a2.31,2.31,0,0,0-2.38-2.64,6.72,6.72,0,0,0-3.48.89l-.57-1.17a8.46,8.46,0,0,1,4.44-1.05c2.65.21,3.82,1.89,3.63,4.3l-.48,5.94-1.37-.11,0-1.32h-.06a6.52,6.52,0,0,1-3.93,1.25C281.74,221.32,280.32,220.18,280.46,218.45Zm7,.54.2-2.51c-4.17,0-5.49.7-5.6,2-.08,1.09.88,1.61,2,1.7A5.27,5.27,0,0,0,287.5,219Z"/><path d="M294.29,212.33l1.38.11,0,2.3h0a5.14,5.14,0,0,1,4.53-2.19,4.12,4.12,0,0,1,1.89.55l-.5,1.39a4.73,4.73,0,0,0-1.77-.47c-1.45-.11-2.89.52-4.21,2.46l-.45,5.66-1.65-.13Z"/><path d="M304.52,213.14l1.31.11,0,1.29h0a2.41,2.41,0,0,1,2.34-1.34c.95.08,1.51.68,1.7,1.82.64-1,1.29-1.58,2.4-1.49,1.36.11,2.07,1.23,1.92,3.16l-.55,6.94-1.64-.13.54-6.82c.09-1.12-.18-1.72-.9-1.78s-1.07.42-1.67,1.37l-.56,7-1.52-.12.55-6.82c.09-1.12-.15-1.72-.86-1.77s-1.16.41-1.72,1.37l-.56,7-1.64-.14Z"/></svg>