<?xml version="1.0" encoding="utf-8"?>
<!-- Generator: Adobe Illustrator 23.0.2, SVG Export Plug-In . SVG Version: 6.00 Build 0)  -->
<svg version="1.1" id="Layer_1" xmlns="http://www.w3.org/2000/svg" xmlns:xlink="http://www.w3.org/1999/xlink" x="0px" y="0px"
	 viewBox="0 0 1360.8 808.6" style="enable-background:new 0 0 1360.8 808.6;" xml:space="preserve">
<style type="text/css">
	.st0{fill:none;}
	.st1{clip-path:url(#SVGID_2_);}
	.st2{fill:#FFFFFF;}
	.st3{opacity:0.87;}
	.st4{fill:#FF6EFF;}
	.st5{fill:url(#SVGID_3_);}
</style>
<pattern  y="808.6" width="192" height="160" patternUnits="userSpaceOnUse" id="New_Pattern_2" viewBox="0 -171.2 192 160" style="overflow:visible;">
	<g>
		<rect y="-171.2" class="st0" width="192" height="160"/>
		<g>
			<defs>
				<rect id="SVGID_1_" y="-171.2" width="192" height="160"/>
			</defs>
			<clipPath id="SVGID_2_">
				<use xlink:href="#SVGID_1_"  style="overflow:visible;"/>
			</clipPath>
			<g class="st1">
				<path class="st2" d="M140.4-163.8c-7-6.1-7.8-5.7-8.7,3.8c-0.9-9.5-1.7-9.9-8.7-3.8c5.9-7.3,5.5-8.1-3.6-9.1
					c9.1-0.9,9.5-1.8,3.6-9.1c7,6.1,7.8,5.7,8.7-3.8c0.9,9.5,1.7,9.8,8.7,3.8c-5.9,7.3-5.5,8.1,3.6,9.1
					C134.9-172,134.5-171.1,140.4-163.8z"/>
				<g>
					<path class="st2" d="M182.6-159.7h-7.4c0.9,3.1,2,5.1,3.3,5.4l0.4,6.3c-0.5,0-0.9,0.5-0.9,1s0.4,1,1,1s1-0.4,1-1
						c0-0.5-0.4-0.9-0.9-1l0.4-6.3C180.6-154.8,181.7-156.7,182.6-159.7z"/>
					<path class="st2" d="M190.8-190.6c-0.1-1.7-0.2-3.4-0.4-5.1c0-0.2-0.1-0.5-0.3-0.6c-0.1-0.1-0.4,0.1-0.5,0.2
						c-2.3,1.6-4.6,3.3-6.9,4.9c-0.1,0.1-0.3,0.2-0.4,0.3c-0.1-0.3-0.1-0.7-0.2-1h-6.5c-0.1,0.4-0.2,0.8-0.3,1.2
						c-0.1-0.1-0.2-0.2-0.4-0.2c-2.3-1.6-4.6-3.3-6.9-4.9c-0.2-0.1-0.4-0.3-0.5-0.2c-0.1,0.1-0.2,0.4-0.3,0.6
						c-0.1,1.7-0.2,3.4-0.4,5.1c0,0.6,0.1,1.1,0.5,1.6c2,2.4,4,4.9,5.9,7.3c-0.2,1.3-0.3,2.5-0.3,3.8c0,6.9,0.8,13,2,17.2h7.5
						c1.2-4.2,2-10.3,2-17.2c0-1.3-0.1-2.6-0.3-3.9c0,0,0-0.1,0.1-0.1c2-2.5,4-4.9,6-7.4C190.6-189.5,190.8-190,190.8-190.6z"/>
				</g>
			</g>
			<g class="st1">
				<g>
					<g class="st3">
						<circle class="st2" cx="51.5" cy="-172.7" r="9.4"/>
					</g>
					<circle class="st2" cx="51.5" cy="-172.7" r="9.4"/>
				</g>
				<path class="st2" d="M72.7-164.9c0-0.1,0-0.3,0-0.4c-0.5-1.2-1.5-2-2.5-2.8c-2-1.7-4.2-3-6.5-4.3c-0.7-0.4-1.4-0.8-2.1-1.2
					c-0.1,0-0.1-0.1-0.1-0.1c-0.2,0-0.4-0.2-0.5-0.3c0,0-0.1,0-0.1-0.1c-1.4-0.7-2.9-1.4-4.3-2c-2.8-1.2-5.7-2.3-8.6-3.3
					c-0.8-0.3-1.6-0.5-2.4-0.7c-0.2-0.1-0.4-0.1-0.6-0.2c-0.1,0-0.1,0-0.2,0c-1-0.3-1.9-0.5-2.9-0.8c-0.9-0.2-1.8-0.4-2.6-0.6
					c-0.7-0.2-1.4-0.3-2.1-0.4c-0.8-0.2-1.7-0.3-2.5-0.3c-1-0.1-2.1-0.2-3.1,0.1c-0.3,0-0.5,0.2-0.7,0.3c-0.2,0.2-0.2,0.6-0.1,0.9
					c0.1,0.6,0.5,1,0.9,1.4c1,1.1,2.2,2,3.5,2.8c2.1,1.4,4.3,2.6,6.5,3.7c0.1,0,0.2,0.1,0.2,0.2c0.1-0.2,0.1-0.4-0.1-0.5
					c-1.7-0.9-3.4-1.8-5-2.9c-1-0.7-2-1.4-2.8-2.3c-0.4-0.4-0.7-0.9-0.8-1.4c-0.1-0.4,0-0.6,0.4-0.8c0.4-0.3,0.9-0.3,1.4-0.3
					c0.9,0,1.9,0,2.8,0.2c0.9,0.1,1.8,0.3,2.7,0.5c1.7,0.3,3.3,0.8,5,1.2c0.1,0,0.1,0,0.2,0.1c-0.6-0.1-1.1-0.3-1.7-0.4l0,0
					c-2.4-0.6-4.9-1-7.4-1.3c-0.4,0-0.9-0.1-1.4,0c-0.4,0-0.8,0-1.2,0.2c-0.4,0.1-0.5,0.4-0.4,0.8c0.1,0.3,0.2,0.5,0.4,0.7l0,0
					c0,0.1,0.1,0.1,0.1,0.1c0.5,0.7,1.2,1.3,1.9,1.8c1.7,1.3,3.6,2.5,5.5,3.4c0.1,0.1,0.3,0.2,0.4,0.2c0.1-0.1,0-0.3,0.1-0.4
					c0.1-0.2,0-0.3-0.2-0.4c-1.2-0.7-2.4-1.5-3.5-2.4c-0.4-0.4-0.8-0.7-1.1-1.2c-0.1-0.1-0.2-0.3-0.2-0.4c-0.2-0.5,0-0.8,0.5-0.9
					c0.6-0.2,1.1-0.2,1.7-0.1c3.1,0.2,6,1,8.9,1.9c3.4,1,6.7,2.4,9.9,4c1.8,0.9,3.6,1.9,5.2,3c1,0.7,1.9,1.3,2.8,2.2
					c0.3,0.3,0.5,0.6,0.7,0.9c0.2,0.5,0.1,0.8-0.4,0.9c-0.4,0.1-0.9,0.1-1.3,0.1c-1.1,0-2.3-0.2-3.4-0.4c-0.5-0.1-1-0.2-1.4-0.3
					c-0.1,0-0.2,0-0.3,0.1c-0.3,0.4-0.3,0.4,0.2,0.5c0.9,0.3,1.7,0.5,2.6,0.7c0.2,0,0.4,0,0.5,0.1h0.1c0.1-0.1,0.1-0.1,0.1,0h0.1
					c0.2-0.1,0.3,0,0.5,0c0.8,0.1,1.5,0.3,2.2,0.3c0.5,0.1,1,0.1,1.4,0.1c0.6,0,1.2,0,1.8-0.2c0.6-0.1,0.8-0.5,0.5-1
					c-0.2-0.4-0.5-0.7-0.8-1.1c-0.1-0.1-0.2-0.1-0.2-0.3c-0.9-0.8-1.9-1.5-2.9-2.2c-1.6-1.1-3.3-2.1-4.9-3.1c-0.1,0-0.1,0-0.2-0.1
					c-0.1,0-0.1,0-0.2-0.1c0.1,0,0.1,0,0.2,0.1c0.1,0,0.1,0,0.2,0.1c1,0.5,2,1.1,3,1.7c1.8,1.1,3.5,2.1,5.1,3.5
					c0.5,0.4,0.9,0.9,1.2,1.4c0.3,0.6,0.2,1-0.4,1.3c-0.5,0.3-1.1,0.3-1.6,0.3c-1.1,0.1-2.2-0.1-3.3-0.3c-1.9-0.3-3.8-0.8-5.6-1.4
					c-0.2-0.1-0.4,0.2-0.5,0.4c0.4,0,0.7,0.2,1,0.3c2.2,0.6,4.5,1.2,6.8,1.5c1.4,0.2,2.7,0.4,4.1,0.4c0.4,0,0.9,0,1.3-0.2
					C72.3-164.4,72.6-164.5,72.7-164.9z M57.7-174.7c0.2,0.1,0.5,0.2,0.7,0.3C58.2-174.5,57.9-174.6,57.7-174.7z M43.9-179.8
					C43.8-179.8,43.8-179.8,43.9-179.8C43.8-179.8,43.8-179.8,43.9-179.8z M54.1-176.3c-1.1-0.5-2.3-0.9-3.4-1.3
					c-0.5-0.2-0.9-0.3-1.4-0.5c0.5,0.2,0.9,0.3,1.4,0.5C51.8-177.2,52.9-176.8,54.1-176.3z M60.3-173.4L60.3-173.4L60.3-173.4z
					 M60.4-173.4L60.4-173.4L60.4-173.4z"/>
			</g>
			<g class="st1">
				<g>
					<g>
						<g class="st3">
							<circle class="st2" cx="147.5" cy="-92.7" r="9.4"/>
						</g>
						<circle class="st2" cx="147.5" cy="-92.7" r="9.4"/>
					</g>
					<g>
						<path class="st2" d="M168.7-84.9c0-0.1,0-0.3,0-0.4c-0.5-1.2-1.5-2-2.5-2.8c-2-1.7-4.2-3-6.5-4.3c-0.7-0.4-1.4-0.8-2.1-1.2
							c-0.1,0-0.1-0.1-0.1-0.1c-0.2,0-0.4-0.2-0.5-0.3c0,0-0.1,0-0.1-0.1c-1.4-0.7-2.9-1.4-4.3-2c-2.8-1.2-5.7-2.3-8.6-3.3
							c-0.8-0.3-1.6-0.5-2.4-0.7c-0.2-0.1-0.4-0.1-0.6-0.2c-0.1,0-0.1,0-0.2,0c-1-0.3-1.9-0.5-2.9-0.8c-0.9-0.2-1.8-0.4-2.6-0.6
							c-0.7-0.2-1.4-0.3-2.1-0.4c-0.8-0.2-1.7-0.3-2.5-0.3c-1-0.1-2.1-0.2-3.1,0.1c-0.3,0-0.5,0.2-0.7,0.3c-0.2,0.2-0.2,0.6-0.1,0.9
							c0.1,0.6,0.5,1,0.9,1.4c1,1.1,2.3,2,3.5,2.8c2.1,1.4,4.3,2.6,6.5,3.7c0.1,0,0.2,0.1,0.2,0.2c0.1-0.2,0.1-0.4-0.1-0.5
							c-1.7-0.9-3.4-1.8-5-2.9c-1-0.7-2-1.4-2.8-2.3c-0.4-0.4-0.7-0.9-0.8-1.4c-0.1-0.4,0-0.6,0.4-0.8c0.4-0.3,0.9-0.3,1.4-0.3
							c0.9,0,1.9,0,2.8,0.2c0.9,0.1,1.8,0.3,2.7,0.5c1.7,0.3,3.3,0.8,5,1.2c0.1,0,0.1,0,0.2,0.1c-0.6-0.1-1.1-0.3-1.7-0.4l0,0
							c-2.4-0.6-4.9-1-7.4-1.3c-0.4,0-0.9-0.1-1.4,0c-0.4,0-0.8,0-1.2,0.2c-0.4,0.1-0.5,0.4-0.4,0.8c0.1,0.3,0.2,0.5,0.4,0.7l0,0
							c0,0.1,0.1,0.1,0.1,0.1c0.5,0.7,1.2,1.3,1.9,1.8c1.7,1.3,3.6,2.5,5.5,3.4c0.1,0.1,0.3,0.2,0.4,0.2c0.1-0.1,0-0.3,0.1-0.4
							c0.1-0.2,0-0.3-0.2-0.4c-1.2-0.7-2.4-1.5-3.5-2.4c-0.4-0.4-0.8-0.7-1.1-1.2c-0.1-0.1-0.2-0.3-0.2-0.4c-0.2-0.5,0-0.8,0.5-0.9
							c0.6-0.2,1.1-0.2,1.7-0.1c3.1,0.2,6,1,8.9,1.9c3.4,1,6.7,2.4,9.9,4c1.8,0.9,3.6,1.9,5.2,3c1,0.7,1.9,1.3,2.8,2.2
							c0.3,0.3,0.5,0.6,0.7,0.9c0.2,0.5,0.1,0.8-0.4,0.9c-0.4,0.1-0.9,0.1-1.3,0.1c-1.1,0-2.3-0.2-3.4-0.4c-0.5-0.1-1-0.2-1.4-0.3
							c-0.1,0-0.2,0-0.3,0.1c-0.3,0.4-0.3,0.4,0.2,0.5c0.9,0.3,1.7,0.5,2.6,0.7c0.2,0,0.4,0,0.5,0.1h0.1c0.1-0.1,0.1-0.1,0.1,0h0.1
							c0.2-0.1,0.3,0,0.5,0c0.8,0.1,1.5,0.3,2.2,0.3c0.5,0.1,1,0.1,1.4,0.1c0.6,0,1.2,0,1.8-0.2c0.6-0.1,0.8-0.5,0.5-1
							c-0.2-0.4-0.5-0.7-0.8-1.1c-0.1-0.1-0.2-0.1-0.2-0.3c-0.9-0.8-1.9-1.5-2.9-2.2c-1.6-1.1-3.3-2.1-4.9-3.1c-0.1,0-0.1,0-0.2-0.1
							c-0.1,0-0.1,0-0.2-0.1c0.1,0,0.1,0,0.2,0.1c0.1,0,0.1,0,0.2,0.1c1,0.5,2,1.1,3,1.7c1.8,1.1,3.5,2.1,5.1,3.5
							c0.5,0.4,0.9,0.9,1.2,1.4c0.3,0.6,0.2,1-0.4,1.3c-0.5,0.3-1.1,0.3-1.6,0.3c-1.1,0.1-2.2-0.1-3.3-0.3c-1.9-0.3-3.8-0.8-5.6-1.4
							c-0.2-0.1-0.4,0.2-0.5,0.4c0.4,0,0.7,0.2,1,0.3c2.2,0.6,4.5,1.2,6.8,1.5c1.4,0.2,2.7,0.4,4.1,0.4c0.4,0,0.9,0,1.3-0.2
							C168.3-84.4,168.6-84.5,168.7-84.9z M153.7-94.7c0.2,0.1,0.5,0.2,0.7,0.3C154.2-94.5,153.9-94.6,153.7-94.7z M139.9-99.8
							C139.8-99.8,139.8-99.8,139.9-99.8C139.8-99.8,139.8-99.8,139.9-99.8z M150.1-96.3c-1.1-0.5-2.3-0.9-3.4-1.3
							c-0.5-0.2-0.9-0.3-1.4-0.5c0.5,0.2,0.9,0.3,1.4,0.5C147.8-97.2,148.9-96.8,150.1-96.3z M156.3-93.4L156.3-93.4L156.3-93.4z
							 M156.4-93.4L156.4-93.4L156.4-93.4z"/>
						<path d="M156.6-93.3L156.6-93.3L156.6-93.3z"/>
					</g>
				</g>
				<path class="st2" d="M44.4-83.8c-7-6.1-7.8-5.7-8.7,3.8c-0.9-9.5-1.7-9.8-8.7-3.8c5.9-7.3,5.5-8.1-3.6-9.1
					c9.1-0.9,9.5-1.8,3.6-9.1c7,6.1,7.8,5.7,8.7-3.8c0.9,9.5,1.7,9.8,8.7,3.8c-5.9,7.3-5.5,8.1,3.6,9.1C38.9-92,38.5-91.1,44.4-83.8
					z"/>
				<g>
					<polygon class="st2" points="86.2,-112.5 79.6,-112.5 77.2,-116.4 88.5,-116.4 					"/>
					<path class="st2" d="M86.6-79.7h-7.4c0.9,3.1,2,5.1,3.3,5.4l0.4,6.3c-0.5,0-0.9,0.5-0.9,1s0.4,1,1,1s1-0.4,1-1
						c0-0.5-0.4-0.9-0.9-1l0.4-6.3C84.6-74.8,85.7-76.7,86.6-79.7z"/>
					<path class="st2" d="M94.8-110.6c-0.1-1.7-0.2-3.4-0.4-5.1c0-0.2-0.1-0.5-0.3-0.6c-0.1-0.1-0.4,0.1-0.5,0.2
						c-2.3,1.6-4.6,3.3-6.9,4.9c-0.1,0.1-0.3,0.2-0.4,0.3c-0.1-0.3-0.1-0.7-0.2-1h-6.5c-0.1,0.4-0.2,0.8-0.3,1.2
						c-0.1-0.1-0.2-0.2-0.4-0.2c-2.3-1.6-4.6-3.3-6.9-4.9c-0.2-0.1-0.4-0.3-0.5-0.2c-0.1,0.1-0.2,0.4-0.3,0.6
						c-0.1,1.7-0.2,3.4-0.4,5.1c0,0.6,0.1,1.1,0.5,1.6c2,2.4,4,4.9,5.9,7.3c-0.2,1.3-0.3,2.5-0.3,3.8c0,6.9,0.8,13,2,17.2h7.5
						c1.2-4.2,2-10.3,2-17.2c0-1.3-0.1-2.6-0.3-3.9c0,0,0-0.1,0.1-0.1c2-2.5,4-4.9,6-7.4C94.6-109.5,94.8-110,94.8-110.6z"/>
				</g>
			</g>
			<g class="st1">
				<path class="st2" d="M140.4-3.8c-7-6.1-7.8-5.7-8.7,3.8c-0.9-9.5-1.7-9.8-8.7-3.8c5.9-7.3,5.5-8.1-3.6-9.1
					c9.1-0.9,9.5-1.8,3.6-9.1c7,6.1,7.8,5.7,8.7-3.8c0.9,9.5,1.7,9.9,8.7,3.8c-5.9,7.3-5.5,8.1,3.6,9.1
					C134.9-12,134.5-11.1,140.4-3.8z"/>
				<g>
					<polygon class="st2" points="182.2,-32.5 175.6,-32.5 173.2,-36.4 184.5,-36.4 					"/>
					<path class="st2" d="M190.8-30.6c-0.1-1.7-0.2-3.4-0.4-5.1c0-0.2-0.1-0.5-0.3-0.6c-0.1-0.1-0.4,0.1-0.5,0.2
						c-2.3,1.6-4.6,3.3-6.9,4.9c-0.1,0.1-0.3,0.2-0.4,0.3c-0.1-0.3-0.1-0.7-0.2-1h-6.5c-0.1,0.4-0.2,0.8-0.3,1.2
						c-0.1-0.1-0.2-0.2-0.4-0.2c-2.3-1.6-4.6-3.3-6.9-4.9c-0.2-0.1-0.4-0.3-0.5-0.2s-0.2,0.4-0.3,0.6c-0.1,1.7-0.2,3.4-0.4,5.1
						c0,0.6,0.1,1.1,0.5,1.6c2,2.4,4,4.9,5.9,7.3c-0.2,1.3-0.3,2.5-0.3,3.8c0,6.9,0.8,13,2,17.2h7.5c1.2-4.2,2-10.3,2-17.2
						c0-1.3-0.1-2.6-0.3-3.9c0,0,0-0.1,0.1-0.1c2-2.5,4-4.9,6-7.4C190.6-29.5,190.8-30,190.8-30.6z"/>
				</g>
			</g>
			<g class="st1">
				<g>
					<g class="st3">
						<circle class="st2" cx="51.5" cy="-12.7" r="9.4"/>
					</g>
					<circle class="st2" cx="51.5" cy="-12.7" r="9.4"/>
				</g>
				<g>
					<path class="st2" d="M72.7-4.9c0-0.1,0-0.3,0-0.4c-0.5-1.2-1.5-2-2.5-2.8c-2-1.7-4.2-3-6.5-4.3c-0.7-0.4-1.4-0.8-2.1-1.1
						c-0.1,0-0.1-0.1-0.1-0.1c-0.2,0-0.4-0.2-0.5-0.3c0,0-0.1,0-0.1-0.1c-1.4-0.7-2.9-1.4-4.3-2c-2.8-1.2-5.7-2.3-8.6-3.3
						c-0.8-0.3-1.6-0.5-2.4-0.7c-0.2-0.1-0.4-0.1-0.6-0.2c-0.1,0-0.1,0-0.2,0c-1-0.3-1.9-0.5-2.9-0.8c-0.9-0.2-1.8-0.4-2.6-0.6
						c-0.7-0.2-1.4-0.3-2.1-0.4c-0.8-0.2-1.7-0.3-2.5-0.3c-1-0.1-2.1-0.2-3.1,0.1c-0.3,0-0.5,0.2-0.7,0.3c-0.2,0.2-0.2,0.6-0.1,0.9
						c0.1,0.6,0.5,1,0.9,1.4c1,1.1,2.2,2,3.5,2.8c2.1,1.4,4.3,2.6,6.5,3.7c0.1,0,0.2,0.1,0.2,0.2c0.1-0.2,0.1-0.4-0.1-0.5
						c-1.7-0.9-3.4-1.8-5-2.9c-1-0.7-2-1.4-2.8-2.3c-0.4-0.4-0.7-0.9-0.8-1.4c-0.1-0.4,0-0.6,0.4-0.8c0.4-0.3,0.9-0.3,1.4-0.3
						c0.9,0,1.9,0,2.8,0.2c0.9,0.1,1.8,0.3,2.7,0.5c1.7,0.3,3.3,0.8,5,1.2c0.1,0,0.1,0,0.2,0.1c-0.6-0.1-1.1-0.3-1.7-0.4l0,0
						c-2.4-0.6-4.9-1-7.4-1.3c-0.4,0-0.9-0.1-1.4,0c-0.4,0-0.8,0-1.2,0.2c-0.4,0.1-0.5,0.4-0.4,0.8c0.1,0.3,0.2,0.5,0.4,0.7l0,0
						c0,0.1,0.1,0.1,0.1,0.1c0.5,0.7,1.2,1.3,1.9,1.8c1.7,1.3,3.6,2.5,5.5,3.4c0.1,0.1,0.3,0.2,0.4,0.2c0.1-0.1,0-0.3,0.1-0.4
						c0.1-0.2,0-0.3-0.2-0.4c-1.2-0.7-2.4-1.5-3.5-2.4c-0.4-0.4-0.8-0.7-1.1-1.2c-0.1-0.1-0.2-0.3-0.2-0.4c-0.2-0.5,0-0.8,0.5-0.9
						c0.6-0.2,1.1-0.2,1.7-0.1c3.1,0.2,6,1,8.9,1.9c3.4,1.1,6.7,2.4,9.9,4c1.8,0.9,3.6,1.9,5.2,3c1,0.7,1.9,1.3,2.8,2.2
						c0.3,0.3,0.5,0.6,0.7,0.9c0.2,0.5,0.1,0.8-0.4,0.9c-0.4,0.1-0.9,0.1-1.3,0.1c-1.1,0-2.3-0.2-3.4-0.4c-0.5-0.1-1-0.2-1.4-0.3
						c-0.1,0-0.2,0-0.3,0.1c-0.3,0.4-0.3,0.4,0.2,0.5C61-6.2,61.8-6,62.7-5.8c0.2,0,0.4,0,0.5,0.1h0.1c0.1-0.1,0.1-0.1,0.1,0h0.1
						c0.2-0.1,0.3,0,0.5,0c0.8,0.1,1.5,0.3,2.2,0.3c0.5,0.1,1,0.1,1.4,0.1c0.6,0.1,1.2,0,1.8-0.1c0.6-0.1,0.8-0.5,0.5-1
						c-0.2-0.4-0.5-0.7-0.8-1.1c-0.1-0.1-0.2-0.1-0.2-0.3C68-8.6,67-9.3,66-10c-1.6-1.1-3.3-2.1-4.9-3.1c-0.1,0-0.1,0-0.2-0.1
						c-0.1,0-0.1,0-0.2-0.1c0.1-0.1,0.1,0,0.2,0.1c0.1,0,0.1,0,0.2,0.1c1,0.5,2,1.1,3,1.7c1.8,1.1,3.5,2.1,5.1,3.5
						c0.5,0.4,0.9,0.9,1.2,1.4c0.3,0.6,0.2,1-0.4,1.3c-0.5,0.3-1.1,0.3-1.6,0.4c-1.1,0.1-2.2-0.1-3.3-0.3c-1.9-0.3-3.8-0.8-5.6-1.4
						c-0.2-0.1-0.4,0.2-0.5,0.4c0.4,0,0.7,0.2,1,0.3c2.2,0.6,4.5,1.2,6.8,1.5c1.4,0.2,2.7,0.4,4.1,0.4c0.4,0,0.9,0,1.3-0.2
						C72.3-4.4,72.6-4.5,72.7-4.9z M57.7-14.7c0.2,0.1,0.5,0.2,0.7,0.3C58.2-14.5,57.9-14.6,57.7-14.7z M43.9-19.8
						C43.8-19.8,43.8-19.8,43.9-19.8C43.8-19.8,43.8-19.8,43.9-19.8z M54.1-16.3c-1.1-0.5-2.3-0.9-3.4-1.3c-0.5-0.2-0.9-0.3-1.4-0.5
						c0.5,0.2,0.9,0.3,1.4,0.5C51.8-17.2,52.9-16.8,54.1-16.3z M60.3-13.4L60.3-13.4L60.3-13.4z M60.4-13.4L60.4-13.4L60.4-13.4z"/>
					<path d="M60.6-13.3L60.6-13.3L60.6-13.3z"/>
				</g>
			</g>
		</g>
	</g>
</pattern>
<rect y="-4" class="st4" width="1360.8" height="812.6"/>
<g>
	<g>
		<g class="st3">
			<circle class="st2" cx="422.8" cy="-90.4" r="9.4"/>
		</g>
		<g>
			<circle cx="422.8" cy="-90.4" r="9.4"/>
		</g>
	</g>
	<g>
		<path d="M443.2-98.8c-0.4-0.1-0.9-0.2-1.3-0.2c-1.4,0-2.7,0.1-4.1,0.4c-2.3,0.4-4.5,0.9-6.8,1.5c-0.3,0.1-0.7,0.2-1,0.3
			c0,0.2,0.3,0.4,0.5,0.4c1.9-0.6,3.7-1.1,5.6-1.4c1.1-0.2,2.2-0.3,3.3-0.3c0.6,0,1.1,0.1,1.6,0.3c0.6,0.3,0.8,0.7,0.4,1.3
			c-0.3,0.6-0.8,1-1.2,1.4c-1.6,1.4-3.3,2.4-5.1,3.5c-1,0.6-2,1.2-3,1.7c-0.1,0-0.1,0.1-0.2,0.1c0,0.1-0.1,0.1-0.2,0.1
			c0,0,0.1-0.1,0.2-0.1c0-0.1,0.1-0.1,0.2-0.1c1.7-1,3.3-2,4.9-3.1c1-0.7,2-1.3,2.9-2.2c0-0.1,0.1-0.2,0.2-0.3
			c0.3-0.3,0.6-0.7,0.8-1.1c0.3-0.5,0.1-0.9-0.5-1s-1.2-0.2-1.8-0.2c-0.5,0-1,0-1.4,0.1c-0.8,0.1-1.5,0.2-2.2,0.3
			c-0.1,0-0.3,0.1-0.5,0h-0.1c0,0.1-0.1,0.1-0.1,0h-0.1c-0.2,0.1-0.4,0.1-0.5,0.1c-0.9,0.2-1.7,0.4-2.6,0.7
			c-0.5,0.2-0.5,0.1-0.2,0.5c0.1,0.1,0.2,0.1,0.3,0.1c0.5-0.1,1-0.2,1.4-0.3c1.1-0.2,2.3-0.4,3.4-0.4c0.4,0,0.9,0,1.3,0.1
			c0.5,0.1,0.6,0.4,0.4,0.9c-0.2,0.3-0.4,0.6-0.7,0.9c-0.8,0.8-1.8,1.5-2.8,2.2c-1.7,1.1-3.4,2.1-5.2,3c-3.2,1.6-6.5,2.9-9.9,4
			c-2.9,0.9-5.8,1.7-8.9,1.9c-0.6,0-1.1,0-1.7-0.1c-0.5-0.1-0.6-0.4-0.5-0.9c0.1-0.1,0.1-0.3,0.2-0.4c0.3-0.5,0.7-0.8,1.1-1.2
			c1.1-0.9,2.3-1.7,3.5-2.4c0.2-0.1,0.3-0.2,0.2-0.4c0-0.1,0.1-0.3-0.1-0.4c-0.1,0-0.3,0.1-0.4,0.2c-2,1-3.8,2.1-5.5,3.4
			c-0.7,0.5-1.4,1.1-1.9,1.8L405-84l0,0c-0.2,0.2-0.4,0.5-0.4,0.7c-0.1,0.4,0,0.7,0.4,0.8c0.4,0.2,0.8,0.2,1.2,0.2
			c0.5,0,0.9,0,1.4,0c2.5-0.2,4.9-0.7,7.4-1.3l0,0c0.6-0.1,1.1-0.2,1.7-0.4c0,0.1-0.1,0.1-0.2,0.1c-1.6,0.4-3.3,0.9-5,1.2
			c-0.9,0.2-1.8,0.3-2.7,0.5c-0.9,0.1-1.9,0.2-2.8,0.2c-0.5,0-0.9-0.1-1.4-0.3c-0.3-0.2-0.4-0.4-0.4-0.8c0.1-0.6,0.5-1,0.8-1.4
			c0.8-0.9,1.8-1.6,2.8-2.3c1.6-1.1,3.3-2,5-2.9c0.2-0.1,0.3-0.3,0.1-0.5c0,0.1-0.1,0.1-0.2,0.2c-2.2,1.1-4.4,2.3-6.5,3.7
			c-1.3,0.8-2.5,1.7-3.5,2.8c-0.4,0.4-0.8,0.9-0.9,1.4c-0.1,0.3-0.1,0.6,0.1,0.9c0.2,0.2,0.4,0.3,0.7,0.3c1,0.2,2.1,0.1,3.1,0.1
			c0.9-0.1,1.7-0.2,2.5-0.3c0.7-0.1,1.4-0.3,2.1-0.4c0.9-0.2,1.8-0.4,2.6-0.6c1-0.3,1.9-0.5,2.9-0.8c0.1,0,0.1,0,0.2,0
			c0.2-0.1,0.4-0.1,0.6-0.2c0.8-0.3,1.6-0.5,2.4-0.7c2.9-1,5.8-2.1,8.6-3.3c1.5-0.6,2.9-1.3,4.3-2c0,0,0.1,0,0.1-0.1
			c0.2-0.1,0.3-0.2,0.5-0.3c0-0.1,0.1-0.1,0.1-0.1c0.7-0.4,1.4-0.8,2.1-1.2c2.3-1.3,4.5-2.6,6.5-4.3c1-0.8,2-1.6,2.5-2.8
			c0-0.1,0-0.3,0-0.4C443.8-98.5,443.5-98.7,443.2-98.8z M429.7-88.7c-0.2,0.1-0.5,0.2-0.7,0.3C429.2-88.4,429.4-88.6,429.7-88.7z
			 M415.1-83.3L415.1-83.3L415.1-83.3z M421.9-85.4c-0.5,0.2-0.9,0.3-1.4,0.5C421-85.1,421.5-85.3,421.9-85.4
			c1.1-0.4,2.3-0.8,3.4-1.3C424.2-86.3,423.1-85.8,421.9-85.4z M431.5-89.6C431.6-89.6,431.6-89.6,431.5-89.6
			C431.6-89.6,431.6-89.6,431.5-89.6z M431.6-89.7C431.6-89.7,431.7-89.7,431.6-89.7C431.7-89.7,431.6-89.7,431.6-89.7z"/>
		<path d="M431.9-89.7L431.9-89.7L431.9-89.7z"/>
	</g>
</g>
<path d="M323.3-90.2c-9.1,0.9-9.5,1.8-3.6,9.1c-7-6.1-7.9-5.7-8.7,3.8c-0.9-9.5-1.7-9.8-8.7-3.8c5.9-7.3,5.5-8.2-3.6-9.1
	c9.1-0.9,9.5-1.8,3.6-9.1c7,6.1,7.9,5.7,8.7-3.8c0.9,9.5,1.7,9.8,8.7,3.8C313.8-91.9,314.1-91.1,323.3-90.2z"/>
<g>
	<polygon points="363.8,-66.7 352.5,-66.7 354.9,-70.5 361.5,-70.5 	"/>
	<path d="M358.6-108.7l-0.4-6.3c0.5-0.1,0.9-0.5,0.9-1s-0.4-1-1-1s-1,0.4-1,1c0,0.5,0.4,0.9,0.9,1l-0.4,6.3
		c-1.3,0.3-2.4,2.3-3.3,5.4h7.4C361-106.3,359.8-108.3,358.6-108.7z"/>
	<path d="M369.5-74.1c-2-2.5-4-4.9-6-7.4c0,0,0-0.1-0.1-0.1c0.2-1.3,0.3-2.6,0.3-3.9c0-6.9-0.8-13-2-17.2h-7.5
		c-1.2,4.2-2,10.3-2,17.2c0,1.3,0.1,2.6,0.3,3.8c-2,2.4-4,4.9-5.9,7.3c-0.4,0.5-0.5,1-0.5,1.6c0.1,1.7,0.2,3.4,0.4,5.1
		c0,0.2,0.1,0.5,0.3,0.6c0.1,0.1,0.4-0.1,0.5-0.2c2.3-1.6,4.6-3.3,6.9-4.9c0.1-0.1,0.2-0.2,0.4-0.2c0.1,0.4,0.2,0.8,0.3,1.2h6.5
		c0.1-0.3,0.1-0.7,0.2-1c0.1,0.1,0.3,0.2,0.4,0.3c2.3,1.6,4.6,3.3,6.9,4.9c0.2,0.1,0.5,0.3,0.5,0.2c0.1-0.1,0.2-0.4,0.3-0.6
		c0.1-1.7,0.2-3.4,0.4-5.1C370.1-73.1,369.9-73.6,369.5-74.1z"/>
</g>
<pattern  id="SVGID_3_" xlink:href="#New_Pattern_2" patternTransform="matrix(-1 -8.979319e-11 8.979319e-11 -1 -14959.2002 -17471)">
</pattern>
<rect x="0" y="0" class="st5" width="1360.8" height="808.6"/>
</svg>
