<?xml version="1.0" encoding="utf-8"?>
<!-- Generator: Adobe Illustrator 23.0.2, SVG Export Plug-In . SVG Version: 6.00 Build 0)  -->
<svg version="1.1" id="Layer_1" xmlns="http://www.w3.org/2000/svg" xmlns:xlink="http://www.w3.org/1999/xlink" x="0px" y="0px"
	 viewBox="0 0 354.9 1312.1" style="enable-background:new 0 0 354.9 1312.1;" xml:space="preserve">
<style type="text/css">
	.st0{fill:none;}
	.st1{clip-path:url(#SVGID_2_);fill:#FFFFFF;}
	.st2{clip-path:url(#SVGID_2_);}
	.st3{opacity:0.87;}
	.st4{fill:#FFFFFF;}
	.st5{fill:#FF6EFF;}
	.st6{fill:url(#SVGID_3_);}
</style>
<pattern  y="1312.1" width="101" height="82" patternUnits="userSpaceOnUse" id="New_Pattern" viewBox="0 -87 101 82" style="overflow:visible;">
	<g>
		<rect y="-87" class="st0" width="101" height="82"/>
		<g>
			<defs>
				<rect id="SVGID_1_" y="-87" width="101" height="82"/>
			</defs>
			<clipPath id="SVGID_2_">
				<use xlink:href="#SVGID_1_"  style="overflow:visible;"/>
			</clipPath>
			<path class="st1" d="M95.3-90.2h-4.4c0.5,1.9,1.2,3.1,2,3.2l0.2,3.8c-0.3,0.1-0.5,0.3-0.5,0.6c0,0.4,0.2,0.6,0.6,0.6
				s0.6-0.3,0.6-0.6c0-0.3-0.3-0.5-0.6-0.6l0.2-3.8C94.2-87.2,94.9-88.4,95.3-90.2z"/>
			<g class="st2">
				<g>
					<g>
						<g class="st3">
							<circle class="st4" cx="81.5" cy="-56.9" r="5.6"/>
						</g>
						<circle class="st4" cx="81.5" cy="-56.9" r="5.6"/>
					</g>
					<g>
						<path class="st4" d="M94-52.2c0-0.1,0-0.2,0-0.2c-0.3-0.7-0.9-1.2-1.5-1.7c-1.2-1-2.5-1.8-3.9-2.6c-0.4-0.2-0.8-0.5-1.3-0.7
							c0,0-0.1,0-0.1-0.1c-0.1-0.1-0.2-0.1-0.3-0.2c0-0.1-0.1-0.1-0.1-0.1c-0.8-0.4-1.7-0.8-2.6-1.2c-1.7-0.7-3.4-1.4-5.2-2
							c-0.5-0.1-1-0.2-1.4-0.4c-0.1-0.1-0.2-0.1-0.4-0.1c-0.1,0-0.1,0-0.1,0c-0.6-0.2-1.1-0.3-1.7-0.5c-0.5-0.1-1-0.2-1.6-0.4
							c-0.4-0.1-0.8-0.2-1.3-0.2c-0.5-0.1-1-0.1-1.5-0.2c-0.6,0-1.3-0.1-1.9,0.1c-0.2,0-0.3,0.1-0.4,0.2c-0.1,0.2-0.1,0.4-0.1,0.5
							c0.1,0.3,0.3,0.6,0.5,0.8c0.6,0.7,1.3,1.2,2.1,1.7c1.3,0.8,2.6,1.6,3.9,2.2c0.1,0.1,0.1,0.1,0.1,0.1c0.1-0.1,0.1-0.2-0.1-0.3
							c-1-0.5-2-1.1-3-1.7c-0.6-0.4-1.2-0.8-1.7-1.4c-0.2-0.2-0.4-0.5-0.5-0.8c0-0.2,0.1-0.4,0.2-0.5c0.3-0.1,0.5-0.2,0.8-0.2
							c0.5,0,1.1,0.1,1.7,0.1c0.5,0.1,1.1,0.2,1.6,0.3c1,0.2,2,0.5,3,0.7c0.1,0,0.1,0,0.1,0.1c-0.4-0.1-0.7-0.2-1-0.2l0,0
							c-1.5-0.4-2.9-0.7-4.4-0.8c-0.3,0-0.5,0-0.8,0c-0.2,0-0.5,0-0.7,0.1s-0.3,0.2-0.2,0.5c0,0.1,0.1,0.3,0.2,0.4l0,0l0.1,0.1
							c0.3,0.4,0.7,0.8,1.1,1.1c1,0.8,2.1,1.4,3.3,2c0.1,0.1,0.2,0.1,0.2,0.1c0.1-0.1,0.1-0.2,0.1-0.2c0.1-0.1,0-0.2-0.1-0.2
							c-0.7-0.4-1.4-0.9-2.1-1.4c-0.2-0.2-0.5-0.4-0.7-0.7c-0.1-0.1-0.1-0.2-0.1-0.2c-0.1-0.3,0-0.5,0.3-0.5c0.4-0.1,0.7-0.1,1-0.1
							c1.9,0.1,3.6,0.6,5.3,1.1c2,0.7,4,1.4,5.9,2.4c1.1,0.5,2.1,1.1,3.1,1.8c0.6,0.4,1.2,0.8,1.7,1.3c0.2,0.2,0.3,0.4,0.4,0.5
							c0.1,0.3,0.1,0.5-0.2,0.5c0.2,0.1-0.1,0.1-0.3,0.1c-0.7,0-1.4-0.1-2-0.2c-0.2-0.1-0.5-0.1-0.8-0.2c-0.1,0-0.1,0-0.2,0.1
							c-0.2,0.2-0.2,0.2,0.1,0.3c0.5,0.2,1,0.3,1.6,0.4c0.1,0,0.2,0,0.3,0.1h0.1c0-0.1,0.1-0.1,0.1,0h0.1c0.1-0.1,0.2,0,0.3,0
							c0.4,0.1,0.8,0.1,1.3,0.2c0.2,0.1,0.5,0.1,0.8,0.1c0.4,0,0.7-0.1,1.1-0.1c0.4-0.1,0.5-0.3,0.3-0.6c-0.1-0.2-0.3-0.5-0.5-0.7
							c-0.1-0.1-0.1-0.1-0.1-0.2c-0.5-0.5-1.1-0.9-1.7-1.3C89-56,88-56.6,87-57.2c-0.1,0-0.1,0-0.1-0.1c-0.1,0-0.1-0.1-0.1-0.1
							c0.1,0,0.1,0,0.1,0.1c0.1,0,0.1,0.1,0.1,0.1c0.6,0.3,1.2,0.7,1.8,1c1.1,0.7,2.1,1.3,3.1,2.1c0.2,0.2,0.5,0.5,0.7,0.8
							c0.2,0.4,0.1,0.6-0.2,0.8c-0.3,0.1-0.6,0.2-1,0.2c-0.7,0-1.3-0.1-2-0.2c-1.1-0.2-2.2-0.5-3.4-0.8c-0.1,0-0.3,0.1-0.3,0.2
							c0.2,0.1,0.4,0.1,0.6,0.2c1.4,0.4,2.7,0.7,4.1,0.9c0.8,0.2,1.6,0.2,2.5,0.2c0.2,0,0.5-0.1,0.8-0.1C93.9-52,94-52.1,94-52.2z
							 M85.2-58.1c0.1,0.1,0.3,0.1,0.4,0.2C85.4-58,85.3-58.1,85.2-58.1z M76.8-61.2L76.8-61.2L76.8-61.2z M83-59.2
							c-0.7-0.3-1.4-0.5-2-0.8c-0.2-0.1-0.5-0.2-0.8-0.3c0.3,0.1,0.5,0.2,0.8,0.3C81.6-59.7,82.3-59.4,83-59.2z M86.7-57.4
							L86.7-57.4L86.7-57.4z M86.7-57.4C86.8-57.4,86.7-57.4,86.7-57.4S86.8-57.4,86.7-57.4z"/>
						<path d="M86.9-57.4L86.9-57.4L86.9-57.4z"/>
					</g>
				</g>
				<path class="st4" d="M19.6-51.6c-4.2-3.6-4.7-3.4-5.2,2.3c-0.5-5.7-1-5.9-5.2-2.3c3.5-4.4,3.3-4.9-2.2-5.5
					c5.5-0.5,5.7-1.1,2.2-5.5c4.2,3.6,4.7,3.4,5.2-2.3c0.5,5.7,1,5.9,5.2,2.3c-3.5,4.4-3.3,4.9,2.2,5.5C16.2-56.5,16.1-56,19.6-51.6
					z"/>
				<g>
					<polygon class="st4" points="44.7,-68.9 40.7,-68.9 39.3,-71.2 46.1,-71.2 					"/>
					<path class="st4" d="M44.8-49.2h-4.4c0.5,1.9,1.2,3.1,2,3.2l0.2,3.8c-0.3,0.1-0.5,0.3-0.5,0.6c0,0.4,0.2,0.6,0.6,0.6
						s0.6-0.3,0.6-0.6s-0.3-0.5-0.6-0.6l0.2-3.8C43.7-46.2,44.4-47.4,44.8-49.2z"/>
					<path class="st4" d="M49.8-67.7c-0.1-1-0.2-2-0.2-3.1c-0.1-0.1-0.1-0.3-0.2-0.4c0-0.1-0.2,0.1-0.3,0.1c-1.4,1-2.8,2-4.1,2.9
						c-0.1,0.1-0.2,0.1-0.2,0.2c-0.1-0.2-0.1-0.4-0.1-0.6h-3.9c-0.1,0.2-0.1,0.5-0.2,0.7c-0.1,0-0.2-0.1-0.2-0.1
						c-1.4-1-2.8-2-4.1-2.9C36.2-71,36.1-71.1,36-71c-0.1,0.1-0.2,0.2-0.2,0.4c-0.1,1-0.2,2-0.2,3.1c0,0.4,0.1,0.7,0.3,1
						c1.1,1.4,2.3,2.9,3.5,4.4c-0.1,0.7-0.2,1.5-0.2,2.3c0,4.1,0.5,7.8,1.2,10.3h4.5c0.7-2.5,1.2-6.2,1.2-10.3
						c0-0.8-0.1-1.6-0.2-2.3c0.1,0,0.1-0.1,0.1-0.1c1.2-1.5,2.4-2.9,3.6-4.4C49.7-67,49.8-67.3,49.8-67.7z"/>
				</g>
			</g>
			<g class="st2">
				<path class="st4" d="M70.1-10.6c-4.2-3.6-4.7-3.4-5.2,2.3c-0.5-5.7-1-5.9-5.2-2.3c3.5-4.4,3.3-4.9-2.2-5.5
					c5.5-0.5,5.7-1.1,2.2-5.5c4.2,3.6,4.7,3.4,5.2-2.3c0.5,5.7,1,5.9,5.2,2.3c-3.5,4.4-3.3,4.9,2.2,5.5C66.7-15.5,66.6-15,70.1-10.6
					z"/>
				<g>
					<polygon class="st4" points="95.2,-27.9 91.2,-27.9 89.8,-30.2 96.6,-30.2 					"/>
					<path class="st4" d="M95.3-8.2h-4.4c0.5,1.9,1.2,3.1,2,3.2l0.2,3.8c-0.3,0.1-0.5,0.3-0.5,0.6c0,0.4,0.2,0.6,0.6,0.6
						s0.6-0.3,0.6-0.6c0-0.3-0.2-0.5-0.5-0.6L93.5-5C94.2-5.2,94.9-6.4,95.3-8.2z"/>
					<path class="st4" d="M100.3-26.7c-0.1-1-0.2-2-0.2-3.1c-0.1-0.1-0.1-0.3-0.2-0.4c0-0.1-0.2,0.1-0.3,0.1c-1.4,1-2.8,2-4.1,2.9
						c-0.1,0.1-0.2,0.1-0.2,0.2c-0.1-0.2-0.1-0.4-0.1-0.6h-3.9c-0.1,0.2-0.1,0.5-0.2,0.7c-0.1,0-0.2-0.1-0.2-0.1
						c-1.4-1-2.8-2-4.1-2.9c-0.1-0.1-0.2-0.2-0.3-0.1c-0.1,0.1-0.2,0.2-0.2,0.4c-0.1,1-0.2,2-0.2,3.1c0,0.4,0.1,0.7,0.3,1
						c1.1,1.4,2.3,2.9,3.5,4.4c-0.1,0.7-0.2,1.5-0.2,2.3c0,4.1,0.5,7.8,1.2,10.3h4.5c0.7-2.5,1.2-6.2,1.2-10.3
						c0-0.8-0.1-1.6-0.2-2.3c0.1,0,0.1-0.1,0.1-0.1c1.2-1.5,2.4-2.9,3.6-4.4C100.2-26,100.3-26.3,100.3-26.7z"/>
				</g>
			</g>
			<g class="st2">
				<g>
					<g class="st3">
						<circle class="st4" cx="31" cy="-15.9" r="5.6"/>
					</g>
					<circle class="st4" cx="31" cy="-15.9" r="5.6"/>
				</g>
				<g>
					<path class="st4" d="M43.5-11.2c0-0.1,0-0.2,0-0.2c-0.3-0.7-0.9-1.2-1.5-1.7c-1.2-1-2.5-1.8-3.9-2.6c-0.4-0.2-0.8-0.5-1.3-0.7
						c0,0-0.1,0-0.1-0.1c-0.1-0.1-0.2-0.1-0.3-0.2c0-0.1-0.1-0.1-0.1-0.1c-0.8-0.4-1.7-0.8-2.6-1.2c-1.7-0.7-3.4-1.4-5.2-2
						c-0.5-0.1-1-0.2-1.4-0.4c-0.1-0.1-0.2-0.1-0.4-0.1c-0.1,0-0.1,0-0.1,0c-0.6-0.2-1.1-0.3-1.7-0.5c-0.5-0.1-1-0.2-1.6-0.4
						c-0.4-0.1-0.8-0.2-1.3-0.2c-0.5-0.1-1-0.1-1.5-0.2c-0.6,0-1.3-0.1-1.9,0.1c-0.2,0-0.3,0.1-0.4,0.2c-0.1,0.2-0.1,0.4-0.1,0.5
						c0.1,0.3,0.3,0.6,0.5,0.8c0.6,0.7,1.3,1.2,2.1,1.7c1.3,0.8,2.6,1.6,3.9,2.2c0.1,0.1,0.1,0.1,0.1,0.1c0.1-0.1,0.1-0.2-0.1-0.3
						c-1-0.5-2-1.1-3-1.7c-0.6-0.4-1.2-0.8-1.7-1.4c-0.2-0.2-0.4-0.5-0.5-0.8c0-0.2,0.1-0.4,0.2-0.5c0.3-0.1,0.5-0.2,0.8-0.2
						c0.5,0,1.1,0.1,1.7,0.1c0.5,0.1,1.1,0.2,1.6,0.3c1,0.2,2,0.5,3,0.7c0.1,0,0.1,0,0.1,0.1c-0.4-0.1-0.7-0.2-1-0.2l0,0
						c-1.5-0.4-2.9-0.7-4.4-0.8c-0.3,0-0.5,0-0.8,0c-0.2,0-0.5,0-0.7,0.1c0.1,0.2,0.1,0.4,0.1,0.6c0,0.1,0.1,0.3,0.2,0.4l0,0
						l0.1,0.1c0.3,0.4,0.7,0.8,1.1,1.1c1,0.8,2.1,1.4,3.3,2c0.1,0.1,0.2,0.1,0.2,0.1c0.1-0.1,0.1-0.2,0.1-0.2c0.1-0.1,0-0.2-0.1-0.2
						c-0.7-0.4-1.4-0.9-2.1-1.4c-0.2-0.2-0.5-0.4-0.7-0.7C22-19.1,22-19.2,22-19.2c-0.1-0.3,0-0.5,0.3-0.5c0.4-0.1,0.7-0.1,1-0.1
						c1.9,0.1,3.6,0.6,5.3,1.1c2,0.7,4,1.4,5.9,2.4c1.1,0.5,2.1,1.1,3.1,1.8c0.6,0.4,1.2,0.8,1.7,1.3c0.2,0.2,0.3,0.4,0.4,0.5
						c0.1,0.3,0.1,0.5-0.2,0.5c-0.1,0-0.4,0-0.6,0c-0.7,0-1.4-0.1-2-0.2c-0.2-0.1-0.5-0.1-0.8-0.2c-0.1,0-0.1,0-0.2,0.1
						c-0.2,0.2-0.2,0.2,0.1,0.3c0.5,0.2,1,0.3,1.6,0.4c0.1,0,0.2,0,0.3,0.1H38c0-0.1,0.1-0.1,0.1,0H38c0.1-0.1,0.2,0,0.3,0
						c0.4,0.1,0.8,0.1,1.3,0.2c0.2,0.1,0.5,0.1,0.8,0.1c0.4,0,0.7-0.1,1.1-0.1c0.4-0.1,0.5-0.3,0.3-0.6c-0.1-0.2-0.3-0.5-0.5-0.7
						c-0.1-0.1-0.1-0.1-0.1-0.2c-0.5-0.5-1.1-0.9-1.7-1.3c-1-0.7-1.9-1.3-2.9-1.9c-0.1,0-0.1,0-0.1-0.1c-0.1,0-0.1-0.1-0.1-0.1
						c0.1,0,0.1,0,0.1,0.1c0.1,0,0.1,0.1,0.1,0.1c0.6,0.3,1.2,0.7,1.8,1c1.1,0.7,2.1,1.3,3.1,2.1c0.2,0.2,0.5,0.5,0.7,0.8
						c0.2,0.4,0.1,0.6-0.2,0.8c-0.3,0.1-0.6,0.2-1,0.2c-0.7,0-1.3-0.1-2-0.2c-1.1-0.2-2.2-0.5-3.4-0.8c-0.1,0-0.3,0.1-0.3,0.2
						c0.2,0.1,0.4,0.1,0.6,0.2c1.4,0.4,2.7,0.7,4.1,0.9c0.8,0.2,1.6,0.2,2.5,0.2c0.2,0,0.5-0.1,0.8-0.1C43.4-11,43.5-11.1,43.5-11.2
						z M34.7-17.1c0.1,0.1,0.3,0.1,0.4,0.2C34.9-17,34.8-17.1,34.7-17.1z M26.3-20.2L26.3-20.2L26.3-20.2z M32.5-18.2
						c-0.7-0.3-1.4-0.5-2-0.8c-0.2-0.1-0.5-0.2-0.8-0.3c0.3,0.1,0.5,0.2,0.8,0.3C31.1-18.7,31.8-18.4,32.5-18.2z M36.2-16.4
						L36.2-16.4L36.2-16.4z M36.2-16.4C36.3-16.4,36.2-16.4,36.2-16.4S36.3-16.4,36.2-16.4z"/>
					<path d="M36.4-16.4L36.4-16.4L36.4-16.4z"/>
				</g>
			</g>
		</g>
	</g>
</pattern>
<rect x="-21.4" y="-17.9" class="st5" width="389.1" height="1340.7"/>
<g>
	<g>
		<g class="st3">
			<circle class="st4" cx="-84.2" cy="-108.3" r="9.4"/>
		</g>
		<g>
			<circle cx="-84.2" cy="-108.3" r="9.4"/>
		</g>
	</g>
	<g>
		<path d="M-63.8-116.7c-0.4-0.1-0.9-0.2-1.3-0.2c-1.4,0-2.7,0.1-4.1,0.4c-2.3,0.4-4.5,0.9-6.8,1.5c-0.3,0.1-0.7,0.2-1,0.3
			c0,0.2,0.3,0.4,0.5,0.4c1.9-0.6,3.7-1.1,5.6-1.4c1.1-0.2,2.2-0.3,3.3-0.3c0.6,0,1.1,0.1,1.6,0.3c0.6,0.3,0.8,0.7,0.4,1.3
			c-0.3,0.6-0.8,1-1.2,1.4c-1.6,1.4-3.3,2.4-5.1,3.5c-1,0.6-2,1.2-3,1.7c-0.1,0-0.1,0.1-0.2,0.1c0,0.1-0.1,0.1-0.2,0.1
			c0,0,0.1-0.1,0.2-0.1c0-0.1,0.1-0.1,0.2-0.1c1.7-1,3.3-2,4.9-3.1c1-0.7,2-1.3,2.9-2.2c0-0.1,0.1-0.2,0.2-0.3
			c0.3-0.3,0.6-0.7,0.8-1.1c0.3-0.5,0.1-0.9-0.5-1s-1.2-0.2-1.8-0.2c-0.5,0-1,0-1.4,0.1c-0.8,0.1-1.5,0.2-2.2,0.3
			c-0.1,0-0.3,0.1-0.5,0h-0.1c0,0.1-0.1,0.1-0.1,0h-0.1c-0.2,0.1-0.4,0.1-0.5,0.1c-0.9,0.2-1.7,0.4-2.6,0.7
			c-0.5,0.2-0.5,0.1-0.2,0.5c0.1,0.1,0.2,0.1,0.3,0.1c0.5-0.1,1-0.2,1.4-0.3c1.1-0.2,2.3-0.4,3.4-0.4c0.4,0,0.9,0,1.3,0.1
			c0.5,0.1,0.6,0.4,0.4,0.9c-0.2,0.3-0.4,0.6-0.7,0.9c-0.8,0.8-1.8,1.5-2.8,2.2c-1.7,1.1-3.4,2.1-5.2,3c-3.2,1.6-6.5,2.9-9.9,4
			c-2.9,0.9-5.8,1.7-8.9,1.9c-0.6,0-1.1,0-1.7-0.1c-0.5-0.1-0.6-0.4-0.5-0.9c0.1-0.1,0.1-0.3,0.2-0.4c0.3-0.5,0.7-0.8,1.1-1.2
			c1.1-0.9,2.3-1.7,3.5-2.4c0.2-0.1,0.3-0.2,0.2-0.4c0-0.1,0.1-0.3-0.1-0.4c-0.1,0-0.3,0.1-0.4,0.2c-2,1-3.8,2.1-5.5,3.4
			c-0.7,0.5-1.4,1.1-1.9,1.8l-0.1,0.1l0,0c-0.2,0.2-0.4,0.5-0.4,0.7c-0.1,0.4,0,0.7,0.4,0.8c0.4,0.2,0.8,0.2,1.2,0.2
			c0.5,0,0.9,0,1.4,0c2.5-0.2,4.9-0.7,7.4-1.3l0,0c0.6-0.1,1.1-0.2,1.7-0.4c0,0.1-0.1,0.1-0.2,0.1c-1.6,0.4-3.3,0.9-5,1.2
			c-0.9,0.2-1.8,0.3-2.7,0.5c-0.9,0.1-1.9,0.2-2.8,0.2c-0.5,0-0.9-0.1-1.4-0.3c-0.3-0.2-0.4-0.4-0.4-0.8c0.1-0.6,0.5-1,0.8-1.4
			c0.8-0.9,1.8-1.6,2.8-2.3c1.6-1.1,3.3-2,5-2.9c0.2-0.1,0.3-0.3,0.1-0.5c0,0.1-0.1,0.1-0.2,0.2c-2.2,1.1-4.4,2.3-6.5,3.7
			c-1.3,0.8-2.5,1.7-3.5,2.8c-0.4,0.4-0.8,0.9-0.9,1.4c-0.1,0.3-0.1,0.6,0.1,0.9c0.2,0.2,0.4,0.3,0.7,0.3c1,0.2,2.1,0.1,3.1,0.1
			c0.9-0.1,1.7-0.2,2.5-0.3c0.7-0.1,1.4-0.3,2.1-0.4c0.9-0.2,1.8-0.4,2.6-0.6c1-0.3,1.9-0.5,2.9-0.8c0.1,0,0.1,0,0.2,0
			c0.2-0.1,0.4-0.1,0.6-0.2c0.8-0.3,1.6-0.5,2.4-0.7c2.9-1,5.8-2.1,8.6-3.3c1.5-0.6,2.9-1.3,4.3-2c0,0,0.1,0,0.1-0.1
			c0.2-0.1,0.3-0.2,0.5-0.3c0-0.1,0.1-0.1,0.1-0.1c0.7-0.4,1.4-0.8,2.1-1.2c2.3-1.3,4.5-2.6,6.5-4.3c1-0.8,2-1.6,2.5-2.8
			c0-0.1,0-0.3,0-0.4C-63.2-116.4-63.5-116.6-63.8-116.7z M-77.3-106.6c-0.2,0.1-0.5,0.2-0.7,0.3C-77.8-106.3-77.6-106.5-77.3-106.6
			z M-91.9-101.2L-91.9-101.2L-91.9-101.2z M-85.1-103.3c-0.5,0.2-0.9,0.3-1.4,0.5C-86-103-85.5-103.2-85.1-103.3
			c1.1-0.4,2.3-0.8,3.4-1.3C-82.8-104.2-83.9-103.7-85.1-103.3z M-75.5-107.5C-75.4-107.5-75.4-107.5-75.5-107.5
			C-75.4-107.5-75.4-107.5-75.5-107.5z M-75.4-107.6C-75.4-107.6-75.3-107.6-75.4-107.6C-75.3-107.6-75.4-107.6-75.4-107.6z"/>
		<path d="M-75.1-107.6L-75.1-107.6L-75.1-107.6z"/>
	</g>
</g>
<path d="M-183.7-108.1c-9.1,0.9-9.5,1.8-3.6,9.1c-7-6.1-7.9-5.7-8.7,3.8c-0.9-9.5-1.7-9.8-8.7-3.8c5.9-7.3,5.5-8.2-3.6-9.1
	c9.1-0.9,9.5-1.8,3.6-9.1c7,6.1,7.9,5.7,8.7-3.8c0.9,9.5,1.7,9.8,8.7,3.8C-193.2-109.8-192.9-109-183.7-108.1z"/>
<g>
	<polygon points="-143.2,-84.6 -154.5,-84.6 -152.1,-88.4 -145.5,-88.4 	"/>
	<path d="M-148.4-126.6l-0.4-6.3c0.5-0.1,0.9-0.5,0.9-1s-0.4-1-1-1s-1,0.4-1,1c0,0.5,0.4,0.9,0.9,1l-0.4,6.3
		c-1.3,0.3-2.4,2.3-3.3,5.4h7.4C-146-124.2-147.2-126.2-148.4-126.6z"/>
	<path d="M-137.5-92c-2-2.5-4-4.9-6-7.4c0,0,0-0.1-0.1-0.1c0.2-1.3,0.3-2.6,0.3-3.9c0-6.9-0.8-13-2-17.2h-7.5
		c-1.2,4.2-2,10.3-2,17.2c0,1.3,0.1,2.6,0.3,3.8c-2,2.4-4,4.9-5.9,7.3c-0.4,0.5-0.5,1-0.5,1.6c0.1,1.7,0.2,3.4,0.4,5.1
		c0,0.2,0.1,0.5,0.3,0.6c0.1,0.1,0.4-0.1,0.5-0.2c2.3-1.6,4.6-3.3,6.9-4.9c0.1-0.1,0.2-0.2,0.4-0.2c0.1,0.4,0.2,0.8,0.3,1.2h6.5
		c0.1-0.3,0.1-0.7,0.2-1c0.1,0.1,0.3,0.2,0.4,0.3c2.3,1.6,4.6,3.3,6.9,4.9c0.2,0.1,0.5,0.3,0.5,0.2c0.1-0.1,0.2-0.4,0.3-0.6
		c0.1-1.7,0.2-3.4,0.4-5.1C-136.9-91-137.1-91.5-137.5-92z"/>
</g>
<pattern  id="SVGID_3_" xlink:href="#New_Pattern" patternTransform="matrix(-1 -8.979319e-11 8.979319e-11 -1 -16007.0996 -17804.0996)">
</pattern>
<rect y="0" class="st6" width="354.9" height="1312.1"/>
</svg>
