<?xml version="1.0" encoding="utf-8"?>
<!-- Generator: Adobe Illustrator 23.0.1, SVG Export Plug-In . SVG Version: 6.00 Build 0)  -->
<svg version="1.1" id="Layer_1" xmlns="http://www.w3.org/2000/svg" xmlns:xlink="http://www.w3.org/1999/xlink" x="0px" y="0px"
	 viewBox="0 0 1360.8 808.6" style="enable-background:new 0 0 1360.8 808.6;" xml:space="preserve">
<style type="text/css">
	.st0{fill:none;}
	.st1{opacity:0.87;}
	.st2{fill:#FFFFFF;}
	.st3{fill:#FF6EFF;}
	.st4{fill:url(#New_Pattern_2);}
</style>
<pattern  y="756" width="192" height="160" patternUnits="userSpaceOnUse" id="New_Pattern_2" viewBox="0 -185 192 160" style="overflow:visible;">
	<g>
		<rect y="-185" class="st0" width="192" height="160"/>
		<g>
			<path d="M140.4-32.4c-7,6.1-7.8,5.7-8.7-3.8c-0.9,9.5-1.7,9.9-8.7,3.8c5.9,7.3,5.5,8.1-3.6,9.1c9.1,0.9,9.5,1.8,3.6,9.1
				c7-6.1,7.8-5.7,8.7,3.8c0.9-9.5,1.7-9.8,8.7-3.8c-5.9-7.3-5.5-8.1,3.6-9.1C134.9-24.2,134.5-25.1,140.4-32.4z"/>
			<g>
				<path d="M182.6-36.5h-7.4c0.9-3.1,2-5.1,3.3-5.4l0.4-6.3c-0.5,0-0.9-0.5-0.9-1c0-0.5,0.4-1,1-1s1,0.4,1,1c0,0.5-0.4,0.9-0.9,1
					l0.4,6.3C180.6-41.4,181.7-39.5,182.6-36.5z"/>
				<path d="M190.8-5.6c-0.1,1.7-0.2,3.4-0.4,5.1c0,0.2-0.1,0.5-0.3,0.6c-0.1,0.1-0.4-0.1-0.5-0.2c-2.3-1.6-4.6-3.3-6.9-4.9
					c-0.1-0.1-0.3-0.2-0.4-0.3c-0.1,0.3-0.1,0.7-0.2,1h-6.5c-0.1-0.4-0.2-0.8-0.3-1.2c-0.1,0.1-0.2,0.2-0.4,0.2
					c-2.3,1.6-4.6,3.3-6.9,4.9c-0.2,0.1-0.4,0.3-0.5,0.2c-0.1-0.1-0.2-0.4-0.3-0.6c-0.1-1.7-0.2-3.4-0.4-5.1c0-0.6,0.1-1.1,0.5-1.6
					c2-2.4,4-4.9,5.9-7.3c-0.2-1.3-0.3-2.5-0.3-3.8c0-6.9,0.8-13,2-17.2h7.5c1.2,4.2,2,10.3,2,17.2c0,1.3-0.1,2.6-0.3,3.9
					c0,0,0,0.1,0.1,0.1c2,2.5,4,4.9,6,7.4C190.6-6.7,190.8-6.2,190.8-5.6z"/>
			</g>
		</g>
		<g>
			<g>
				<g>
					<g class="st1">
						<circle class="st2" cx="51.5" cy="-23.5" r="9.4"/>
					</g>
					<circle cx="51.5" cy="-23.5" r="9.4"/>
				</g>
				<g>
					<path d="M72.7-31.3c0,0.1,0,0.3,0,0.4c-0.5,1.2-1.5,2-2.5,2.8c-2,1.7-4.2,3-6.5,4.3c-0.7,0.4-1.4,0.8-2.1,1.2
						c-0.1,0-0.1,0.1-0.1,0.1c-0.2,0-0.4,0.2-0.5,0.3c0,0-0.1,0-0.1,0.1c-1.4,0.7-2.9,1.4-4.3,2c-2.8,1.2-5.7,2.3-8.6,3.3
						c-0.8,0.3-1.6,0.5-2.4,0.7c-0.2,0.1-0.4,0.1-0.6,0.2c-0.1,0-0.1,0-0.2,0c-1,0.3-1.9,0.5-2.9,0.8c-0.9,0.2-1.8,0.4-2.6,0.6
						c-0.7,0.2-1.4,0.3-2.1,0.4c-0.8,0.2-1.7,0.3-2.5,0.3c-1,0.1-2.1,0.2-3.1-0.1c-0.3,0-0.5-0.2-0.7-0.3c-0.2-0.2-0.2-0.6-0.1-0.9
						c0.1-0.6,0.5-1,0.9-1.4c1-1.1,2.2-2,3.5-2.8c2.1-1.4,4.3-2.6,6.5-3.7c0.1,0,0.2-0.1,0.2-0.2c0.1,0.2,0.1,0.4-0.1,0.5
						c-1.7,0.9-3.4,1.8-5,2.9c-1,0.7-2,1.4-2.8,2.3c-0.4,0.4-0.7,0.9-0.8,1.4c-0.1,0.4,0,0.6,0.4,0.8c0.4,0.3,0.9,0.3,1.4,0.3
						c0.9,0,1.9,0,2.8-0.2c0.9-0.1,1.8-0.3,2.7-0.5c1.7-0.3,3.3-0.8,5-1.2c0.1,0,0.1,0,0.2-0.1c-0.6,0.1-1.1,0.3-1.7,0.4l0,0
						c-2.4,0.6-4.9,1-7.4,1.3c-0.4,0-0.9,0.1-1.4,0c-0.4,0-0.8,0-1.2-0.2c-0.4-0.1-0.5-0.4-0.4-0.8c0.1-0.3,0.2-0.5,0.4-0.7l0,0
						c0-0.1,0.1-0.1,0.1-0.1c0.5-0.7,1.2-1.3,1.9-1.8c1.7-1.3,3.6-2.5,5.5-3.4c0.1-0.1,0.3-0.2,0.4-0.2c0.1,0.1,0,0.3,0.1,0.4
						c0.1,0.2,0,0.3-0.2,0.4c-1.2,0.7-2.4,1.5-3.5,2.4c-0.4,0.4-0.8,0.7-1.1,1.2c-0.1,0.1-0.2,0.3-0.2,0.4c-0.2,0.5,0,0.8,0.5,0.9
						c0.6,0.2,1.1,0.2,1.7,0.1c3.1-0.2,6-1,8.9-1.9c3.4-1,6.7-2.4,9.9-4c1.8-0.9,3.6-1.9,5.2-3c1-0.7,1.9-1.3,2.8-2.2
						c0.3-0.3,0.5-0.6,0.7-0.9c0.2-0.5,0.1-0.8-0.4-0.9c-0.4-0.1-0.9-0.1-1.3-0.1c-1.1,0-2.3,0.2-3.4,0.4c-0.5,0.1-1,0.2-1.4,0.3
						c-0.1,0-0.2,0-0.3-0.1c-0.3-0.4-0.3-0.4,0.2-0.5c0.9-0.3,1.7-0.5,2.6-0.7c0.2,0,0.4,0,0.5-0.1c0,0,0.1,0,0.1,0
						c0.1,0.1,0.1,0.1,0.1,0c0,0,0.1,0,0.1,0c0.2,0.1,0.3,0,0.5,0c0.8-0.1,1.5-0.3,2.2-0.3c0.5-0.1,1-0.1,1.4-0.1
						c0.6,0,1.2,0,1.8,0.2c0.6,0.1,0.8,0.5,0.5,1c-0.2,0.4-0.5,0.7-0.8,1.1c-0.1,0.1-0.2,0.1-0.2,0.3c-0.9,0.8-1.9,1.5-2.9,2.2
						c-1.6,1.1-3.3,2.1-4.9,3.1c-0.1,0-0.1,0-0.2,0.1c-0.1,0-0.1,0-0.2,0.1c0.1,0,0.1,0,0.2-0.1c0.1,0,0.1,0,0.2-0.1
						c1-0.5,2-1.1,3-1.7c1.8-1.1,3.5-2.1,5.1-3.5c0.5-0.4,0.9-0.9,1.2-1.4c0.3-0.6,0.2-1-0.4-1.3c-0.5-0.3-1.1-0.3-1.6-0.3
						c-1.1-0.1-2.2,0.1-3.3,0.3c-1.9,0.3-3.8,0.8-5.6,1.4c-0.2,0.1-0.4-0.2-0.5-0.4c0.4,0,0.7-0.2,1-0.3c2.2-0.6,4.5-1.2,6.8-1.5
						c1.4-0.2,2.7-0.4,4.1-0.4c0.4,0,0.9,0,1.3,0.2C72.3-31.8,72.6-31.7,72.7-31.3z M57.7-21.5c0.2-0.1,0.5-0.2,0.7-0.3
						C58.2-21.7,57.9-21.6,57.7-21.5z M43.9-16.4C43.8-16.4,43.8-16.4,43.9-16.4C43.8-16.4,43.8-16.4,43.9-16.4z M54.1-19.9
						c-1.1,0.5-2.3,0.9-3.4,1.3c-0.5,0.2-0.9,0.3-1.4,0.5c0.5-0.2,0.9-0.3,1.4-0.5C51.8-19,52.9-19.4,54.1-19.9z M60.3-22.8
						C60.3-22.8,60.3-22.8,60.3-22.8C60.3-22.8,60.3-22.8,60.3-22.8z M60.4-22.8C60.4-22.8,60.4-22.8,60.4-22.8
						C60.4-22.8,60.4-22.8,60.4-22.8z"/>
				</g>
			</g>
		</g>
		<g>
			<g>
				<g>
					<g class="st1">
						<circle class="st2" cx="147.5" cy="-103.5" r="9.4"/>
					</g>
					<circle cx="147.5" cy="-103.5" r="9.4"/>
				</g>
				<g>
					<path d="M168.7-111.3c0,0.1,0,0.3,0,0.4c-0.5,1.2-1.5,2-2.5,2.8c-2,1.7-4.2,3-6.5,4.3c-0.7,0.4-1.4,0.8-2.1,1.2
						c-0.1,0-0.1,0.1-0.1,0.1c-0.2,0-0.4,0.2-0.5,0.3c0,0-0.1,0-0.1,0.1c-1.4,0.7-2.9,1.4-4.3,2c-2.8,1.2-5.7,2.3-8.6,3.3
						c-0.8,0.3-1.6,0.5-2.4,0.7c-0.2,0.1-0.4,0.1-0.6,0.2c-0.1,0-0.1,0-0.2,0c-1,0.3-1.9,0.5-2.9,0.8c-0.9,0.2-1.8,0.4-2.6,0.6
						c-0.7,0.2-1.4,0.3-2.1,0.4c-0.8,0.2-1.7,0.3-2.5,0.3c-1,0.1-2.1,0.2-3.1-0.1c-0.3,0-0.5-0.2-0.7-0.3c-0.2-0.2-0.2-0.6-0.1-0.9
						c0.1-0.6,0.5-1,0.9-1.4c1-1.1,2.3-2,3.5-2.8c2.1-1.4,4.3-2.6,6.5-3.7c0.1,0,0.2-0.1,0.2-0.2c0.1,0.2,0.1,0.4-0.1,0.5
						c-1.7,0.9-3.4,1.8-5,2.9c-1,0.7-2,1.4-2.8,2.3c-0.4,0.4-0.7,0.9-0.8,1.4c-0.1,0.4,0,0.6,0.4,0.8c0.4,0.3,0.9,0.3,1.4,0.3
						c0.9,0,1.9,0,2.8-0.2c0.9-0.1,1.8-0.3,2.7-0.5c1.7-0.3,3.3-0.8,5-1.2c0.1,0,0.1,0,0.2-0.1c-0.6,0.1-1.1,0.3-1.7,0.4l0,0
						c-2.4,0.6-4.9,1-7.4,1.3c-0.4,0-0.9,0.1-1.4,0c-0.4,0-0.8,0-1.2-0.2c-0.4-0.1-0.5-0.4-0.4-0.8c0.1-0.3,0.2-0.5,0.4-0.7l0,0
						c0-0.1,0.1-0.1,0.1-0.1c0.5-0.7,1.2-1.3,1.9-1.8c1.7-1.3,3.6-2.5,5.5-3.4c0.1-0.1,0.3-0.2,0.4-0.2c0.1,0.1,0,0.3,0.1,0.4
						c0.1,0.2,0,0.3-0.2,0.4c-1.2,0.7-2.4,1.5-3.5,2.4c-0.4,0.4-0.8,0.7-1.1,1.2c-0.1,0.1-0.2,0.3-0.2,0.4c-0.2,0.5,0,0.8,0.5,0.9
						c0.6,0.2,1.1,0.2,1.7,0.1c3.1-0.2,6-1,8.9-1.9c3.4-1,6.7-2.4,9.9-4c1.8-0.9,3.6-1.9,5.2-3c1-0.7,1.9-1.3,2.8-2.2
						c0.3-0.3,0.5-0.6,0.7-0.9c0.2-0.5,0.1-0.8-0.4-0.9c-0.4-0.1-0.9-0.1-1.3-0.1c-1.1,0-2.3,0.2-3.4,0.4c-0.5,0.1-1,0.2-1.4,0.3
						c-0.1,0-0.2,0-0.3-0.1c-0.3-0.4-0.3-0.4,0.2-0.5c0.9-0.3,1.7-0.5,2.6-0.7c0.2,0,0.4,0,0.5-0.1c0,0,0.1,0,0.1,0
						c0.1,0.1,0.1,0.1,0.1,0c0,0,0.1,0,0.1,0c0.2,0.1,0.3,0,0.5,0c0.8-0.1,1.5-0.3,2.2-0.3c0.5-0.1,1-0.1,1.4-0.1
						c0.6,0,1.2,0,1.8,0.2c0.6,0.1,0.8,0.5,0.5,1c-0.2,0.4-0.5,0.7-0.8,1.1c-0.1,0.1-0.2,0.1-0.2,0.3c-0.9,0.8-1.9,1.5-2.9,2.2
						c-1.6,1.1-3.3,2.1-4.9,3.1c-0.1,0-0.1,0-0.2,0.1c-0.1,0-0.1,0-0.2,0.1c0.1,0,0.1,0,0.2-0.1c0.1,0,0.1,0,0.2-0.1
						c1-0.5,2-1.1,3-1.7c1.8-1.1,3.5-2.1,5.1-3.5c0.5-0.4,0.9-0.9,1.2-1.4c0.3-0.6,0.2-1-0.4-1.3c-0.5-0.3-1.1-0.3-1.6-0.3
						c-1.1-0.1-2.2,0.1-3.3,0.3c-1.9,0.3-3.8,0.8-5.6,1.4c-0.2,0.1-0.4-0.2-0.5-0.4c0.4,0,0.7-0.2,1-0.3c2.2-0.6,4.5-1.2,6.8-1.5
						c1.4-0.2,2.7-0.4,4.1-0.4c0.4,0,0.9,0,1.3,0.2C168.3-111.8,168.6-111.7,168.7-111.3z M153.7-101.5c0.2-0.1,0.5-0.2,0.7-0.3
						C154.2-101.7,153.9-101.6,153.7-101.5z M139.9-96.4C139.8-96.4,139.8-96.4,139.9-96.4C139.8-96.4,139.8-96.4,139.9-96.4z
						 M150.1-99.9c-1.1,0.5-2.3,0.9-3.4,1.3c-0.5,0.2-0.9,0.3-1.4,0.5c0.5-0.2,0.9-0.3,1.4-0.5C147.8-99,148.9-99.4,150.1-99.9z
						 M156.3-102.8C156.3-102.8,156.3-102.8,156.3-102.8C156.3-102.8,156.3-102.8,156.3-102.8z M156.4-102.8
						C156.4-102.8,156.4-102.8,156.4-102.8C156.4-102.8,156.4-102.8,156.4-102.8z"/>
					<path d="M156.6-102.9L156.6-102.9L156.6-102.9z"/>
				</g>
			</g>
			<path d="M44.4-112.4c-7,6.1-7.8,5.7-8.7-3.8c-0.9,9.5-1.7,9.8-8.7,3.8c5.9,7.3,5.5,8.1-3.6,9.1c9.1,0.9,9.5,1.8,3.6,9.1
				c7-6.1,7.8-5.7,8.7,3.8c0.9-9.5,1.7-9.8,8.7-3.8c-5.9-7.3-5.5-8.1,3.6-9.1C38.9-104.2,38.5-105.1,44.4-112.4z"/>
			<g>
				<polygon points="86.2,-83.7 79.6,-83.7 77.2,-79.8 88.5,-79.8 				"/>
				<path d="M86.6-116.5h-7.4c0.9-3.1,2-5.1,3.3-5.4l0.4-6.3c-0.5,0-0.9-0.5-0.9-1c0-0.5,0.4-1,1-1s1,0.4,1,1c0,0.5-0.4,0.9-0.9,1
					l0.4,6.3C84.6-121.4,85.7-119.5,86.6-116.5z"/>
				<path d="M94.8-85.6c-0.1,1.7-0.2,3.4-0.4,5.1c0,0.2-0.1,0.5-0.3,0.6c-0.1,0.1-0.4-0.1-0.5-0.2c-2.3-1.6-4.6-3.3-6.9-4.9
					c-0.1-0.1-0.3-0.2-0.4-0.3c-0.1,0.3-0.1,0.7-0.2,1h-6.5c-0.1-0.4-0.2-0.8-0.3-1.2c-0.1,0.1-0.2,0.2-0.4,0.2
					c-2.3,1.6-4.6,3.3-6.9,4.9c-0.2,0.1-0.4,0.3-0.5,0.2c-0.1-0.1-0.2-0.4-0.3-0.6c-0.1-1.7-0.2-3.4-0.4-5.1c0-0.6,0.1-1.1,0.5-1.6
					c2-2.4,4-4.9,5.9-7.3c-0.2-1.3-0.3-2.5-0.3-3.8c0-6.9,0.8-13,2-17.2h7.5c1.2,4.2,2,10.3,2,17.2c0,1.3-0.1,2.6-0.3,3.9
					c0,0,0,0.1,0.1,0.1c2,2.5,4,4.9,6,7.4C94.6-86.7,94.8-86.2,94.8-85.6z"/>
			</g>
		</g>
		<g>
			<path d="M140.4-192.4c-7,6.1-7.8,5.7-8.7-3.8c-0.9,9.5-1.7,9.8-8.7,3.8c5.9,7.3,5.5,8.1-3.6,9.1c9.1,0.9,9.5,1.8,3.6,9.1
				c7-6.1,7.8-5.7,8.7,3.8c0.9-9.5,1.7-9.9,8.7-3.8c-5.9-7.3-5.5-8.1,3.6-9.1C134.9-184.2,134.5-185.1,140.4-192.4z"/>
			<g>
				<polygon points="182.2,-163.7 175.6,-163.7 173.2,-159.8 184.5,-159.8 				"/>
				<path d="M190.8-165.6c-0.1,1.7-0.2,3.4-0.4,5.1c0,0.2-0.1,0.5-0.3,0.6c-0.1,0.1-0.4-0.1-0.5-0.2c-2.3-1.6-4.6-3.3-6.9-4.9
					c-0.1-0.1-0.3-0.2-0.4-0.3c-0.1,0.3-0.1,0.7-0.2,1h-6.5c-0.1-0.4-0.2-0.8-0.3-1.2c-0.1,0.1-0.2,0.2-0.4,0.2
					c-2.3,1.6-4.6,3.3-6.9,4.9c-0.2,0.1-0.4,0.3-0.5,0.2c-0.1-0.1-0.2-0.4-0.3-0.6c-0.1-1.7-0.2-3.4-0.4-5.1c0-0.6,0.1-1.1,0.5-1.6
					c2-2.4,4-4.9,5.9-7.3c-0.2-1.3-0.3-2.5-0.3-3.8c0-6.9,0.8-13,2-17.2h7.5c1.2,4.2,2,10.3,2,17.2c0,1.3-0.1,2.6-0.3,3.9
					c0,0,0,0.1,0.1,0.1c2,2.5,4,4.9,6,7.4C190.6-166.7,190.8-166.2,190.8-165.6z"/>
			</g>
		</g>
		<g>
			<g>
				<g>
					<g class="st1">
						<circle class="st2" cx="51.5" cy="-183.5" r="9.4"/>
					</g>
					<circle cx="51.5" cy="-183.5" r="9.4"/>
				</g>
				<g>
					<path d="M72.7-191.3c0,0.1,0,0.3,0,0.4c-0.5,1.2-1.5,2-2.5,2.8c-2,1.7-4.2,3-6.5,4.3c-0.7,0.4-1.4,0.8-2.1,1.1
						c-0.1,0-0.1,0.1-0.1,0.1c-0.2,0-0.4,0.2-0.5,0.3c0,0-0.1,0-0.1,0.1c-1.4,0.7-2.9,1.4-4.3,2c-2.8,1.2-5.7,2.3-8.6,3.3
						c-0.8,0.3-1.6,0.5-2.4,0.7c-0.2,0.1-0.4,0.1-0.6,0.2c-0.1,0-0.1,0-0.2,0c-1,0.3-1.9,0.5-2.9,0.8c-0.9,0.2-1.8,0.4-2.6,0.6
						c-0.7,0.2-1.4,0.3-2.1,0.4c-0.8,0.2-1.7,0.3-2.5,0.3c-1,0.1-2.1,0.2-3.1-0.1c-0.3,0-0.5-0.2-0.7-0.3c-0.2-0.2-0.2-0.6-0.1-0.9
						c0.1-0.6,0.5-1,0.9-1.4c1-1.1,2.2-2,3.5-2.8c2.1-1.4,4.3-2.6,6.5-3.7c0.1,0,0.2-0.1,0.2-0.2c0.1,0.2,0.1,0.4-0.1,0.5
						c-1.7,0.9-3.4,1.8-5,2.9c-1,0.7-2,1.4-2.8,2.3c-0.4,0.4-0.7,0.9-0.8,1.4c-0.1,0.4,0,0.6,0.4,0.8c0.4,0.3,0.9,0.3,1.4,0.3
						c0.9,0,1.9,0,2.8-0.2c0.9-0.1,1.8-0.3,2.7-0.5c1.7-0.3,3.3-0.8,5-1.2c0.1,0,0.1,0,0.2-0.1c-0.6,0.1-1.1,0.3-1.7,0.4l0,0
						c-2.4,0.6-4.9,1-7.4,1.3c-0.4,0-0.9,0.1-1.4,0c-0.4,0-0.8,0-1.2-0.2c-0.4-0.1-0.5-0.4-0.4-0.8c0.1-0.3,0.2-0.5,0.4-0.7l0,0
						c0-0.1,0.1-0.1,0.1-0.1c0.5-0.7,1.2-1.3,1.9-1.8c1.7-1.3,3.6-2.5,5.5-3.4c0.1-0.1,0.3-0.2,0.4-0.2c0.1,0.1,0,0.3,0.1,0.4
						c0.1,0.2,0,0.3-0.2,0.4c-1.2,0.7-2.4,1.5-3.5,2.4c-0.4,0.4-0.8,0.7-1.1,1.2c-0.1,0.1-0.2,0.3-0.2,0.4c-0.2,0.5,0,0.8,0.5,0.9
						c0.6,0.2,1.1,0.2,1.7,0.1c3.1-0.2,6-1,8.9-1.9c3.4-1.1,6.7-2.4,9.9-4c1.8-0.9,3.6-1.9,5.2-3c1-0.7,1.9-1.3,2.8-2.2
						c0.3-0.3,0.5-0.6,0.7-0.9c0.2-0.5,0.1-0.8-0.4-0.9c-0.4-0.1-0.9-0.1-1.3-0.1c-1.1,0-2.3,0.2-3.4,0.4c-0.5,0.1-1,0.2-1.4,0.3
						c-0.1,0-0.2,0-0.3-0.1c-0.3-0.4-0.3-0.4,0.2-0.5c0.9-0.3,1.7-0.5,2.6-0.7c0.2,0,0.4,0,0.5-0.1c0,0,0.1,0,0.1,0
						c0.1,0.1,0.1,0.1,0.1,0c0,0,0.1,0,0.1,0c0.2,0.1,0.3,0,0.5,0c0.8-0.1,1.5-0.3,2.2-0.3c0.5-0.1,1-0.1,1.4-0.1
						c0.6-0.1,1.2,0,1.8,0.1c0.6,0.1,0.8,0.5,0.5,1c-0.2,0.4-0.5,0.7-0.8,1.1c-0.1,0.1-0.2,0.1-0.2,0.3c-0.9,0.8-1.9,1.5-2.9,2.2
						c-1.6,1.1-3.3,2.1-4.9,3.1c-0.1,0-0.1,0-0.2,0.1c-0.1,0-0.1,0-0.2,0.1c0.1,0.1,0.1,0,0.2-0.1c0.1,0,0.1,0,0.2-0.1
						c1-0.5,2-1.1,3-1.7c1.8-1.1,3.5-2.1,5.1-3.5c0.5-0.4,0.9-0.9,1.2-1.4c0.3-0.6,0.2-1-0.4-1.3c-0.5-0.3-1.1-0.3-1.6-0.4
						c-1.1-0.1-2.2,0.1-3.3,0.3c-1.9,0.3-3.8,0.8-5.6,1.4c-0.2,0.1-0.4-0.2-0.5-0.4c0.4,0,0.7-0.2,1-0.3c2.2-0.6,4.5-1.2,6.8-1.5
						c1.4-0.2,2.7-0.4,4.1-0.4c0.4,0,0.9,0,1.3,0.2C72.3-191.8,72.6-191.7,72.7-191.3z M57.7-181.5c0.2-0.1,0.5-0.2,0.7-0.3
						C58.2-181.7,57.9-181.6,57.7-181.5z M43.9-176.4C43.8-176.4,43.8-176.4,43.9-176.4C43.8-176.4,43.8-176.4,43.9-176.4z
						 M54.1-179.9c-1.1,0.5-2.3,0.9-3.4,1.3c-0.5,0.2-0.9,0.3-1.4,0.5c0.5-0.2,0.9-0.3,1.4-0.5C51.8-179,52.9-179.4,54.1-179.9z
						 M60.3-182.8C60.3-182.8,60.3-182.8,60.3-182.8C60.3-182.8,60.3-182.8,60.3-182.8z M60.4-182.8
						C60.4-182.8,60.4-182.8,60.4-182.8C60.4-182.8,60.4-182.8,60.4-182.8z"/>
					<path d="M60.6-182.9L60.6-182.9L60.6-182.9z"/>
				</g>
			</g>
		</g>
	</g>
</pattern>
<rect y="-4" class="st3" width="1360.8" height="812.6"/>
<g>
	<g>
		<g class="st1">
			<circle class="st2" cx="422.8" cy="-90.4" r="9.4"/>
		</g>
		<g>
			<circle cx="422.8" cy="-90.4" r="9.4"/>
		</g>
	</g>
	<g>
		<path d="M443.2-98.8c-0.4-0.1-0.9-0.2-1.3-0.2c-1.4,0-2.7,0.1-4.1,0.4c-2.3,0.4-4.5,0.9-6.8,1.5c-0.3,0.1-0.7,0.2-1,0.3
			c0,0.2,0.3,0.4,0.5,0.4c1.9-0.6,3.7-1.1,5.6-1.4c1.1-0.2,2.2-0.3,3.3-0.3c0.6,0,1.1,0.1,1.6,0.3c0.6,0.3,0.8,0.7,0.4,1.3
			c-0.3,0.6-0.8,1-1.2,1.4c-1.6,1.4-3.3,2.4-5.1,3.5c-1,0.6-2,1.2-3,1.7c-0.1,0-0.1,0.1-0.2,0.1c0,0.1-0.1,0.1-0.2,0.1
			c0,0,0.1-0.1,0.2-0.1c0-0.1,0.1-0.1,0.2-0.1c1.7-1,3.3-2,4.9-3.1c1-0.7,2-1.3,2.9-2.2c0-0.1,0.1-0.2,0.2-0.3
			c0.3-0.3,0.6-0.7,0.8-1.1c0.3-0.5,0.1-0.9-0.5-1c-0.6-0.1-1.2-0.2-1.8-0.2c-0.5,0-1,0-1.4,0.1c-0.8,0.1-1.5,0.2-2.2,0.3
			c-0.1,0-0.3,0.1-0.5,0c0,0-0.1,0-0.1,0c0,0.1-0.1,0.1-0.1,0c0,0-0.1,0-0.1,0c-0.2,0.1-0.4,0.1-0.5,0.1c-0.9,0.2-1.7,0.4-2.6,0.7
			c-0.5,0.2-0.5,0.1-0.2,0.5c0.1,0.1,0.2,0.1,0.3,0.1c0.5-0.1,1-0.2,1.4-0.3c1.1-0.2,2.3-0.4,3.4-0.4c0.4,0,0.9,0,1.3,0.1
			c0.5,0.1,0.6,0.4,0.4,0.9c-0.2,0.3-0.4,0.6-0.7,0.9c-0.8,0.8-1.8,1.5-2.8,2.2c-1.7,1.1-3.4,2.1-5.2,3c-3.2,1.6-6.5,2.9-9.9,4
			c-2.9,0.9-5.8,1.7-8.9,1.9c-0.6,0-1.1,0-1.7-0.1c-0.5-0.1-0.6-0.4-0.5-0.9c0.1-0.1,0.1-0.3,0.2-0.4c0.3-0.5,0.7-0.8,1.1-1.2
			c1.1-0.9,2.3-1.7,3.5-2.4c0.2-0.1,0.3-0.2,0.2-0.4c0-0.1,0.1-0.3-0.1-0.4c-0.1,0-0.3,0.1-0.4,0.2c-2,1-3.8,2.1-5.5,3.4
			c-0.7,0.5-1.4,1.1-1.9,1.8c0,0-0.1,0.1-0.1,0.1l0,0c-0.2,0.2-0.4,0.5-0.4,0.7c-0.1,0.4,0,0.7,0.4,0.8c0.4,0.2,0.8,0.2,1.2,0.2
			c0.5,0,0.9,0,1.4,0c2.5-0.2,4.9-0.7,7.4-1.3l0,0c0.6-0.1,1.1-0.2,1.7-0.4c0,0.1-0.1,0.1-0.2,0.1c-1.6,0.4-3.3,0.9-5,1.2
			c-0.9,0.2-1.8,0.3-2.7,0.5c-0.9,0.1-1.9,0.2-2.8,0.2c-0.5,0-0.9-0.1-1.4-0.3c-0.3-0.2-0.4-0.4-0.4-0.8c0.1-0.6,0.5-1,0.8-1.4
			c0.8-0.9,1.8-1.6,2.8-2.3c1.6-1.1,3.3-2,5-2.9c0.2-0.1,0.3-0.3,0.1-0.5c0,0.1-0.1,0.1-0.2,0.2c-2.2,1.1-4.4,2.3-6.5,3.7
			c-1.3,0.8-2.5,1.7-3.5,2.8c-0.4,0.4-0.8,0.9-0.9,1.4c-0.1,0.3-0.1,0.6,0.1,0.9c0.2,0.2,0.4,0.3,0.7,0.3c1,0.2,2.1,0.1,3.1,0.1
			c0.9-0.1,1.7-0.2,2.5-0.3c0.7-0.1,1.4-0.3,2.1-0.4c0.9-0.2,1.8-0.4,2.6-0.6c1-0.3,1.9-0.5,2.9-0.8c0.1,0,0.1,0,0.2,0
			c0.2-0.1,0.4-0.1,0.6-0.2c0.8-0.3,1.6-0.5,2.4-0.7c2.9-1,5.8-2.1,8.6-3.3c1.5-0.6,2.9-1.3,4.3-2c0,0,0.1,0,0.1-0.1
			c0.2-0.1,0.3-0.2,0.5-0.3c0-0.1,0.1-0.1,0.1-0.1c0.7-0.4,1.4-0.8,2.1-1.2c2.3-1.3,4.5-2.6,6.5-4.3c1-0.8,2-1.6,2.5-2.8
			c0-0.1,0-0.3,0-0.4C443.8-98.5,443.5-98.7,443.2-98.8z M429.7-88.7c-0.2,0.1-0.5,0.2-0.7,0.3C429.2-88.4,429.4-88.6,429.7-88.7z
			 M415.1-83.3C415.1-83.3,415.1-83.3,415.1-83.3C415.1-83.3,415.1-83.3,415.1-83.3z M421.9-85.4c-0.5,0.2-0.9,0.3-1.4,0.5
			C421-85.1,421.5-85.3,421.9-85.4c1.1-0.4,2.3-0.8,3.4-1.3C424.2-86.3,423.1-85.8,421.9-85.4z M431.5-89.6
			C431.6-89.6,431.6-89.6,431.5-89.6C431.6-89.6,431.6-89.6,431.5-89.6z M431.6-89.7C431.6-89.7,431.7-89.7,431.6-89.7
			C431.7-89.7,431.6-89.7,431.6-89.7z"/>
		<path d="M431.9-89.7L431.9-89.7L431.9-89.7z"/>
	</g>
</g>
<path d="M323.3-90.2c-9.1,0.9-9.5,1.8-3.6,9.1c-7-6.1-7.9-5.7-8.7,3.8c-0.9-9.5-1.7-9.8-8.7-3.8c5.9-7.3,5.5-8.2-3.6-9.1
	c9.1-0.9,9.5-1.8,3.6-9.1c7,6.1,7.9,5.7,8.7-3.8c0.9,9.5,1.7,9.8,8.7,3.8C313.8-91.9,314.1-91.1,323.3-90.2z"/>
<g>
	<polygon points="363.8,-66.7 352.5,-66.7 354.9,-70.5 361.5,-70.5 	"/>
	<path d="M358.6-108.7l-0.4-6.3c0.5-0.1,0.9-0.5,0.9-1c0-0.5-0.4-1-1-1s-1,0.4-1,1c0,0.5,0.4,0.9,0.9,1l-0.4,6.3
		c-1.3,0.3-2.4,2.3-3.3,5.4h7.4C361-106.3,359.8-108.3,358.6-108.7z"/>
	<path d="M369.5-74.1c-2-2.5-4-4.9-6-7.4c0,0,0-0.1-0.1-0.1c0.2-1.3,0.3-2.6,0.3-3.9c0-6.9-0.8-13-2-17.2h-7.5
		c-1.2,4.2-2,10.3-2,17.2c0,1.3,0.1,2.6,0.3,3.8c-2,2.4-4,4.9-5.9,7.3c-0.4,0.5-0.5,1-0.5,1.6c0.1,1.7,0.2,3.4,0.4,5.1
		c0,0.2,0.1,0.5,0.3,0.6c0.1,0.1,0.4-0.1,0.5-0.2c2.3-1.6,4.6-3.3,6.9-4.9c0.1-0.1,0.2-0.2,0.4-0.2c0.1,0.4,0.2,0.8,0.3,1.2h6.5
		c0.1-0.3,0.1-0.7,0.2-1c0.1,0.1,0.3,0.2,0.4,0.3c2.3,1.6,4.6,3.3,6.9,4.9c0.2,0.1,0.5,0.3,0.5,0.2c0.1-0.1,0.2-0.4,0.3-0.6
		c0.1-1.7,0.2-3.4,0.4-5.1C370.1-73.1,369.9-73.6,369.5-74.1z"/>
</g>
<rect class="st4" width="1360.8" height="808.6"/>
</svg>
