<?xml version="1.0" encoding="utf-8"?>
<!-- Generator: Adobe Illustrator 23.0.2, SVG Export Plug-In . SVG Version: 6.00 Build 0)  -->
<svg version="1.1" id="Layer_1" xmlns="http://www.w3.org/2000/svg" xmlns:xlink="http://www.w3.org/1999/xlink" x="0px" y="0px"
	 viewBox="0 0 354.9 1312.1" style="enable-background:new 0 0 354.9 1312.1;" xml:space="preserve">
<style type="text/css">
	.st0{fill:none;}
	.st1{opacity:0.87;}
	.st2{fill:#FFFFFF;}
	.st3{fill:url(#SVGID_1_);}
	.st4{fill:url(#SVGID_2_);}
	.st5{fill:url(#SVGID_3_);}
</style>
<pattern  y="1312.1" width="102" height="110.6" patternUnits="userSpaceOnUse" id="New_Pattern_2" viewBox="0 -110.6 102 110.6" style="overflow:visible;">
	<g>
		<rect y="-110.6" class="st0" width="102" height="110.6"/>
		<g>
			<path d="M55.7-22.7c-4,3.4-4.4,3.2-4.9-2.2c-0.5,5.4-1,5.6-4.9,2.2c3.4,4.2,3.1,4.7-2,5.2c5.2,0.5,5.4,1,2,5.2
				c4-3.4,4.4-3.2,4.9,2.2c0.5-5.4,1-5.6,4.9-2.2c-3.4-4.2-3.1-4.7,2-5.2C52.5-18,52.4-18.5,55.7-22.7z"/>
			<g>
				<polygon points="79.5,-6.3 75.8,-6.3 74.4,-4.1 80.8,-4.1 				"/>
				<path d="M79.6-24.9h-4.2c0.5-1.8,1.1-2.9,1.9-3.1l0.2-3.6c-0.3-0.1-0.5-0.3-0.5-0.6c0-0.3,0.2-0.6,0.6-0.6
					c0.3,0,0.6,0.3,0.6,0.6c0,0.3-0.2,0.5-0.5,0.6l0.2,3.6C78.5-27.8,79.2-26.6,79.6-24.9z"/>
				<path d="M84.4-7.4c-0.1,1-0.2,1.9-0.2,2.9c-0.1,0.1-0.1,0.3-0.2,0.3c0,0.1-0.2-0.1-0.3-0.1c-1.3-0.9-2.6-1.9-3.9-2.8
					c-0.1-0.1-0.2-0.1-0.2-0.2c-0.1,0.2-0.1,0.4-0.1,0.6h-3.7c-0.1-0.2-0.1-0.5-0.2-0.7c-0.1,0-0.2,0.1-0.2,0.1
					c-1.3,0.9-2.6,1.9-3.9,2.8c-0.1,0.1-0.2,0.2-0.3,0.1C71-4.4,71-4.6,71-4.7c-0.1-1-0.2-1.9-0.2-2.9c0-0.3,0.1-0.6,0.3-0.9
					c1.1-1.4,2.2-2.8,3.4-4.2c-0.1-0.7-0.2-1.4-0.2-2.2c0-3.9,0.5-7.4,1.1-9.8h4.3c0.7,2.4,1.1,5.9,1.1,9.8c0,0.7-0.1,1.5-0.2,2.2
					c0.1,0,0.1,0.1,0.1,0.1c1.1,1.4,2.3,2.8,3.4,4.2C84.3-8,84.4-7.8,84.4-7.4z"/>
			</g>
		</g>
		<g>
			<g>
				<g>
					<g class="st1">
						<circle class="st2" cx="12.3" cy="-17.6" r="5.3"/>
					</g>
					<circle cx="12.3" cy="-17.6" r="5.3"/>
				</g>
				<g>
					<path d="M24.2-22.1c0,0.1,0,0.2,0,0.2c-0.3,0.7-0.9,1.1-1.4,1.6c-1.1,1-2.4,1.7-3.7,2.4c-0.4,0.2-0.8,0.5-1.2,0.7
						c0,0-0.1,0-0.1,0.1c-0.1,0.1-0.2,0.1-0.3,0.2c0,0.1-0.1,0.1-0.1,0.1c-0.8,0.4-1.6,0.8-2.4,1.1c-1.6,0.7-3.2,1.3-4.9,1.9
						c-0.5,0.1-0.9,0.2-1.4,0.4c-0.1,0.1-0.2,0.1-0.3,0.1c-0.1,0-0.1,0-0.1,0c-0.6,0.2-1.1,0.3-1.6,0.5c-0.5,0.1-1,0.2-1.5,0.3
						c-0.4,0.1-0.8,0.2-1.2,0.2c-0.5,0.1-0.9,0.1-1.4,0.2c-0.6,0-1.2,0.1-1.8-0.1c-0.2,0-0.3-0.1-0.4-0.2c-0.1-0.2-0.1-0.3-0.1-0.5
						c0.1-0.3,0.3-0.6,0.5-0.8c0.6-0.6,1.3-1.1,2-1.6c1.2-0.8,2.4-1.5,3.7-2.1c0.1-0.1,0.1-0.1,0.1-0.1c0.1,0.1,0.1,0.2-0.1,0.3
						c-1,0.5-1.9,1-2.8,1.6c-0.6,0.4-1.1,0.8-1.6,1.3C2-14,1.8-13.8,1.8-13.4c0,0.2,0.1,0.3,0.2,0.5c0.3,0.1,0.5,0.2,0.8,0.2
						c0.5,0,1.1-0.1,1.6-0.1c0.5-0.1,1-0.2,1.5-0.3c1-0.2,1.9-0.5,2.8-0.7c0.1,0,0.1,0,0.1-0.1c-0.3,0.1-0.6,0.2-1,0.2l0,0
						c-1.4,0.3-2.8,0.6-4.2,0.7c-0.3,0-0.5,0-0.8,0c-0.2,0-0.5,0-0.7-0.1C2-13.2,1.9-13.3,2-13.6c0-0.1,0.1-0.3,0.2-0.4l0,0L2.3-14
						c0.3-0.4,0.7-0.7,1.1-1c1-0.7,2-1.4,3.1-1.9c0.1-0.1,0.2-0.1,0.2-0.1c0.1,0.1,0.1,0.2,0.1,0.2c0.1,0.1,0,0.2-0.1,0.2
						c-0.7,0.4-1.4,0.9-2,1.4C4.4-15,4.2-14.9,4-14.6C4-14.5,4-14.4,3.9-14.4c-0.1,0.3,0,0.5,0.3,0.5c0.3,0.1,0.6,0.1,1,0.1
						c1.8-0.1,3.4-0.6,5.1-1.1c1.9-0.6,3.8-1.4,5.6-2.3c1-0.5,2-1.1,3-1.7c0.6-0.4,1.1-0.8,1.6-1.3c0.2-0.2,0.3-0.3,0.4-0.5
						c0.1-0.3,0.1-0.5-0.2-0.5c-0.2-0.1-0.5-0.1-0.7-0.1c-0.6,0-1.3,0.1-1.9,0.2c-0.2,0.1-0.5,0.1-0.8,0.2c-0.1,0-0.1,0-0.2-0.1
						c-0.2-0.2-0.2-0.2,0.1-0.3c0.5-0.2,1-0.3,1.5-0.4c0.1,0,0.2,0,0.3-0.1h0.1c0,0.1,0.1,0.1,0.1,0H19c0.1,0.1,0.2,0,0.3,0
						c0.4-0.1,0.8-0.1,1.3-0.2c0.2-0.1,0.5-0.1,0.8-0.1c0.3,0,0.7,0.1,1,0.1c0.3,0.1,0.5,0.3,0.3,0.6c-0.1,0.2-0.3,0.5-0.5,0.6
						c-0.1,0.1-0.1,0.1-0.1,0.2c-0.5,0.5-1.1,0.9-1.6,1.3c-0.9,0.6-1.8,1.2-2.8,1.8c-0.1,0-0.1,0-0.1,0.1c-0.1,0-0.1,0.1-0.1,0.1
						c0.1,0,0.1,0,0.1-0.1c0.1,0,0.1-0.1,0.1-0.1c0.6-0.3,1.1-0.6,1.7-1c1-0.6,2-1.2,2.9-2c0.2-0.2,0.5-0.5,0.7-0.8
						c0.2-0.3,0.1-0.6-0.2-0.7c-0.3-0.1-0.6-0.2-0.9-0.2c-0.6,0-1.3,0.1-1.9,0.2c-1.1,0.2-2.1,0.5-3.2,0.8c-0.1,0-0.3-0.1-0.3-0.2
						c0.2-0.1,0.4-0.1,0.6-0.2c1.3-0.3,2.6-0.6,3.9-0.9c0.8-0.2,1.5-0.2,2.3-0.2c0.2,0,0.5,0.1,0.7,0.1
						C24.1-22.3,24.3-22.2,24.2-22.1z M15.9-16.5c0.1-0.1,0.3-0.1,0.4-0.2C16.1-16.6,16-16.5,15.9-16.5z M8-13.6L8-13.6L8-13.6z
						 M13.8-15.5c-0.6,0.3-1.3,0.5-1.9,0.7c-0.2,0.1-0.5,0.2-0.8,0.3c0.3-0.1,0.5-0.2,0.8-0.3C12.5-15,13.1-15.3,13.8-15.5z
						 M17.3-17.1C17.3-17.1,17.3-17.1,17.3-17.1C17.3-17.1,17.3-17.1,17.3-17.1z M17.3-17.2C17.4-17.2,17.3-17.2,17.3-17.2
						S17.4-17.2,17.3-17.2z"/>
					<path d="M17.5-17.2L17.5-17.2L17.5-17.2z"/>
				</g>
			</g>
		</g>
		<g>
			<g>
				<g>
					<g class="st1">
						<circle class="st2" cx="80.4" cy="-54.5" r="5.3"/>
					</g>
					<circle cx="80.4" cy="-54.5" r="5.3"/>
				</g>
				<g>
					<path d="M92.3-58.9c0,0.1,0,0.2,0,0.2c-0.3,0.7-0.9,1.1-1.4,1.6c-1.1,1-2.4,1.7-3.7,2.4c-0.4,0.2-0.8,0.5-1.2,0.7
						c0,0-0.1,0-0.1,0.1c-0.1,0.1-0.2,0.1-0.3,0.2c0,0.1-0.1,0.1-0.1,0.1c-0.8,0.4-1.6,0.8-2.4,1.1c-1.6,0.7-3.2,1.3-4.9,1.9
						c-0.5,0.1-0.9,0.2-1.4,0.4c-0.1,0.1-0.2,0.1-0.3,0.1c-0.1,0-0.1,0-0.1,0c-0.6,0.2-1.1,0.3-1.6,0.5c-0.5,0.1-1,0.2-1.5,0.3
						c-0.4,0.1-0.8,0.2-1.2,0.2c-0.5,0.1-0.9,0.1-1.4,0.2c-0.6,0-1.2,0.1-1.8-0.1c-0.2,0-0.3-0.1-0.4-0.2c-0.1-0.2-0.1-0.3-0.1-0.5
						c0.1-0.3,0.3-0.6,0.5-0.8c0.6-0.6,1.3-1.1,2-1.6c1.2-0.8,2.4-1.5,3.7-2.1c0.1-0.1,0.1-0.1,0.1-0.1c0.1,0.1,0.1,0.2-0.1,0.3
						c-1,0.5-1.9,1-2.8,1.6c-0.6,0.4-1.1,0.8-1.6,1.3c-0.2,0.2-0.4,0.5-0.5,0.8c0,0.2,0.1,0.3,0.2,0.5c0.3,0.1,0.5,0.2,0.8,0.2
						c0.5,0,1.1-0.1,1.6-0.1c0.5-0.1,1-0.2,1.5-0.3c1-0.2,1.9-0.5,2.8-0.7c0.1,0,0.1,0,0.1-0.1c-0.3,0.1-0.6,0.2-1,0.2l0,0
						c-1.4,0.3-2.8,0.6-4.2,0.7c-0.3,0-0.5,0-0.8,0c-0.2,0-0.5,0-0.7-0.1C70-50,70-50.2,70-50.4c0-0.1,0.1-0.3,0.2-0.4l0,0l0.1-0.1
						c0.3-0.4,0.7-0.7,1.1-1c1-0.7,2-1.4,3.1-1.9c0.1-0.1,0.2-0.1,0.2-0.1c0.1,0.1,0.1,0.2,0.1,0.2c0.1,0.1,0,0.2-0.1,0.2
						c-0.7,0.4-1.4,0.9-2,1.4c-0.2,0.2-0.5,0.4-0.6,0.7C72-51.4,72-51.3,72-51.2c-0.1,0.3,0,0.5,0.3,0.5c0.3,0.1,0.6,0.1,1,0.1
						c1.8-0.1,3.4-0.6,5.1-1.1c1.9-0.6,3.8-1.4,5.6-2.3c1-0.5,2-1.1,3-1.7c0.6-0.4,1.1-0.8,1.6-1.3c0.2-0.2,0.3-0.3,0.4-0.5
						c0.1-0.3,0.1-0.5-0.2-0.5C88.4-58,88.1-58,87.9-58c-0.6,0-1.3,0.1-1.9,0.2c-0.2,0.1-0.5,0.1-0.8,0.2c-0.1,0-0.1,0-0.2-0.1
						c-0.2-0.2-0.2-0.2,0.1-0.3c0.5-0.2,1-0.3,1.5-0.4c0.1,0,0.2,0,0.3-0.1h0.1c0,0.1,0.1,0.1,0.1,0H87c0.1,0.1,0.2,0,0.3,0
						c0.4-0.1,0.8-0.1,1.3-0.2c0.2-0.1,0.5-0.1,0.8-0.1c0.3,0,0.7,0.1,1,0.1c0.3,0.1,0.5,0.3,0.3,0.6c-0.1,0.2-0.3,0.5-0.5,0.6
						c-0.1,0.1-0.1,0.1-0.1,0.2c-0.5,0.5-1.1,0.9-1.6,1.3c-0.9,0.6-1.8,1.2-2.8,1.8c-0.1,0-0.1,0-0.1,0.1c-0.1,0-0.1,0.1-0.1,0.1
						c0.1,0,0.1,0,0.1-0.1c0.1,0,0.1-0.1,0.1-0.1c0.6-0.3,1.1-0.6,1.7-1c1-0.6,2-1.2,2.9-2c0.2-0.2,0.5-0.5,0.7-0.8
						c0.2-0.3,0.1-0.6-0.2-0.7c-0.3-0.1-0.6-0.2-0.9-0.2c-0.6,0-1.3,0.1-1.9,0.2c-1.1,0.2-2.1,0.5-3.2,0.8c-0.1,0-0.3-0.1-0.3-0.2
						c0.2-0.1,0.4-0.1,0.6-0.2c1.3-0.3,2.6-0.6,3.9-0.9c0.8-0.2,1.5-0.2,2.3-0.2c0.2,0,0.5,0.1,0.7,0.1
						C92.1-59.2,92.3-59.1,92.3-58.9z M83.9-53.3c0.1-0.1,0.3-0.1,0.4-0.2C84.1-53.4,84-53.3,83.9-53.3z M76-50.4L76-50.4L76-50.4z
						 M81.8-52.3c-0.6,0.3-1.3,0.5-1.9,0.7c-0.2,0.1-0.5,0.2-0.8,0.3c0.3-0.1,0.5-0.2,0.8-0.3C80.5-51.8,81.2-52.1,81.8-52.3z
						 M85.3-54C85.4-54,85.4-54,85.3-54C85.4-54,85.4-54,85.3-54z M85.4-54.1C85.4-54.1,85.4-54.1,85.4-54.1S85.4-54.1,85.4-54.1z"
						/>
					<path d="M85.5-54.1L85.5-54.1L85.5-54.1z"/>
				</g>
			</g>
			<path d="M21.7-59.5c-4,3.4-4.4,3.2-4.9-2.2c-0.5,5.4-1,5.6-4.9,2.2c3.4,4.2,3.1,4.7-2,5.2c5.2,0.5,5.4,1,2,5.2
				c4-3.4,4.4-3.2,4.9,2.2c0.5-5.4,1-5.6,4.9-2.2c-3.4-4.2-3.1-4.7,2-5.2C18.5-54.8,18.4-55.3,21.7-59.5z"/>
			<g>
				<polygon points="45.5,-43.1 41.7,-43.1 40.4,-41 46.8,-41 				"/>
				<path d="M45.6-61.8h-4.2c0.5-1.8,1.1-2.9,1.9-3.1l0.2-3.6C43.2-68.5,43-68.7,43-69c0-0.3,0.2-0.6,0.6-0.6s0.6,0.3,0.6,0.6
					c0,0.3-0.2,0.5-0.5,0.6l0.2,3.6C44.5-64.6,45.2-63.5,45.6-61.8z"/>
				<path d="M50.4-44.3c-0.1,1-0.2,1.9-0.2,2.9C50.1-41.3,50-41.1,50-41c0,0.1-0.2-0.1-0.3-0.1c-1.3-0.9-2.6-1.9-3.9-2.8
					c-0.1-0.1-0.2-0.1-0.2-0.2c-0.1,0.2-0.1,0.4-0.1,0.6h-3.7c-0.1-0.2-0.1-0.5-0.2-0.7c-0.1,0-0.2,0.1-0.2,0.1
					c-1.3,0.9-2.6,1.9-3.9,2.8c-0.1,0.1-0.2,0.2-0.3,0.1C37-41.3,37-41.4,37-41.5c-0.1-1-0.2-1.9-0.2-2.9c0-0.3,0.1-0.6,0.3-0.9
					c1.1-1.4,2.2-2.8,3.4-4.2c-0.1-0.7-0.2-1.4-0.2-2.2c0-3.9,0.5-7.4,1.1-9.8h4.3c0.7,2.4,1.1,5.9,1.1,9.8c0,0.7-0.1,1.5-0.2,2.2
					c0.1,0,0.1,0.1,0.1,0.1c1.1,1.4,2.3,2.8,3.4,4.2C50.3-44.9,50.4-44.6,50.4-44.3z"/>
			</g>
		</g>
		<g>
			<path d="M89.7-96.4c-4,3.4-4.4,3.2-4.9-2.2c-0.5,5.4-1,5.6-4.9,2.2c3.4,4.2,3.1,4.7-2,5.2c5.2,0.5,5.4,1,2,5.2
				c4-3.4,4.4-3.2,4.9,2.2c0.5-5.4,1-5.6,4.9-2.2c-3.4-4.2-3.1-4.7,2-5.2C86.6-91.7,86.4-92.2,89.7-96.4z"/>
		</g>
		<g>
			<g>
				<g>
					<g class="st1">
						<circle class="st2" cx="46.4" cy="-91.3" r="5.3"/>
					</g>
					<circle cx="46.4" cy="-91.3" r="5.3"/>
				</g>
				<g>
					<path d="M58.2-95.8c0,0.1,0,0.2,0,0.2c-0.3,0.7-0.9,1.1-1.4,1.6c-1.1,1-2.4,1.7-3.7,2.4c-0.4,0.2-0.8,0.5-1.2,0.7
						c0,0-0.1,0-0.1,0.1c-0.1,0.1-0.2,0.1-0.3,0.2c0,0.1-0.1,0.1-0.1,0.1c-0.8,0.4-1.6,0.8-2.4,1.1c-1.6,0.7-3.2,1.3-4.9,1.9
						c-0.5,0.1-0.9,0.2-1.4,0.4c-0.1,0.1-0.2,0.1-0.3,0.1c-0.1,0-0.1,0-0.1,0c-0.6,0.2-1.1,0.3-1.6,0.5c-0.5,0.1-1,0.2-1.5,0.3
						c-0.4,0.1-0.8,0.2-1.2,0.2c-0.5,0.1-0.9,0.1-1.4,0.2c-0.6,0-1.2,0.1-1.8-0.1c-0.2,0-0.3-0.1-0.4-0.2c-0.1-0.2-0.1-0.3-0.1-0.5
						c0.1-0.3,0.3-0.6,0.5-0.8c0.6-0.6,1.3-1.1,2-1.6c1.2-0.8,2.4-1.5,3.7-2.1c0.1-0.1,0.1-0.1,0.1-0.1c0.1,0.1,0.1,0.2-0.1,0.3
						c-1,0.5-1.9,1-2.8,1.6c-0.6,0.4-1.1,0.8-1.6,1.3c-0.2,0.2-0.4,0.5-0.5,0.8c0,0.2,0.1,0.3,0.2,0.5c0.3,0.1,0.5,0.2,0.8,0.2
						c0.5,0,1.1-0.1,1.6-0.1c0.5-0.1,1-0.2,1.5-0.3c1-0.2,1.9-0.5,2.8-0.7c0.1,0,0.1,0,0.1-0.1c-0.3,0.1-0.6,0.2-1,0.2l0,0
						c-1.4,0.3-2.8,0.6-4.2,0.7c-0.3,0-0.5,0-0.8,0c-0.2,0-0.5,0-0.7-0.1C36-86.9,35.9-87,36-87.3c0-0.1,0.1-0.3,0.2-0.4l0,0
						l0.1-0.1c0.3-0.4,0.7-0.7,1.1-1c1-0.7,2-1.4,3.1-1.9c0.1-0.1,0.2-0.1,0.2-0.1c0.1,0.1,0.1,0.2,0.1,0.2c0.1,0.1,0,0.2-0.1,0.2
						c-0.7,0.4-1.4,0.9-2,1.4c-0.2,0.2-0.5,0.4-0.6,0.7c-0.1,0.1-0.1,0.2-0.1,0.2c-0.1,0.3,0,0.5,0.3,0.5c0.3,0.1,0.6,0.1,1,0.1
						c1.8-0.1,3.4-0.6,5.1-1.1c1.9-0.6,3.8-1.4,5.6-2.3c1-0.5,2-1.1,3-1.7c0.6-0.4,1.1-0.8,1.6-1.3c0.2-0.2,0.3-0.3,0.4-0.5
						c0.1-0.3,0.1-0.5-0.2-0.5c-0.2-0.1-0.5-0.1-0.7-0.1c-0.6,0-1.3,0.1-1.9,0.2c-0.2,0.1-0.5,0.1-0.8,0.2c-0.1,0-0.1,0-0.2-0.1
						c-0.2-0.2-0.2-0.2,0.1-0.3c0.5-0.2,1-0.3,1.5-0.4c0.1,0,0.2,0,0.3-0.1h0.1c0,0.1,0.1,0.1,0.1,0H53c0.1,0.1,0.2,0,0.3,0
						c0.4-0.1,0.8-0.1,1.3-0.2c0.2-0.1,0.5-0.1,0.8-0.1c0.3,0,0.7,0.1,1,0.1c0.3,0.1,0.5,0.3,0.3,0.6c-0.1,0.2-0.3,0.5-0.5,0.6
						c-0.1,0.1-0.1,0.1-0.1,0.2c-0.5,0.5-1.1,0.9-1.6,1.3c-0.9,0.6-1.8,1.2-2.8,1.8c-0.1,0-0.1,0-0.1,0.1c-0.1,0-0.1,0.1-0.1,0.1
						c0.1,0,0.1,0,0.1-0.1c0.1,0,0.1-0.1,0.1-0.1c0.6-0.3,1.1-0.6,1.7-1c1-0.6,2-1.2,2.9-2c0.2-0.2,0.5-0.5,0.7-0.8
						c0.2-0.3,0.1-0.6-0.2-0.7c-0.3-0.1-0.6-0.2-0.9-0.2c-0.6,0-1.3,0.1-1.9,0.2c-1.1,0.2-2.1,0.5-3.2,0.8c-0.1,0-0.3-0.1-0.3-0.2
						c0.2-0.1,0.4-0.1,0.6-0.2c1.3-0.3,2.6-0.6,3.9-0.9c0.8-0.2,1.5-0.2,2.3-0.2c0.2,0,0.5,0.1,0.7,0.1C58.1-96,58.3-95.9,58.2-95.8
						z M49.9-90.2c0.1-0.1,0.3-0.1,0.4-0.2C50.1-90.3,50-90.2,49.9-90.2z M42-87.3L42-87.3L42-87.3z M47.8-89.2
						c-0.6,0.3-1.3,0.5-1.9,0.7c-0.2,0.1-0.5,0.2-0.8,0.3c0.3-0.1,0.5-0.2,0.8-0.3C46.5-88.7,47.2-89,47.8-89.2z M51.3-90.8
						C51.4-90.8,51.4-90.8,51.3-90.8C51.4-90.8,51.4-90.8,51.3-90.8z M51.4-90.9C51.4-90.9,51.4-90.9,51.4-90.9S51.4-90.9,51.4-90.9
						z"/>
					<path d="M51.5-90.9L51.5-90.9L51.5-90.9z"/>
				</g>
			</g>
			<g>
				<polygon points="11.5,-80 7.7,-80 6.4,-77.8 12.8,-77.8 				"/>
				<path d="M11.6-98.6H7.4c0.5-1.8,1.1-2.9,1.9-3.1l0.2-3.6c-0.3-0.1-0.5-0.3-0.5-0.6c0-0.3,0.2-0.6,0.6-0.6c0.3,0,0.6,0.3,0.6,0.6
					c0,0.3-0.2,0.5-0.5,0.6l0.2,3.6C10.5-101.5,11.2-100.3,11.6-98.6z"/>
				<path d="M16.4-81.1c-0.1,1-0.2,1.9-0.2,2.9c-0.1,0.1-0.1,0.3-0.2,0.3c0,0.1-0.2-0.1-0.3-0.1c-1.3-0.9-2.6-1.9-3.9-2.8
					c-0.1-0.1-0.2-0.1-0.2-0.2c-0.1,0.2-0.1,0.4-0.1,0.6H7.7c-0.1-0.2-0.1-0.5-0.2-0.7c-0.1,0-0.2,0.1-0.2,0.1
					C6-80,4.7-79.1,3.4-78.2C3.3-78.1,3.2-78,3.1-78c-0.1-0.1-0.2-0.2-0.2-0.3c-0.1-1-0.2-1.9-0.2-2.9c0-0.3,0.1-0.6,0.3-0.9
					c1.1-1.4,2.2-2.8,3.4-4.2c-0.1-0.7-0.2-1.4-0.2-2.2c0-3.9,0.5-7.4,1.1-9.8h4.3c0.7,2.4,1.1,5.9,1.1,9.8c0,0.7-0.1,1.5-0.2,2.2
					c0.1,0,0.1,0.1,0.1,0.1c1.1,1.4,2.3,2.8,3.4,4.2C16.3-81.7,16.4-81.5,16.4-81.1z"/>
			</g>
		</g>
	</g>
</pattern>
<g>
	<g>
		<g class="st1">
			<circle class="st2" cx="-106.4" cy="-98.1" r="5.3"/>
		</g>
		<g>
			<circle cx="-106.4" cy="-98.1" r="5.3"/>
		</g>
	</g>
	<g>
		<path d="M-94.8-102.9c-0.2-0.1-0.5-0.1-0.7-0.1c-0.8,0-1.5,0.1-2.3,0.2c-1.3,0.2-2.6,0.5-3.9,0.9c-0.2,0.1-0.4,0.1-0.6,0.2
			c0,0.1,0.2,0.2,0.3,0.2c1.1-0.3,2.1-0.6,3.2-0.8c0.6-0.1,1.3-0.2,1.9-0.2c0.3,0,0.6,0.1,0.9,0.2c0.3,0.2,0.5,0.4,0.2,0.7
			c-0.2,0.3-0.5,0.6-0.7,0.8c-0.9,0.8-1.9,1.4-2.9,2c-0.6,0.3-1.1,0.7-1.7,1c-0.1,0-0.1,0.1-0.1,0.1c0,0.1-0.1,0.1-0.1,0.1
			c0,0,0.1-0.1,0.1-0.1c0-0.1,0.1-0.1,0.1-0.1c1-0.6,1.9-1.1,2.8-1.8c0.6-0.4,1.1-0.7,1.6-1.3c0-0.1,0.1-0.1,0.1-0.2
			c0.2-0.2,0.3-0.4,0.5-0.6c0.2-0.3,0.1-0.5-0.3-0.6c-0.3-0.1-0.7-0.1-1-0.1c-0.3,0-0.6,0-0.8,0.1c-0.5,0.1-0.9,0.1-1.3,0.2
			c-0.1,0-0.2,0.1-0.3,0h-0.1c0,0.1-0.1,0.1-0.1,0h-0.1c-0.1,0.1-0.2,0.1-0.3,0.1c-0.5,0.1-1,0.2-1.5,0.4c-0.3,0.1-0.3,0.1-0.1,0.3
			c0.1,0.1,0.1,0.1,0.2,0.1c0.3-0.1,0.6-0.1,0.8-0.2c0.6-0.1,1.3-0.2,1.9-0.2c0.2,0,0.5,0,0.7,0.1c0.3,0.1,0.3,0.2,0.2,0.5
			c-0.1,0.2-0.2,0.3-0.4,0.5c-0.5,0.5-1,0.9-1.6,1.3c-1,0.6-1.9,1.2-3,1.7c-1.8,0.9-3.7,1.6-5.6,2.3c-1.6,0.5-3.3,1-5.1,1.1
			c-0.3,0-0.6,0-1-0.1c-0.3-0.1-0.3-0.2-0.3-0.5c0.1-0.1,0.1-0.2,0.1-0.2c0.2-0.3,0.4-0.5,0.6-0.7c0.6-0.5,1.3-1,2-1.4
			c0.1-0.1,0.2-0.1,0.1-0.2c0-0.1,0.1-0.2-0.1-0.2c-0.1,0-0.2,0.1-0.2,0.1c-1.1,0.6-2.2,1.2-3.1,1.9c-0.4,0.3-0.8,0.6-1.1,1
			l-0.1,0.1l0,0c-0.1,0.1-0.2,0.3-0.2,0.4c-0.1,0.2,0,0.4,0.2,0.5c0.2,0.1,0.5,0.1,0.7,0.1c0.3,0,0.5,0,0.8,0
			c1.4-0.1,2.8-0.4,4.2-0.7l0,0c0.3-0.1,0.6-0.1,1-0.2c0,0.1-0.1,0.1-0.1,0.1c-0.9,0.2-1.9,0.5-2.8,0.7c-0.5,0.1-1,0.2-1.5,0.3
			c-0.5,0.1-1.1,0.1-1.6,0.1c-0.3,0-0.5-0.1-0.8-0.2c-0.2-0.1-0.2-0.2-0.2-0.5c0.1-0.3,0.3-0.6,0.5-0.8c0.5-0.5,1-0.9,1.6-1.3
			c0.9-0.6,1.9-1.1,2.8-1.6c0.1-0.1,0.2-0.2,0.1-0.3c0,0.1-0.1,0.1-0.1,0.1c-1.3,0.6-2.5,1.3-3.7,2.1c-0.7,0.5-1.4,1-2,1.6
			c-0.2,0.2-0.5,0.5-0.5,0.8c-0.1,0.2-0.1,0.3,0.1,0.5c0.1,0.1,0.2,0.2,0.4,0.2c0.6,0.1,1.2,0.1,1.8,0.1c0.5-0.1,1-0.1,1.4-0.2
			c0.4-0.1,0.8-0.2,1.2-0.2c0.5-0.1,1-0.2,1.5-0.3c0.6-0.2,1.1-0.3,1.6-0.5c0.1,0,0.1,0,0.1,0c0.1-0.1,0.2-0.1,0.3-0.1
			c0.5-0.2,0.9-0.3,1.4-0.4c1.6-0.6,3.3-1.2,4.9-1.9c0.9-0.3,1.6-0.7,2.4-1.1c0,0,0.1,0,0.1-0.1c0.1-0.1,0.2-0.1,0.3-0.2
			c0-0.1,0.1-0.1,0.1-0.1c0.4-0.2,0.8-0.5,1.2-0.7c1.3-0.7,2.6-1.5,3.7-2.4c0.6-0.5,1.1-0.9,1.4-1.6c0-0.1,0-0.2,0-0.2
			C-94.5-102.7-94.7-102.8-94.8-102.9z M-102.5-97.1c-0.1,0.1-0.3,0.1-0.4,0.2C-102.8-96.9-102.7-97.1-102.5-97.1z M-110.8-94
			L-110.8-94L-110.8-94z M-107-95.2c-0.3,0.1-0.5,0.2-0.8,0.3C-107.5-95.1-107.2-95.2-107-95.2c0.6-0.2,1.3-0.5,1.9-0.7
			C-105.6-95.8-106.3-95.5-107-95.2z M-101.5-97.6C-101.4-97.6-101.4-97.6-101.5-97.6C-101.4-97.6-101.4-97.6-101.5-97.6z
			 M-101.4-97.7C-101.4-97.7-101.4-97.7-101.4-97.7C-101.4-97.7-101.4-97.7-101.4-97.7z"/>
		<path d="M-101.3-97.7L-101.3-97.7L-101.3-97.7z"/>
	</g>
</g>
<path d="M-163-98c-5.2,0.5-5.4,1-2,5.2c-4-3.5-4.5-3.2-4.9,2.2c-0.5-5.4-1-5.6-4.9-2.2c3.4-4.2,3.1-4.7-2-5.2c5.2-0.5,5.4-1,2-5.2
	c4,3.5,4.5,3.2,4.9-2.2c0.5,5.4,1,5.6,4.9,2.2C-168.5-98.9-168.3-98.5-163-98z"/>
<g>
	<polygon points="-140,-84.6 -146.4,-84.6 -145.1,-86.8 -141.3,-86.8 	"/>
	<path d="M-143-108.5l-0.2-3.6c0.3-0.1,0.5-0.3,0.5-0.6s-0.2-0.6-0.6-0.6c-0.3,0-0.6,0.2-0.6,0.6c0,0.3,0.2,0.5,0.5,0.6l-0.2,3.6
		c-0.7,0.2-1.4,1.3-1.9,3.1h4.2C-141.6-107.1-142.3-108.3-143-108.5z"/>
	<path d="M-136.8-88.8c-1.1-1.4-2.3-2.8-3.4-4.2c0,0,0-0.1-0.1-0.1c0.1-0.7,0.2-1.5,0.2-2.2c0-3.9-0.5-7.4-1.1-9.8h-4.3
		c-0.7,2.4-1.1,5.9-1.1,9.8c0,0.7,0.1,1.5,0.2,2.2c-1.1,1.4-2.3,2.8-3.4,4.2c-0.2,0.3-0.3,0.6-0.3,0.9c0.1,1,0.1,1.9,0.2,2.9
		c0,0.1,0.1,0.3,0.2,0.3c0.1,0.1,0.2-0.1,0.3-0.1c1.3-0.9,2.6-1.9,3.9-2.8c0.1-0.1,0.1-0.1,0.2-0.1c0.1,0.2,0.1,0.5,0.2,0.7h3.7
		c0.1-0.2,0.1-0.4,0.1-0.6c0.1,0.1,0.2,0.1,0.2,0.2c1.3,0.9,2.6,1.9,3.9,2.8c0.1,0.1,0.3,0.2,0.3,0.1c0.1-0.1,0.1-0.2,0.2-0.3
		c0.1-1,0.1-1.9,0.2-2.9C-136.4-88.2-136.5-88.5-136.8-88.8z"/>
</g>
<rect class="st2" width="354.9" height="1312.1"/>
<pattern  id="SVGID_1_" xlink:href="#New_Pattern_2" patternTransform="matrix(1 0 0 1 0 -6.1277)">
</pattern>
<rect class="st3" width="354.9" height="1312.1"/>
<g>
	
		<linearGradient id="SVGID_2_" gradientUnits="userSpaceOnUse" x1="912.7827" y1="395.3874" x2="1400.4089" y2="395.3874" gradientTransform="matrix(-0.6711 0.9313 -1.1406 -0.9479 1550.8862 -556.0088)">
		<stop  offset="0" style="stop-color:#00FF66"/>
		<stop  offset="1" style="stop-color:#FF90FF"/>
	</linearGradient>
	<path class="st4" d="M222.1,196.4c0.4,0.3,0.8,0.5,1.2,0.7c3.4,1.9,5.8,4.9,6.6,8.6c0,0.2,0.1,0.3,0.1,0.5c0.5,2.1-0.4,4.4-2.3,5.6
		c-3.4,2.3-7.7,2.9-11.4,1.5c-3.3-1.2-6.8-1.9-10.3-2.2c-5.3-0.3-10.2-2.6-13.6-6.4c-1-1.1-3.1-3.1-6.6-2.2
		c-4.6,1.1-8.4,4.8-12.1,7.9c-3.9,3.2-7.8,6.4-10.6,10.7c-2.4,3.7-3.6,7.7-3.7,11.7c-0.1,4.7,1.3,8.9,3.3,12.7
		c2.6,4.9,6.3,8.7,9.6,13c3.3,4.3,5.9,9,6.8,14.7c0.6,3.6,0.8,7.3,0.4,11.1l2.7-1.8c2.9-2,6.5-2.7,9.8-1.9
		c13.5,3.2,28.6-1.6,38-13.4c5.7-7.1-2.2-17.5,8.1-23.7c16.6-10.1,21.6,20.2,36.2,19.8c22.6-0.5,6.1-22.4,21-40.9
		c6.9-8.5,29.5,3.9,29.5-29.5c0-7.3,84.7-29.6,105.6-50.2c10.6-10.6,4.7-24,5-37.4c0.1-4.7,4.2-6.3,8.6-8.3c2.9-1.4,7-5.1,8.9-7.4
		c1.4-1.7,2.7-5.8,3.9-7.6c1.7-2.4,4.7-2.5,6.8-0.9l0.1,0c7.5,5.6,9.9,5.9,14.9,9.1c0.7-0.7,1.4-1.3,2.1-2
		c7.5-7.1,15.3-13.8,23.1-20.4c7.8-6.6,15.6-13.1,23.2-19.9c4.7-4.2,9.3-8.5,13.8-12.9c-0.3-0.2-0.6-0.3-0.9-0.5
		c-4.5-2.3,9.2-11.5,1-20c-16.2-16.6-38-9.2-44.4-11.3c-6.8-2.2-3.3-7.5-3-10.6c0.5-5.4-1.9-9.2-4.9-11.3
		c-8.3-5.7-25.5-5.5-27.8,7.3c-1.4,7.8,8.7,13.8,8.4,21.2c-0.4,8.7-1,10.2-3.4,10.8c-1.8,0.4-3.6,0.3-5.3-0.3
		c-6.7-2.4-22.1-9-32.1,2.3c-9,10.2-10.9,18.7-10.8,24.2c0.1,4.8-4.6,8.7-9.3,7.6c-0.6-0.1-1.1-0.3-1.6-0.6
		c-2.9-1.7-6.3-3.6-8.7-4.5c-6.1-2.3-10.5-7.3-12.2-13.5c-1-3.8-3.3-7.3-6.7-9.9c-7.5-5.6-14.2-7.3-23.1-4.6
		c-3.8,1.1-30.9,31.1-64.9,5.1c-7.4-5.7-14.9-1.9-20,4.1c-6.1,7-5.2,17.3,1.9,22.6c0.5,0.3,0.9,0.6,1.4,0.9
		c3.7,2.2,6.1,5.9,6.4,10.2c0.7,10.8,5.8,21,15.1,27.9c0.7,0.5,1.5,1.1,2.3,1.5c6.8,4.3,10.8,11.7,11.2,19.7c0.2,2.6-1.4,7.8-2.8,10
		c-5.2,8.5-24.3,19.2-30.4,14.6c-4.1-3.2-5-11.7-9.5-15.1c-10.4-7.9-25.6-5.9-34.4,4.6c-9,10.8-7.5,26.2,3.2,34.2
		c0.5,0.4,1,0.7,1.5,1c2,1.2,2.4,3.8,1.1,5.8l-0.1,0.1c-2.2,3.2-5.7,5.5-9.5,6.2c-3,0.6-6,2.2-8,5C216,185.2,217,192.6,222.1,196.4z
		"/>
</g>
<g>
	
		<linearGradient id="SVGID_3_" gradientUnits="userSpaceOnUse" x1="1696.5161" y1="126.4882" x2="2184.1423" y2="126.4882" gradientTransform="matrix(0.7691 -0.8522 1.0299 1.0672 -1650.1321 1887.4121)">
		<stop  offset="0" style="stop-color:#00FF66"/>
		<stop  offset="1" style="stop-color:#FF90FF"/>
	</linearGradient>
	<path class="st5" d="M149.7,294.4c-2-5.1-5.3-9.4-8.1-14c-2.9-4.6-4.9-9.6-5.2-15.4c-0.2-3.6,0-7.4,0.8-11.1l-2.8,1.5
		c-3.1,1.6-6.7,2-9.9,0.8c-13.1-4.6-28.6-1.5-39.2,9.1c-6.4,6.4,0.3,17.6-10.6,22.7c-17.6,8.3-19.2-22.4-33.8-23.6
		c-22.5-2-8.6,21.6-25.4,38.4c-7.7,7.7-28.9-7.1-32.5,26.1c-0.8,7.2-87.5,20.1-110.5,38.4c-11.7,9.3-7.3,23.4-9,36.7
		c-0.6,4.6-4.9,5.8-9.4,7.3c-3.1,1-7.6,4.3-9.6,6.3c-1.5,1.5-3.3,5.4-4.7,7.1c-2,2.2-4.9,2-6.8,0.2l-0.1,0c-6.8-6.4-9.2-7-13.8-10.7
		c-0.8,0.6-1.5,1.2-2.3,1.8c-8.2,6.2-16.7,12-25.2,17.8c-8.4,5.7-16.9,11.4-25.2,17.2c-5.1,3.6-10.2,7.4-15.1,11.3
		c0.3,0.2,0.6,0.4,0.9,0.6c4.3,2.8-10.4,10.4-3.2,19.8c14.3,18.3,36.8,13.3,42.9,16.1c6.5,2.9,2.4,7.8,1.8,10.8
		c-1.1,5.3,0.9,9.4,3.6,11.7c7.6,6.6,24.7,8.2,28.5-4.2c2.3-7.6-7.1-14.7-6.1-22c1.3-8.6,2.1-10,4.6-10.4c1.8-0.2,3.7,0.1,5.3,0.9
		c6.4,3.1,21,11.3,32.2,1.2c10.1-9.1,12.8-17.4,13.4-22.9c0.5-4.8,5.5-8.2,10.1-6.6c0.6,0.2,1.1,0.5,1.5,0.8c2.7,2,5.9,4.2,8.1,5.4
		c5.8,3,9.7,8.4,10.6,14.8c0.6,3.9,2.5,7.7,5.6,10.6c6.8,6.4,13.3,8.9,22.5,7.1c3.8-0.7,32.1-25.8,61.9-0.8v-68.3
		c-3.9-4.8-5.8-11-5.5-17.3c0.1-2.6,2.2-7.6,3.8-9.7c6.1-7.9,26.3-16.5,31.8-11.2c3.8,3.6,3.7,12.1,7.8,16c9.5,9,24.8,8.7,34.7-0.8
		c10.1-9.7,10.3-25.2,0.6-34.3c-0.4-0.4-0.9-0.8-1.4-1.2c-1.8-1.4-2-4.1-0.4-5.9l0.1-0.1c2.6-3,6.3-4.8,10.2-5.1
		c3.1-0.2,6.2-1.6,8.5-4c4.5-4.9,4.4-12.3-0.3-16.7c-0.4-0.3-0.7-0.6-1.1-0.9c-3.1-2.2-5.2-5.5-5.6-9.3c0-0.2,0-0.3,0-0.5
		c-0.3-2.1,0.9-4.3,2.9-5.3c3.7-1.9,8-2,11.5-0.2c3.2,1.6,6.6,2.7,10,3.3c5.2,0.9,9.9,3.7,12.8,7.8c0.8,1.2,2.7,3.4,6.3,2.9
		c4.7-0.6,8.8-3.9,12.9-6.5c4.2-2.7,8.5-5.5,11.7-9.5c2.8-3.4,4.5-7.3,5-11.2C152.2,302.8,151.2,298.4,149.7,294.4z"/>
</g>
</svg>
