<?xml version="1.0" encoding="utf-8"?>
<!-- Generator: Adobe Illustrator 23.0.1, SVG Export Plug-In . SVG Version: 6.00 Build 0)  -->
<svg version="1.1" id="Layer_1" xmlns="http://www.w3.org/2000/svg" xmlns:xlink="http://www.w3.org/1999/xlink" x="0px" y="0px"
	 viewBox="0 0 354.9 1312.1" style="enable-background:new 0 0 354.9 1312.1;" xml:space="preserve">
<style type="text/css">
	.st0{fill:none;}
	.st1{opacity:0.87;}
	.st2{fill:#FFFFFF;}
	.st3{fill:#FF6EFF;}
	.st4{fill:url(#New_Pattern);}
</style>
<pattern  x="-507" y="790.7" width="101" height="82" patternUnits="userSpaceOnUse" id="New_Pattern" viewBox="0 -85.2 101 82" style="overflow:visible;">
	<g>
		<rect y="-85.2" class="st0" width="101" height="82"/>
		<g>
			<g>
				<path d="M95.3,0h-4.4c0.5-1.9,1.2-3.1,2-3.2L93.1-7c-0.3-0.1-0.5-0.3-0.5-0.6c0-0.4,0.2-0.6,0.6-0.6s0.6,0.3,0.6,0.6
					S93.5-7.1,93.2-7l0.2,3.8C94.2-3,94.9-1.8,95.3,0z"/>
			</g>
		</g>
		<g>
			<g>
				<g>
					<g class="st1">
						<circle class="st2" cx="81.5" cy="-33.3" r="5.6"/>
					</g>
					<circle cx="81.5" cy="-33.3" r="5.6"/>
				</g>
				<g>
					<path d="M94-38c0,0.1,0,0.2,0,0.2c-0.3,0.7-0.9,1.2-1.5,1.7c-1.2,1-2.5,1.8-3.9,2.6c-0.4,0.2-0.8,0.5-1.3,0.7
						c0,0-0.1,0-0.1,0.1c-0.1,0.1-0.2,0.1-0.3,0.2c0,0.1-0.1,0.1-0.1,0.1c-0.8,0.4-1.7,0.8-2.6,1.2c-1.7,0.7-3.4,1.4-5.2,2
						c-0.5,0.1-1,0.2-1.4,0.4c-0.1,0.1-0.2,0.1-0.4,0.1c-0.1,0-0.1,0-0.1,0c-0.6,0.2-1.1,0.3-1.7,0.5c-0.5,0.1-1,0.2-1.6,0.4
						c-0.4,0.1-0.8,0.2-1.3,0.2c-0.5,0.1-1,0.1-1.5,0.2c-0.6,0-1.3,0.1-1.9-0.1c-0.2,0-0.3-0.1-0.4-0.2c-0.1-0.2-0.1-0.4-0.1-0.5
						c0.1-0.3,0.3-0.6,0.5-0.8c0.6-0.7,1.3-1.2,2.1-1.7c1.3-0.8,2.6-1.6,3.9-2.2c0.1-0.1,0.1-0.1,0.1-0.1c0.1,0.1,0.1,0.2-0.1,0.3
						c-1,0.5-2,1.1-3,1.7c-0.6,0.4-1.2,0.8-1.7,1.4c-0.2,0.2-0.4,0.5-0.5,0.8c0,0.2,0.1,0.4,0.2,0.5c0.3,0.1,0.5,0.2,0.8,0.2
						c0.5,0,1.1-0.1,1.7-0.1c0.5-0.1,1.1-0.2,1.6-0.3c1-0.2,2-0.5,3-0.7c0.1,0,0.1,0,0.1-0.1c-0.4,0.1-0.7,0.2-1,0.2l0,0
						c-1.5,0.4-2.9,0.7-4.4,0.8c-0.3,0-0.5,0-0.8,0c-0.2,0-0.5,0-0.7-0.1c-0.2-0.1-0.3-0.2-0.2-0.5c0-0.1,0.1-0.3,0.2-0.4l0,0
						l0.1-0.1c0.3-0.4,0.7-0.8,1.1-1.1c1-0.8,2.1-1.4,3.3-2c0.1-0.1,0.2-0.1,0.2-0.1c0.1,0.1,0.1,0.2,0.1,0.2c0.1,0.1,0,0.2-0.1,0.2
						c-0.7,0.4-1.4,0.9-2.1,1.4c-0.2,0.2-0.5,0.4-0.7,0.7c-0.1,0.1-0.1,0.2-0.1,0.2c-0.1,0.3,0,0.5,0.3,0.5c0.4,0.1,0.7,0.1,1,0.1
						c1.9-0.1,3.6-0.6,5.3-1.1c2-0.7,4-1.4,5.9-2.4c1.1-0.5,2.1-1.1,3.1-1.8c0.6-0.4,1.2-0.8,1.7-1.3c0.2-0.2,0.3-0.4,0.4-0.5
						c0.1-0.3,0.1-0.5-0.2-0.5C89.9-37,89.6-37,89.4-37c-0.7,0-1.4,0.1-2,0.2c-0.2,0.1-0.5,0.1-0.8,0.2c-0.1,0-0.1,0-0.2-0.1
						c-0.2-0.2-0.2-0.2,0.1-0.3c0.5-0.2,1-0.3,1.6-0.4c0.1,0,0.2,0,0.3-0.1h0.1c0,0.1,0.1,0.1,0.1,0h0.1c0.1,0.1,0.2,0,0.3,0
						c0.4-0.1,0.8-0.1,1.3-0.2c0.2-0.1,0.5-0.1,0.8-0.1c0.4,0,0.7,0.1,1.1,0.1c0.4,0.1,0.5,0.3,0.3,0.6c-0.1,0.2-0.3,0.5-0.5,0.7
						c-0.1,0.1-0.1,0.1-0.1,0.2c-0.5,0.5-1.1,0.9-1.7,1.3C89-34.2,88-33.6,87-33c-0.1,0-0.1,0-0.1,0.1c-0.1,0-0.1,0.1-0.1,0.1
						c0.1,0,0.1,0,0.1-0.1C87-32.9,87-33,87-33c0.6-0.3,1.2-0.7,1.8-1c1.1-0.7,2.1-1.3,3.1-2.1c0.2-0.2,0.5-0.5,0.7-0.8
						c0.2-0.4,0.1-0.6-0.2-0.8c-0.3-0.1-0.6-0.2-1-0.2c-0.7,0-1.3,0.1-2,0.2c-1.1,0.2-2.2,0.5-3.4,0.8c-0.1,0-0.3-0.1-0.3-0.2
						c0.2-0.1,0.4-0.1,0.6-0.2c1.4-0.4,2.7-0.7,4.1-0.9c0.8-0.2,1.6-0.2,2.5-0.2c0.2,0,0.5,0.1,0.8,0.1C93.9-38.2,94-38.1,94-38z
						 M85.2-32.1c0.1-0.1,0.3-0.1,0.4-0.2C85.4-32.2,85.3-32.1,85.2-32.1z M76.8-29L76.8-29L76.8-29z M83-31c-0.7,0.3-1.4,0.5-2,0.8
						c-0.2,0.1-0.5,0.2-0.8,0.3c0.3-0.1,0.5-0.2,0.8-0.3C81.6-30.5,82.3-30.8,83-31z M86.7-32.8C86.7-32.8,86.7-32.8,86.7-32.8
						C86.7-32.8,86.7-32.8,86.7-32.8z M86.7-32.8C86.8-32.8,86.7-32.8,86.7-32.8S86.8-32.8,86.7-32.8z"/>
					<path d="M86.9-32.8L86.9-32.8L86.9-32.8z"/>
				</g>
			</g>
			<path d="M19.6-38.6c-4.2,3.6-4.7,3.4-5.2-2.3c-0.5,5.7-1,5.9-5.2,2.3c3.5,4.4,3.3,4.9-2.2,5.5c5.5,0.5,5.7,1.1,2.2,5.5
				c4.2-3.6,4.7-3.4,5.2,2.3c0.5-5.7,1-5.9,5.2-2.3c-3.5-4.4-3.3-4.9,2.2-5.5C16.2-33.7,16.1-34.2,19.6-38.6z"/>
			<g>
				<polygon points="44.7,-21.3 40.7,-21.3 39.3,-19 46.1,-19 				"/>
				<path d="M44.8-41h-4.4c0.5-1.9,1.2-3.1,2-3.2l0.2-3.8c-0.3-0.1-0.5-0.3-0.5-0.6c0-0.4,0.2-0.6,0.6-0.6s0.6,0.3,0.6,0.6
					S43-48.1,42.7-48l0.2,3.8C43.7-44,44.4-42.8,44.8-41z"/>
				<path d="M49.8-22.5c-0.1,1-0.2,2-0.2,3.1c-0.1,0.1-0.1,0.3-0.2,0.4c0,0.1-0.2-0.1-0.3-0.1c-1.4-1-2.8-2-4.1-2.9
					c-0.1-0.1-0.2-0.1-0.2-0.2c-0.1,0.2-0.1,0.4-0.1,0.6h-3.9c-0.1-0.2-0.1-0.5-0.2-0.7c-0.1,0-0.2,0.1-0.2,0.1
					c-1.4,1-2.8,2-4.1,2.9c-0.1,0.1-0.2,0.2-0.3,0.1c-0.1-0.1-0.2-0.2-0.2-0.4c-0.1-1-0.2-2-0.2-3.1c0-0.4,0.1-0.7,0.3-1
					c1.1-1.4,2.3-2.9,3.5-4.4c-0.1-0.7-0.2-1.5-0.2-2.3c0-4.1,0.5-7.8,1.2-10.3h4.5c0.7,2.5,1.2,6.2,1.2,10.3c0,0.8-0.1,1.6-0.2,2.3
					c0.1,0,0.1,0.1,0.1,0.1c1.2,1.5,2.4,2.9,3.6,4.4C49.7-23.2,49.8-22.9,49.8-22.5z"/>
			</g>
		</g>
		<g>
			<path d="M70.1-79.6c-4.2,3.6-4.7,3.4-5.2-2.3c-0.5,5.7-1,5.9-5.2,2.3c3.5,4.4,3.3,4.9-2.2,5.5c5.5,0.5,5.7,1.1,2.2,5.5
				c4.2-3.6,4.7-3.4,5.2,2.3c0.5-5.7,1-5.9,5.2-2.3c-3.5-4.4-3.3-4.9,2.2-5.5C66.7-74.7,66.6-75.2,70.1-79.6z"/>
			<g>
				<polygon points="95.2,-62.3 91.2,-62.3 89.8,-60 96.6,-60 				"/>
				<path d="M95.3-82h-4.4c0.5-1.9,1.2-3.1,2-3.2l0.2-3.8c-0.3-0.1-0.5-0.3-0.5-0.6c0-0.4,0.2-0.6,0.6-0.6s0.6,0.3,0.6,0.6
					c0,0.3-0.2,0.5-0.5,0.6l0.2,3.8C94.2-85,94.9-83.8,95.3-82z"/>
				<path d="M100.3-63.5c-0.1,1-0.2,2-0.2,3.1c-0.1,0.1-0.1,0.3-0.2,0.4c0,0.1-0.2-0.1-0.3-0.1c-1.4-1-2.8-2-4.1-2.9
					c-0.1-0.1-0.2-0.1-0.2-0.2c-0.1,0.2-0.1,0.4-0.1,0.6h-3.9c-0.1-0.2-0.1-0.5-0.2-0.7c-0.1,0-0.2,0.1-0.2,0.1
					c-1.4,1-2.8,2-4.1,2.9c-0.1,0.1-0.2,0.2-0.3,0.1c-0.1-0.1-0.2-0.2-0.2-0.4c-0.1-1-0.2-2-0.2-3.1c0-0.4,0.1-0.7,0.3-1
					c1.1-1.4,2.3-2.9,3.5-4.4c-0.1-0.7-0.2-1.5-0.2-2.3c0-4.1,0.5-7.8,1.2-10.3h4.5c0.7,2.5,1.2,6.2,1.2,10.3c0,0.8-0.1,1.6-0.2,2.3
					c0.1,0,0.1,0.1,0.1,0.1c1.2,1.5,2.4,2.9,3.6,4.4C100.2-64.2,100.3-63.9,100.3-63.5z"/>
			</g>
		</g>
		<g>
			<g>
				<g>
					<g class="st1">
						<circle class="st2" cx="31" cy="-74.3" r="5.6"/>
					</g>
					<circle cx="31" cy="-74.3" r="5.6"/>
				</g>
				<g>
					<path d="M43.5-79c0,0.1,0,0.2,0,0.2c-0.3,0.7-0.9,1.2-1.5,1.7c-1.2,1-2.5,1.8-3.9,2.6c-0.4,0.2-0.8,0.5-1.3,0.7
						c0,0-0.1,0-0.1,0.1c-0.1,0.1-0.2,0.1-0.3,0.2c0,0.1-0.1,0.1-0.1,0.1c-0.8,0.4-1.7,0.8-2.6,1.2c-1.7,0.7-3.4,1.4-5.2,2
						c-0.5,0.1-1,0.2-1.4,0.4c-0.1,0.1-0.2,0.1-0.4,0.1c-0.1,0-0.1,0-0.1,0c-0.6,0.2-1.1,0.3-1.7,0.5c-0.5,0.1-1,0.2-1.6,0.4
						c-0.4,0.1-0.8,0.2-1.3,0.2c-0.5,0.1-1,0.1-1.5,0.2c-0.6,0-1.3,0.1-1.9-0.1c-0.2,0-0.3-0.1-0.4-0.2c-0.1-0.2-0.1-0.4-0.1-0.5
						c0.1-0.3,0.3-0.6,0.5-0.8c0.6-0.7,1.3-1.2,2.1-1.7c1.3-0.8,2.6-1.6,3.9-2.2c0.1-0.1,0.1-0.1,0.1-0.1c0.1,0.1,0.1,0.2-0.1,0.3
						c-1,0.5-2,1.1-3,1.7c-0.6,0.4-1.2,0.8-1.7,1.4c-0.2,0.2-0.4,0.5-0.5,0.8c0,0.2,0.1,0.4,0.2,0.5c0.3,0.1,0.5,0.2,0.8,0.2
						c0.5,0,1.1-0.1,1.7-0.1c0.5-0.1,1.1-0.2,1.6-0.3c1-0.2,2-0.5,3-0.7c0.1,0,0.1,0,0.1-0.1c-0.4,0.1-0.7,0.2-1,0.2l0,0
						c-1.5,0.4-2.9,0.7-4.4,0.8c-0.3,0-0.5,0-0.8,0c-0.2,0-0.5,0-0.7-0.1C20-69.6,20-69.8,20-70c0-0.1,0.1-0.3,0.2-0.4l0,0l0.1-0.1
						c0.3-0.4,0.7-0.8,1.1-1.1c1-0.8,2.1-1.4,3.3-2c0.1-0.1,0.2-0.1,0.2-0.1c0.1,0.1,0.1,0.2,0.1,0.2c0.1,0.1,0,0.2-0.1,0.2
						c-0.7,0.4-1.4,0.9-2.1,1.4c-0.2,0.2-0.5,0.4-0.7,0.7c-0.1,0.1-0.1,0.2-0.1,0.2c-0.1,0.3,0,0.5,0.3,0.5c0.4,0.1,0.7,0.1,1,0.1
						c1.9-0.1,3.6-0.6,5.3-1.1c2-0.7,4-1.4,5.9-2.4c1.1-0.5,2.1-1.1,3.1-1.8c0.6-0.4,1.2-0.8,1.7-1.3c0.2-0.2,0.3-0.4,0.4-0.5
						c0.1-0.3,0.1-0.5-0.2-0.5C39.4-78,39.1-78,38.9-78c-0.7,0-1.4,0.1-2,0.2c-0.2,0.1-0.5,0.1-0.8,0.2c-0.1,0-0.1,0-0.2-0.1
						c-0.2-0.2-0.2-0.2,0.1-0.3c0.5-0.2,1-0.3,1.6-0.4c0.1,0,0.2,0,0.3-0.1h0.1c0,0.1,0.1,0.1,0.1,0H38c0.1,0.1,0.2,0,0.3,0
						c0.4-0.1,0.8-0.1,1.3-0.2c0.2-0.1,0.5-0.1,0.8-0.1c0.4,0,0.7,0.1,1.1,0.1c0.4,0.1,0.5,0.3,0.3,0.6c-0.1,0.2-0.3,0.5-0.5,0.7
						c-0.1,0.1-0.1,0.1-0.1,0.2c-0.5,0.5-1.1,0.9-1.7,1.3c-1,0.7-1.9,1.3-2.9,1.9c-0.1,0-0.1,0-0.1,0.1c-0.1,0-0.1,0.1-0.1,0.1
						c0.1,0,0.1,0,0.1-0.1c0.1,0,0.1-0.1,0.1-0.1c0.6-0.3,1.2-0.7,1.8-1c1.1-0.7,2.1-1.3,3.1-2.1c0.2-0.2,0.5-0.5,0.7-0.8
						c0.2-0.4,0.1-0.6-0.2-0.8c-0.3-0.1-0.6-0.2-1-0.2c-0.7,0-1.3,0.1-2,0.2c-1.1,0.2-2.2,0.5-3.4,0.8c-0.1,0-0.3-0.1-0.3-0.2
						c0.2-0.1,0.4-0.1,0.6-0.2c1.4-0.4,2.7-0.7,4.1-0.9c0.8-0.2,1.6-0.2,2.5-0.2c0.2,0,0.5,0.1,0.8,0.1C43.4-79.2,43.5-79.1,43.5-79
						z M34.7-73.1c0.1-0.1,0.3-0.1,0.4-0.2C34.9-73.2,34.8-73.1,34.7-73.1z M26.3-70L26.3-70L26.3-70z M32.5-72
						c-0.7,0.3-1.4,0.5-2,0.8c-0.2,0.1-0.5,0.2-0.8,0.3c0.3-0.1,0.5-0.2,0.8-0.3C31.1-71.5,31.8-71.8,32.5-72z M36.2-73.8
						C36.2-73.8,36.2-73.8,36.2-73.8C36.2-73.8,36.2-73.8,36.2-73.8z M36.2-73.8C36.3-73.8,36.2-73.8,36.2-73.8S36.3-73.8,36.2-73.8
						z"/>
					<path d="M36.4-73.8L36.4-73.8L36.4-73.8z"/>
				</g>
			</g>
		</g>
	</g>
</pattern>
<rect x="-21.4" y="-17.9" class="st3" width="389.1" height="1340.7"/>
<g>
	<g>
		<g class="st1">
			<circle class="st2" cx="-84.2" cy="-108.3" r="9.4"/>
		</g>
		<g>
			<circle cx="-84.2" cy="-108.3" r="9.4"/>
		</g>
	</g>
	<g>
		<path d="M-63.8-116.7c-0.4-0.1-0.9-0.2-1.3-0.2c-1.4,0-2.7,0.1-4.1,0.4c-2.3,0.4-4.5,0.9-6.8,1.5c-0.3,0.1-0.7,0.2-1,0.3
			c0,0.2,0.3,0.4,0.5,0.4c1.9-0.6,3.7-1.1,5.6-1.4c1.1-0.2,2.2-0.3,3.3-0.3c0.6,0,1.1,0.1,1.6,0.3c0.6,0.3,0.8,0.7,0.4,1.3
			c-0.3,0.6-0.8,1-1.2,1.4c-1.6,1.4-3.3,2.4-5.1,3.5c-1,0.6-2,1.2-3,1.7c-0.1,0-0.1,0.1-0.2,0.1c0,0.1-0.1,0.1-0.2,0.1
			c0,0,0.1-0.1,0.2-0.1c0-0.1,0.1-0.1,0.2-0.1c1.7-1,3.3-2,4.9-3.1c1-0.7,2-1.3,2.9-2.2c0-0.1,0.1-0.2,0.2-0.3
			c0.3-0.3,0.6-0.7,0.8-1.1c0.3-0.5,0.1-0.9-0.5-1s-1.2-0.2-1.8-0.2c-0.5,0-1,0-1.4,0.1c-0.8,0.1-1.5,0.2-2.2,0.3
			c-0.1,0-0.3,0.1-0.5,0h-0.1c0,0.1-0.1,0.1-0.1,0h-0.1c-0.2,0.1-0.4,0.1-0.5,0.1c-0.9,0.2-1.7,0.4-2.6,0.7
			c-0.5,0.2-0.5,0.1-0.2,0.5c0.1,0.1,0.2,0.1,0.3,0.1c0.5-0.1,1-0.2,1.4-0.3c1.1-0.2,2.3-0.4,3.4-0.4c0.4,0,0.9,0,1.3,0.1
			c0.5,0.1,0.6,0.4,0.4,0.9c-0.2,0.3-0.4,0.6-0.7,0.9c-0.8,0.8-1.8,1.5-2.8,2.2c-1.7,1.1-3.4,2.1-5.2,3c-3.2,1.6-6.5,2.9-9.9,4
			c-2.9,0.9-5.8,1.7-8.9,1.9c-0.6,0-1.1,0-1.7-0.1c-0.5-0.1-0.6-0.4-0.5-0.9c0.1-0.1,0.1-0.3,0.2-0.4c0.3-0.5,0.7-0.8,1.1-1.2
			c1.1-0.9,2.3-1.7,3.5-2.4c0.2-0.1,0.3-0.2,0.2-0.4c0-0.1,0.1-0.3-0.1-0.4c-0.1,0-0.3,0.1-0.4,0.2c-2,1-3.8,2.1-5.5,3.4
			c-0.7,0.5-1.4,1.1-1.9,1.8l-0.1,0.1l0,0c-0.2,0.2-0.4,0.5-0.4,0.7c-0.1,0.4,0,0.7,0.4,0.8c0.4,0.2,0.8,0.2,1.2,0.2
			c0.5,0,0.9,0,1.4,0c2.5-0.2,4.9-0.7,7.4-1.3l0,0c0.6-0.1,1.1-0.2,1.7-0.4c0,0.1-0.1,0.1-0.2,0.1c-1.6,0.4-3.3,0.9-5,1.2
			c-0.9,0.2-1.8,0.3-2.7,0.5c-0.9,0.1-1.9,0.2-2.8,0.2c-0.5,0-0.9-0.1-1.4-0.3c-0.3-0.2-0.4-0.4-0.4-0.8c0.1-0.6,0.5-1,0.8-1.4
			c0.8-0.9,1.8-1.6,2.8-2.3c1.6-1.1,3.3-2,5-2.9c0.2-0.1,0.3-0.3,0.1-0.5c0,0.1-0.1,0.1-0.2,0.2c-2.2,1.1-4.4,2.3-6.5,3.7
			c-1.3,0.8-2.5,1.7-3.5,2.8c-0.4,0.4-0.8,0.9-0.9,1.4c-0.1,0.3-0.1,0.6,0.1,0.9c0.2,0.2,0.4,0.3,0.7,0.3c1,0.2,2.1,0.1,3.1,0.1
			c0.9-0.1,1.7-0.2,2.5-0.3c0.7-0.1,1.4-0.3,2.1-0.4c0.9-0.2,1.8-0.4,2.6-0.6c1-0.3,1.9-0.5,2.9-0.8c0.1,0,0.1,0,0.2,0
			c0.2-0.1,0.4-0.1,0.6-0.2c0.8-0.3,1.6-0.5,2.4-0.7c2.9-1,5.8-2.1,8.6-3.3c1.5-0.6,2.9-1.3,4.3-2c0,0,0.1,0,0.1-0.1
			c0.2-0.1,0.3-0.2,0.5-0.3c0-0.1,0.1-0.1,0.1-0.1c0.7-0.4,1.4-0.8,2.1-1.2c2.3-1.3,4.5-2.6,6.5-4.3c1-0.8,2-1.6,2.5-2.8
			c0-0.1,0-0.3,0-0.4C-63.2-116.4-63.5-116.6-63.8-116.7z M-77.3-106.6c-0.2,0.1-0.5,0.2-0.7,0.3C-77.8-106.3-77.6-106.5-77.3-106.6
			z M-91.9-101.2L-91.9-101.2L-91.9-101.2z M-85.1-103.3c-0.5,0.2-0.9,0.3-1.4,0.5C-86-103-85.5-103.2-85.1-103.3
			c1.1-0.4,2.3-0.8,3.4-1.3C-82.8-104.2-83.9-103.7-85.1-103.3z M-75.5-107.5C-75.4-107.5-75.4-107.5-75.5-107.5
			C-75.4-107.5-75.4-107.5-75.5-107.5z M-75.4-107.6C-75.4-107.6-75.3-107.6-75.4-107.6C-75.3-107.6-75.4-107.6-75.4-107.6z"/>
		<path d="M-75.1-107.6L-75.1-107.6L-75.1-107.6z"/>
	</g>
</g>
<path d="M-183.7-108.1c-9.1,0.9-9.5,1.8-3.6,9.1c-7-6.1-7.9-5.7-8.7,3.8c-0.9-9.5-1.7-9.8-8.7-3.8c5.9-7.3,5.5-8.2-3.6-9.1
	c9.1-0.9,9.5-1.8,3.6-9.1c7,6.1,7.9,5.7,8.7-3.8c0.9,9.5,1.7,9.8,8.7,3.8C-193.2-109.8-192.9-109-183.7-108.1z"/>
<g>
	<polygon points="-143.2,-84.6 -154.5,-84.6 -152.1,-88.4 -145.5,-88.4 	"/>
	<path d="M-148.4-126.6l-0.4-6.3c0.5-0.1,0.9-0.5,0.9-1s-0.4-1-1-1s-1,0.4-1,1c0,0.5,0.4,0.9,0.9,1l-0.4,6.3
		c-1.3,0.3-2.4,2.3-3.3,5.4h7.4C-146-124.2-147.2-126.2-148.4-126.6z"/>
	<path d="M-137.5-92c-2-2.5-4-4.9-6-7.4c0,0,0-0.1-0.1-0.1c0.2-1.3,0.3-2.6,0.3-3.9c0-6.9-0.8-13-2-17.2h-7.5
		c-1.2,4.2-2,10.3-2,17.2c0,1.3,0.1,2.6,0.3,3.8c-2,2.4-4,4.9-5.9,7.3c-0.4,0.5-0.5,1-0.5,1.6c0.1,1.7,0.2,3.4,0.4,5.1
		c0,0.2,0.1,0.5,0.3,0.6c0.1,0.1,0.4-0.1,0.5-0.2c2.3-1.6,4.6-3.3,6.9-4.9c0.1-0.1,0.2-0.2,0.4-0.2c0.1,0.4,0.2,0.8,0.3,1.2h6.5
		c0.1-0.3,0.1-0.7,0.2-1c0.1,0.1,0.3,0.2,0.4,0.3c2.3,1.6,4.6,3.3,6.9,4.9c0.2,0.1,0.5,0.3,0.5,0.2c0.1-0.1,0.2-0.4,0.3-0.6
		c0.1-1.7,0.2-3.4,0.4-5.1C-136.9-91-137.1-91.5-137.5-92z"/>
</g>
<rect class="st4" width="354.9" height="1312.1"/>
</svg>
