<?xml version="1.0" encoding="utf-8"?>
<!-- Generator: Adobe Illustrator 23.0.2, SVG Export Plug-In . SVG Version: 6.00 Build 0)  -->
<svg version="1.1" id="Layer_1" xmlns="http://www.w3.org/2000/svg" xmlns:xlink="http://www.w3.org/1999/xlink" x="0px" y="0px"
	 viewBox="0 0 1360.8 808.6" style="enable-background:new 0 0 1360.8 808.6;" xml:space="preserve">
<style type="text/css">
	.st0{fill:none;}
	.st1{opacity:0.87;}
	.st2{fill:#FFFFFF;}
	.st3{fill:url(#SVGID_1_);}
	.st4{fill:url(#SVGID_2_);}
	.st5{fill:url(#SVGID_3_);}
</style>
<pattern  y="808.6" width="113.4" height="181.4" patternUnits="userSpaceOnUse" id="New_Pattern" viewBox="7.3 -198.7 113.4 181.4" style="overflow:visible;">
	<g>
		<rect x="7.3" y="-198.7" class="st0" width="113.4" height="181.4"/>
		<g>
			<path d="M85.3-22.4c-4.8,4.1-5.4,3.9-6-2.6c-0.6,6.5-1.2,6.8-6,2.6c4.1,5,3.8,5.6-2.5,6.3c6.3,0.6,6.5,1.2,2.5,6.3
				c4.8-4.1,5.4-3.9,6,2.6c0.6-6.5,1.2-6.8,6-2.6c-4.1-5-3.8-5.6,2.5-6.3C81.4-16.7,81.2-17.3,85.3-22.4z"/>
			<g>
				<path d="M114.2-25.1h-5.1c0.6-2.1,1.4-3.5,2.3-3.7l0.3-4.3c-0.3-0.1-0.6-0.3-0.6-0.7c0-0.4,0.3-0.7,0.7-0.7
					c0.4,0,0.7,0.3,0.7,0.7c0,0.3-0.3,0.6-0.6,0.7l0.3,4.3C112.9-28.6,113.7-27.2,114.2-25.1z"/>
				<path d="M120-3.9c-0.1,1.2-0.2,2.3-0.3,3.5c-0.1,0.1-0.1,0.3-0.2,0.4c0,0.1-0.2-0.1-0.3-0.1c-1.6-1.1-3.2-2.3-4.7-3.4
					c-0.1-0.1-0.2-0.1-0.3-0.2C114-3.5,114-3.3,114-3h-4.5c-0.1-0.3-0.1-0.6-0.2-0.8c-0.1,0-0.2,0.1-0.3,0.1
					c-1.6,1.1-3.2,2.3-4.7,3.4c-0.1,0.1-0.3,0.2-0.3,0.1c-0.1-0.1-0.2-0.3-0.2-0.4c-0.1-1.2-0.2-2.3-0.3-3.5c0-0.4,0.1-0.8,0.3-1.1
					c1.3-1.7,2.7-3.4,4.1-5c-0.1-0.8-0.2-1.7-0.2-2.6c0-4.7,0.6-8.9,1.4-11.8h5.2c0.8,2.9,1.4,7.1,1.4,11.8c0,0.9-0.1,1.8-0.2,2.7
					c0.1,0,0.1,0.1,0.1,0.1c1.4,1.7,2.8,3.4,4.1,5.1C119.8-4.7,120-4.4,120-3.9z"/>
			</g>
		</g>
		<g>
			<g>
				<g>
					<g class="st1">
						<circle class="st2" cx="42.8" cy="-16.3" r="6.5"/>
					</g>
					<circle cx="42.8" cy="-16.3" r="6.5"/>
				</g>
				<g>
					<path d="M57.2-21.7c0,0.1,0,0.2,0,0.3c-0.3,0.8-1,1.4-1.7,1.9c-1.4,1.2-2.9,2.1-4.5,3c-0.5,0.3-1,0.6-1.4,0.8
						c0,0-0.1,0-0.1,0.1c-0.1,0.1-0.2,0.1-0.3,0.2c0,0.1-0.1,0.1-0.1,0.1c-1,0.5-1.9,1-3,1.4c-1.9,0.8-3.9,1.6-5.9,2.3
						c-0.6,0.1-1.1,0.3-1.7,0.5c-0.1,0.1-0.3,0.1-0.4,0.1c-0.1,0-0.1,0-0.1,0c-0.7,0.2-1.3,0.3-2,0.6c-0.6,0.1-1.2,0.3-1.8,0.4
						c-0.5,0.1-1,0.2-1.4,0.3c-0.6,0.1-1.1,0.1-1.7,0.2c-0.7,0-1.4,0.1-2.1-0.1c-0.2,0-0.3-0.1-0.5-0.2c-0.1-0.2-0.1-0.4-0.1-0.6
						c0.1-0.3,0.3-0.7,0.6-1c0.7-0.8,1.5-1.4,2.4-1.9c1.4-1,3-1.8,4.5-2.5c0.1-0.1,0.1-0.1,0.1-0.1c0.1,0.1,0.1,0.3-0.1,0.3
						c-1.2,0.6-2.3,1.2-3.4,2c-0.7,0.5-1.4,1-1.9,1.6c-0.2,0.3-0.5,0.6-0.6,1c0,0.3,0.1,0.4,0.3,0.6c0.3,0.1,0.6,0.2,1,0.2
						c0.6,0,1.3-0.1,1.9-0.1c0.6-0.1,1.2-0.2,1.9-0.3c1.2-0.2,2.3-0.6,3.4-0.8c0.1,0,0.1,0,0.1-0.1c-0.4,0.1-0.8,0.2-1.2,0.3l0,0
						c-1.7,0.4-3.4,0.8-5.1,0.9c-0.3,0-0.6,0-1,0c-0.3,0-0.6,0-0.8-0.1c-0.3-0.1-0.3-0.3-0.3-0.6c0-0.1,0.1-0.3,0.3-0.5l0,0l0.1-0.1
						c0.3-0.5,0.8-0.9,1.3-1.2c1.2-0.9,2.4-1.7,3.8-2.3c0.1-0.1,0.2-0.1,0.3-0.1c0.1,0.1,0.1,0.2,0.1,0.3c0.1,0.1,0,0.2-0.1,0.3
						c-0.8,0.5-1.7,1-2.4,1.7c-0.3,0.3-0.6,0.5-0.8,0.8c-0.1,0.1-0.1,0.2-0.1,0.3c-0.1,0.3,0,0.6,0.3,0.6c0.4,0.1,0.8,0.1,1.2,0.1
						c2.1-0.1,4.1-0.7,6.1-1.3c2.3-0.8,4.6-1.7,6.8-2.8c1.2-0.6,2.4-1.3,3.6-2.1c0.7-0.5,1.4-1,1.9-1.5c0.2-0.2,0.3-0.4,0.5-0.6
						c0.1-0.3,0.1-0.6-0.3-0.6c-0.3-0.1-0.6-0.1-0.9-0.1c-0.8,0-1.6,0.1-2.3,0.3c-0.3,0.1-0.6,0.1-1,0.2c-0.1,0-0.1,0-0.2-0.1
						c-0.2-0.3-0.2-0.2,0.1-0.3c0.6-0.2,1.2-0.3,1.8-0.5c0.1,0,0.2,0,0.3-0.1h0.1c0,0.1,0.1,0.1,0.1,0h0.1c0.1,0.1,0.3,0,0.3,0
						c0.5-0.1,1-0.1,1.5-0.2c0.3-0.1,0.6-0.1,1-0.1c0.4,0,0.8,0.1,1.2,0.1c0.4,0.1,0.6,0.3,0.3,0.7c-0.1,0.3-0.3,0.6-0.6,0.8
						c-0.1,0.1-0.1,0.1-0.1,0.2c-0.6,0.6-1.3,1-2,1.5c-1.1,0.8-2.2,1.4-3.4,2.1c-0.1,0-0.1,0-0.1,0.1c-0.1,0-0.1,0.1-0.1,0.1
						c0.1,0,0.1,0,0.1-0.1c0.1,0,0.1-0.1,0.1-0.1c0.7-0.3,1.4-0.8,2.1-1.2c1.2-0.8,2.4-1.4,3.5-2.4c0.3-0.3,0.6-0.6,0.8-1
						c0.3-0.4,0.1-0.7-0.3-0.9c-0.3-0.1-0.7-0.2-1.1-0.2c-0.8,0-1.5,0.1-2.3,0.2c-1.3,0.2-2.5,0.6-3.9,1c-0.1,0-0.3-0.1-0.3-0.3
						c0.2-0.1,0.5-0.1,0.7-0.2c1.6-0.4,3.1-0.8,4.7-1c1-0.2,1.9-0.3,2.8-0.3c0.3,0,0.6,0.1,0.9,0.1C57.1-22,57.3-21.8,57.2-21.7z
						 M47.1-14.9c0.1-0.1,0.3-0.1,0.5-0.2C47.4-15,47.3-14.9,47.1-14.9z M37.5-11.4L37.5-11.4L37.5-11.4z M44.6-13.7
						c-0.8,0.3-1.6,0.6-2.3,0.9c-0.3,0.1-0.6,0.2-1,0.3c0.3-0.1,0.6-0.2,1-0.3C43.1-13.1,43.8-13.4,44.6-13.7z M48.8-15.7
						C48.9-15.7,48.9-15.7,48.8-15.7C48.9-15.7,48.9-15.7,48.8-15.7z M48.9-15.8C49-15.8,48.9-15.8,48.9-15.8S49-15.8,48.9-15.8z"/>
				</g>
			</g>
		</g>
		<g>
			<g>
				<g>
					<path d="M142.3-67.1c0,0.1,0,0.2,0,0.3c-0.3,0.8-1,1.4-1.7,1.9c-1.4,1.2-2.9,2.1-4.5,3c-0.5,0.3-1,0.6-1.4,0.8
						c0,0-0.1,0-0.1,0.1c-0.1,0.1-0.2,0.1-0.3,0.2c0,0.1-0.1,0.1-0.1,0.1c-1,0.5-1.9,1-3,1.4c-1.9,0.8-3.9,1.6-5.9,2.3
						c-0.6,0.1-1.1,0.3-1.7,0.5c-0.1,0.1-0.3,0.1-0.4,0.1c-0.1,0-0.1,0-0.1,0c-0.7,0.2-1.3,0.3-2,0.6c-0.6,0.1-1.2,0.3-1.8,0.4
						c-0.5,0.1-1,0.2-1.4,0.3c-0.6,0.1-1.1,0.1-1.7,0.2c-0.7,0-1.4,0.1-2.1-0.1c-0.2,0-0.3-0.1-0.5-0.2c-0.1-0.2-0.1-0.4-0.1-0.6
						c0.1-0.3,0.3-0.7,0.6-1c0.7-0.8,1.5-1.4,2.4-1.9c1.4-1,3-1.8,4.5-2.5c0.1-0.1,0.1-0.1,0.1-0.1c0.1,0.1,0.1,0.3-0.1,0.3
						c-1.2,0.6-2.3,1.2-3.4,2c-0.7,0.5-1.4,1-1.9,1.6c-0.2,0.3-0.5,0.6-0.6,1c0,0.3,0.1,0.4,0.3,0.6c0.3,0.1,0.6,0.2,1,0.2
						c0.6,0,1.3-0.1,1.9-0.1c0.6-0.1,1.2-0.2,1.9-0.3c1.2-0.2,2.3-0.6,3.4-0.8c0.1,0,0.1,0,0.1-0.1c-0.4,0.1-0.8,0.2-1.2,0.3l0,0
						c-1.7,0.4-3.4,0.8-5.1,0.9c-0.3,0-0.6,0-1,0c-0.3,0-0.6,0-0.8-0.1c-0.3-0.1-0.3-0.3-0.3-0.6c0-0.1,0.1-0.3,0.3-0.5l0,0l0.1-0.1
						c0.3-0.5,0.8-0.9,1.3-1.2c1.2-0.9,2.4-1.7,3.8-2.3c0.1-0.1,0.2-0.1,0.3-0.1c0.1,0.1,0.1,0.2,0.1,0.3c0.1,0.1,0,0.2-0.1,0.3
						c-0.8,0.5-1.7,1-2.4,1.7c-0.3,0.3-0.6,0.5-0.8,0.8c-0.1,0.1-0.1,0.2-0.1,0.3c-0.1,0.3,0,0.6,0.3,0.6c0.4,0.1,0.8,0.1,1.2,0.1
						c2.1-0.1,4.1-0.7,6.1-1.3c2.3-0.8,4.6-1.7,6.8-2.8c1.2-0.6,2.4-1.3,3.6-2.1c0.7-0.5,1.4-1,1.9-1.5c0.2-0.2,0.3-0.4,0.5-0.6
						c0.1-0.3,0.1-0.6-0.3-0.6c-0.3-0.1-0.6-0.1-0.9-0.1c-0.8,0-1.6,0.1-2.3,0.3c-0.3,0.1-0.6,0.1-1,0.2c-0.1,0-0.1,0-0.2-0.1
						c-0.2-0.3-0.2-0.2,0.1-0.3c0.6-0.2,1.2-0.3,1.8-0.5c0.1,0,0.2,0,0.3-0.1h0.1c0,0.1,0.1,0.1,0.1,0h0.1c0.1,0.1,0.3,0,0.3,0
						c0.5-0.1,1-0.1,1.5-0.2c0.3-0.1,0.6-0.1,1-0.1c0.4,0,0.8,0.1,1.2,0.1s0.6,0.3,0.3,0.7c-0.1,0.3-0.3,0.6-0.6,0.8
						c-0.1,0.1-0.1,0.1-0.1,0.2c-0.6,0.6-1.3,1-2,1.5c-1.1,0.8-2.2,1.4-3.4,2.1c-0.1,0-0.1,0-0.1,0.1c-0.1,0-0.1,0.1-0.1,0.1
						c0.1,0,0.1,0,0.1-0.1c0.1,0,0.1-0.1,0.1-0.1c0.7-0.3,1.4-0.8,2.1-1.2c1.2-0.8,2.4-1.4,3.5-2.4c0.3-0.3,0.6-0.6,0.8-1
						c0.3-0.4,0.1-0.7-0.3-0.9c-0.3-0.1-0.7-0.2-1.1-0.2c-0.8,0-1.5,0.1-2.3,0.2c-1.3,0.2-2.5,0.6-3.9,1c-0.1,0-0.3-0.1-0.3-0.3
						c0.2-0.1,0.5-0.1,0.7-0.2c1.6-0.4,3.1-0.8,4.7-1c1-0.2,1.9-0.3,2.8-0.3c0.3,0,0.6,0.1,0.9,0.1
						C142.1-67.3,142.3-67.2,142.3-67.1z M132.2-60.2c0.1-0.1,0.3-0.1,0.5-0.2C132.4-60.4,132.3-60.2,132.2-60.2z M122.6-56.7
						L122.6-56.7L122.6-56.7z M129.6-59.1c-0.8,0.3-1.6,0.6-2.3,0.9c-0.3,0.1-0.6,0.2-1,0.3c0.3-0.1,0.6-0.2,1-0.3
						C128.1-58.5,128.8-58.8,129.6-59.1z M133.9-61.1C133.9-61.1,133.9-61.1,133.9-61.1C133.9-61.1,133.9-61.1,133.9-61.1z
						 M133.9-61.1C134-61.1,133.9-61.1,133.9-61.1S134-61.1,133.9-61.1z"/>
				</g>
			</g>
			<path d="M56.9-67.7c-4.8,4.1-5.4,3.9-6-2.6c-0.6,6.5-1.2,6.8-6,2.6c4.1,5,3.8,5.6-2.5,6.3c6.3,0.6,6.5,1.2,2.5,6.3
				c4.8-4.1,5.4-3.9,6,2.6c0.6-6.5,1.2-6.8,6-2.6c-4.1-5-3.8-5.6,2.5-6.3C53.1-62.1,52.9-62.7,56.9-67.7z"/>
			<g>
				<polygon points="85.7,-47.9 81.1,-47.9 79.5,-45.3 87.3,-45.3 				"/>
				<path d="M85.8-70.5h-5.1c0.6-2.1,1.4-3.5,2.3-3.7l0.3-4.3c-0.3-0.1-0.6-0.3-0.6-0.7c0-0.4,0.3-0.7,0.7-0.7
					c0.4,0,0.7,0.3,0.7,0.7c0,0.3-0.3,0.6-0.6,0.7l0.3,4.3C84.5-73.9,85.3-72.6,85.8-70.5z"/>
				<path d="M91.6-49.3c-0.1,1.2-0.2,2.3-0.3,3.5c-0.1,0.1-0.1,0.3-0.2,0.4c0,0.1-0.2-0.1-0.3-0.1c-1.6-1.1-3.2-2.3-4.7-3.4
					C86-49,85.8-49,85.8-49.1c-0.1,0.2-0.1,0.5-0.1,0.7h-4.5c-0.1-0.3-0.1-0.6-0.2-0.8c-0.1,0-0.2,0.1-0.3,0.1
					c-1.6,1.1-3.2,2.3-4.7,3.4c-0.1,0.1-0.3,0.2-0.3,0.1c-0.1-0.1-0.2-0.3-0.2-0.4c-0.1-1.2-0.2-2.3-0.3-3.5c0-0.4,0.1-0.8,0.3-1.1
					c1.3-1.7,2.7-3.4,4.1-5c-0.1-0.8-0.2-1.7-0.2-2.6c0-4.7,0.6-8.9,1.4-11.8h5.2c0.8,2.9,1.4,7.1,1.4,11.8c0,0.9-0.1,1.8-0.2,2.7
					c0.1,0,0.1,0.1,0.1,0.1c1.4,1.7,2.8,3.4,4.1,5.1C91.5-50.1,91.6-49.7,91.6-49.3z"/>
			</g>
		</g>
		<g>
			<g>
				<g>
					<g class="st1">
						<circle class="st2" cx="14.5" cy="-61.6" r="6.5"/>
					</g>
					<circle cx="14.5" cy="-61.6" r="6.5"/>
				</g>
				<g>
					<path d="M28.9-67.1c0,0.1,0,0.2,0,0.3c-0.3,0.8-1,1.4-1.7,1.9c-1.4,1.2-2.9,2.1-4.5,3c-0.5,0.3-1,0.6-1.4,0.8
						c0,0-0.1,0-0.1,0.1c-0.1,0.1-0.2,0.1-0.3,0.2c0,0.1-0.1,0.1-0.1,0.1c-1,0.5-1.9,1-3,1.4c-1.9,0.8-3.9,1.6-5.9,2.3
						c-0.6,0.1-1.1,0.3-1.7,0.5c-0.1,0.1-0.3,0.1-0.4,0.1c-0.1,0-0.1,0-0.1,0c-0.7,0.2-1.3,0.3-2,0.6c-0.6,0.1-1.2,0.3-1.8,0.4
						c-0.5,0.1-1,0.2-1.4,0.3c-0.6,0.1-1.1,0.1-1.7,0.2c-0.7,0-1.4,0.1-2.1-0.1c-0.2,0-0.3-0.1-0.5-0.2C0-55.5,0-55.7,0-55.9
						c0.1-0.3,0.3-0.7,0.6-1c0.7-0.8,1.5-1.4,2.4-1.9c1.4-1,3-1.8,4.5-2.5c0.1-0.1,0.1-0.1,0.1-0.1c0.1,0.1,0.1,0.3-0.1,0.3
						c-1.2,0.6-2.3,1.2-3.4,2c-0.7,0.5-1.4,1-1.9,1.6c-0.2,0.3-0.5,0.6-0.6,1c0,0.3,0.1,0.4,0.3,0.6c0.3,0.1,0.6,0.2,1,0.2
						c0.6,0,1.3-0.1,1.9-0.1c0.6-0.1,1.2-0.2,1.9-0.3c1.2-0.2,2.3-0.6,3.4-0.8c0.1,0,0.1,0,0.1-0.1c-0.4,0.1-0.8,0.2-1.2,0.3l0,0
						C7.4-56.5,5.8-56.2,4-56c-0.3,0-0.6,0-1,0c-0.3,0-0.6,0-0.8-0.1C2-56.2,1.9-56.5,2-56.7c0-0.1,0.1-0.3,0.3-0.5l0,0l0.1-0.1
						c0.3-0.5,0.8-0.9,1.3-1.2c1.2-0.9,2.4-1.7,3.8-2.3C7.5-60.9,7.6-61,7.7-61c0.1,0.1,0.1,0.2,0.1,0.3c0.1,0.1,0,0.2-0.1,0.3
						c-0.8,0.5-1.7,1-2.4,1.7c-0.3,0.3-0.6,0.5-0.8,0.8c-0.1,0.1-0.1,0.2-0.1,0.3c-0.1,0.3,0,0.6,0.3,0.6C5.1-57,5.4-57,5.8-57
						C8-57.1,10-57.7,12-58.3c2.3-0.8,4.6-1.7,6.8-2.8c1.2-0.6,2.4-1.3,3.6-2.1c0.7-0.5,1.4-1,1.9-1.5c0.2-0.2,0.3-0.4,0.5-0.6
						c0.1-0.3,0.1-0.6-0.3-0.6C24.2-66,23.9-66,23.6-66c-0.8,0-1.6,0.1-2.3,0.3c-0.3,0.1-0.6,0.1-1,0.2c-0.1,0-0.1,0-0.2-0.1
						c-0.2-0.3-0.2-0.2,0.1-0.3c0.6-0.2,1.2-0.3,1.8-0.5c0.1,0,0.2,0,0.3-0.1h0.1c0,0.1,0.1,0.1,0.1,0h0.1c0.1,0.1,0.3,0,0.3,0
						c0.5-0.1,1-0.1,1.5-0.2c0.3-0.1,0.6-0.1,1-0.1c0.4,0,0.8,0.1,1.2,0.1c0.4,0.1,0.6,0.3,0.3,0.7c-0.1,0.3-0.3,0.6-0.6,0.8
						c-0.1,0.1-0.1,0.1-0.1,0.2c-0.6,0.6-1.3,1-2,1.5c-1.1,0.8-2.2,1.4-3.4,2.1c-0.1,0-0.1,0-0.1,0.1c-0.1,0-0.1,0.1-0.1,0.1
						c0.1,0,0.1,0,0.1-0.1c0.1,0,0.1-0.1,0.1-0.1c0.7-0.3,1.4-0.8,2.1-1.2c1.2-0.8,2.4-1.4,3.5-2.4c0.3-0.3,0.6-0.6,0.8-1
						c0.3-0.4,0.1-0.7-0.3-0.9c-0.3-0.1-0.7-0.2-1.1-0.2c-0.8,0-1.5,0.1-2.3,0.2c-1.3,0.2-2.5,0.6-3.9,1c-0.1,0-0.3-0.1-0.3-0.3
						c0.2-0.1,0.5-0.1,0.7-0.2c1.6-0.4,3.1-0.8,4.7-1c1-0.2,1.9-0.3,2.8-0.3c0.3,0,0.6,0.1,0.9,0.1C28.7-67.3,29-67.2,28.9-67.1z
						 M18.8-60.2c0.1-0.1,0.3-0.1,0.5-0.2C19-60.4,18.9-60.2,18.8-60.2z M9.2-56.7L9.2-56.7L9.2-56.7z M16.2-59.1
						c-0.8,0.3-1.6,0.6-2.3,0.9c-0.3,0.1-0.6,0.2-1,0.3c0.3-0.1,0.6-0.2,1-0.3C14.7-58.5,15.5-58.8,16.2-59.1z M20.5-61.1
						C20.6-61.1,20.6-61.1,20.5-61.1C20.6-61.1,20.6-61.1,20.5-61.1z M20.6-61.1C20.6-61.1,20.6-61.1,20.6-61.1S20.6-61.1,20.6-61.1
						z"/>
					<path d="M20.8-61.1L20.8-61.1L20.8-61.1z"/>
				</g>
			</g>
		</g>
		<g>
			<g>
				<g>
					<g class="st1">
						<circle class="st2" cx="99.5" cy="-107" r="6.5"/>
					</g>
					<circle cx="99.5" cy="-107" r="6.5"/>
				</g>
				<g>
					<path d="M113.9-112.4c0,0.1,0,0.2,0,0.3c-0.3,0.8-1,1.4-1.7,1.9c-1.4,1.2-2.9,2.1-4.5,3c-0.5,0.3-1,0.6-1.4,0.8
						c0,0-0.1,0-0.1,0.1c-0.1,0.1-0.2,0.1-0.3,0.2c0,0.1-0.1,0.1-0.1,0.1c-1,0.5-1.9,1-3,1.4c-1.9,0.8-3.9,1.6-5.9,2.3
						c-0.6,0.1-1.1,0.3-1.7,0.5c-0.1,0.1-0.3,0.1-0.4,0.1c-0.1,0-0.1,0-0.1,0c-0.7,0.2-1.3,0.3-2,0.6c-0.6,0.1-1.2,0.3-1.8,0.4
						c-0.5,0.1-1,0.2-1.4,0.3c-0.6,0.1-1.1,0.1-1.7,0.2c-0.7,0-1.4,0.1-2.1-0.1c-0.2,0-0.3-0.1-0.5-0.2c-0.1-0.2-0.1-0.4-0.1-0.6
						c0.1-0.3,0.3-0.7,0.6-1c0.7-0.8,1.5-1.4,2.4-1.9c1.4-1,3-1.8,4.5-2.5c0.1-0.1,0.1-0.1,0.1-0.1c0.1,0.1,0.1,0.3-0.1,0.3
						c-1.2,0.6-2.3,1.2-3.4,2c-0.7,0.5-1.4,1-1.9,1.6c-0.2,0.3-0.5,0.6-0.6,1c0,0.3,0.1,0.4,0.3,0.6c0.3,0.1,0.6,0.2,1,0.2
						c0.6,0,1.3-0.1,1.9-0.1c0.6-0.1,1.2-0.2,1.9-0.3c1.2-0.2,2.3-0.6,3.4-0.8c0.1,0,0.1,0,0.1-0.1c-0.4,0.1-0.8,0.2-1.2,0.3l0,0
						c-1.7,0.4-3.4,0.8-5.1,0.9c-0.3,0-0.6,0-1,0c-0.3,0-0.6,0-0.8-0.1c-0.3-0.1-0.3-0.3-0.3-0.6c0-0.1,0.1-0.3,0.3-0.5l0,0l0.1-0.1
						c0.3-0.5,0.8-0.9,1.3-1.2c1.2-0.9,2.4-1.7,3.8-2.3c0.1-0.1,0.2-0.1,0.3-0.1c0.1,0.1,0.1,0.2,0.1,0.3c0.1,0.1,0,0.2-0.1,0.3
						c-0.8,0.5-1.7,1-2.4,1.7c-0.3,0.3-0.6,0.5-0.8,0.8c-0.1,0.1-0.1,0.2-0.1,0.3c-0.1,0.3,0,0.6,0.3,0.6c0.4,0.1,0.8,0.1,1.2,0.1
						c2.1-0.1,4.1-0.7,6.1-1.3c2.3-0.8,4.6-1.7,6.8-2.8c1.2-0.6,2.4-1.3,3.6-2.1c0.7-0.5,1.4-1,1.9-1.5c0.2-0.2,0.3-0.4,0.5-0.6
						c0.1-0.3,0.1-0.6-0.3-0.6c-0.3-0.1-0.6-0.1-0.9-0.1c-0.8,0-1.6,0.1-2.3,0.3c-0.3,0.1-0.6,0.1-1,0.2c-0.1,0-0.1,0-0.2-0.1
						c-0.2-0.3-0.2-0.2,0.1-0.3c0.6-0.2,1.2-0.3,1.8-0.5c0.1,0,0.2,0,0.3-0.1h0.1c0,0.1,0.1,0.1,0.1,0h0.1c0.1,0.1,0.3,0,0.3,0
						c0.5-0.1,1-0.1,1.5-0.2c0.3-0.1,0.6-0.1,1-0.1c0.4,0,0.8,0.1,1.2,0.1s0.6,0.3,0.3,0.7c-0.1,0.3-0.3,0.6-0.6,0.8
						c-0.1,0.1-0.1,0.1-0.1,0.2c-0.6,0.6-1.3,1-2,1.5c-1.1,0.8-2.2,1.4-3.4,2.1c-0.1,0-0.1,0-0.1,0.1c-0.1,0-0.1,0.1-0.1,0.1
						c0.1,0,0.1,0,0.1-0.1c0.1,0,0.1-0.1,0.1-0.1c0.7-0.3,1.4-0.8,2.1-1.2c1.2-0.8,2.4-1.4,3.5-2.4c0.3-0.3,0.6-0.6,0.8-1
						c0.3-0.4,0.1-0.7-0.3-0.9c-0.3-0.1-0.7-0.2-1.1-0.2c-0.8,0-1.5,0.1-2.3,0.2c-1.3,0.2-2.5,0.6-3.9,1c-0.1,0-0.3-0.1-0.3-0.3
						c0.2-0.1,0.5-0.1,0.7-0.2c1.6-0.4,3.1-0.8,4.7-1c1-0.2,1.9-0.3,2.8-0.3c0.3,0,0.6,0.1,0.9,0.1
						C113.8-112.7,114-112.5,113.9-112.4z M103.8-105.6c0.1-0.1,0.3-0.1,0.5-0.2C104.1-105.7,103.9-105.6,103.8-105.6z M94.2-102.1
						L94.2-102.1L94.2-102.1z M101.3-104.4c-0.8,0.3-1.6,0.6-2.3,0.9c-0.3,0.1-0.6,0.2-1,0.3c0.3-0.1,0.6-0.2,1-0.3
						C99.7-103.8,100.5-104.1,101.3-104.4z M105.5-106.4C105.6-106.4,105.6-106.4,105.5-106.4C105.6-106.4,105.6-106.4,105.5-106.4z
						 M105.6-106.5C105.7-106.5,105.6-106.5,105.6-106.5S105.7-106.5,105.6-106.5z"/>
					<path d="M105.8-106.5L105.8-106.5L105.8-106.5z"/>
				</g>
			</g>
			<path d="M28.6-113.1c-4.8,4.1-5.4,3.9-6-2.6c-0.6,6.5-1.2,6.8-6,2.6c4.1,5,3.8,5.6-2.5,6.3c6.3,0.6,6.5,1.2,2.5,6.3
				c4.8-4.1,5.4-3.9,6,2.6c0.6-6.5,1.2-6.8,6-2.6c-4.1-5-3.8-5.6,2.5-6.3C24.7-107.5,24.5-108,28.6-113.1z"/>
			<g>
				<polygon points="57.3,-93.3 52.8,-93.3 51.2,-90.7 58.9,-90.7 				"/>
				<path d="M57.5-115.9h-5.1c0.6-2.1,1.4-3.5,2.3-3.7l0.3-4.3c-0.3-0.1-0.6-0.3-0.6-0.7c0-0.4,0.3-0.7,0.7-0.7s0.7,0.3,0.7,0.7
					s-0.3,0.6-0.6,0.7l0.3,4.3C56.2-119.3,57-117.9,57.5-115.9z"/>
				<path d="M63.3-94.7c-0.1,1.2-0.2,2.3-0.3,3.5c-0.1,0.1-0.1,0.3-0.2,0.4c0,0.1-0.2-0.1-0.3-0.1c-1.6-1.1-3.2-2.3-4.7-3.4
					c-0.1-0.1-0.2-0.1-0.3-0.2c-0.1,0.2-0.1,0.5-0.1,0.7h-4.5c-0.1-0.3-0.1-0.6-0.2-0.8c-0.1,0-0.2,0.1-0.3,0.1
					c-1.6,1.1-3.2,2.3-4.7,3.4c-0.1,0.1-0.3,0.2-0.3,0.1C47.1-91,47-91.2,47-91.3c-0.1-1.2-0.2-2.3-0.3-3.5c0-0.4,0.1-0.8,0.3-1.1
					c1.3-1.7,2.7-3.4,4.1-5c-0.1-0.8-0.2-1.7-0.2-2.6c0-4.7,0.6-8.9,1.4-11.8h5.2c0.8,2.9,1.4,7.1,1.4,11.8c0,0.9-0.1,1.8-0.2,2.7
					c0.1,0,0.1,0.1,0.1,0.1c1.4,1.7,2.8,3.4,4.1,5.1C63.1-95.4,63.3-95.1,63.3-94.7z"/>
			</g>
		</g>
		<g>
			<path d="M113.6-158.5c-4.8,4.1-5.4,3.9-6-2.6c-0.6,6.5-1.2,6.8-6,2.6c4.1,5,3.8,5.6-2.5,6.3c6.3,0.6,6.5,1.2,2.5,6.3
				c4.8-4.1,5.4-3.9,6,2.6c0.6-6.5,1.2-6.8,6-2.6c-4.1-5-3.8-5.6,2.5-6.3C109.8-152.8,109.6-153.4,113.6-158.5z"/>
		</g>
		<g>
			<g>
				<g>
					<g class="st1">
						<circle class="st2" cx="71.2" cy="-152.3" r="6.5"/>
					</g>
					<circle cx="71.2" cy="-152.3" r="6.5"/>
				</g>
				<g>
					<path d="M85.6-157.8c0,0.1,0,0.2,0,0.3c-0.3,0.8-1,1.4-1.7,1.9c-1.4,1.2-2.9,2.1-4.5,3c-0.5,0.3-1,0.6-1.4,0.8
						c0,0-0.1,0-0.1,0.1c-0.1,0.1-0.2,0.1-0.3,0.2c0,0.1-0.1,0.1-0.1,0.1c-1,0.5-1.9,1-3,1.4c-1.9,0.8-3.9,1.6-5.9,2.3
						c-0.6,0.1-1.1,0.3-1.7,0.5c-0.1,0.1-0.3,0.1-0.4,0.1c-0.1,0-0.1,0-0.1,0c-0.7,0.2-1.3,0.3-2,0.6c-0.6,0.1-1.2,0.3-1.8,0.4
						c-0.5,0.1-1,0.2-1.4,0.3c-0.6,0.1-1.1,0.1-1.7,0.2c-0.7,0-1.4,0.1-2.1-0.1c-0.2,0-0.3-0.1-0.5-0.2c-0.1-0.2-0.1-0.4-0.1-0.6
						c0.1-0.3,0.3-0.7,0.6-1c0.7-0.8,1.5-1.4,2.4-1.9c1.4-1,3-1.8,4.5-2.5c0.1-0.1,0.1-0.1,0.1-0.1c0.1,0.1,0.1,0.3-0.1,0.3
						c-1.2,0.6-2.3,1.2-3.4,2c-0.7,0.5-1.4,1-1.9,1.6c-0.2,0.3-0.5,0.6-0.6,1c0,0.3,0.1,0.4,0.3,0.6c0.3,0.1,0.6,0.2,1,0.2
						c0.6,0,1.3-0.1,1.9-0.1c0.6-0.1,1.2-0.2,1.9-0.3c1.2-0.2,2.3-0.6,3.4-0.8c0.1,0,0.1,0,0.1-0.1c-0.4,0.1-0.8,0.2-1.2,0.3l0,0
						c-1.7,0.4-3.4,0.8-5.1,0.9c-0.3,0-0.6,0-1,0c-0.3,0-0.6,0-0.8-0.1c-0.3-0.1-0.3-0.3-0.3-0.6c0-0.1,0.1-0.3,0.3-0.5l0,0L59-148
						c0.3-0.5,0.8-0.9,1.3-1.2c1.2-0.9,2.4-1.7,3.8-2.3c0.1-0.1,0.2-0.1,0.3-0.1c0.1,0.1,0.1,0.2,0.1,0.3c0.1,0.1,0,0.2-0.1,0.3
						c-0.8,0.5-1.7,1-2.4,1.7c-0.3,0.3-0.6,0.5-0.8,0.8c-0.1,0.1-0.1,0.2-0.1,0.3c-0.1,0.3,0,0.6,0.3,0.6c0.4,0.1,0.8,0.1,1.2,0.1
						c2.1-0.1,4.1-0.7,6.1-1.3c2.3-0.8,4.6-1.7,6.8-2.8c1.2-0.6,2.4-1.3,3.6-2.1c0.7-0.5,1.4-1,1.9-1.5c0.2-0.2,0.3-0.4,0.5-0.6
						c0.1-0.3,0.1-0.6-0.3-0.6c-0.3-0.1-0.6-0.1-0.9-0.1c-0.8,0-1.6,0.1-2.3,0.3c-0.3,0.1-0.6,0.1-1,0.2c-0.1,0-0.1,0-0.2-0.1
						c-0.2-0.3-0.2-0.2,0.1-0.3c0.6-0.2,1.2-0.3,1.8-0.5c0.1,0,0.2,0,0.3-0.1h0.1c0,0.1,0.1,0.1,0.1,0h0.1c0.1,0.1,0.3,0,0.3,0
						c0.5-0.1,1-0.1,1.5-0.2c0.3-0.1,0.6-0.1,1-0.1c0.4,0,0.8,0.1,1.2,0.1c0.4,0.1,0.6,0.3,0.3,0.7c-0.1,0.3-0.3,0.6-0.6,0.8
						c-0.1,0.1-0.1,0.1-0.1,0.2c-0.6,0.6-1.3,1-2,1.5c-1.1,0.8-2.2,1.4-3.4,2.1c-0.1,0-0.1,0-0.1,0.1c-0.1,0-0.1,0.1-0.1,0.1
						c0.1,0,0.1,0,0.1-0.1c0.1,0,0.1-0.1,0.1-0.1c0.7-0.3,1.4-0.8,2.1-1.2c1.2-0.8,2.4-1.4,3.5-2.4c0.3-0.3,0.6-0.6,0.8-1
						c0.3-0.4,0.1-0.7-0.3-0.9c-0.3-0.1-0.7-0.2-1.1-0.2c-0.8,0-1.5,0.1-2.3,0.2c-1.3,0.2-2.5,0.6-3.9,1c-0.1,0-0.3-0.1-0.3-0.3
						c0.2-0.1,0.5-0.1,0.7-0.2c1.6-0.4,3.1-0.8,4.7-1c1-0.2,1.9-0.3,2.8-0.3c0.3,0,0.6,0.1,0.9,0.1C85.4-158,85.6-157.9,85.6-157.8z
						 M75.5-150.9c0.1-0.1,0.3-0.1,0.5-0.2C75.7-151.1,75.6-150.9,75.5-150.9z M65.9-147.4L65.9-147.4L65.9-147.4z M72.9-149.8
						c-0.8,0.3-1.6,0.6-2.3,0.9c-0.3,0.1-0.6,0.2-1,0.3c0.3-0.1,0.6-0.2,1-0.3C71.4-149.2,72.2-149.5,72.9-149.8z M77.2-151.8
						C77.3-151.8,77.3-151.8,77.2-151.8C77.3-151.8,77.3-151.8,77.2-151.8z M77.3-151.8C77.3-151.8,77.3-151.8,77.3-151.8
						S77.3-151.8,77.3-151.8z"/>
					<path d="M77.5-151.8L77.5-151.8L77.5-151.8z"/>
				</g>
			</g>
			<g>
				<polygon points="29,-138.6 24.5,-138.6 22.8,-136 30.6,-136 				"/>
				<path d="M29.1-161.2H24c0.6-2.1,1.4-3.5,2.3-3.7l0.3-4.3c-0.3-0.1-0.6-0.3-0.6-0.7c0-0.4,0.3-0.7,0.7-0.7c0.4,0,0.7,0.3,0.7,0.7
					s-0.3,0.6-0.6,0.7l0.3,4.3C27.8-164.6,28.7-163.3,29.1-161.2z"/>
				<path d="M34.9-140c-0.1,1.2-0.2,2.3-0.3,3.5c-0.1,0.1-0.1,0.3-0.2,0.4c0,0.1-0.2-0.1-0.3-0.1c-1.6-1.1-3.2-2.3-4.7-3.4
					c-0.1-0.1-0.2-0.1-0.3-0.2c-0.1,0.2-0.1,0.5-0.1,0.7h-4.5c-0.1-0.3-0.1-0.6-0.2-0.8c-0.1,0-0.2,0.1-0.3,0.1
					c-1.6,1.1-3.2,2.3-4.7,3.4c-0.1,0.1-0.3,0.2-0.3,0.1c-0.1-0.1-0.2-0.3-0.2-0.4c-0.1-1.2-0.2-2.3-0.3-3.5c0-0.4,0.1-0.8,0.3-1.1
					c1.3-1.7,2.7-3.4,4.1-5c-0.1-0.8-0.2-1.7-0.2-2.6c0-4.7,0.6-8.9,1.4-11.8h5.2c0.8,2.9,1.4,7.1,1.4,11.8c0,0.9-0.1,1.8-0.2,2.7
					c0.1,0,0.1,0.1,0.1,0.1c1.4,1.7,2.8,3.4,4.1,5.1C34.8-140.8,34.9-140.4,34.9-140z"/>
			</g>
		</g>
		<g>
			<path d="M85.3-203.8c-4.8,4.1-5.4,3.9-6-2.6c-0.6,6.5-1.2,6.8-6,2.6c4.1,5,3.8,5.6-2.5,6.3c6.3,0.6,6.5,1.2,2.5,6.3
				c4.8-4.1,5.4-3.9,6,2.6c0.6-6.5,1.2-6.8,6-2.6c-4.1-5-3.8-5.6,2.5-6.3C81.4-198.2,81.2-198.7,85.3-203.8z"/>
			<g>
				<polygon points="114,-184 109.5,-184 107.8,-181.4 115.6,-181.4 				"/>
				<path d="M120-185.4c-0.1,1.2-0.2,2.3-0.3,3.5c-0.1,0.1-0.1,0.3-0.2,0.4c0,0.1-0.2-0.1-0.3-0.1c-1.6-1.1-3.2-2.3-4.7-3.4
					c-0.1-0.1-0.2-0.1-0.3-0.2c-0.1,0.2-0.1,0.5-0.1,0.7h-4.5c-0.1-0.3-0.1-0.6-0.2-0.8c-0.1,0-0.2,0.1-0.3,0.1
					c-1.6,1.1-3.2,2.3-4.7,3.4c-0.1,0.1-0.3,0.2-0.3,0.1c-0.1-0.1-0.2-0.3-0.2-0.4c-0.1-1.2-0.2-2.3-0.3-3.5c0-0.4,0.1-0.8,0.3-1.1
					c1.3-1.7,2.7-3.4,4.1-5c-0.1-0.8-0.2-1.7-0.2-2.6c0-4.7,0.6-8.9,1.4-11.8h5.2c0.8,2.9,1.4,7.1,1.4,11.8c0,0.9-0.1,1.8-0.2,2.7
					c0.1,0,0.1,0.1,0.1,0.1c1.4,1.7,2.8,3.4,4.1,5.1C119.8-186.1,120-185.8,120-185.4z"/>
			</g>
		</g>
		<g>
			<g>
				<g>
					<g class="st1">
						<circle class="st2" cx="42.8" cy="-197.7" r="6.5"/>
					</g>
					<circle cx="42.8" cy="-197.7" r="6.5"/>
				</g>
				<g>
					<path d="M57.2-203.1c0,0.1,0,0.2,0,0.3c-0.3,0.8-1,1.4-1.7,1.9c-1.4,1.2-2.9,2.1-4.5,3c-0.5,0.3-1,0.6-1.4,0.8
						c0,0-0.1,0-0.1,0.1c-0.1,0.1-0.2,0.1-0.3,0.2c0,0.1-0.1,0.1-0.1,0.1c-1,0.5-1.9,1-3,1.4c-1.9,0.8-3.9,1.6-5.9,2.3
						c-0.6,0.1-1.1,0.3-1.7,0.5c-0.1,0.1-0.3,0.1-0.4,0.1c-0.1,0-0.1,0-0.1,0c-0.7,0.2-1.3,0.3-2,0.6c-0.6,0.1-1.2,0.3-1.8,0.4
						c-0.5,0.1-1,0.2-1.4,0.3c-0.6,0.1-1.1,0.1-1.7,0.2c-0.7,0-1.4,0.1-2.1-0.1c-0.2,0-0.3-0.1-0.5-0.2c-0.1-0.2-0.1-0.4-0.1-0.6
						c0.1-0.3,0.3-0.7,0.6-1c0.7-0.8,1.5-1.4,2.4-1.9c1.4-1,3-1.8,4.5-2.5c0.1-0.1,0.1-0.1,0.1-0.1c0.1,0.1,0.1,0.3-0.1,0.3
						c-1.2,0.6-2.3,1.2-3.4,2c-0.7,0.5-1.4,1-1.9,1.6c-0.2,0.3-0.5,0.6-0.6,1c0,0.3,0.1,0.4,0.3,0.6c0.3,0.1,0.6,0.2,1,0.2
						c0.6,0,1.3-0.1,1.9-0.1c0.6-0.1,1.2-0.2,1.9-0.3c1.2-0.2,2.3-0.6,3.4-0.8c0.1,0,0.1,0,0.1-0.1c-0.4,0.1-0.8,0.2-1.2,0.3l0,0
						c-1.7,0.4-3.4,0.8-5.1,0.9c-0.3,0-0.6,0-1,0c-0.3,0-0.6,0-0.8-0.1c-0.3-0.1-0.3-0.3-0.3-0.6c0-0.1,0.1-0.3,0.3-0.5l0,0l0.1-0.1
						c0.3-0.5,0.8-0.9,1.3-1.2c1.2-0.9,2.4-1.7,3.8-2.3c0.1-0.1,0.2-0.1,0.3-0.1c0.1,0.1,0.1,0.2,0.1,0.3c0.1,0.1,0,0.2-0.1,0.3
						c-0.8,0.5-1.7,1-2.4,1.7c-0.3,0.3-0.6,0.5-0.8,0.8c-0.1,0.1-0.1,0.2-0.1,0.3c-0.1,0.3,0,0.6,0.3,0.6c0.4,0.1,0.8,0.1,1.2,0.1
						c2.1-0.1,4.1-0.7,6.1-1.3c2.3-0.8,4.6-1.7,6.8-2.8c1.2-0.6,2.4-1.3,3.6-2.1c0.7-0.5,1.4-1,1.9-1.5c0.2-0.2,0.3-0.4,0.5-0.6
						c0.1-0.3,0.1-0.6-0.3-0.6c-0.3-0.1-0.6-0.1-0.9-0.1c-0.8,0-1.6,0.1-2.3,0.3c-0.3,0.1-0.6,0.1-1,0.2c-0.1,0-0.1,0-0.2-0.1
						c-0.2-0.3-0.2-0.2,0.1-0.3c0.6-0.2,1.2-0.3,1.8-0.5c0.1,0,0.2,0,0.3-0.1h0.1c0,0.1,0.1,0.1,0.1,0h0.1c0.1,0.1,0.3,0,0.3,0
						c0.5-0.1,1-0.1,1.5-0.2c0.3-0.1,0.6-0.1,1-0.1c0.4,0,0.8,0.1,1.2,0.1s0.6,0.3,0.3,0.7c-0.1,0.3-0.3,0.6-0.6,0.8
						c-0.1,0.1-0.1,0.1-0.1,0.2c-0.6,0.6-1.3,1-2,1.5c-1.1,0.8-2.2,1.4-3.4,2.1c-0.1,0-0.1,0-0.1,0.1c-0.1,0-0.1,0.1-0.1,0.1
						c0.1,0,0.1,0,0.1-0.1c0.1,0,0.1-0.1,0.1-0.1c0.7-0.3,1.4-0.8,2.1-1.2c1.2-0.8,2.4-1.4,3.5-2.4c0.3-0.3,0.6-0.6,0.8-1
						c0.3-0.4,0.1-0.7-0.3-0.9c-0.3-0.1-0.7-0.2-1.1-0.2c-0.8,0-1.5,0.1-2.3,0.2c-1.3,0.2-2.5,0.6-3.9,1c-0.1,0-0.3-0.1-0.3-0.3
						c0.2-0.1,0.5-0.1,0.7-0.2c1.6-0.4,3.1-0.8,4.7-1c1-0.2,1.9-0.3,2.8-0.3c0.3,0,0.6,0.1,0.9,0.1
						C57.1-203.4,57.3-203.3,57.2-203.1z M47.1-196.3c0.1-0.1,0.3-0.1,0.5-0.2C47.4-196.4,47.3-196.3,47.1-196.3z M37.5-192.8
						L37.5-192.8L37.5-192.8z M44.6-195.1c-0.8,0.3-1.6,0.6-2.3,0.9c-0.3,0.1-0.6,0.2-1,0.3c0.3-0.1,0.6-0.2,1-0.3
						C43.1-194.5,43.8-194.9,44.6-195.1z M48.8-197.1C48.9-197.1,48.9-197.1,48.8-197.1C48.9-197.1,48.9-197.1,48.8-197.1z
						 M48.9-197.2C49-197.2,48.9-197.2,48.9-197.2S49-197.2,48.9-197.2z"/>
					<path d="M49.1-197.2L49.1-197.2L49.1-197.2z"/>
				</g>
			</g>
		</g>
	</g>
</pattern>
<g>
	<g>
		<g class="st1">
			<circle class="st2" cx="384.1" cy="-83" r="6.5"/>
		</g>
		<g>
			<circle cx="384.1" cy="-83" r="6.5"/>
		</g>
	</g>
	<g>
		<path d="M398.2-88.8c-0.3-0.1-0.6-0.1-0.9-0.1c-1,0-1.9,0.1-2.8,0.3c-1.6,0.3-3.1,0.6-4.7,1c-0.2,0.1-0.5,0.1-0.7,0.2
			c0,0.1,0.2,0.3,0.3,0.3c1.3-0.4,2.5-0.8,3.9-1c0.8-0.1,1.5-0.2,2.3-0.2c0.4,0,0.8,0.1,1.1,0.2c0.4,0.2,0.6,0.5,0.3,0.9
			c-0.2,0.4-0.6,0.7-0.8,1c-1.1,1-2.3,1.7-3.5,2.4c-0.7,0.4-1.4,0.8-2.1,1.2c-0.1,0-0.1,0.1-0.1,0.1c0,0.1-0.1,0.1-0.1,0.1
			c0,0,0.1-0.1,0.1-0.1c0-0.1,0.1-0.1,0.1-0.1c1.2-0.7,2.3-1.4,3.4-2.1c0.7-0.5,1.4-0.9,2-1.5c0-0.1,0.1-0.1,0.1-0.2
			c0.2-0.2,0.4-0.5,0.6-0.8c0.2-0.3,0.1-0.6-0.3-0.7s-0.8-0.1-1.2-0.1c-0.3,0-0.7,0-1,0.1c-0.6,0.1-1,0.1-1.5,0.2
			c-0.1,0-0.2,0.1-0.3,0h-0.1c0,0.1-0.1,0.1-0.1,0H392c-0.1,0.1-0.3,0.1-0.3,0.1c-0.6,0.1-1.2,0.3-1.8,0.5c-0.3,0.1-0.3,0.1-0.1,0.3
			c0.1,0.1,0.1,0.1,0.2,0.1c0.3-0.1,0.7-0.1,1-0.2c0.8-0.1,1.6-0.3,2.3-0.3c0.3,0,0.6,0,0.9,0.1c0.3,0.1,0.4,0.3,0.3,0.6
			c-0.1,0.2-0.3,0.4-0.5,0.6c-0.6,0.6-1.2,1-1.9,1.5c-1.2,0.8-2.3,1.4-3.6,2.1c-2.2,1.1-4.5,2-6.8,2.8c-2,0.6-4,1.2-6.1,1.3
			c-0.4,0-0.8,0-1.2-0.1c-0.3-0.1-0.4-0.3-0.3-0.6c0.1-0.1,0.1-0.2,0.1-0.3c0.2-0.3,0.5-0.6,0.8-0.8c0.8-0.6,1.6-1.2,2.4-1.7
			c0.1-0.1,0.2-0.1,0.1-0.3c0-0.1,0.1-0.2-0.1-0.3c-0.1,0-0.2,0.1-0.3,0.1c-1.4,0.7-2.6,1.4-3.8,2.3c-0.5,0.3-1,0.8-1.3,1.2
			l-0.1,0.1l0,0c-0.1,0.1-0.3,0.3-0.3,0.5c-0.1,0.3,0,0.5,0.3,0.6c0.3,0.1,0.6,0.1,0.8,0.1c0.3,0,0.6,0,1,0c1.7-0.1,3.4-0.5,5.1-0.9
			l0,0c0.4-0.1,0.8-0.1,1.2-0.3c0,0.1-0.1,0.1-0.1,0.1c-1.1,0.3-2.3,0.6-3.4,0.8c-0.6,0.1-1.2,0.2-1.9,0.3c-0.6,0.1-1.3,0.1-1.9,0.1
			c-0.3,0-0.6-0.1-1-0.2c-0.2-0.1-0.3-0.3-0.3-0.6c0.1-0.4,0.3-0.7,0.6-1c0.6-0.6,1.2-1.1,1.9-1.6c1.1-0.8,2.3-1.4,3.4-2
			c0.1-0.1,0.2-0.2,0.1-0.3c0,0.1-0.1,0.1-0.1,0.1c-1.5,0.8-3,1.6-4.5,2.5c-0.9,0.6-1.7,1.2-2.4,1.9c-0.3,0.3-0.6,0.6-0.6,1
			c-0.1,0.2-0.1,0.4,0.1,0.6c0.1,0.1,0.3,0.2,0.5,0.2c0.7,0.1,1.4,0.1,2.1,0.1c0.6-0.1,1.2-0.1,1.7-0.2c0.5-0.1,1-0.2,1.4-0.3
			c0.6-0.1,1.2-0.3,1.8-0.4c0.7-0.2,1.3-0.3,2-0.6c0.1,0,0.1,0,0.1,0c0.1-0.1,0.3-0.1,0.4-0.1c0.6-0.2,1.1-0.3,1.7-0.5
			c2-0.7,4-1.4,5.9-2.3c1-0.4,2-0.9,3-1.4c0,0,0.1,0,0.1-0.1c0.1-0.1,0.2-0.1,0.3-0.2c0-0.1,0.1-0.1,0.1-0.1c0.5-0.3,1-0.6,1.4-0.8
			c1.6-0.9,3.1-1.8,4.5-3c0.7-0.6,1.4-1.1,1.7-1.9c0-0.1,0-0.2,0-0.3C398.6-88.6,398.4-88.7,398.2-88.8z M388.9-81.8
			c-0.1,0.1-0.3,0.1-0.5,0.2C388.5-81.6,388.7-81.8,388.9-81.8z M378.8-78.1L378.8-78.1L378.8-78.1z M383.5-79.6
			c-0.3,0.1-0.6,0.2-1,0.3C382.9-79.4,383.2-79.5,383.5-79.6c0.8-0.3,1.6-0.6,2.3-0.9C385.1-80.2,384.3-79.8,383.5-79.6z
			 M390.1-82.5C390.2-82.5,390.2-82.5,390.1-82.5C390.2-82.5,390.2-82.5,390.1-82.5z M390.2-82.5C390.2-82.5,390.2-82.5,390.2-82.5
			C390.2-82.5,390.2-82.5,390.2-82.5z"/>
		<path d="M390.4-82.5L390.4-82.5L390.4-82.5z"/>
	</g>
</g>
<path d="M315.6-82.9c-6.3,0.6-6.5,1.2-2.5,6.3c-4.8-4.2-5.4-3.9-6,2.6c-0.6-6.5-1.2-6.7-6-2.6c4.1-5,3.8-5.6-2.5-6.3
	c6.3-0.6,6.5-1.2,2.5-6.3c4.8,4.2,5.4,3.9,6-2.6c0.6,6.5,1.2,6.7,6,2.6C309.1-84,309.3-83.5,315.6-82.9z"/>
<g>
	<polygon points="343.5,-66.7 335.7,-66.7 337.4,-69.3 341.9,-69.3 	"/>
	<path d="M339.9-95.6l-0.3-4.3c0.3-0.1,0.6-0.3,0.6-0.7c0-0.3-0.3-0.7-0.7-0.7c-0.4,0-0.7,0.3-0.7,0.7c0,0.3,0.3,0.6,0.6,0.7
		l-0.3,4.3c-0.9,0.2-1.7,1.6-2.3,3.7h5.1C341.6-94,340.8-95.3,339.9-95.6z"/>
	<path d="M347.4-71.8c-1.4-1.7-2.8-3.4-4.1-5.1c0,0,0-0.1-0.1-0.1c0.1-0.9,0.2-1.8,0.2-2.7c0-4.7-0.6-8.9-1.4-11.8h-5.2
		c-0.8,2.9-1.4,7.1-1.4,11.8c0,0.9,0.1,1.8,0.2,2.6c-1.4,1.7-2.8,3.4-4.1,5c-0.3,0.3-0.3,0.7-0.3,1.1c0.1,1.2,0.1,2.3,0.3,3.5
		c0,0.1,0.1,0.3,0.2,0.4c0.1,0.1,0.3-0.1,0.3-0.1c1.6-1.1,3.2-2.3,4.7-3.4c0.1-0.1,0.1-0.1,0.3-0.1c0.1,0.3,0.1,0.6,0.2,0.8h4.5
		c0.1-0.2,0.1-0.5,0.1-0.7c0.1,0.1,0.2,0.1,0.3,0.2c1.6,1.1,3.2,2.3,4.7,3.4c0.1,0.1,0.3,0.2,0.3,0.1c0.1-0.1,0.1-0.3,0.2-0.4
		c0.1-1.2,0.1-2.3,0.3-3.5C347.8-71.1,347.7-71.4,347.4-71.8z"/>
</g>
<pattern  id="SVGID_1_" xlink:href="#New_Pattern" patternTransform="matrix(-1 0 0 1 -30158.5293 17350.0898)">
</pattern>
<rect x="0" y="0" class="st3" width="1360.8" height="808.6"/>
<linearGradient id="SVGID_2_" gradientUnits="userSpaceOnUse" x1="-86.9025" y1="1315.1099" x2="840.6337" y2="1315.1099" gradientTransform="matrix(-0.9184 -0.3957 -0.3957 0.9184 2295.2449 -774.0637)">
	<stop  offset="0" style="stop-color:#00FF66"/>
	<stop  offset="1" style="stop-color:#FF90FF"/>
</linearGradient>
<path class="st4" d="M977.6,300.5c-61.5,31.5-69.8,81.8,15.4,91.3c3.8,0.4,7,2.8,10.5,3.8c4.4,1.2,8.3,3.6,11.7,6.6l7.1,6.3
	c4.4,3.9,7,9.5,7,15.4c-0.1,23.8,9.6,49.3,32.8,59.3c13.5,5.8,26.8,9.6,48,1.1c21.1-8.5,40.3-47.6,40.9-52.2
	c0.8-6.1,0.7-12.2-0.4-18.1c-1.5-8.9,0.4-18.1,5.5-25.6c1.5-2.1,2.7-4.5,3.8-6.9c3.8-8.8,4.3-18.3,2.1-27
	c-3-11.5,5.8-22.7,17.7-22.1l0.4,0c5.7,0.3,10.8,3.2,14.2,7.8c2.3,3,5.4,5.5,9.2,7c10.4,4.1,19.4-10.3,28-17.5
	c12.5-10.6,29.5-15.7,40.5-16.5c14.5-1.2,27.2,10.2,32,24c7.2,20.8,22.9,38.7,44.7,48.1c25.2,10.9,52.9,8,74.7-5.3
	c13.9-8.5,31.7-6.9,43.8,3.9c4.9,4.4,10.6,8,17,10.8c21.7,9.4,45.9,5.5,63.4-8.1c14.8-11.4,33-17.5,51.7-16.6l1.5,0.1
	c9.3,0.5,17.2,6.2,20.5,14.5l0.1,0.3c2.9,7.2,2.4,15.4-1.6,22.1c-1.3,2.2-2.4,4.4-3.4,6.9c-8,20.7,1.9,44.4,22.3,53.3
	c13.4,5.9,28.2,4.1,39.6-3.3c12.9-8.4,27.8-13.4,43.2-14c38.9-1.4,95.9-8.1,112.3-46.2c6.2-14.3,9.7-42.1,4.9-55.9
	c-2.2-6.3-5.3-16.6-8.1-26c-4.5-15.2-2.8-31.6,4.8-45.5c7.3-13.3,26.2-20.7,30.8-26.2c15.4-18.4,21.7-36.6,19.2-39.7
	c-12.2-14.9-38,6.2-43.5-1.7c-11.2-16-10-34.1,7.6-58.5c10.6-14.6,15.2-23.5,2.7-37.2c-8-8.7-23.6-11.7-28.6-1.7
	c-3.9,7.9,1.3,15.5-0.2,22.8c-0.7,3.3-6.6,11.5-14.5,15.1c-13.2,5.8-24.9,8.9-31,23.1c-0.7,1.5-1.2,3.1-1.7,4.7
	c-3.2,10.6-10.3,19.5-20.1,24.5c-10.2,5.3-18.6,14-23.5,25.3l-0.2,0.4c-3.6,8.6-11.7,14.4-21,14.9c-0.2,0-0.3,0-0.4,0
	c-7.6,0.5-17.7-1.6-26.1-3.8c-6,5.7-12.5,10.8-19.3,15.6c-13.2,9.1-27.6,16.4-42.5,22.2l1,1c5.1,4.9,6.3,12.5,3,18.8
	c-0.7,1.3-1.3,2.5-1.9,3.7c-3.1,6.1-9.4,9.7-16.2,9.4l0,0c-2.5-0.1-4.6-1.8-5.3-4.2c-2.8-9.2-9.4-17.2-19-21.3
	c-12.2-5.2-25.7-2.8-35.2,5.2c0,0,0,0,0,0c-4.5-3.8-9.7-7-15.4-9.5c-13.9-6-28.9-6.6-42.4-2.7c-17,4.9-32.5,6.2-40.5-9.6
	c-4.9-9.8-11.5-9.8-15.9-11.2c-4.5-1.5-5.3-7.5-1.4-10.2c0.4-0.3,9.5-4.9,13.8-13.6c14.1-28.7-5.4-46-24.6-50.5
	c-18.9-4.4-36.7-7.7-47.2,29.2c-0.1,0.4-3,6.9-3.1,7.3c-2.2,6.8-7.1,12.4-14,14.4c-14.4,4.1-27.7,12.2-38,23.5
	c-7.4,8.1-18,12.4-28.9,11.8l-0.3,0c-13-0.6-25.2-5.8-35.1-14.2c-3-2.6-6.6-4.8-10.5-6.5c-2.7-1.1-5.4-2-8.1-2.6
	c-11.2-2.3-21.4-8.2-29-16.7c-3.9-4.4-8.8-8-14.6-10.4c-21.2-9.1-48.7,8.5-60.3,20.1c-9.5,9.5-24.4,23.1-47.7-1.9
	c-9.1-9.8,0.9-21.7,3.1-27.7c8.2-21.9,0.9-28.4-21-37.3c-20.7-8.4-44.6,1.3-53.8,21.7c-0.4,1-0.9,2-1.2,3
	c-3.3,9.1-10.2,16.6-19.2,20.2C972.2,224.2,1000.2,288.9,977.6,300.5z"/>
<linearGradient id="SVGID_3_" gradientUnits="userSpaceOnUse" x1="-792.5459" y1="47.1709" x2="134.9903" y2="47.1709" gradientTransform="matrix(1.1289 0.4815 0.5224 -1.2249 272.8528 621.4631)">
	<stop  offset="0" style="stop-color:#00FF66"/>
	<stop  offset="1" style="stop-color:#FF90FF"/>
</linearGradient>
<path class="st5" d="M487.9,365.3c77.5-44.1,89.6-110.5-16.1-119.4c-4.7-0.4-8.6-3.4-13-4.6c-5.4-1.4-10.2-4.4-14.3-8.2l-8.6-7.9
	c-5.3-4.9-8.4-12.1-8.2-19.9c1-31.3-10.3-64.4-38.8-76.6c-16.6-7.1-33-11.6-59.7,0.6c-26.5,12.1-51.7,64.3-52.6,70.3
	c-1.2,8.1-1.2,16-0.2,23.8c1.6,11.7-1.1,23.8-7.6,33.8c-1.9,2.9-3.5,6-4.9,9.3c-5,11.8-6,24.3-3.5,35.6c3.3,15-8,30.1-22.8,29.8
	l-0.4,0c-7.1-0.1-13.3-3.8-17.4-9.6c-2.7-3.9-6.5-7-11.2-8.8c-12.8-4.9-24.5,14.3-35.4,24.2c-15.9,14.4-37.3,21.9-50.9,23.5
	c-18.1,2.2-33.5-12.3-39-30.2c-8.3-27.1-27.2-50-54-61.4c-31-13.2-65.5-8.3-93.1,10.2c-17.6,11.8-39.6,10.4-54.3-3.3
	c-6-5.5-12.9-10.1-20.8-13.5c-26.7-11.4-56.9-5.3-79.1,13.3c-18.7,15.7-41.6,24.5-64.8,24l-1.9,0c-11.6-0.2-21.1-7.4-25-18.2
	l-0.1-0.3c-3.4-9.4-2.5-20.2,2.8-29.1c1.7-2.9,3.2-5.9,4.4-9.2c10.6-27.6-0.9-58.3-26-69.1c-16.5-7.2-34.9-4.2-49.4,6.1
	c-16.3,11.7-35,18.8-54.2,20.2c-48.4,3.5-119.5,14.8-141.1,65.6c-8.2,19.1-13.4,55.8-8,73.8c2.5,8.1,6.1,21.6,9.2,33.9
	c5.1,19.8,2.5,41.4-7.5,60.1c-9.5,17.8-33.3,28.3-39.1,35.7c-19.7,24.9-28.2,49.1-25.2,53c14.7,19,47.5-9.7,54,0.4
	c13.4,20.6,11.3,44.4-11.4,77.3c-13.6,19.7-19.7,31.6-4.6,49c9.6,11.1,28.9,14.3,35.5,1c5.2-10.5-1.1-20.3,1-30
	c1-4.3,8.6-15.5,18.5-20.4c16.6-8.2,31.2-12.8,39.3-31.7c0.9-2,1.7-4.2,2.3-6.3c4.3-14,13.5-26.1,25.8-33.1
	c12.8-7.4,23.6-19.2,30.1-34.3l0.2-0.5c4.8-11.4,15.1-19.4,26.6-20.5c0.2,0,0.4-0.1,0.5-0.1c9.5-1,22,1.3,32.3,3.9
	c7.7-7.7,15.9-14.8,24.5-21.3c16.7-12.6,34.8-22.7,53.6-31l-1.2-1.2c-6.2-6.2-7.4-16.2-3.1-24.6c0.9-1.7,1.7-3.4,2.5-5
	c4-8.1,12-13.2,20.5-13.1l0.1,0c3.1,0.1,5.7,2.2,6.5,5.3c3.2,12,11.2,22.2,22.9,27.2c15,6.4,31.9,2.5,43.9-8.4c0,0,0,0,0.1,0
	c5.5,4.8,11.8,8.8,18.9,11.8c17.1,7.3,35.7,7.4,52.6,1.7c21.3-7.2,40.7-9.5,50,10.9c5.8,12.7,14,12.4,19.4,14.1
	c5.6,1.7,6.4,9.7,1.4,13.4c-0.6,0.4-12,6.8-17.6,18.5c-18.5,38.4,5.1,60.3,28.9,65.4c23.3,5,45.4,8.5,59.7-40.4
	c0.1-0.5,3.9-9.2,4.1-9.7c3-9.1,9.3-16.6,17.9-19.5c18.1-6,34.8-17.2,48-32.5c9.4-10.9,22.8-17,36.3-16.8l0.3,0
	c16.1,0.3,31.2,6.6,43.2,17.2c3.7,3.3,8,6,12.8,8.1c3.3,1.4,6.6,2.4,10,3.1c13.8,2.6,26.3,9.9,35.5,20.7
	c4.7,5.6,10.7,10.1,17.8,13.1c26.1,11.1,60.8-13.2,75.7-29c12.2-12.9,31.1-31.4,59.2,0.5c11,12.5-1.8,28.5-4.8,36.5
	c-10.9,29.2-2,37.5,24.8,48.1c25.5,10.1,55.6-3.6,67.6-30.8c0.6-1.3,1.1-2.7,1.6-4.1c4.4-12.1,13.3-22.2,24.6-27.4
	C492.1,465.4,459.4,381.5,487.9,365.3z"/>
</svg>
