<?xml version="1.0" encoding="utf-8"?>
<!-- Generator: Adobe Illustrator 23.0.1, SVG Export Plug-In . SVG Version: 6.00 Build 0)  -->
<svg version="1.1" id="Layer_1" xmlns="http://www.w3.org/2000/svg" xmlns:xlink="http://www.w3.org/1999/xlink" x="0px" y="0px"
	 viewBox="0 0 1320 756" style="enable-background:new 0 0 1320 756;" xml:space="preserve">
<style type="text/css">
	.st0{fill:none;}
	.st1{opacity:0.87;}
	.st2{fill:#FFFFFF;}
	.st3{fill:url(#New_Pattern);}
</style>
<pattern  x="-32" y="14" width="220" height="168" patternUnits="userSpaceOnUse" id="New_Pattern" viewBox="17.35 -193.01 220 168" style="overflow:visible;">
	<g>
		<rect x="17.35" y="-193.01" class="st0" width="220" height="168"/>
		<g>
			<g class="st1">
				<path class="st2" d="M76.11-17.66c-6.92,0.7-7.19,1.34-2.75,6.88c-5.34-4.62-5.95-4.33-6.63,2.85
					c-0.68-7.18-1.29-7.47-6.63-2.85c4.45-5.54,4.17-6.18-2.75-6.88c6.92-0.7,7.19-1.34,2.75-6.88c5.34,4.62,5.95,4.33,6.63-2.85
					c0.68,7.18,1.29,7.47,6.63,2.85C68.92-19,69.19-18.36,76.11-17.66z"/>
				<ellipse class="st2" cx="66.66" cy="-17.56" rx="12.93" ry="13.32"/>
			</g>
			<path d="M70.5-16.07c1.84-0.9,4.66-1.19,9.09-1.49c-4.29-0.29-7.07-0.57-8.91-1.4c-0.82-0.9,0.19-2.46,2.68-5.57
				c-2.99,2.59-4.5,3.63-5.36,2.79c-0.8-1.9-1.06-4.75-1.34-9.13c-0.29,4.5-0.56,7.38-1.4,9.28c-0.9,0.51-2.39-0.55-5.15-2.94
				c2.41,3,3.41,4.55,2.75,5.47c-1.84,0.92-4.66,1.21-9.13,1.51c4.58,0.31,7.44,0.61,9.27,1.59c0.32,0.94-0.72,2.48-2.9,5.2
				c2.63-2.28,4.11-3.36,5.02-3.01c0.95,1.89,1.23,4.83,1.53,9.54c0.3-4.61,0.57-7.52,1.47-9.41c0.89-0.64,2.38,0.41,5.24,2.88
				C71.11-13.59,70.08-15.13,70.5-16.07z"/>
			<g>
				<path d="M119.42-31.72l-0.28-4.8c0.38-0.04,0.67-0.35,0.67-0.74c0-0.41-0.33-0.75-0.75-0.75c-0.41,0-0.75,0.33-0.75,0.75
					c0,0.39,0.3,0.7,0.67,0.74l-0.28,4.78c-0.95,0.27-1.82,1.76-2.51,4.09h5.62C121.18-29.92,120.34-31.39,119.42-31.72z"/>
				<path d="M127.69-5.45c-1.51-1.87-3.02-3.74-4.54-5.61c-0.02-0.02-0.03-0.04-0.05-0.06c0.13-0.97,0.21-1.95,0.21-2.94
					c0-5.21-0.58-9.88-1.49-13.05h-5.66c-0.91,3.17-1.49,7.84-1.49,13.05c0,0.97,0.08,1.94,0.21,2.9c-1.51,1.85-3,3.71-4.51,5.57
					c-0.28,0.35-0.4,0.73-0.37,1.18c0.09,1.28,0.17,2.55,0.27,3.83c0.01,0.15,0.08,0.36,0.19,0.43c0.07,0.05,0.29-0.06,0.42-0.15
					c1.75-1.24,3.5-2.48,5.25-3.72c0.08-0.06,0.17-0.12,0.26-0.18c0.07,0.31,0.13,0.6,0.19,0.89h4.91c0.05-0.25,0.1-0.51,0.16-0.77
					c0.11,0.08,0.21,0.15,0.3,0.21c1.75,1.24,3.49,2.49,5.25,3.72c0.12,0.09,0.34,0.2,0.42,0.15c0.11-0.07,0.18-0.28,0.19-0.43
					c0.1-1.27,0.17-2.55,0.27-3.83C128.09-4.72,127.97-5.1,127.69-5.45z"/>
			</g>
		</g>
		<g>
			<g class="st1">
				<path class="st2" d="M186.11-59.66c-6.92,0.7-7.19,1.34-2.75,6.88c-5.34-4.62-5.95-4.33-6.63,2.85
					c-0.68-7.18-1.29-7.47-6.63-2.85c4.45-5.54,4.17-6.18-2.75-6.88c6.92-0.7,7.19-1.34,2.75-6.88c5.34,4.62,5.95,4.33,6.63-2.85
					c0.68,7.18,1.29,7.47,6.63,2.85C178.92-61,179.19-60.36,186.11-59.66z"/>
				<ellipse class="st2" cx="176.66" cy="-59.56" rx="12.93" ry="13.32"/>
			</g>
			<path d="M180.5-58.07c1.84-0.9,4.66-1.19,9.09-1.49c-4.29-0.29-7.07-0.57-8.91-1.4c-0.82-0.9,0.19-2.46,2.68-5.57
				c-2.99,2.59-4.5,3.63-5.36,2.79c-0.8-1.9-1.06-4.75-1.34-9.13c-0.29,4.5-0.56,7.38-1.4,9.28c-0.9,0.51-2.39-0.55-5.15-2.94
				c2.41,3,3.41,4.55,2.75,5.47c-1.84,0.92-4.66,1.21-9.13,1.51c4.58,0.31,7.44,0.61,9.27,1.59c0.32,0.94-0.72,2.48-2.9,5.2
				c2.63-2.28,4.11-3.36,5.02-3.01c0.95,1.89,1.23,4.83,1.53,9.54c0.3-4.61,0.57-7.52,1.47-9.41c0.89-0.64,2.38,0.41,5.24,2.88
				C181.11-55.59,180.08-57.13,180.5-58.07z"/>
			<g>
				<polygon points="233.32,-41.85 224.74,-41.85 226.58,-44.78 231.56,-44.78 				"/>
				<path d="M229.42-73.72l-0.28-4.8c0.38-0.04,0.67-0.35,0.67-0.74c0-0.41-0.33-0.75-0.75-0.75s-0.75,0.33-0.75,0.75
					c0,0.39,0.3,0.7,0.67,0.74l-0.28,4.78c-0.95,0.27-1.82,1.76-2.51,4.09h5.62C231.18-71.92,230.34-73.39,229.42-73.72z"/>
				<path d="M237.69-47.45c-1.51-1.87-3.02-3.74-4.54-5.61c-0.02-0.02-0.03-0.04-0.05-0.06c0.13-0.97,0.21-1.95,0.21-2.94
					c0-5.21-0.58-9.88-1.49-13.05h-5.66c-0.91,3.17-1.49,7.84-1.49,13.05c0,0.97,0.08,1.94,0.21,2.9c-1.51,1.85-3,3.71-4.51,5.57
					c-0.28,0.35-0.4,0.73-0.37,1.18c0.09,1.28,0.17,2.55,0.27,3.83c0.01,0.15,0.08,0.36,0.19,0.43c0.07,0.05,0.29-0.06,0.42-0.15
					c1.75-1.24,3.5-2.48,5.25-3.72c0.08-0.06,0.17-0.12,0.26-0.18c0.07,0.31,0.13,0.6,0.19,0.89h4.91c0.05-0.25,0.1-0.51,0.16-0.77
					c0.11,0.08,0.21,0.15,0.3,0.21c1.75,1.24,3.49,2.49,5.25,3.72c0.12,0.09,0.34,0.2,0.42,0.15c0.11-0.07,0.18-0.28,0.19-0.43
					c0.1-1.27,0.17-2.55,0.27-3.83C238.09-46.72,237.97-47.1,237.69-47.45z"/>
			</g>
		</g>
		<g>
			<g>
				<g>
					<g class="st1">
						<circle class="st2" cx="68.39" cy="-59.84" r="7.15"/>
					</g>
					<circle cx="68.39" cy="-59.84" r="7.15"/>
				</g>
				<g>
					<path d="M84.49-65.78c0,0.1,0,0.2,0,0.31c-0.39,0.91-1.13,1.52-1.86,2.13c-1.53,1.26-3.2,2.29-4.92,3.26
						c-0.53,0.3-1.07,0.58-1.61,0.87c-0.04,0.02-0.08,0.04-0.1,0.09c-0.16,0.02-0.28,0.12-0.41,0.19c-0.03,0.01-0.06,0.03-0.09,0.04
						c-1.08,0.54-2.17,1.06-3.28,1.55c-2.13,0.94-4.31,1.77-6.52,2.5c-0.59,0.2-1.19,0.38-1.78,0.56c-0.15,0.04-0.3,0.06-0.44,0.14
						c-0.05,0.01-0.1,0.01-0.15,0.02c-0.72,0.2-1.44,0.4-2.16,0.59c-0.67,0.13-1.33,0.29-1.99,0.43c-0.52,0.12-1.05,0.2-1.57,0.31
						c-0.63,0.13-1.27,0.2-1.91,0.25c-0.79,0.06-1.58,0.13-2.37-0.04c-0.21-0.01-0.39-0.12-0.53-0.25
						c-0.19-0.17-0.18-0.42-0.12-0.65c0.12-0.43,0.39-0.77,0.69-1.09c0.78-0.84,1.71-1.5,2.65-2.13c1.58-1.05,3.24-1.95,4.93-2.81
						c0.06-0.03,0.13-0.05,0.17-0.11c0.11,0.15,0.07,0.33-0.08,0.41c-1.31,0.67-2.59,1.39-3.81,2.22c-0.76,0.52-1.5,1.07-2.12,1.76
						c-0.29,0.32-0.54,0.67-0.64,1.1c-0.06,0.29,0.02,0.47,0.27,0.63c0.31,0.2,0.67,0.24,1.03,0.26c0.71,0.03,1.42-0.03,2.13-0.13
						c0.69-0.1,1.37-0.22,2.05-0.36c1.26-0.25,2.51-0.57,3.75-0.91c0.05-0.01,0.11-0.01,0.15-0.08c-0.44,0.1-0.86,0.19-1.29,0.28
						l0,0c-1.84,0.42-3.7,0.79-5.58,0.95c-0.34,0.03-0.69,0.06-1.03,0.03c-0.31,0.01-0.62-0.02-0.91-0.13
						c-0.27-0.11-0.36-0.3-0.27-0.61c0.06-0.21,0.17-0.4,0.33-0.56h0c0.01-0.04,0.03-0.08,0.07-0.09c0.42-0.53,0.93-0.95,1.46-1.36
						c1.31-1.01,2.71-1.88,4.2-2.61c0.1-0.05,0.23-0.15,0.3-0.12c0.1,0.04,0.02,0.2,0.05,0.3c0.05,0.16-0.03,0.23-0.16,0.3
						c-0.92,0.54-1.83,1.11-2.65,1.8c-0.32,0.27-0.63,0.56-0.86,0.91c-0.06,0.1-0.12,0.21-0.16,0.31c-0.13,0.35-0.02,0.59,0.34,0.68
						c0.42,0.11,0.85,0.12,1.28,0.09c2.31-0.16,4.54-0.75,6.75-1.43c2.58-0.79,5.07-1.8,7.48-3c1.37-0.69,2.71-1.44,3.98-2.3
						c0.74-0.5,1.46-1.03,2.09-1.67c0.2-0.2,0.38-0.42,0.51-0.67c0.17-0.35,0.08-0.57-0.3-0.68c-0.32-0.09-0.66-0.11-0.99-0.1
						c-0.88,0.02-1.74,0.15-2.6,0.32c-0.36,0.07-0.72,0.14-1.08,0.23c-0.11,0.03-0.18,0.01-0.26-0.08c-0.23-0.29-0.24-0.29,0.12-0.4
						c0.64-0.2,1.29-0.38,1.95-0.51c0.15,0.01,0.29,0.01,0.41-0.09c0.02,0,0.04-0.01,0.06-0.01c0.05,0.05,0.08,0.04,0.1-0.02
						c0.02,0,0.04-0.01,0.06-0.01c0.12,0.07,0.23,0,0.34-0.02c0.56-0.1,1.13-0.19,1.7-0.25c0.36-0.04,0.73-0.05,1.09-0.07
						c0.47-0.04,0.92,0,1.37,0.11c0.43,0.11,0.56,0.39,0.37,0.79c-0.15,0.31-0.37,0.57-0.61,0.81c-0.06,0.06-0.14,0.1-0.15,0.2
						c-0.67,0.63-1.43,1.14-2.18,1.65c-1.22,0.82-2.47,1.59-3.74,2.32c-0.04,0.02-0.11,0.03-0.12,0.1
						c-0.05-0.02-0.08,0.02-0.12,0.04c0.06,0.03,0.09,0.01,0.12-0.04c0.07,0,0.12-0.04,0.17-0.07c0.77-0.41,1.54-0.83,2.29-1.28
						c1.34-0.8,2.66-1.62,3.85-2.65c0.36-0.32,0.71-0.65,0.94-1.09c0.24-0.47,0.14-0.76-0.32-0.99c-0.39-0.19-0.81-0.24-1.23-0.26
						c-0.85-0.04-1.68,0.07-2.51,0.21c-1.44,0.25-2.86,0.62-4.26,1.04c-0.14,0.04-0.34-0.12-0.34-0.27
						c0.27-0.01,0.52-0.12,0.77-0.19c1.69-0.47,3.39-0.88,5.12-1.16c1.02-0.17,2.05-0.3,3.09-0.27c0.34,0.01,0.68,0.03,1.01,0.12
						C84.12-66.12,84.35-66.01,84.49-65.78z M73.08-58.27c0.18-0.09,0.36-0.18,0.54-0.26C73.44-58.45,73.26-58.36,73.08-58.27z
						 M62.59-54.46c-0.01,0.01-0.02,0.02-0.03,0.04C62.57-54.44,62.57-54.45,62.59-54.46z M70.33-57.05
						c-0.85,0.35-1.72,0.68-2.58,0.99c-0.35,0.12-0.7,0.25-1.05,0.36c0.35-0.12,0.7-0.24,1.05-0.36
						C68.61-56.37,69.47-56.7,70.33-57.05z M75.09-59.26c-0.01,0.01-0.03,0.01-0.04,0.02C75.06-59.25,75.07-59.26,75.09-59.26z
						 M75.15-59.29c-0.02,0-0.03,0.01-0.04,0.01C75.12-59.28,75.14-59.28,75.15-59.29z"/>
					<polygon points="75.32,-59.33 75.32,-59.33 75.32,-59.33 					"/>
				</g>
			</g>
			<g>
				<path d="M17.69-47.45c-1.51-1.87-3.02-3.74-4.54-5.61c-0.02-0.02-0.03-0.04-0.05-0.06c0.13-0.97,0.21-1.95,0.21-2.94
					c0-5.21-0.58-9.88-1.49-13.05H6.16c-0.91,3.17-1.49,7.84-1.49,13.05c0,0.97,0.08,1.94,0.21,2.9c-1.51,1.85-3,3.71-4.51,5.57
					c-0.28,0.35-0.4,0.73-0.37,1.18c0.09,1.28,0.17,2.55,0.27,3.83c0.01,0.15,0.08,0.36,0.19,0.43c0.07,0.05,0.29-0.06,0.42-0.15
					c1.75-1.24,3.5-2.48,5.25-3.72c0.08-0.06,0.17-0.12,0.26-0.18c0.07,0.31,0.13,0.6,0.19,0.89h4.91c0.05-0.25,0.1-0.51,0.16-0.77
					c0.11,0.08,0.21,0.15,0.3,0.21c1.75,1.24,3.49,2.49,5.25,3.72c0.12,0.09,0.34,0.2,0.42,0.15c0.11-0.07,0.18-0.28,0.19-0.43
					c0.1-1.27,0.17-2.55,0.27-3.83C18.09-46.72,17.97-47.1,17.69-47.45z"/>
			</g>
		</g>
		<g>
			<g>
				<g>
					<g class="st1">
						<circle class="st2" cx="178.39" cy="-101.84" r="7.15"/>
					</g>
					<circle cx="178.39" cy="-101.84" r="7.15"/>
				</g>
				<g>
					<path d="M194.49-107.78c0,0.1,0,0.2,0,0.31c-0.39,0.91-1.13,1.52-1.86,2.13c-1.53,1.26-3.2,2.29-4.92,3.26
						c-0.53,0.3-1.07,0.58-1.61,0.87c-0.04,0.02-0.08,0.04-0.1,0.09c-0.16,0.02-0.28,0.12-0.41,0.19c-0.03,0.01-0.06,0.03-0.09,0.04
						c-1.08,0.54-2.17,1.06-3.28,1.55c-2.13,0.94-4.31,1.77-6.52,2.5c-0.59,0.2-1.19,0.38-1.78,0.56c-0.15,0.04-0.3,0.06-0.44,0.14
						c-0.05,0.01-0.1,0.01-0.15,0.02c-0.72,0.2-1.44,0.4-2.16,0.59c-0.67,0.13-1.33,0.29-1.99,0.43c-0.52,0.12-1.05,0.2-1.57,0.31
						c-0.63,0.13-1.27,0.2-1.91,0.25c-0.79,0.06-1.58,0.13-2.37-0.04c-0.21-0.01-0.39-0.12-0.53-0.25
						c-0.19-0.17-0.18-0.42-0.12-0.65c0.12-0.43,0.39-0.77,0.69-1.09c0.78-0.84,1.71-1.5,2.65-2.13c1.58-1.05,3.24-1.95,4.93-2.81
						c0.06-0.03,0.13-0.05,0.17-0.11c0.11,0.15,0.07,0.33-0.08,0.41c-1.31,0.67-2.59,1.39-3.81,2.22c-0.76,0.52-1.5,1.07-2.12,1.76
						c-0.29,0.32-0.54,0.67-0.64,1.1c-0.06,0.29,0.02,0.47,0.27,0.63c0.31,0.2,0.67,0.24,1.03,0.26c0.71,0.03,1.42-0.03,2.13-0.13
						c0.69-0.1,1.37-0.22,2.05-0.36c1.26-0.25,2.51-0.57,3.75-0.91c0.05-0.01,0.11-0.01,0.15-0.08c-0.44,0.1-0.86,0.19-1.29,0.28
						l0,0c-1.84,0.42-3.7,0.79-5.58,0.94c-0.34,0.03-0.69,0.06-1.03,0.03c-0.31,0.01-0.62-0.02-0.91-0.13
						c-0.27-0.11-0.36-0.3-0.27-0.61c0.06-0.21,0.17-0.4,0.33-0.56h0c0.01-0.04,0.03-0.08,0.07-0.09c0.42-0.53,0.93-0.95,1.46-1.36
						c1.31-1.01,2.71-1.88,4.2-2.61c0.1-0.05,0.23-0.15,0.3-0.12c0.1,0.04,0.02,0.2,0.05,0.3c0.05,0.16-0.03,0.23-0.16,0.3
						c-0.92,0.54-1.83,1.11-2.65,1.8c-0.32,0.27-0.63,0.56-0.86,0.91c-0.06,0.1-0.12,0.21-0.16,0.31c-0.13,0.35-0.02,0.59,0.34,0.68
						c0.42,0.11,0.85,0.12,1.28,0.09c2.31-0.16,4.54-0.75,6.75-1.43c2.58-0.79,5.07-1.8,7.48-3c1.37-0.69,2.71-1.44,3.98-2.3
						c0.74-0.5,1.46-1.03,2.09-1.67c0.2-0.2,0.38-0.42,0.51-0.67c0.17-0.35,0.08-0.57-0.3-0.68c-0.32-0.09-0.66-0.11-0.99-0.1
						c-0.88,0.02-1.74,0.15-2.6,0.32c-0.36,0.07-0.72,0.14-1.08,0.23c-0.11,0.03-0.18,0.01-0.26-0.08c-0.23-0.29-0.24-0.29,0.12-0.4
						c0.64-0.2,1.29-0.38,1.95-0.51c0.15,0.01,0.29,0.01,0.41-0.09c0.02,0,0.04-0.01,0.06-0.01c0.05,0.05,0.08,0.04,0.1-0.02
						c0.02,0,0.04-0.01,0.06-0.01c0.12,0.07,0.23,0,0.34-0.02c0.56-0.1,1.13-0.19,1.7-0.25c0.36-0.04,0.73-0.05,1.09-0.07
						c0.47-0.04,0.92,0,1.37,0.11c0.43,0.11,0.56,0.39,0.37,0.79c-0.15,0.31-0.37,0.57-0.61,0.81c-0.06,0.06-0.14,0.1-0.15,0.2
						c-0.67,0.63-1.43,1.14-2.18,1.65c-1.22,0.82-2.47,1.59-3.74,2.32c-0.04,0.02-0.11,0.03-0.12,0.1
						c-0.05-0.02-0.08,0.02-0.12,0.04c0.06,0.03,0.09,0.01,0.12-0.04c0.07,0,0.12-0.04,0.17-0.07c0.77-0.41,1.54-0.83,2.29-1.28
						c1.34-0.8,2.66-1.62,3.85-2.65c0.36-0.32,0.71-0.65,0.94-1.09c0.24-0.47,0.14-0.76-0.32-0.99c-0.39-0.19-0.81-0.24-1.23-0.26
						c-0.85-0.04-1.68,0.07-2.51,0.21c-1.44,0.25-2.86,0.62-4.26,1.04c-0.14,0.04-0.34-0.12-0.34-0.27
						c0.27-0.01,0.52-0.12,0.77-0.19c1.69-0.47,3.39-0.88,5.12-1.16c1.02-0.17,2.05-0.3,3.09-0.27c0.34,0.01,0.68,0.03,1.01,0.12
						C194.12-108.12,194.35-108.01,194.49-107.78z M183.08-100.27c0.18-0.09,0.36-0.18,0.54-0.26
						C183.44-100.45,183.26-100.36,183.08-100.27z M172.59-96.46c-0.01,0.01-0.02,0.02-0.03,0.04
						C172.57-96.44,172.57-96.45,172.59-96.46z M180.33-99.05c-0.85,0.35-1.72,0.68-2.58,0.99c-0.35,0.12-0.7,0.25-1.05,0.36
						c0.35-0.12,0.7-0.24,1.05-0.36C178.61-98.37,179.47-98.7,180.33-99.05z M185.09-101.26c-0.01,0.01-0.03,0.01-0.04,0.02
						C185.06-101.25,185.07-101.26,185.09-101.26z M185.15-101.29c-0.02,0-0.03,0.01-0.04,0.01
						C185.12-101.28,185.14-101.28,185.15-101.29z"/>
					<polygon points="185.32,-101.33 185.32,-101.33 185.32,-101.33 					"/>
				</g>
			</g>
			<g class="st1">
				<path class="st2" d="M76.11-101.66c-6.92,0.7-7.19,1.34-2.75,6.88c-5.34-4.62-5.95-4.33-6.63,2.85
					c-0.68-7.18-1.29-7.47-6.63-2.85c4.45-5.54,4.17-6.18-2.75-6.88c6.92-0.7,7.19-1.34,2.75-6.88c5.34,4.62,5.95,4.33,6.63-2.85
					c0.68,7.18,1.29,7.47,6.63,2.85C68.92-103,69.19-102.36,76.11-101.66z"/>
				<ellipse class="st2" cx="66.66" cy="-101.56" rx="12.93" ry="13.32"/>
			</g>
			<path d="M70.5-100.07c1.84-0.9,4.66-1.19,9.09-1.49c-4.29-0.29-7.07-0.57-8.91-1.4c-0.82-0.9,0.19-2.46,2.68-5.57
				c-2.99,2.59-4.5,3.63-5.36,2.79c-0.8-1.9-1.06-4.75-1.34-9.13c-0.29,4.5-0.56,7.38-1.4,9.28c-0.9,0.51-2.39-0.55-5.15-2.94
				c2.41,3,3.41,4.55,2.75,5.47c-1.84,0.92-4.66,1.21-9.13,1.51c4.58,0.31,7.44,0.61,9.27,1.59c0.32,0.94-0.72,2.48-2.9,5.2
				c2.63-2.28,4.11-3.36,5.02-3.01c0.95,1.89,1.23,4.83,1.53,9.54c0.3-4.61,0.57-7.52,1.47-9.41c0.89-0.64,2.38,0.41,5.24,2.88
				C71.11-97.59,70.08-99.13,70.5-100.07z"/>
			<g>
				<polygon points="123.32,-83.85 114.74,-83.85 116.58,-86.78 121.56,-86.78 				"/>
				<path d="M119.42-115.72l-0.28-4.8c0.38-0.04,0.67-0.35,0.67-0.74c0-0.41-0.33-0.75-0.75-0.75c-0.41,0-0.75,0.33-0.75,0.75
					c0,0.39,0.3,0.7,0.67,0.74l-0.28,4.78c-0.95,0.27-1.82,1.76-2.51,4.09h5.62C121.18-113.92,120.34-115.39,119.42-115.72z"/>
				<path d="M127.69-89.45c-1.51-1.87-3.02-3.74-4.54-5.61c-0.02-0.02-0.03-0.04-0.05-0.06c0.13-0.97,0.21-1.95,0.21-2.94
					c0-5.21-0.58-9.88-1.49-13.05h-5.66c-0.91,3.17-1.49,7.84-1.49,13.05c0,0.97,0.08,1.94,0.21,2.9c-1.51,1.85-3,3.71-4.51,5.57
					c-0.28,0.35-0.4,0.73-0.37,1.18c0.09,1.28,0.17,2.55,0.27,3.83c0.01,0.15,0.08,0.36,0.19,0.43c0.07,0.05,0.29-0.06,0.42-0.15
					c1.75-1.24,3.5-2.48,5.25-3.72c0.08-0.06,0.17-0.12,0.26-0.18c0.07,0.31,0.13,0.6,0.19,0.89h4.91c0.05-0.25,0.1-0.51,0.16-0.77
					c0.11,0.08,0.21,0.15,0.3,0.21c1.75,1.24,3.49,2.49,5.25,3.72c0.12,0.09,0.34,0.2,0.42,0.15c0.11-0.07,0.18-0.28,0.19-0.43
					c0.1-1.28,0.17-2.55,0.27-3.83C128.09-88.72,127.97-89.1,127.69-89.45z"/>
			</g>
		</g>
		<g>
			<g class="st1">
				<path class="st2" d="M186.11-143.66c-6.92,0.7-7.19,1.34-2.75,6.88c-5.34-4.62-5.95-4.33-6.63,2.85
					c-0.68-7.18-1.29-7.47-6.63-2.85c4.45-5.54,4.17-6.18-2.75-6.88c6.92-0.7,7.19-1.34,2.75-6.88c5.34,4.62,5.95,4.33,6.63-2.85
					c0.68,7.18,1.29,7.47,6.63,2.85C178.92-145,179.19-144.36,186.11-143.66z"/>
				<ellipse class="st2" cx="176.66" cy="-143.56" rx="12.93" ry="13.32"/>
			</g>
			<path d="M180.5-142.07c1.84-0.9,4.66-1.19,9.09-1.49c-4.29-0.29-7.07-0.57-8.91-1.4c-0.82-0.9,0.19-2.46,2.68-5.57
				c-2.99,2.59-4.5,3.63-5.36,2.79c-0.8-1.9-1.06-4.75-1.34-9.13c-0.29,4.5-0.56,7.38-1.4,9.28c-0.9,0.51-2.39-0.55-5.15-2.94
				c2.41,3,3.41,4.55,2.75,5.47c-1.84,0.92-4.66,1.21-9.13,1.51c4.58,0.31,7.44,0.61,9.27,1.59c0.32,0.94-0.72,2.48-2.9,5.2
				c2.63-2.28,4.11-3.36,5.02-3.01c0.95,1.89,1.23,4.83,1.53,9.54c0.3-4.61,0.57-7.52,1.47-9.41c0.89-0.64,2.38,0.41,5.24,2.88
				C181.11-139.59,180.08-141.13,180.5-142.07z"/>
			<g>
				<polygon points="233.32,-125.85 224.74,-125.85 226.58,-128.78 231.56,-128.78 				"/>
				<path d="M229.42-157.72l-0.28-4.8c0.38-0.04,0.67-0.35,0.67-0.74c0-0.41-0.33-0.75-0.75-0.75s-0.75,0.33-0.75,0.75
					c0,0.39,0.3,0.7,0.67,0.74l-0.28,4.78c-0.95,0.27-1.82,1.76-2.51,4.09h5.62C231.18-155.92,230.34-157.39,229.42-157.72z"/>
				<path d="M237.69-131.45c-1.51-1.87-3.02-3.74-4.54-5.61c-0.02-0.02-0.03-0.04-0.05-0.06c0.13-0.97,0.21-1.95,0.21-2.94
					c0-5.21-0.58-9.88-1.49-13.05h-5.66c-0.91,3.17-1.49,7.84-1.49,13.05c0,0.97,0.08,1.94,0.21,2.9c-1.51,1.85-3,3.71-4.51,5.57
					c-0.28,0.35-0.4,0.73-0.37,1.18c0.09,1.28,0.17,2.55,0.27,3.83c0.01,0.15,0.08,0.36,0.19,0.43c0.07,0.05,0.29-0.06,0.42-0.15
					c1.75-1.24,3.5-2.48,5.25-3.72c0.08-0.06,0.17-0.12,0.26-0.18c0.07,0.31,0.13,0.6,0.19,0.89h4.91c0.05-0.25,0.1-0.51,0.16-0.77
					c0.11,0.08,0.21,0.15,0.3,0.21c1.75,1.24,3.49,2.49,5.25,3.72c0.12,0.09,0.34,0.2,0.42,0.15c0.11-0.07,0.18-0.28,0.19-0.43
					c0.1-1.28,0.17-2.55,0.27-3.83C238.09-130.72,237.97-131.1,237.69-131.45z"/>
			</g>
		</g>
		<g>
			<g>
				<g>
					<g class="st1">
						<circle class="st2" cx="68.39" cy="-143.84" r="7.15"/>
					</g>
					<circle cx="68.39" cy="-143.84" r="7.15"/>
				</g>
				<g>
					<path d="M84.49-149.78c0,0.1,0,0.2,0,0.31c-0.39,0.91-1.13,1.52-1.86,2.13c-1.53,1.26-3.2,2.29-4.92,3.26
						c-0.53,0.3-1.07,0.58-1.61,0.87c-0.04,0.02-0.08,0.04-0.1,0.09c-0.16,0.02-0.28,0.12-0.41,0.19c-0.03,0.01-0.06,0.03-0.09,0.04
						c-1.08,0.54-2.17,1.06-3.28,1.55c-2.13,0.94-4.31,1.77-6.52,2.5c-0.59,0.2-1.19,0.38-1.78,0.56c-0.15,0.04-0.3,0.06-0.44,0.14
						c-0.05,0.01-0.1,0.01-0.15,0.02c-0.72,0.2-1.44,0.4-2.16,0.59c-0.67,0.13-1.33,0.29-1.99,0.43c-0.52,0.12-1.05,0.2-1.57,0.31
						c-0.63,0.13-1.27,0.2-1.91,0.25c-0.79,0.06-1.58,0.13-2.37-0.04c-0.21-0.01-0.39-0.12-0.53-0.25
						c-0.19-0.17-0.18-0.42-0.12-0.65c0.12-0.43,0.39-0.77,0.69-1.09c0.78-0.84,1.71-1.5,2.65-2.13c1.58-1.05,3.24-1.95,4.93-2.81
						c0.06-0.03,0.13-0.05,0.17-0.11c0.11,0.15,0.07,0.33-0.08,0.41c-1.31,0.67-2.59,1.39-3.81,2.22c-0.76,0.52-1.5,1.07-2.12,1.76
						c-0.29,0.32-0.54,0.67-0.64,1.1c-0.06,0.29,0.02,0.47,0.27,0.63c0.31,0.2,0.67,0.24,1.03,0.26c0.71,0.03,1.42-0.03,2.13-0.13
						c0.69-0.1,1.37-0.22,2.05-0.36c1.26-0.25,2.51-0.57,3.75-0.91c0.05-0.01,0.11-0.01,0.15-0.08c-0.44,0.1-0.86,0.19-1.29,0.28
						l0,0c-1.84,0.42-3.7,0.79-5.58,0.95c-0.34,0.03-0.69,0.06-1.03,0.03c-0.31,0.01-0.62-0.02-0.91-0.13
						c-0.27-0.11-0.36-0.3-0.27-0.61c0.06-0.21,0.17-0.4,0.33-0.56h0c0.01-0.04,0.03-0.08,0.07-0.09c0.42-0.53,0.93-0.95,1.46-1.36
						c1.31-1.01,2.71-1.88,4.2-2.61c0.1-0.05,0.23-0.15,0.3-0.12c0.1,0.04,0.02,0.2,0.05,0.3c0.05,0.16-0.03,0.23-0.16,0.3
						c-0.92,0.54-1.83,1.11-2.65,1.8c-0.32,0.27-0.63,0.56-0.86,0.91c-0.06,0.1-0.12,0.21-0.16,0.31c-0.13,0.35-0.02,0.59,0.34,0.68
						c0.42,0.11,0.85,0.12,1.28,0.09c2.31-0.16,4.54-0.75,6.75-1.43c2.58-0.79,5.07-1.8,7.48-3c1.37-0.69,2.71-1.44,3.98-2.3
						c0.74-0.5,1.46-1.03,2.09-1.67c0.2-0.2,0.38-0.42,0.51-0.67c0.17-0.35,0.08-0.57-0.3-0.68c-0.32-0.09-0.66-0.11-0.99-0.1
						c-0.88,0.02-1.74,0.15-2.6,0.32c-0.36,0.07-0.72,0.14-1.08,0.23c-0.11,0.03-0.18,0.01-0.26-0.08c-0.23-0.29-0.24-0.29,0.12-0.4
						c0.64-0.2,1.29-0.38,1.95-0.51c0.15,0.01,0.29,0.01,0.41-0.09c0.02,0,0.04-0.01,0.06-0.01c0.05,0.05,0.08,0.04,0.1-0.02
						c0.02,0,0.04-0.01,0.06-0.01c0.12,0.07,0.23,0,0.34-0.02c0.56-0.1,1.13-0.19,1.7-0.25c0.36-0.04,0.73-0.05,1.09-0.07
						c0.47-0.04,0.92,0,1.37,0.11c0.43,0.11,0.56,0.39,0.37,0.79c-0.15,0.31-0.37,0.57-0.61,0.81c-0.06,0.06-0.14,0.1-0.15,0.2
						c-0.67,0.63-1.43,1.14-2.18,1.65c-1.22,0.82-2.47,1.59-3.74,2.32c-0.04,0.02-0.11,0.03-0.12,0.1
						c-0.05-0.02-0.08,0.02-0.12,0.04c0.06,0.03,0.09,0.01,0.12-0.04c0.07,0,0.12-0.04,0.17-0.07c0.77-0.41,1.54-0.83,2.29-1.28
						c1.34-0.8,2.66-1.62,3.85-2.65c0.36-0.32,0.71-0.65,0.94-1.09c0.24-0.47,0.14-0.76-0.32-0.99c-0.39-0.19-0.81-0.24-1.23-0.26
						c-0.85-0.04-1.68,0.07-2.51,0.21c-1.44,0.25-2.86,0.62-4.26,1.04c-0.14,0.04-0.34-0.12-0.34-0.27
						c0.27-0.01,0.52-0.12,0.77-0.19c1.69-0.47,3.39-0.88,5.12-1.16c1.02-0.17,2.05-0.3,3.09-0.27c0.34,0.01,0.68,0.03,1.01,0.12
						C84.12-150.12,84.35-150.01,84.49-149.78z M73.08-142.27c0.18-0.09,0.36-0.18,0.54-0.26
						C73.44-142.45,73.26-142.36,73.08-142.27z M62.59-138.46c-0.01,0.01-0.02,0.02-0.03,0.04
						C62.57-138.44,62.57-138.45,62.59-138.46z M70.33-141.05c-0.85,0.35-1.72,0.68-2.58,0.99c-0.35,0.12-0.7,0.25-1.05,0.36
						c0.35-0.12,0.7-0.24,1.05-0.36C68.61-140.37,69.47-140.7,70.33-141.05z M75.09-143.26c-0.01,0.01-0.03,0.01-0.04,0.02
						C75.06-143.25,75.07-143.26,75.09-143.26z M75.15-143.29c-0.02,0-0.03,0.01-0.04,0.01C75.12-143.28,75.14-143.28,75.15-143.29z
						"/>
					<polygon points="75.32,-143.33 75.32,-143.33 75.32,-143.33 					"/>
				</g>
			</g>
			<g>
				<path d="M17.69-131.45c-1.51-1.87-3.02-3.74-4.54-5.61c-0.02-0.02-0.03-0.04-0.05-0.06c0.13-0.97,0.21-1.95,0.21-2.94
					c0-5.21-0.58-9.88-1.49-13.05H6.16c-0.91,3.17-1.49,7.84-1.49,13.05c0,0.97,0.08,1.94,0.21,2.9c-1.51,1.85-3,3.71-4.51,5.57
					c-0.28,0.35-0.4,0.73-0.37,1.18c0.09,1.28,0.17,2.55,0.27,3.83c0.01,0.15,0.08,0.36,0.19,0.43c0.07,0.05,0.29-0.06,0.42-0.15
					c1.75-1.24,3.5-2.48,5.25-3.72c0.08-0.06,0.17-0.12,0.26-0.18c0.07,0.31,0.13,0.6,0.19,0.89h4.91c0.05-0.25,0.1-0.51,0.16-0.77
					c0.11,0.08,0.21,0.15,0.3,0.21c1.75,1.24,3.49,2.49,5.25,3.72c0.12,0.09,0.34,0.2,0.42,0.15c0.11-0.07,0.18-0.28,0.19-0.43
					c0.1-1.28,0.17-2.55,0.27-3.83C18.09-130.72,17.97-131.1,17.69-131.45z"/>
			</g>
		</g>
		<g>
			<g>
				<g>
					<g class="st1">
						<circle class="st2" cx="178.39" cy="-185.84" r="7.15"/>
					</g>
					<circle cx="178.39" cy="-185.84" r="7.15"/>
				</g>
				<g>
					<path d="M194.49-191.78c0,0.1,0,0.2,0,0.31c-0.39,0.91-1.13,1.52-1.86,2.13c-1.53,1.26-3.2,2.29-4.92,3.26
						c-0.53,0.3-1.07,0.58-1.61,0.87c-0.04,0.02-0.08,0.04-0.1,0.09c-0.16,0.02-0.28,0.12-0.41,0.19c-0.03,0.01-0.06,0.03-0.09,0.04
						c-1.08,0.54-2.17,1.06-3.28,1.55c-2.13,0.94-4.31,1.77-6.52,2.5c-0.59,0.2-1.19,0.38-1.78,0.56c-0.15,0.04-0.3,0.06-0.44,0.14
						c-0.05,0.01-0.1,0.01-0.15,0.02c-0.72,0.2-1.44,0.4-2.16,0.59c-0.67,0.13-1.33,0.29-1.99,0.43c-0.52,0.12-1.05,0.2-1.57,0.31
						c-0.63,0.13-1.27,0.2-1.91,0.25c-0.79,0.06-1.58,0.13-2.37-0.04c-0.21-0.01-0.39-0.12-0.53-0.25
						c-0.19-0.17-0.18-0.42-0.12-0.65c0.12-0.43,0.39-0.77,0.69-1.09c0.78-0.84,1.71-1.5,2.65-2.13c1.58-1.05,3.24-1.95,4.93-2.81
						c0.06-0.03,0.13-0.05,0.17-0.11c0.11,0.15,0.07,0.33-0.08,0.41c-1.31,0.67-2.59,1.39-3.81,2.22c-0.76,0.52-1.5,1.07-2.12,1.76
						c-0.29,0.32-0.54,0.67-0.64,1.1c-0.06,0.29,0.02,0.47,0.27,0.63c0.31,0.2,0.67,0.24,1.03,0.26c0.71,0.03,1.42-0.03,2.13-0.13
						c0.69-0.1,1.37-0.22,2.05-0.36c1.26-0.25,2.51-0.57,3.75-0.91c0.05-0.01,0.11-0.01,0.15-0.08c-0.44,0.1-0.86,0.19-1.29,0.28
						l0,0c-1.84,0.42-3.7,0.79-5.58,0.95c-0.34,0.03-0.69,0.06-1.03,0.03c-0.31,0.01-0.62-0.02-0.91-0.13
						c-0.27-0.11-0.36-0.3-0.27-0.61c0.06-0.21,0.17-0.4,0.33-0.56h0c0.01-0.04,0.03-0.08,0.07-0.09c0.42-0.53,0.93-0.95,1.46-1.36
						c1.31-1.01,2.71-1.88,4.2-2.61c0.1-0.05,0.23-0.15,0.3-0.12c0.1,0.04,0.02,0.2,0.05,0.3c0.05,0.16-0.03,0.23-0.16,0.3
						c-0.92,0.54-1.83,1.11-2.65,1.8c-0.32,0.27-0.63,0.56-0.86,0.91c-0.06,0.1-0.12,0.21-0.16,0.31c-0.13,0.35-0.02,0.59,0.34,0.68
						c0.42,0.11,0.85,0.12,1.28,0.09c2.31-0.16,4.54-0.75,6.75-1.43c2.58-0.79,5.07-1.8,7.48-3c1.37-0.69,2.71-1.44,3.98-2.3
						c0.74-0.5,1.46-1.03,2.09-1.67c0.2-0.2,0.38-0.42,0.51-0.67c0.17-0.35,0.08-0.57-0.3-0.68c-0.32-0.09-0.66-0.11-0.99-0.1
						c-0.88,0.02-1.74,0.15-2.6,0.32c-0.36,0.07-0.72,0.14-1.08,0.23c-0.11,0.03-0.18,0.01-0.26-0.08c-0.23-0.29-0.24-0.29,0.12-0.4
						c0.64-0.2,1.29-0.38,1.95-0.51c0.15,0.01,0.29,0.01,0.41-0.09c0.02,0,0.04-0.01,0.06-0.01c0.05,0.05,0.08,0.04,0.1-0.02
						c0.02,0,0.04-0.01,0.06-0.01c0.12,0.07,0.23,0,0.34-0.02c0.56-0.1,1.13-0.19,1.7-0.25c0.36-0.04,0.73-0.05,1.09-0.07
						c0.47-0.04,0.92,0,1.37,0.11c0.43,0.11,0.56,0.39,0.37,0.79c-0.15,0.31-0.37,0.57-0.61,0.81c-0.06,0.06-0.14,0.1-0.15,0.2
						c-0.67,0.63-1.43,1.14-2.18,1.65c-1.22,0.82-2.47,1.59-3.74,2.32c-0.04,0.02-0.11,0.03-0.12,0.1
						c-0.05-0.02-0.08,0.02-0.12,0.04c0.06,0.03,0.09,0.01,0.12-0.04c0.07,0,0.12-0.04,0.17-0.07c0.77-0.41,1.54-0.83,2.29-1.28
						c1.34-0.8,2.66-1.62,3.85-2.65c0.36-0.32,0.71-0.65,0.94-1.09c0.24-0.47,0.14-0.76-0.32-0.99c-0.39-0.19-0.81-0.24-1.23-0.26
						c-0.85-0.04-1.68,0.07-2.51,0.21c-1.44,0.25-2.86,0.62-4.26,1.04c-0.14,0.04-0.34-0.12-0.34-0.27
						c0.27-0.01,0.52-0.12,0.77-0.19c1.69-0.47,3.39-0.88,5.12-1.16c1.02-0.17,2.05-0.3,3.09-0.27c0.34,0.01,0.68,0.03,1.01,0.12
						C194.12-192.12,194.35-192.01,194.49-191.78z M183.08-184.27c0.18-0.09,0.36-0.18,0.54-0.26
						C183.44-184.45,183.26-184.36,183.08-184.27z M172.59-180.46c-0.01,0.01-0.02,0.02-0.03,0.04
						C172.57-180.44,172.57-180.45,172.59-180.46z M180.33-183.05c-0.85,0.35-1.72,0.68-2.58,0.99c-0.35,0.12-0.7,0.25-1.05,0.36
						c0.35-0.12,0.7-0.24,1.05-0.36C178.61-182.37,179.47-182.7,180.33-183.05z M185.09-185.26c-0.01,0.01-0.03,0.01-0.04,0.02
						C185.06-185.25,185.07-185.26,185.09-185.26z M185.15-185.29c-0.02,0-0.03,0.01-0.04,0.01
						C185.12-185.28,185.14-185.28,185.15-185.29z"/>
					<polygon points="185.32,-185.33 185.32,-185.33 185.32,-185.33 					"/>
				</g>
			</g>
			<g class="st1">
				<path class="st2" d="M76.11-185.66c-6.92,0.7-7.19,1.34-2.75,6.88c-5.34-4.62-5.95-4.33-6.63,2.85
					c-0.68-7.18-1.29-7.47-6.63-2.85c4.45-5.54,4.17-6.18-2.75-6.88c6.92-0.7,7.19-1.34,2.75-6.88c5.34,4.62,5.95,4.33,6.63-2.85
					c0.68,7.18,1.29,7.47,6.63,2.85C68.92-187,69.19-186.36,76.11-185.66z"/>
				<ellipse class="st2" cx="66.66" cy="-185.56" rx="12.93" ry="13.32"/>
			</g>
			<path d="M70.5-184.07c1.84-0.9,4.66-1.19,9.09-1.49c-4.29-0.29-7.07-0.57-8.91-1.4c-0.82-0.9,0.19-2.46,2.68-5.57
				c-2.99,2.59-4.5,3.63-5.36,2.79c-0.8-1.9-1.06-4.75-1.34-9.13c-0.29,4.5-0.56,7.38-1.4,9.28c-0.9,0.51-2.39-0.55-5.15-2.94
				c2.41,3,3.41,4.55,2.75,5.47c-1.84,0.92-4.66,1.21-9.13,1.51c4.58,0.31,7.44,0.61,9.27,1.59c0.32,0.94-0.72,2.48-2.9,5.2
				c2.63-2.28,4.11-3.36,5.02-3.01c0.95,1.89,1.23,4.83,1.53,9.54c0.3-4.61,0.57-7.52,1.47-9.41c0.89-0.64,2.38,0.41,5.24,2.88
				C71.11-181.59,70.08-183.13,70.5-184.07z"/>
			<g>
				<polygon points="123.32,-167.85 114.74,-167.85 116.58,-170.78 121.56,-170.78 				"/>
				<path d="M127.69-173.45c-1.51-1.87-3.02-3.74-4.54-5.61c-0.02-0.02-0.03-0.04-0.05-0.06c0.13-0.97,0.21-1.95,0.21-2.94
					c0-5.21-0.58-9.88-1.49-13.05h-5.66c-0.91,3.17-1.49,7.84-1.49,13.05c0,0.97,0.08,1.94,0.21,2.9c-1.51,1.85-3,3.71-4.51,5.57
					c-0.28,0.35-0.4,0.73-0.37,1.18c0.09,1.28,0.17,2.55,0.27,3.83c0.01,0.15,0.08,0.36,0.19,0.43c0.07,0.05,0.29-0.06,0.42-0.15
					c1.75-1.24,3.5-2.48,5.25-3.72c0.08-0.06,0.17-0.12,0.26-0.18c0.07,0.31,0.13,0.6,0.19,0.89h4.91c0.05-0.25,0.1-0.51,0.16-0.77
					c0.11,0.08,0.21,0.15,0.3,0.21c1.75,1.24,3.49,2.49,5.25,3.72c0.12,0.09,0.34,0.2,0.42,0.15c0.11-0.07,0.18-0.28,0.19-0.43
					c0.1-1.28,0.17-2.55,0.27-3.83C128.09-172.72,127.97-173.1,127.69-173.45z"/>
			</g>
		</g>
	</g>
</pattern>
<g>
	<g>
		<g class="st1">
			<circle class="st2" cx="422.77" cy="-90.39" r="9.42"/>
		</g>
		<g>
			<circle cx="422.77" cy="-90.39" r="9.42"/>
		</g>
	</g>
	<g>
		<path d="M443.19-98.76c-0.43-0.12-0.88-0.15-1.33-0.16c-1.37-0.03-2.72,0.14-4.07,0.36c-2.28,0.37-4.53,0.91-6.75,1.53
			c-0.33,0.09-0.66,0.24-1.01,0.25c0.01,0.2,0.27,0.41,0.45,0.36c1.85-0.56,3.71-1.05,5.61-1.37c1.09-0.19,2.2-0.33,3.31-0.28
			c0.56,0.03,1.11,0.09,1.63,0.35c0.62,0.31,0.75,0.69,0.43,1.31c-0.3,0.57-0.76,1.01-1.23,1.43c-1.56,1.36-3.31,2.44-5.07,3.5
			c-0.99,0.59-2,1.15-3.02,1.69c-0.07,0.04-0.13,0.1-0.22,0.09c-0.04,0.07-0.09,0.1-0.16,0.05c0.05-0.03,0.09-0.09,0.16-0.06
			c0.01-0.09,0.1-0.1,0.16-0.13c1.68-0.96,3.33-1.98,4.94-3.06c1-0.68,2-1.35,2.88-2.18c0.02-0.12,0.13-0.18,0.2-0.26
			c0.32-0.32,0.6-0.66,0.8-1.06c0.26-0.53,0.09-0.9-0.49-1.04c-0.59-0.14-1.19-0.2-1.81-0.15c-0.48,0.04-0.96,0.04-1.44,0.1
			c-0.75,0.08-1.49,0.2-2.24,0.33c-0.14,0.02-0.29,0.12-0.45,0.03c-0.03,0-0.06,0.01-0.09,0.01c-0.03,0.09-0.07,0.1-0.14,0.03
			c-0.03,0-0.06,0.01-0.09,0.01c-0.16,0.14-0.35,0.14-0.54,0.12c-0.87,0.18-1.72,0.41-2.57,0.68c-0.47,0.15-0.46,0.14-0.16,0.52
			c0.1,0.13,0.19,0.14,0.34,0.11c0.47-0.11,0.95-0.21,1.42-0.3c1.13-0.22,2.28-0.39,3.43-0.42c0.44-0.01,0.88,0.01,1.31,0.13
			c0.5,0.14,0.63,0.43,0.4,0.89c-0.17,0.34-0.41,0.62-0.67,0.89c-0.83,0.85-1.78,1.54-2.76,2.2c-1.67,1.14-3.44,2.12-5.24,3.03
			c-3.18,1.59-6.47,2.91-9.86,3.96c-2.91,0.9-5.84,1.67-8.9,1.88c-0.57,0.04-1.13,0.04-1.69-0.11c-0.48-0.13-0.63-0.44-0.45-0.9
			c0.06-0.14,0.13-0.29,0.22-0.42c0.31-0.47,0.71-0.84,1.13-1.2c1.08-0.91,2.27-1.66,3.49-2.37c0.16-0.1,0.28-0.18,0.21-0.4
			c-0.04-0.13,0.06-0.35-0.07-0.4c-0.1-0.04-0.27,0.09-0.4,0.16c-1.96,0.96-3.8,2.11-5.54,3.44c-0.7,0.54-1.38,1.09-1.93,1.79
			c-0.05,0.02-0.08,0.07-0.1,0.12h0c-0.21,0.21-0.35,0.46-0.43,0.74c-0.11,0.4,0,0.66,0.36,0.8c0.39,0.15,0.79,0.19,1.2,0.18
			c0.45,0.04,0.91,0,1.36-0.03c2.49-0.21,4.93-0.7,7.36-1.25l0,0c0.56-0.12,1.11-0.24,1.7-0.37c-0.05,0.09-0.13,0.09-0.19,0.1
			c-1.64,0.45-3.28,0.87-4.95,1.2c-0.9,0.18-1.8,0.34-2.71,0.47c-0.93,0.14-1.87,0.22-2.81,0.18c-0.47-0.02-0.94-0.08-1.36-0.34
			c-0.33-0.21-0.44-0.45-0.36-0.83c0.12-0.57,0.46-1.03,0.84-1.45c0.82-0.91,1.8-1.63,2.8-2.32c1.6-1.09,3.3-2.04,5.02-2.93
			c0.2-0.1,0.25-0.35,0.11-0.54c-0.05,0.08-0.14,0.11-0.22,0.15c-2.23,1.13-4.42,2.32-6.5,3.7c-1.25,0.83-2.47,1.7-3.5,2.8
			c-0.39,0.42-0.76,0.87-0.91,1.44c-0.08,0.31-0.09,0.63,0.15,0.86c0.19,0.17,0.42,0.32,0.7,0.33c1.04,0.22,2.09,0.13,3.13,0.05
			c0.85-0.07,1.69-0.16,2.52-0.33c0.69-0.14,1.38-0.25,2.06-0.4c0.87-0.19,1.75-0.4,2.63-0.57c0.95-0.26,1.9-0.52,2.85-0.78
			c0.06-0.02,0.13-0.02,0.2-0.02c0.18-0.11,0.38-0.14,0.58-0.19c0.78-0.25,1.57-0.48,2.35-0.74c2.91-0.97,5.78-2.06,8.59-3.3
			c1.46-0.64,2.9-1.33,4.32-2.04c0.04-0.02,0.08-0.04,0.12-0.05c0.17-0.1,0.34-0.23,0.55-0.25c0.02-0.06,0.08-0.08,0.13-0.11
			c0.71-0.38,1.42-0.76,2.12-1.15c2.27-1.28,4.48-2.64,6.49-4.3c0.97-0.8,1.95-1.6,2.46-2.81c0-0.13,0-0.27,0-0.4
			C443.82-98.54,443.52-98.67,443.19-98.76z M429.67-88.68c-0.24,0.12-0.48,0.23-0.72,0.35C429.2-88.44,429.44-88.56,429.67-88.68z
			 M415.08-83.25c0.01-0.02,0.02-0.03,0.04-0.05C415.1-83.29,415.09-83.27,415.08-83.25z M421.92-85.41
			c-0.46,0.16-0.92,0.32-1.38,0.48C421-85.09,421.46-85.25,421.92-85.41c1.15-0.41,2.28-0.84,3.41-1.31
			C424.2-86.26,423.06-85.82,421.92-85.41z M431.55-89.6c0.02-0.01,0.04-0.02,0.05-0.03C431.58-89.62,431.57-89.61,431.55-89.6z
			 M431.63-89.65c0.02-0.01,0.04-0.01,0.06-0.02C431.67-89.66,431.65-89.65,431.63-89.65z"/>
		<polygon points="431.91,-89.72 431.91,-89.72 431.91,-89.72 		"/>
	</g>
</g>
<path d="M314.28-90.15c-9.12,0.93-9.49,1.77-3.62,9.07c-7.04-6.09-7.85-5.71-8.74,3.76c-0.89-9.47-1.7-9.85-8.74-3.76
	c5.86-7.31,5.5-8.15-3.62-9.07c9.12-0.93,9.49-1.77,3.62-9.07c7.04,6.09,7.85,5.71,8.74-3.76c0.89,9.47,1.7,9.85,8.74,3.76
	C304.79-91.92,305.15-91.08,314.28-90.15z"/>
<ellipse cx="301.81" cy="-90.02" rx="17.05" ry="17.56"/>
<g>
	<polygon points="363.34,-66.67 352.03,-66.67 354.45,-70.54 361.02,-70.54 	"/>
	<path d="M358.2-108.7l-0.37-6.33c0.5-0.05,0.89-0.46,0.89-0.97c0-0.54-0.44-0.98-0.98-0.98c-0.54,0-0.98,0.44-0.98,0.98
		c0,0.51,0.39,0.93,0.89,0.97l-0.36,6.3c-1.26,0.35-2.4,2.32-3.3,5.4h7.41C360.52-106.32,359.41-108.27,358.2-108.7z"/>
	<path d="M369.11-74.05c-2-2.47-3.99-4.94-5.99-7.4c-0.02-0.03-0.04-0.05-0.06-0.08c0.17-1.27,0.27-2.57,0.27-3.88
		c0-6.87-0.76-13.03-1.97-17.21h-7.47c-1.21,4.17-1.97,10.33-1.97,17.21c0,1.28,0.11,2.56,0.28,3.82c-1.99,2.44-3.96,4.9-5.94,7.35
		c-0.37,0.46-0.53,0.96-0.48,1.55c0.12,1.68,0.22,3.37,0.35,5.05c0.02,0.2,0.1,0.47,0.25,0.57c0.1,0.07,0.39-0.08,0.55-0.2
		c2.31-1.63,4.61-3.27,6.92-4.91c0.11-0.08,0.22-0.16,0.35-0.24c0.09,0.4,0.17,0.8,0.25,1.18h6.48c0.06-0.33,0.13-0.67,0.21-1.02
		c0.15,0.1,0.27,0.19,0.4,0.28c2.3,1.64,4.61,3.28,6.92,4.91c0.16,0.11,0.45,0.26,0.55,0.2c0.15-0.1,0.23-0.37,0.25-0.57
		c0.13-1.68,0.23-3.36,0.35-5.05C369.63-73.09,369.47-73.6,369.11-74.05z"/>
</g>
<rect y="0" class="st3" width="1320" height="756"/>
</svg>
