<?xml version="1.0" encoding="utf-8"?>
<!-- Generator: Adobe Illustrator 23.0.1, SVG Export Plug-In . SVG Version: 6.00 Build 0)  -->
<svg version="1.1" xmlns="http://www.w3.org/2000/svg" xmlns:xlink="http://www.w3.org/1999/xlink" x="0px" y="0px"
	 viewBox="0 0 1393 500" style="enable-background:new 0 0 1393 500;" xml:space="preserve">
<style type="text/css">
	.st0{fill:none;}
	.st1{fill:none;stroke:#000000;stroke-miterlimit:10;}
	.st2{stroke:#000000;stroke-miterlimit:10;}
	.st3{display:none;}
	.st4{fill:url(#New_Pattern_3);}
</style>
<pattern  y="475" width="92" height="92" patternUnits="userSpaceOnUse" id="New_Pattern_3" viewBox="0 -103.1 92 92" style="overflow:visible;">
	<g>
		<rect y="-103.1" class="st0" width="92" height="92"/>
		<g>
			<g>
				<path d="M80.9-20.1H65.3v2.7h6.1V0h3.3v-17.4h6.2V-20.1z"/>
				<g>
					<circle class="st1" cx="59.7" cy="-17.2" r="3.3"/>
					<line class="st1" x1="59.7" y1="-1.7" x2="59.7" y2="-14.3"/>
				</g>
				<circle cx="59.7" cy="-17.2" r="1"/>
			</g>
		</g>
		<g>
			<circle cx="27.5" cy="-8.7" r="2.5"/>
		</g>
		<g>
			<g>
				<path d="M34.9-66.1H19.3v2.7h6.1V-46h3.3v-17.4h6.2V-66.1z"/>
				<g>
					<circle class="st2" cx="13.7" cy="-49.4" r="3.3"/>
					<circle class="st1" cx="13.7" cy="-63.2" r="3.3"/>
					<line class="st1" x1="13.7" y1="-47.7" x2="13.7" y2="-60.3"/>
				</g>
				<circle cx="13.7" cy="-63.2" r="1"/>
			</g>
			<circle cx="73.5" cy="-54.7" r="2.5"/>
		</g>
		<g>
			<g>
				<path d="M80.9-112.1H65.3v2.7h6.1V-92h3.3v-17.4h6.2V-112.1z"/>
				<g>
					<circle class="st2" cx="59.7" cy="-95.4" r="3.3"/>
					<line class="st1" x1="59.7" y1="-93.7" x2="59.7" y2="-106.3"/>
				</g>
			</g>
		</g>
		<g>
			<circle cx="27.5" cy="-100.7" r="2.5"/>
		</g>
	</g>
</pattern>
<g id="Layer_1" class="st3">
	
		<image style="display:inline;overflow:visible;" width="1985" height="1194" xlink:href="../../../../../../Downloads/eye.jpg"  transform="matrix(0.3 0 0 0.3 392 94)">
	</image>
</g>
<g id="Layer_2">
</g>
<g id="Layer_3">
	<rect class="st4" width="1393" height="500"/>
	<g>
		<g>
			<path d="M1049.9-166.8h-6.7v18.8h-3.6v-18.8h-6.6v-3h16.9V-166.8z"/>
		</g>
		<g>
			<circle class="st2" cx="1027.1" cy="-151.7" r="3.6"/>
			<circle class="st1" cx="1027.1" cy="-166.5" r="3.6"/>
			<line class="st1" x1="1027.1" y1="-149.8" x2="1027.1" y2="-163.4"/>
		</g>
		<circle cx="1027.1" cy="-166.5" r="1"/>
	</g>
	<circle cx="1089.3" cy="-159" r="6"/>
</g>
</svg>
