<?xml version="1.0" encoding="utf-8"?>
<!-- Generator: Adobe Illustrator 22.1.0, SVG Export Plug-In . SVG Version: 6.00 Build 0)  -->
<svg version="1.1" id="Layer_1" xmlns="http://www.w3.org/2000/svg" xmlns:xlink="http://www.w3.org/1999/xlink" x="0px" y="0px"
	 viewBox="0 0 1366 500" style="enable-background:new 0 0 1366 500;" xml:space="preserve">
<style type="text/css">
	.st0{fill:none;}
	.st1{fill:none;stroke:#000000;stroke-width:0.5;stroke-miterlimit:10;}
	.st2{fill:#FFFFFF;}
	.st3{fill:#FFFFFF;stroke:#000000;stroke-width:0.5;stroke-miterlimit:10;}
	.st4{fill:#FFFFFF;stroke:#000000;stroke-width:0.75;stroke-miterlimit:10;}
	.st5{stroke:#000000;stroke-width:0.5;stroke-miterlimit:10;}
	.st6{fill:url(#SVGID_1_);}
</style>
<pattern  width="101" height="56" patternUnits="userSpaceOnUse" id="New_Pattern_9" viewBox="0 -67.8 101 56" style="overflow:visible;">
	<g>
		<rect y="-67.8" class="st0" width="101" height="56"/>
		<g>
			<g>
				<g>
					<path class="st1" d="M69.3-4.5c0,0.4-0.3,0.7-0.7,0.7c-1.7,0-3.4,0-5.2,0c-0.4,0-0.7-0.3-0.7-0.7c0-1.1,0-2.1,0-3.2
						c0-0.4,0.3-0.7,0.7-0.7c0.1,0,0.3,0,0.5,0c0-0.4,0-0.7,0-1.1c0-0.4,0.1-0.8,0.3-1.1c0.7-1.2,2.3-1.4,3.3-0.4
						c0.4,0.4,0.6,0.9,0.7,1.5c0,0.1,0,0.3,0,0.5h-0.8c0-0.2,0-0.3,0-0.5c0-1-1-1.6-1.9-1.2c-0.4,0.2-0.7,0.5-0.7,0.9
						c0,0.4,0,0.9,0,1.4h0.1c1.2,0,2.4,0,3.7,0c0.4,0,0.7,0.3,0.7,0.7C69.3-6.6,69.3-5.5,69.3-4.5z M66.7-6.6c0-0.3-0.3-0.5-0.5-0.6
						c-0.3,0-0.5,0.1-0.7,0.3c-0.1,0.3-0.1,0.6,0.1,0.8c0,0,0.1,0.1,0.1,0.2c0,0.2-0.1,0.4-0.1,0.6c0,0.2,0,0.3,0.3,0.3
						c0.1,0,0.1,0,0.2,0c0.1,0,0.1,0,0.2,0c0.2,0,0.3-0.1,0.3-0.3c0-0.2-0.1-0.4-0.1-0.6c0-0.1,0-0.2,0.1-0.2
						C66.7-6.2,66.7-6.4,66.7-6.6z"/>
				</g>
			</g>
		</g>
		<g>
			<ellipse class="st2" cx="26.7" cy="-12" rx="11.6" ry="11.5"/>
			<g>
				<path d="M38.4-11.8c0-6.5-5.3-11.6-11.5-11.8c-6.4-0.1-12,5-12,11.8c0,6.6,5.4,11.9,12,11.8C33.3-0.1,38.4-5.4,38.4-11.8z
					 M26.9-23.1C33-23,38.1-17.8,38-11.5c-0.1,6-5.1,11.2-11.6,11.1c-6.1-0.1-11-5.1-11.1-11.2C15.2-18.1,20.6-23.2,26.9-23.1z"/>
				<path d="M24.6-7.6c0.2,1,1,1.7,2,1.8c1,0,1.9-0.6,2.1-1.6c0.1-0.5,0.1-0.9-0.2-1.4c-0.3-0.6-0.9-1-1.6-1.1c0-1.2,0-2.3,0-3.4
					c1.4-0.4,2.1-1.3,1.9-2.5c-0.1-1-1-1.8-2.1-1.8c-1.1,0-2,0.7-2.2,1.8c-0.1,0.5,0,1,0.3,1.5c0.4,0.6,0.9,0.9,1.6,1
					c0,1.2,0,2.3,0,3.4C25.1-9.4,24.5-8.7,24.6-7.6z M26.6-13.7c-1,0-1.8-0.9-1.8-1.8c0-1,0.8-1.8,1.8-1.8c1,0,1.8,0.8,1.8,1.9
					C28.5-14.5,27.6-13.6,26.6-13.7z"/>
				<path d="M26.7-16.2c0.4,0,0.7,0.3,0.7,0.7c0,0.4-0.3,0.7-0.7,0.7c-0.4,0-0.7-0.3-0.7-0.7C26-15.9,26.3-16.2,26.7-16.2z"/>
			</g>
		</g>
		<g>
			<g>
				<g>
					<path class="st2" d="M18.8-32.5c0,0.4-0.3,0.7-0.7,0.7c-1.7,0-3.4,0-5.2,0c-0.4,0-0.7-0.3-0.7-0.7c0-1.1,0-2.1,0-3.2
						c0-0.4,0.3-0.7,0.7-0.7c0.1,0,0.3,0,0.5,0c0-0.4,0-0.7,0-1.1c0-0.4,0.1-0.8,0.3-1.1c0.7-1.2,2.3-1.4,3.3-0.4
						c0.4,0.4,0.6,0.9,0.7,1.5c0,0.1,0,0.3,0,0.5h-0.8c0-0.2,0-0.3,0-0.5c0-1-1-1.6-1.9-1.2c-0.4,0.2-0.7,0.5-0.7,0.9
						c0,0.4,0,0.9,0,1.4h0.1c1.2,0,2.4,0,3.7,0c0.4,0,0.7,0.3,0.7,0.7C18.8-34.6,18.8-33.5,18.8-32.5z M16.2-34.6
						c0-0.3-0.3-0.5-0.5-0.6c-0.3,0-0.5,0.1-0.7,0.3c-0.1,0.3-0.1,0.6,0.1,0.8c0,0,0.1,0.1,0.1,0.2c0,0.2-0.1,0.4-0.1,0.6
						c0,0.2,0,0.3,0.3,0.3c0.1,0,0.1,0,0.2,0c0.1,0,0.1,0,0.2,0c0.2,0,0.3-0.1,0.3-0.3c0-0.2-0.1-0.4-0.1-0.6c0-0.1,0-0.2,0.1-0.2
						C16.2-34.2,16.2-34.4,16.2-34.6z"/>
					<path class="st1" d="M18.8-32.5c0,0.4-0.3,0.7-0.7,0.7c-1.7,0-3.4,0-5.2,0c-0.4,0-0.7-0.3-0.7-0.7c0-1.1,0-2.1,0-3.2
						c0-0.4,0.3-0.7,0.7-0.7c0.1,0,0.3,0,0.5,0c0-0.4,0-0.7,0-1.1c0-0.4,0.1-0.8,0.3-1.1c0.7-1.2,2.3-1.4,3.3-0.4
						c0.4,0.4,0.6,0.9,0.7,1.5c0,0.1,0,0.3,0,0.5h-0.8c0-0.2,0-0.3,0-0.5c0-1-1-1.6-1.9-1.2c-0.4,0.2-0.7,0.5-0.7,0.9
						c0,0.4,0,0.9,0,1.4h0.1c1.2,0,2.4,0,3.7,0c0.4,0,0.7,0.3,0.7,0.7C18.8-34.6,18.8-33.5,18.8-32.5z M16.2-34.6
						c0-0.3-0.3-0.5-0.5-0.6c-0.3,0-0.5,0.1-0.7,0.3c-0.1,0.3-0.1,0.6,0.1,0.8c0,0,0.1,0.1,0.1,0.2c0,0.2-0.1,0.4-0.1,0.6
						c0,0.2,0,0.3,0.3,0.3c0.1,0,0.1,0,0.2,0c0.1,0,0.1,0,0.2,0c0.2,0,0.3-0.1,0.3-0.3c0-0.2-0.1-0.4-0.1-0.6c0-0.1,0-0.2,0.1-0.2
						C16.2-34.2,16.2-34.4,16.2-34.6z"/>
				</g>
				<path class="st3" d="M15.6-32.9c-0.1,0-0.1,0-0.2,0c-0.2,0-0.3-0.1-0.3-0.3c0-0.2,0.1-0.4,0.1-0.6c0-0.1,0-0.1-0.1-0.2
					c-0.2-0.2-0.3-0.5-0.1-0.8c0.1-0.2,0.4-0.4,0.7-0.3c0.3,0,0.5,0.3,0.5,0.6c0,0.2,0,0.4-0.2,0.5c-0.1,0.1-0.1,0.1-0.1,0.2
					c0,0.2,0.1,0.4,0.1,0.6c0,0.2-0.1,0.3-0.3,0.3C15.7-32.9,15.6-32.9,15.6-32.9z"/>
			</g>
			<g>
				<path class="st4" d="M40.4-33.5c0,1.3-3.1,2.6-6.5,2.6c-2.8,0-6.3-1.3-6.3-2.6s3.7-2.6,6.8-2.6C37.2-36.2,40.4-34.8,40.4-33.5z"
					/>
				<g>
					<circle class="st2" cx="34.2" cy="-33.6" r="2.3"/>
					<circle class="st1" cx="34.2" cy="-33.6" r="2.3"/>
				</g>
				<circle class="st5" cx="34.5" cy="-33.6" r="0.9"/>
				<circle class="st2" cx="35.3" cy="-34.2" r="0.5"/>
				<polygon points="33.6,-36.2 34.1,-39.4 34.6,-36.2 				"/>
				<polygon points="28.3,-34.5 26.9,-37.4 29.2,-35 				"/>
				<polygon points="38.8,-35.3 41,-37.4 39.6,-34.7 				"/>
				<polygon points="30.9,-35.6 30.2,-39 31.8,-36 				"/>
				<polygon points="36.8,-36 38.7,-38.7 37.6,-35.6 				"/>
			</g>
			<ellipse class="st2" cx="77.2" cy="-40" rx="11.6" ry="11.5"/>
			<g>
				<path d="M88.9-39.8c0-6.5-5.3-11.6-11.5-11.8c-6.4-0.1-12,5-12,11.8c0,6.6,5.4,11.9,12,11.8C83.8-28.1,88.9-33.4,88.9-39.8z
					 M77.4-51.1c6.2,0.1,11.3,5.3,11.1,11.6c-0.1,6-5.1,11.2-11.6,11.1c-6.1-0.1-11-5.1-11.1-11.2C65.7-46.1,71.1-51.2,77.4-51.1z"
					/>
				<path d="M75.1-35.6c0.2,1,1,1.7,2,1.8c1,0,1.9-0.6,2.1-1.6c0.1-0.5,0.1-0.9-0.2-1.4c-0.3-0.6-0.9-1-1.6-1.1c0-1.2,0-2.3,0-3.4
					c1.4-0.4,2.1-1.3,1.9-2.5c-0.1-1-1-1.8-2.1-1.8c-1.1,0-2,0.7-2.2,1.8c-0.1,0.5,0,1,0.3,1.5c0.4,0.6,0.9,0.9,1.6,1
					c0,1.2,0,2.3,0,3.4C75.6-37.4,75-36.7,75.1-35.6z M77.1-41.7c-1,0-1.8-0.9-1.8-1.8c0-1,0.8-1.8,1.8-1.8c1,0,1.8,0.8,1.8,1.9
					C79-42.5,78.1-41.6,77.1-41.7z"/>
				<path d="M77.2-44.2c0.4,0,0.7,0.3,0.7,0.7c0,0.4-0.3,0.7-0.7,0.7c-0.4,0-0.7-0.3-0.7-0.7C76.5-43.9,76.8-44.2,77.2-44.2z"/>
			</g>
		</g>
		<g>
			<g>
				<g>
					<path class="st2" d="M69.3-60.5c0,0.4-0.3,0.7-0.7,0.7c-1.7,0-3.4,0-5.2,0c-0.4,0-0.7-0.3-0.7-0.7c0-1.1,0-2.1,0-3.2
						c0-0.4,0.3-0.7,0.7-0.7c0.1,0,0.3,0,0.5,0c0-0.4,0-0.7,0-1.1c0-0.4,0.1-0.8,0.3-1.1c0.7-1.2,2.3-1.4,3.3-0.4
						c0.4,0.4,0.6,0.9,0.7,1.5c0,0.1,0,0.3,0,0.5h-0.8c0-0.2,0-0.3,0-0.5c0-1-1-1.6-1.9-1.2c-0.4,0.2-0.7,0.5-0.7,0.9
						c0,0.4,0,0.9,0,1.4h0.1c1.2,0,2.4,0,3.7,0c0.4,0,0.7,0.3,0.7,0.7C69.3-62.6,69.3-61.5,69.3-60.5z M66.7-62.6
						c0-0.3-0.3-0.5-0.5-0.6c-0.3,0-0.5,0.1-0.7,0.3c-0.1,0.3-0.1,0.6,0.1,0.8c0,0,0.1,0.1,0.1,0.2c0,0.2-0.1,0.4-0.1,0.6
						c0,0.2,0,0.3,0.3,0.3c0.1,0,0.1,0,0.2,0c0.1,0,0.1,0,0.2,0c0.2,0,0.3-0.1,0.3-0.3c0-0.2-0.1-0.4-0.1-0.6c0-0.1,0-0.2,0.1-0.2
						C66.7-62.2,66.7-62.4,66.7-62.6z"/>
					<path class="st1" d="M69.3-60.5c0,0.4-0.3,0.7-0.7,0.7c-1.7,0-3.4,0-5.2,0c-0.4,0-0.7-0.3-0.7-0.7c0-1.1,0-2.1,0-3.2
						c0-0.4,0.3-0.7,0.7-0.7c0.1,0,0.3,0,0.5,0c0-0.4,0-0.7,0-1.1c0-0.4,0.1-0.8,0.3-1.1c0.7-1.2,2.3-1.4,3.3-0.4
						c0.4,0.4,0.6,0.9,0.7,1.5c0,0.1,0,0.3,0,0.5h-0.8c0-0.2,0-0.3,0-0.5c0-1-1-1.6-1.9-1.2c-0.4,0.2-0.7,0.5-0.7,0.9
						c0,0.4,0,0.9,0,1.4h0.1c1.2,0,2.4,0,3.7,0c0.4,0,0.7,0.3,0.7,0.7C69.3-62.6,69.3-61.5,69.3-60.5z M66.7-62.6
						c0-0.3-0.3-0.5-0.5-0.6c-0.3,0-0.5,0.1-0.7,0.3c-0.1,0.3-0.1,0.6,0.1,0.8c0,0,0.1,0.1,0.1,0.2c0,0.2-0.1,0.4-0.1,0.6
						c0,0.2,0,0.3,0.3,0.3c0.1,0,0.1,0,0.2,0c0.1,0,0.1,0,0.2,0c0.2,0,0.3-0.1,0.3-0.3c0-0.2-0.1-0.4-0.1-0.6c0-0.1,0-0.2,0.1-0.2
						C66.7-62.2,66.7-62.4,66.7-62.6z"/>
				</g>
				<path class="st3" d="M66.1-60.9c-0.1,0-0.1,0-0.2,0c-0.2,0-0.3-0.1-0.3-0.3c0-0.2,0.1-0.4,0.1-0.6c0-0.1,0-0.1-0.1-0.2
					c-0.2-0.2-0.3-0.5-0.1-0.8c0.1-0.2,0.4-0.4,0.7-0.3c0.3,0,0.5,0.3,0.5,0.6c0,0.2,0,0.4-0.2,0.5c-0.1,0.1-0.1,0.1-0.1,0.2
					c0,0.2,0.1,0.4,0.1,0.6c0,0.2-0.1,0.3-0.3,0.3C66.2-60.9,66.1-60.9,66.1-60.9z"/>
			</g>
			<g>
				<path class="st4" d="M90.9-61.5c0,1.3-3.1,2.6-6.5,2.6c-2.8,0-6.3-1.3-6.3-2.6s3.7-2.6,6.8-2.6C87.7-64.2,90.9-62.8,90.9-61.5z"
					/>
				<g>
					<circle class="st2" cx="84.7" cy="-61.6" r="2.3"/>
					<circle class="st1" cx="84.7" cy="-61.6" r="2.3"/>
				</g>
				<circle class="st5" cx="85" cy="-61.6" r="0.9"/>
				<circle class="st2" cx="85.8" cy="-62.2" r="0.5"/>
				<polygon points="84.1,-64.2 84.6,-67.4 85.1,-64.2 				"/>
				<polygon points="78.8,-62.5 77.4,-65.4 79.7,-63 				"/>
				<polygon points="89.3,-63.3 91.5,-65.4 90.1,-62.7 				"/>
				<polygon points="81.4,-63.6 80.7,-67 82.3,-64 				"/>
				<polygon points="87.3,-64 89.2,-66.7 88.1,-63.6 				"/>
			</g>
		</g>
		<g>
			<ellipse class="st2" cx="26.7" cy="-68" rx="11.6" ry="11.5"/>
			<g>
				<path d="M38.4-67.8c0-6.5-5.3-11.6-11.5-11.8c-6.4-0.1-12,5-12,11.8c0,6.6,5.4,11.9,12,11.8C33.3-56.1,38.4-61.4,38.4-67.8z
					 M26.9-79.1C33-79,38.1-73.8,38-67.5c-0.1,6-5.1,11.2-11.6,11.1c-6.1-0.1-11-5.1-11.1-11.2C15.2-74.1,20.6-79.2,26.9-79.1z"/>
				<path d="M24.6-63.6c0.2,1,1,1.7,2,1.8c1,0,1.9-0.6,2.1-1.6c0.1-0.5,0.1-0.9-0.2-1.4c-0.3-0.6-0.9-1-1.6-1.1c0-1.2,0-2.3,0-3.4
					c1.4-0.4,2.1-1.3,1.9-2.5c-0.1-1-1-1.8-2.1-1.8c-1.1,0-2,0.7-2.2,1.8c-0.1,0.5,0,1,0.3,1.5c0.4,0.6,0.9,0.9,1.6,1
					c0,1.2,0,2.3,0,3.4C25.1-65.4,24.5-64.7,24.6-63.6z M26.6-69.7c-1,0-1.8-0.9-1.8-1.8c0-1,0.8-1.8,1.8-1.8c1,0,1.8,0.8,1.8,1.9
					C28.5-70.5,27.6-69.6,26.6-69.7z"/>
			</g>
		</g>
	</g>
</pattern>
<pattern  id="SVGID_1_" xlink:href="#New_Pattern_9" patternTransform="matrix(1 0 0 1 0 -22)">
</pattern>
<rect class="st6" width="1366" height="500"/>
</svg>
