<?xml version="1.0" encoding="utf-8"?>
<!-- Generator: Adobe Illustrator 23.0.1, SVG Export Plug-In . SVG Version: 6.00 Build 0)  -->
<svg version="1.1" id="Layer_1" xmlns="http://www.w3.org/2000/svg" xmlns:xlink="http://www.w3.org/1999/xlink" x="0px" y="0px"
	 viewBox="0 0 1393 388.1" style="enable-background:new 0 0 1393 388.1;" xml:space="preserve">
<style type="text/css">
	.st0{fill:none;}
	.st1{fill:none;stroke:#000000;stroke-miterlimit:10;}
	.st2{stroke:#000000;stroke-miterlimit:10;}
	.st3{display:none;}
	.st4{fill:url(#New_Pattern);}
</style>
<pattern  y="439.3" width="74" height="78" patternUnits="userSpaceOnUse" id="New_Pattern" viewBox="0 -89.1 74 78" style="overflow:visible;">
	<g>
		<rect y="-89.1" class="st0" width="74" height="78"/>
		<g>
			<g>
				<path d="M58-12.7v-2H46.6v2h4.4V0h2.4v-12.7H58L58-12.7z"/>
				<g>
					<circle class="st1" cx="42.7" cy="-12.5" r="2.4"/>
				</g>
				<circle cx="42.7" cy="-12.5" r="0.7"/>
			</g>
		</g>
		<g>
			<g>
				<path d="M21-51.7v-2H9.6v2h4.4V-39h2.4v-12.7H21L21-51.7z"/>
				<g>
					<circle class="st2" cx="5.7" cy="-41.5" r="2.4"/>
					<circle class="st1" cx="5.7" cy="-51.5" r="2.4"/>
					<line class="st1" x1="5.7" y1="-49.4" x2="5.7" y2="-40.2"/>
				</g>
				<circle cx="5.7" cy="-51.5" r="0.7"/>
			</g>
			<circle cx="46.3" cy="-45.1" r="2.8"/>
		</g>
		<g>
			<g>
				<path d="M58-90.7v-2H46.6v2h4.4V-78h2.4v-12.7H58L58-90.7z"/>
				<g>
					<circle class="st2" cx="42.7" cy="-80.5" r="2.4"/>
					<circle class="st1" cx="42.7" cy="-90.5" r="2.4"/>
					<line class="st1" x1="42.7" y1="-88.4" x2="42.7" y2="-79.2"/>
				</g>
			</g>
		</g>
		<g>
			<circle cx="9.3" cy="-84.1" r="2.8"/>
		</g>
	</g>
</pattern>
<g class="st3">
	
		<image style="display:inline;overflow:visible;enable-background:new    ;" width="1985" height="1194" xlink:href="../../../../../../Downloads/eye.jpg"  transform="matrix(0.3 0 0 0.3 392 33.2766)">
	</image>
</g>
<g>
	<g>
		<path d="M1049.9-227.5h-6.7v18.8h-3.6v-18.8h-6.6v-3h16.9L1049.9-227.5L1049.9-227.5z"/>
	</g>
	<g>
		<circle class="st2" cx="1027.1" cy="-212.4" r="3.6"/>
		<circle class="st1" cx="1027.1" cy="-227.2" r="3.6"/>
		<line class="st1" x1="1027.1" y1="-210.5" x2="1027.1" y2="-224.1"/>
	</g>
	<circle cx="1027.1" cy="-227.2" r="1"/>
</g>
<circle cx="1087.4" cy="-217.8" r="4.1"/>
<rect class="st4" width="1393" height="388.1"/>
</svg>
