<svg xmlns="http://www.w3.org/2000/svg" viewBox="0 0 1366 2909"><defs><style>.cls-1{fill:#fff;}</style></defs><title>skansing-background</title><g id="flow-backgr"><path d="M-406,1920.4a1286.34,1286.34,0,0,0,318.43,81.75q46.11,5.7,92.55,8c1.93.1,1.92-2.9,0-3a1284.44,1284.44,0,0,1-323-58.46q-44.14-14-87.17-31.22c-1.79-.71-2.57,2.19-.8,2.9Z"/><path d="M1352,1807.5a1340.37,1340.37,0,0,1,175.12,6.82c1.92.21,1.9-2.8,0-3A1340.37,1340.37,0,0,0,1352,1804.5c-1.93,0-1.93,3,0,3Z"/><rect class="cls-1" x="-11" y="-33" width="1444" height="2997"/></g><g id="flow"><path d="M-192.21,15.12A2037.66,2037.66,0,0,1-610.13-28l.82-3.91C-201.44,53.5,234.23,10.36,617.43-153.37c61.6-26.32,122.93-56.15,182.23-85,85.55-41.6,174-84.63,264.84-117.88,182.07-66.66,344.34-79.91,482.3-39.38l-1.13,3.84c-137.12-40.28-298.54-27.07-479.8,39.29-90.65,33.19-179,76.17-264.46,117.73C742.06-205.9,680.69-176,619-149.69,427.63-67.92,224-15.91,13.72,4.92Q-89.4,15.12-192.21,15.12Z"/><path d="M-184.51,56.21a2038.26,2038.26,0,0,1-417.91-43.1l.82-3.91C-193.73,94.59,241.94,51.45,625.14-112.28c61.6-26.32,122.92-56.15,182.23-85,85.54-41.61,174-84.63,264.84-117.89,182.07-66.65,344.34-79.9,482.29-39.37l-1.12,3.84c-137.12-40.28-298.55-27.07-479.8,39.29-90.65,33.19-179,76.16-264.46,117.73C749.77-164.82,688.4-135,626.71-108.61,435.34-26.83,231.69,25.18,21.43,46Q-81.69,56.22-184.51,56.21Z"/><path d="M-176.8,97.3A2038.26,2038.26,0,0,1-594.71,54.2l.82-3.92C-186,135.68,249.64,92.54,632.84-71.19c61.6-26.33,122.93-56.15,182.24-85,85.54-41.61,174-84.63,264.83-117.89,182.07-66.66,344.34-79.9,482.3-39.37l-1.13,3.84c-137.11-40.29-298.54-27.07-479.79,39.29-90.65,33.18-179,76.16-264.46,117.73-59.35,28.86-120.72,58.71-182.41,85.07C443,14.25,239.4,66.27,29.13,87.09Q-74,97.31-176.8,97.3Z"/><path d="M-169.09,138.39A2038.28,2038.28,0,0,1-587,95.29l.82-3.92c407.87,85.4,843.54,42.26,1226.74-121.48,61.6-26.32,122.93-56.15,182.23-85,85.54-41.61,174-84.63,264.84-117.89,182.07-66.66,344.34-79.9,482.29-39.37l-1.12,3.84c-137.12-40.29-298.55-27.07-479.8,39.29C998.34-196,910-153.07,824.53-111.51,765.18-82.64,703.81-52.79,642.12-26.43,450.75,55.34,247.1,107.36,36.84,128.18Q-66.28,138.4-169.09,138.39Z"/><path d="M-161.39,179.48a2038.26,2038.26,0,0,1-417.91-43.1l.82-3.92C-170.61,217.86,265.05,174.72,648.26,11c61.6-26.32,122.92-56.15,182.23-85,85.54-41.6,174-84.63,264.83-117.88,182.08-66.66,344.35-79.9,482.3-39.37l-1.13,3.84C1439.38-267.72,1278-254.5,1096.7-188.15,1006.05-155,917.69-112,832.24-70.42,772.89-41.55,711.52-11.7,649.83,14.66c-191.37,81.77-395,133.79-605.28,154.61Q-58.57,179.49-161.39,179.48Z"/><path d="M-153.68,220.56a2037,2037,0,0,1-417.92-43.1l.82-3.91C-162.91,259,272.76,215.8,656,52.07c61.6-26.32,122.93-56.15,182.24-85,85.54-41.6,174-84.63,264.83-117.88,182.07-66.66,344.34-79.9,482.3-39.37l-1.13,3.83c-137.12-40.28-298.54-27.06-479.8,39.29-90.65,33.19-179,76.17-264.46,117.73C780.59-.46,719.22,29.39,657.53,55.75c-191.37,81.77-395,133.79-605.28,154.61Q-50.87,220.58-153.68,220.56Z"/><path d="M-146,261.65a2037.56,2037.56,0,0,1-417.91-43.1l.82-3.91C-155.2,300,280.47,256.89,663.67,93.16,725.27,66.84,786.59,37,845.9,8.16c85.54-41.61,174-84.63,264.83-117.89,182.08-66.65,344.35-79.9,482.3-39.37l-1.12,3.84c-137.12-40.28-298.55-27.07-479.8,39.29-90.65,33.19-179,76.17-264.46,117.73C788.3,40.63,726.93,70.48,665.24,96.84,473.87,178.61,270.22,230.63,60,251.45Q-43.16,261.65-146,261.65Z"/><path d="M-138.27,302.74a2038.43,2038.43,0,0,1-417.92-43.1l.82-3.91C-147.49,341.12,288.17,298,671.37,134.25c61.6-26.33,122.93-56.15,182.24-85,85.54-41.61,174-84.63,264.83-117.89,182.07-66.65,344.34-79.9,482.3-39.37l-1.13,3.84c-137.12-40.28-298.54-27.07-479.79,39.29-90.65,33.18-179,76.16-264.46,117.73C796,81.71,734.64,111.57,673,137.92c-191.38,81.77-395,133.79-605.29,154.61Q-35.45,302.75-138.27,302.74Z"/><path d="M-130.57,343.83a2038.26,2038.26,0,0,1-417.91-43.1l.82-3.92c407.87,85.4,843.54,42.26,1226.74-121.48,61.6-26.32,122.93-56.15,182.23-85,85.54-41.61,174-84.63,264.84-117.89,182.07-66.66,344.34-79.9,482.29-39.37l-1.12,3.84c-137.12-40.29-298.55-27.07-479.8,39.29-90.65,33.18-179,76.16-264.46,117.72C803.71,122.8,742.34,152.65,680.65,179c-191.37,81.77-395,133.79-605.28,154.61Q-27.75,343.84-130.57,343.83Z"/><path d="M-122.86,384.92a2038.26,2038.26,0,0,1-417.91-43.1l.82-3.92c407.87,85.4,843.53,42.26,1226.74-121.48,61.6-26.32,122.92-56.15,182.23-85,85.54-41.61,174-84.64,264.83-117.89,182.08-66.66,344.35-79.9,482.3-39.37L1615-22c-137.11-40.29-298.54-27.07-479.79,39.28-90.65,33.19-179,76.17-264.46,117.73-59.35,28.87-120.72,58.72-182.41,85.08C497,301.87,293.34,353.89,83.08,374.71Q-20,384.92-122.86,384.92Z"/><path d="M-115.16,426a2038.26,2038.26,0,0,1-417.91-43.1l.82-3.92c407.88,85.4,843.54,42.25,1226.74-121.48,61.6-26.32,122.93-56.15,182.23-85,85.54-41.6,174-84.63,264.84-117.88,182.07-66.66,344.34-79.9,482.3-39.37l-1.13,3.83C1485.61-21.19,1324.19-8,1142.93,58.38c-90.65,33.19-179,76.17-264.46,117.73C819.12,205,757.75,234.83,696.06,261.19,504.69,343,301,395,90.78,415.8Q-12.34,426-115.16,426Z"/><path d="M-107.45,467.09A2037.56,2037.56,0,0,1-525.36,424l.82-3.91C-116.67,505.47,319,462.33,702.2,298.6c61.6-26.32,122.92-56.15,182.23-85C970,172,1058.42,129,1149.26,95.72c182.07-66.66,344.34-79.91,482.3-39.37l-1.13,3.83c-137.11-40.28-298.54-27.06-479.79,39.29-90.65,33.19-179,76.17-264.46,117.73-59.35,28.87-120.72,58.72-182.41,85.08-191.37,81.77-395,133.79-605.28,154.61Q-4.64,467.09-107.45,467.09Z"/><path d="M-99.74,508.18a2037.73,2037.73,0,0,1-417.92-43.1l.82-3.91C-109,546.56,326.7,503.42,709.9,339.69c61.6-26.32,122.93-56.15,182.23-85,85.55-41.61,174-84.63,264.84-117.89,182.07-66.65,344.34-79.9,482.3-39.37l-1.13,3.84C1501,61,1339.6,74.2,1158.34,140.56c-90.64,33.19-179,76.16-264.46,117.73C834.54,287.16,773.17,317,711.47,343.37,520.1,425.14,316.46,477.15,106.19,498Q3.06,508.18-99.74,508.18Z"/><path d="M-92,549.27a2038.26,2038.26,0,0,1-417.91-43.1l.82-3.92c407.87,85.4,843.54,42.26,1226.74-121.47,61.6-26.32,122.92-56.15,182.23-85,85.54-41.61,174-84.63,264.84-117.89C1346.75,111.24,1509,98,1647,138.52l-1.12,3.84c-137.12-40.28-298.55-27.07-479.8,39.29-90.65,33.18-179,76.16-264.46,117.73-59.35,28.87-120.72,58.72-182.41,85.07-191.37,81.77-395,133.79-605.28,154.61Q10.78,549.28-92,549.27Z"/><path d="M-84.33,590.36a2038.26,2038.26,0,0,1-417.91-43.1l.82-3.92c407.87,85.4,843.53,42.26,1226.73-121.48,61.61-26.32,122.93-56.15,182.24-85,85.54-41.61,174-84.63,264.83-117.89,182.08-66.66,344.35-79.9,482.3-39.37l-1.13,3.84c-137.11-40.29-298.54-27.07-479.79,39.29-90.65,33.18-179,76.16-264.46,117.72C850,369.33,788.58,399.18,726.89,425.54c-191.38,81.77-395,133.79-605.29,154.61Q18.49,590.37-84.33,590.36Z"/><path d="M-76.63,631.45a2038.26,2038.26,0,0,1-417.91-43.1l.82-3.92C-85.85,669.83,349.82,626.69,733,463c61.6-26.32,122.93-56.15,182.23-85,85.54-41.61,174-84.64,264.84-117.89,182.07-66.66,344.34-79.9,482.29-39.37l-1.12,3.84c-137.12-40.29-298.55-27.07-479.8,39.28C1090.81,297,1002.45,340,917,381.55c-59.35,28.87-120.72,58.72-182.41,85.08-191.37,81.77-395,133.79-605.28,154.61Q26.19,631.45-76.63,631.45Z"/><path d="M-68.92,672.54a2037.57,2037.57,0,0,1-417.91-43.11l.82-3.91C-78.14,710.92,357.52,667.78,740.73,504c61.59-26.32,122.92-56.15,182.22-85,85.54-41.61,174-84.64,264.84-117.89,182.08-66.66,344.35-79.9,482.3-39.37l-1.13,3.84c-137.11-40.29-298.54-27.07-479.79,39.28-90.65,33.19-179,76.17-264.47,117.73C865.35,451.51,804,481.36,742.3,507.72,550.93,589.49,347.28,641.51,137,662.33Q33.89,672.55-68.92,672.54Z"/><path d="M-61.21,713.62a2037.66,2037.66,0,0,1-417.92-43.1l.82-3.91C-70.44,752,365.23,708.86,748.43,545.13c61.6-26.32,122.93-56.15,182.23-85,85.55-41.6,174-84.63,264.84-117.88,182.07-66.66,344.34-79.91,482.3-39.37l-1.13,3.83c-137.12-40.28-298.54-27.06-479.8,39.29-90.65,33.19-179,76.17-264.46,117.73C873.06,492.6,811.69,522.45,750,548.81,558.63,630.58,355,682.59,144.72,703.42Q41.6,713.62-61.21,713.62Z"/><path d="M-53.51,754.71a2038.26,2038.26,0,0,1-417.91-43.1l.82-3.91C-62.73,793.09,372.94,750,756.14,586.22c61.6-26.32,122.92-56.15,182.23-85,85.54-41.61,174-84.63,264.84-117.89,182.07-66.65,344.34-79.9,482.29-39.37l-1.12,3.84c-137.12-40.28-298.55-27.07-479.8,39.29-90.65,33.19-179,76.16-264.46,117.73-59.35,28.86-120.72,58.72-182.41,85.07-191.37,81.78-395,133.79-605.28,154.61Q49.31,754.71-53.51,754.71Z"/><path d="M1693.21,385.05l-1.13,3.84c-137.11-40.29-298.54-27.07-479.79,39.29-90.65,33.18-179,76.16-264.46,117.73C888.48,574.77,827.11,604.62,765.42,631A2037.36,2037.36,0,0,1,359.29,756.15q-6.17,1.23-12.34,2.41c-4.55-.59-9.07-1.15-13.63-1.68q6.49-1.2,13-2.44A2038.42,2038.42,0,0,0,763.84,627.31c61.6-26.33,122.93-56.15,182.24-85,85.54-41.61,174-84.63,264.83-117.89C1393,357.76,1555.25,344.52,1693.21,385.05Z"/><path d="M1700.91,426.14l-1.12,3.84c-137.12-40.29-298.55-27.07-479.8,39.29-90.65,33.18-179,76.16-264.46,117.72-59.35,28.87-120.72,58.72-182.41,85.08a2031.67,2031.67,0,0,1-306,102.8h0l-9.05,2.24h0c-3.22-.66-6.43-1.3-9.66-1.93,3.07-.73,6.15-1.48,9.22-2.24h0A2025.67,2025.67,0,0,0,771.55,668.39c61.6-26.32,122.93-56.15,182.23-85,85.54-41.61,174-84.63,264.84-117.89C1400.69,398.85,1563,385.61,1700.91,426.14Z"/><path d="M1708.62,467.23l-1.13,3.84C1570.38,430.78,1409,444,1227.7,510.35c-90.65,33.19-179,76.17-264.46,117.73C903.89,657,842.52,686.8,780.83,713.16a2029.87,2029.87,0,0,1-227.43,81.5h0l-7.65,2.22h0l-8.06-2,7.77-2.22a2016.19,2016.19,0,0,0,233.82-83.2c61.6-26.32,122.92-56.15,182.23-85,85.54-41.6,174-84.63,264.83-117.88C1408.4,439.94,1570.67,426.7,1708.62,467.23Z"/><path d="M1716.33,508.32l-1.13,3.83c-137.12-40.28-298.54-27.06-479.8,39.29-90.65,33.19-179,76.17-264.46,117.73C911.59,698,850.22,727.89,788.53,754.25q-78.37,33.5-159.38,60.29c-2.29.76-4.58,1.52-6.88,2.26l-7.19-1.95,6.93-2.26h0q83.81-27.39,164.94-62c61.6-26.32,122.93-56.15,182.24-85,85.54-41.6,174-84.63,264.83-117.88C1416.1,481,1578.37,467.79,1716.33,508.32Z"/><path d="M1724,549.4l-1.12,3.84c-137.12-40.28-298.55-27.07-479.8,39.29-90.65,33.19-179,76.17-264.46,117.73C919.3,739.13,857.93,769,796.24,795.34Q747.91,816,698.57,834.1l-6.38,2.33-6.63-1.91q3.21-1.14,6.4-2.32,51.91-18.84,102.71-40.54c61.6-26.32,122.92-56.15,182.23-85,85.54-41.61,174-84.63,264.83-117.89C1423.81,522.12,1586.08,508.87,1724,549.4Z"/><path d="M1731.74,590.49l-1.13,3.84c-137.12-40.28-298.54-27.07-479.79,39.29-90.65,33.18-179,76.16-264.46,117.73C927,780.21,865.64,810.07,804,836.42q-20,8.54-40.12,16.63h0l-6,2.41-6.28-1.82c2-.79,4-1.6,6.06-2.41q22.5-9,44.78-18.48c61.6-26.33,122.93-56.15,182.24-85,85.54-41.61,174-84.63,264.83-117.89C1431.51,563.21,1593.78,550,1731.74,590.49Z"/><path d="M1739.44,631.58l-1.12,3.84c-137.12-40.29-298.55-27.07-479.8,39.29-90.65,33.18-179,76.16-264.46,117.72-54.63,26.58-111,54-167.71,78.73l-5.78,2.51-6.07-1.74,5.79-2.5h0c58.16-25.22,116-53.35,172-80.59,85.54-41.61,174-84.63,264.84-117.89C1439.22,604.29,1601.49,591.05,1739.44,631.58Z"/><path d="M1747.15,672.67l-1.13,3.84c-137.11-40.29-298.54-27.07-479.79,39.28-90.65,33.19-179,76.17-264.46,117.73-37.52,18.25-75.84,36.89-114.54,54.79h0l-5.62,2.6-4.66-1.29-1.32-.37,5.62-2.59h0c40.13-18.49,79.88-37.82,118.77-56.73,85.54-41.61,174-84.64,264.83-117.89C1446.93,645.38,1609.2,632.14,1747.15,672.67Z"/><path d="M1754.86,713.76l-1.13,3.83c-137.12-40.28-298.54-27.06-479.8,39.29-90.65,33.19-179,76.17-264.46,117.73-20.37,9.91-41,19.93-61.77,29.89l-5.57,2.67-6-1.57,5.57-2.66h0c22.22-10.63,44.25-21.34,66-31.93,85.54-41.6,174-84.63,264.84-117.88C1454.63,686.47,1616.9,673.22,1754.86,713.76Z"/><path d="M1762.56,754.85l-1.13,3.83c-137.11-40.28-298.54-27.06-479.79,39.29-90.65,33.19-179,76.17-264.46,117.73l-8.63,4.2-5.6,2.73h0l-6.07-1.51,5.6-2.72,13-6.3c85.54-41.6,174-84.63,264.83-117.88C1462.33,727.56,1624.6,714.31,1762.56,754.85Z"/><path d="M1770.27,795.93l-1.13,3.84c-137.12-40.28-298.54-27.07-479.8,39.29-74.61,27.32-147.68,61.27-218.85,95.6l-5.74,2.77h0c-2.06-.47-4.13-.95-6.19-1.44l5.72-2.77c72.68-35.11,147.34-70,223.7-97.92C1470,768.65,1632.31,755.4,1770.27,795.93Z"/><path d="M1778,837l-1.12,3.84c-137.12-40.28-298.55-27.07-479.8,39.29C1242,900.31,1187.74,924.09,1134.49,949l-6,2.8-6.43-1.4,6-2.8c54.86-25.72,110.78-50.36,167.64-71.18C1477.75,809.74,1640,796.49,1778,837Z"/><path d="M1785.68,878.11l-1.13,3.84c-137.11-40.29-298.54-27.07-479.79,39.29-34.67,12.69-69,26.81-103,41.75l-6.35,2.8-6.76-1.37c2.1-.94,4.2-1.88,6.3-2.8,35.72-15.81,71.87-30.76,108.4-44.14C1485.46,850.82,1647.72,837.58,1785.68,878.11Z"/><path d="M1793.38,919.2l-1.12,3.84c-137.12-40.29-298.55-27.07-479.8,39.28q-19.15,7-38.18,14.59c-2.32.92-4.64,1.84-7,2.78l-7.31-1.36,6.89-2.78h0q22-8.84,44.18-17C1493.16,891.91,1655.43,878.67,1793.38,919.2Z"/><path d="M1801.09,960.29l-1.13,3.83c-128.13-37.64-277.51-28.56-444.45,27h0q-4,1.33-8.06,2.71h0c-2.75-.45-5.51-.91-8.26-1.38q4-1.38,7.91-2.72h0C1517.72,931.77,1670.33,921.87,1801.09,960.29Z"/><path d="M2160.79,1055.91q-29.39.38-58.79.38a4584.26,4584.26,0,0,1-658.67-47.55c-3.43-.49-6.85-1-10.28-1.5q-42.87-6.32-85.61-13.46h0c-2.75-.45-5.51-.91-8.26-1.38h0q-36-6.06-71.84-12.71l-7.31-1.36q-32.33-6-64.57-12.54l-6.76-1.37q-30.12-6.12-60.16-12.65l-6.43-1.4q-28.71-6.29-57.34-12.94h0c-2.06-.47-4.13-.95-6.19-1.44q-27.84-6.5-55.6-13.36h0l-6.07-1.51q-27.4-6.79-54.74-14l-6-1.57q-27.3-7.17-54.53-14.69l-4.66-1.29-1.32-.37c-18.29-5.07-36.7-10.31-55-15.58l-6.07-1.74c-19-5.48-38-11-56.59-16.44l-.1,0-6.28-1.82Q722,845,692.19,836.43l-6.63-1.91q-31.51-9-63.29-17.72l-7.19-1.95h0q-34.52-9.35-69.33-18h0l-8.06-2h0c-26.42-6.41-53-12.4-79.61-17.79h0c-3.22-.66-6.43-1.3-9.66-1.93-33.66-6.63-67.48-12.29-101.43-16.62-4.55-.59-9.07-1.15-13.63-1.68h0q-17.18-2-34.41-3.55c-87.42-7.78-226.34-8.65-362.68,38.22h-.15c-3.8,1.31-7.44,2.65-11.24,4a624.5,624.5,0,0,0-77.1,34q-3.51,1.84-7,3.75a564.74,564.74,0,0,0-52.82,32.49c-1.75,1.2-3.49,2.43-5.22,3.66q-20.82,14.81-40.72,32l-1.09.94-1-1.19-1.58-1.82q18.42-16,38.4-30.46,2.55-1.85,5.13-3.65a566.58,566.58,0,0,1,51.62-32.39h0c2.26-1.25,4.54-2.5,6.83-3.73a624,624,0,0,1,74-33.73h.07q5.34-2,10.75-4A719.28,719.28,0,0,1,.86,768.73c92.21-22.27,192.6-28.8,298.39-19.39q23.56,2.1,47,5.1,6.51.82,13,1.71c32.92,4.5,65.69,10.2,98.31,16.79h0c3.16.63,6.33,1.28,9.49,1.93h0q39.31,8.16,78.33,17.81l7.95,2h0q34.46,8.57,68.61,17.93h0c2.38.64,4.75,1.29,7.13,1.95q31.53,8.64,62.81,17.66l6.61,1.9q29.64,8.52,59,17.13l1.44.42,4.79,1.4h0c18.61,5.42,37.49,10.92,56.46,16.38h0l6.05,1.73c17.23,5,34.5,9.85,51.66,14.61l3.23.89h0l6,1.65h0q27.19,7.49,54.47,14.63h0l6,1.56q27.34,7.13,54.77,13.9l6.08,1.5q27.83,6.84,55.72,13.32c2.07.49,4.15,1,6.22,1.44q28.74,6.65,57.55,12.91l6.45,1.4q30.21,6.54,60.49,12.65l6.81,1.37q32.52,6.51,65.11,12.56h0l7.37,1.36q36.36,6.68,72.8,12.77h0l8.41,1.39h0q43.76,7.23,87.62,13.6,5.28.78,10.57,1.53a4581.1,4581.1,0,0,0,648.3,46.09q29.39,0,58.74-.38Z"/><path d="M2160.1,1097.28q-29.4.38-58.8.37A4584.41,4584.41,0,0,1,1351.83,1036l-8.23-1.37q-35.89-6-71.68-12.6h0l-7.29-1.35q-32.31-6-64.52-12.45l-6.78-1.36q-30.12-6.09-60.14-12.58h0l-6.43-1.39Q1098,986.66,1069.37,980c-2.08-.47-4.15-1-6.23-1.44q-27.9-6.48-55.72-13.31l-6.06-1.5q-27.48-6.79-54.87-13.92l-6-1.57q-27.39-7.15-54.7-14.67h0l-6-1.66-3.53-1c-17.19-4.77-34.48-9.67-51.72-14.61l-6.07-1.75h0c-19.11-5.5-38.15-11-56.9-16.51l-4.34-1.27-2-.57q-29.62-8.64-59.51-17.27l-6.65-1.91q-31.58-9.06-63.41-17.81h0l-7.22-2q-34.56-9.39-69.39-18.08h0l-8.11-2h0q-39.66-9.71-79.63-18h0q-4.82-1-9.63-2h0c-33.59-6.69-67.33-12.43-101.22-16.87h0q-6.8-.88-13.6-1.7h0q-19.29-2.34-38.62-4.06C211,786.94,72.56,786.05-63.43,832.56q-5.68,1.94-11.37,4h0a625.27,625.27,0,0,0-76.81,33.69h0c-2.34,1.22-4.65,2.46-7,3.73a567.76,567.76,0,0,0-52.81,32.28h0q-2.61,1.8-5.2,3.64-20.84,14.72-40.76,31.79l-2.38,2.06-2.28-2.62-.35-.4q19-16.56,39.73-31.41c1.7-1.22,3.4-2.44,5.12-3.63A568.73,568.73,0,0,1-166,873.51q3.39-1.87,6.82-3.71h0A626.38,626.38,0,0,1-85.3,836.35h0c3.54-1.35,7.06-2.66,10.64-4A720.27,720.27,0,0,1,.16,810.09c92.21-22.27,192.6-28.79,298.39-19.38q25.65,2.28,51.2,5.63h0q6.47.84,12.93,1.75c32.88,4.59,65.62,10.37,98.21,17q4.72,1,9.44,1.95h0q39.33,8.24,78.35,18h0l8,2h0q34.5,8.64,68.71,18.05l7.15,2h0q31.6,8.7,62.95,17.75l6.6,1.9h0q28.2,8.13,56.17,16.32l3,.88,6.25,1.83h0c18.69,5.44,37.65,11,56.66,16.42l6.06,1.74h0c15.67,4.48,31.37,8.93,47,13.25l8.12,2.24,6,1.65h0q27.29,7.47,54.65,14.6l6,1.56q27.39,7.11,54.87,13.87h0l6.07,1.49h0q27.87,6.81,55.82,13.27h0l6.22,1.44q28.76,6.62,57.59,12.84h0l6.44,1.4h0q30.19,6.5,60.47,12.56h0l6.81,1.37q32.49,6.47,65,12.47l7.35,1.35h0q36.27,6.62,72.65,12.65l8.38,1.38a4580,4580,0,0,0,741.41,60.38c19.6,0,39.14-.12,58.75-.37Z"/><path d="M2100.61,1139A4584.44,4584.44,0,0,1,875.55,972.35c-39.72-11-80-22.77-119-34.14C607.74,894.83,453.89,850,297.5,836.05c-131-11.65-377.76-7.79-558,149.06l-2.63-3c71-61.72,159.31-105.68,262.63-130.63,92.2-22.28,192.59-28.8,298.38-19.39C454.64,846,608.67,890.94,757.64,934.37c39,11.37,79.28,23.12,119,34.13a4581,4581,0,0,0,1224,166.52q29.38,0,58.74-.38l.05,4Q2130,1139,2100.61,1139Z"/><path d="M2099.91,1180.38A4584.14,4584.14,0,0,1,874.85,1013.71c-39.72-11-80-22.76-119-34.13C607,936.19,453.19,891.33,296.8,877.42c-131-11.66-377.76-7.79-558,149.05l-2.62-3c70.94-61.73,159.3-105.68,262.62-130.64C91,870.54,191.37,864,297.15,873.43c156.79,14,310.82,58.87,459.79,102.31,39,11.36,79.28,23.12,119,34.12a4580.6,4580.6,0,0,0,1224,166.52q29.39,0,58.74-.38l0,4Q2129.32,1180.38,2099.91,1180.38Z"/><path d="M2099.22,1221.74A4584.37,4584.37,0,0,1,874.16,1055.08c-39.73-11-80-22.77-119-34.14-148.78-43.38-302.62-88.24-459-102.16-131-11.65-377.75-7.79-558,149.06l-2.63-3c70.94-61.73,159.3-105.68,262.62-130.64,92.21-22.27,192.6-28.79,298.39-19.38,156.78,14,310.82,58.86,459.78,102.3,39,11.37,79.29,23.12,119,34.12a4580.67,4580.67,0,0,0,1224,166.52c19.6,0,39.13-.12,58.74-.37l.05,4Q2128.61,1221.74,2099.22,1221.74Z"/><path d="M2098.52,1263.11A4584.44,4584.44,0,0,1,873.46,1096.44c-39.73-11-80.05-22.77-119-34.14-148.78-43.38-302.62-88.24-459-102.15-131-11.66-377.76-7.79-558,149.05l-2.63-3c70.95-61.72,159.3-105.68,262.62-130.63,92.21-22.28,192.6-28.8,298.39-19.39,156.78,14,310.81,58.86,459.77,102.3,39,11.37,79.3,23.12,119,34.13a4581,4581,0,0,0,1224,166.52q29.39,0,58.74-.38l0,4Q2127.92,1263.11,2098.52,1263.11Z"/><path d="M2097.82,1304.47A4584.09,4584.09,0,0,1,872.76,1137.8c-39.72-11-80-22.76-119-34.13-148.78-43.39-302.63-88.25-459-102.16-131-11.65-377.76-7.79-558,149l-2.62-3c70.94-61.73,159.3-105.68,262.62-130.64,92.2-22.27,192.6-28.8,298.38-19.38,156.79,13.94,310.82,58.86,459.79,102.3,39,11.36,79.28,23.12,119,34.12a4580.6,4580.6,0,0,0,1224,166.52c19.6,0,39.14-.13,58.74-.38l.05,4Q2127.23,1304.46,2097.82,1304.47Z"/><path d="M2097.13,1345.83A4584.5,4584.5,0,0,1,872.06,1179.17c-39.72-11-80-22.77-119-34.14-148.78-43.38-302.62-88.24-459-102.16-131-11.65-377.76-7.79-558,149.06l-2.62-3c70.94-61.73,159.3-105.68,262.62-130.64,92.21-22.27,192.6-28.79,298.39-19.38,156.78,13.95,310.82,58.86,459.78,102.3,39,11.37,79.29,23.12,119,34.12a4580.67,4580.67,0,0,0,1224,166.52c19.59,0,39.13-.12,58.73-.37l.06,4Q2126.52,1345.84,2097.13,1345.83Z"/><path d="M2096.43,1387.2A4584.44,4584.44,0,0,1,871.37,1220.53c-39.73-11-80-22.77-119-34.14-148.78-43.38-302.62-88.24-459-102.15-131-11.66-377.76-7.79-558,149l-2.63-3c70.95-61.72,159.3-105.67,262.62-130.63,92.21-22.28,192.6-28.8,298.39-19.39,156.78,14,310.82,58.87,459.78,102.3,39,11.37,79.29,23.12,119,34.13a4580.58,4580.58,0,0,0,1224,166.52c19.6,0,39.14-.13,58.75-.38l0,4Q2125.82,1387.2,2096.43,1387.2Z"/><path d="M2095.73,1428.56A4584.43,4584.43,0,0,1,870.67,1261.9c-39.72-11-80-22.77-119-34.14-148.78-43.39-302.63-88.25-459-102.16-131-11.65-377.76-7.79-558,149.06l-2.63-3c71-61.73,159.31-105.68,262.63-130.64,92.2-22.27,192.59-28.8,298.38-19.38,156.79,13.94,310.82,58.86,459.79,102.3,39,11.36,79.28,23.12,119,34.12a4580.6,4580.6,0,0,0,1224,166.52q29.39,0,58.74-.38l.05,4Q2125.13,1428.57,2095.73,1428.56Z"/><path d="M2095,1469.92A4584.13,4584.13,0,0,1,870,1303.26c-39.72-11-80-22.77-119-34.14-148.78-43.38-302.62-88.24-459-102.16-131-11.65-377.76-7.79-558,149.06l-2.62-3c70.94-61.72,159.3-105.68,262.62-130.64,92.21-22.27,192.6-28.79,298.39-19.38,156.78,14,310.82,58.86,459.78,102.3,39,11.37,79.28,23.12,119,34.12a4580.6,4580.6,0,0,0,1224,166.52c19.6,0,39.14-.12,58.74-.37l.05,4Q2124.44,1469.93,2095,1469.92Z"/><path d="M2094.33,1511.29a4584.42,4584.42,0,0,1-1225-166.67c-39.73-11-80-22.76-119-34.13-148.78-43.39-302.62-88.25-459-102.16-131-11.66-377.75-7.79-558,149.05l-2.63-3c70.94-61.73,159.3-105.68,262.62-130.64,92.21-22.27,192.6-28.8,298.39-19.39,156.78,14,310.82,58.87,459.78,102.31,39,11.36,79.29,23.11,119,34.12a4580.66,4580.66,0,0,0,1224,166.52c19.6,0,39.14-.13,58.75-.38l.05,4Q2123.73,1511.29,2094.33,1511.29Z"/><path d="M2093.64,1552.65A4584.43,4584.43,0,0,1,868.58,1386c-39.72-11-80-22.77-119-34.14-148.78-43.39-302.63-88.25-459-102.16-131-11.65-377.76-7.79-558,149.06l-2.63-3C-199.18,1334-110.82,1290.05-7.5,1265.09c92.2-22.27,192.59-28.79,298.38-19.38,156.79,13.94,310.82,58.86,459.79,102.3,39,11.37,79.28,23.12,119,34.12a4580.49,4580.49,0,0,0,1224,166.52q29.39,0,58.74-.37l0,4Q2123,1552.66,2093.64,1552.65Z"/><path d="M2092.94,1594A4584.44,4584.44,0,0,1,867.88,1427.35c-39.72-11-80-22.77-119-34.14-148.78-43.38-302.62-88.24-459-102.16-131-11.65-377.76-7.79-558,149.06l-2.62-3c70.94-61.72,159.3-105.68,262.62-130.63,92.2-22.28,192.6-28.8,298.38-19.39C447,1301,601,1345.94,750,1389.37c39,11.37,79.28,23.12,119,34.13a4581,4581,0,0,0,1224,166.52q29.39,0,58.74-.38l.05,4Q2122.34,1594,2092.94,1594Z"/><path d="M2092.24,1635.38a4584,4584,0,0,1-1225-166.67c-39.73-11-80.05-22.76-119-34.13-148.78-43.39-302.62-88.25-459-102.16-131-11.66-377.75-7.79-558,149l-2.63-3c70.94-61.73,159.3-105.68,262.62-130.64,92.21-22.28,192.6-28.8,298.39-19.39,156.78,14,310.82,58.87,459.78,102.31,39,11.36,79.29,23.12,119,34.12a4580.6,4580.6,0,0,0,1224,166.52c19.6,0,39.14-.13,58.75-.38l.05,4Q2121.64,1635.38,2092.24,1635.38Z"/><path d="M2091.56,1676.74A4584.5,4584.5,0,0,1,866.49,1510.08c-39.72-11-80-22.77-119-34.14-148.78-43.38-302.63-88.24-459-102.16-131-11.65-377.76-7.79-558,149.06l-2.63-3c71-61.73,159.3-105.68,262.63-130.64,92.2-22.27,192.59-28.79,298.38-19.38,156.79,14,310.82,58.86,459.79,102.3,39,11.37,79.28,23.12,119,34.12a4580.55,4580.55,0,0,0,1224,166.52c19.6,0,39.14-.12,58.74-.37l.05,4Q2121,1676.75,2091.56,1676.74Z"/><path d="M2090.85,1718.11A4584.44,4584.44,0,0,1,865.79,1551.44c-39.72-11-80-22.77-119-34.14-148.78-43.38-302.62-88.24-459-102.15-131-11.66-377.76-7.79-558,149l-2.62-3c70.94-61.72,159.3-105.68,262.62-130.63,92.2-22.28,192.6-28.8,298.38-19.39,156.78,13.95,310.82,58.86,459.78,102.3,39,11.37,79.29,23.12,119,34.13a4581,4581,0,0,0,1224,166.52q29.39,0,58.74-.38l0,4Q2120.26,1718.11,2090.85,1718.11Z"/><path d="M2090.15,1759.47A4584.14,4584.14,0,0,1,865.09,1592.8c-39.72-11-80-22.76-119-34.13-148.78-43.39-302.62-88.25-459-102.16-131-11.65-377.75-7.79-558,149l-2.62-3c70.94-61.73,159.3-105.68,262.62-130.64,92.21-22.27,192.6-28.8,298.39-19.38,156.78,13.94,310.82,58.86,459.78,102.3,39,11.36,79.28,23.12,119,34.12a4580.6,4580.6,0,0,0,1224,166.52c19.6,0,39.14-.13,58.74-.38l.06,4Q2119.55,1759.47,2090.15,1759.47Z"/><path d="M2089.47,1800.83A4584.45,4584.45,0,0,1,864.4,1634.17c-39.73-11-80-22.77-119-34.14-148.78-43.38-302.63-88.24-459-102.16-131-11.65-377.76-7.79-558,149.06l-2.63-3c70.95-61.73,159.3-105.68,262.62-130.64,92.21-22.27,192.6-28.79,298.39-19.38,156.78,13.95,310.82,58.86,459.79,102.3,39,11.37,79.28,23.12,119,34.12a4580.55,4580.55,0,0,0,1224,166.52c19.6,0,39.13-.12,58.74-.37l.05,4Q2118.86,1800.84,2089.47,1800.83Z"/><path d="M2088.76,1842.2A4584.49,4584.49,0,0,1,863.7,1675.53c-39.72-11-80-22.77-119-34.14-148.78-43.38-302.63-88.24-459-102.15-131-11.66-377.76-7.79-558,149l-2.62-3c70.94-61.72,159.3-105.67,262.62-130.63,92.2-22.28,192.6-28.8,298.38-19.39,156.79,14,310.82,58.87,459.79,102.3,39,11.37,79.28,23.12,119,34.13a4580.6,4580.6,0,0,0,1224,166.52c19.6,0,39.14-.13,58.74-.38l.05,4Q2118.17,1842.2,2088.76,1842.2Z"/><path d="M1295.87,1810.56q-8.32.51-16.65,1.12l-16-2.91h0Q1061.4,1771.87,863,1716.9c-39.72-11-80-22.77-119-34.14-148.78-43.39-302.63-88.25-459-102.16-131-11.65-377.76-7.79-558,149.06l-2.62-3C-204.76,1664.91-116.4,1621-13.08,1596c92.21-22.27,192.6-28.8,298.39-19.38,156.78,13.94,310.81,58.86,459.78,102.3,39,11.36,79.28,23.12,119,34.12q205.48,57,415,94.54Q1287.49,1809.09,1295.87,1810.56Z"/><path d="M1142,1822.33q6,1.28,12,2.52-5.86.8-11.73,1.64h0l-11.77-2.5q-134.94-28.8-268.22-65.73c-39.73-11-80-22.77-119-34.14-148.78-43.38-302.63-88.24-459-102.16-131-11.65-377.75-7.79-558,149.06l-2.63-3c70.94-61.72,159.3-105.68,262.62-130.64,92.21-22.27,192.6-28.79,298.39-19.38,156.78,14,310.82,58.86,459.79,102.3,39,11.37,79.28,23.12,119,34.12Q1001.74,1792.76,1142,1822.33Z"/><path d="M1034.88,1839.93c3.33.78,6.65,1.57,10,2.34-3.28.59-6.57,1.18-9.85,1.79h0l-9.85-2.33h0q-82.1-19.53-163.53-42.11c-39.72-11-80-22.76-119-34.13-148.78-43.39-302.63-88.25-459-102.16-131-11.66-377.76-7.79-558,149.05l-2.63-3c71-61.73,159.31-105.68,262.63-130.64,92.2-22.27,192.59-28.8,298.38-19.39,156.79,14,310.82,58.87,459.79,102.31,39,11.36,79.28,23.11,119,34.12Q948.41,1819.53,1034.88,1839.93Z"/><path d="M941.52,1858.41l8.84,2.27c-3,.61-5.91,1.23-8.87,1.86l-8.77-2.27q-36-9.35-71.81-19.28c-39.72-11-80-22.77-119-34.14-148.78-43.39-302.63-88.25-459-102.16-131-11.65-377.76-7.79-558,149.06l-2.62-3c70.94-61.73,159.3-105.68,262.62-130.64,92.21-22.27,192.6-28.79,298.38-19.38C440,1714.65,594,1759.57,743,1803c39,11.37,79.28,23.12,119,34.12Q901.67,1848.13,941.52,1858.41Z"/><path d="M861.28,1878.5l3.05.84-8.23,1.86-8.14-2.27c-35.74-10-71.79-20.52-106.78-30.72-148.78-43.38-302.62-88.24-459-102.16-131-11.65-377.75-7.79-558,149.06l-2.63-3c70.94-61.72,159.3-105.68,262.62-130.63,92.21-22.28,192.6-28.8,298.39-19.39,156.78,14,310.82,58.86,459.78,102.3,37.31,10.88,75.83,22.11,113.87,32.71h0Z"/><path d="M775.58,1895.63l7.84,2.28-7.94,1.85-7.86-2.28-27.13-7.9c-148.78-43.39-302.63-88.25-459-102.16-131-11.65-377.76-7.79-558,149l-2.63-3c70.95-61.73,159.31-105.68,262.63-130.64,92.2-22.28,192.59-28.8,298.38-19.39,156.79,14,310.82,58.87,459.79,102.31l34,9.89Z"/><path d="M696.44,1914.16l7.83,2.28-7.95,1.86h0l-7.84-2.27h0c-132.73-38.34-269.22-74.92-407.69-87.25-127.27-11.32-363.74-8-542.4,136l-1.87,1.51-1.95,1.6q-6,4.89-11.81,10l-2.62-3q4.8-4.18,9.71-8.24c.64-.54,1.29-1.08,1.94-1.6l1.84-1.51c68.55-55.8,152.26-95.89,249.13-119.29,92.21-22.27,192.6-28.79,298.38-19.38,141.24,12.57,280.24,50.25,415.31,89.36Z"/><path d="M615.66,1932.81l8.14,2.26-8.24,1.87c-2.73-.76-5.45-1.51-8.18-2.25-107.23-29.35-216.64-54.7-327.31-64.54-117.43-10.45-327.83-8.43-500,105l-2.23,1.47-2.34,1.57q-18.84,12.68-37,27.21c-1.28,1-2.56,2.06-3.83,3.1q-6.37,5.2-12.64,10.66l-2.62-3q5.22-4.54,10.56-9l3.79-3.1q17.6-14.27,36.51-27.14h0c.77-.53,1.54-1.06,2.32-1.57s1.45-1,2.18-1.47h0c59.86-39.93,129.29-69.58,207.24-88.4,92.21-22.28,192.6-28.8,298.39-19.39,113.47,10.1,225.51,36.41,335.22,66.65Z"/><path d="M529.51,1951.75q4.46,1.1,8.9,2.22l-8.92,1.9h0l-9-2.22h0c-79.44-19.36-159.92-34.92-241.09-42.14-105.81-9.42-287.08-8.7-447.86,74.52h0l-2.78,1.44-2.89,1.54h0q-23.21,12.33-45.7,27-2.3,1.49-4.57,3h0q-18.77,12.6-36.87,27l-3.83,3.08q-6.81,5.55-13.5,11.37l-2.63-3q5.65-4.92,11.46-9.68,1.88-1.56,3.78-3.09,17.55-14.16,36.4-27,2.23-1.53,4.5-3,21.64-14.38,44.93-27c1-.52,1.91-1,2.87-1.54l2.71-1.44h0c47.22-24.88,99.34-44.26,156-57.94,92.21-22.27,192.6-28.8,298.39-19.38C363.9,1915,447.28,1931.43,529.51,1951.75Z"/><path d="M431.34,1971.26q5.34,1.07,10.69,2.16-5.26,1-10.52,2-5.47-1.1-10.95-2.14h0a1413.37,1413.37,0,0,0-141.87-20.37c-91-8.09-237.63-8.7-379.14,44.13l-3.89,1.46-3.92,1.51h0a621.39,621.39,0,0,0-60.36,27.14c-1.89,1-3.77,2-5.66,3q-23.08,12.23-45.5,26.83l-4.54,3q-18.72,12.51-36.77,26.84c-1.28,1-2.55,2-3.83,3.06q-7.28,5.91-14.41,12.11l-2.62-3q6.09-5.31,12.36-10.43l3.78-3.07q17.5-14.07,36.3-26.77,2.24-1.51,4.49-3,21.56-14.27,44.74-26.76c1.84-1,3.7-2,5.56-3a623.24,623.24,0,0,1,58.75-27l3.83-1.51c1.23-.49,2.47-1,3.72-1.45h0a712.91,712.91,0,0,1,89.08-27.64c92.2-22.27,192.6-28.79,298.38-19.38,51.08,4.54,101.88,12.37,152.3,22.37Z"/><path d="M299.59,1992.33q8.31.89,16.6,1.88-8.12,1.14-16.14,2.2h0q-9.08-1-18.16-1.81h0l-3.84-.36c-67-6-164.34-7.87-267.54,12.7q-3.93.78-7.88,1.61c-2.46.52-4.92,1-7.38,1.59h0a712.38,712.38,0,0,0-96.25,28.2h0c-2.58,1-5.17,2-7.75,3a622,622,0,0,0-59.89,26.88q-2.83,1.45-5.64,2.94-23,12.15-45.3,26.63l-4.55,3q-18.65,12.43-36.65,26.65-1.92,1.51-3.83,3.06-7.74,6.24-15.34,12.85l-2.62-3q6.56-5.7,13.3-11.2c1.26-1,2.52-2,3.79-3.05q17.46-14,36.21-26.59c1.48-1,3-2,4.48-3q21.45-14.16,44.53-26.55c1.85-1,3.7-2,5.56-2.94a622.4,622.4,0,0,1,58.32-26.79h0c2.49-1,5-2,7.49-2.94A713.2,713.2,0,0,1-20,2009.64l1.5-.36h0c2.22-.53,4.44-1.06,6.67-1.56s4.64-1.07,7-1.58h0c88-19.44,183.21-24.79,283.23-15.89q10.62.95,21.21,2.08h0Z"/><path d="M1527.33,1810.83l-.21,2-.21,2c-77-8.3-154.07-9-231-4.25q-8.32.51-16.65,1.12c-41.78,3-83.52,7.48-125.18,13.17q-5.86.8-11.73,1.64h0q-48.81,6.91-97.44,15.78c-3.28.59-6.57,1.18-9.85,1.79h0q-42.4,7.79-84.63,16.62h0c-3,.61-5.91,1.23-8.87,1.86q-38.67,8.1-77.15,16.8h0l-8.23,1.86q-36.44,8.22-72.66,16.71h0l-7.94,1.85-42.54,10-28.65,6.72h0l-7.95,1.86h0q-36.06,8.43-72.5,16.77h0l-8.24,1.87q-38.44,8.73-77.15,17l-8.92,1.9h0q-43.68,9.26-87.45,17.55-5.26,1-10.52,2-34.15,6.31-68.22,11.79-23.87,3.81-47.07,7h0q-8.12,1.14-16.14,2.2h0c-80.94,10.66-156.14,15.94-227.11,15.94q-39.71,0-77.72-2.21h0c-1.54-.07-3.07-.17-4.6-.26-3-.19-6.07-.38-9.1-.6h0q-45.1-3.08-89.72-9.31h0c-2.57-.36-5.15-.72-7.71-1.1q-29.22-4.26-58.17-9.86h0l-6-1.18q-22.23-4.41-44.29-9.6l-5.21-1.24h0q-17.92-4.31-35.73-9.13l-4.72-1.28a1279.68,1279.68,0,0,1-136.15-45.77l.74-1.86.74-1.86a1277.26,1277.26,0,0,0,138.45,46.38l4.76,1.28q18.15,4.88,36.42,9.2h0l5.27,1.24q22.56,5.25,45.3,9.66h0l6.13,1.18h0q29.88,5.65,60,9.88h0c2.66.37,5.31.74,8,1.09q45.38,6.07,91.26,8.89l4.3.25h0q7.66.45,15.33.8c90.54,4.16,181.14-1.16,271.38-12.34h0q8.85-1.1,17.7-2.27h0c40.42-5.34,80.74-11.82,121-19.09h0c3.59-.65,7.19-1.31,10.77-2h0q44.69-8.22,89.13-17.61h0l9-1.9q39-8.25,77.87-17.06l8.27-1.88h0q36.51-8.28,72.8-16.78h0l8-1.87h0l35.59-8.34,35.59-8.34,8-1.85h0q36-8.42,72.38-16.7l8.21-1.85h0q38.16-8.62,76.53-16.81,4.39-.94,8.8-1.86,41.78-8.79,83.62-16.68h0q4.86-.92,9.73-1.8,46.83-8.64,93.53-15.63l2.12-.31q5.76-.85,11.48-1.66,62.64-8.89,121.17-13.56h0q8-.63,15.9-1.19C1367.62,1801.35,1449.68,1802.46,1527.33,1810.83Z"/><path d="M1533.15,1853.05l-.43,4c-77.36-8.34-154.85-9-232.2-4.17q-8.34.51-16.68,1.12c-41.87,3-83.69,7.56-125.43,13.29h0q-5.87.81-11.72,1.64-48.89,7-97.59,15.87c-3.3.59-6.59,1.19-9.89,1.8h0q-42.47,7.82-84.76,16.69h0l-8.86,1.85h0q-38.73,8.14-77.26,16.86h0l-8.26,1.87q-36.48,8.24-72.73,16.74h0l-7.95,1.85h0q-20.32,4.74-40.54,9.5l-30.64,7.18h0l-8,1.85h0q-36,8.43-72.42,16.75l-8.21,1.87h0q-38.35,8.69-77,17l-8.89,1.89h0q-43.48,9.19-87,17.43h0q-5.24,1-10.47,1.94h0q-33.57,6.21-67,11.58-23.76,3.79-46.86,7h0c-5.29.74-10.54,1.46-15.78,2.14h0c-81.16,10.73-156.54,16-227.69,16q-42.12,0-82.34-2.48l-3.54-.23h0q-6.69-.42-13.35-.92h0q-44.4-3.3-88.31-9.66l-7.62-1.13h0q-29-4.38-57.82-10.08l-6-1.21q-22.15-4.5-44.14-9.78h0l-5.19-1.26q-17.9-4.39-35.68-9.29l-4.7-1.31A1279.67,1279.67,0,0,1-400.51,1963l1.49-3.71a1276.81,1276.81,0,0,0,132.79,44.81l4.74,1.31q18.11,4.95,36.35,9.36c1.76.43,3.51.85,5.27,1.26q22.47,5.34,45.13,9.85l6.1,1.2q29.69,5.76,59.66,10.11,3.93.58,7.88,1.12h0q46.65,6.5,93.87,9.52h0l3.83.25c3.66.22,7.3.43,11,.63h0c93.79,4.93,187.66-.43,281.15-12.06q8.6-1.07,17.18-2.21h0c39.87-5.27,79.65-11.65,119.33-18.82h0q5.36-1,10.72-2h0q44.43-8.17,88.64-17.49h0c3-.62,6-1.26,9-1.89h0q38.91-8.22,77.63-17h0l8.26-1.87q36.46-8.25,72.71-16.76h0c2.66-.61,5.3-1.23,8-1.86h0q18.81-4.38,37.55-8.79l33.64-7.88,7.95-1.86q36.06-8.41,72.47-16.72h0l8.18-1.87q38.22-8.64,76.68-16.86l8.79-1.86q41.85-8.82,83.77-16.74c3.26-.62,6.5-1.22,9.75-1.82h0c31.76-5.87,63.5-11.24,95.14-15.92l.64-.1h0q5.76-.84,11.47-1.66,62.78-9,121.42-13.67,8-.64,15.94-1.2C1372.69,1843.56,1455.15,1844.64,1533.15,1853.05Z"/><path d="M84.53,2096.8q-42.12,0-82.34-2.48a1277.87,1277.87,0,0,1-396.88-89.07l1.48-3.71A1274.15,1274.15,0,0,0,2.43,2090.33c249.33,15.29,499.4-43.35,741.23-100.06,129.8-30.44,264-61.91,396.38-81.52,148.5-22,279-26.41,398.92-13.47l-.42,4c-266.62-28.75-534.71,34.12-794,94.91-121,28.37-246.07,57.71-369.65,77.45C269.45,2088.46,173.66,2096.8,84.53,2096.8Z"/><path d="M90.34,2139q-42.12,0-82.34-2.47a1278.43,1278.43,0,0,1-396.88-89.07l1.49-3.72A1274,1274,0,0,0,8.25,2132.55c249.32,15.29,499.39-43.35,741.22-100.06,129.8-30.44,264-61.91,396.39-81.52,148.49-22,279-26.41,398.92-13.47l-.43,4c-266.62-28.76-534.71,34.11-794,94.91-121,28.37-246.08,57.7-369.66,77.45C275.27,2130.69,179.48,2139,90.34,2139Z"/><path d="M96.16,2181.24q-42.12,0-82.34-2.47a1278.43,1278.43,0,0,1-396.88-89.07l1.48-3.72a1274.45,1274.45,0,0,0,395.64,88.8c249.34,15.28,499.4-43.36,741.23-100.07,129.8-30.44,264-61.91,396.38-81.52,148.5-22,279-26.41,398.92-13.47l-.42,4c-266.62-28.76-534.71,34.11-794,94.91-121,28.37-246.07,57.7-369.66,77.45C281.08,2172.91,185.29,2181.24,96.16,2181.24Z"/><path d="M102,2223.46q-42.12,0-82.34-2.47a1278.15,1278.15,0,0,1-396.88-89.07l1.49-3.71A1274.31,1274.31,0,0,0,19.87,2217c249.33,15.29,499.4-43.35,741.24-100.06,129.79-30.44,264-61.92,396.38-81.53,148.49-22,279-26.4,398.92-13.47l-.43,4c-266.62-28.76-534.71,34.11-794,94.91-121,28.37-246.08,57.71-369.66,77.45C286.9,2215.13,191.11,2223.46,102,2223.46Z"/><path d="M107.79,2265.69q-42.12,0-82.34-2.48a1277.87,1277.87,0,0,1-396.88-89.07l1.48-3.71a1274.15,1274.15,0,0,0,395.64,88.79c249.32,15.29,499.39-43.35,741.23-100.06,129.8-30.44,264-61.92,396.38-81.53,148.5-22,279-26.4,398.92-13.46l-.43,4c-266.62-28.75-534.7,34.11-794,94.91-121,28.37-246.08,57.71-369.66,77.45C292.71,2257.35,196.93,2265.69,107.79,2265.69Z"/><path d="M113.6,2307.91q-42.12,0-82.34-2.47a1278.43,1278.43,0,0,1-396.88-89.07l1.49-3.72A1274,1274,0,0,0,31.5,2301.44c249.33,15.29,499.4-43.35,741.24-100.06,129.79-30.44,264-61.91,396.38-81.52,148.49-22,279-26.41,398.92-13.47l-.43,4c-266.62-28.75-534.71,34.12-794,94.91-121,28.37-246.08,57.71-369.66,77.46C298.53,2299.58,202.74,2307.91,113.6,2307.91Z"/><path d="M119.42,2350.13q-42.12,0-82.34-2.47a1278.43,1278.43,0,0,1-396.88-89.07l1.48-3.72a1274.45,1274.45,0,0,0,395.64,88.8c249.33,15.28,499.39-43.36,741.23-100.07,129.8-30.44,264-61.91,396.38-81.52,148.5-22,279-26.41,398.92-13.47l-.43,4c-266.62-28.76-534.7,34.11-794,94.91-121,28.37-246.08,57.7-369.66,77.45C304.34,2341.8,208.56,2350.13,119.42,2350.13Z"/><path d="M125.23,2392.35q-42.12,0-82.34-2.47A1278.43,1278.43,0,0,1-354,2300.81l1.49-3.72a1274,1274,0,0,0,395.63,88.8c249.33,15.28,499.4-43.35,741.23-100.07,129.8-30.43,264-61.91,396.39-81.52,148.49-22,279-26.41,398.92-13.47l-.43,4c-266.62-28.76-534.71,34.11-794,94.91-121,28.37-246.08,57.71-369.66,77.45C310.16,2384,214.37,2392.35,125.23,2392.35Z"/><path d="M131.05,2434.58q-42.12,0-82.35-2.48A1278.15,1278.15,0,0,1-348.17,2343l1.48-3.71A1274.37,1274.37,0,0,0,49,2428.11c249.33,15.28,499.39-43.35,741.23-100.06,129.8-30.44,264-61.92,396.38-81.53,148.5-22,279-26.4,398.92-13.47l-.43,4c-266.62-28.75-534.7,34.11-794,94.91-121,28.37-246.08,57.71-369.66,77.45C316,2426.24,220.18,2434.58,131.05,2434.58Z"/><path d="M136.86,2476.8q-42.12,0-82.34-2.48a1277.87,1277.87,0,0,1-396.88-89.07l1.49-3.71a1274,1274,0,0,0,395.63,88.79C304.09,2485.62,554.16,2427,796,2370.27c129.8-30.44,264-61.91,396.39-81.52,148.49-22,279-26.41,398.92-13.47l-.43,4c-266.63-28.75-534.71,34.12-794,94.91-121,28.37-246.08,57.71-369.66,77.45C321.79,2468.46,226,2476.8,136.86,2476.8Z"/><path d="M142.68,2519q-42.12,0-82.35-2.47a1278.37,1278.37,0,0,1-396.87-89.07l1.48-3.72a1274.09,1274.09,0,0,0,395.64,88.79c249.33,15.29,499.39-43.35,741.23-100.06,129.8-30.44,264-61.91,396.38-81.52,148.5-22,279-26.41,398.92-13.47l-.43,4c-266.62-28.76-534.7,34.11-794,94.91-121,28.37-246.08,57.7-369.66,77.45C327.6,2510.69,231.81,2519,142.68,2519Z"/><path d="M148.49,2561.24q-42.12,0-82.34-2.47a1278.43,1278.43,0,0,1-396.88-89.07l1.49-3.72a1274.33,1274.33,0,0,0,395.63,88.8c249.33,15.28,499.4-43.36,741.23-100.07,129.8-30.44,264-61.91,396.39-81.52,148.49-22,279-26.41,398.92-13.47l-.43,4c-266.62-28.76-534.71,34.11-794,94.91-121,28.37-246.08,57.7-369.66,77.45C333.41,2552.91,237.63,2561.24,148.49,2561.24Z"/><path d="M154.31,2603.46q-42.12,0-82.35-2.47a1278.09,1278.09,0,0,1-396.87-89.07l1.48-3.71A1274.37,1274.37,0,0,0,72.21,2597c249.32,15.29,499.39-43.35,741.23-100.06,129.8-30.44,264-61.92,396.38-81.53,148.5-22,279-26.4,398.92-13.47l-.43,4c-266.62-28.75-534.7,34.11-794,94.91-121,28.37-246.08,57.71-369.66,77.45C339.23,2595.13,243.44,2603.46,154.31,2603.46Z"/><path d="M160.12,2645.69q-42.12,0-82.34-2.48a1277.87,1277.87,0,0,1-396.88-89.07l1.49-3.71A1274,1274,0,0,0,78,2639.22c249.33,15.29,499.4-43.35,741.23-100.06,129.8-30.44,264-61.92,396.39-81.53,148.49-22,279-26.4,398.92-13.46l-.43,4c-266.62-28.75-534.71,34.11-794,94.91-121,28.37-246.08,57.71-369.66,77.45C345,2637.35,249.26,2645.69,160.12,2645.69Z"/><path d="M165.94,2687.91q-42.12,0-82.35-2.47a1278.37,1278.37,0,0,1-396.87-89.07l1.48-3.72a1274.09,1274.09,0,0,0,395.64,88.79c249.33,15.28,499.39-43.35,741.23-100.06,129.8-30.44,264-61.91,396.38-81.52,148.5-22,279-26.41,398.92-13.47l-.43,4c-266.62-28.75-534.7,34.12-794,94.91-121,28.37-246.08,57.71-369.66,77.46C350.86,2679.58,255.07,2687.91,165.94,2687.91Z"/><path d="M171.75,2730.13q-42.12,0-82.34-2.47a1278.43,1278.43,0,0,1-396.88-89.07l1.49-3.72a1274.33,1274.33,0,0,0,395.63,88.8C339,2739,589.05,2680.31,830.88,2623.6c129.8-30.44,264-61.91,396.39-81.52,148.49-22,279-26.41,398.92-13.47l-.43,4c-266.62-28.76-534.71,34.11-794,94.91-121,28.37-246.08,57.7-369.66,77.45C356.67,2721.8,260.89,2730.13,171.75,2730.13Z"/><path d="M177.57,2772.35c-28.09,0-55.49-.82-82.35-2.47a1278.37,1278.37,0,0,1-396.87-89.07l1.48-3.72a1274,1274,0,0,0,395.64,88.8c249.33,15.28,499.39-43.35,741.23-100.07,129.8-30.43,264-61.91,396.38-81.52,148.5-22,279-26.41,398.92-13.47l-.43,4c-266.62-28.76-534.7,34.11-794,94.91-121,28.37-246.08,57.71-369.66,77.45C362.49,2764,266.7,2772.35,177.57,2772.35Z"/><path d="M183.38,2814.58q-42.12,0-82.34-2.48A1278.15,1278.15,0,0,1-295.84,2723l1.49-3.71a1274.31,1274.31,0,0,0,395.63,88.79c249.33,15.28,499.4-43.35,741.23-100.06,129.8-30.44,264-61.92,396.38-81.53,148.5-22,279-26.4,398.93-13.47l-.43,4c-266.62-28.75-534.71,34.11-794,94.91-121,28.37-246.07,57.71-369.65,77.45C368.3,2806.24,272.52,2814.58,183.38,2814.58Z"/><path d="M189.2,2856.8q-42.12,0-82.35-2.48A1277.74,1277.74,0,0,1-290,2765.25l1.48-3.71a1274,1274,0,0,0,395.64,88.79c249.32,15.29,499.39-43.35,741.23-100.06,129.8-30.44,264-61.91,396.38-81.52,148.5-22,279-26.41,398.92-13.47l-.43,4c-266.62-28.75-534.7,34.12-794,94.91-121,28.37-246.08,57.71-369.66,77.45C374.12,2848.46,278.33,2856.8,189.2,2856.8Z"/><path d="M195,2899q-42.12,0-82.34-2.47a1278.43,1278.43,0,0,1-396.88-89.07l1.48-3.72a1274.15,1274.15,0,0,0,395.64,88.79c249.33,15.29,499.4-43.35,741.23-100.06,129.8-30.44,264-61.91,396.38-81.52,148.5-22,279-26.41,398.93-13.47l-.43,4c-266.62-28.76-534.71,34.11-794,94.91-121,28.37-246.07,57.7-369.65,77.45C379.93,2890.69,284.14,2899,195,2899Z"/><path d="M200.83,2941.24q-42.12,0-82.35-2.47a1278.31,1278.31,0,0,1-396.87-89.07l1.48-3.72a1274.32,1274.32,0,0,0,395.64,88.8c249.32,15.28,499.39-43.36,741.23-100.07,129.79-30.44,264-61.91,396.38-81.52,148.5-22,279-26.4,398.92-13.47l-.43,4c-266.63-28.76-534.7,34.11-794,94.91-121,28.37-246.08,57.7-369.66,77.45C385.75,2932.91,290,2941.24,200.83,2941.24Z"/><path d="M206.64,2983.46q-42.12,0-82.34-2.47a1278.15,1278.15,0,0,1-396.88-89.07l1.48-3.71A1274.44,1274.44,0,0,0,124.54,2977c249.33,15.29,499.4-43.35,741.23-100.06,129.8-30.44,264-61.92,396.38-81.53,148.5-22,279-26.4,398.93-13.47l-.43,4c-266.62-28.75-534.71,34.11-794,94.91-121,28.37-246.08,57.71-369.66,77.45C391.56,2975.13,295.78,2983.46,206.64,2983.46Z"/><path d="M212.46,3025.69q-42.12,0-82.35-2.48a1277.93,1277.93,0,0,1-396.88-89.07l1.49-3.71a1274,1274,0,0,0,395.64,88.79c249.33,15.29,499.39-43.35,741.23-100.06,129.8-30.44,264-61.92,396.38-81.53,148.49-22,279-26.4,398.92-13.46l-.43,4c-266.62-28.75-534.71,34.11-794,94.91-121,28.37-246.08,57.71-369.66,77.45C397.38,3017.35,301.59,3025.69,212.46,3025.69Z"/><path d="M218.27,3067.91q-42.12,0-82.34-2.47a1278.43,1278.43,0,0,1-396.88-89.07l1.48-3.72a1274.15,1274.15,0,0,0,395.64,88.79c249.33,15.28,499.4-43.35,741.23-100.06,129.8-30.44,264-61.91,396.38-81.52,148.5-22,279-26.41,398.93-13.47l-.43,4c-266.62-28.75-534.71,34.12-794,94.91-121,28.37-246.07,57.71-369.65,77.46C403.19,3059.58,307.41,3067.91,218.27,3067.91Z"/><path d="M224.09,3110.13q-42.12,0-82.35-2.47a1278.5,1278.5,0,0,1-396.88-89.07l1.49-3.72A1274.32,1274.32,0,0,0,142,3103.67c249.33,15.28,499.39-43.36,741.23-100.07,129.8-30.44,264-61.91,396.38-81.52,148.49-22,279-26.41,398.92-13.47l-.43,4c-266.62-28.76-534.7,34.11-794,94.91-121,28.37-246.08,57.7-369.66,77.45C409,3101.8,313.22,3110.13,224.09,3110.13Z"/></g></svg>